<?xml version="1.0" encoding="iso-8859-1"?>
<!-- Generator: Adobe Illustrator 19.0.0, SVG Export Plug-In . SVG Version: 6.00 Build 0)  -->
<svg version="1.1" id="Capa_1" xmlns="http://www.w3.org/2000/svg" xmlns:xlink="http://www.w3.org/1999/xlink" x="0px" y="0px"
	 viewBox="0 0 512 512" style="enable-background:new 0 0 512 512;" xml:space="preserve">
<g>
	<g transform="translate(1 1)">
		<rect x="289.133" y="7.533" style="fill:#607D8B;" width="187.733" height="221.867"/>
		<g>
			<path style="fill:#283593;" d="M229.4,178.2v17.067c-0.014,4.707-3.826,8.52-8.533,8.533h-204.8
				c-4.707-0.014-8.52-3.826-8.533-8.533V178.2c0.014-4.707,3.826-8.52,8.533-8.533H24.6V75.8h8.533V16.067
				c0.014-4.707,3.826-8.52,8.533-8.533h153.6c4.707,0.014,8.52,3.826,8.533,8.533V75.8h8.533v93.867h8.533
				C225.574,169.68,229.386,173.493,229.4,178.2z"/>
			<path style="fill:#283593;" d="M16.067,169.667h204.8c4.713,0,8.533,3.821,8.533,8.533v17.067c0,4.713-3.821,8.533-8.533,8.533
				h-204.8c-4.713,0-8.533-3.821-8.533-8.533V178.2C7.533,173.487,11.354,169.667,16.067,169.667z"/>
			<path style="fill:#283593;" d="M203.8,16.067V75.8H33.133V16.067c0.014-4.707,3.826-8.52,8.533-8.533h153.6
				C199.974,7.547,203.786,11.359,203.8,16.067z"/>
		</g>
		<g>
			<path style="fill:#3F51B5;" d="M203.8,178.2v17.067c-0.014,4.707-3.826,8.52-8.533,8.533h-179.2
				c-4.707-0.014-8.52-3.826-8.533-8.533V178.2c0.014-4.707,3.826-8.52,8.533-8.533H24.6V75.8h8.533V16.067
				c0.014-4.707,3.826-8.52,8.533-8.533h128c4.707,0.014,8.52,3.826,8.533,8.533V75.8h8.533v93.867h8.533
				C199.974,169.68,203.786,173.493,203.8,178.2z"/>
			<path style="fill:#3F51B5;" d="M16.067,169.667h179.2c4.713,0,8.533,3.821,8.533,8.533v17.067c0,4.713-3.821,8.533-8.533,8.533
				h-179.2c-4.713,0-8.533-3.821-8.533-8.533V178.2C7.533,173.487,11.354,169.667,16.067,169.667z"/>
			<path style="fill:#3F51B5;" d="M178.2,16.067V75.8H33.133V16.067c0.014-4.707,3.826-8.52,8.533-8.533h128
				C174.374,7.547,178.186,11.359,178.2,16.067z"/>
		</g>
		<path style="fill:#607D8B;" d="M502.467,84.333c-0.069,9.397-7.67,16.998-17.067,17.067H280.6
			c-9.414-0.028-17.039-7.653-17.067-17.067c0.068-9.397,7.669-16.999,17.067-17.067h204.8
			C494.814,67.294,502.439,74.919,502.467,84.333z"/>
		<g>
			<path style="fill:#CFD8DC;" d="M451.267,7.533V229.4H289.133v-128H280.6c-9.414-0.028-17.039-7.653-17.067-17.067
				c0.068-9.397,7.669-16.999,17.067-17.067h8.533V7.533H451.267z"/>
			<path style="fill:#CFD8DC;" d="M476.867,84.333c-0.069,9.397-7.67,16.998-17.067,17.067H280.6
				c-9.414-0.028-17.039-7.653-17.067-17.067c0.068-9.397,7.669-16.999,17.067-17.067h179.2
				C469.214,67.294,476.839,74.919,476.867,84.333z"/>
		</g>
	</g>
	<path d="M486.4,59.733v-51.2c0.001-2.264-0.897-4.435-2.498-6.035c-1.601-1.601-3.772-2.499-6.035-2.498H290.133
		c-2.264-0.001-4.435,0.897-6.035,2.498c-1.601,1.601-2.499,3.772-2.498,6.035v51.2c-14.138,0-25.6,11.462-25.6,25.6
		s11.462,25.6,25.6,25.6V230.4c-0.001,2.264,0.897,4.435,2.498,6.035c1.601,1.601,3.772,2.499,6.035,2.498H332.8v128
		c-0.015,14.132-11.468,25.585-25.6,25.6H204.8c-14.132-0.015-25.585-11.468-25.6-25.6v-153.6h51.2
		c2.264,0.001,4.435-0.897,6.035-2.498s2.499-3.772,2.498-6.035v-34.133c0.001-2.264-0.897-4.435-2.498-6.035
		s-3.772-2.499-6.035-2.498h-8.533V76.8c0.001-2.264-0.897-4.435-2.498-6.035c-1.601-1.601-3.772-2.499-6.035-2.498V8.533
		c0.001-2.264-0.897-4.435-2.498-6.035S207.064-0.001,204.8,0H34.133c-2.264-0.001-4.435,0.897-6.035,2.498
		C26.497,4.099,25.599,6.27,25.6,8.533v59.733c-2.264-0.001-4.435,0.897-6.035,2.498c-1.601,1.601-2.499,3.772-2.498,6.035v85.333
		H8.533c-2.264-0.001-4.435,0.897-6.035,2.498s-2.499,3.772-2.498,6.035V204.8c-0.001,2.264,0.897,4.435,2.498,6.035
		s3.772,2.499,6.035,2.498h51.2v153.6C59.823,447.014,124.719,511.911,204.8,512h102.4c80.081-0.089,144.977-64.986,145.067-145.067
		v-128h25.6c2.264,0.001,4.435-0.897,6.035-2.498c1.601-1.601,2.499-3.772,2.498-6.035V110.933c14.138,0,25.6-11.462,25.6-25.6
		S500.539,59.733,486.4,59.733z M298.667,17.067h170.667v42.667H298.667V17.067z M298.667,110.933h128v110.933h-128V110.933z
		 M110.933,213.333H128v153.6c0.046,42.396,34.404,76.754,76.8,76.8h102.4c42.396-0.046,76.754-34.404,76.8-76.8v-128h17.067v128
		c-0.059,51.817-42.05,93.808-93.867,93.867H204.8c-51.817-0.059-93.808-42.05-93.867-93.867V213.333z M204.8,409.6h102.4
		c23.553-0.028,42.639-19.114,42.667-42.667v-128h17.067v128c-0.04,32.973-26.76,59.693-59.733,59.733H204.8
		c-32.973-0.04-59.693-26.76-59.733-59.733v-153.6h17.067v153.6C162.161,390.486,181.247,409.572,204.8,409.6z M42.667,17.067h153.6
		v51.2h-153.6V17.067z M34.133,85.333H204.8v76.8H34.133V85.333z M17.067,179.2h204.8v17.067h-204.8V179.2z M435.2,366.933
		c-0.077,70.66-57.34,127.923-128,128H204.8c-70.66-0.077-127.923-57.34-128-128v-153.6h17.067v153.6
		c0.071,61.237,49.696,110.863,110.933,110.933h102.4c61.237-0.071,110.863-49.696,110.933-110.933v-128H435.2V366.933z
		 M469.333,221.867h-25.6V110.933h25.6V221.867z M486.4,93.867H281.6c-4.713,0-8.533-3.821-8.533-8.533s3.82-8.533,8.533-8.533
		h204.8c4.713,0,8.533,3.821,8.533,8.533S491.113,93.867,486.4,93.867z"/>
</g>
<g>
</g>
<g>
</g>
<g>
</g>
<g>
</g>
<g>
</g>
<g>
</g>
<g>
</g>
<g>
</g>
<g>
</g>
<g>
</g>
<g>
</g>
<g>
</g>
<g>
</g>
<g>
</g>
<g>
</g>
</svg>
