<?xml version="1.0" encoding="iso-8859-1"?>
<!-- Generator: Adobe Illustrator 19.0.0, SVG Export Plug-In . SVG Version: 6.00 Build 0)  -->
<svg version="1.1" id="Capa_1" xmlns="http://www.w3.org/2000/svg" xmlns:xlink="http://www.w3.org/1999/xlink" x="0px" y="0px"
	 viewBox="0 0 512 512" style="enable-background:new 0 0 512 512;" xml:space="preserve">
<g>
	<g transform="translate(1 1)">
		<g>
			<path style="fill:#FF9801;" d="M451.267,33.133v102.4H314.733V41.667c0.014-4.707,3.826-8.52,8.533-8.533H451.267z"/>
			<path style="fill:#FF9801;" d="M280.6,41.667v93.867H58.733v-102.4h213.333C276.774,33.147,280.586,36.959,280.6,41.667z"/>
		</g>
		<g>
			<path style="fill:#CFD8DC;" d="M75.8,16.067v119.467H24.6V16.067c0.014-4.707,3.826-8.52,8.533-8.533h34.133
				C71.974,7.547,75.786,11.359,75.8,16.067z"/>
			<path style="fill:#CFD8DC;" d="M485.4,16.067v119.467h-51.2V16.067c0.014-4.707,3.826-8.52,8.533-8.533h34.133
				C481.574,7.547,485.386,11.359,485.4,16.067z"/>
		</g>
		<path style="fill:#1566C0;" d="M237.933,272.067v221.867c-0.014,4.707-3.826,8.52-8.533,8.533H127
			c-4.707-0.014-8.52-3.826-8.533-8.533V272.067H237.933z"/>
		<path style="fill:#2296F3;" d="M212.333,272.067v221.867c-0.014,4.707-3.826,8.52-8.533,8.533H127
			c-4.707-0.014-8.52-3.826-8.533-8.533V272.067H212.333z"/>
		<path style="fill:#0377BC;" d="M468.333,237.933V280.6c-0.014,4.707-3.826,8.52-8.533,8.533H50.2
			c-4.707-0.014-8.52-3.826-8.533-8.533v-42.667H468.333z"/>
		<path style="fill:#02A9F4;" d="M442.733,237.933V280.6c-0.014,4.707-3.826,8.52-8.533,8.533h-384
			c-4.707-0.014-8.52-3.826-8.533-8.533v-42.667H442.733z"/>
		<path style="fill:#37474F;" d="M16.067,118.467h477.867c4.713,0,8.533,3.82,8.533,8.533v119.467c0,4.713-3.821,8.533-8.533,8.533
			H16.067c-4.713,0-8.533-3.821-8.533-8.533V127C7.533,122.287,11.354,118.467,16.067,118.467z"/>
		<path style="fill:#607D8B;" d="M16.067,118.467h452.267c4.713,0,8.533,3.82,8.533,8.533v119.467c0,4.713-3.821,8.533-8.533,8.533
			H16.067c-4.713,0-8.533-3.821-8.533-8.533V127C7.533,122.287,11.354,118.467,16.067,118.467z"/>
		<rect x="161.133" y="118.467" style="fill:#CFD8DC;" width="187.733" height="68.267"/>
		<path style="fill:#607D8B;" d="M502.467,220.867v25.6c-0.014,4.707-3.826,8.52-8.533,8.533h-25.6
			c4.707-0.014,8.52-3.826,8.533-8.533v-25.6H502.467z"/>
		<path style="fill:#CFD8DC;" d="M476.867,220.867v25.6c-0.014,4.707-3.826,8.52-8.533,8.533H16.067
			c-4.707-0.014-8.52-3.826-8.533-8.533v-25.6H476.867z"/>
	</g>
	<path d="M494.933,110.933V17.067C494.921,7.646,487.287,0.012,477.867,0h-34.133c-9.421,0.012-17.054,7.646-17.067,17.067V25.6
		h-102.4c-9.421,0.012-17.054,7.646-17.067,17.067v68.267h-17.067V42.667c-0.012-9.421-7.646-17.054-17.067-17.067H85.333v-8.533
		C85.321,7.646,77.687,0.012,68.267,0H34.133c-9.421,0.012-17.054,7.646-17.067,17.067v93.867C7.646,110.946,0.012,118.579,0,128
		v119.467c0.012,9.421,7.646,17.054,17.067,17.067h17.067V281.6c0.012,9.421,7.646,17.054,17.067,17.067h59.733v196.267
		c0.012,9.421,7.646,17.054,17.067,17.067h102.4c9.421-0.012,17.054-7.646,17.067-17.067V298.667H281.6v204.8
		c0,4.713,3.821,8.533,8.533,8.533c4.713,0,8.533-3.82,8.533-8.533v-204.8H332.8v204.8c0,4.713,3.82,8.533,8.533,8.533
		s8.533-3.82,8.533-8.533v-204.8H384v204.8c0,4.713,3.82,8.533,8.533,8.533s8.533-3.82,8.533-8.533v-204.8H460.8
		c9.421-0.012,17.054-7.646,17.067-17.067v-17.067h17.067c9.421-0.012,17.054-7.646,17.067-17.067V128
		C511.988,118.579,504.354,110.946,494.933,110.933z M443.733,17.067h34.133v93.867h-34.133V17.067z M324.267,42.667h102.4v68.267
		h-25.6V68.267c0-4.713-3.82-8.533-8.533-8.533S384,63.554,384,68.267v42.667h-17.067V68.267c0-4.713-3.82-8.533-8.533-8.533
		s-8.533,3.821-8.533,8.533v42.667h-25.6V42.667z M315.733,128h25.6v51.2H170.667V128H315.733z M273.067,42.667v68.267H256V68.267
		c0-4.713-3.82-8.533-8.533-8.533c-4.713,0-8.533,3.821-8.533,8.533v42.667h-17.067V68.267c0-4.713-3.821-8.533-8.533-8.533
		s-8.533,3.821-8.533,8.533v42.667h-17.067V68.267c0-4.713-3.82-8.533-8.533-8.533s-8.533,3.821-8.533,8.533v42.667H153.6V68.267
		c0-4.713-3.821-8.533-8.533-8.533c-4.713,0-8.533,3.821-8.533,8.533v42.667h-17.067V68.267c0-4.713-3.821-8.533-8.533-8.533
		c-4.713,0-8.533,3.821-8.533,8.533v42.667H85.333V42.667H273.067z M34.133,17.067h34.133v93.867H34.133V17.067z M25.6,128h128
		v59.733c-0.001,2.264,0.897,4.435,2.498,6.035s3.772,2.499,6.035,2.498h187.733c2.264,0.001,4.435-0.897,6.035-2.498
		c1.601-1.601,2.499-3.772,2.498-6.035V128h136.533l0.012,85.333H17.067V128H25.6z M230.417,494.933H128V298.667h102.4
		L230.417,494.933z M460.817,281.6H51.2v-17.067h409.609L460.817,281.6z M469.333,247.467H17.067V230.4H494.95v17.067H469.333z"/>
</g>
<g>
</g>
<g>
</g>
<g>
</g>
<g>
</g>
<g>
</g>
<g>
</g>
<g>
</g>
<g>
</g>
<g>
</g>
<g>
</g>
<g>
</g>
<g>
</g>
<g>
</g>
<g>
</g>
<g>
</g>
</svg>
