<?xml version="1.0" encoding="iso-8859-1"?>
<!-- Generator: Adobe Illustrator 19.0.0, SVG Export Plug-In . SVG Version: 6.00 Build 0)  -->
<svg version="1.1" id="Capa_1" xmlns="http://www.w3.org/2000/svg" xmlns:xlink="http://www.w3.org/1999/xlink" x="0px" y="0px"
	 viewBox="0 0 512 512" style="enable-background:new 0 0 512 512;" xml:space="preserve">
<g>
	<g transform="translate(1 1)">
		<path style="fill:#00695C;" d="M383,151.149v28.501c-0.005,1.88,0.74,3.684,2.069,5.013c1.329,1.329,3.133,2.074,5.013,2.069
			H408.6v182.101c0.009,3.76-1.48,7.368-4.139,10.027c-2.659,2.659-6.267,4.148-10.027,4.139H357.4v-17.067H169.667V383h-54.101
			c-3.76,0.009-7.368-1.48-10.027-4.139c-2.659-2.659-4.148-6.267-4.139-10.027V186.819h18.517c1.88,0.005,3.684-0.74,5.013-2.07
			c1.329-1.329,2.074-3.134,2.069-5.014V82.883c0.005-1.88-0.74-3.684-2.069-5.013c-1.329-1.329-3.133-2.074-5.013-2.069H101.4
			V21.698c-0.009-3.76,1.48-7.368,4.139-10.026s6.267-4.148,10.026-4.138h236.8L408.6,64.024v80.043h-18.517
			c-1.88-0.005-3.684,0.74-5.013,2.069C383.74,147.465,382.995,149.27,383,151.149z"/>
		<path style="fill:#009688;" d="M357.4,151.149v28.501c-0.005,1.88,0.74,3.684,2.069,5.013c1.329,1.329,3.133,2.074,5.013,2.069
			H383v182.101c0.009,3.76-1.48,7.368-4.139,10.027c-2.659,2.659-6.267,4.148-10.027,4.139H357.4v-17.067H169.667V383h-54.101
			c-3.76,0.009-7.368-1.48-10.027-4.139c-2.659-2.659-4.148-6.267-4.139-10.027V186.819h18.517c1.88,0.005,3.684-0.74,5.013-2.07
			c1.329-1.329,2.074-3.134,2.069-5.014V82.883c0.005-1.88-0.74-3.684-2.069-5.013c-1.329-1.329-3.133-2.074-5.013-2.069H101.4
			V21.698c-0.009-3.76,1.48-7.368,4.139-10.026s6.267-4.148,10.026-4.138h211.2L383,64.024v80.043h-18.517
			c-1.88-0.005-3.684,0.74-5.013,2.069C358.14,147.465,357.395,149.27,357.4,151.149z"/>
		<path style="fill:#00695C;" d="M306.2,365.933h51.2V331.8c-0.028-9.414-7.652-17.039-17.067-17.067h-153.6
			c-9.414,0.028-17.039,7.652-17.067,17.067v34.133H306.2z"/>
		<path style="fill:#FEC108;" d="M323.267,502.467h-102.4c-4.713,0-8.533-3.821-8.533-8.533V357.4c0-4.713,3.821-8.533,8.533-8.533
			h68.267c4.713,0,8.533,3.82,8.533,8.533v34.133l34.133,8.533v25.6h-17.067v25.6l17.067,17.067v25.6
			C331.8,498.646,327.979,502.467,323.267,502.467z"/>
		<path style="fill:#607D8B;" d="M178.2,58.733h153.6c9.426,0,17.067,7.641,17.067,17.067v187.733
			c0,9.426-7.641,17.067-17.067,17.067H178.2c-9.426,0-17.067-7.641-17.067-17.067V75.8C161.133,66.374,168.774,58.733,178.2,58.733
			z"/>
		<path style="fill:#CFD8DC;" d="M178.2,58.733h128c9.426,0,17.067,7.641,17.067,17.067v187.733c0,9.426-7.641,17.067-17.067,17.067
			h-128c-9.426,0-17.067-7.641-17.067-17.067V75.8C161.133,66.374,168.774,58.733,178.2,58.733z"/>
	</g>
	<g>
		<path d="M359.417,2.517c-1.602-1.609-3.779-2.515-6.05-2.517h-236.8c-12.531,0.014-22.686,10.169-22.7,22.7v54.1
			c-0.001,2.264,0.897,4.435,2.498,6.035c1.601,1.601,3.772,2.499,6.035,2.498h17.067v93.95H102.4
			c-2.264-0.001-4.435,0.897-6.035,2.498c-1.601,1.601-2.499,3.772-2.498,6.035v182.017c0.014,12.531,10.169,22.686,22.7,22.7h54.1
			c2.264,0.001,4.435-0.897,6.035-2.498c1.601-1.601,2.499-3.772,2.498-6.035v-8.533h25.6v119.467
			c0.012,9.421,7.646,17.054,17.067,17.067h102.4c9.421-0.012,17.054-7.646,17.067-17.067v-25.6c0-2.263-0.899-4.433-2.5-6.033
			l-14.566-14.567V435.2h8.533c2.264,0.001,4.435-0.897,6.035-2.498c1.601-1.601,2.499-3.772,2.498-6.035v-25.6
			c-0.001-3.916-2.667-7.328-6.467-8.275l-27.667-6.925v-10.4h42.667V384c-0.001,2.264,0.897,4.435,2.498,6.035
			c1.601,1.601,3.772,2.499,6.035,2.498h37.033c12.531-0.014,22.686-10.169,22.7-22.7v-182.1c0.001-2.264-0.897-4.435-2.498-6.035
			c-1.601-1.601-3.772-2.499-6.035-2.498h-17.067v-25.6H409.6c2.264,0.001,4.435-0.897,6.035-2.498
			c1.601-1.601,2.499-3.772,2.498-6.035V65.025c0.003-2.255-0.891-4.42-2.483-6.017L359.417,2.517z M324.267,407.733v10.4h-8.533
			c-2.264-0.001-4.435,0.897-6.035,2.498c-1.601,1.601-2.499,3.772-2.498,6.035v25.6c0,2.263,0.899,4.434,2.5,6.033l14.566,14.567
			l0.017,22.067H221.867V358.4h68.267v34.133c0.001,3.916,2.667,7.328,6.467,8.275L324.267,407.733z M307.2,358.4
			c-0.012-9.421-7.646-17.054-17.067-17.067h-68.267c-9.421,0.012-17.054,7.646-17.067,17.067h-25.6v-25.6
			c0.003-4.712,3.822-8.53,8.533-8.533h153.6c4.712,0.003,8.53,3.822,8.533,8.533v25.6H307.2z M401.067,136.533h-9.983
			c-8.62,0.012-15.605,6.997-15.617,15.617v28.5c0.012,8.62,6.997,15.605,15.617,15.617h9.983v173.567
			c-0.002,3.11-2.523,5.631-5.633,5.633h-28.5V332.8c-0.015-14.132-11.468-25.585-25.6-25.6h-153.6
			c-14.132,0.015-25.585,11.468-25.6,25.6v42.667h-45.567c-3.11-0.002-5.631-2.523-5.633-5.633V196.35h9.983
			c8.62-0.012,15.605-6.997,15.617-15.617v-96.85c-0.012-8.62-6.997-15.605-15.617-15.617h-9.983V22.7
			c0.002-3.11,2.523-5.631,5.633-5.633h233.25l51.25,51.483V136.533z"/>
		<path d="M179.2,51.2c-14.132,0.015-25.585,11.468-25.6,25.6v187.733c0.015,14.132,11.468,25.585,25.6,25.6h153.6
			c14.132-0.015,25.585-11.468,25.6-25.6V76.8c-0.015-14.132-11.468-25.585-25.6-25.6H179.2z M341.333,76.8v187.733
			c-0.003,4.712-3.822,8.53-8.533,8.533H179.2c-4.712-0.003-8.53-3.822-8.533-8.533V76.8c0.003-4.712,3.822-8.53,8.533-8.533h153.6
			C337.512,68.27,341.33,72.088,341.333,76.8z"/>
		<path d="M196.267,102.4h68.267c4.713,0,8.533-3.821,8.533-8.533c0-4.713-3.82-8.533-8.533-8.533h-68.267
			c-4.713,0-8.533,3.821-8.533,8.533C187.733,98.579,191.554,102.4,196.267,102.4z"/>
		<path d="M315.733,85.333h-17.067c-4.713,0-8.533,3.821-8.533,8.533c0,4.713,3.821,8.533,8.533,8.533h17.067
			c4.713,0,8.533-3.821,8.533-8.533C324.267,89.154,320.446,85.333,315.733,85.333z"/>
		<path d="M315.733,119.467h-76.8c-4.713,0-8.533,3.821-8.533,8.533c0,4.713,3.821,8.533,8.533,8.533h76.8
			c4.713,0,8.533-3.821,8.533-8.533C324.267,123.287,320.446,119.467,315.733,119.467z"/>
		<path d="M204.8,119.467h-8.533c-4.713,0-8.533,3.821-8.533,8.533c0,4.713,3.821,8.533,8.533,8.533h8.533
			c4.713,0,8.533-3.821,8.533-8.533C213.333,123.287,209.513,119.467,204.8,119.467z"/>
	</g>
</g>
<g>
</g>
<g>
</g>
<g>
</g>
<g>
</g>
<g>
</g>
<g>
</g>
<g>
</g>
<g>
</g>
<g>
</g>
<g>
</g>
<g>
</g>
<g>
</g>
<g>
</g>
<g>
</g>
<g>
</g>
</svg>
