<?xml version="1.0" encoding="iso-8859-1"?>
<!-- Generator: Adobe Illustrator 19.0.0, SVG Export Plug-In . SVG Version: 6.00 Build 0)  -->
<svg version="1.1" id="Capa_1" xmlns="http://www.w3.org/2000/svg" xmlns:xlink="http://www.w3.org/1999/xlink" x="0px" y="0px"
	 viewBox="0 0 512.001 512.001" style="enable-background:new 0 0 512.001 512.001;" xml:space="preserve">
<g>
	<g transform="translate(1 1)">
		<path style="fill:#00695C;" d="M502.467,130.16v98.816c0.024,10.546-6.458,20.015-16.299,23.808l-41.899,16.298
			c-57.536,22.376-95.426,77.787-95.403,139.521c0.014,24.899-9.871,48.783-27.477,66.39c-17.607,17.607-41.49,27.491-66.39,27.477
			c-4.285,0.033-8.566-0.281-12.8-0.939c-46.479-6.308-81.125-46.023-81.067-92.928c0.063-61.746-37.841-117.178-95.403-139.521
			l-41.899-16.298c-9.84-3.793-16.322-13.262-16.299-23.808V130.16c-0.015-11.745,8.278-21.86,19.797-24.149h0.085
			C87.909,92.816,144.662,66.189,193.475,28.1c36.435-27.419,86.616-27.419,123.051,0c47.288,36.819,101.989,62.962,160.341,76.63
			c1.877,0.511,3.84,0.853,5.717,1.28h0.085C494.189,108.3,502.482,118.415,502.467,130.16z"/>
		<path style="fill:#009688;" d="M476.867,104.73v124.245c0.024,10.546-6.458,20.015-16.299,23.808l-41.899,16.298
			c-57.536,22.376-95.426,77.787-95.403,139.521c0.058,46.905-34.588,86.62-81.067,92.928
			c-46.479-6.308-81.125-46.023-81.067-92.928c0.063-61.746-37.841-117.178-95.403-139.521l-41.899-16.298
			c-9.84-3.793-16.322-13.262-16.299-23.808V130.16c-0.015-11.745,8.278-21.86,19.797-24.149h0.085
			C87.909,92.816,144.662,66.189,193.475,28.1c36.435-27.419,86.616-27.419,123.051,0C363.814,64.919,418.515,91.062,476.867,104.73
			z"/>
		<g>
			<path style="fill:#00838F;" d="M118.467,126.969v119.543c-0.003,3.074-1.665,5.906-4.345,7.41
				c-2.681,1.504-5.964,1.444-8.589-0.155c-8.754-5.198-17.929-9.651-27.429-13.315l-30.996-12.049
				c-3.281-1.275-5.441-4.434-5.441-7.954v-74.155c0.005-3.934,2.718-7.347,6.55-8.24c19.913-4.801,39.427-11.127,58.37-18.921
				c2.634-1.115,5.651-0.839,8.039,0.736C117.013,121.444,118.455,124.109,118.467,126.969z"/>
			<path style="fill:#00838F;" d="M391.534,126.969v119.543c0.003,3.074,1.665,5.906,4.345,7.41
				c2.681,1.504,5.964,1.444,8.589-0.155c8.754-5.198,17.929-9.651,27.428-13.315l30.996-12.049
				c3.281-1.275,5.441-4.434,5.441-7.954v-74.155c-0.005-3.934-2.718-7.347-6.549-8.24c-19.913-4.801-39.427-11.127-58.37-18.921
				c-2.634-1.115-5.651-0.839-8.039,0.736C392.987,121.444,391.545,124.109,391.534,126.969z"/>
		</g>
		<path style="fill:#607D8B;" d="M357.4,170.864c-0.221,18.611-5.501,36.811-15.275,52.651
			c-17.406,27.061-26.894,58.452-27.392,90.623v66.389c0.503,32.922-25.066,60.375-57.941,62.209
			c-4.963,0.165-9.927-0.323-14.763-1.451c-27.344-6.03-46.802-30.282-46.763-58.283v-67.754
			c-0.513-32.686-10.084-64.589-27.648-92.16c-18.111-29.641-19.959-66.443-4.909-97.749s44.945-52.848,79.405-57.217
			c5.683-0.772,11.423-1.029,17.152-0.768C314.343,70.177,357.516,115.716,357.4,170.864z"/>
		<path style="fill:#CFD8DC;" d="M331.8,170.864c-0.221,18.611-5.501,36.811-15.275,52.651
			c-17.406,27.061-26.894,58.452-27.392,90.623v66.389c0.286,28.725-19.214,53.877-47.104,60.757
			c-27.343-6.03-46.802-30.282-46.763-58.282v-67.754c-0.513-32.686-10.084-64.589-27.648-92.16
			c-18.111-29.641-19.959-66.443-4.909-97.749s44.945-52.848,79.405-57.217C293.565,74.995,331.941,118.957,331.8,170.864z"/>
		<circle style="fill:#00BCD4;" cx="255" cy="169.669" r="68.267"/>
	</g>
	<g>
		<path d="M485.609,98.669l-0.317-0.067c-59.277-12.89-114.88-38.991-162.667-76.358c-39.468-29.656-93.786-29.656-133.254,0
			C141.586,59.611,85.984,85.712,26.709,98.602c-0.104,0.017-0.212,0.042-0.317,0.067C11.031,101.917,0.03,115.46,0,131.161v98.8
			c-0.055,14.093,8.607,26.754,21.762,31.808l41.854,16.275c54.414,20.899,90.234,73.27,89.983,131.558
			c0.002,56.554,45.85,102.398,102.404,102.396c56.554-0.002,102.398-45.85,102.396-102.404
			c-0.248-58.286,35.572-110.652,89.983-131.55l41.858-16.275c13.154-5.056,21.814-17.716,21.758-31.808v-98.8
			C511.966,115.462,500.967,101.921,485.609,98.669z M494.934,229.961c0.025,7.047-4.306,13.378-10.883,15.908l-41.85,16.275
			c-60.996,23.419-101.151,82.122-100.867,147.458c-0.002,30.487-16.267,58.657-42.67,73.899s-58.932,15.24-85.333-0.004
			s-42.665-43.416-42.663-73.903c0.281-65.334-39.873-124.033-100.867-147.45l-41.846-16.275c-6.539-2.58-10.85-8.879-10.888-15.908
			v-98.8c0.015-7.683,5.435-14.295,12.967-15.817l0.279-0.058c61.691-13.409,119.565-40.551,169.321-79.408
			c33.392-25.078,79.337-25.078,112.729,0c49.754,38.855,107.625,65.997,169.313,79.408l0.292,0.058
			c7.532,1.52,12.953,8.133,12.967,15.817V229.961z"/>
		<path d="M120.475,113.844c-4.766-3.205-10.822-3.806-16.125-1.6c-18.545,7.62-37.645,13.81-57.133,18.517
			c-7.669,1.807-13.087,8.654-13.083,16.533v74.158c0.031,7.028,4.343,13.328,10.883,15.9l31.017,12.058
			c9.056,3.496,17.803,7.744,26.15,12.7c2.662,1.576,5.698,2.407,8.792,2.408c2.966,0.004,5.881-0.766,8.458-2.233
			c5.331-2.999,8.612-8.658,8.567-14.775V127.969C128.009,122.299,125.185,117,120.475,113.844z M110.892,247.436
			c-9.157-5.442-18.756-10.103-28.696-13.933L51.2,221.452l0.004-74.1c20.382-4.916,40.352-11.408,59.729-19.417L110.892,247.436z"
			/>
		<path d="M464.775,130.752c-19.484-4.701-38.579-10.889-57.117-18.508c-5.308-2.194-11.36-1.594-16.133,1.6
			c-4.709,3.157-7.531,8.456-7.525,14.125v119.542c-0.045,6.117,3.236,11.776,8.567,14.775c2.576,1.467,5.49,2.237,8.454,2.233
			c3.099,0,6.14-0.835,8.804-2.417c8.351-4.953,17.101-9.201,26.158-12.7l31-12.042c6.579-2.529,10.911-8.86,10.883-15.908v-74.158
			C477.867,139.411,472.447,132.563,464.775,130.752z M460.8,221.452l-30.983,12.042c-9.968,3.839-19.586,8.529-28.75,14.017
			V127.969l0.117,0.058c19.339,7.969,39.272,14.411,59.617,19.267V221.452z"/>
		<path d="M260.6,59.827c-40.926-1.68-79.451,19.319-100.216,54.626s-20.394,79.182,0.966,114.132
			c16.688,26.231,25.817,56.557,26.383,87.642v67.775c-0.009,18.104,7.177,35.47,19.976,48.273
			c12.799,12.804,30.162,19.996,48.266,19.993c0.675,0,1.358-0.009,2.038-0.025c37.453-2.031,66.66-33.202,66.254-70.708v-66.4
			c0.548-30.579,9.594-60.402,26.125-86.133c20.694-33.529,22.06-75.518,3.588-110.321C335.507,83.878,299.967,61.479,260.6,59.827z
			 M335.884,220.019c-18.207,28.428-28.139,61.363-28.683,95.117v66.4c0.469,28.296-21.43,51.942-49.679,53.642
			c-13.84,0.426-27.262-4.778-37.198-14.423c-9.936-9.644-15.537-22.905-15.523-36.752v-67.775
			c-0.561-34.233-10.562-67.646-28.9-96.558c-17.723-28.972-18.416-65.257-1.812-94.885s47.916-47.976,81.878-47.982
			c1.308,0,2.625,0.025,3.942,0.075c33.304,1.408,63.366,20.363,78.994,49.806C354.53,156.127,353.381,191.647,335.884,220.019z"/>
		<path d="M256,93.869c-42.415,0-76.8,34.385-76.8,76.8s34.385,76.8,76.8,76.8s76.8-34.385,76.8-76.8
			C332.753,128.273,298.396,93.917,256,93.869z M256,230.402c-32.99,0-59.733-26.744-59.733-59.733S223.01,110.936,256,110.936
			s59.733,26.744,59.733,59.733C315.695,203.643,288.974,230.364,256,230.402z"/>
		<path d="M264.534,136.536c0.001-2.263-0.898-4.434-2.499-6.035c-1.6-1.6-3.771-2.499-6.035-2.499
			c-19.458-0.002-36.452,13.161-41.317,32c-0.566,2.191-0.238,4.517,0.912,6.465s3.026,3.361,5.217,3.926
			c0.698,0.185,1.416,0.277,2.138,0.275c3.889-0.002,7.285-2.634,8.258-6.4c2.919-11.304,13.116-19.202,24.791-19.2
			c2.263,0.001,4.434-0.898,6.035-2.499C263.635,140.97,264.534,138.799,264.534,136.536z"/>
		<path d="M292.267,170.944c-2.191-0.579-4.523-0.257-6.476,0.893c-1.953,1.151-3.364,3.034-3.92,5.232
			c-2.919,11.305-13.116,19.202-24.792,19.2c-4.713,0-8.533,3.821-8.533,8.533c0,4.713,3.821,8.533,8.533,8.533
			c19.458,0.002,36.452-13.16,41.317-32c0.566-2.191,0.238-4.517-0.912-6.465C296.335,172.921,294.458,171.509,292.267,170.944z"/>
		<path d="M281.6,366.936h-51.2c-4.713,0-8.533,3.82-8.533,8.533s3.821,8.533,8.533,8.533h51.2c4.713,0,8.533-3.82,8.533-8.533
			S286.313,366.936,281.6,366.936z"/>
		<path d="M264.534,401.069h-17.067c-4.713,0-8.533,3.82-8.533,8.533s3.821,8.533,8.533,8.533h17.067
			c4.713,0,8.533-3.82,8.533-8.533S269.246,401.069,264.534,401.069z"/>
	</g>
</g>
<g>
</g>
<g>
</g>
<g>
</g>
<g>
</g>
<g>
</g>
<g>
</g>
<g>
</g>
<g>
</g>
<g>
</g>
<g>
</g>
<g>
</g>
<g>
</g>
<g>
</g>
<g>
</g>
<g>
</g>
</svg>
