<?xml version="1.0" encoding="iso-8859-1"?>
<!-- Generator: Adobe Illustrator 19.0.0, SVG Export Plug-In . SVG Version: 6.00 Build 0)  -->
<svg version="1.1" id="Capa_1" xmlns="http://www.w3.org/2000/svg" xmlns:xlink="http://www.w3.org/1999/xlink" x="0px" y="0px"
	 viewBox="0 0 512 512" style="enable-background:new 0 0 512 512;" xml:space="preserve">
<g>
	<g transform="translate(1 1)">
		<path style="fill:#00695C;" d="M502.467,109.933v384c-0.014,4.707-3.826,8.52-8.533,8.533H374.467
			c-4.707-0.014-8.52-3.826-8.533-8.533v-128l16.555-85.333l3.243-17.067L417.133,101.4h76.8
			C498.641,101.414,502.453,105.226,502.467,109.933z"/>
		<path style="fill:#009688;" d="M476.867,109.933v384c-0.014,4.707-3.826,8.52-8.533,8.533h-93.867
			c-4.707-0.014-8.52-3.826-8.533-8.533v-128l16.555-85.333l3.243-17.067L417.133,101.4h51.2
			C473.041,101.414,476.853,105.226,476.867,109.933z"/>
		<g>
			<rect x="365.933" y="434.2" style="fill:#2E7D32;" width="136.533" height="34.133"/>
			<path style="fill:#2E7D32;" d="M502.467,468.333v25.6c-0.014,4.707-3.826,8.52-8.533,8.533H374.467
				c-4.707-0.014-8.52-3.826-8.533-8.533v-25.6H502.467z"/>
			<rect x="365.933" y="400.067" style="fill:#2E7D32;" width="136.533" height="34.133"/>
		</g>
		<g>
			<rect x="365.933" y="434.2" style="fill:#4CAF50;" width="110.933" height="34.133"/>
			<path style="fill:#4CAF50;" d="M476.867,468.333v25.6c-0.014,4.707-3.826,8.52-8.533,8.533h-93.867
				c-4.707-0.014-8.52-3.826-8.533-8.533v-25.6H476.867z"/>
			<rect x="365.933" y="400.067" style="fill:#4CAF50;" width="110.933" height="34.133"/>
		</g>
		<g>
			<rect x="169.667" y="348.867" style="fill:#607D8B;" width="85.333" height="136.533"/>
			<path style="fill:#607D8B;" d="M306.2,485.4v17.067H118.467V485.4c0.027-9.414,7.652-17.039,17.067-17.067h153.6
				C298.548,468.361,306.173,475.986,306.2,485.4z"/>
		</g>
		<g>
			<polygon style="fill:#CFD8DC;" points="229.4,348.867 229.4,485.4 144.067,485.4 144.067,468.333 169.667,468.333 
				169.667,348.867 			"/>
			<path style="fill:#CFD8DC;" d="M280.6,485.4v17.067H118.467V485.4c0.027-9.414,7.652-17.039,17.067-17.067h128
				C272.948,468.361,280.573,475.986,280.6,485.4z"/>
		</g>
		<g>
			<path style="fill:#607D8B;" d="M417.133,314.733v34.133c-0.028,9.414-7.653,17.039-17.067,17.067H24.6
				c-9.414-0.028-17.039-7.652-17.067-17.067v-34.133H417.133z"/>
			<path style="fill:#607D8B;" d="M417.133,92.867V127H7.533V92.867C7.561,83.452,15.186,75.827,24.6,75.8h375.467
				C409.481,75.827,417.106,83.452,417.133,92.867z"/>
		</g>
		<g>
			<path style="fill:#CFD8DC;" d="M391.533,314.733v34.133c-0.028,9.414-7.652,17.039-17.067,17.067H24.6
				c-9.414-0.028-17.039-7.652-17.067-17.067v-34.133H391.533z"/>
			<path style="fill:#CFD8DC;" d="M391.533,92.867V127h-384V92.867C7.561,83.452,15.186,75.827,24.6,75.8h349.867
				C383.881,75.827,391.506,83.452,391.533,92.867z"/>
		</g>
		<rect x="7.533" y="109.933" style="fill:#6A1B9A;" width="409.6" height="221.867"/>
		<rect x="7.533" y="109.933" style="fill:#9D27B0;" width="384" height="221.867"/>
		<path style="fill:#E91E63;" d="M417.133,224.792c14.344,8.321,32.592,5.128,43.26-7.567c10.668-12.695,10.668-31.221,0-43.917
			c-10.668-12.695-28.916-15.888-43.26-7.567V224.792z"/>
		<circle style="fill:#00BCD4;" cx="212.333" cy="41.667" r="34.133"/>
		<rect x="178.2" y="75.8" style="fill:#607D8B;" width="68.267" height="34.133"/>
	</g>
	<g>
		<path d="M494.933,93.867h-68.267c-0.015-14.132-11.468-25.585-25.6-25.6H247.248c5.644-7.343,8.719-16.338,8.752-25.6
			C256,19.103,236.897,0,213.333,0s-42.667,19.103-42.667,42.667c0.032,9.262,3.107,18.257,8.752,25.6H25.6
			C11.468,68.282,0.015,79.735,0,93.867v256c0.015,14.132,11.468,25.585,25.6,25.6h136.533V460.8h-25.6
			c-14.132,0.015-25.585,11.468-25.6,25.6v17.067c-0.001,2.263,0.898,4.434,2.499,6.035c1.6,1.6,3.771,2.499,6.035,2.499H307.2
			c2.263,0.001,4.434-0.898,6.035-2.499c1.6-1.6,2.499-3.771,2.499-6.035V486.4c-0.015-14.132-11.468-25.585-25.6-25.6h-25.6
			v-85.333H358.4v119.467c0.011,9.421,7.645,17.056,17.067,17.067h119.467c9.421-0.011,17.056-7.645,17.067-17.067v-384
			C511.989,101.512,504.355,93.877,494.933,93.867z M375.467,409.6h119.467v17.067H375.467V409.6z M375.467,443.733h119.467V460.8
			H375.467V443.733z M17.067,119.467H409.6v204.8H17.067V119.467z M187.733,85.333h51.2V102.4h-51.2V85.333z M426.667,172.348
			c2.724-1.054,5.613-1.623,8.533-1.681c14.138,0,25.6,11.462,25.6,25.6s-11.462,25.6-25.6,25.6
			c-2.921-0.058-5.809-0.627-8.533-1.681V172.348z M409.6,93.867v8.533H256V85.333h145.067
			C405.778,85.338,409.595,89.156,409.6,93.867z M187.733,42.667c0-14.138,11.462-25.6,25.6-25.6s25.6,11.462,25.6,25.6
			s-11.462,25.6-25.6,25.6C199.201,68.251,187.749,56.799,187.733,42.667z M25.6,85.333h145.067V102.4h-153.6v-8.533
			C17.071,89.156,20.889,85.338,25.6,85.333z M17.067,349.867v-8.533H409.6v8.533c-0.005,4.711-3.822,8.529-8.533,8.533H25.6
			C20.889,358.395,17.071,354.578,17.067,349.867z M298.667,486.4v8.533H128V486.4c0.005-4.711,3.822-8.529,8.533-8.533h153.6
			C294.844,477.871,298.662,481.689,298.667,486.4z M247.467,460.8H179.2v-85.333h68.267V460.8z M401.067,375.467
			c14.132-0.015,25.585-11.468,25.6-25.6V281.6h25.6c4.713,0,8.533-3.82,8.533-8.533s-3.82-8.533-8.533-8.533h-25.6v-26.57
			c2.804,0.614,5.663,0.939,8.533,0.97c23.564,0,42.667-19.103,42.667-42.667S458.764,153.6,435.2,153.6
			c-2.87,0.031-5.729,0.356-8.533,0.97v-43.636h68.267v281.6H375.467v-17.067H401.067z M375.467,494.933v-17.067h119.467v17.067
			H375.467z"/>
		<path d="M48.7,202.3l25.6-25.6c3.281-3.341,3.256-8.701-0.054-12.012c-3.311-3.311-8.671-3.335-12.012-0.054l-25.6,25.6
			c-2.188,2.149-3.055,5.307-2.27,8.271s3.1,5.28,6.065,6.065C43.393,205.354,46.551,204.488,48.7,202.3z"/>
		<path d="M87.808,151.125c2.441,2.444,6.125,3.154,9.3,1.792c1.034-0.433,1.987-1.039,2.817-1.792
			c0.751-0.832,1.357-1.784,1.792-2.817c0.478-1.012,0.713-2.123,0.683-3.242c-0.014-1.115-0.246-2.216-0.683-3.242
			c-0.413-1.044-1.021-2-1.792-2.817c-0.407-0.366-0.834-0.708-1.279-1.025c-0.494-0.318-1.008-0.604-1.538-0.858
			c-0.502-0.176-1.016-0.318-1.537-0.425c-1.657-0.332-3.374-0.184-4.95,0.425c-1.018,0.499-1.963,1.132-2.813,1.883
			c-0.755,0.829-1.363,1.782-1.796,2.817c-0.906,2.066-0.906,4.417,0,6.483C86.447,149.342,87.054,150.295,87.808,151.125z"/>
		<path d="M139.034,139.034L45.167,232.9c-2.188,2.149-3.055,5.307-2.27,8.271s3.1,5.28,6.065,6.065
			c2.965,0.785,6.122-0.082,8.271-2.27L151.1,151.1c3.281-3.341,3.256-8.701-0.054-12.012
			C147.735,135.777,142.374,135.753,139.034,139.034z"/>
		<path d="M210.088,34.817c-1.033,0.433-1.984,1.039-2.813,1.792c-1.559,1.635-2.443,3.799-2.475,6.058
			c0,4.713,3.82,8.533,8.533,8.533s8.533-3.821,8.533-8.533c-0.033-2.259-0.917-4.422-2.475-6.059
			C216.935,34.19,213.267,33.484,210.088,34.817z"/>
	</g>
</g>
<g>
</g>
<g>
</g>
<g>
</g>
<g>
</g>
<g>
</g>
<g>
</g>
<g>
</g>
<g>
</g>
<g>
</g>
<g>
</g>
<g>
</g>
<g>
</g>
<g>
</g>
<g>
</g>
<g>
</g>
</svg>
