<?xml version="1.0" encoding="iso-8859-1"?>
<!-- Generator: Adobe Illustrator 19.0.0, SVG Export Plug-In . SVG Version: 6.00 Build 0)  -->
<svg version="1.1" id="Capa_1" xmlns="http://www.w3.org/2000/svg" xmlns:xlink="http://www.w3.org/1999/xlink" x="0px" y="0px"
	 viewBox="0 0 512 512" style="enable-background:new 0 0 512 512;" xml:space="preserve">
<g>
	<g transform="translate(1 1)">
		<path style="fill:#D84315;" d="M502.467,297.667V434.2c0.005,18.107-7.186,35.474-19.99,48.277
			c-12.804,12.804-30.17,19.994-48.277,19.99c-4.294-0.005-8.579-0.405-12.8-1.195c-32.193-6.142-55.478-34.298-55.467-67.072
			V297.667c-0.002-9.053,3.593-17.737,9.995-24.139s15.085-9.997,24.139-9.995h68.267c9.053-0.002,17.737,3.593,24.139,9.995
			S502.469,288.613,502.467,297.667z"/>
		<path style="fill:#FF5722;" d="M476.867,297.667V434.2c0.011,32.774-23.273,60.93-55.467,67.072
			c-32.193-6.142-55.478-34.298-55.467-67.072V297.667c-0.002-9.053,3.593-17.737,9.995-24.139s15.085-9.997,24.139-9.995h42.667
			c9.053-0.002,17.737,3.593,24.139,9.995C473.274,279.93,476.869,288.613,476.867,297.667z"/>
		<path style="fill:#F57C00;" d="M502.467,297.667v42.667h-25.6v-42.667c0.002-9.053-3.593-17.737-9.995-24.139
			c-6.402-6.402-15.085-9.997-24.139-9.995h25.6c9.053-0.002,17.737,3.593,24.139,9.995S502.469,288.613,502.467,297.667z"/>
		<g>
			<path style="fill:#FF9801;" d="M476.867,297.667v42.667H434.2v-76.8h8.533c9.053-0.002,17.737,3.593,24.139,9.995
				C473.274,279.93,476.869,288.613,476.867,297.667z"/>
			<path style="fill:#FF9801;" d="M434.2,263.533v76.8h-68.267v-42.667c-0.002-9.053,3.593-17.737,9.995-24.139
				s15.085-9.997,24.139-9.995H434.2z"/>
		</g>
		<rect x="314.733" y="101.4" style="fill:#CFD8DC;" width="76.8" height="59.733"/>
		<path style="fill:#E91E63;" d="M383,84.333h34.133c4.713,0,8.533,3.821,8.533,8.533v76.8c0,4.713-3.82,8.533-8.533,8.533H383
			c-4.713,0-8.533-3.821-8.533-8.533v-76.8C374.467,88.154,378.287,84.333,383,84.333z"/>
		<path style="fill:#95A5A5;" d="M331.8,7.533V459.8c-0.009,23.561-19.106,42.658-42.667,42.667H7.533V7.533H331.8z"/>
		<g>
			<g>
				<path id="SVGCleanerId_0" style="fill:#7F8C8D;" d="M280.6,7.533V178.2c0.002,9.053-3.593,17.737-9.995,24.139
					c-6.402,6.402-15.085,9.997-24.139,9.995H7.533V7.533H280.6z"/>
			</g>
			<path style="fill:#7F8C8D;" d="M50.2,263.533v187.733c-0.028,9.414-7.653,17.039-17.067,17.067h-25.6V246.467h25.6
				C42.548,246.494,50.172,254.119,50.2,263.533z"/>
		</g>
		<g>
			<g>
				<path id="SVGCleanerId_1" style="fill:#5E5F62;" d="M50.2,144.067h17.067c4.713,0,8.533,3.82,8.533,8.533v17.067
					c0,4.713-3.821,8.533-8.533,8.533H50.2c-4.713,0-8.533-3.821-8.533-8.533V152.6C41.667,147.887,45.487,144.067,50.2,144.067z"/>
			</g>
			<path style="fill:#5E5F62;" d="M50.2,75.8h17.067c4.713,0,8.533,3.821,8.533,8.533V101.4c0,4.713-3.821,8.533-8.533,8.533H50.2
				c-4.713,0-8.533-3.821-8.533-8.533V84.333C41.667,79.621,45.487,75.8,50.2,75.8z"/>
			<g>
				<path id="SVGCleanerId_2" style="fill:#5E5F62;" d="M41.667,7.533v25.6c-0.014,4.707-3.826,8.519-8.533,8.533H16.067
					c-4.707-0.014-8.519-3.826-8.533-8.533v-25.6H41.667z"/>
			</g>
			<path style="fill:#5E5F62;" d="M75.8,7.533h34.133v25.6c0,4.713-3.821,8.533-8.533,8.533H84.333
				c-4.713,0-8.533-3.821-8.533-8.533V7.533z"/>
			<g>
				<path id="SVGCleanerId_3" style="fill:#5E5F62;" d="M144.067,7.533H178.2v25.6c0,4.713-3.821,8.533-8.533,8.533H152.6
					c-4.713,0-8.533-3.821-8.533-8.533V7.533z"/>
			</g>
			<path style="fill:#5E5F62;" d="M212.333,7.533h34.133v25.6c0,4.713-3.82,8.533-8.533,8.533h-17.067
				c-4.713,0-8.533-3.821-8.533-8.533V7.533z"/>
			<g>
				<path id="SVGCleanerId_4" style="fill:#5E5F62;" d="M118.467,75.8h17.067c4.713,0,8.533,3.821,8.533,8.533V101.4
					c0,4.713-3.821,8.533-8.533,8.533h-17.067c-4.713,0-8.533-3.821-8.533-8.533V84.333C109.933,79.621,113.754,75.8,118.467,75.8z"
					/>
			</g>
			<path style="fill:#5E5F62;" d="M186.733,75.8h51.2c4.713,0,8.533,3.821,8.533,8.533V101.4c0,4.713-3.82,8.533-8.533,8.533h-51.2
				c-4.713,0-8.533-3.821-8.533-8.533V84.333C178.2,79.621,182.021,75.8,186.733,75.8z"/>
			<g>
				<path id="SVGCleanerId_5" style="fill:#5E5F62;" d="M118.467,144.067h119.467c4.713,0,8.533,3.82,8.533,8.533v17.067
					c0,4.713-3.82,8.533-8.533,8.533H118.467c-4.713,0-8.533-3.821-8.533-8.533V152.6
					C109.933,147.887,113.754,144.067,118.467,144.067z"/>
			</g>
		</g>
		<path style="fill:#95A5A5;" d="M340.333,7.533V459.8c-0.009,23.561-19.106,42.658-42.667,42.667H7.533V7.533H340.333z"/>
		<g>
			<g>
				<path id="SVGCleanerId_0_1_" style="fill:#7F8C8D;" d="M280.6,7.533V178.2c0.002,9.053-3.593,17.737-9.995,24.139
					c-6.402,6.402-15.085,9.997-24.139,9.995H7.533V7.533H280.6z"/>
			</g>
			<path style="fill:#7F8C8D;" d="M50.2,263.533v187.733c-0.028,9.414-7.653,17.039-17.067,17.067h-25.6V246.467h25.6
				C42.548,246.494,50.172,254.119,50.2,263.533z"/>
		</g>
		<g>
			<g>
				<path id="SVGCleanerId_1_1_" style="fill:#5E5F62;" d="M50.2,144.067h17.067c4.713,0,8.533,3.82,8.533,8.533v17.067
					c0,4.713-3.821,8.533-8.533,8.533H50.2c-4.713,0-8.533-3.821-8.533-8.533V152.6C41.667,147.887,45.487,144.067,50.2,144.067z"/>
			</g>
			<path style="fill:#5E5F62;" d="M50.2,75.8h17.067c4.713,0,8.533,3.821,8.533,8.533V101.4c0,4.713-3.821,8.533-8.533,8.533H50.2
				c-4.713,0-8.533-3.821-8.533-8.533V84.333C41.667,79.621,45.487,75.8,50.2,75.8z"/>
			<g>
				<path id="SVGCleanerId_2_1_" style="fill:#5E5F62;" d="M41.667,7.533v25.6c-0.014,4.707-3.826,8.519-8.533,8.533H16.067
					c-4.707-0.014-8.519-3.826-8.533-8.533v-25.6H41.667z"/>
			</g>
			<path style="fill:#5E5F62;" d="M75.8,7.533h34.133v25.6c0,4.713-3.821,8.533-8.533,8.533H84.333
				c-4.713,0-8.533-3.821-8.533-8.533V7.533z"/>
			<g>
				<path id="SVGCleanerId_3_1_" style="fill:#5E5F62;" d="M144.067,7.533H178.2v25.6c0,4.713-3.821,8.533-8.533,8.533H152.6
					c-4.713,0-8.533-3.821-8.533-8.533V7.533z"/>
			</g>
			<path style="fill:#5E5F62;" d="M212.333,7.533h34.133v25.6c0,4.713-3.82,8.533-8.533,8.533h-17.067
				c-4.713,0-8.533-3.821-8.533-8.533V7.533z"/>
			<g>
				<path id="SVGCleanerId_4_1_" style="fill:#5E5F62;" d="M118.467,75.8h17.067c4.713,0,8.533,3.821,8.533,8.533V101.4
					c0,4.713-3.821,8.533-8.533,8.533h-17.067c-4.713,0-8.533-3.821-8.533-8.533V84.333C109.933,79.621,113.754,75.8,118.467,75.8z"
					/>
			</g>
			<path style="fill:#5E5F62;" d="M186.733,75.8h51.2c4.713,0,8.533,3.821,8.533,8.533V101.4c0,4.713-3.82,8.533-8.533,8.533h-51.2
				c-4.713,0-8.533-3.821-8.533-8.533V84.333C178.2,79.621,182.021,75.8,186.733,75.8z"/>
			<g>
				<path id="SVGCleanerId_5_1_" style="fill:#5E5F62;" d="M118.467,144.067h119.467c4.713,0,8.533,3.82,8.533,8.533v17.067
					c0,4.713-3.82,8.533-8.533,8.533H118.467c-4.713,0-8.533-3.821-8.533-8.533V152.6
					C109.933,147.887,113.754,144.067,118.467,144.067z"/>
			</g>
		</g>
		<path style="fill:#37474F;" d="M7.533,246.467V7.533H331.8V459.8c-0.009,23.561-19.106,42.658-42.667,42.667H7.533v-34.133"/>
		<path style="fill:#607D8B;" d="M7.533,246.467V7.533H306.2V459.8c-0.009,23.561-19.106,42.658-42.667,42.667h-256v-34.133"/>
		<g>
			<g>
				<path id="SVGCleanerId_0_2_" style="fill:#CFD8DC;" d="M280.6,7.533V178.2c0.002,9.053-3.593,17.737-9.995,24.139
					c-6.402,6.402-15.085,9.997-24.139,9.995H7.533V7.533H280.6z"/>
			</g>
			<path style="fill:#CFD8DC;" d="M33.133,468.333c9.414-0.028,17.039-7.652,17.067-17.067V263.533
				c-0.028-9.414-7.652-17.039-17.067-17.067h-25.6v221.867H33.133z"/>
		</g>
		<path style="fill:#F4F4F4;" d="M16.067,263.533v187.733c0.001,6.093-3.253,11.722-8.533,14.763V248.771
			C12.813,251.811,16.067,257.441,16.067,263.533z"/>
		<g>
			<g>
				<path id="SVGCleanerId_1_2_" style="fill:#009688;" d="M50.2,144.067h17.067c4.713,0,8.533,3.82,8.533,8.533v17.067
					c0,4.713-3.821,8.533-8.533,8.533H50.2c-4.713,0-8.533-3.821-8.533-8.533V152.6C41.667,147.887,45.487,144.067,50.2,144.067z"/>
			</g>
			<path style="fill:#009688;" d="M50.2,75.8h17.067c4.713,0,8.533,3.821,8.533,8.533V101.4c0,4.713-3.821,8.533-8.533,8.533H50.2
				c-4.713,0-8.533-3.821-8.533-8.533V84.333C41.667,79.621,45.487,75.8,50.2,75.8z"/>
			<g>
				<path id="SVGCleanerId_2_2_" style="fill:#009688;" d="M41.667,7.533v25.6c-0.014,4.707-3.826,8.519-8.533,8.533H16.067
					c-4.707-0.014-8.519-3.826-8.533-8.533v-25.6H41.667z"/>
			</g>
			<path style="fill:#009688;" d="M75.8,7.533h34.133v25.6c0,4.713-3.821,8.533-8.533,8.533H84.333
				c-4.713,0-8.533-3.821-8.533-8.533V7.533z"/>
			<g>
				<path id="SVGCleanerId_3_2_" style="fill:#009688;" d="M144.067,7.533H178.2v25.6c0,4.713-3.821,8.533-8.533,8.533H152.6
					c-4.713,0-8.533-3.821-8.533-8.533V7.533z"/>
			</g>
			<path style="fill:#009688;" d="M212.333,7.533h34.133v25.6c0,4.713-3.82,8.533-8.533,8.533h-17.067
				c-4.713,0-8.533-3.821-8.533-8.533V7.533z"/>
			<g>
				<path id="SVGCleanerId_4_2_" style="fill:#009688;" d="M118.467,75.8h17.067c4.713,0,8.533,3.821,8.533,8.533V101.4
					c0,4.713-3.821,8.533-8.533,8.533h-17.067c-4.713,0-8.533-3.821-8.533-8.533V84.333C109.933,79.621,113.754,75.8,118.467,75.8z"
					/>
			</g>
			<path style="fill:#009688;" d="M186.733,75.8h51.2c4.713,0,8.533,3.821,8.533,8.533V101.4c0,4.713-3.82,8.533-8.533,8.533h-51.2
				c-4.713,0-8.533-3.821-8.533-8.533V84.333C178.2,79.621,182.021,75.8,186.733,75.8z"/>
			<g>
				<path id="SVGCleanerId_5_2_" style="fill:#009688;" d="M118.467,144.067h119.467c4.713,0,8.533,3.82,8.533,8.533v17.067
					c0,4.713-3.82,8.533-8.533,8.533H118.467c-4.713,0-8.533-3.821-8.533-8.533V152.6
					C109.933,147.887,113.754,144.067,118.467,144.067z"/>
			</g>
		</g>
	</g>
	<g>
		<path d="M51.2,187.733h17.067c9.421-0.011,17.056-7.645,17.067-17.067V153.6c-0.011-9.421-7.645-17.056-17.067-17.067H51.2
			c-9.421,0.011-17.056,7.645-17.067,17.067v17.067C34.144,180.088,41.779,187.723,51.2,187.733z M51.2,153.6h17.067l0.012,17.067
			H51.2V153.6z"/>
		<path d="M51.2,119.467h17.067c9.421-0.011,17.056-7.645,17.067-17.067V85.333c-0.011-9.421-7.645-17.056-17.067-17.067H51.2
			c-9.421,0.011-17.056,7.645-17.067,17.067V102.4C34.144,111.821,41.779,119.456,51.2,119.467z M51.2,85.333h17.067l0.012,17.067
			H51.2V85.333z"/>
		<path d="M119.467,119.467h17.067c9.421-0.011,17.056-7.645,17.067-17.067V85.333c-0.011-9.421-7.645-17.056-17.067-17.067h-17.067
			c-9.421,0.011-17.056,7.645-17.067,17.067V102.4C102.411,111.821,110.045,119.456,119.467,119.467z M119.467,85.333h17.067
			l0.012,17.067h-17.079V85.333z"/>
		<path d="M187.733,119.467h51.2c9.421-0.011,17.056-7.645,17.067-17.067V85.333c-0.011-9.421-7.645-17.056-17.067-17.067h-51.2
			c-9.421,0.011-17.056,7.645-17.067,17.067V102.4C170.677,111.821,178.312,119.456,187.733,119.467z M187.733,85.333h51.2
			l0.012,17.067h-51.212V85.333z"/>
		<path d="M119.467,187.733h119.467c9.421-0.011,17.056-7.645,17.067-17.067V153.6c-0.011-9.421-7.645-17.056-17.067-17.067H119.467
			c-9.421,0.011-17.056,7.645-17.067,17.067v17.067C102.411,180.088,110.045,187.723,119.467,187.733z M119.467,153.6h119.467
			l0.012,17.067H119.467V153.6z"/>
		<path d="M469.333,256h-68.267c-23.553,0.028-42.639,19.114-42.667,42.667V435.2c0,42.415,34.385,76.8,76.8,76.8
			s76.8-34.385,76.8-76.8V298.667C511.972,275.114,492.886,256.028,469.333,256z M494.933,298.667V332.8h-51.2v-59.733h25.6
			C483.465,273.082,494.918,284.535,494.933,298.667z M401.067,273.067h25.6V332.8h-51.2v-34.133
			C375.482,284.535,386.935,273.082,401.067,273.067z M435.2,494.933c-32.974-0.038-59.695-26.759-59.733-59.733v-85.333h119.467
			V435.2C494.895,468.174,468.174,494.895,435.2,494.933z"/>
		<path d="M366.933,170.667c0.011,9.421,7.645,17.056,17.067,17.067h34.133c9.421-0.011,17.056-7.645,17.067-17.067v-76.8
			c-0.011-9.421-7.645-17.056-17.067-17.067H384c-9.421,0.011-17.056,7.645-17.067,17.067h-25.6V8.533
			c0.001-2.263-0.898-4.434-2.499-6.035c-1.6-1.6-3.771-2.499-6.035-2.499H8.533C6.27-0.001,4.099,0.898,2.499,2.499
			S-0.001,6.27,0,8.533v494.933c-0.001,2.263,0.898,4.434,2.499,6.035c1.6,1.6,3.771,2.499,6.035,2.499h285.663
			c27.12-1.197,48.182-24.073,47.138-51.2V170.667H366.933z M384,93.867l34.133-0.009v76.809H384V93.867z M366.933,110.933V153.6
			h-25.6v-42.667H366.933z M238.938,17.067l0.009,17.067h-17.079V17.067H238.938z M170.671,17.067l0.009,17.067H153.6V17.067
			H170.671z M102.404,17.067l0.009,17.067H85.333V17.067H102.404z M17.067,17.067h17.071l0.009,17.067H17.067V17.067z M34.133,51.2
			c9.421-0.011,17.056-7.645,17.067-17.067V17.067h17.067v17.067c0.011,9.421,7.645,17.056,17.067,17.067H102.4
			c9.421-0.011,17.056-7.645,17.067-17.067V17.067h17.067v17.067c0.011,9.421,7.645,17.056,17.067,17.067h17.067
			c9.421-0.011,17.056-7.645,17.067-17.067V17.067H204.8v17.067c0.011,9.421,7.645,17.056,17.067,17.067h17.067
			c9.421-0.011,17.056-7.645,17.067-17.067V17.067h17.067V179.2c-0.015,14.132-11.468,25.585-25.6,25.6h-230.4V51.2H34.133z
			 M17.067,256h17.067c4.711,0.005,8.529,3.822,8.533,8.533v187.733c-0.005,4.711-3.822,8.529-8.533,8.533H17.067V256z
			 M324.267,460.8c1.029,17.698-12.385,32.924-30.071,34.133H17.067v-17.067h17.067c14.132-0.015,25.585-11.468,25.6-25.6V264.533
			c-0.015-14.132-11.468-25.585-25.6-25.6H17.067v-17.067h230.4c23.553-0.028,42.639-19.114,42.667-42.667V17.067h34.133V460.8z"/>
	</g>
</g>
<g>
</g>
<g>
</g>
<g>
</g>
<g>
</g>
<g>
</g>
<g>
</g>
<g>
</g>
<g>
</g>
<g>
</g>
<g>
</g>
<g>
</g>
<g>
</g>
<g>
</g>
<g>
</g>
<g>
</g>
</svg>
