<?xml version="1.0" encoding="iso-8859-1"?>
<!-- Generator: Adobe Illustrator 19.0.0, SVG Export Plug-In . SVG Version: 6.00 Build 0)  -->
<svg version="1.1" id="Capa_1" xmlns="http://www.w3.org/2000/svg" xmlns:xlink="http://www.w3.org/1999/xlink" x="0px" y="0px"
	 viewBox="0 0 512 512" style="enable-background:new 0 0 512 512;" xml:space="preserve">
<g transform="translate(-1)">
	<g transform="translate(1 1)">
		<rect x="251.791" y="391.534" style="fill:#607D8B;" width="85.333" height="110.933"/>
		<g>
			<rect x="251.791" y="391.534" style="fill:#CFD8DC;" width="59.733" height="110.933"/>
			<rect x="174.991" y="255" style="fill:#CFD8DC;" width="68.267" height="34.133"/>
			<path style="fill:#CFD8DC;" d="M183.524,7.534h-17.579c-4.608,0.014-8.379,3.672-8.533,8.277l-0.682,25.856l-7.424,281.344
				c-0.091,2.313,0.77,4.563,2.383,6.223c1.613,1.661,3.835,2.588,6.15,2.566h25.685c4.707-0.013,8.52-3.826,8.533-8.533v-307.2
				C192.044,11.36,188.231,7.547,183.524,7.534z"/>
		</g>
		<path style="fill:#02A9F4;" d="M192.058,16.067v25.6H156.73l0.683-25.856c0.154-4.606,3.925-8.263,8.533-8.277h17.579
			C188.231,7.547,192.044,11.36,192.058,16.067z"/>
		<path style="fill:#00695C;" d="M362.724,127v281.6c-0.013,4.707-3.826,8.52-8.533,8.533H234.724
			c-4.707-0.014-8.52-3.826-8.533-8.533V127c0.009-23.561,19.106-42.658,42.667-42.667h51.2
			C343.618,84.342,362.716,103.44,362.724,127z"/>
		<path style="fill:#009688;" d="M337.124,127v281.6c-0.013,4.707-3.826,8.52-8.533,8.533h-93.867
			c-4.707-0.014-8.52-3.826-8.533-8.533V127c0.009-23.561,19.106-42.658,42.667-42.667h25.6
			C318.018,84.342,337.116,103.44,337.124,127z"/>
		<path style="fill:#CFD8DC;" d="M328.591,314.734v34.133c-0.013,4.707-3.826,8.52-8.533,8.533h-51.2
			c-4.707-0.014-8.52-3.826-8.533-8.533v-34.133H328.591z"/>
		<path style="fill:#00695C;" d="M328.591,220.867v93.867h-68.267v-93.867c0.014-4.707,3.826-8.52,8.533-8.533h51.2
			C324.765,212.347,328.577,216.16,328.591,220.867z"/>
	</g>
	<g>
		<path d="M146.591,336.175c3.204,3.31,7.618,5.172,12.225,5.158h25.708c9.421-0.012,17.054-7.646,17.067-17.067v-25.6h17.067V409.6
			c0.012,9.421,7.646,17.054,17.067,17.067h8.533v76.8c-0.001,2.264,0.897,4.435,2.498,6.035c1.601,1.601,3.772,2.499,6.035,2.498
			h85.333c2.264,0.001,4.435-0.897,6.035-2.498c1.601-1.601,2.499-3.772,2.498-6.035v-76.8h8.533
			c9.421-0.012,17.054-7.646,17.067-17.067V128c-0.031-28.264-22.936-51.169-51.2-51.2h-51.2c-28.264,0.031-51.169,22.936-51.2,51.2
			v119.467h-17.067v-230.4C201.579,7.646,193.945,0.012,184.524,0h-17.558c-9.269-0.043-16.863,7.35-17.067,16.617l-0.69,26
			l-0.01,0.05l0.009,0.04l-7.458,281.11C141.617,328.423,143.365,332.885,146.591,336.175z M158.816,324.267L166.06,51.2h18.467
			l0.01,204.735L184.524,256v34.133l0.015,0.073l0.002,34.06H158.816z M329.591,460.8h-17.067c-4.713,0-8.533,3.821-8.533,8.533
			s3.82,8.533,8.533,8.533h17.067v17.067h-68.267v-17.067h17.067c4.713,0,8.533-3.82,8.533-8.533s-3.82-8.533-8.533-8.533h-17.067
			v-34.133h68.267V460.8z M235.724,128c0.019-18.844,15.29-34.115,34.133-34.133h51.2c18.844,0.019,34.115,15.29,34.133,34.133
			l0.017,281.6H235.724V128z M218.658,264.534V281.6h-17.067v-17.067H218.658z M184.524,17.067l0.001,17.067h-18.011l0.452-17.067
			H184.524z"/>
		<path d="M269.858,366.934h51.2c9.421-0.012,17.054-7.646,17.067-17.067v-128c-0.012-9.421-7.646-17.054-17.067-17.067h-51.2
			c-9.421,0.012-17.054,7.646-17.067,17.067v128C252.803,359.287,260.437,366.921,269.858,366.934z M269.858,349.867v-25.6h51.214
			l0.003,25.6H269.858z M321.058,221.867l0.01,85.333h-51.21v-85.333H321.058z"/>
	</g>
</g>
<g>
</g>
<g>
</g>
<g>
</g>
<g>
</g>
<g>
</g>
<g>
</g>
<g>
</g>
<g>
</g>
<g>
</g>
<g>
</g>
<g>
</g>
<g>
</g>
<g>
</g>
<g>
</g>
<g>
</g>
</svg>
