<?xml version="1.0" encoding="iso-8859-1"?>
<!-- Generator: Adobe Illustrator 19.0.0, SVG Export Plug-In . SVG Version: 6.00 Build 0)  -->
<svg version="1.1" id="Capa_1" xmlns="http://www.w3.org/2000/svg" xmlns:xlink="http://www.w3.org/1999/xlink" x="0px" y="0px"
	 viewBox="0 0 512 512" style="enable-background:new 0 0 512 512;" xml:space="preserve">
<g>
	<g transform="translate(5 1)">
		<g>
			<path style="fill:#FF9801;" d="M71.8,348.867h34.133v25.6c0,4.713-3.821,8.533-8.533,8.533H80.333
				c-4.713,0-8.533-3.82-8.533-8.533V348.867z"/>
			<path style="fill:#FF9801;" d="M140.067,348.867h51.2v25.6c0,4.713-3.821,8.533-8.533,8.533H148.6
				c-4.713,0-8.533-3.82-8.533-8.533V348.867z"/>
			<path style="fill:#FF9801;" d="M225.4,348.867h128v25.6c0,4.713-3.821,8.533-8.533,8.533H233.933
				c-4.713,0-8.533-3.82-8.533-8.533V348.867z"/>
		</g>
		<path style="fill:#37474F;" d="M472.867,280.6h25.6l-7.595,60.757c-0.527,4.271-4.144,7.486-8.448,7.509H37.667V109.934h444.757
			c4.304,0.023,7.921,3.238,8.448,7.509l7.595,60.757h-25.6l17.067,51.2L472.867,280.6z"/>
		<path style="fill:#607D8B;" d="M447.267,280.6h25.6l-7.595,60.757c-0.527,4.271-4.144,7.486-8.448,7.509H37.667V109.934h419.157
			c4.304,0.023,7.921,3.238,8.448,7.509l7.595,60.757h-25.6l17.067,51.2L447.267,280.6z"/>
		<polygon style="fill:#C52828;" points="489.933,229.4 472.867,280.6 421.667,348.867 302.2,348.867 251,280.6 239.651,246.467 
			233.933,229.4 239.651,212.334 251,178.2 302.2,109.934 421.667,109.934 472.867,178.2 		"/>
		<polygon style="fill:#F44335;" points="464.333,229.4 447.267,280.6 396.067,348.867 302.2,348.867 251,280.6 239.651,246.467 
			233.933,229.4 239.651,212.334 251,178.2 302.2,109.934 396.067,109.934 447.267,178.2 		"/>
		<rect x="37.667" y="109.934" style="fill:#607D8B;" width="34.133" height="238.933"/>
		<circle style="fill:#BDC3C7;" cx="361.933" cy="229.4" r="59.733"/>
		<circle style="fill:#ECF0F1;" cx="361.933" cy="229.4" r="25.6"/>
		<polygon style="fill:#F44335;" points="251,178.2 239.651,212.334 71.8,212.334 71.8,178.2 		"/>
		<polygon style="fill:#CFD8DC;" points="233.933,229.4 239.651,246.467 71.8,246.467 71.8,212.334 239.651,212.334 		"/>
		<polygon style="fill:#F44335;" points="251,280.6 71.8,280.6 71.8,246.467 239.651,246.467 		"/>
	</g>
	<g>
		<path d="M366.933,298.667c37.703,0,68.267-30.564,68.267-68.267s-30.564-68.267-68.267-68.267s-68.267,30.564-68.267,68.267
			C298.71,268.085,329.249,298.624,366.933,298.667z M366.933,179.2c28.277,0,51.2,22.923,51.2,51.2s-22.923,51.2-51.2,51.2
			s-51.2-22.923-51.2-51.2C315.764,202.136,338.669,179.231,366.933,179.2z"/>
		<path d="M366.933,264.534c18.851,0,34.133-15.282,34.133-34.133s-15.282-34.133-34.133-34.133
			c-18.851,0-34.133,15.282-34.133,34.133C332.819,249.244,348.09,264.515,366.933,264.534z M366.933,213.334
			c9.426,0,17.067,7.641,17.067,17.067s-7.641,17.067-17.067,17.067s-17.067-7.641-17.067-17.067
			C349.879,220.98,357.513,213.346,366.933,213.334z"/>
		<path d="M423.425,169.984c1.013,0.476,2.123,0.71,3.242,0.683c2.27,0.022,4.453-0.87,6.058-2.475
			c1.605-1.605,2.497-3.788,2.475-6.058c-0.033-2.259-0.917-4.422-2.475-6.059c-0.419-0.387-0.877-0.731-1.367-1.025
			c-0.434-0.339-0.925-0.599-1.45-0.767c-0.51-0.259-1.059-0.433-1.625-0.517c-2.783-0.558-5.662,0.308-7.676,2.308
			c-1.561,1.634-2.445,3.799-2.475,6.059c-0.023,2.27,0.869,4.454,2.475,6.059C421.438,168.946,422.39,169.552,423.425,169.984z"/>
		<path d="M429.908,290.817c-1.556-0.684-3.286-0.865-4.95-0.517c-0.534,0.096-1.05,0.27-1.533,0.517
			c-0.546,0.184-1.065,0.442-1.542,0.767c-0.445,0.316-0.871,0.658-1.275,1.025c-1.561,1.634-2.445,3.799-2.475,6.059
			c-0.031,1.119,0.203,2.23,0.683,3.242c0.434,1.034,1.04,1.986,1.792,2.817c1.605,1.605,3.788,2.497,6.058,2.475
			c1.119,0.027,2.229-0.207,3.242-0.683c1.034-0.434,1.986-1.04,2.817-1.792c1.57-1.628,2.455-3.796,2.475-6.058
			c-0.033-2.259-0.917-4.422-2.475-6.059C431.895,291.856,430.942,291.25,429.908,290.817z"/>
		<path d="M303.958,169.984c2.065,0.911,4.418,0.911,6.483,0c1.044-0.414,2-1.022,2.817-1.792c1.603-1.607,2.494-3.789,2.475-6.058
			c-0.033-2.259-0.917-4.422-2.475-6.059c-0.419-0.387-0.877-0.731-1.367-1.025c-0.434-0.339-0.925-0.599-1.45-0.767
			c-1.557-0.68-3.286-0.86-4.95-0.517c-0.534,0.096-1.05,0.27-1.533,0.517c-0.546,0.184-1.065,0.442-1.542,0.767
			c-0.445,0.316-0.871,0.658-1.276,1.025c-0.772,0.816-1.38,1.772-1.792,2.817c-1.362,3.175-0.652,6.859,1.792,9.301
			C301.971,168.946,302.924,169.552,303.958,169.984z"/>
		<path d="M301.141,292.608c-1.561,1.634-2.445,3.799-2.475,6.059c0,4.713,3.82,8.533,8.533,8.533s8.533-3.821,8.533-8.533
			c0.02-3.467-2.059-6.601-5.261-7.931C307.271,289.407,303.583,290.147,301.141,292.608z"/>
		<path d="M103.083,148.309c0.434,1.034,1.04,1.986,1.792,2.817c0.829,0.754,1.782,1.36,2.817,1.792
			c2.065,0.911,4.418,0.911,6.483,0c1.034-0.434,1.986-1.04,2.817-1.792c1.589-1.616,2.478-3.792,2.475-6.058
			c-0.016-2.262-0.902-4.432-2.475-6.059c-0.831-0.752-1.783-1.358-2.817-1.792c-2.059-0.942-4.425-0.942-6.483,0
			c-3.252,1.228-5.373,4.376-5.292,7.851C102.369,146.186,102.603,147.297,103.083,148.309z"/>
		<path d="M227.158,152.917c2.065,0.911,4.418,0.911,6.483,0c2.143-0.777,3.831-2.465,4.608-4.608
			c0.438-1.026,0.67-2.127,0.684-3.242c-0.016-2.262-0.902-4.432-2.475-6.059c-0.425-0.341-0.858-0.683-1.283-1.025
			c-0.474-0.324-0.99-0.582-1.533-0.767c-0.51-0.259-1.059-0.433-1.625-0.517c-1.094-0.25-2.231-0.25-3.325,0
			c-0.534,0.096-1.05,0.27-1.533,0.517c-0.546,0.184-1.065,0.442-1.542,0.767l-1.276,1.025l-1.025,1.275
			c-0.325,0.477-0.583,0.995-0.767,1.542c-0.246,0.483-0.42,1-0.517,1.533c-0.097,0.565-0.152,1.136-0.166,1.709
			c-0.023,2.27,0.869,4.454,2.475,6.059C225.171,151.88,226.124,152.485,227.158,152.917z"/>
		<path d="M104.875,309.675c-1.561,1.634-2.445,3.799-2.475,6.059c-0.018,1.109,0.183,2.21,0.592,3.242
			c0.481,1.004,1.116,1.927,1.883,2.733c0.809,0.823,1.764,1.487,2.817,1.958c1.031,0.411,2.132,0.615,3.242,0.6
			c2.287,0.027,4.483-0.9,6.059-2.558c1.546-1.61,2.43-3.743,2.475-5.975c0.02-3.467-2.059-6.601-5.261-7.931
			S107.316,307.213,104.875,309.675z"/>
		<path d="M236.459,309.675c-2.441-2.462-6.129-3.201-9.331-1.872s-5.281,4.464-5.261,7.931c-0.031,1.119,0.203,2.23,0.683,3.242
			c0.415,1.018,1.023,1.947,1.792,2.733c0.824,0.804,1.776,1.466,2.817,1.958c1.031,0.411,2.132,0.615,3.241,0.6
			c4.699-0.032,8.501-3.834,8.533-8.533C238.9,313.475,238.016,311.311,236.459,309.675z"/>
		<path d="M8.533,119.467h25.6v281.6c0,4.713,3.821,8.533,8.533,8.533s8.533-3.82,8.533-8.533V358.4h17.067v17.067
			c0.012,9.421,7.646,17.054,17.067,17.067H102.4c9.421-0.012,17.054-7.646,17.067-17.067V358.4h17.067v17.067
			c0.012,9.421,7.646,17.054,17.067,17.067h34.133c9.421-0.012,17.054-7.646,17.067-17.067V358.4h17.067v17.067
			c0.012,9.421,7.646,17.054,17.067,17.067h110.933c9.421-0.012,17.054-7.646,17.067-17.067V358.4H384V384
			c-0.001,2.264,0.897,4.435,2.498,6.035c1.601,1.601,3.772,2.499,6.035,2.498h25.6c4.713,0,8.533-3.821,8.533-8.533
			s-3.82-8.533-8.533-8.533h-17.067V358.4H487.4c8.603-0.011,15.857-6.415,16.933-14.95l7.6-60.791
			c0.306-2.429-0.447-4.873-2.067-6.708c-1.62-1.836-3.952-2.886-6.4-2.883h-13.758l13.317-39.967c0.592-1.751,0.592-3.649,0-5.4
			l-13.317-39.967h13.758c2.448,0.003,4.78-1.048,6.4-2.883c1.62-1.836,2.373-4.279,2.067-6.708l-7.6-60.791
			c-1.077-8.535-8.33-14.939-16.933-14.95H8.533C3.821,102.4,0,106.221,0,110.934S3.821,119.467,8.533,119.467z M51.2,119.467
			h17.067v221.867H51.2V119.467z M422.404,119.467l47.807,63.744l15.73,47.189l-15.73,47.189l-47.807,63.744H311.462l-47.807-63.744
			l-11.13-33.39l-0.026-0.079l-4.574-13.721l4.574-13.723l0.026-0.076l11.13-33.391l47.807-63.743H422.404z M196.267,341.334H85.333
			v-51.2h166.404l38.4,51.2H196.267z M230.842,233.1l1.944,5.833H85.333v-17.067h147.452l-1.944,5.833
			C230.25,229.452,230.25,231.349,230.842,233.1z M85.333,256h153.142l5.69,17.067H85.333V256z M238.475,204.8H85.333v-17.067
			h158.831L238.475,204.8z M251.738,170.667H85.333v-51.2h204.804L251.738,170.667z M102.417,375.467H85.333V358.4h17.075
			L102.417,375.467z M187.75,375.467H153.6V358.4h34.142L187.75,375.467z M349.884,375.467h-110.95V358.4h110.942L349.884,375.467z
			 M493.8,290.134l-6.4,51.2h-43.671l38.4-51.2H493.8z M493.8,170.667h-11.671l-38.4-51.2H487.4L493.8,170.667z"/>
	</g>
</g>
<g>
</g>
<g>
</g>
<g>
</g>
<g>
</g>
<g>
</g>
<g>
</g>
<g>
</g>
<g>
</g>
<g>
</g>
<g>
</g>
<g>
</g>
<g>
</g>
<g>
</g>
<g>
</g>
<g>
</g>
</svg>
