<?xml version="1.0" encoding="iso-8859-1"?>
<!-- Generator: Adobe Illustrator 19.0.0, SVG Export Plug-In . SVG Version: 6.00 Build 0)  -->
<svg version="1.1" id="Capa_1" xmlns="http://www.w3.org/2000/svg" xmlns:xlink="http://www.w3.org/1999/xlink" x="0px" y="0px"
	 viewBox="0 0 512 512" style="enable-background:new 0 0 512 512;" xml:space="preserve">
<g>
	<g transform="translate(1 18)">
		<path style="fill:#607D8B;" d="M220.867,212.4c0-18.851,15.282-34.133,34.133-34.133s34.133,15.282,34.133,34.133H220.867z"/>
		<path style="fill:#00695C;" d="M33.133,203.867h443.733c14.138,0,25.6,11.462,25.6,25.6V417.2c0,14.138-11.462,25.6-25.6,25.6
			H33.133c-14.138,0-25.6-11.462-25.6-25.6V229.467C7.533,215.328,18.995,203.867,33.133,203.867z"/>
		<path style="fill:#009688;" d="M33.133,203.867h418.133c14.138,0,25.6,11.462,25.6,25.6V417.2c0,14.138-11.462,25.6-25.6,25.6
			H33.133c-14.138,0-25.6-11.462-25.6-25.6V229.467C7.533,215.328,18.995,203.867,33.133,203.867z"/>
		<g>
			<path style="fill:#FFEB3A;" d="M75.8,238h17.067c4.713,0,8.533,3.82,8.533,8.533V263.6c0,4.713-3.821,8.533-8.533,8.533H75.8
				c-4.713,0-8.533-3.82-8.533-8.533v-17.067C67.267,241.82,71.087,238,75.8,238z"/>
			<path style="fill:#FFEB3A;" d="M144.067,238h17.067c4.713,0,8.533,3.82,8.533,8.533V263.6c0,4.713-3.821,8.533-8.533,8.533
				h-17.067c-4.713,0-8.533-3.82-8.533-8.533v-17.067C135.533,241.82,139.354,238,144.067,238z"/>
			<path style="fill:#FFEB3A;" d="M212.333,238H229.4c4.713,0,8.533,3.82,8.533,8.533V263.6c0,4.713-3.821,8.533-8.533,8.533
				h-17.067c-4.713,0-8.533-3.82-8.533-8.533v-17.067C203.8,241.82,207.621,238,212.333,238z"/>
			<path style="fill:#FFEB3A;" d="M280.6,238h17.067c4.713,0,8.533,3.82,8.533,8.533V263.6c0,4.713-3.82,8.533-8.533,8.533H280.6
				c-4.713,0-8.533-3.82-8.533-8.533v-17.067C272.067,241.82,275.887,238,280.6,238z"/>
			<path style="fill:#FFEB3A;" d="M348.867,238h17.067c4.713,0,8.533,3.82,8.533,8.533V263.6c0,4.713-3.82,8.533-8.533,8.533
				h-17.067c-4.713,0-8.533-3.82-8.533-8.533v-17.067C340.333,241.82,344.154,238,348.867,238z"/>
			<path style="fill:#FFEB3A;" d="M417.133,238H434.2c4.713,0,8.533,3.82,8.533,8.533V263.6c0,4.713-3.821,8.533-8.533,8.533
				h-17.067c-4.713,0-8.533-3.82-8.533-8.533v-17.067C408.6,241.82,412.421,238,417.133,238z"/>
			<path style="fill:#FFEB3A;" d="M75.8,374.533h17.067c4.713,0,8.533,3.821,8.533,8.533v17.067c0,4.713-3.821,8.533-8.533,8.533
				H75.8c-4.713,0-8.533-3.821-8.533-8.533v-17.067C67.267,378.354,71.087,374.533,75.8,374.533z"/>
			<path style="fill:#FFEB3A;" d="M144.067,374.533h221.867c4.713,0,8.533,3.821,8.533,8.533v17.067c0,4.713-3.82,8.533-8.533,8.533
				H144.067c-4.713,0-8.533-3.821-8.533-8.533v-17.067C135.533,378.354,139.354,374.533,144.067,374.533z"/>
			<path style="fill:#FFEB3A;" d="M417.133,374.533H434.2c4.713,0,8.533,3.821,8.533,8.533v17.067c0,4.713-3.821,8.533-8.533,8.533
				h-17.067c-4.713,0-8.533-3.821-8.533-8.533v-17.067C408.6,378.354,412.421,374.533,417.133,374.533z"/>
			<path style="fill:#FFEB3A;" d="M109.933,306.267H127c4.713,0,8.533,3.82,8.533,8.533v17.067c0,4.713-3.82,8.533-8.533,8.533
				h-17.067c-4.713,0-8.533-3.82-8.533-8.533V314.8C101.4,310.087,105.221,306.267,109.933,306.267z"/>
			<path style="fill:#FFEB3A;" d="M178.2,306.267h17.067c4.713,0,8.533,3.82,8.533,8.533v17.067c0,4.713-3.821,8.533-8.533,8.533
				H178.2c-4.713,0-8.533-3.82-8.533-8.533V314.8C169.667,310.087,173.487,306.267,178.2,306.267z"/>
			<path style="fill:#FFEB3A;" d="M246.467,306.267h17.067c4.713,0,8.533,3.82,8.533,8.533v17.067c0,4.713-3.82,8.533-8.533,8.533
				h-17.067c-4.713,0-8.533-3.82-8.533-8.533V314.8C237.933,310.087,241.754,306.267,246.467,306.267z"/>
			<path style="fill:#FFEB3A;" d="M314.733,306.267H331.8c4.713,0,8.533,3.82,8.533,8.533v17.067c0,4.713-3.82,8.533-8.533,8.533
				h-17.067c-4.713,0-8.533-3.82-8.533-8.533V314.8C306.2,310.087,310.021,306.267,314.733,306.267z"/>
			<path style="fill:#FFEB3A;" d="M383,306.267h17.067c4.713,0,8.533,3.82,8.533,8.533v17.067c0,4.713-3.821,8.533-8.533,8.533H383
				c-4.713,0-8.533-3.82-8.533-8.533V314.8C374.467,310.087,378.287,306.267,383,306.267z"/>
		</g>
	</g>
	<g>
		<path d="M477.867,213.333H297.804C293.749,193.468,276.275,179.2,256,179.2c-20.275,0-37.749,14.268-41.804,34.133H34.133
			C15.29,213.352,0.019,228.623,0,247.467V435.2c0.019,18.844,15.29,34.115,34.133,34.133h443.733
			c18.844-0.019,34.115-15.29,34.133-34.133V247.467C511.981,228.623,496.71,213.352,477.867,213.333z M256,196.267
			c10.813,0.033,20.435,6.868,24.028,17.067h-48.055C235.565,203.134,245.187,196.3,256,196.267z M494.933,435.2
			c-0.012,9.421-7.646,17.054-17.067,17.067H34.133c-9.421-0.012-17.054-7.646-17.067-17.067V247.467
			c0.012-9.421,7.646-17.054,17.067-17.067h443.733c9.421,0.012,17.054,7.646,17.067,17.067V435.2z"/>
		<path d="M76.8,298.667h17.067c9.421-0.012,17.054-7.646,17.067-17.067v-17.067c-0.012-9.421-7.646-17.054-17.067-17.067H76.8
			c-9.421,0.012-17.054,7.646-17.067,17.067V281.6C59.746,291.021,67.379,298.654,76.8,298.667z M76.8,264.533h17.067l0.017,17.067
			H76.8V264.533z"/>
		<path d="M145.067,298.667h17.067c9.421-0.012,17.054-7.646,17.067-17.067v-17.067c-0.012-9.421-7.646-17.054-17.067-17.067
			h-17.067c-9.421,0.012-17.054,7.646-17.067,17.067V281.6C128.012,291.021,135.646,298.654,145.067,298.667z M145.067,264.533
			h17.067l0.017,17.067h-17.084V264.533z"/>
		<path d="M213.333,298.667H230.4c9.421-0.012,17.054-7.646,17.067-17.067v-17.067c-0.012-9.421-7.646-17.054-17.067-17.067h-17.067
			c-9.421,0.012-17.054,7.646-17.067,17.067V281.6C196.279,291.021,203.913,298.654,213.333,298.667z M213.333,264.533H230.4
			l0.017,17.067h-17.084V264.533z"/>
		<path d="M281.6,298.667h17.067c9.421-0.012,17.054-7.646,17.067-17.067v-17.067c-0.012-9.421-7.646-17.054-17.067-17.067H281.6
			c-9.421,0.012-17.054,7.646-17.067,17.067V281.6C264.546,291.021,272.179,298.654,281.6,298.667z M281.6,264.533h17.067
			l0.017,17.067H281.6V264.533z"/>
		<path d="M349.867,298.667h17.067c9.421-0.012,17.054-7.646,17.067-17.067v-17.067c-0.012-9.421-7.646-17.054-17.067-17.067
			h-17.067c-9.421,0.012-17.054,7.646-17.067,17.067V281.6C332.812,291.021,340.446,298.654,349.867,298.667z M349.867,264.533
			h17.067l0.017,17.067h-17.084V264.533z"/>
		<path d="M435.2,247.467h-17.067c-9.421,0.012-17.054,7.646-17.067,17.067V281.6c0.012,9.421,7.646,17.054,17.067,17.067H435.2
			c9.421-0.012,17.054-7.646,17.067-17.067v-17.067C452.254,255.113,444.621,247.479,435.2,247.467z M418.133,281.6v-17.067H435.2
			l0.017,17.067H418.133z"/>
		<path d="M93.867,384H76.8c-9.421,0.012-17.054,7.646-17.067,17.067v17.067c0.012,9.421,7.646,17.054,17.067,17.067h17.067
			c9.421-0.012,17.054-7.646,17.067-17.067v-17.067C110.921,391.646,103.287,384.012,93.867,384z M76.8,418.133v-17.067h17.067
			l0.017,17.067H76.8z"/>
		<path d="M366.933,384H145.067c-9.421,0.012-17.054,7.646-17.067,17.067v17.067c0.012,9.421,7.646,17.054,17.067,17.067h221.867
			c9.421-0.012,17.054-7.646,17.067-17.067v-17.067C383.988,391.646,376.354,384.012,366.933,384z M145.067,418.133v-17.067h221.867
			l0.017,17.067H145.067z"/>
		<path d="M435.2,384h-17.067c-9.421,0.012-17.054,7.646-17.067,17.067v17.067c0.012,9.421,7.646,17.054,17.067,17.067H435.2
			c9.421-0.012,17.054-7.646,17.067-17.067v-17.067C452.254,391.646,444.621,384.012,435.2,384z M418.133,418.133v-17.067H435.2
			l0.017,17.067H418.133z"/>
		<path d="M145.067,349.867V332.8c-0.012-9.421-7.646-17.054-17.067-17.067h-17.067c-9.421,0.012-17.054,7.646-17.067,17.067v17.067
			c0.012,9.421,7.646,17.054,17.067,17.067H128C137.421,366.921,145.054,359.287,145.067,349.867z M110.933,332.8H128l0.017,17.067
			h-17.084V332.8z"/>
		<path d="M162.133,332.8v17.067c0.012,9.421,7.646,17.054,17.067,17.067h17.067c9.421-0.012,17.054-7.646,17.067-17.067V332.8
			c-0.012-9.421-7.646-17.054-17.067-17.067H179.2C169.779,315.746,162.146,323.379,162.133,332.8z M196.284,349.867H179.2V332.8
			h17.067L196.284,349.867z"/>
		<path d="M230.4,332.8v17.067c0.012,9.421,7.646,17.054,17.067,17.067h17.067c9.421-0.012,17.054-7.646,17.067-17.067V332.8
			c-0.012-9.421-7.646-17.054-17.067-17.067h-17.067C238.046,315.746,230.412,323.379,230.4,332.8z M264.55,349.867h-17.084V332.8
			h17.067L264.55,349.867z"/>
		<path d="M298.667,332.8v17.067c0.012,9.421,7.646,17.054,17.067,17.067H332.8c9.421-0.012,17.054-7.646,17.067-17.067V332.8
			c-0.012-9.421-7.646-17.054-17.067-17.067h-17.067C306.313,315.746,298.679,323.379,298.667,332.8z M332.817,349.867h-17.084
			V332.8H332.8L332.817,349.867z"/>
		<path d="M418.133,349.867V332.8c-0.012-9.421-7.646-17.054-17.067-17.067H384c-9.421,0.012-17.054,7.646-17.067,17.067v17.067
			c0.012,9.421,7.646,17.054,17.067,17.067h17.067C410.487,366.921,418.121,359.287,418.133,349.867z M384,332.8h17.067
			l0.017,17.067H384V332.8z"/>
		<path d="M341.358,83.692c3.825,0.005,7.186-2.537,8.224-6.219c1.038-3.682-0.501-7.604-3.766-9.598
			c-55.161-33.611-124.472-33.611-179.633,0c-4.002,2.467-5.255,7.705-2.804,11.716s7.684,5.286,11.705,2.851
			c49.696-30.278,112.137-30.278,161.833,0C338.254,83.26,339.791,83.693,341.358,83.692z"/>
		<path d="M286.975,133.508c4.14,0.001,7.684-2.971,8.404-7.048c0.721-4.077-1.589-8.083-5.479-9.502
			c-21.904-7.933-45.896-7.933-67.8,0c-4.427,1.615-6.707,6.514-5.092,10.942c1.615,4.427,6.514,6.707,10.942,5.092
			c18.124-6.567,37.976-6.567,56.1,0C284.987,133.333,285.977,133.508,286.975,133.508z"/>
		<path d="M314.575,108.183c3.936,0.003,7.363-2.685,8.297-6.509c0.934-3.823-0.869-7.789-4.363-9.6
			c-39.189-20.344-85.828-20.344-125.017,0c-2.716,1.397-4.479,4.139-4.621,7.19c-0.142,3.051,1.357,5.945,3.932,7.589
			c2.575,1.643,5.831,1.785,8.539,0.371c34.289-17.7,75.027-17.7,109.317,0C311.868,107.853,313.212,108.182,314.575,108.183z"/>
		<path d="M249.941,147.541c-0.754,0.829-1.36,1.782-1.792,2.817c-0.437,1.026-0.669,2.127-0.683,3.242
			c-0.031,1.119,0.203,2.23,0.683,3.242c0.434,1.034,1.04,1.986,1.792,2.817c0.829,0.754,1.782,1.36,2.817,1.792
			c3.155,1.29,6.775,0.586,9.217-1.792c0.805-0.806,1.442-1.763,1.875-2.817c1.307-3.195,0.568-6.862-1.875-9.3
			C258.586,144.383,253.331,144.383,249.941,147.541z"/>
	</g>
</g>
<g>
</g>
<g>
</g>
<g>
</g>
<g>
</g>
<g>
</g>
<g>
</g>
<g>
</g>
<g>
</g>
<g>
</g>
<g>
</g>
<g>
</g>
<g>
</g>
<g>
</g>
<g>
</g>
<g>
</g>
</svg>
