<?xml version="1.0" encoding="iso-8859-1"?>
<!-- Generator: Adobe Illustrator 19.0.0, SVG Export Plug-In . SVG Version: 6.00 Build 0)  -->
<svg version="1.1" id="Capa_1" xmlns="http://www.w3.org/2000/svg" xmlns:xlink="http://www.w3.org/1999/xlink" x="0px" y="0px"
	 viewBox="0 0 512.005 512.005" style="enable-background:new 0 0 512.005 512.005;" xml:space="preserve">
<g>
	<g transform="translate(0 10)">
		<path style="fill:#D84315;" d="M399.701,271.263l-72.448,72.533L212.565,458.484c-22.4,22.415-52.791,35.009-84.48,35.009
			s-62.08-12.594-84.48-35.009l-0.085-0.084c-1.365-1.365-2.645-2.73-3.925-4.097c-42.928-47.185-41.2-119.775,3.925-164.863
			L158.208,174.75l72.533-72.448c23.215-23.312,59.779-26.688,86.869-8.02c3.462,2.361,6.691,5.047,9.643,8.021l36.267,36.267
			l36.181,36.181c12.824,12.785,20.032,30.148,20.032,48.256S412.525,258.478,399.701,271.263z"/>
		<path style="fill:#FF5722;" d="M382.635,255.817l-71.68,71.681l-0.768,0.852L195.499,443.039
			c-41.949,41.974-108.357,46.772-155.904,11.263c-42.928-47.185-41.2-119.775,3.925-164.863L158.208,174.75l72.533-72.448
			c23.215-23.312,59.779-26.688,86.869-8.02l45.056,45.056l19.968,19.968c12.824,12.785,20.031,30.148,20.031,48.256
			S395.458,243.032,382.635,255.817z"/>
		<path style="fill:#F57C00;" d="M399.701,271.263l-72.448,72.533l-16.299-16.298l71.68-71.681
			c12.824-12.785,20.032-30.148,20.032-48.256s-7.208-35.471-20.032-48.256l-19.968-19.968l0.853-0.769l36.181,36.181
			c12.824,12.785,20.032,30.148,20.032,48.256S412.525,258.478,399.701,271.263z"/>
		<g>
			<path style="fill:#FF9801;" d="M382.635,255.817l-71.68,71.681l-68.181-68.181v-0.085l119.893-119.894l19.968,19.968
				c12.824,12.785,20.031,30.148,20.031,48.256S395.458,243.032,382.635,255.817z"/>
			<path style="fill:#FF9801;" d="M363.52,138.569l-42.325,42.241l-78.421,78.422v0.085l-84.565-84.567l72.533-72.448
				c12.785-12.824,30.148-20.031,48.256-20.031c18.108,0,35.471,7.208,48.256,20.031L363.52,138.569z"/>
		</g>
		<g>
			<path style="fill:#FFFFFF;" d="M309.163,216.991l-18.091,18.091c-3.354,3.328-8.764,3.328-12.117,0l-12.032-12.031
				c-3.328-3.354-3.328-8.764,0-12.117l18.091-18.091L309.163,216.991z"/>
			<path style="fill:#FFFFFF;" d="M327.253,198.9l-18.091,18.091l-24.149-24.149l18.091-18.092c3.354-3.327,8.763-3.327,12.117,0
				l12.032,12.033C330.582,190.137,330.582,195.547,327.253,198.9z"/>
		</g>
	</g>
	<g>
		<path d="M224.667,106.246L37.492,293.429C13.486,317.433,0,349.99,0,383.938s13.486,66.505,37.492,90.508l0.067,0.067
			c24.004,24.005,56.561,37.492,90.508,37.492s66.505-13.486,90.508-37.492l187.183-187.175c29.942-30.015,29.942-78.602,0-108.617
			l-72.475-72.475C303.265,76.313,254.685,76.313,224.667,106.246z M236.733,118.313c23.351-23.278,61.133-23.278,84.483,0
			l30.204,30.204l-30.192,30.192l-0.004-0.004c-6.67-6.65-17.463-6.65-24.133,0L279,196.796l-0.025,0.017l-0.017,0.025
			l-18.083,18.083c-3.205,3.199-5.007,7.541-5.008,12.069c-0.002,4.528,1.797,8.871,5,12.073l0.004,0.004l-18.112,18.112
			l-72.444-72.444L236.733,118.313z M278.992,233.054l-0.017-0.025l-0.025-0.017l-6.017-6.017l12.079-12.079l12.081,12.081
			l-12.076,12.082L278.992,233.054z M309.157,214.927l-12.078-12.077l12.079-12.079l12.075,12.075L309.157,214.927z
			 M206.508,462.446c-43.322,43.322-113.561,43.322-156.883,0l-0.067-0.067c-43.322-43.322-43.322-113.561,0-156.883
			l108.689-108.694l156.955,156.954L206.508,462.446z M393.692,275.271l-66.422,66.419l-72.444-72.444l18.113-18.113l0.004,0.004
			c3.193,3.212,7.538,5.012,12.067,5h0.017c4.524,0.011,8.863-1.789,12.05-5l18.092-18.092l0.025-0.017l0.017-0.025l18.092-18.092
			c6.658-6.667,6.658-17.467,0-24.133l-0.004-0.004l30.192-30.192l30.204,30.204C416.976,214.136,416.975,251.923,393.692,275.271z"
			/>
		<path d="M503.458,137.796c0.676,0,1.35-0.078,2.008-0.233c4.582-1.108,7.401-5.716,6.3-10.3
			C496.534,64.486,447.519,15.471,384.742,0.238c-4.582-1.099-9.187,1.722-10.291,6.302c-1.104,4.581,1.712,9.189,6.291,10.298
			c56.552,13.719,100.706,57.873,114.425,114.425C496.093,135.092,499.518,137.792,503.458,137.796z"/>
		<path d="M419.892,131.788c1.988,4.271,7.062,6.122,11.333,4.133c4.271-1.988,6.122-7.062,4.133-11.333
			c-9.844-21.122-26.82-38.097-47.942-47.942c-4.271-1.988-9.345-0.138-11.333,4.133s-0.138,9.345,4.133,11.333
			C397.692,100.266,411.739,114.312,419.892,131.788z"/>
		<path d="M467.209,136.171c2.722,0.001,5.281-1.298,6.888-3.494c1.607-2.197,2.07-5.028,1.246-7.622
			c-13.325-42.092-46.3-75.066-88.392-88.391c-4.492-1.427-9.29,1.058-10.717,5.55s1.058,9.29,5.55,10.717
			c36.811,11.644,65.648,40.481,77.292,77.292C460.199,133.766,463.49,136.173,467.209,136.171z"/>
		<path d="M385.958,116.054c-0.551,0.092-1.092,0.234-1.617,0.425c-0.512,0.234-0.998,0.522-1.45,0.858
			c-0.499,0.241-0.938,0.592-1.283,1.025c-1.615,1.606-2.534,3.782-2.558,6.059c0.029,2.252,0.949,4.4,2.558,5.975
			c0.759,0.822,1.693,1.462,2.733,1.875c3.187,1.379,6.896,0.631,9.3-1.875c0.794-0.783,1.43-1.711,1.875-2.733
			c0.8-2.087,0.8-4.396,0-6.483c-0.419-1.061-1.058-2.021-1.875-2.817C391.624,116.362,388.744,115.497,385.958,116.054z"/>
	</g>
</g>
<g>
</g>
<g>
</g>
<g>
</g>
<g>
</g>
<g>
</g>
<g>
</g>
<g>
</g>
<g>
</g>
<g>
</g>
<g>
</g>
<g>
</g>
<g>
</g>
<g>
</g>
<g>
</g>
<g>
</g>
</svg>
