<?xml version="1.0" encoding="iso-8859-1"?>
<!-- Generator: Adobe Illustrator 19.0.0, SVG Export Plug-In . SVG Version: 6.00 Build 0)  -->
<svg version="1.1" id="Capa_1" xmlns="http://www.w3.org/2000/svg" xmlns:xlink="http://www.w3.org/1999/xlink" x="0px" y="0px"
	 viewBox="0 0 512 512" style="enable-background:new 0 0 512 512;" xml:space="preserve">
<g>
	<g transform="translate(1 1)">
		<path style="fill:#00695C;" d="M502.467,191.598v101.204c0.024,1.268-0.457,2.493-1.337,3.406s-2.088,1.437-3.356,1.458h-61.184
			c-0.634,0.001-1.242-0.25-1.691-0.699c-0.448-0.448-0.7-1.057-0.699-1.691v-12.288c0.001-0.634-0.25-1.242-0.699-1.691
			c-0.448-0.448-1.057-0.7-1.691-0.699h-37.888c-0.634-0.001-1.242,0.25-1.691,0.699c-0.448,0.448-0.7,1.057-0.699,1.691v14.677
			h-29.44c-1.268-0.021-2.475-0.546-3.356-1.458c-0.881-0.913-1.362-2.138-1.337-3.406v-86.783l25.6-19.285h114.773
			c1.268,0.021,2.475,0.546,3.356,1.458C502.01,189.104,502.491,190.33,502.467,191.598z"/>
		<path style="fill:#009688;" d="M476.867,191.598v101.204c0.024,1.268-0.457,2.493-1.337,3.406s-2.088,1.437-3.356,1.458h-35.584
			c-0.634,0.001-1.242-0.25-1.691-0.699c-0.448-0.448-0.7-1.057-0.699-1.691v-12.288c0.001-0.634-0.25-1.242-0.699-1.691
			c-0.448-0.448-1.057-0.7-1.691-0.699h-40.277c-0.634-0.001-1.242,0.25-1.691,0.699c-0.448,0.448-0.7,1.057-0.699,1.691v14.677
			h-27.051c-1.268-0.021-2.475-0.546-3.356-1.458c-0.881-0.913-1.362-2.138-1.337-3.406v-86.783l25.6-19.285h89.173
			c1.268,0.021,2.475,0.546,3.356,1.458C476.41,189.104,476.891,190.33,476.867,191.598z"/>
		<rect x="323.267" y="84.333" style="fill:#CFD8DC;" width="102.4" height="51.2"/>
		<path style="fill:#E91E63;" d="M391.533,75.8h76.8c18.851,0,34.133,15.282,34.133,34.133s-15.282,34.133-34.133,34.133h-76.8V75.8
			z"/>
		<path style="fill:#607D8B;" d="M357.4,24.6v341.333c-0.028,9.414-7.652,17.039-17.067,17.067H152.6
			c-1.098,38.509,23.175,73.185,59.733,85.333h25.6c9.414,0.027,17.039,7.652,17.067,17.067c-0.069,9.397-7.67,16.998-17.067,17.067
			H7.533v-34.133C44.092,456.185,68.365,421.509,67.267,383H7.533V7.533h332.8C349.748,7.561,357.373,15.186,357.4,24.6z"/>
		<path style="fill:#CFD8DC;" d="M331.8,24.6v341.333c-0.028,9.414-7.652,17.039-17.067,17.067H127
			c-1.098,38.509,23.175,73.185,59.733,85.333h25.6c9.414,0.027,17.039,7.652,17.067,17.067c-0.069,9.397-7.67,16.998-17.067,17.067
			H7.533v-34.133C44.092,456.185,68.365,421.509,67.267,383H7.533V7.533h307.2C324.148,7.561,331.773,15.186,331.8,24.6z"/>
		<path id="SVGCleanerId_0" style="fill:#CFD8DC;" d="M186.733,468.333H7.533C44.092,456.185,68.365,421.509,67.267,383H127
			C125.902,421.509,150.175,456.185,186.733,468.333z"/>
		<path style="fill:#6A1B9A;" d="M357.4,24.6v298.667H7.533V7.533h332.8C349.748,7.561,357.373,15.186,357.4,24.6z"/>
		<path style="fill:#9D27B0;" d="M331.8,24.6v298.667H7.533V7.533h307.2C324.148,7.561,331.773,15.186,331.8,24.6z"/>
		<path style="fill:#607D8B;" d="M212.333,468.333H7.533C44.092,456.185,68.365,421.509,67.267,383H152.6
			C151.502,421.509,175.775,456.185,212.333,468.333z"/>
		<g>
			<path id="SVGCleanerId_0_1_" style="fill:#CFD8DC;" d="M186.733,468.333H7.533C44.092,456.185,68.365,421.509,67.267,383H127
				C125.902,421.509,150.175,456.185,186.733,468.333z"/>
		</g>
	</g>
	<g>
		<path d="M318.234,99.9c2.149,2.188,5.307,3.055,8.271,2.27c2.965-0.785,5.28-3.1,6.065-6.065c0.785-2.965-0.082-6.122-2.27-8.271
			l-25.6-25.6c-3.341-3.281-8.701-3.256-12.012,0.054c-3.311,3.311-3.335,8.671-0.054,12.012L318.234,99.9z"/>
		<path d="M269.825,50.517c2.065,0.911,4.418,0.911,6.483,0c1.034-0.433,1.986-1.039,2.817-1.791c2.444-2.441,3.154-6.125,1.792-9.3
			c-0.432-1.035-1.038-1.988-1.792-2.817c-0.419-0.387-0.877-0.731-1.367-1.025c-0.434-0.339-0.925-0.599-1.45-0.767
			c-0.51-0.259-1.059-0.433-1.625-0.517c-1.094-0.25-2.231-0.25-3.325,0c-0.534,0.096-1.05,0.27-1.533,0.517
			c-0.546,0.184-1.065,0.442-1.542,0.767c-0.445,0.316-0.871,0.658-1.276,1.025c-0.754,0.829-1.36,1.782-1.792,2.817
			c-0.48,1.012-0.714,2.123-0.683,3.242c-0.023,2.27,0.869,4.454,2.475,6.059C267.838,49.479,268.79,50.085,269.825,50.517z"/>
		<path d="M215.834,48.7l93.867,93.867c2.149,2.188,5.307,3.055,8.271,2.27c2.965-0.785,5.28-3.1,6.065-6.065
			c0.785-2.965-0.082-6.122-2.27-8.271L227.9,36.634c-3.341-3.281-8.701-3.256-12.012,0.054
			C212.577,39.999,212.553,45.359,215.834,48.7z"/>
		<path d="M384,145.067c-0.001,2.264,0.897,4.435,2.498,6.035s3.772,2.499,6.035,2.498h76.8c23.564,0,42.667-19.103,42.667-42.667
			s-19.103-42.667-42.667-42.667h-76.8c-2.264-0.001-4.435,0.897-6.035,2.498c-1.601,1.601-2.499,3.772-2.498,6.035h-17.067V25.6
			c-0.015-14.132-11.468-25.585-25.6-25.6H8.533C6.27-0.001,4.099,0.897,2.498,2.498S-0.001,6.27,0,8.533v374.4
			c0,0.19,0.096,0.348,0.108,0.533C0.096,383.652,0,383.81,0,384c-0.001,2.264,0.897,4.435,2.498,6.035
			c1.601,1.601,3.772,2.499,6.035,2.498H59.28c-2.209,31.501-23.169,58.573-53.114,68.6c-0.169,0.049-0.286,0.176-0.45,0.234
			c-0.551,0.215-1.077,0.489-1.569,0.818c-0.449,0.246-0.874,0.533-1.27,0.856c-0.393,0.385-0.747,0.807-1.057,1.261
			c-0.338,0.411-0.637,0.854-0.891,1.322c-0.205,0.475-0.365,0.968-0.479,1.473c-0.18,0.565-0.297,1.149-0.351,1.74
			c-0.01,0.173-0.1,0.32-0.1,0.496v34.133c-0.001,2.264,0.897,4.435,2.498,6.035c1.601,1.601,3.772,2.499,6.035,2.498h230.4
			c14.111-0.066,25.534-11.489,25.6-25.6c-0.015-14.132-11.468-25.585-25.6-25.6h-24.268
			c-29.449-10.293-49.933-37.144-52.078-68.267h178.746c14.132-0.015,25.585-11.468,25.6-25.6V307.2h25.6
			c2.264,0.001,4.435-0.897,6.035-2.498c1.601-1.601,2.499-3.772,2.498-6.035v-8.533h25.6v6.125
			c-0.009,6.024,4.86,10.918,10.883,10.942h61.208c7.342-0.041,13.265-6.017,13.242-13.358V192.558
			c0.024-7.342-5.9-13.317-13.242-13.358H384c-1.852-0.002-3.655,0.601-5.133,1.717l-11.933,8.993v-44.843H384z M469.333,85.333
			c14.138,0,25.6,11.462,25.6,25.6s-11.462,25.6-25.6,25.6h-68.267v-51.2H469.333z M384,93.867V128h-17.067V93.867H384z
			 M349.867,25.6v290.133h-332.8V17.067h324.267C346.045,17.07,349.864,20.888,349.867,25.6z M247.467,486.4
			c0.005,2.302-0.942,4.504-2.617,6.083c-1.558,1.586-3.694,2.471-5.917,2.45H17.067v-17.067h221.867
			C243.645,477.87,247.464,481.689,247.467,486.4z M180.805,460.8H41.062c21.051-16.604,33.906-41.49,35.265-68.267h69.214
			C146.899,419.31,159.754,444.196,180.805,460.8z M341.333,375.467H17.067V332.8h332.8v34.133
			C349.864,371.645,346.045,375.464,341.333,375.467z M386.859,196.267h108.075v93.867h-51.2v-6.125
			c0.009-6.024-4.86-10.918-10.883-10.942h-37.967c-6.024,0.023-10.892,4.918-10.883,10.942v6.125h-17.067v-78.85L386.859,196.267z"
			/>
	</g>
</g>
<g>
</g>
<g>
</g>
<g>
</g>
<g>
</g>
<g>
</g>
<g>
</g>
<g>
</g>
<g>
</g>
<g>
</g>
<g>
</g>
<g>
</g>
<g>
</g>
<g>
</g>
<g>
</g>
<g>
</g>
</svg>
