<?xml version="1.0" encoding="iso-8859-1"?>
<!-- Generator: Adobe Illustrator 19.0.0, SVG Export Plug-In . SVG Version: 6.00 Build 0)  -->
<svg version="1.1" id="Capa_1" xmlns="http://www.w3.org/2000/svg" xmlns:xlink="http://www.w3.org/1999/xlink" x="0px" y="0px"
	 viewBox="0 0 512 512" style="enable-background:new 0 0 512 512;" xml:space="preserve">
<g>
	<g transform="translate(1 1)">
		<g>
			<rect x="50.2" y="314.733" style="fill:#3F51B5;" width="51.2" height="170.667"/>
			<rect x="408.6" y="314.733" style="fill:#3F51B5;" width="51.2" height="170.667"/>
		</g>
		<path style="fill:#283593;" d="M16.067,7.533h477.867c4.713,0,8.533,3.821,8.533,8.533v307.2c0,4.713-3.821,8.533-8.533,8.533
			H16.067c-4.713,0-8.533-3.82-8.533-8.533v-307.2C7.533,11.354,11.354,7.533,16.067,7.533z"/>
		<path style="fill:#3F51B5;" d="M16.067,7.533h452.267c4.713,0,8.533,3.821,8.533,8.533v307.2c0,4.713-3.821,8.533-8.533,8.533
			H16.067c-4.713,0-8.533-3.82-8.533-8.533v-307.2C7.533,11.354,11.354,7.533,16.067,7.533z"/>
		<path style="fill:#1566C0;" d="M502.467,16.067v25.6h-25.6v-25.6c-0.014-4.707-3.826-8.52-8.533-8.533h25.6
			C498.641,7.547,502.453,11.359,502.467,16.067z"/>
		<path style="fill:#2296F3;" d="M476.867,16.067v25.6H7.533v-25.6c0.014-4.707,3.826-8.52,8.533-8.533h452.267
			C473.041,7.547,476.853,11.359,476.867,16.067z"/>
		<rect x="144.067" y="41.667" style="fill:#3F51B5;" width="221.867" height="256"/>
		<path style="fill:#1566C0;" d="M502.467,297.667v25.6c-0.014,4.707-3.826,8.52-8.533,8.533h-25.6
			c4.707-0.014,8.52-3.826,8.533-8.533v-25.6H502.467z"/>
		<path style="fill:#2296F3;" d="M476.867,297.667v25.6c-0.014,4.707-3.826,8.52-8.533,8.533H16.067
			c-4.707-0.014-8.52-3.826-8.533-8.533v-25.6H476.867z"/>
		<circle style="fill:#283593;" cx="92.867" cy="118.467" r="17.067"/>
		<path style="fill:#7F8C8D;" d="M109.933,246.467H75.8c-4.713,0-8.533-3.82-8.533-8.533s3.821-8.533,8.533-8.533h34.133
			c4.713,0,8.533,3.821,8.533,8.533S114.646,246.467,109.933,246.467z"/>
		<circle style="fill:#283593;" cx="417.133" cy="118.467" r="17.067"/>
		<polygon style="fill:#00BCD4;" points="331.8,92.867 331.8,246.467 314.733,246.467 280.6,195.267 263.533,212.333 
			237.933,186.733 195.267,246.467 178.2,246.467 178.2,92.867 		"/>
		<polygon style="fill:#8BC34A;" points="314.733,246.467 195.267,246.467 237.933,186.733 263.533,212.333 280.6,195.267 		"/>
		<circle style="fill:#FFEB3A;" cx="280.6" cy="144.067" r="17.067"/>
		<g>
			<path style="fill:#2296F3;" d="M118.467,417.133c0,9.387-3.84,17.067-8.533,17.067H41.667c-4.693,0-8.533-7.68-8.533-17.067
				s3.84-17.067,8.533-17.067h68.267C114.627,400.067,118.467,407.746,118.467,417.133z"/>
			<path style="fill:#2296F3;" d="M476.867,417.133c0,9.387-3.84,17.067-8.533,17.067h-68.267c-4.693,0-8.533-7.68-8.533-17.067
				s3.84-17.067,8.533-17.067h68.267C473.027,400.067,476.867,407.746,476.867,417.133z"/>
		</g>
		<path style="fill:#1566C0;" d="M502.467,502.467H7.533c-0.013-9.057,3.58-17.746,9.984-24.15
			c6.404-6.404,15.093-9.996,24.15-9.984h426.667c9.053-0.002,17.737,3.593,24.139,9.995
			C498.874,484.73,502.469,493.413,502.467,502.467z"/>
		<path style="fill:#2296F3;" d="M476.867,502.467H7.533c-0.013-9.057,3.58-17.746,9.984-24.15
			c6.404-6.404,15.093-9.996,24.15-9.984h401.067C461.565,468.379,476.82,483.634,476.867,502.467z"/>
	</g>
	<g>
		<path d="M494.933,0H17.067C7.645,0.011,0.011,7.645,0,17.067v307.2c0.011,9.421,7.645,17.056,17.067,17.067h25.6v51.2
			c-9.887,0-17.067,10.767-17.067,25.6c0,14.833,7.179,25.6,17.067,25.6V460.8C19.114,460.828,0.028,479.914,0,503.467
			c-0.001,2.263,0.898,4.434,2.499,6.035c1.6,1.6,3.771,2.499,6.035,2.499h494.933c2.264,0.001,4.435-0.897,6.035-2.498
			c1.601-1.601,2.499-3.772,2.498-6.035c-0.028-23.553-19.114-42.639-42.667-42.667v-17.067c9.892,0,17.067-10.767,17.067-25.6
			c0-14.833-7.175-25.6-17.067-25.6v-51.2h25.6c9.421-0.012,17.054-7.646,17.067-17.067v-307.2
			C511.988,7.646,504.354,0.012,494.933,0z M153.6,290.133V51.2h204.8v238.933H153.6z M17.067,290.133V51.2h119.467v238.933H17.067z
			 M375.467,51.2h119.469l0.013,238.933H375.467V51.2z M494.934,17.067v17.067H17.067V17.067H494.934z M59.733,341.333h34.133v51.2
			H59.733V341.333z M401.067,341.333v51.2c-9.887,0-17.067,10.767-17.067,25.6c0,14.833,7.179,25.6,17.067,25.6V460.8H110.933
			v-17.067c9.887,0,17.067-10.767,17.067-25.6c0-14.833-7.179-25.6-17.067-25.6v-51.2H401.067z M44.429,409.6h64.742
			c2.35,5.446,2.35,11.62,0,17.067H44.429C42.079,421.22,42.079,415.046,44.429,409.6z M59.733,443.733h34.133V460.8H59.733V443.733
			z M493.475,494.933H18.529c3.627-10.221,13.292-17.054,24.137-17.067h426.667C480.179,477.88,489.845,484.713,493.475,494.933z
			 M452.267,460.8h-34.133v-17.067h34.133V460.8z M467.575,426.667h-64.75c-2.344-5.447-2.344-11.619,0-17.067h64.75
			C469.92,415.047,469.92,421.219,467.575,426.667z M452.267,392.533h-34.133v-51.2h34.133V392.533z M460.8,324.267H17.067V307.2
			H494.95v17.067H460.8z"/>
		<path d="M93.867,145.067c14.138,0,25.6-11.462,25.6-25.6s-11.462-25.6-25.6-25.6s-25.6,11.462-25.6,25.6
			C68.282,133.599,79.735,145.051,93.867,145.067z M93.867,110.933c4.713,0,8.533,3.821,8.533,8.533
			c0,4.713-3.821,8.533-8.533,8.533c-4.713,0-8.533-3.821-8.533-8.533C85.338,114.756,89.156,110.938,93.867,110.933z"/>
		<path d="M48.725,96.341c-0.816-0.771-1.772-1.379-2.817-1.792c-2.077-0.858-4.41-0.858-6.487,0
			c-1.033,0.433-1.984,1.039-2.813,1.792c-0.773,0.815-1.383,1.772-1.796,2.817c-0.906,2.066-0.906,4.417,0,6.483
			c0.435,1.034,1.042,1.987,1.795,2.817c0.829,0.753,1.78,1.359,2.813,1.792c2.067,0.911,4.421,0.911,6.487,0
			c1.034-0.433,1.987-1.039,2.817-1.792c0.751-0.832,1.357-1.784,1.792-2.817c0.911-2.065,0.911-4.418,0-6.483
			C50.104,98.114,49.496,97.158,48.725,96.341z"/>
		<path d="M45.908,128.683c-3.177-1.342-6.849-0.634-9.3,1.791c-1.559,1.635-2.443,3.799-2.475,6.059
			c-0.023,2.27,0.869,4.454,2.475,6.059c0.829,0.753,1.78,1.359,2.813,1.792c1.014,0.477,2.126,0.71,3.246,0.683
			c2.27,0.022,4.453-0.87,6.058-2.475c1.605-1.605,2.497-3.788,2.475-6.058c-0.033-2.259-0.917-4.422-2.475-6.059
			C47.895,129.722,46.942,129.116,45.908,128.683z"/>
		<path d="M42.667,162.133c-2.263-0.001-4.434,0.898-6.035,2.499c-1.6,1.6-2.499,3.771-2.499,6.035v68.267
			c0,4.713,3.821,8.533,8.533,8.533s8.533-3.82,8.533-8.533v-68.267c0.001-2.263-0.898-4.434-2.499-6.035
			C47.101,163.032,44.93,162.133,42.667,162.133z"/>
		<path d="M110.933,162.133H76.8c-4.713,0-8.533,3.821-8.533,8.533c0,4.713,3.821,8.533,8.533,8.533h34.133
			c4.713,0,8.533-3.821,8.533-8.533C119.467,165.954,115.646,162.133,110.933,162.133z"/>
		<path d="M110.933,196.267H76.8c-4.713,0-8.533,3.821-8.533,8.533c0,4.713,3.821,8.533,8.533,8.533h34.133
			c4.713,0,8.533-3.821,8.533-8.533C119.467,200.087,115.646,196.267,110.933,196.267z"/>
		<path d="M110.933,230.4H76.8c-4.713,0-8.533,3.821-8.533,8.533s3.821,8.533,8.533,8.533h34.133c4.713,0,8.533-3.82,8.533-8.533
			S115.646,230.4,110.933,230.4z"/>
		<path d="M418.133,93.867c-14.138,0-25.6,11.462-25.6,25.6s11.462,25.6,25.6,25.6c14.138,0,25.6-11.462,25.6-25.6
			C443.718,105.335,432.265,93.882,418.133,93.867z M418.133,128c-4.713,0-8.533-3.821-8.533-8.533c0-4.713,3.82-8.533,8.533-8.533
			s8.533,3.821,8.533,8.533C426.664,124.178,422.845,127.997,418.133,128z"/>
		<path d="M466.092,110.25c1.025,0.437,2.127,0.67,3.242,0.683c2.262-0.019,4.43-0.905,6.059-2.475
			c2.444-2.441,3.154-6.125,1.792-9.3c-0.412-1.045-1.02-2.001-1.792-2.817c-0.831-0.752-1.783-1.358-2.817-1.792
			c-2.076-0.858-4.407-0.858-6.483,0c-1.045,0.412-2.001,1.02-2.817,1.792c-1.561,1.634-2.445,3.798-2.475,6.058
			c-0.023,2.27,0.869,4.454,2.475,6.059C464.104,109.213,465.057,109.819,466.092,110.25z"/>
		<path d="M472.575,128.683c-1.556-0.684-3.286-0.865-4.95-0.517c-0.534,0.096-1.05,0.27-1.533,0.517
			c-0.546,0.184-1.065,0.442-1.542,0.767l-1.275,1.025c-0.772,0.816-1.38,1.772-1.792,2.817c-1.124,2.624-0.847,5.638,0.737,8.014
			c1.584,2.375,4.259,3.79,7.114,3.762c1.119,0.027,2.229-0.207,3.242-0.683c1.034-0.434,1.986-1.04,2.817-1.792
			c1.603-1.607,2.494-3.789,2.475-6.058c-0.033-2.259-0.917-4.422-2.475-6.059C474.575,129.705,473.619,129.097,472.575,128.683z"/>
		<path d="M469.333,162.133c-2.264-0.001-4.435,0.897-6.035,2.498c-1.601,1.601-2.499,3.772-2.498,6.035v68.267
			c0,4.713,3.821,8.533,8.533,8.533c4.713,0,8.533-3.82,8.533-8.533v-68.267c0.001-2.264-0.897-4.435-2.498-6.035
			C473.768,163.031,471.597,162.132,469.333,162.133z"/>
		<path d="M435.2,162.133h-34.133c-4.713,0-8.533,3.821-8.533,8.533c0,4.713,3.82,8.533,8.533,8.533H435.2
			c4.713,0,8.533-3.821,8.533-8.533C443.733,165.954,439.913,162.133,435.2,162.133z"/>
		<path d="M435.2,196.267h-34.133c-4.713,0-8.533,3.821-8.533,8.533c0,4.713,3.82,8.533,8.533,8.533H435.2
			c4.713,0,8.533-3.821,8.533-8.533C443.733,200.087,439.913,196.267,435.2,196.267z"/>
		<path d="M435.2,230.4h-34.133c-4.713,0-8.533,3.821-8.533,8.533s3.82,8.533,8.533,8.533H435.2c4.713,0,8.533-3.82,8.533-8.533
			S439.913,230.4,435.2,230.4z"/>
		<path d="M332.8,85.333H179.2c-2.263-0.001-4.434,0.898-6.035,2.499c-1.6,1.6-2.499,3.771-2.499,6.035v153.6
			c-0.001,2.263,0.898,4.434,2.499,6.035c1.6,1.6,3.771,2.499,6.035,2.499h153.6c2.263,0.001,4.434-0.898,6.035-2.499
			c1.6-1.6,2.499-3.771,2.499-6.035v-153.6c0.001-2.263-0.898-4.434-2.499-6.035C337.234,86.232,335.063,85.333,332.8,85.333z
			 M212.849,238.933l27.172-38.042l18.479,18.475c1.6,1.601,3.77,2.5,6.033,2.5s4.434-0.899,6.033-2.5l9.708-9.708l19.514,29.275
			H212.849z M324.267,238.933H320.3l-31.6-47.4c-1.418-2.127-3.715-3.506-6.258-3.758c-2.541-0.225-5.053,0.673-6.875,2.458
			l-11.033,11.033L244.966,181.7c-1.781-1.763-4.239-2.666-6.738-2.475c-2.501,0.209-4.783,1.508-6.242,3.55l-40.113,56.158h-4.141
			V102.4h136.533V238.933z"/>
		<path d="M281.6,170.667c14.138,0,25.6-11.462,25.6-25.6c0-14.139-11.462-25.6-25.6-25.6s-25.6,11.462-25.6,25.6
			C256.015,159.199,267.468,170.651,281.6,170.667z M281.6,136.533c4.713,0,8.533,3.821,8.533,8.533
			c0,4.713-3.821,8.533-8.533,8.533s-8.533-3.821-8.533-8.533C273.071,140.356,276.889,136.538,281.6,136.533z"/>
	</g>
</g>
<g>
</g>
<g>
</g>
<g>
</g>
<g>
</g>
<g>
</g>
<g>
</g>
<g>
</g>
<g>
</g>
<g>
</g>
<g>
</g>
<g>
</g>
<g>
</g>
<g>
</g>
<g>
</g>
<g>
</g>
</svg>
