<?xml version="1.0" encoding="iso-8859-1"?>
<!-- Generator: Adobe Illustrator 19.0.0, SVG Export Plug-In . SVG Version: 6.00 Build 0)  -->
<svg version="1.1" id="Capa_1" xmlns="http://www.w3.org/2000/svg" xmlns:xlink="http://www.w3.org/1999/xlink" x="0px" y="0px"
	 viewBox="0 0 512 512" style="enable-background:new 0 0 512 512;" xml:space="preserve">
<g>
	<g transform="translate(1 1)">
		<path style="fill:#00695C;" d="M84.333,7.533h341.333c14.138,0,25.6,11.462,25.6,25.6v443.733c0,14.138-11.462,25.6-25.6,25.6
			H84.333c-14.138,0-25.6-11.462-25.6-25.6V33.133C58.733,18.995,70.195,7.533,84.333,7.533z"/>
		<path style="fill:#009688;" d="M84.333,7.533h315.733c14.138,0,25.6,11.462,25.6,25.6v443.733c0,14.138-11.462,25.6-25.6,25.6
			H84.333c-14.138,0-25.6-11.462-25.6-25.6V33.133C58.733,18.995,70.195,7.533,84.333,7.533z"/>
		<path style="fill:#2E7D32;" d="M84.333,7.533h238.933c14.138,0,25.6,11.462,25.6,25.6v443.733c0,14.138-11.462,25.6-25.6,25.6
			H84.333c-14.138,0-25.6-11.462-25.6-25.6V33.133C58.733,18.995,70.195,7.533,84.333,7.533z"/>
		<path style="fill:#4CAF50;" d="M84.333,7.533h213.333c14.138,0,25.6,11.462,25.6,25.6v443.733c0,14.138-11.462,25.6-25.6,25.6
			H84.333c-14.138,0-25.6-11.462-25.6-25.6V33.133C58.733,18.995,70.195,7.533,84.333,7.533z"/>
		<rect x="92.867" y="195.267" style="fill:#FF5722;" width="110.933" height="170.667"/>
		<g>
			<rect x="203.8" y="195.267" style="fill:#CFD8DC;" width="110.933" height="170.667"/>
			<path style="fill:#CFD8DC;" d="M314.733,50.2v145.067H92.867V50.2c0.014-4.707,3.826-8.52,8.533-8.533h204.8
				C310.907,41.68,314.72,45.493,314.733,50.2z"/>
		</g>
		<g>
			<circle style="fill:#F5F5F5;" cx="237.933" cy="118.467" r="42.667"/>
			<circle style="fill:#F5F5F5;" cx="259.267" cy="276.333" r="21.333"/>
		</g>
		<polygon style="fill:#37474F;" points="127,127 161.133,127 161.133,152.6 144.067,161.133 127,152.6 		"/>
		<g>
			<rect x="92.867" y="365.933" style="fill:#FF5722;" width="221.867" height="34.133"/>
			<rect x="92.867" y="400.067" style="fill:#FF5722;" width="221.867" height="34.133"/>
			<path style="fill:#FF5722;" d="M314.733,434.2v25.6c-0.014,4.707-3.826,8.52-8.533,8.533H101.4
				c-4.707-0.014-8.52-3.826-8.533-8.533v-25.6H314.733z"/>
		</g>
	</g>
	<g>
		<path d="M324.267,512h102.4c18.843-0.02,34.113-15.29,34.133-34.133V34.133C460.78,15.29,445.51,0.02,426.667,0H332.8
			c-0.976,0.024-1.941,0.219-2.85,0.575c-1.875-0.351-3.776-0.544-5.683-0.575H85.333C66.49,0.02,51.22,15.29,51.2,34.133v443.733
			C51.22,496.71,66.49,511.98,85.333,512H324.267z M443.733,34.133v443.733c-0.011,9.421-7.645,17.056-17.067,17.067h-73.014
			c3.074-5.164,4.713-11.056,4.747-17.067V34.133c-0.034-6.01-1.673-11.902-4.747-17.067h73.014
			C436.088,17.077,443.723,24.712,443.733,34.133z M68.267,477.867V34.133c0.011-9.421,7.645-17.056,17.067-17.067h238.933
			c9.421,0.011,17.056,7.645,17.067,17.067v443.733c-0.011,9.421-7.645,17.056-17.067,17.067H85.333
			C75.912,494.923,68.277,487.288,68.267,477.867z"/>
		<path d="M238.933,170.667c28.277,0,51.2-22.923,51.2-51.2s-22.923-51.2-51.2-51.2s-51.2,22.923-51.2,51.2
			C187.764,147.731,210.669,170.636,238.933,170.667z M238.933,85.333c18.851,0,34.133,15.282,34.133,34.133
			S257.785,153.6,238.933,153.6S204.8,138.318,204.8,119.467C204.82,100.624,220.09,85.353,238.933,85.333z"/>
		<path d="M260.267,247.467c-16.495,0-29.867,13.372-29.867,29.867s13.372,29.867,29.867,29.867s29.867-13.372,29.867-29.867
			C290.113,260.847,276.753,247.487,260.267,247.467z M260.267,290.133c-7.069,0-12.8-5.731-12.8-12.8s5.731-12.8,12.8-12.8
			c7.069,0,12.8,5.731,12.8,12.8C273.059,284.399,267.333,290.126,260.267,290.133z"/>
		<path d="M124.183,161.233l17.067,8.533c2.403,1.2,5.23,1.2,7.633,0l17.067-8.533c2.89-1.446,4.716-4.401,4.717-7.633V128
			c0.001-2.263-0.898-4.434-2.499-6.035s-3.771-2.499-6.035-2.499H128c-2.263-0.001-4.434,0.898-6.035,2.499
			s-2.499,3.771-2.499,6.035v25.6C119.467,156.832,121.293,159.787,124.183,161.233z M136.533,136.533H153.6v11.792l-8.533,4.267
			l-8.533-4.267V136.533z"/>
		<path d="M136.533,93.867H153.6c4.713,0,8.533-3.821,8.533-8.533S158.313,76.8,153.6,76.8h-17.067
			c-4.713,0-8.533,3.821-8.533,8.533S131.821,93.867,136.533,93.867z"/>
		<path d="M93.867,477.867h221.867c2.263,0.001,4.434-0.898,6.035-2.499s2.499-3.771,2.499-6.035V51.2
			c-0.011-9.421-7.645-17.056-17.067-17.067H102.4c-9.421,0.011-17.056,7.645-17.067,17.067v418.133
			c-0.001,2.263,0.898,4.434,2.499,6.035C89.432,476.968,91.603,477.867,93.867,477.867z M102.4,460.8v-17.067h204.8V460.8H102.4z
			 M102.4,409.6h204.8v17.067H102.4V409.6z M102.4,375.467h204.8v17.067H102.4V375.467z M284.1,227.9c1.6,1.601,3.77,2.5,6.033,2.5
			s4.433-0.899,6.033-2.5l11.033-11.033v129.467L296.166,335.3c-3.338-3.296-8.711-3.279-12.029,0.038
			c-3.317,3.317-3.334,8.691-0.038,12.029l11.033,11.034H225.4l11.034-11.034c3.296-3.338,3.279-8.711-0.038-12.029
			c-3.317-3.317-8.691-3.334-12.029-0.038l-11.034,11.033V216.867l11.034,11.034c3.338,3.296,8.711,3.279,12.029-0.038
			c3.317-3.317,3.334-8.691,0.038-12.029L225.4,204.8h69.733L284.1,215.834c-1.6,1.6-2.5,3.77-2.5,6.033
			C281.6,224.13,282.5,226.3,284.1,227.9z M196.267,358.4H102.4V204.8h93.867V358.4z M307.2,51.2v136.533H102.4V51.2H307.2z"/>
		<path d="M121.941,236.375c1.616,1.599,3.786,2.515,6.059,2.558c2.288,0.028,4.484-0.899,6.059-2.558
			c0.767-0.788,1.376-1.716,1.792-2.733c0.911-2.065,0.911-4.418,0-6.483c-0.433-1.034-1.039-1.986-1.792-2.817
			c-3.421-3.158-8.695-3.158-12.117,0c-0.755,0.829-1.363,1.782-1.796,2.817c-0.436,1.026-0.667,2.127-0.68,3.242
			c-0.029,1.119,0.204,2.229,0.679,3.242C120.562,234.66,121.172,235.589,121.941,236.375z"/>
		<path d="M162.133,238.933c2.855,0.03,5.532-1.385,7.115-3.761c1.584-2.376,1.86-5.39,0.735-8.014
			c-0.433-1.034-1.039-1.986-1.792-2.817c-3.421-3.158-8.695-3.158-12.117,0c-0.755,0.829-1.363,1.782-1.796,2.817
			c-0.436,1.026-0.667,2.127-0.679,3.242c-0.038,2.248,0.858,4.412,2.475,5.975C157.65,238.034,159.846,238.962,162.133,238.933z"/>
		<path d="M128,290.133c2.263,0.001,4.434-0.898,6.035-2.499c1.6-1.6,2.499-3.771,2.499-6.035c4.713,0,8.533-3.82,8.533-8.533
			s-3.821-8.533-8.533-8.533c0-4.713-3.82-8.533-8.533-8.533c-4.713,0-8.533,3.821-8.533,8.533V281.6
			c-0.001,2.263,0.898,4.434,2.499,6.035C123.566,289.235,125.737,290.134,128,290.133z"/>
		<path d="M128,341.333c2.263,0.001,4.434-0.898,6.035-2.499c1.6-1.6,2.499-3.771,2.499-6.035v-17.067
			c0-4.713-3.821-8.533-8.533-8.533s-8.533,3.821-8.533,8.533V332.8c-0.001,2.263,0.898,4.434,2.499,6.035
			C123.566,340.435,125.737,341.334,128,341.333z"/>
		<path d="M162.133,341.333c2.263,0.001,4.434-0.898,6.035-2.499c1.6-1.6,2.499-3.771,2.499-6.035v-17.067
			c0-4.713-3.821-8.533-8.533-8.533c-4.713,0-8.533,3.821-8.533,8.533V332.8c-0.001,2.263,0.898,4.434,2.499,6.035
			C157.699,340.435,159.87,341.334,162.133,341.333z"/>
	</g>
</g>
<g>
</g>
<g>
</g>
<g>
</g>
<g>
</g>
<g>
</g>
<g>
</g>
<g>
</g>
<g>
</g>
<g>
</g>
<g>
</g>
<g>
</g>
<g>
</g>
<g>
</g>
<g>
</g>
<g>
</g>
</svg>
