<?xml version="1.0" encoding="iso-8859-1"?>
<!-- Generator: Adobe Illustrator 19.0.0, SVG Export Plug-In . SVG Version: 6.00 Build 0)  -->
<svg version="1.1" id="Capa_1" xmlns="http://www.w3.org/2000/svg" xmlns:xlink="http://www.w3.org/1999/xlink" x="0px" y="0px"
	 viewBox="0 0 512 512" style="enable-background:new 0 0 512 512;" xml:space="preserve">
<g>
	<g transform="translate(1 1)">
		<path style="fill:#607D8B;" d="M357.4,24.6v341.333c-0.028,9.414-7.653,17.039-17.067,17.067H152.6
			c-1.098,38.509,23.175,73.185,59.733,85.333h25.6c9.414,0.027,17.039,7.652,17.067,17.067c-0.069,9.397-7.67,16.998-17.067,17.067
			H7.533v-34.133C44.092,456.185,68.365,421.509,67.267,383H7.533V7.533h332.8C349.748,7.561,357.373,15.186,357.4,24.6z"/>
		<path style="fill:#CFD8DC;" d="M331.8,24.6v341.333c-0.028,9.414-7.652,17.039-17.067,17.067H127
			c-1.098,38.509,23.175,73.185,59.733,85.333h25.6c9.414,0.027,17.039,7.652,17.067,17.067c-0.069,9.397-7.67,16.998-17.067,17.067
			H7.533v-34.133C44.092,456.185,68.365,421.509,67.267,383H7.533V7.533h307.2C324.148,7.561,331.773,15.186,331.8,24.6z"/>
		<path id="SVGCleanerId_0" style="fill:#CFD8DC;" d="M186.733,468.333H7.533C44.092,456.185,68.365,421.509,67.267,383H127
			C125.902,421.509,150.175,456.185,186.733,468.333z"/>
		<path style="fill:#00838F;" d="M502.467,169.667c-0.026,70.682-57.318,127.974-128,128c-4.191,0.033-8.381-0.196-12.544-0.683
			h-0.171c-1.451-0.085-2.901-0.255-4.352-0.426V169.667c0.097,9.385,7.681,16.97,17.067,17.067c9.426,0,17.067-7.641,17.067-17.067
			c0-9.426-7.641-17.067-17.067-17.067c-9.087,0.106-16.542,7.226-17.067,16.298V42.776c1.451-0.171,2.901-0.341,4.352-0.427h0.171
			c4.163-0.487,8.353-0.715,12.544-0.683C445.149,41.692,502.441,98.985,502.467,169.667z"/>
		<path style="fill:#00BCD4;" d="M476.867,169.667c-0.054,65.613-49.677,120.578-114.944,127.317h-0.171
			c-1.451-0.085-2.901-0.255-4.352-0.426V184.429c1.625-0.93,3.07-2.143,4.267-3.583c3.203,3.737,7.879,5.887,12.8,5.887
			c9.426,0,17.067-7.641,17.067-17.067c0-9.426-7.641-17.067-17.067-17.067c-4.921,0-9.597,2.151-12.8,5.887
			c-1.197-1.44-2.642-2.654-4.267-3.583V42.776c1.451-0.171,2.901-0.341,4.352-0.427h0.171
			C427.189,49.088,476.812,104.053,476.867,169.667z"/>
		<path style="fill:#CFD8DC;" d="M425.667,169.667c-0.022,28.268-22.932,51.178-51.2,51.2c-5.82,0.015-11.598-0.996-17.067-2.988
			v-48.212c0,9.426,7.641,17.067,17.067,17.067c9.426,0,17.067-7.641,17.067-17.067c0-9.426-7.641-17.067-17.067-17.067
			c-9.414,0.028-17.039,7.653-17.067,17.067v-48.213c5.469-1.991,11.246-3.002,17.067-2.987
			C402.734,118.489,425.645,141.399,425.667,169.667z"/>
		<path style="fill:#6A1B9A;" d="M357.4,24.6v298.667H7.533V7.533h332.8C349.748,7.561,357.373,15.186,357.4,24.6z"/>
		<path style="fill:#9D27B0;" d="M331.8,24.6v298.667H7.533V7.533h307.2C324.148,7.561,331.773,15.186,331.8,24.6z"/>
		<path style="fill:#607D8B;" d="M212.333,468.333H7.533C44.092,456.185,68.365,421.509,67.267,383H152.6
			C151.502,421.509,175.775,456.185,212.333,468.333z"/>
		<g>
			<path id="SVGCleanerId_0_1_" style="fill:#CFD8DC;" d="M186.733,468.333H7.533C44.092,456.185,68.365,421.509,67.267,383H127
				C125.902,421.509,150.175,456.185,186.733,468.333z"/>
		</g>
	</g>
	<g>
		<path d="M318.234,99.9c2.149,2.188,5.307,3.055,8.271,2.27c2.965-0.785,5.28-3.1,6.065-6.065c0.785-2.965-0.082-6.122-2.27-8.271
			l-25.6-25.6c-3.341-3.281-8.701-3.256-12.012,0.054s-3.335,8.671-0.054,12.012L318.234,99.9z"/>
		<path d="M267.008,48.725c2.441,2.444,6.125,3.154,9.3,1.792c1.034-0.433,1.987-1.039,2.817-1.792
			c1.604-1.606,2.496-3.789,2.475-6.059c0.029-1.119-0.205-2.229-0.683-3.242c-0.433-1.034-1.039-1.986-1.791-2.817
			c-0.816-0.771-1.772-1.379-2.817-1.792c-3.177-1.342-6.85-0.634-9.301,1.792c-0.773,0.815-1.383,1.772-1.796,2.817
			c-0.906,2.066-0.906,4.417,0,6.483C265.647,46.942,266.254,47.895,267.008,48.725z"/>
		<path d="M215.834,48.7l93.867,93.867c2.149,2.188,5.307,3.055,8.271,2.27c2.965-0.785,5.28-3.1,6.065-6.065
			c0.785-2.965-0.082-6.122-2.27-8.271L227.9,36.634c-3.341-3.281-8.701-3.256-12.012,0.054
			C212.577,39.999,212.553,45.359,215.834,48.7z"/>
		<path d="M375.467,34.133c-2.841,0-5.691,0.105-8.533,0.28V25.6c-0.015-14.132-11.468-25.585-25.6-25.6H8.533
			C6.27-0.001,4.099,0.898,2.499,2.499S-0.001,6.27,0,8.533v374.4c0,0.19,0.096,0.348,0.108,0.533C0.096,383.652,0,383.81,0,384
			c-0.001,2.263,0.898,4.434,2.499,6.035c1.6,1.6,3.771,2.499,6.035,2.499H59.28c-2.209,31.501-23.169,58.573-53.114,68.6
			c-0.169,0.049-0.286,0.177-0.45,0.235c-0.549,0.215-1.074,0.488-1.564,0.815c-0.45,0.247-0.876,0.534-1.274,0.858
			c-0.394,0.386-0.748,0.809-1.059,1.265c-0.336,0.409-0.633,0.849-0.886,1.314c-0.209,0.483-0.372,0.985-0.487,1.499
			c-0.175,0.555-0.29,1.127-0.344,1.707C0.092,469.002,0,469.153,0,469.333v34.133c-0.001,2.263,0.898,4.434,2.499,6.035
			c1.6,1.6,3.771,2.499,6.035,2.499h230.4c14.113-0.062,25.538-11.487,25.6-25.6c-0.015-14.132-11.468-25.585-25.6-25.6h-24.271
			c-29.448-10.295-49.93-37.145-52.075-68.267h178.746c14.132-0.015,25.585-11.468,25.6-25.6V306.92
			c2.842,0.175,5.692,0.28,8.533,0.28c48.779,0,93.852-26.023,118.241-68.267c24.389-42.244,24.389-94.29,0-136.533
			C469.319,60.156,424.245,34.133,375.467,34.133z M366.933,194.694c2.733,1.012,5.62,1.544,8.533,1.573
			c14.138,0,25.6-11.462,25.6-25.6c0-14.138-11.462-25.6-25.6-25.6c-2.914,0.029-5.801,0.561-8.533,1.573v-17.669
			c2.803-0.618,5.663-0.943,8.533-0.971c23.564,0,42.667,19.103,42.667,42.667s-19.103,42.667-42.667,42.667
			c-2.87-0.028-5.73-0.353-8.533-0.971V194.694z M366.933,170.667c0-4.713,3.821-8.533,8.533-8.533c4.713,0,8.533,3.821,8.533,8.533
			c0,4.713-3.821,8.533-8.533,8.533C370.756,179.195,366.938,175.378,366.933,170.667z M349.867,25.6v290.133h-332.8V17.067h324.267
			C346.044,17.071,349.862,20.889,349.867,25.6z M247.467,486.4c0.006,2.301-0.939,4.503-2.612,6.083
			c-1.56,1.586-3.697,2.47-5.921,2.45H17.067v-17.067h221.867C243.644,477.871,247.462,481.689,247.467,486.4z M180.802,460.8
			H41.065c21.05-16.605,33.904-41.49,35.262-68.267h69.214C146.898,419.31,159.752,444.195,180.802,460.8z M341.333,375.467H17.067
			V332.8h332.8v34.133C349.862,371.644,346.044,375.462,341.333,375.467z M375.467,290.133c-2.843,0-5.693-0.117-8.533-0.315
			v-60.154c2.823,0.452,5.675,0.697,8.533,0.735c32.99,0,59.733-26.744,59.733-59.733s-26.743-59.733-59.733-59.733
			c-2.858,0.038-5.71,0.284-8.533,0.735V51.515c2.841-0.198,5.691-0.315,8.533-0.315c65.98,0,119.467,53.487,119.467,119.467
			S441.446,290.133,375.467,290.133z"/>
		<path d="M459.387,155.15c0.941,5.119,1.414,10.312,1.413,15.517c0,4.713,3.821,8.533,8.533,8.533c4.713,0,8.533-3.821,8.533-8.533
			c0.001-6.244-0.567-12.475-1.696-18.617c-0.554-2.998-2.665-5.473-5.538-6.492c-2.873-1.019-6.072-0.429-8.392,1.55
			C459.921,149.086,458.834,152.152,459.387,155.15z"/>
		<path d="M394.079,69.967c-4.627-0.838-9.06,2.226-9.912,6.851c-0.852,4.625,2.198,9.067,6.821,9.933
			c22.972,4.316,43.188,17.818,55.975,37.383c2.584,3.93,7.86,5.03,11.798,2.458c3.938-2.572,5.053-7.845,2.493-11.791
			C445.904,91.33,421.643,75.138,394.079,69.967z"/>
	</g>
</g>
<g>
</g>
<g>
</g>
<g>
</g>
<g>
</g>
<g>
</g>
<g>
</g>
<g>
</g>
<g>
</g>
<g>
</g>
<g>
</g>
<g>
</g>
<g>
</g>
<g>
</g>
<g>
</g>
<g>
</g>
</svg>
