<?xml version="1.0" encoding="iso-8859-1"?>
<!-- Generator: Adobe Illustrator 19.0.0, SVG Export Plug-In . SVG Version: 6.00 Build 0)  -->
<svg version="1.1" id="Capa_1" xmlns="http://www.w3.org/2000/svg" xmlns:xlink="http://www.w3.org/1999/xlink" x="0px" y="0px"
	 viewBox="0 0 512 512" style="enable-background:new 0 0 512 512;" xml:space="preserve">
<g>
	<g transform="translate(1 1)">
		<polygon style="fill:#1566C0;" points="502.467,195.267 502.467,502.467 7.533,502.467 7.533,195.267 50.2,7.533 459.8,7.533 		
			"/>
		<polygon style="fill:#2296F3;" points="476.867,195.267 476.867,502.467 7.533,502.467 7.533,195.267 50.2,7.533 434.2,7.533 		
			"/>
		<rect x="41.667" y="297.667" style="fill:#02A9F4;" width="418.133" height="102.4"/>
		<rect x="459.8" y="400.067" style="fill:#0377BC;" width="42.667" height="102.4"/>
		<rect x="41.667" y="400.067" style="fill:#02A9F4;" width="418.133" height="102.4"/>
		<rect x="7.533" y="400.067" style="fill:#0377BC;" width="34.133" height="102.4"/>
		<circle style="fill:#FFEB3A;" cx="92.867" cy="451.267" r="17.067"/>
		<g>
			<rect x="7.533" y="297.667" style="fill:#0377BC;" width="34.133" height="102.4"/>
			<rect x="459.8" y="297.667" style="fill:#0377BC;" width="42.667" height="102.4"/>
		</g>
		<circle style="fill:#FFEB3A;" cx="92.867" cy="348.867" r="17.067"/>
		<rect x="459.8" y="195.267" style="fill:#0377BC;" width="42.667" height="102.4"/>
		<rect x="41.667" y="195.267" style="fill:#02A9F4;" width="418.133" height="102.4"/>
		<rect x="7.533" y="195.267" style="fill:#0377BC;" width="34.133" height="102.4"/>
		<circle style="fill:#FFEB3A;" cx="92.867" cy="246.467" r="17.067"/>
		<path style="fill:#607D8B;" d="M365.933,7.533V101.4c0,33.024-51.541,59.733-115.2,59.733s-115.2-26.709-115.2-59.733
			s51.541-59.733,115.2-59.733c24.788-0.351,49.404,4.172,72.448,13.312h0.085L331.8,7.533H365.933z"/>
		<ellipse style="fill:#CFD8DC;" cx="250.733" cy="101.4" rx="64" ry="25.6"/>
	</g>
	<g>
		<path d="M93.867,426.667c-14.138,0-25.6,11.462-25.6,25.6s11.462,25.6,25.6,25.6s25.6-11.462,25.6-25.6
			C119.451,438.135,107.999,426.682,93.867,426.667z M93.867,460.8c-4.713,0-8.533-3.82-8.533-8.533s3.821-8.533,8.533-8.533
			c4.713,0,8.533,3.82,8.533,8.533C102.395,456.978,98.578,460.795,93.867,460.8z"/>
		<path d="M221.867,426.667c-2.263-0.001-4.434,0.898-6.035,2.499c-1.6,1.6-2.499,3.771-2.499,6.035v34.133
			c0,4.713,3.821,8.533,8.533,8.533c4.713,0,8.533-3.821,8.533-8.533V435.2c0.001-2.263-0.898-4.434-2.499-6.035
			C226.301,427.565,224.13,426.666,221.867,426.667z"/>
		<path d="M256,426.667c-2.263-0.001-4.434,0.898-6.035,2.499c-1.6,1.6-2.499,3.771-2.499,6.035v34.133
			c0,4.713,3.821,8.533,8.533,8.533c4.713,0,8.533-3.821,8.533-8.533V435.2c0.001-2.263-0.898-4.434-2.499-6.035
			C260.434,427.565,258.263,426.666,256,426.667z"/>
		<path d="M290.133,426.667c-2.263-0.001-4.434,0.898-6.035,2.499c-1.6,1.6-2.499,3.771-2.499,6.035v34.133
			c0,4.713,3.821,8.533,8.533,8.533c4.713,0,8.533-3.821,8.533-8.533V435.2c0.001-2.263-0.898-4.434-2.499-6.035
			C294.568,427.565,292.397,426.666,290.133,426.667z"/>
		<path d="M324.267,426.667c-2.263-0.001-4.434,0.898-6.035,2.499c-1.6,1.6-2.499,3.771-2.499,6.035v34.133
			c0,4.713,3.821,8.533,8.533,8.533s8.533-3.821,8.533-8.533V435.2c0.001-2.263-0.898-4.434-2.499-6.035
			C328.701,427.565,326.53,426.666,324.267,426.667z"/>
		<path d="M358.4,426.667c-2.263-0.001-4.434,0.898-6.035,2.499c-1.6,1.6-2.499,3.771-2.499,6.035v34.133
			c0,4.713,3.82,8.533,8.533,8.533s8.533-3.821,8.533-8.533V435.2c0.001-2.263-0.898-4.434-2.499-6.035
			C362.834,427.565,360.663,426.666,358.4,426.667z"/>
		<path d="M93.867,324.267c-14.138,0-25.6,11.462-25.6,25.6c0,14.138,11.462,25.6,25.6,25.6s25.6-11.462,25.6-25.6
			C119.451,335.735,107.999,324.282,93.867,324.267z M93.867,358.4c-4.713,0-8.533-3.821-8.533-8.533
			c0-4.713,3.821-8.533,8.533-8.533c4.713,0,8.533,3.821,8.533,8.533C102.395,354.578,98.578,358.395,93.867,358.4z"/>
		<path d="M221.867,324.267c-2.263-0.001-4.434,0.898-6.035,2.499c-1.6,1.6-2.499,3.771-2.499,6.035v34.133
			c0,4.713,3.821,8.533,8.533,8.533c4.713,0,8.533-3.82,8.533-8.533V332.8c0.001-2.263-0.898-4.434-2.499-6.035
			C226.301,325.165,224.13,324.266,221.867,324.267z"/>
		<path d="M256,324.267c-2.263-0.001-4.434,0.898-6.035,2.499c-1.6,1.6-2.499,3.771-2.499,6.035v34.133
			c0,4.713,3.821,8.533,8.533,8.533c4.713,0,8.533-3.82,8.533-8.533V332.8c0.001-2.263-0.898-4.434-2.499-6.035
			C260.434,325.165,258.263,324.266,256,324.267z"/>
		<path d="M290.133,324.267c-2.263-0.001-4.434,0.898-6.035,2.499c-1.6,1.6-2.499,3.771-2.499,6.035v34.133
			c0,4.713,3.821,8.533,8.533,8.533c4.713,0,8.533-3.82,8.533-8.533V332.8c0.001-2.263-0.898-4.434-2.499-6.035
			C294.568,325.165,292.397,324.266,290.133,324.267z"/>
		<path d="M324.267,324.267c-2.263-0.001-4.434,0.898-6.035,2.499c-1.6,1.6-2.499,3.771-2.499,6.035v34.133
			c0,4.713,3.821,8.533,8.533,8.533s8.533-3.82,8.533-8.533V332.8c0.001-2.263-0.898-4.434-2.499-6.035
			C328.701,325.165,326.53,324.266,324.267,324.267z"/>
		<path d="M358.4,324.267c-2.263-0.001-4.434,0.898-6.035,2.499c-1.6,1.6-2.499,3.771-2.499,6.035v34.133
			c0,4.713,3.82,8.533,8.533,8.533s8.533-3.82,8.533-8.533V332.8c0.001-2.263-0.898-4.434-2.499-6.035
			C362.834,325.165,360.663,324.266,358.4,324.267z"/>
		<path d="M93.867,273.067c14.138,0,25.6-11.462,25.6-25.6s-11.462-25.6-25.6-25.6s-25.6,11.462-25.6,25.6
			C68.282,261.599,79.735,273.051,93.867,273.067z M93.867,238.933c4.713,0,8.533,3.821,8.533,8.533
			c0,4.713-3.821,8.533-8.533,8.533c-4.713,0-8.533-3.82-8.533-8.533C85.338,242.756,89.156,238.938,93.867,238.933z"/>
		<path d="M221.867,273.067c2.263,0.001,4.434-0.898,6.035-2.499c1.6-1.6,2.499-3.771,2.499-6.035V230.4
			c0-4.713-3.821-8.533-8.533-8.533c-4.713,0-8.533,3.82-8.533,8.533v34.133c-0.001,2.263,0.898,4.434,2.499,6.035
			C217.432,272.168,219.603,273.067,221.867,273.067z"/>
		<path d="M256,273.067c2.263,0.001,4.434-0.898,6.035-2.499c1.6-1.6,2.499-3.771,2.499-6.035V230.4
			c0-4.713-3.821-8.533-8.533-8.533c-4.713,0-8.533,3.82-8.533,8.533v34.133c-0.001,2.263,0.898,4.434,2.499,6.035
			C251.566,272.168,253.737,273.067,256,273.067z"/>
		<path d="M290.133,273.067c2.263,0.001,4.434-0.898,6.035-2.499c1.6-1.6,2.499-3.771,2.499-6.035V230.4
			c0-4.713-3.821-8.533-8.533-8.533c-4.713,0-8.533,3.82-8.533,8.533v34.133c-0.001,2.263,0.898,4.434,2.499,6.035
			C285.699,272.168,287.87,273.067,290.133,273.067z"/>
		<path d="M324.267,273.067c2.263,0.001,4.434-0.898,6.035-2.499c1.6-1.6,2.499-3.771,2.499-6.035V230.4
			c0-4.713-3.82-8.533-8.533-8.533s-8.533,3.82-8.533,8.533v34.133c-0.001,2.263,0.898,4.434,2.499,6.035
			C319.832,272.168,322.003,273.067,324.267,273.067z"/>
		<path d="M358.4,273.067c2.263,0.001,4.434-0.898,6.035-2.499c1.6-1.6,2.499-3.771,2.499-6.035V230.4
			c0-4.713-3.82-8.533-8.533-8.533s-8.533,3.82-8.533,8.533v34.133c-0.001,2.263,0.898,4.434,2.499,6.035
			C353.966,272.168,356.137,273.067,358.4,273.067z"/>
		<path d="M511.788,194.375L469.121,6.642C468.237,2.757,464.784,0.001,460.8,0H51.2c-3.984,0.001-7.437,2.757-8.321,6.642
			L0.212,194.375c-0.027,0.317-0.035,0.636-0.023,0.954c-0.082,0.308-0.145,0.621-0.189,0.937v307.2
			c-0.001,2.263,0.898,4.434,2.499,6.035c1.6,1.6,3.771,2.499,6.035,2.499h494.933c2.263,0.001,4.434-0.898,6.035-2.499
			c1.6-1.6,2.499-3.771,2.499-6.035v-307.2c-0.044-0.316-0.107-0.629-0.189-0.937C511.822,195.011,511.814,194.692,511.788,194.375z
			 M452.267,204.8v85.333H51.2V204.8H452.267z M494.933,204.8v85.333h-25.6V204.8H494.933z M51.2,307.2h401.067v85.333H51.2V307.2z
			 M34.133,290.133H17.067V204.8h17.067V290.133z M17.067,307.2h17.067v85.333H17.067V307.2z M51.2,409.6h401.067v85.333H51.2V409.6
			z M469.333,307.2h25.6v85.333h-25.6V307.2z M358.4,102.4c0,27.75-48.846,51.2-106.667,51.2s-106.667-23.45-106.667-51.2
			s48.846-51.2,106.667-51.2c23.645-0.306,47.124,3.985,69.133,12.633c0.353,0.098,0.712,0.171,1.075,0.22
			c0.265,0.122,0.536,0.229,0.812,0.322c0.441,0.074,0.888,0.113,1.335,0.117l0.141,0.012l0.045,0.004
			c1.061-0.009,2.11-0.219,3.093-0.619c0.062-0.025,0.112-0.072,0.173-0.098c0.925-0.393,1.774-0.947,2.505-1.638
			c0.093-0.087,0.159-0.198,0.248-0.29c0.683-0.701,1.238-1.516,1.639-2.408c0.028-0.062,0.085-0.1,0.112-0.165
			c0.042-0.1,0.023-0.204,0.061-0.304c0.235-0.482,0.423-0.986,0.559-1.504l7.27-40.417H358.4V102.4z M58.013,17.067h264.582
			l-4.956,27.554c-21.241-7.099-43.509-10.643-65.904-10.487C182.35,34.133,128,64.117,128,102.4s54.35,68.267,123.733,68.267
			s123.733-29.983,123.733-68.267V17.067h78.521l38.789,170.667H19.223L58.013,17.067z M17.067,409.6h17.067v85.333H17.067V409.6z
			 M494.933,494.933h-25.6V409.6h25.6V494.933z"/>
		<path d="M51.2,170.667c1.119,0.027,2.229-0.207,3.242-0.683c1.034-0.432,1.987-1.038,2.817-1.791
			c1.604-1.606,2.496-3.789,2.475-6.059c-0.033-2.259-0.917-4.422-2.475-6.059c-0.83-0.753-1.783-1.359-2.817-1.792
			c-3.177-1.342-6.85-0.634-9.301,1.792c-1.559,1.635-2.443,3.799-2.475,6.059c-0.022,2.27,0.87,4.453,2.475,6.058
			S48.93,170.689,51.2,170.667z"/>
		<path d="M70.741,48.725c0.829,0.753,1.78,1.359,2.813,1.792c2.067,0.911,4.421,0.911,6.487,0c1.034-0.433,1.987-1.039,2.817-1.792
			c1.604-1.606,2.496-3.789,2.475-6.059c0.029-1.119-0.205-2.229-0.683-3.242c-0.433-1.034-1.039-1.986-1.791-2.817
			c-0.816-0.771-1.772-1.379-2.817-1.792c-3.177-1.342-6.85-0.634-9.301,1.792c-0.755,0.829-1.363,1.782-1.796,2.817
			c-0.906,2.066-0.906,4.417,0,6.483C69.38,46.942,69.988,47.895,70.741,48.725z"/>
		<path d="M457.554,169.983c2.067,0.911,4.421,0.911,6.487,0c1.034-0.433,1.987-1.039,2.817-1.792
			c1.604-1.606,2.496-3.788,2.475-6.058c-0.033-2.259-0.917-4.422-2.475-6.059c-2.453-2.425-6.126-3.133-9.304-1.792
			c-1.033,0.433-1.984,1.039-2.813,1.792c-0.773,0.815-1.383,1.772-1.796,2.817c-1.357,3.176-0.646,6.858,1.795,9.301
			C455.57,168.945,456.521,169.551,457.554,169.983z"/>
		<path d="M431.954,50.517c2.067,0.911,4.421,0.911,6.487,0c1.034-0.432,1.987-1.038,2.817-1.791c2.444-2.441,3.154-6.125,1.792-9.3
			c-0.433-1.034-1.039-1.987-1.792-2.817c-2.05-2.002-4.956-2.866-7.767-2.308c-0.535,0.096-1.053,0.27-1.537,0.517
			c-0.543,0.185-1.059,0.443-1.533,0.767c-0.447,0.315-0.875,0.657-1.28,1.025c-0.755,0.829-1.363,1.782-1.796,2.817
			c-1.357,3.176-0.646,6.858,1.796,9.301C429.97,49.478,430.921,50.084,431.954,50.517z"/>
		<path d="M251.733,68.267c-36.046,0-72.533,11.725-72.533,34.133s36.488,34.133,72.533,34.133s72.533-11.725,72.533-34.133
			S287.779,68.267,251.733,68.267z M251.733,119.467c-36.596,0-55.467-11.967-55.467-17.067c0-5.1,18.871-17.067,55.467-17.067
			S307.2,97.3,307.2,102.4C307.2,107.5,288.329,119.467,251.733,119.467z"/>
	</g>
</g>
<g>
</g>
<g>
</g>
<g>
</g>
<g>
</g>
<g>
</g>
<g>
</g>
<g>
</g>
<g>
</g>
<g>
</g>
<g>
</g>
<g>
</g>
<g>
</g>
<g>
</g>
<g>
</g>
<g>
</g>
</svg>
