<?xml version="1.0" encoding="iso-8859-1"?>
<!-- Generator: Adobe Illustrator 19.0.0, SVG Export Plug-In . SVG Version: 6.00 Build 0)  -->
<svg version="1.1" id="Capa_1" xmlns="http://www.w3.org/2000/svg" xmlns:xlink="http://www.w3.org/1999/xlink" x="0px" y="0px"
	 viewBox="0 0 512 512" style="enable-background:new 0 0 512 512;" xml:space="preserve">
<g>
	<g transform="translate(1 1)">
		<rect x="127" y="408.6" style="fill:#9E9E9E;" width="256" height="68.267"/>
		<polyline style="fill:#C52828;" points="340.333,485.4 340.333,323.267 425.667,323.267 425.667,485.4 		"/>
		<polyline style="fill:#F44335;" points="340.333,485.4 340.333,323.267 400.067,323.267 400.067,485.4 		"/>
		<polyline style="fill:#C52828;" points="84.333,485.4 84.333,323.267 169.667,323.267 169.667,485.4 		"/>
		<g>
			<polyline style="fill:#F44335;" points="84.333,485.4 84.333,323.267 144.067,323.267 144.067,485.4 			"/>
			<path style="fill:#F44335;" d="M442.733,84.333V357.4c-0.014,4.707-3.826,8.52-8.533,8.533h-93.867
				c0-47.128-38.205-85.333-85.333-85.333s-85.333,38.205-85.333,85.333H75.8c-4.707-0.014-8.52-3.826-8.533-8.533V84.333H442.733z"
				/>
		</g>
		<path style="fill:#C52828;" d="M451.267,7.533v85.333c-0.014,4.707-3.826,8.52-8.533,8.533H67.267
			c-4.707-0.014-8.52-3.826-8.533-8.533V7.533H451.267z"/>
		<path style="fill:#F44335;" d="M425.667,7.533v85.333c-0.014,4.707-3.826,8.52-8.533,8.533H67.267
			c-4.707-0.014-8.52-3.826-8.533-8.533V7.533H425.667z"/>
		<g>
			<path style="fill:#C52828;" d="M41.667,442.733h153.6c4.713,0,8.533,3.82,8.533,8.533v42.667c0,4.713-3.821,8.533-8.533,8.533
				h-153.6c-4.713,0-8.533-3.821-8.533-8.533v-42.667C33.133,446.554,36.954,442.733,41.667,442.733z"/>
			<path style="fill:#C52828;" d="M314.733,442.733h153.6c4.713,0,8.533,3.82,8.533,8.533v42.667c0,4.713-3.821,8.533-8.533,8.533
				h-153.6c-4.713,0-8.533-3.821-8.533-8.533v-42.667C306.2,446.554,310.021,442.733,314.733,442.733z"/>
		</g>
		<g>
			<path style="fill:#F44335;" d="M41.667,442.733h128c4.713,0,8.533,3.82,8.533,8.533v42.667c0,4.713-3.821,8.533-8.533,8.533h-128
				c-4.713,0-8.533-3.821-8.533-8.533v-42.667C33.133,446.554,36.954,442.733,41.667,442.733z"/>
			<path style="fill:#F44335;" d="M314.733,442.733h128c4.713,0,8.533,3.82,8.533,8.533v42.667c0,4.713-3.82,8.533-8.533,8.533h-128
				c-4.713,0-8.533-3.821-8.533-8.533v-42.667C306.2,446.554,310.021,442.733,314.733,442.733z"/>
		</g>
		<path style="fill:#C52828;" d="M442.733,101.4v256.517c-0.16,4.562-3.97,8.141-8.533,8.016h-25.6
			c4.563,0.125,8.373-3.454,8.533-8.016V101.4H442.733z"/>
	</g>
	<path d="M469.333,435.2H435.2v-59.733c9.421-0.012,17.054-7.646,17.067-17.067V108.558c5.261-3.025,8.513-8.623,8.533-14.692V8.533
		c0.001-2.264-0.897-4.435-2.498-6.035c-1.601-1.601-3.772-2.499-6.035-2.498H59.733c-2.264-0.001-4.435,0.897-6.035,2.498
		S51.199,6.27,51.2,8.533v85.333c0.021,6.069,3.272,11.667,8.533,14.692V358.4c0.012,9.421,7.646,17.054,17.067,17.067V435.2H42.667
		c-9.421,0.012-17.054,7.646-17.067,17.067v42.667c0.012,9.421,7.646,17.054,17.067,17.067h153.6
		c9.421-0.012,17.054-7.646,17.067-17.067V486.4h85.333v8.533c0.012,9.421,7.646,17.054,17.067,17.067h153.6
		c9.421-0.012,17.054-7.646,17.067-17.067v-42.667C486.388,442.846,478.754,435.212,469.333,435.2z M418.133,435.2h-68.267v-59.733
		h68.267V435.2z M179.2,366.933c0-42.415,34.385-76.8,76.8-76.8s76.8,34.385,76.8,76.8v34.133H179.2V366.933z M426.667,358.4
		h-77.232c-4.389-48.328-44.908-85.334-93.434-85.334s-89.045,37.006-93.434,85.334H76.8V110.933h358.4V358.4H426.667z
		 M68.267,17.067h375.467v76.8H68.267V17.067z M93.867,375.467h68.267V435.2H93.867V375.467z M42.667,494.933v-42.667h153.6
		l0.01,25.55l-0.01,0.05l0.01,0.05l0.007,17.017H42.667z M213.333,469.333v-17.067c-0.012-9.421-7.646-17.054-17.067-17.067H179.2
		v-17.067h153.6V435.2h-17.067c-9.421,0.012-17.054,7.646-17.067,17.067v17.067H213.333z M315.733,494.933v-42.667h153.6
		l0.017,42.667H315.733z"/>
</g>
<g>
</g>
<g>
</g>
<g>
</g>
<g>
</g>
<g>
</g>
<g>
</g>
<g>
</g>
<g>
</g>
<g>
</g>
<g>
</g>
<g>
</g>
<g>
</g>
<g>
</g>
<g>
</g>
<g>
</g>
</svg>
