<?xml version="1.0" encoding="iso-8859-1"?>
<!-- Generator: Adobe Illustrator 19.0.0, SVG Export Plug-In . SVG Version: 6.00 Build 0)  -->
<svg version="1.1" id="Capa_1" xmlns="http://www.w3.org/2000/svg" xmlns:xlink="http://www.w3.org/1999/xlink" x="0px" y="0px"
	 viewBox="0 0 512 512" style="enable-background:new 0 0 512 512;" xml:space="preserve">
<g>
	<g transform="translate(1 1)">
		<path style="fill:#3F51B5;" d="M451.267,33.133h25.6c4.713,0,8.533,3.821,8.533,8.533v384c0,4.713-3.82,8.533-8.533,8.533H33.133
			c-4.713,0-8.533-3.82-8.533-8.533v-384c0-4.713,3.821-8.533,8.533-8.533H451.267z"/>
		<path style="fill:#FFB301;" d="M75.8,7.533h358.4c9.426,0,17.067,7.641,17.067,17.067v460.8c0,9.426-7.641,17.067-17.067,17.067
			H75.8c-9.426,0-17.067-7.641-17.067-17.067V24.6C58.733,15.174,66.374,7.533,75.8,7.533z"/>
		<path style="fill:#FEC108;" d="M75.8,7.533h332.8c9.426,0,17.067,7.641,17.067,17.067v460.8c0,9.426-7.641,17.067-17.067,17.067
			H75.8c-9.426,0-17.067-7.641-17.067-17.067V24.6C58.733,15.174,66.374,7.533,75.8,7.533z"/>
		<rect x="425.667" y="263.533" style="fill:#00838F;" width="25.6" height="187.733"/>
		<rect x="58.733" y="263.533" style="fill:#00BCD4;" width="366.933" height="187.733"/>
		<g>
			<path style="fill:#3F51B5;" d="M169.667,50.2L169.667,50.2c9.426,0,17.067,7.641,17.067,17.067v25.6
				c0,9.426-7.641,17.067-17.067,17.067l0,0c-9.426,0-17.067-7.641-17.067-17.067v-25.6C152.6,57.841,160.241,50.2,169.667,50.2z"/>
			<path style="fill:#3F51B5;" d="M340.333,50.2L340.333,50.2c9.426,0,17.067,7.641,17.067,17.067v25.6
				c0,9.426-7.641,17.067-17.067,17.067l0,0c-9.426,0-17.067-7.641-17.067-17.067v-25.6C323.267,57.841,330.908,50.2,340.333,50.2z"
				/>
		</g>
		<rect x="220.867" y="50.2" style="fill:#CFD8DC;" width="68.267" height="34.133"/>
		<path style="fill:#3F51B5;" d="M101.4,127h34.133c4.713,0,8.533,3.821,8.533,8.533v85.333c0,4.713-3.821,8.533-8.533,8.533H101.4
			c-4.713,0-8.533-3.821-8.533-8.533v-85.333C92.867,130.821,96.687,127,101.4,127z"/>
		<g>
			<circle style="fill:#CFD8DC;" cx="50.2" cy="92.867" r="25.6"/>
			<circle style="fill:#CFD8DC;" cx="50.2" cy="374.467" r="25.6"/>
			<circle style="fill:#CFD8DC;" cx="459.8" cy="92.867" r="25.6"/>
			<circle style="fill:#CFD8DC;" cx="459.8" cy="314.733" r="25.6"/>
		</g>
		<g>
			<rect x="212.333" y="314.733" style="fill:#3F51B5;" width="85.333" height="85.333"/>
			<rect x="348.867" y="348.867" style="fill:#3F51B5;" width="68.267" height="51.2"/>
			<rect x="109.933" y="314.733" style="fill:#3F51B5;" width="34.133" height="34.133"/>
		</g>
		<circle style="fill:#CFD8DC;" cx="255" cy="178.2" r="51.2"/>
		<circle style="fill:#FFFFFF;" cx="255" cy="178.2" r="17.067"/>
	</g>
	<g>
		<path d="M51.2,25.6H34.133c-9.421,0.012-17.054,7.646-17.067,17.067v384c0.012,9.421,7.646,17.054,17.067,17.067H51.2V486.4
			c0.015,14.132,11.468,25.585,25.6,25.6h358.4c14.132-0.015,25.585-11.468,25.6-25.6v-42.667h17.067
			c9.421-0.012,17.054-7.646,17.067-17.067v-384c-0.012-9.421-7.646-17.054-17.067-17.067H460.8
			C460.785,11.468,449.332,0.015,435.2,0H76.8C62.668,0.015,51.215,11.468,51.2,25.6z M256,221.867
			c-23.564,0-42.667-19.103-42.667-42.667s19.103-42.667,42.667-42.667s42.667,19.103,42.667,42.667
			C298.639,202.753,279.553,221.839,256,221.867z M443.733,273.067v13.279c-10.553,6.021-17.067,17.238-17.067,29.388
			c0,12.15,6.514,23.366,17.067,29.388v98.612H68.267v-38.879c10.553-6.021,17.067-17.238,17.067-29.388
			c0-12.15-6.514-23.366-17.067-29.388v-73.012H443.733z M460.8,76.8c9.426,0,17.067,7.641,17.067,17.067
			s-7.641,17.067-17.067,17.067s-17.067-7.641-17.067-17.067C443.746,84.446,451.379,76.812,460.8,76.8z M477.867,123.254v163.092
			c-5.165-3.073-11.057-4.712-17.067-4.746V128C466.81,127.966,472.702,126.328,477.867,123.254z M443.733,315.733
			c0-9.426,7.641-17.067,17.067-17.067s17.067,7.641,17.067,17.067c0,9.426-7.641,17.067-17.067,17.067
			C451.379,332.788,443.746,325.154,443.733,315.733z M68.267,375.467c0,9.426-7.641,17.067-17.067,17.067
			s-17.067-7.641-17.067-17.067c0-9.426,7.641-17.067,17.067-17.067C60.621,358.412,68.254,366.046,68.267,375.467z M51.2,341.333
			c-6.01,0.034-11.902,1.672-17.067,4.746V123.254c5.165,3.073,11.057,4.712,17.067,4.746V341.333z M51.2,110.933
			c-9.426,0-17.067-7.641-17.067-17.067S41.774,76.8,51.2,76.8s17.067,7.641,17.067,17.067
			C68.254,103.287,60.621,110.921,51.2,110.933z M51.2,42.667v17.067c-6.01,0.034-11.902,1.672-17.067,4.746V42.667H51.2z
			 M34.133,426.667v-21.812c5.165,3.073,11.057,4.712,17.067,4.746v17.067H34.133z M435.2,494.933H76.8
			c-4.712-0.003-8.53-3.822-8.533-8.533v-25.6h375.467v25.6C443.73,491.112,439.912,494.93,435.2,494.933z M460.8,426.667v-76.8
			c6.01-0.034,11.902-1.672,17.067-4.746v81.546H460.8z M477.867,42.667v21.812c-5.165-3.073-11.057-4.712-17.067-4.746V42.667
			H477.867z M443.733,25.6v38.879c-10.553,6.021-17.067,17.238-17.067,29.388s6.514,23.366,17.067,29.388V256h-179.2v-17.748
			c31.009-4.476,53.29-32.149,51.047-63.398s-28.25-55.456-59.58-55.456s-57.336,24.206-59.58,55.456
			c-2.244,31.25,20.038,58.923,51.047,63.398V256h-179.2V123.254c10.553-6.021,17.067-17.238,17.067-29.388
			S78.819,70.5,68.267,64.479V25.6c0.003-4.712,3.822-8.53,8.533-8.533h358.4C439.912,17.07,443.73,20.888,443.733,25.6z"/>
		<path d="M256,153.6c-14.138,0-25.6,11.462-25.6,25.6c0,14.138,11.462,25.6,25.6,25.6c14.139,0,25.6-11.462,25.6-25.6
			C281.585,165.068,270.132,153.615,256,153.6z M256,187.733c-4.713,0-8.533-3.82-8.533-8.533s3.821-8.533,8.533-8.533
			c4.713,0,8.533,3.821,8.533,8.533C264.53,183.912,260.712,187.73,256,187.733z"/>
		<path d="M170.667,119.467c14.132-0.015,25.585-11.468,25.6-25.6v-25.6c0-14.138-11.462-25.6-25.6-25.6
			c-14.138,0-25.6,11.462-25.6,25.6v25.6C145.082,107.999,156.535,119.451,170.667,119.467z M162.133,68.267
			c0-4.713,3.821-8.533,8.533-8.533c4.713,0,8.533,3.821,8.533,8.533v25.6c0,4.713-3.821,8.533-8.533,8.533
			c-4.713,0-8.533-3.821-8.533-8.533V68.267z"/>
		<path d="M341.333,119.467c14.132-0.015,25.585-11.468,25.6-25.6v-25.6c0-14.138-11.462-25.6-25.6-25.6
			c-14.138,0-25.6,11.462-25.6,25.6v25.6C315.749,107.999,327.201,119.451,341.333,119.467z M332.8,68.267
			c0-4.713,3.82-8.533,8.533-8.533s8.533,3.821,8.533,8.533v25.6c0,4.713-3.821,8.533-8.533,8.533s-8.533-3.821-8.533-8.533V68.267z
			"/>
		<path d="M221.867,93.867h68.267c2.264,0.001,4.435-0.897,6.035-2.498c1.601-1.601,2.499-3.772,2.498-6.035V51.2
			c0.001-2.264-0.897-4.435-2.498-6.035c-1.601-1.601-3.772-2.499-6.035-2.498h-68.267c-2.264-0.001-4.435,0.897-6.035,2.498
			s-2.499,3.772-2.498,6.035v34.133c-0.001,2.264,0.897,4.435,2.498,6.035C217.432,92.969,219.603,93.868,221.867,93.867z
			 M230.4,59.733h51.2V76.8h-51.2V59.733z"/>
		<path d="M85.333,221.867c0.012,9.421,7.646,17.054,17.067,17.067h34.133c9.421-0.012,17.054-7.646,17.067-17.067v-85.333
			c-0.012-9.421-7.646-17.054-17.067-17.067H102.4c-9.421,0.012-17.054,7.646-17.067,17.067V221.867z M136.533,136.533l0.017,85.333
			H102.4V204.8h8.533c4.713,0,8.533-3.821,8.533-8.533s-3.821-8.533-8.533-8.533H102.4v-17.067h8.533
			c4.713,0,8.533-3.821,8.533-8.533c0-4.713-3.821-8.533-8.533-8.533H102.4v-17.067H136.533z"/>
		<path d="M196.267,384c-4.713,0-8.533,3.82-8.533,8.533s3.821,8.533,8.533,8.533h8.533c-0.001,2.264,0.897,4.435,2.498,6.035
			c1.601,1.601,3.772,2.499,6.035,2.498v8.533c0,4.713,3.821,8.533,8.533,8.533c4.713,0,8.533-3.82,8.533-8.533V409.6h17.067v8.533
			c0,4.713,3.821,8.533,8.533,8.533c4.713,0,8.533-3.82,8.533-8.533V409.6H281.6v8.533c0,4.713,3.821,8.533,8.533,8.533
			c4.713,0,8.533-3.82,8.533-8.533V409.6c2.264,0.001,4.435-0.897,6.035-2.498c1.601-1.601,2.499-3.772,2.498-6.035h8.533
			c4.713,0,8.533-3.82,8.533-8.533S320.446,384,315.733,384H307.2v-17.067h8.533c4.713,0,8.533-3.82,8.533-8.533
			s-3.821-8.533-8.533-8.533H307.2V332.8h8.533c4.713,0,8.533-3.82,8.533-8.533s-3.821-8.533-8.533-8.533H307.2
			c0.001-2.264-0.897-4.435-2.498-6.035c-1.601-1.601-3.772-2.499-6.035-2.498v-8.533c0-4.713-3.821-8.533-8.533-8.533
			c-4.713,0-8.533,3.82-8.533,8.533v8.533h-17.067v-8.533c0-4.713-3.821-8.533-8.533-8.533c-4.713,0-8.533,3.82-8.533,8.533v8.533
			H230.4v-8.533c0-4.713-3.821-8.533-8.533-8.533c-4.713,0-8.533,3.82-8.533,8.533v8.533c-2.264-0.001-4.435,0.897-6.035,2.498
			c-1.601,1.601-2.499,3.772-2.498,6.035h-8.533c-4.713,0-8.533,3.821-8.533,8.533s3.821,8.533,8.533,8.533h8.533v17.067h-8.533
			c-4.713,0-8.533,3.82-8.533,8.533s3.821,8.533,8.533,8.533h8.533V384H196.267z M290.133,324.267v68.267h-68.267v-68.267H290.133z"
			/>
		<path d="M349.867,409.6h8.533v8.533c0,4.713,3.82,8.533,8.533,8.533s8.533-3.82,8.533-8.533V409.6h17.067v8.533
			c0,4.713,3.82,8.533,8.533,8.533s8.533-3.82,8.533-8.533V409.6h8.533c2.264,0.001,4.435-0.897,6.035-2.498
			c1.601-1.601,2.499-3.772,2.498-6.035v-51.2c0.001-2.264-0.897-4.435-2.498-6.035c-1.601-1.601-3.772-2.499-6.035-2.498H409.6
			V332.8c0-4.713-3.821-8.533-8.533-8.533s-8.533,3.82-8.533,8.533v8.533h-17.067V332.8c0-4.713-3.82-8.533-8.533-8.533
			s-8.533,3.82-8.533,8.533v8.533h-8.533c-2.264-0.001-4.435,0.897-6.035,2.498c-1.601,1.601-2.499,3.772-2.498,6.035v51.2
			c-0.001,2.264,0.897,4.435,2.498,6.035C345.432,408.703,347.603,409.601,349.867,409.6z M358.4,358.4h51.2v34.133h-51.2V358.4z"/>
		<path d="M93.867,341.333h8.533v8.533c-0.001,2.264,0.897,4.435,2.498,6.035c1.601,1.601,3.772,2.499,6.035,2.498h8.533v8.533
			c0,4.713,3.821,8.533,8.533,8.533c4.713,0,8.533-3.82,8.533-8.533V358.4h8.533c2.264,0.001,4.435-0.897,6.035-2.498
			c1.601-1.601,2.499-3.772,2.498-6.035v-8.533h8.533c4.713,0,8.533-3.82,8.533-8.533s-3.821-8.533-8.533-8.533H153.6v-8.533
			c0.001-2.264-0.897-4.435-2.498-6.035c-1.601-1.601-3.772-2.499-6.035-2.498h-8.533v-8.533c0-4.713-3.821-8.533-8.533-8.533
			c-4.713,0-8.533,3.82-8.533,8.533v8.533h-8.533c-2.264-0.001-4.435,0.897-6.035,2.498c-1.601,1.601-2.499,3.772-2.498,6.035v8.533
			h-8.533c-4.713,0-8.533,3.82-8.533,8.533S89.154,341.333,93.867,341.333z M119.467,324.267h17.067v17.067h-17.067V324.267z"/>
		<path d="M366.933,307.2h34.133c4.713,0,8.533-3.82,8.533-8.533s-3.821-8.533-8.533-8.533h-34.133c-4.713,0-8.533,3.82-8.533,8.533
			S362.221,307.2,366.933,307.2z"/>
		<path d="M107.092,402.517c-0.434-0.339-0.925-0.599-1.45-0.767c-0.51-0.259-1.059-0.433-1.625-0.517
			c-1.633-0.343-3.334-0.162-4.858,0.517c-1.045,0.412-2.001,1.02-2.817,1.792c-1.561,1.634-2.445,3.798-2.475,6.058
			c-0.023,2.27,0.869,4.454,2.475,6.059c0.829,0.754,1.782,1.36,2.817,1.792c3.155,1.29,6.775,0.586,9.217-1.792
			c0.805-0.806,1.442-1.763,1.875-2.817c0.438-1.026,0.67-2.127,0.684-3.242C110.934,406.741,109.489,404.075,107.092,402.517z"/>
		<path d="M162.133,401.067h-25.6c-4.713,0-8.533,3.821-8.533,8.533c0,4.713,3.821,8.533,8.533,8.533h25.6
			c4.713,0,8.533-3.821,8.533-8.533C170.667,404.887,166.846,401.067,162.133,401.067z"/>
		<path d="M363.692,171.35c-1.055,0.391-2.015,1.002-2.817,1.792c-1.561,1.634-2.445,3.798-2.475,6.058
			c-0.023,2.27,0.869,4.454,2.475,6.059c0.816,0.772,1.772,1.38,2.817,1.792c2.065,0.911,4.418,0.911,6.483,0
			c2.143-0.777,3.831-2.465,4.608-4.608c0.911-2.065,0.911-4.418,0-6.483c-0.807-2.124-2.454-3.823-4.553-4.695
			c-2.099-0.872-4.464-0.841-6.539,0.087L363.692,171.35z"/>
	</g>
</g>
<g>
</g>
<g>
</g>
<g>
</g>
<g>
</g>
<g>
</g>
<g>
</g>
<g>
</g>
<g>
</g>
<g>
</g>
<g>
</g>
<g>
</g>
<g>
</g>
<g>
</g>
<g>
</g>
<g>
</g>
</svg>
