<?xml version="1.0" encoding="iso-8859-1"?>
<!-- Generator: Adobe Illustrator 19.0.0, SVG Export Plug-In . SVG Version: 6.00 Build 0)  -->
<svg version="1.1" id="Capa_1" xmlns="http://www.w3.org/2000/svg" xmlns:xlink="http://www.w3.org/1999/xlink" x="0px" y="0px"
	 viewBox="0 0 512 512" style="enable-background:new 0 0 512 512;" xml:space="preserve">
<g>
	<g transform="translate(1 1)">
		<path style="fill:#3F51B5;" d="M408.6,425.667h51.2v68.267c0,4.713-3.82,8.533-8.533,8.533h-34.133
			c-4.713,0-8.533-3.82-8.533-8.533V425.667z"/>
		<g>
			<path style="fill:#AD1457;" d="M502.467,152.6v179.2c-0.014,4.707-3.826,8.52-8.533,8.533H485.4V434.2
				c-0.014,4.707-3.826,8.52-8.533,8.533h-85.333c-4.707-0.014-8.52-3.826-8.533-8.533v-93.867h-8.533
				c-4.707-0.014-8.52-3.826-8.533-8.533V152.6c0.014-4.707,3.826-8.52,8.533-8.533H383v-25.6c0.014-4.707,3.826-8.52,8.533-8.533
				h85.333c4.707,0.014,8.52,3.826,8.533,8.533v25.6h8.533C498.641,144.081,502.453,147.893,502.467,152.6z"/>
			<path style="fill:#AD1457;" d="M485.4,340.334V434.2c-0.014,4.707-3.826,8.52-8.533,8.533h-85.333
				c-4.707-0.014-8.52-3.826-8.533-8.533v-93.867H485.4z"/>
		</g>
		<path style="fill:#CFD8DC;" d="M451.267,24.6l0,102.4h-34.134V24.6c0.027-9.414,7.652-17.039,17.067-17.067
			c4.528-0.024,8.871,1.793,12.032,5.035C449.474,15.73,451.291,20.073,451.267,24.6z"/>
		<path style="fill:#AD1457;" d="M485.4,118.467v25.6H383v-25.6c0.014-4.707,3.826-8.52,8.533-8.533h85.333
			C481.574,109.947,485.387,113.76,485.4,118.467z"/>
		<g>
			<path style="fill:#E91E63;" d="M476.867,152.6v179.2c-0.024,4.539-3.575,8.276-8.107,8.533h-8.96V434.2
				c-0.014,4.707-3.826,8.52-8.533,8.533h-59.733c-4.707-0.014-8.52-3.826-8.533-8.533v-93.867h-8.533
				c-4.707-0.014-8.52-3.826-8.533-8.533V152.6c0.014-4.707,3.826-8.52,8.533-8.533H383v-25.6c0.014-4.707,3.826-8.52,8.533-8.533
				h59.733c4.707,0.014,8.52,3.826,8.533,8.533v25.6h8.533C473.041,144.081,476.853,147.893,476.867,152.6z"/>
			<path style="fill:#E91E63;" d="M459.8,340.334V434.2c-0.014,4.707-3.826,8.52-8.533,8.533h-59.733
				c-4.707-0.014-8.52-3.826-8.533-8.533v-93.867H459.8z"/>
			<path style="fill:#E91E63;" d="M459.8,118.467v25.6H383v-25.6c0.014-4.707,3.826-8.52,8.533-8.533h59.733
				C455.974,109.947,459.787,113.76,459.8,118.467z"/>
		</g>
		<path style="fill:#3F51B5;" d="M229.4,425.667h51.2v68.267c0,4.713-3.82,8.533-8.533,8.533h-34.133
			c-4.713,0-8.533-3.82-8.533-8.533V425.667z"/>
		<g>
			<path style="fill:#607D8B;" d="M323.267,152.6v179.2c-0.014,4.707-3.826,8.52-8.533,8.533H306.2V434.2
				c-0.014,4.707-3.826,8.52-8.533,8.533h-85.333c-4.707-0.014-8.52-3.826-8.533-8.533v-93.867h-8.533
				c-4.707-0.014-8.52-3.826-8.533-8.533V152.6c0.014-4.707,3.826-8.52,8.533-8.533h8.533v-25.6c0.014-4.707,3.826-8.52,8.533-8.533
				h85.333c4.707,0.014,8.52,3.826,8.533,8.533v25.6h8.533C319.441,144.081,323.253,147.893,323.267,152.6z"/>
			<path style="fill:#607D8B;" d="M306.2,340.334V434.2c-0.014,4.707-3.826,8.52-8.533,8.533h-85.333
				c-4.707-0.014-8.52-3.826-8.533-8.533v-93.867H306.2z"/>
		</g>
		<path style="fill:#CFD8DC;" d="M272.067,24.6l0,102.4h-34.134V24.6c0.027-9.414,7.652-17.039,17.067-17.067
			c4.528-0.024,8.871,1.793,12.032,5.035C270.273,15.73,272.091,20.073,272.067,24.6z"/>
		<path style="fill:#607D8B;" d="M306.2,118.467v25.6H203.8v-25.6c0.014-4.707,3.826-8.52,8.533-8.533h85.333
			C302.374,109.947,306.187,113.76,306.2,118.467z"/>
		<g>
			<path style="fill:#CFD8DC;" d="M297.667,152.6v179.2c-0.024,4.539-3.575,8.276-8.107,8.533h-8.96V434.2
				c-0.014,4.707-3.826,8.52-8.533,8.533h-59.733c-4.707-0.014-8.52-3.826-8.533-8.533v-93.867h-8.533
				c-4.707-0.014-8.52-3.826-8.533-8.533V152.6c0.014-4.707,3.826-8.52,8.533-8.533h8.533v-25.6c0.014-4.707,3.826-8.52,8.533-8.533
				h59.733c4.707,0.014,8.52,3.826,8.533,8.533v25.6h8.533C293.841,144.081,297.653,147.893,297.667,152.6z"/>
			<path style="fill:#CFD8DC;" d="M280.6,340.334V434.2c-0.014,4.707-3.826,8.52-8.533,8.533h-59.733
				c-4.707-0.014-8.52-3.826-8.533-8.533v-93.867H280.6z"/>
			<path style="fill:#CFD8DC;" d="M280.6,118.467v25.6h-76.8v-25.6c0.014-4.707,3.826-8.52,8.533-8.533h59.733
				C276.774,109.947,280.587,113.76,280.6,118.467z"/>
		</g>
		<path style="fill:#3F51B5;" d="M50.2,425.667h51.2v68.267c0,4.713-3.821,8.533-8.533,8.533H58.734
			c-4.713,0-8.533-3.82-8.533-8.533V425.667z"/>
		<g>
			<path style="fill:#F57C00;" d="M144.067,152.6v179.2c-0.014,4.707-3.826,8.52-8.533,8.533H127V434.2
				c-0.014,4.707-3.826,8.52-8.533,8.533H33.134c-4.707-0.014-8.52-3.826-8.533-8.533v-93.867h-8.533
				c-4.707-0.014-8.52-3.826-8.533-8.533V152.6c0.014-4.707,3.826-8.52,8.533-8.533H24.6v-25.6c0.014-4.707,3.826-8.52,8.533-8.533
				h85.333c4.707,0.014,8.52,3.826,8.533,8.533v25.6h8.533C140.241,144.081,144.053,147.893,144.067,152.6z"/>
			<path style="fill:#F57C00;" d="M127,340.334V434.2c-0.014,4.707-3.826,8.52-8.533,8.533H33.134
				c-4.707-0.014-8.52-3.826-8.533-8.533v-93.867H127z"/>
		</g>
		<path style="fill:#CFD8DC;" d="M92.867,24.6l0,102.4H58.734V24.6C58.761,15.186,66.386,7.561,75.8,7.534
			c4.528-0.024,8.871,1.793,12.032,5.035C91.073,15.73,92.891,20.073,92.867,24.6z"/>
		<path style="fill:#F57C00;" d="M127,118.467v25.6H24.6v-25.6c0.014-4.707,3.826-8.52,8.533-8.533h85.333
			C123.174,109.947,126.987,113.76,127,118.467z"/>
		<g>
			<path style="fill:#FF9801;" d="M118.467,152.6v179.2c-0.024,4.539-3.575,8.276-8.107,8.533h-8.96V434.2
				c-0.014,4.707-3.826,8.52-8.533,8.533H33.134c-4.707-0.014-8.52-3.826-8.533-8.533v-93.867h-8.533
				c-4.707-0.014-8.52-3.826-8.533-8.533V152.6c0.014-4.707,3.826-8.52,8.533-8.533H24.6v-25.6c0.014-4.707,3.826-8.52,8.533-8.533
				h59.733c4.707,0.014,8.52,3.826,8.533,8.533v25.6h8.533C114.641,144.081,118.453,147.893,118.467,152.6z"/>
			<path style="fill:#FF9801;" d="M101.4,340.334V434.2c-0.014,4.707-3.826,8.52-8.533,8.533H33.134
				c-4.707-0.014-8.52-3.826-8.533-8.533v-93.867H101.4z"/>
			<path style="fill:#FF9801;" d="M101.4,118.467v25.6H24.6v-25.6c0.014-4.707,3.826-8.52,8.533-8.533h59.733
				C97.574,109.947,101.387,113.76,101.4,118.467z"/>
		</g>
	</g>
	<g>
		<path d="M17.067,119.467v17.067C7.646,136.545,0.011,144.179,0,153.6v179.2c0.011,9.421,7.645,17.056,17.067,17.067V435.2
			c0.011,9.421,7.645,17.056,17.067,17.067h8.533v42.667c0.011,9.421,7.645,17.056,17.067,17.067h34.133
			c9.421-0.011,17.056-7.645,17.067-17.067v-42.667h8.533c9.421-0.011,17.056-7.645,17.067-17.067v-85.333
			c9.421-0.011,17.056-7.645,17.067-17.067V153.6c-0.011-9.421-7.645-17.056-17.067-17.067v-17.067
			c-0.011-9.421-7.645-17.056-17.067-17.067H102.4V25.6c0.053-6.757-2.637-13.246-7.454-17.983C90.188,2.712,83.634-0.039,76.8,0
			C62.668,0.016,51.216,11.468,51.2,25.6v76.8H34.134C24.712,102.411,17.078,110.046,17.067,119.467z M93.879,494.934H59.734
			v-42.667h34.133L93.879,494.934z M119.47,366.934H102.4c-4.713,0-8.533,3.82-8.533,8.533S97.687,384,102.4,384h17.072
			l0.002,17.067H102.4c-4.713,0-8.533,3.82-8.533,8.533s3.821,8.533,8.533,8.533h17.077l0.003,17.067H34.134v-17.067H51.2
			c4.713,0,8.533-3.821,8.533-8.533s-3.821-8.533-8.533-8.533H34.134V384H51.2c4.713,0,8.533-3.82,8.533-8.533
			s-3.821-8.533-8.533-8.533H34.134v-17.067h85.333L119.47,366.934z M136.546,332.8H17.067V153.6h119.467L136.546,332.8z
			 M119.467,136.534H34.134v-17.067l25.588-0.002l0.012,0.002h34.133l0.029-0.006l25.571-0.002V136.534z M68.267,25.6
			c0.005-4.711,3.822-8.529,8.533-8.533c2.301-0.005,4.501,0.942,6.079,2.617c1.591,1.555,2.477,3.692,2.454,5.917v76.8H68.267V25.6
			z"/>
		<path d="M238.934,512h34.133c9.421-0.011,17.056-7.645,17.067-17.067v-42.667h8.533c9.421-0.011,17.056-7.645,17.067-17.067
			v-85.333c9.421-0.011,17.056-7.645,17.067-17.067V153.6c-0.011-9.421-7.645-17.056-17.067-17.067v-17.067
			c-0.011-9.421-7.645-17.056-17.067-17.067H281.6V25.6c0.053-6.757-2.637-13.246-7.454-17.983C269.388,2.712,262.834-0.039,256,0
			c-14.132,0.015-25.585,11.468-25.6,25.6v76.8h-17.067c-9.421,0.011-17.056,7.645-17.067,17.067v17.067
			c-9.421,0.011-17.056,7.645-17.067,17.067v179.2c0.011,9.421,7.645,17.056,17.067,17.067V435.2
			c0.011,9.421,7.645,17.056,17.067,17.067h8.533v42.667C221.878,504.355,229.512,511.99,238.934,512z M273.079,494.934h-34.146
			v-42.667h34.133L273.079,494.934z M247.467,25.6c0.005-4.711,3.822-8.529,8.533-8.533c2.301-0.005,4.501,0.942,6.079,2.617
			c1.591,1.555,2.477,3.692,2.454,5.917v76.8h-17.067V25.6z M213.334,119.467l25.588-0.002l0.012,0.002h34.133l0.029-0.006
			l25.571-0.002v17.075h-85.333V119.467z M196.267,153.6h119.467l0.012,179.2H196.267V153.6z M213.334,418.134H230.4
			c4.713,0,8.533-3.821,8.533-8.533s-3.821-8.533-8.533-8.533h-17.067V384H230.4c4.713,0,8.533-3.82,8.533-8.533
			s-3.821-8.533-8.533-8.533h-17.067v-17.067h85.333l0.003,17.067H281.6c-4.713,0-8.533,3.82-8.533,8.533S276.887,384,281.6,384
			h17.072l0.002,17.067H281.6c-4.713,0-8.533,3.82-8.533,8.533s3.82,8.533,8.533,8.533h17.077l0.003,17.067h-85.346V418.134z"/>
		<path d="M494.934,136.534v-17.067c-0.012-9.421-7.646-17.054-17.067-17.067H460.8V25.6c0.055-6.756-2.633-13.245-7.45-17.983
			C448.591,2.712,442.035-0.039,435.2,0c-14.132,0.015-25.585,11.468-25.6,25.6v76.8h-17.067
			c-9.421,0.011-17.056,7.645-17.067,17.067v17.067c-9.421,0.011-17.056,7.645-17.067,17.067v179.2
			c0.011,9.421,7.645,17.056,17.067,17.067V435.2c0.011,9.421,7.645,17.056,17.067,17.067h8.533v42.667
			c0.012,9.421,7.646,17.054,17.067,17.067h34.133c9.421-0.012,17.054-7.646,17.067-17.067v-42.667h8.533
			c9.421-0.012,17.054-7.646,17.067-17.067v-85.333c9.421-0.012,17.054-7.646,17.067-17.067V153.6
			C511.988,144.18,504.354,136.546,494.934,136.534z M426.667,25.6c0.003-4.712,3.822-8.53,8.533-8.533
			c2.302-0.005,4.504,0.942,6.083,2.617c1.586,1.558,2.471,3.694,2.45,5.917v76.8h-17.067V25.6z M392.534,119.467l25.575-0.005
			l0.025,0.005h34.133l0.058-0.011l25.542-0.005v17.083h-85.333V119.467z M452.284,494.934h-34.15v-42.667h34.133L452.284,494.934z
			 M477.87,366.934H460.8c-4.713,0-8.533,3.82-8.533,8.533S456.087,384,460.8,384h17.073l0.003,17.067H460.8
			c-4.713,0-8.533,3.82-8.533,8.533s3.82,8.533,8.533,8.533h17.08l0.003,17.067h-85.35v-17.067H409.6
			c4.713,0,8.533-3.821,8.533-8.533s-3.821-8.533-8.533-8.533h-17.067V384H409.6c4.713,0,8.533-3.82,8.533-8.533
			s-3.821-8.533-8.533-8.533h-17.067v-17.067h85.333L477.87,366.934z M486.4,332.8H375.467V153.6h119.467l0.017,179.2H486.4z"/>
	</g>
</g>
<g>
</g>
<g>
</g>
<g>
</g>
<g>
</g>
<g>
</g>
<g>
</g>
<g>
</g>
<g>
</g>
<g>
</g>
<g>
</g>
<g>
</g>
<g>
</g>
<g>
</g>
<g>
</g>
<g>
</g>
</svg>
