<?xml version="1.0" encoding="iso-8859-1"?>
<!-- Generator: Adobe Illustrator 19.0.0, SVG Export Plug-In . SVG Version: 6.00 Build 0)  -->
<svg version="1.1" id="Capa_1" xmlns="http://www.w3.org/2000/svg" xmlns:xlink="http://www.w3.org/1999/xlink" x="0px" y="0px"
	 viewBox="0 0 512 512" style="enable-background:new 0 0 512 512;" xml:space="preserve">
<g>
	<g transform="translate(1 1)">
		<g>
			<path style="fill:#607D8B;" d="M16.067,323.267H50.2V357.4c0,9.426-7.641,17.067-17.067,17.067s-17.067-7.641-17.067-17.067
				V323.267z"/>
			<path style="fill:#607D8B;" d="M459.8,323.267h34.133V357.4c0,9.426-7.641,17.067-17.067,17.067
				c-9.426,0-17.067-7.641-17.067-17.067V323.267z"/>
			<path style="fill:#607D8B;" d="M502.467,220.867V331.8c-0.014,4.707-3.826,8.52-8.533,8.533H16.067
				c-4.707-0.014-8.52-3.826-8.533-8.533V220.867h0.256L67.267,50.883l7.168-20.48c4.787-13.712,17.732-22.89,32.256-22.869h296.619
				c14.524-0.021,27.469,9.157,32.256,22.869l7.168,20.48l59.477,169.984H502.467z"/>
		</g>
		<path style="fill:#CFD8DC;" d="M476.867,220.867V331.8c-0.014,4.707-3.826,8.52-8.533,8.533H16.067
			c-4.707-0.014-8.52-3.826-8.533-8.533V220.867h0.256L67.267,50.883l7.168-20.48c4.787-13.712,17.732-22.89,32.256-22.869h271.019
			c14.524-0.021,27.469,9.157,32.256,22.869l7.168,20.48l59.477,169.984H476.867z"/>
		<path style="fill:#607D8B;" d="M502.467,221.549H7.533l0.256-0.683L67.267,50.883l7.168-20.48
			c4.787-13.712,17.732-22.89,32.256-22.869h296.619c14.524-0.021,27.469,9.157,32.256,22.869l7.168,20.48l59.477,169.984
			L502.467,221.549z"/>
		<path style="fill:#CFD8DC;" d="M476.867,221.549H7.533v-0.683h0.256L67.267,50.883l7.168-20.48
			c4.787-13.712,17.732-22.89,32.256-22.869h271.019c14.524-0.021,27.469,9.157,32.256,22.869l7.168,20.48L476.867,221.549z"/>
		<path style="fill:#607D8B;" d="M397.165,297.667H434.2c4.707-0.014,8.52-3.826,8.533-8.533v-17.067
			c-0.014-4.707-3.826-8.52-8.533-8.533H75.8c-4.707,0.014-8.52,3.826-8.533,8.533v17.067c0.014,4.707,3.826,8.52,8.533,8.533
			H397.165z"/>
		<path style="fill:#C52828;" d="M467.821,468.333v25.6c-0.014,4.707-3.826,8.52-8.533,8.533H127l-55.467-31.659
			c-2.646-1.535-4.273-4.366-4.267-7.425V434.2l32.853-93.867l14.933-42.667L127,263.533h256l14.165,34.133L467.821,468.333z"/>
		<g>
			<path style="fill:#F44335;" d="M442.733,468.333v25.6c-0.014,4.707-3.826,8.52-8.533,8.533H127l-55.467-31.659
				c-2.646-1.535-4.273-4.366-4.267-7.425V434.2l32.853-93.867l14.933-42.667L127,263.533h230.912l14.165,34.133L442.733,468.333z"
				/>
			<path style="fill:#F44335;" d="M127,468.333v34.133l-55.467-31.659c-2.646-1.535-4.273-4.366-4.267-7.425l0-29.183L127,468.333z"
				/>
		</g>
		<path style="fill:#C52828;" d="M467.821,468.333v25.6c-0.014,4.707-3.826,8.52-8.533,8.533H434.2
			c4.707-0.014,8.52-3.826,8.533-8.533v-25.6H467.821z"/>
		<path style="fill:#F44335;" d="M442.733,468.333v25.6c-0.014,4.707-3.826,8.52-8.533,8.533H127v-34.133H442.733z"/>
		<polygon style="fill:#CFD8DC;" points="342.04,348.867 176.579,348.867 187.501,314.733 192.877,297.667 203.8,263.533 
			314.733,263.533 325.656,297.667 331.117,314.733 		"/>
		<path style="fill:#607D8B;" d="M357.864,178.2H152.136c-5.462-0.115-10.536-2.848-13.638-7.346
			c-3.102-4.498-3.853-10.212-2.02-15.359l5.806-17.067c2.229-6.773,8.528-11.37,15.658-11.429h194.115
			c7.13,0.058,13.429,4.656,15.658,11.429l5.806,17.067c1.833,5.147,1.082,10.861-2.02,15.359
			C368.4,175.352,363.326,178.085,357.864,178.2z"/>
		<polygon style="fill:#CFD8DC;" points="391.533,468.333 361.24,383 174.36,383 144.067,468.333 		"/>
		<ellipse style="fill:#00BCD4;" cx="255" cy="67.267" rx="34.133" ry="17.067"/>
		<polygon style="fill:#C52828;" points="190.573,468.333 205.763,425.667 239.896,425.667 255,468.333 		"/>
	</g>
	<g>
		<path d="M444.604,28.558C438.599,11.461,422.459,0.014,404.338,0H107.663C89.541,0.014,73.401,11.461,67.396,28.558L1.139,217.85
			c-0.715,1.22-1.107,2.603-1.139,4.017V332.8c0.02,6.069,3.272,11.668,8.533,14.693V358.4c0,14.138,11.462,25.6,25.6,25.6
			s25.6-11.462,25.6-25.6v-8.533h29.36l-28.881,82.517c-0.225,0.733-0.349,1.494-0.367,2.26c-0.013,0.194-0.112,0.358-0.112,0.556
			v29.183c0.005,6.123,3.285,11.776,8.6,14.817l55.433,31.675c0.192,0.11,0.41,0.156,0.609,0.25
			c0.225,0.108,0.447,0.194,0.683,0.282c0.937,0.371,1.934,0.572,2.942,0.593h332.288c9.421-0.011,17.056-7.645,17.067-17.067v-25.6
			c0-1.121-0.221-2.231-0.65-3.267l-0.018-0.044L476.677,466L428.58,349.867h23.686v8.533c0,14.138,11.462,25.6,25.6,25.6
			c14.138,0,25.6-11.462,25.6-25.6v-10.907c5.262-3.025,8.513-8.624,8.533-14.693V221.867c-0.031-1.414-0.423-2.797-1.138-4.017
			L444.604,28.558z M83.504,34.208c3.6-10.261,13.284-17.133,24.158-17.142h296.675c10.874,0.009,20.559,6.88,24.158,17.142
			L491.2,213.333H20.8L83.504,34.208z M42.667,358.4c0,4.713-3.821,8.533-8.533,8.533s-8.533-3.82-8.533-8.533v-8.533h17.067V358.4z
			 M110,290.133H76.8v-17.067h39.173L110,290.133z M134.053,273.067h59.069l-23.671,74.208c-0.057,0.874-0.193,1.742-0.405,2.592
			c0,0.135,0.071,0.247,0.077,0.381c0.054,0.599,0.173,1.191,0.356,1.765c0.144,1.053,0.611,2.035,1.338,2.809
			c0.52,0.927,1.317,1.67,2.278,2.124c0.482,0.342,1.001,0.63,1.545,0.86c0.128,0.048,0.216,0.152,0.347,0.194
			c0.834,0.264,1.703,0.398,2.578,0.398l0.014,0.002h165.463c0.883-0.001,1.759-0.139,2.6-0.408c0.124-0.04,0.207-0.137,0.328-0.182
			c0.563-0.236,1.099-0.534,1.596-0.89c0.436-0.242,0.851-0.521,1.238-0.834c1.234-1.044,2.062-2.489,2.34-4.081
			c0.183-0.573,0.302-1.164,0.356-1.762c0.006-0.131,0.076-0.242,0.076-0.375c-0.212-0.853-0.348-1.723-0.404-2.6l-23.745-74.2
			h50.869L456.049,460.8H398.56l-28.277-79.659c-0.029-0.081-0.097-0.133-0.128-0.213c-0.264-0.582-0.595-1.132-0.986-1.638
			c-0.934-1.227-2.1-2.258-3.432-3.035c-0.476-0.17-0.966-0.296-1.465-0.378c-0.581-0.185-1.18-0.306-1.786-0.359
			c-0.086-0.003-0.158-0.05-0.244-0.05H175.358c-0.091,0-0.166,0.049-0.256,0.052c-0.59,0.054-1.172,0.172-1.737,0.35
			c-2.107,0.271-3.95,1.55-4.94,3.429c-0.389,0.504-0.718,1.051-0.981,1.63c-0.031,0.08-0.099,0.132-0.128,0.213L139.04,460.8
			h-8.773l-51.6-29.483L134.053,273.067z M309.503,273.067l8.192,25.6H202.868l8.166-25.6H309.503z M197.423,315.733h125.734
			l8.192,25.6H189.257L197.423,315.733z M396.774,273.067H435.2v17.067h-31.358L396.774,273.067z M212.78,435.2h22.082l9.062,25.6
			h-40.257L212.78,435.2z M262.034,460.8l-13.092-36.983c-0.03-0.084-0.1-0.138-0.132-0.221c-0.261-0.573-0.586-1.115-0.969-1.615
			c-0.234-0.418-0.503-0.816-0.803-1.19c-1.026-1.212-2.461-2.006-4.032-2.233c-0.607-0.197-1.234-0.324-1.87-0.377
			c-0.085-0.002-0.154-0.048-0.239-0.048h-34.133c-0.085,0-0.155,0.046-0.239,0.048c-0.638,0.053-1.268,0.181-1.877,0.379
			c-0.463,0.079-0.918,0.196-1.362,0.349c-0.911,0.586-1.797,1.21-2.655,1.871c-0.301,0.375-0.57,0.773-0.804,1.193
			c-0.387,0.504-0.715,1.052-0.977,1.631c-0.03,0.077-0.095,0.126-0.122,0.204L185.558,460.8h-28.406l24.233-68.267h174.829
			l24.233,68.267H262.034z M76.8,449.904l42.667,24.38v14.478L76.8,464.383V449.904z M136.533,494.933v-17.067h323.754v17.067
			H136.533z M410.91,307.2h24.29c9.421-0.011,17.056-7.645,17.067-17.067v-17.067c-0.011-9.421-7.645-17.056-17.067-17.067H76.8
			c-9.421,0.011-17.056,7.645-17.067,17.067v17.067c0.011,9.421,7.645,17.056,17.067,17.067h27.227l-8.96,25.6h-78V230.4h477.867
			v102.4h-73.421L410.91,307.2z M486.4,358.4c0,4.713-3.82,8.533-8.533,8.533s-8.533-3.82-8.533-8.533v-8.533H486.4V358.4z"/>
		<path d="M153.138,187.733h205.725c8.074,0.022,15.651-3.901,20.292-10.508c4.861-6.817,6.143-15.557,3.446-23.484l-5.804-17.067
			c-3.414-10.226-12.957-17.144-23.738-17.208H158.942c-10.78,0.064-20.324,6.982-23.738,17.208l-5.804,17.067
			c-2.697,7.926-1.415,16.666,3.446,23.484C137.487,183.832,145.063,187.756,153.138,187.733z M145.558,159.242l5.804-17.067
			c1.059-3.309,4.106-5.577,7.579-5.642h194.116c3.473,0.065,6.521,2.333,7.579,5.642l5.804,17.067
			c0.949,2.712,0.515,5.717-1.163,8.05c-1.461,2.104-3.855,3.363-6.416,3.375H153.138c-2.561-0.012-4.956-1.271-6.417-3.375
			C145.043,164.959,144.61,161.954,145.558,159.242z"/>
		<path d="M256,93.867c24.325,0,42.667-11.008,42.667-25.6s-18.342-25.6-42.667-25.6s-42.667,11.008-42.667,25.6
			S231.675,93.867,256,93.867z M256,59.733c16.521,0,25.6,6.409,25.6,8.533c0,2.125-9.079,8.533-25.6,8.533
			c-16.521,0-25.6-6.409-25.6-8.533C230.4,66.142,239.479,59.733,256,59.733z"/>
	</g>
</g>
<g>
</g>
<g>
</g>
<g>
</g>
<g>
</g>
<g>
</g>
<g>
</g>
<g>
</g>
<g>
</g>
<g>
</g>
<g>
</g>
<g>
</g>
<g>
</g>
<g>
</g>
<g>
</g>
<g>
</g>
</svg>
