<?xml version="1.0" encoding="iso-8859-1"?>
<!-- Generator: Adobe Illustrator 19.0.0, SVG Export Plug-In . SVG Version: 6.00 Build 0)  -->
<svg version="1.1" id="Capa_1" xmlns="http://www.w3.org/2000/svg" xmlns:xlink="http://www.w3.org/1999/xlink" x="0px" y="0px"
	 viewBox="0 0 512.033 512.033" style="enable-background:new 0 0 512.033 512.033;" xml:space="preserve">
<g transform="translate(-1)">
	<g transform="translate(2 1)">
		<path style="fill:#2E7D32;" d="M494.99,99.023l-23.808,23.808c-0.064,0.128-0.151,0.244-0.256,0.341L326.115,268.068
			L151.267,443.172l-60.928,26.112c-14.213,6.114-30.718,2.935-41.643-8.022c-1.285-1.314-2.482-2.71-3.584-4.181
			c-8.048-10.805-9.738-25.075-4.437-37.461l26.112-61.013L241.72,183.503L386.446,38.607c0.085-0.085,0.085-0.085,0.171-0.085
			l23.979-24.064c3.243-3.157,10.496-1.707,19.797,3.243c0.085,0,0.171,0.085,0.256,0.171c12.57,7.336,24.082,16.351,34.219,26.795
			C488.163,68.047,501.646,92.367,494.99,99.023z"/>
		<path style="fill:#4CAF50;" d="M475.192,85.284l-11.435,11.435l-12.373,12.373c-0.064,0.128-0.151,0.244-0.256,0.341
			L306.318,254.33L144.099,416.719l-12.629,12.715l-60.928,26.112c-4.69,2.021-9.742,3.066-14.848,3.072
			c-3.555,0.005-7.091-0.513-10.496-1.537c-0.241-0.165-0.421-0.405-0.512-0.682l-0.768-1.024c-1.341-1.944-2.457-4.034-3.328-6.229
			c-0.341-0.939-0.768-1.877-1.024-2.817c-0.335-0.951-0.62-1.92-0.853-2.901c-0.256-0.939-0.427-1.963-0.597-2.901
			c-0.156-0.79-0.269-1.587-0.341-2.389c-0.085-1.194-0.171-2.304-0.171-3.498c0.005-5.162,1.05-10.269,3.072-15.019l26.112-61.013
			L241.72,183.503L386.446,38.607c0.085-0.085,0.085-0.085,0.171-0.085l23.979-24.064c2.048-1.612,4.743-2.151,7.253-1.451
			c0.518,0.044,1.032,0.129,1.536,0.256c2.248,0.592,4.445,1.362,6.571,2.304c0.341,0.171,0.683,0.341,1.109,0.512
			c1.195,0.512,2.389,1.195,3.584,1.792c5.037,4.091,9.851,8.449,14.421,13.056C468.366,54.308,481.848,78.628,475.192,85.284z"/>
		<g>
			<path style="fill:#607D8B;" d="M461.646,84.107l33.375-33.389c9.387-9.433,10.014-24.473,1.445-34.654
				c-5.039-5.403-12.086-8.486-19.474-8.519c-7.388-0.033-14.462,2.986-19.55,8.343L425.46,47.881L461.646,84.107z"/>
			<path style="fill:#607D8B;" d="M63.684,470.45l-27.019,27.048c-6.674,6.634-17.458,6.616-24.108-0.042
				c-6.65-6.658-6.657-17.442-0.016-24.108l27.019-27.048L63.684,470.45z"/>
		</g>
		<path style="fill:#00695C;" d="M494.99,99.023l-23.808,23.808c3.413-4.096,0.341-13.995-7.424-26.113l11.435-11.435
			c6.656-6.656-6.827-30.976-30.123-54.357c-4.57-4.607-9.384-8.965-14.421-13.056c12.57,7.336,24.082,16.351,34.219,26.795
			C488.163,68.047,501.646,92.367,494.99,99.023z"/>
		<path style="fill:#009688;" d="M475.192,85.284l-11.435,11.435c-6.693-10.074-14.415-19.425-23.04-27.904
			c-23.125-23.211-47.275-36.608-54.101-30.293l23.979-24.064c2.048-1.612,4.743-2.151,7.253-1.451
			c0.518,0.044,1.032,0.129,1.536,0.256c2.248,0.592,4.445,1.362,6.571,2.304c0.341,0.171,0.683,0.341,1.109,0.512
			c1.195,0.512,2.389,1.195,3.584,1.792c5.037,4.091,9.851,8.449,14.421,13.056C468.366,54.308,481.848,78.628,475.192,85.284z"/>
		<path style="fill:#00695C;" d="M151.267,443.173l-60.928,26.112c-14.213,6.114-30.718,2.935-41.643-8.022
			c-1.282-1.293-2.452-2.692-3.499-4.181c3.405,1.023,6.941,1.541,10.496,1.537c5.106-0.006,10.158-1.051,14.848-3.072
			l60.928-26.113l12.629-12.714C152.12,429.177,155.192,439.247,151.267,443.173z"/>
		<path style="fill:#009688;" d="M144.099,416.719l-12.629,12.715l-60.928,26.112c-4.69,2.021-9.742,3.066-14.848,3.072
			c-3.555,0.005-7.091-0.513-10.496-1.537c-0.241-0.165-0.421-0.405-0.512-0.682l-0.768-1.024c-1.341-1.944-2.457-4.034-3.328-6.229
			c-0.341-0.939-0.768-1.877-1.024-2.817c-0.335-0.951-0.62-1.92-0.853-2.901c-0.256-0.939-0.427-1.963-0.597-2.901
			c-0.156-0.79-0.269-1.587-0.341-2.389c-0.085-1.194-0.171-2.304-0.171-3.498c0.005-5.162,1.05-10.269,3.072-15.019l26.112-61.013
			c6.656-6.656,30.976,6.826,54.272,30.207C129.684,397.293,137.406,406.645,144.099,416.719z"/>
		<g>
			<path style="fill:#607D8B;" d="M205.966,328.91l-30.123,40.619c-1.552,1.963-3.874,3.163-6.373,3.294
				c-2.499,0.131-4.934-0.82-6.683-2.61l-23.04-23.125c-1.828-1.729-2.806-4.173-2.674-6.686c0.131-2.513,1.359-4.841,3.357-6.37
				l40.533-30.208l0.427,0.513L205.966,328.91z"/>
			<path style="fill:#607D8B;" d="M265.187,280.698l-59.221,48.212l-24.576-24.575l-0.427-0.512l48.128-59.307
				c1.59-1.879,3.906-2.991,6.366-3.056c2.461-0.065,4.832,0.922,6.519,2.714l23.637,23.637c1.762,1.709,2.721,4.083,2.64,6.537
				S267.059,279.109,265.187,280.698z"/>
		</g>
	</g>
	<g>
		<path d="M249.974,239.104c-3.486-3.525-8.312-5.393-13.262-5.133c-4.778,0.242-9.229,2.498-12.25,6.208l-47.438,58.467
			l-39.708,29.5c-3.933,2.932-6.396,7.431-6.746,12.325c-0.362,5.073,1.501,10.052,5.104,13.642l23.083,23.108
			c3.277,3.294,7.729,5.149,12.375,5.158c0.425,0,0.85-0.017,1.279-0.05c4.892-0.35,9.387-2.819,12.308-6.758l29.467-39.741
			l58.408-47.492c3.701-3.026,5.95-7.476,6.192-12.25c0.242-4.948-1.619-9.767-5.125-13.267L249.974,239.104z M170.832,365.154
			l-23.338-23.308l34.645-25.742l14.564,14.579L170.832,365.154z M208.569,318.406l-14.132-14.147l43.146-53.247h0.021
			c0.116,0.01,0.223,0.068,0.296,0.158l23.929,23.925L208.569,318.406z"/>
		<path d="M481.028,0.046c-10.322-0.461-20.357,3.465-27.625,10.808l-6.712,6.717c-8.402-6.719-18.503-10.977-29.179-12.301
			c-4.072-0.152-8.031,1.361-10.963,4.192l-24.117,24.143l-0.009,0.007l-0.003,0.004L237.688,178.508l-0.006,0.004l-0.002,0.002
			L62.782,353.604c-0.767,0.769-1.381,1.677-1.808,2.675l-0.063,0.148l-0.001,0.002l-26.044,60.833
			c-3.721,8.661-4.707,18.252-2.826,27.489L8.503,468.312c-10.001,9.996-10.005,26.207-0.008,36.208s26.207,10.005,36.208,0.008
			l23.515-23.543c3.01,0.62,6.075,0.936,9.148,0.944c6.304-0.006,12.541-1.296,18.33-3.792l60.761-26.065l0.02-0.009l0.14-0.06
			c0.999-0.426,1.907-1.04,2.675-1.808l343.767-344.142c9.264-9.279,1.738-25.823-8.154-40.144l8.154-8.165
			c12.522-12.569,13.358-32.625,1.925-46.192C498.989,4.498,490.283,0.316,481.028,0.046z M129.137,383.787
			c-11.996-12.573-26.045-23.01-41.546-30.863l161.376-161.551c5.004,0.05,22.026,8.395,42.996,29.39
			c21.013,21.037,29.336,38.086,29.359,43.073L159.939,425.392C151.885,410.014,141.494,395.979,129.137,383.787z M304.036,208.696
			c-11.995-12.573-26.045-23.01-41.546-30.863L393.708,46.471c5.001,0.048,22.026,8.394,42.995,29.392
			c21.027,21.048,29.35,38.104,29.36,43.074L334.838,250.304C326.781,234.927,316.391,220.891,304.036,208.696z M32.628,492.463
			c-3.379,3.2-8.671,3.2-12.05,0c-3.329-3.34-3.329-8.743,0-12.083l18.7-18.721c3.163,4.796,7.257,8.907,12.041,12.09
			L32.628,492.463z M88.97,462.454c-11.008,4.705-23.771,2.235-32.228-6.237c-8.458-8.472-10.907-21.238-6.184-32.238l24.579-57.417
			c6.079,1.042,22.275,9.617,41.925,29.292c19.671,19.692,28.237,35.917,29.267,41.992L88.97,462.454z M479.582,105.404
			c-8.057-15.377-18.449-29.413-30.804-41.609c-11.994-12.574-26.043-23.012-41.545-30.864l10.608-10.619
			c5.029,0.075,22.046,8.433,42.987,29.4c20.963,20.983,29.313,38.033,29.375,43.058L479.582,105.404z M490.982,45.688l-6.572,6.576
			c-5.417-6.407-10.073-11.182-11.507-12.618c-3.88-3.883-8.143-7.814-12.567-11.58l5.142-5.146
			c3.969-3.849,9.314-5.947,14.842-5.825c4.476,0.099,8.701,2.088,11.629,5.475C497.655,29.367,497.236,39.393,490.982,45.688
			L490.982,45.688z"/>
	</g>
</g>
<g>
</g>
<g>
</g>
<g>
</g>
<g>
</g>
<g>
</g>
<g>
</g>
<g>
</g>
<g>
</g>
<g>
</g>
<g>
</g>
<g>
</g>
<g>
</g>
<g>
</g>
<g>
</g>
<g>
</g>
</svg>
