<?xml version="1.0" encoding="iso-8859-1"?>
<!-- Generator: Adobe Illustrator 19.0.0, SVG Export Plug-In . SVG Version: 6.00 Build 0)  -->
<svg version="1.1" id="Capa_1" xmlns="http://www.w3.org/2000/svg" xmlns:xlink="http://www.w3.org/1999/xlink" x="0px" y="0px"
	 viewBox="0 0 512 512" style="enable-background:new 0 0 512 512;" xml:space="preserve">
<g>
	<g transform="translate(1 1)">
		<path style="fill:#607D8B;" d="M127,246.467h256c42.415,0,76.8,34.385,76.8,76.8v68.267c0,42.415-34.385,76.8-76.8,76.8H127
			c-42.415,0-76.8-34.385-76.8-76.8v-68.267C50.2,280.851,84.585,246.467,127,246.467z"/>
		<path style="fill:#CFD8DC;" d="M127,246.467h230.4c42.415,0,76.8,34.385,76.8,76.8v68.267c0,42.415-34.385,76.8-76.8,76.8H127
			c-42.415,0-76.8-34.385-76.8-76.8v-68.267C50.2,280.851,84.585,246.467,127,246.467z"/>
		<path style="fill:#37474F;" d="M459.8,391.533l0,34.133c-0.004,42.414-34.386,76.796-76.8,76.8h-25.6
			c31.929,0.003,60.518-19.782,71.765-49.665C448.484,438.366,459.842,415.649,459.8,391.533z"/>
		<path style="fill:#607D8B;" d="M429.165,452.802c-11.247,29.883-39.836,49.667-71.765,49.665H127
			c-31.929,0.003-60.518-19.782-71.765-49.665c-3.331-8.659-5.038-17.858-5.035-27.135l0-34.133
			c0.004,42.414,34.386,76.796,76.8,76.8h256C399.674,468.351,415.893,462.895,429.165,452.802z"/>
		<path style="fill:#1566C0;" d="M417.133,342.979c0,50.432-72.619,91.221-162.133,91.221c-4.267,0-8.619-0.085-12.8-0.341
			c-83.541-3.584-149.333-42.838-149.333-90.879c0-42.155,50.603-77.569,119.467-87.979h85.333
			C366.531,265.411,417.133,300.824,417.133,342.979z"/>
		<path style="fill:#2296F3;" d="M391.533,342.979c0,48.042-65.792,87.296-149.333,90.879
			c-83.541-3.584-149.333-42.838-149.333-90.879c0-42.155,50.603-77.569,119.467-87.979h59.733
			C340.931,265.411,391.533,300.824,391.533,342.979z"/>
		<path style="fill:#CFD8DC;" d="M297.667,280.771c20.565,9.131,34.133,24.747,34.133,42.496c0,28.245-34.389,51.2-76.8,51.2
			s-76.8-22.955-76.8-51.2c0-17.749,13.568-33.365,34.133-42.496H297.667z"/>
		<path style="fill:#2296F3;" d="M317.635,69.998l-19.968,39.935v213.333c0,9.387-19.115,17.067-42.667,17.067
			s-42.667-7.68-42.667-17.067v-76.8c0,0,0-59.733-47.36-87.893c-2.292-1.445-3.75-3.904-3.919-6.608s0.972-5.326,3.066-7.045
			l48.213-34.987l-19.968-39.935c-8.693-17.354-6.843-38.129,4.779-53.675h0.085c4.139-5.546,10.658-8.806,17.579-8.789h80.384
			c6.92-0.017,13.44,3.243,17.579,8.789h0.085C324.478,31.869,326.328,52.643,317.635,69.998z"/>
		<circle style="fill:#CFD8DC;" cx="255" cy="24.6" r="17.067"/>
		<path style="fill:#F5F5F5;" d="M297.667,127v153.6c-8.944,1.159-18.001-1.03-25.429-6.144c-6.827-6.143-8.704-18.091-8.704-39.936
			c0-38.4-8.533-30.72-8.533-69.12c-0.722-12.922,5.963-25.132,17.237-31.487C280.053,129.642,288.765,127.274,297.667,127z"/>
		<g>
			<path style="fill:#CFD8DC;" d="M220.867,67.267c0.013,4.492-1.733,8.81-4.864,12.031l-12.544,12.8l-11.093-22.1
				c-3.1-6.173-4.928-12.905-5.376-19.798h17.152c4.472,0.005,8.751,1.821,11.861,5.035
				C219.134,58.456,220.879,62.775,220.867,67.267z"/>
			<path style="fill:#CFD8DC;" d="M221.635,143.298c-3.215,3.214-7.571,5.024-12.117,5.035c-4.521-0.012-8.85-1.824-12.032-5.035
				l-13.739-12.629l28.587-20.735l9.301,9.301c3.196,3.188,4.992,7.517,4.992,12.032
				C226.626,135.781,224.83,140.109,221.635,143.298z"/>
		</g>
		<g>
			<path style="fill:#0377BC;" d="M317.635,69.998l-19.968,39.935V127c-8.902,0.274-17.614,2.642-25.429,6.913v-23.979
				l19.968-39.935c8.693-17.354,6.843-38.13-4.779-53.675h-0.085c-4.138-5.547-10.658-8.806-17.579-8.789l25.429,0
				c6.92-0.017,13.44,3.243,17.579,8.789h0.085C324.478,31.868,326.328,52.643,317.635,69.998z"/>
			<path style="fill:#0377BC;" d="M297.667,280.6v42.667c0,9.387-19.115,17.067-42.667,17.067c-4.25,0.012-8.497-0.244-12.715-0.769
				c17.323-2.133,29.952-8.703,29.952-16.298v-48.811C279.666,279.57,288.723,281.759,297.667,280.6z"/>
		</g>
		<g>
			<path style="fill:#CFD8DC;" d="M297.667,127v153.6c-8.944,1.159-18.001-1.03-25.429-6.144V133.912
				C280.053,129.642,288.765,127.273,297.667,127z"/>
			<path style="fill:#CFD8DC;" d="M323.011,50.2c-0.448,6.893-2.276,13.625-5.376,19.798l-11.093,22.1l-12.544-12.8
				c-6.485-6.71-6.485-17.353,0-24.063c3.11-3.213,7.389-5.029,11.861-5.034H323.011z"/>
		</g>
	</g>
	<g>
		<path d="M42.667,324.267v102.4C42.721,473.773,80.894,511.946,128,512h256c47.106-0.054,85.279-38.227,85.333-85.333v-102.4
			c-0.054-47.106-38.227-85.279-85.333-85.333h-76.8V112.95l19.083-38.167c3.652-7.3,5.772-15.269,6.229-23.419
			c0.001-0.058,0.033-0.106,0.033-0.165l-0.009-0.044c0.736-13.977-3.481-27.765-11.908-38.94
			C314.844,4.545,305.801,0.024,296.192,0h-80.384c-9.615,0.025-18.662,4.553-24.446,12.233
			c-8.425,11.171-12.639,24.957-11.9,38.929l-0.007,0.038l0.029,0.143c0.456,8.157,2.578,16.135,6.234,23.441l16.75,33.5
			l-42.767,31.05c-4.286,3.584-6.57,9.022-6.129,14.592c0.413,5.384,3.413,10.234,8.046,13.008c32.362,19.23,40.46,55.527,42.491,72
			H128C80.894,238.987,42.721,277.161,42.667,324.267z M384,494.933H128c-29.524-0.045-55.683-19.039-64.866-47.099
			c16.168,19.044,39.884,30.025,64.866,30.032h256c24.981-0.008,48.698-10.988,64.866-30.032
			C439.683,475.894,413.524,494.889,384,494.933z M452.267,324.267v68.267c-0.043,37.685-30.582,68.224-68.267,68.267H128
			c-37.685-0.043-68.224-30.582-68.267-68.267v-68.267C59.776,286.582,90.315,256.043,128,256h47.284
			c-54.379,16.935-89.951,50.458-89.951,87.983c0,55.933,74.967,99.75,170.667,99.75s170.667-43.817,170.667-99.75
			c0-37.525-35.572-71.048-89.951-87.983H384C421.685,256.043,452.224,286.582,452.267,324.267z M301.112,74.35
			c-3.259-3.397-3.261-8.759-0.004-12.158c1.502-1.568,3.579-2.455,5.75-2.458h6.958c-0.703,2.553-1.64,5.036-2.8,7.417
			l-5.729,11.458L301.112,74.35z M204.8,276.548c-21.413,11.144-34.133,28.621-34.133,47.718C170.667,357.2,208.946,384,256,384
			s85.333-26.8,85.333-59.733c0-19.098-12.72-36.575-34.133-47.718v-10.385c60.757,11.655,102.4,42.87,102.4,77.82
			c0,44.817-70.342,82.684-153.6,82.684S102.4,388.8,102.4,343.983c0-34.95,41.643-66.165,102.4-77.82V276.548z M290.133,272.907
			c-13.524-0.772-17.067-5.701-17.067-37.39c0.455-12.446-1.091-24.885-4.579-36.842c-3.057-10.473-4.392-21.374-3.954-32.275
			c-0.312-14.837,10.834-27.421,25.6-28.902V272.907z M307.2,324.267v-27.93c9.904,5.968,16.274,16.393,17.067,27.93
			c0,23.125-31.262,42.667-68.267,42.667s-68.267-19.541-68.267-42.667c0.792-11.536,7.162-21.961,17.067-27.93v27.93
			c0,17.592,26.542,25.6,51.2,25.6S307.2,341.858,307.2,324.267z M264.533,25.6c0,4.713-3.821,8.533-8.533,8.533
			c-4.713,0-8.533-3.821-8.533-8.533s3.821-8.533,8.533-8.533C260.711,17.071,264.529,20.889,264.533,25.6z M210.908,74.325
			l-4.197,4.281l-5.728-11.456c-1.16-2.381-2.097-4.864-2.799-7.417h6.957c2.168,0.003,4.242,0.887,5.746,2.45
			C214.141,65.574,214.15,70.924,210.908,74.325z M212.452,122.119l4.148,4.148c2.172,2.191,2.99,5.386,2.139,8.352
			c-0.852,2.966-3.24,5.239-6.244,5.944c-3.004,0.705-6.154-0.269-8.236-2.546l-6.048-5.563L212.452,122.119z M170.175,152.8
			l13.943-10.119l8.335,7.66c4.776,4.817,11.279,7.526,18.063,7.525c6.806-0.023,13.329-2.73,18.15-7.533
			c9.962-9.984,9.962-26.149,0-36.133l-8.317-8.317l-5.564-11.127l8.334-8.506c9.707-10.028,9.705-25.949-0.004-35.975
			c-4.708-4.875-11.198-7.622-17.975-7.608h-8.277c0.921-7.327,3.732-14.288,8.156-20.2c2.552-3.39,6.545-5.389,10.788-5.4h16.164
			c-1.012,2.733-1.543,5.62-1.572,8.533c0,14.138,11.462,25.6,25.6,25.6c14.139,0,25.6-11.462,25.6-25.6
			c-0.029-2.914-0.561-5.801-1.572-8.533h16.164c4.244,0.016,8.238,2.013,10.796,5.4c4.423,5.913,7.231,12.874,8.151,20.2h-8.28
			c-6.78-0.014-13.273,2.736-17.979,7.617c-9.714,10.034-9.704,25.969,0.021,35.992l8.314,8.481l-6.18,12.36
			c-0.041,0.083-0.031,0.173-0.069,0.256c-0.332,1.083-0.592,2.187-0.78,3.305c-0.003,0.09-0.051,0.165-0.051,0.256v9.231
			c-18.172,2.736-42.667,14.473-42.667,46.235c-0.455,12.446,1.091,24.885,4.579,36.842c3.057,10.473,4.392,21.374,3.954,32.275
			c0,35.285,5.051,51.714,34.133,54.229v34.133c-1.374,2.619-13.191,8.921-34.133,8.921c-21.167,0-33.05-6.45-34.133-8.533v-76.8
			C221.867,244.833,221.279,182.525,170.175,152.8L170.175,152.8z"/>
		<path d="M130.475,338.859c2.441,2.444,6.125,3.154,9.3,1.792c1.034-0.433,1.987-1.039,2.817-1.792
			c1.604-1.606,2.496-3.789,2.475-6.059c-0.033-2.259-0.917-4.422-2.475-6.059c-0.429-0.341-0.854-0.683-1.279-1.025
			c-0.475-0.325-0.992-0.582-1.538-0.767c-0.485-0.246-1.003-0.42-1.537-0.517c-1.664-0.348-3.394-0.167-4.95,0.517
			c-1.044,0.412-1.998,1.02-2.813,1.792c-1.559,1.635-2.444,3.799-2.475,6.058c-0.016,1.109,0.186,2.211,0.596,3.242
			C129.091,337.062,129.723,338.009,130.475,338.859z"/>
		<path d="M159.659,360.875c-0.407-0.366-0.834-0.708-1.279-1.025c-0.475-0.325-0.992-0.582-1.538-0.767
			c-0.485-0.246-1.003-0.42-1.537-0.517c-2.811-0.571-5.721,0.295-7.763,2.308c-0.773,0.815-1.383,1.772-1.796,2.817
			c-0.906,2.066-0.906,4.417,0,6.483c0.78,2.141,2.467,3.828,4.608,4.608c2.067,0.911,4.421,0.911,6.487,0
			c1.034-0.433,1.987-1.039,2.817-1.792c0.751-0.832,1.357-1.784,1.792-2.817c0.911-2.065,0.911-4.418,0-6.483
			C161.037,362.647,160.429,361.691,159.659,360.875z"/>
		<path d="M147.541,313.259c3.365,3.3,8.752,3.3,12.117,0c0.751-0.832,1.357-1.784,1.792-2.817c0.478-1.012,0.713-2.123,0.683-3.242
			c-0.033-2.259-0.917-4.422-2.475-6.059c-0.83-0.753-1.783-1.359-2.817-1.792c-1.556-0.684-3.286-0.865-4.95-0.517
			c-0.535,0.096-1.053,0.27-1.537,0.517c-0.543,0.185-1.059,0.443-1.533,0.767c-0.429,0.341-0.854,0.683-1.279,1.025
			c-1.56,1.635-2.444,3.799-2.475,6.059c0.012,1.115,0.243,2.216,0.679,3.242C146.181,311.475,146.788,312.428,147.541,313.259z"/>
		<path d="M187.733,401.067c1.115-0.014,2.216-0.246,3.242-0.683c1.034-0.433,1.987-1.039,2.817-1.792
			c1.591-1.614,2.48-3.791,2.475-6.058c-0.033-2.259-0.917-4.422-2.475-6.059c-0.816-0.771-1.772-1.379-2.817-1.792
			c-2.077-0.858-4.41-0.858-6.487,0c-1.044,0.412-1.998,1.02-2.813,1.792c-1.56,1.635-2.444,3.799-2.475,6.059
			c-0.022,2.27,0.87,4.453,2.475,6.058S185.463,401.089,187.733,401.067z"/>
		<path d="M252.754,413.183c2.066,0.911,4.421,0.911,6.487,0c1.034-0.433,1.987-1.039,2.817-1.792
			c1.604-1.606,2.496-3.788,2.475-6.058c-0.033-2.259-0.917-4.422-2.475-6.059c-0.83-0.753-1.783-1.359-2.817-1.792
			c-1.556-0.684-3.286-0.865-4.95-0.517c-0.535,0.096-1.053,0.27-1.537,0.517c-0.543,0.185-1.059,0.443-1.533,0.767
			c-0.429,0.341-0.854,0.683-1.279,1.025c-1.559,1.635-2.443,3.799-2.475,6.059c-0.023,2.27,0.869,4.454,2.475,6.059
			C250.771,412.145,251.722,412.751,252.754,413.183z"/>
		<path d="M215.808,407.125c0.829,0.753,1.78,1.359,2.813,1.792c2.067,0.911,4.421,0.911,6.487,0
			c1.034-0.433,1.987-1.039,2.817-1.792c0.751-0.832,1.357-1.784,1.792-2.817c0.478-1.012,0.713-2.123,0.683-3.242
			c-0.014-1.115-0.246-2.216-0.683-3.242c-0.393-1.054-1.004-2.014-1.792-2.817c-0.407-0.366-0.834-0.708-1.279-1.025
			c-0.475-0.325-0.992-0.582-1.538-0.767c-0.485-0.246-1.003-0.42-1.537-0.517c-1.124-0.25-2.289-0.25-3.413,0
			c-0.535,0.096-1.053,0.27-1.537,0.517c-0.543,0.185-1.059,0.443-1.533,0.767c-0.447,0.315-0.874,0.657-1.279,1.025
			c-0.791,0.801-1.403,1.761-1.796,2.817c-0.906,2.066-0.906,4.417,0,6.483C214.447,405.342,215.054,406.295,215.808,407.125z"/>
		<path d="M369.408,338.859c2.441,2.444,6.125,3.154,9.3,1.792c1.034-0.433,1.987-1.039,2.817-1.792
			c0.751-0.832,1.357-1.784,1.792-2.817c0.438-1.026,0.67-2.127,0.683-3.242c-0.033-2.259-0.917-4.422-2.475-6.059
			c-0.429-0.341-0.854-0.683-1.279-1.025c-0.475-0.325-0.992-0.582-1.538-0.767c-0.485-0.246-1.003-0.42-1.537-0.517
			c-1.664-0.348-3.394-0.167-4.95,0.517c-1.044,0.412-1.998,1.02-2.813,1.792c-1.56,1.635-2.444,3.799-2.475,6.058
			C366.91,335.07,367.802,337.254,369.408,338.859z"/>
		<path d="M352.341,372.992c0.829,0.753,1.78,1.359,2.813,1.792c2.066,0.911,4.421,0.911,6.487,0
			c1.034-0.433,1.987-1.039,2.817-1.792c0.751-0.832,1.357-1.784,1.792-2.817c0.911-2.065,0.911-4.418,0-6.483
			c-0.413-1.044-1.021-2-1.792-2.817c-2.044-2.014-4.955-2.879-7.767-2.308c-0.535,0.096-1.053,0.27-1.537,0.517
			c-0.524,0.169-1.015,0.428-1.45,0.767c-0.489,0.293-0.945,0.636-1.362,1.024c-0.773,0.815-1.383,1.772-1.796,2.817
			c-0.906,2.066-0.906,4.417,0,6.483C350.98,371.209,351.588,372.161,352.341,372.992z"/>
		<path d="M352.341,313.259c3.365,3.3,8.752,3.3,12.117,0c0.749-0.85,1.379-1.798,1.875-2.817c0.413-1.03,0.617-2.132,0.6-3.242
			c-0.033-2.259-0.917-4.422-2.475-6.059c-0.816-0.771-1.772-1.379-2.817-1.792c-1.556-0.684-3.286-0.865-4.95-0.517
			c-0.535,0.096-1.053,0.27-1.537,0.517c-0.543,0.185-1.059,0.443-1.533,0.767c-0.429,0.341-0.854,0.683-1.279,1.025
			c-1.56,1.635-2.444,3.799-2.475,6.059c0.012,1.115,0.243,2.216,0.679,3.242C350.981,311.475,351.588,312.428,352.341,313.259z"/>
		<path d="M324.267,401.067c1.115-0.014,2.216-0.246,3.242-0.683c1.034-0.433,1.987-1.039,2.817-1.792
			c1.604-1.606,2.496-3.788,2.475-6.058c-0.033-2.259-0.917-4.422-2.475-6.059c-2.473-2.388-6.122-3.09-9.304-1.792
			c-1.033,0.433-1.984,1.039-2.813,1.792c-1.56,1.635-2.444,3.799-2.475,6.059c-0.022,2.27,0.87,4.453,2.475,6.058
			C319.814,400.197,321.997,401.089,324.267,401.067z"/>
		<path d="M284.075,407.125c0.829,0.753,1.78,1.359,2.813,1.792c2.067,0.911,4.421,0.911,6.487,0
			c1.034-0.433,1.987-1.039,2.817-1.792c0.751-0.832,1.357-1.784,1.792-2.817c0.478-1.012,0.713-2.123,0.683-3.242
			c-0.014-1.115-0.246-2.216-0.683-3.242c-0.393-1.054-1.004-2.014-1.792-2.817c-2.05-2.002-4.956-2.866-7.767-2.308
			c-0.535,0.096-1.053,0.27-1.537,0.517c-0.543,0.185-1.059,0.443-1.533,0.767c-0.447,0.315-0.874,0.657-1.279,1.025
			c-0.791,0.801-1.403,1.761-1.796,2.817c-0.906,2.066-0.906,4.417,0,6.483C282.714,405.342,283.321,406.295,284.075,407.125z"/>
	</g>
</g>
<g>
</g>
<g>
</g>
<g>
</g>
<g>
</g>
<g>
</g>
<g>
</g>
<g>
</g>
<g>
</g>
<g>
</g>
<g>
</g>
<g>
</g>
<g>
</g>
<g>
</g>
<g>
</g>
<g>
</g>
</svg>
