<?xml version="1.0" encoding="iso-8859-1"?>
<!-- Generator: Adobe Illustrator 19.0.0, SVG Export Plug-In . SVG Version: 6.00 Build 0)  -->
<svg version="1.1" id="Capa_1" xmlns="http://www.w3.org/2000/svg" xmlns:xlink="http://www.w3.org/1999/xlink" x="0px" y="0px"
	 viewBox="0 0 512 512" style="enable-background:new 0 0 512 512;" xml:space="preserve">
<g>
	<g transform="translate(1 1)">
		<path style="fill:#3F51B5;" d="M374.467,425.667h68.267v68.267c0,4.713-3.82,8.533-8.533,8.533H383
			c-4.713,0-8.533-3.82-8.533-8.533V425.667z"/>
		<path style="fill:#2E7D32;" d="M502.467,135.533V298.52c0,15.843-6.292,31.036-17.493,42.24l-31.232,31.232
			c-1.57,1.594-2.457,3.736-2.475,5.973v64.768c-0.014,4.707-3.826,8.52-8.533,8.533h-68.267c-4.707-0.014-8.52-3.826-8.533-8.533
			v-64.768c-0.017-2.237-0.905-4.379-2.475-5.973l-31.231-31.232c-11.201-11.203-17.494-26.397-17.494-42.24V135.533
			c0.014-4.707,3.826-8.52,8.533-8.533h68.267c0.324,2.501,1.947,4.643,4.267,5.632c3.953,2.034,8.357,3.032,12.8,2.901
			c9.387,0,17.067-3.84,17.067-8.533h68.267C498.641,127.014,502.453,130.826,502.467,135.533z"/>
		<g>
			<path style="fill:#4CAF50;" d="M476.867,135.533V298.52c0,15.843-6.292,31.036-17.493,42.24l-31.232,31.232
				c-1.57,1.594-2.457,3.736-2.475,5.973v64.768c-0.014,4.707-3.826,8.52-8.533,8.533h-42.667c-4.707-0.014-8.52-3.826-8.533-8.533
				v-64.768c-0.017-2.237-0.905-4.379-2.475-5.973l-31.231-31.232c-11.201-11.203-17.494-26.397-17.494-42.24V135.533
				c0.014-4.707,3.826-8.52,8.533-8.533h42.667c0,4.693,7.68,8.533,17.067,8.533c4.443,0.13,8.847-0.868,12.8-2.901
				c2.319-0.989,3.942-3.131,4.267-5.632h68.267C473.041,127.014,476.853,130.826,476.867,135.533z"/>
			<path style="fill:#4CAF50;" d="M246.467,144.067H229.4V84.333h-34.133v59.733H75.8V84.333H41.667v59.733H24.6
				c-9.414,0.028-17.039,7.652-17.067,17.067v121.003c0.002,5.275,0.838,10.516,2.475,15.531c1.399,4.576,3.469,8.918,6.144,12.885
				l37.546,56.32c3.14,4.758,8.466,7.614,14.167,7.595h25.002v68.267h8.533v51.2c0,4.713,3.821,8.533,8.533,8.533h51.2
				c4.713,0,8.533-3.82,8.533-8.533v-51.2h8.533v-68.267h25.002c5.701,0.019,11.027-2.836,14.167-7.595l37.546-56.32
				c2.675-3.967,4.745-8.31,6.144-12.885c1.637-5.014,2.472-10.256,2.475-15.531V161.133
				C263.506,151.719,255.881,144.094,246.467,144.067z"/>
		</g>
		<path style="fill:#3F51B5;" d="M169.667,442.733v51.2c-0.014,4.707-3.826,8.52-8.533,8.533h-51.2
			c-4.707-0.014-8.52-3.826-8.533-8.533v-51.2H169.667z"/>
		<path style="fill:#2E7D32;" d="M425.667,127v93.867c0,9.426-7.641,17.067-17.067,17.067s-17.067-7.641-17.067-17.067V127
			c0,4.693,7.68,8.533,17.067,8.533S425.667,131.693,425.667,127z"/>
		<g>
			<path style="fill:#4CAF50;" d="M58.733,144.067v153.6H10.008c-1.637-5.014-2.472-10.256-2.475-15.531V161.133
				c0.028-9.414,7.652-17.039,17.067-17.067H58.733z"/>
			<path style="fill:#4CAF50;" d="M261.059,297.667c-1.399,4.576-3.469,8.918-6.144,12.885l-37.546,56.32
				c-3.14,4.758-8.466,7.614-14.167,7.595H67.865c-5.701,0.019-11.027-2.836-14.167-7.595l-37.546-56.32
				c-2.675-3.967-4.745-8.31-6.144-12.885H261.059z"/>
			<path style="fill:#4CAF50;" d="M263.533,161.133v121.003c-0.002,5.275-0.838,10.516-2.475,15.531h-48.725v-153.6h34.133
				C255.881,144.094,263.506,151.719,263.533,161.133z"/>
			<rect x="92.867" y="374.467" style="fill:#4CAF50;" width="85.333" height="68.267"/>
		</g>
		<path style="fill:#CFD8DC;" d="M58.733,7.533c9.426,0,17.067,7.641,17.067,17.067v76.8H41.667V24.6
			C41.667,15.174,49.308,7.533,58.733,7.533z"/>
		<rect x="41.667" y="101.4" style="fill:#3F51B5;" width="34.133" height="42.667"/>
		<path style="fill:#CFD8DC;" d="M212.333,7.533c9.426,0,17.067,7.641,17.067,17.067v76.8h-34.133V24.6
			C195.267,15.174,202.908,7.533,212.333,7.533z"/>
		<rect x="195.267" y="101.4" style="fill:#3F51B5;" width="34.133" height="42.667"/>
		<g>
			<path style="fill:#2E7D32;" d="M263.533,161.133v121.003c-0.002,5.275-0.838,10.516-2.475,15.531
				c-1.399,4.576-3.469,8.918-6.144,12.885l-37.546,56.32c-3.14,4.758-8.466,7.614-14.167,7.595l-25.002,0v-0.085
				c5.484-0.113,10.56-2.922,13.569-7.509l37.546-56.32c2.675-3.967,4.745-8.31,6.144-12.885c1.637-5.014,2.472-10.256,2.475-15.531
				V161.133c0-5.675-2.813-10.981-7.509-14.165v-2.901h16.043C255.881,144.094,263.506,151.719,263.533,161.133z"/>
			<path style="fill:#2E7D32;" d="M178.2,374.381v68.352h-25.6v-68.267h25.002C177.805,374.48,178.009,374.451,178.2,374.381z"/>
		</g>
		<path style="fill:#283593;" d="M169.667,442.733v51.2c-0.014,4.707-3.826,8.52-8.533,8.533h-25.6
			c4.707-0.014,8.52-3.826,8.533-8.533v-51.2H169.667z"/>
	</g>
	<g>
		<path d="M494.933,119.467h-68.267c-1.068,0.009-2.124,0.223-3.113,0.628c-0.315,0.152-0.62,0.325-0.914,0.516
			c-0.596,0.305-1.153,0.681-1.659,1.118c-0.714,0.727-1.329,1.545-1.829,2.432c-0.189,0.373-0.348,0.761-0.478,1.158
			c-0.125,0.263-0.236,0.532-0.332,0.807c-5.56,2.5-11.924,2.5-17.483,0c-0.096-0.274-0.206-0.543-0.331-0.805
			c-0.504-1.349-1.291-2.574-2.308-3.593c-0.506-0.436-1.062-0.811-1.656-1.116c-0.294-0.192-0.6-0.365-0.917-0.518
			c-0.988-0.405-2.045-0.618-3.113-0.627h-68.267c-9.421,0.012-17.054,7.646-17.067,17.067v162.983
			c0.048,18.096,7.231,35.443,19.992,48.275l31.208,31.175v64.767c0.021,6.069,3.272,11.667,8.533,14.692v36.508
			c0.012,9.421,7.646,17.054,17.067,17.067h51.2c9.421-0.012,17.054-7.646,17.067-17.067v-36.508
			c5.261-3.025,8.512-8.623,8.533-14.692l-0.01-25.551l0.01-0.049l-0.01-0.049l-0.015-39.059l31.233-31.233
			c12.76-12.832,19.944-30.179,19.992-48.275V136.533C511.988,127.113,504.354,119.479,494.933,119.467z M418.133,144.208v77.658
			c0,4.713-3.82,8.533-8.533,8.533s-8.533-3.821-8.533-8.533v-77.658C406.701,145.325,412.499,145.325,418.133,144.208z
			 M384,494.933V460.8h51.2l0.017,34.133H384z M494.933,299.517c-0.037,13.572-5.424,26.582-14.992,36.208l-31.233,31.233
			c-3.173,3.193-4.96,7.507-4.975,12.008V409.6h-17.067c-4.713,0-8.533,3.821-8.533,8.533c0,4.713,3.821,8.533,8.533,8.533h17.067
			v17.067h-68.267v-17.067h17.067c4.713,0,8.533-3.821,8.533-8.533c0-4.713-3.821-8.533-8.533-8.533h-17.067v-30.633
			c-0.015-4.501-1.802-8.816-4.975-12.008l-31.233-31.233c-9.568-9.626-14.954-22.636-14.992-36.208V136.533H384v85.333
			c0,14.138,11.462,25.6,25.6,25.6c14.138,0,25.6-11.462,25.6-25.6v-85.333h59.733V299.517z"/>
		<path d="M47.583,372.583c4.72,7.146,12.719,11.437,21.283,11.417h16.467v59.733c-0.001,2.264,0.897,4.435,2.498,6.035
			c1.601,1.601,3.772,2.499,6.035,2.498v42.667c0.012,9.421,7.646,17.054,17.067,17.067h51.2
			c9.421-0.012,17.054-7.646,17.067-17.067v-42.667c2.264,0.001,4.435-0.897,6.035-2.498c1.601-1.601,2.499-3.772,2.498-6.035V384
			H204.2c8.554,0.023,16.546-4.258,21.267-11.392l37.55-56.3c6.565-9.808,10.064-21.347,10.05-33.15V162.133
			c-0.015-14.132-11.468-25.585-25.6-25.6h-8.533V25.6c0-14.138-11.462-25.6-25.6-25.6s-25.6,11.462-25.6,25.6v110.933h-102.4V25.6
			c0-14.138-11.462-25.6-25.6-25.6s-25.6,11.462-25.6,25.6v110.933H25.6c-14.132,0.015-25.585,11.468-25.6,25.6v121.025
			c-0.014,11.799,3.481,23.335,10.042,33.142L47.583,372.583z M162.15,494.933h-51.217v-42.667h51.2L162.15,494.933z
			 M170.667,401.067H153.6c-4.713,0-8.533,3.82-8.533,8.533s3.821,8.533,8.533,8.533h17.067V435.2H102.4v-17.067h17.067
			c4.713,0,8.533-3.82,8.533-8.533s-3.821-8.533-8.533-8.533H102.4V384h68.267V401.067z M211.25,363.167
			c-1.566,2.363-4.216,3.779-7.05,3.767H68.867c-2.844,0.01-5.502-1.416-7.067-3.792L24.483,307.2H248.58L211.25,363.167z
			 M76.8,153.6h128v136.533H68.267V153.6H76.8z M256,162.133v121.025c-0.015,2.338-0.221,4.671-0.618,6.975h-33.516V153.6h25.6
			C252.178,153.603,255.997,157.422,256,162.133z M204.8,25.6c0-4.713,3.821-8.533,8.533-8.533s8.533,3.821,8.533,8.533v68.267
			H204.8V25.6z M204.8,110.933h17.067v25.6H204.8V110.933z M51.2,25.6c0-4.713,3.821-8.533,8.533-8.533s8.533,3.821,8.533,8.533
			v68.267H51.2V25.6z M51.2,110.933h17.067v25.6H51.2V110.933z M17.067,162.133c0.003-4.712,3.822-8.53,8.533-8.533h25.6v136.533
			H17.684c-0.396-2.304-0.603-4.637-0.618-6.975V162.133z"/>
	</g>
</g>
<g>
</g>
<g>
</g>
<g>
</g>
<g>
</g>
<g>
</g>
<g>
</g>
<g>
</g>
<g>
</g>
<g>
</g>
<g>
</g>
<g>
</g>
<g>
</g>
<g>
</g>
<g>
</g>
<g>
</g>
</svg>
