<?xml version="1.0" encoding="iso-8859-1"?>
<!-- Generator: Adobe Illustrator 19.0.0, SVG Export Plug-In . SVG Version: 6.00 Build 0)  -->
<svg version="1.1" id="Capa_1" xmlns="http://www.w3.org/2000/svg" xmlns:xlink="http://www.w3.org/1999/xlink" x="0px" y="0px"
	 viewBox="0 0 512 512" style="enable-background:new 0 0 512 512;" xml:space="preserve">
<g>
	<g transform="translate(1 1)">
		<path style="fill:#AD1457;" d="M502.467,58.733v443.733H7.533V58.733c0.028-9.414,7.652-17.039,17.067-17.067h460.8
			C494.814,41.694,502.439,49.319,502.467,58.733z"/>
		<path style="fill:#E91E63;" d="M476.867,58.733v443.733H7.533V58.733c0.028-9.414,7.652-17.039,17.067-17.067h435.2
			C469.214,41.694,476.839,49.319,476.867,58.733z"/>
		<path style="fill:#C52828;" d="M408.6,24.6v477.867H101.4V24.6c0.028-9.414,7.652-17.039,17.067-17.067h273.067
			C400.948,7.561,408.573,15.186,408.6,24.6z"/>
		<path style="fill:#F44335;" d="M383,24.6v477.867H101.4V24.6c0.028-9.414,7.652-17.039,17.067-17.067h247.467
			C375.348,7.561,382.973,15.186,383,24.6z"/>
		<circle style="fill:#FFEB3A;" cx="255" cy="314.733" r="59.733"/>
		<g>
			<path style="fill:#C52828;" d="M186.733,186.733h136.533V203.8c0,9.426-7.641,17.067-17.067,17.067H203.8
				c-9.426,0-17.067-7.641-17.067-17.067V186.733z"/>
			<path style="fill:#C52828;" d="M186.733,118.467h136.533v17.067c0,9.426-7.641,17.067-17.067,17.067H203.8
				c-9.426,0-17.067-7.641-17.067-17.067V118.467z"/>
		</g>
		<path style="fill:#FFEB3A;" d="M186.733,50.2h136.533v17.067c0,9.426-7.641,17.067-17.067,17.067H203.8
			c-9.426,0-17.067-7.641-17.067-17.067V50.2z"/>
	</g>
	<g>
		<path d="M486.4,34.133h-68.267V25.6c-0.015-14.132-11.468-25.585-25.6-25.6H119.467c-14.132,0.015-25.585,11.468-25.6,25.6v8.533
			H25.6C11.468,34.149,0.015,45.601,0,59.733v443.733c-0.001,2.264,0.897,4.435,2.498,6.035c1.601,1.601,3.772,2.499,6.035,2.498
			h494.933c2.264,0.001,4.435-0.897,6.035-2.498c1.601-1.601,2.499-3.772,2.498-6.035V59.733
			C511.985,45.601,500.532,34.149,486.4,34.133z M17.067,59.733c0.003-4.712,3.822-8.53,8.533-8.533h68.267v443.733h-76.8V59.733z
			 M110.933,494.933V25.6c0.003-4.712,3.822-8.53,8.533-8.533h273.067c4.712,0.003,8.53,3.822,8.533,8.533v469.333H110.933z
			 M494.933,494.933h-76.8V51.2H486.4c4.712,0.003,8.53,3.822,8.533,8.533V494.933z"/>
		<path d="M256,247.467c-37.703,0-68.267,30.564-68.267,68.267S218.297,384,256,384c37.703,0,68.267-30.564,68.267-68.267
			C324.224,278.049,293.685,247.51,256,247.467z M256,366.933c-28.277,0-51.2-22.923-51.2-51.2c0-28.277,22.923-51.2,51.2-51.2
			c28.277,0,51.2,22.923,51.2,51.2C307.169,343.997,284.264,366.902,256,366.933z"/>
		<path d="M266.733,290.983c-1.517,1.679-2.304,3.893-2.189,6.153c0.116,2.26,1.125,4.382,2.805,5.897
			c5.29,4.71,7.12,12.198,4.6,18.818c-2.52,6.619-8.867,10.994-15.95,10.994c-7.083,0-13.43-4.375-15.95-10.994
			c-2.52-6.619-0.69-14.107,4.6-18.818c2.267-2.041,3.271-5.138,2.634-8.121c-0.637-2.983-2.818-5.399-5.72-6.337
			c-2.903-0.938-6.085-0.255-8.347,1.791c-10.533,9.442-14.151,24.402-9.096,37.614c5.055,13.211,17.734,21.936,31.88,21.936
			c14.145,0,26.825-8.725,31.88-21.936c5.055-13.212,1.437-28.172-9.096-37.614c-1.679-1.517-3.893-2.304-6.153-2.188
			C270.371,288.294,268.249,289.303,266.733,290.983z"/>
		<path d="M324.267,179.2H187.733c-2.264-0.001-4.435,0.897-6.035,2.498s-2.499,3.772-2.498,6.035V204.8
			c0.015,14.132,11.468,25.585,25.6,25.6h102.4c14.132-0.015,25.585-11.468,25.6-25.6v-17.067c0.001-2.264-0.897-4.435-2.498-6.035
			C328.701,180.097,326.53,179.199,324.267,179.2z M315.733,204.8c-0.003,4.712-3.822,8.53-8.533,8.533H204.8
			c-4.712-0.003-8.53-3.822-8.533-8.533v-8.533h119.467V204.8z"/>
		<path d="M324.267,110.933H187.733c-2.264-0.001-4.435,0.897-6.035,2.498c-1.601,1.601-2.499,3.772-2.498,6.035v17.067
			c0.015,14.132,11.468,25.585,25.6,25.6h102.4c14.132-0.015,25.585-11.468,25.6-25.6v-17.067c0.001-2.264-0.897-4.435-2.498-6.035
			C328.701,111.831,326.53,110.932,324.267,110.933z M315.733,136.533c-0.003,4.712-3.822,8.53-8.533,8.533H204.8
			c-4.712-0.003-8.53-3.822-8.533-8.533V128h119.467V136.533z"/>
		<path d="M324.267,42.667H187.733c-2.264-0.001-4.435,0.897-6.035,2.498c-1.601,1.601-2.499,3.772-2.498,6.035v17.067
			c0.015,14.132,11.468,25.585,25.6,25.6h102.4c14.132-0.015,25.585-11.468,25.6-25.6V51.2c0.001-2.264-0.897-4.435-2.498-6.035
			C328.701,43.564,326.53,42.665,324.267,42.667z M315.733,68.267c-0.003,4.712-3.822,8.53-8.533,8.533H204.8
			c-4.712-0.003-8.53-3.822-8.533-8.533v-8.533h119.467V68.267z"/>
		<path d="M273.067,409.6h-76.8c-4.713,0-8.533,3.82-8.533,8.533s3.821,8.533,8.533,8.533h76.8c4.713,0,8.533-3.82,8.533-8.533
			S277.78,409.6,273.067,409.6z"/>
		<path d="M315.733,409.6H307.2c-4.713,0-8.533,3.82-8.533,8.533s3.82,8.533,8.533,8.533h8.533c4.713,0,8.533-3.82,8.533-8.533
			S320.446,409.6,315.733,409.6z"/>
	</g>
</g>
<g>
</g>
<g>
</g>
<g>
</g>
<g>
</g>
<g>
</g>
<g>
</g>
<g>
</g>
<g>
</g>
<g>
</g>
<g>
</g>
<g>
</g>
<g>
</g>
<g>
</g>
<g>
</g>
<g>
</g>
</svg>
