<?xml version="1.0" encoding="iso-8859-1"?>
<!-- Generator: Adobe Illustrator 19.0.0, SVG Export Plug-In . SVG Version: 6.00 Build 0)  -->
<svg version="1.1" id="Capa_1" xmlns="http://www.w3.org/2000/svg" xmlns:xlink="http://www.w3.org/1999/xlink" x="0px" y="0px"
	 viewBox="0 0 512.114 512.114" style="enable-background:new 0 0 512.114 512.114;" xml:space="preserve">
<g transform="translate(-1)">
	<g transform="translate(1 1)">
		<path style="fill:#283593;" d="M111.048,229.457h375.467c9.426,0,17.067,7.641,17.067,17.067v153.6
			c0,9.426-7.641,17.067-17.067,17.067H111.048c-9.426,0-17.067-7.641-17.067-17.067v-153.6
			C93.981,237.098,101.622,229.457,111.048,229.457z"/>
		<path style="fill:#3F51B5;" d="M111.048,229.457h349.867c9.426,0,17.067,7.641,17.067,17.067v153.6
			c0,9.426-7.641,17.067-17.067,17.067H111.048c-9.426,0-17.067-7.641-17.067-17.067v-153.6
			C93.981,237.098,101.622,229.457,111.048,229.457z"/>
		<path style="fill:#0377BC;" d="M179.314,195.324h238.933c9.426,0,17.067,7.641,17.067,17.067v221.867
			c0,9.426-7.641,17.067-17.067,17.067H179.314c-9.426,0-17.067-7.641-17.067-17.067V212.391
			C162.248,202.965,169.889,195.324,179.314,195.324z"/>
		<path style="fill:#02A9F4;" d="M179.314,195.324h213.333c9.426,0,17.067,7.641,17.067,17.067v221.867
			c0,9.426-7.641,17.067-17.067,17.067H179.314c-9.426,0-17.067-7.641-17.067-17.067V212.391
			C162.248,202.965,169.889,195.324,179.314,195.324z"/>
		<path style="fill:#E91E63;" d="M51.314,67.324v25.6H15.986l0.683-25.856c0.154-4.606,3.925-8.263,8.533-8.277h17.579
			C47.488,58.805,51.3,62.617,51.314,67.324z"/>
		<g>
			<path style="fill:#CFD8DC;" d="M51.314,92.924v281.6c-0.014,4.707-3.826,8.519-8.533,8.533H17.096
				c-2.315,0.022-4.538-0.905-6.15-2.566c-1.613-1.661-2.474-3.91-2.383-6.223l7.424-281.344H51.314z"/>
			<path style="fill:#CFD8DC;" d="M204.914,229.457h136.533c4.713,0,8.533,3.821,8.533,8.533v34.133
				c0,4.713-3.821,8.533-8.533,8.533H204.914c-4.713,0-8.533-3.821-8.533-8.533v-34.133
				C196.381,233.278,200.201,229.457,204.914,229.457z"/>
			<rect x="51.314" y="306.257" style="fill:#CFD8DC;" width="76.8" height="34.133"/>
			<rect x="128.114" y="306.257" style="fill:#CFD8DC;" width="34.133" height="34.133"/>
		</g>
	</g>
	<g>
		<path d="M132.356,272.441c1.034-0.434,1.986-1.04,2.817-1.792c2.444-2.441,3.154-6.125,1.792-9.3
			c-0.412-1.045-1.02-2.001-1.792-2.817c-2.044-2.013-4.955-2.878-7.767-2.308c-0.534,0.096-1.05,0.27-1.533,0.517
			c-0.546,0.184-1.065,0.442-1.542,0.767l-1.275,1.025c-0.772,0.816-1.38,1.772-1.792,2.817c-0.437,1.026-0.669,2.127-0.683,3.242
			c-0.031,1.119,0.203,2.23,0.683,3.242c0.434,1.034,1.04,1.986,1.792,2.817C125.498,273.093,129.182,273.803,132.356,272.441
			L132.356,272.441z"/>
		<path d="M135.173,377.999c-3.421-3.158-8.695-3.158-12.117,0c-0.754,0.829-1.36,1.782-1.792,2.817
			c-1.337,3.189-0.614,6.87,1.829,9.317c2.443,2.447,6.123,3.175,9.314,1.843c3.191-1.332,5.261-4.46,5.24-7.918
			C137.614,381.798,136.731,379.635,135.173,377.999z"/>
		<path d="M468.739,256.224c-0.534,0.096-1.05,0.27-1.533,0.517c-0.546,0.184-1.065,0.442-1.542,0.767l-1.275,1.025
			c-0.772,0.816-1.38,1.772-1.792,2.817c-1.362,3.175-0.653,6.859,1.79,9.302c2.443,2.443,6.127,3.152,9.302,1.79
			c1.034-0.434,1.986-1.04,2.817-1.792c1.603-1.607,2.494-3.788,2.476-6.058c-0.033-2.259-0.917-4.422-2.475-6.059
			C474.462,256.519,471.551,255.654,468.739,256.224z"/>
		<path d="M476.506,377.999c-0.419-0.387-0.877-0.731-1.367-1.025c-0.434-0.339-0.925-0.599-1.45-0.767
			c-0.484-0.245-1-0.419-1.533-0.517c-2.812-0.571-5.724,0.294-7.767,2.308c-1.561,1.634-2.445,3.799-2.475,6.059
			c-0.043,3.475,2.025,6.629,5.23,7.975s6.905,0.613,9.355-1.851c2.451-2.464,3.162-6.169,1.799-9.365
			C477.866,379.781,477.26,378.828,476.506,377.999z"/>
		<path d="M487.514,221.924h-42.667v-8.533c-0.015-14.132-11.468-25.585-25.6-25.6H180.314c-14.132,0.015-25.585,11.468-25.6,25.6
			v8.533h-42.667c-14.132,0.015-25.585,11.468-25.6,25.6v51.2h-25.6v-230.4c-0.012-9.421-7.646-17.054-17.067-17.067H26.223
			c-9.269-0.043-16.862,7.35-17.067,16.617l-0.69,25.999l-0.01,0.051l0.008,0.039L1.006,375.074
			c-0.118,4.603,1.627,9.059,4.84,12.357s7.622,5.159,12.227,5.16h25.708c9.421-0.012,17.054-7.646,17.067-17.067v-25.6h25.6v51.2
			c0.015,14.132,11.468,25.585,25.6,25.6h42.667v8.533c0.015,14.132,11.468,25.585,25.6,25.6h238.933
			c14.132-0.015,25.585-11.468,25.6-25.6v-8.533h42.667c14.132-0.015,25.585-11.468,25.6-25.6v-153.6
			C513.099,233.392,501.646,221.939,487.514,221.924z M154.714,315.791v17.067h-17.067v-17.067H154.714z M103.514,247.524
			c0.003-4.712,3.822-8.53,8.533-8.533h42.667v59.733h-51.2V247.524z M43.781,68.324l0.001,17.067H25.77l0.452-17.067H43.781z
			 M18.073,375.524l7.244-273.067h18.466l0.011,204.736l-0.013,0.064v34.133l0.015,0.073l0.002,34.06H18.073z M60.848,315.791
			h59.733v17.067H60.848V315.791z M112.048,409.657c-4.712-0.003-8.53-3.822-8.533-8.533v-51.2h51.2v59.733H112.048z
			 M427.781,435.257c-0.003,4.712-3.822,8.53-8.533,8.533H180.314c-4.712-0.003-8.53-3.822-8.533-8.533V213.391
			c0.003-4.712,3.822-8.53,8.533-8.533h238.933c4.712,0.003,8.53,3.822,8.533,8.533V435.257z M496.048,401.124
			c-0.003,4.712-3.822,8.53-8.533,8.533h-42.667V238.991h42.667c4.712,0.003,8.53,3.822,8.533,8.533V401.124z"/>
		<path d="M342.448,221.924H205.914c-9.421,0.012-17.054,7.646-17.067,17.067v34.133c0.012,9.421,7.646,17.054,17.067,17.067
			h136.533c9.421-0.012,17.054-7.646,17.067-17.067v-34.133C359.502,229.57,351.868,221.936,342.448,221.924z M205.914,273.124
			v-34.133h136.533l0.017,34.133H205.914z"/>
		<path d="M282.714,307.257h-85.333c-4.713,0-8.533,3.82-8.533,8.533s3.821,8.533,8.533,8.533h85.333
			c4.713,0,8.533-3.82,8.533-8.533S287.427,307.257,282.714,307.257z"/>
		<path d="M325.381,307.257h-8.533c-4.713,0-8.533,3.82-8.533,8.533s3.821,8.533,8.533,8.533h8.533c4.713,0,8.533-3.82,8.533-8.533
			S330.094,307.257,325.381,307.257z"/>
	</g>
</g>
<g>
</g>
<g>
</g>
<g>
</g>
<g>
</g>
<g>
</g>
<g>
</g>
<g>
</g>
<g>
</g>
<g>
</g>
<g>
</g>
<g>
</g>
<g>
</g>
<g>
</g>
<g>
</g>
<g>
</g>
</svg>
