<?xml version="1.0" encoding="iso-8859-1"?>
<!-- Generator: Adobe Illustrator 19.0.0, SVG Export Plug-In . SVG Version: 6.00 Build 0)  -->
<svg version="1.1" id="Capa_1" xmlns="http://www.w3.org/2000/svg" xmlns:xlink="http://www.w3.org/1999/xlink" x="0px" y="0px"
	 viewBox="0 0 512.021 512.021" style="enable-background:new 0 0 512.021 512.021;" xml:space="preserve">
<g>
	<g transform="translate(1 1)">
		<polygon style="fill:#607D8B;" points="365.944,7.533 144.077,7.533 109.944,7.533 109.944,67.267 109.944,289.133 
			109.944,391.533 178.211,391.533 331.811,391.533 400.077,391.533 400.077,289.133 400.077,67.267 400.077,7.533 		"/>
		<rect x="365.944" y="67.267" style="fill:#CFD8DC;" width="34.133" height="221.867"/>
		<rect x="365.944" y="7.533" style="fill:#F4F4F4;" width="34.133" height="59.733"/>
		<rect x="109.944" y="67.267" style="fill:#CFD8DC;" width="34.133" height="221.867"/>
		<g>
			<path style="fill:#F4F4F4;" d="M178.211,323.267v25.6h-68.267v-59.733h34.133V306.2c0.014,4.707,3.826,8.519,8.533,8.533h17.067
				C174.384,314.747,178.197,318.56,178.211,323.267z"/>
			<rect x="109.944" y="7.533" style="fill:#F4F4F4;" width="34.133" height="59.733"/>
		</g>
		<path style="fill:#FFFFFF;" d="M331.811,237.933v25.6c-0.028,9.414-7.652,17.039-17.067,17.067H195.277
			c-9.414-0.028-17.039-7.652-17.067-17.067v-25.6H331.811z"/>
		<path style="fill:#CDDC39;" d="M331.811,101.4v136.533h-153.6V101.4c0.028-9.414,7.652-17.039,17.067-17.067h119.467
			C324.158,84.361,331.783,91.986,331.811,101.4z"/>
		<path style="fill:#9E9D24;" d="M408.611,348.867V485.4c0,9.387-68.779,17.067-153.6,17.067c-3.328,0-6.656,0-9.899-0.085h-5.803
			c-77.483-0.853-137.899-8.192-137.899-16.981V348.867H408.611z"/>
		<path style="fill:#CDDC39;" d="M383.011,348.867V485.4c0,8.789-60.416,16.128-137.899,16.981h-5.803
			c-77.483-0.853-137.899-8.192-137.899-16.981V348.867H383.011z"/>
		<path style="fill:#F4F4F4;" d="M400.077,289.133v59.733h-68.267v-25.6c0.014-4.707,3.826-8.519,8.533-8.533h17.067
			c4.707-0.014,8.519-3.826,8.533-8.533v-17.067H400.077z"/>
		<path style="fill:#4CAF50;" d="M229.411,383h68.267c4.713,0,8.533,3.82,8.533,8.533V459.8c0,4.713-3.82,8.533-8.533,8.533h-68.267
			c-4.713,0-8.533-3.821-8.533-8.533v-68.267C220.877,386.821,224.698,383,229.411,383z"/>
	</g>
	<g>
		<path d="M409.611,8.533c0.001-2.264-0.897-4.435-2.498-6.035c-1.601-1.601-3.772-2.499-6.035-2.498H110.944
			c-2.264-0.001-4.435,0.897-6.035,2.498c-1.601,1.601-2.499,3.772-2.498,6.035v332.8c-2.264-0.001-4.435,0.897-6.035,2.498
			c-1.601,1.601-2.499,3.772-2.498,6.035V486.4c0,9.542,8.375,15.642,52.575,20.55c36.406,3.597,72.976,5.283,109.558,5.05
			c36.583,0.233,73.152-1.453,109.558-5.05c44.2-4.908,52.575-11.008,52.575-20.55V349.867c0.001-2.264-0.897-4.435-2.498-6.035
			c-1.601-1.601-3.772-2.499-6.035-2.498V8.533z M324.277,324.267v17.067H187.744v-17.067c-0.012-9.421-7.646-17.054-17.067-17.067
			h-17.067V17.067h204.8V307.2h-17.067C331.923,307.212,324.289,314.846,324.277,324.267z M119.477,76.8h17.067v204.8h-17.067V76.8z
			 M375.477,76.8h17.067v204.8h-17.067V76.8z M392.544,59.733h-17.067V17.067h17.067V59.733z M136.544,17.067v42.667h-17.067V17.067
			H136.544z M119.477,298.667h17.067v8.533c0.012,9.421,7.646,17.054,17.067,17.067h17.067v17.067h-51.2V298.667z M256.011,494.933
			c-79.905,0-133.315-6.647-145.067-11.92V358.4h290.133v124.614C389.325,488.286,335.915,494.933,256.011,494.933z
			 M341.344,341.333v-17.067h17.067c9.421-0.012,17.054-7.646,17.067-17.067v-8.533h17.067v42.667H341.344z"/>
		<path d="M341.344,102.4c-0.015-14.132-11.468-25.585-25.6-25.6H196.277c-14.132,0.015-25.585,11.468-25.6,25.6v162.133
			c0.015,14.132,11.468,25.585,25.6,25.6h119.467c14.132-0.015,25.585-11.468,25.6-25.6V102.4z M196.277,93.867h119.467
			c4.712,0.003,8.53,3.822,8.533,8.533v128H187.744v-128C187.747,97.688,191.566,93.87,196.277,93.867z M315.744,273.067H196.277
			c-4.712-0.003-8.53-3.822-8.533-8.533v-17.067h136.533v17.067C324.274,269.245,320.455,273.064,315.744,273.067z"/>
		<path d="M375.477,375.467c-2.264-0.001-4.435,0.897-6.035,2.498c-1.601,1.601-2.499,3.772-2.498,6.035v17.067
			c0,4.713,3.821,8.533,8.533,8.533s8.533-3.821,8.533-8.533V384c0.001-2.264-0.897-4.435-2.498-6.035
			C379.912,376.364,377.741,375.465,375.477,375.467z"/>
		<path d="M341.344,375.467c-2.264-0.001-4.435,0.897-6.035,2.498c-1.601,1.601-2.499,3.772-2.498,6.035v17.067
			c0,4.713,3.821,8.533,8.533,8.533c4.713,0,8.533-3.821,8.533-8.533V384c0.001-2.264-0.897-4.435-2.498-6.035
			C345.779,376.364,343.607,375.465,341.344,375.467z"/>
		<path d="M298.677,375.467h-68.267c-9.421,0.012-17.054,7.646-17.067,17.067V460.8c0.012,9.421,7.646,17.054,17.067,17.067h68.267
			c9.421-0.012,17.054-7.646,17.067-17.067v-68.267C315.732,383.113,308.098,375.479,298.677,375.467z M230.411,460.8v-68.267
			h68.267l0.017,68.267H230.411z"/>
	</g>
</g>
<g>
</g>
<g>
</g>
<g>
</g>
<g>
</g>
<g>
</g>
<g>
</g>
<g>
</g>
<g>
</g>
<g>
</g>
<g>
</g>
<g>
</g>
<g>
</g>
<g>
</g>
<g>
</g>
<g>
</g>
</svg>
