<?xml version="1.0" encoding="iso-8859-1"?>
<!-- Generator: Adobe Illustrator 19.0.0, SVG Export Plug-In . SVG Version: 6.00 Build 0)  -->
<svg version="1.1" id="Capa_1" xmlns="http://www.w3.org/2000/svg" xmlns:xlink="http://www.w3.org/1999/xlink" x="0px" y="0px"
	 viewBox="0 0 512 512" style="enable-background:new 0 0 512 512;" xml:space="preserve">
<g>
	<g transform="translate(1 1)">
		<g>
			<rect x="75.8" y="152.6" style="fill:#CFD8DC;" width="68.267" height="34.133"/>
			<rect x="365.933" y="152.6" style="fill:#CFD8DC;" width="68.267" height="34.133"/>
		</g>
		<path style="fill:#00695C;" d="M161.133,109.934h187.733c18.851,0,34.133,15.282,34.133,34.133v324.267
			c0,18.851-15.282,34.133-34.133,34.133H161.133c-18.851,0-34.133-15.282-34.133-34.133V144.067
			C127,125.216,142.282,109.934,161.133,109.934z"/>
		<path style="fill:#009688;" d="M161.133,109.934h162.133c18.851,0,34.133,15.282,34.133,34.133v324.267
			c0,18.851-15.282,34.133-34.133,34.133H161.133c-18.851,0-34.133-15.282-34.133-34.133V144.067
			C127,125.216,142.282,109.934,161.133,109.934z"/>
		<path style="fill:#FFFFFF;" d="M169.667,417.134h170.667c4.713,0,8.533,3.82,8.533,8.533v17.067c0,4.713-3.82,8.533-8.533,8.533
			H169.667c-4.713,0-8.533-3.821-8.533-8.533v-17.067C161.133,420.954,164.954,417.134,169.667,417.134z"/>
		<g>
			<path style="fill:#CFD8DC;" d="M84.266,229.4H58.801c-2.329,0.01-4.562-0.93-6.183-2.602c-1.622-1.672-2.492-3.932-2.411-6.26
				l7.939-204.8c0.196-4.599,3.991-8.222,8.594-8.205h17.526c4.731-0.018,8.582,3.802,8.601,8.533v204.8
				C92.848,225.598,88.997,229.419,84.266,229.4z"/>
			<path style="fill:#CFD8DC;" d="M425.734,229.4h25.465c2.329,0.01,4.562-0.93,6.183-2.602c1.622-1.672,2.492-3.932,2.411-6.26
				l-7.939-204.8c-0.196-4.599-3.991-8.222-8.594-8.205h-17.526c-4.731-0.018-8.582,3.802-8.601,8.533v204.8
				C417.152,225.598,421.003,229.419,425.734,229.4z"/>
		</g>
	</g>
	<g>
		<path d="M170.667,179.2h17.067c4.713,0,8.533-3.821,8.533-8.533s-3.821-8.533-8.533-8.533h-17.067
			c-4.713,0-8.533,3.821-8.533,8.533S165.954,179.2,170.667,179.2z"/>
		<path d="M221.867,179.2h17.067c4.713,0,8.533-3.821,8.533-8.533s-3.821-8.533-8.533-8.533h-17.067
			c-4.713,0-8.533,3.821-8.533,8.533S217.154,179.2,221.867,179.2z"/>
		<path d="M273.067,179.2h17.067c4.713,0,8.533-3.821,8.533-8.533s-3.82-8.533-8.533-8.533h-17.067
			c-4.713,0-8.533,3.821-8.533,8.533S268.354,179.2,273.067,179.2z"/>
		<path d="M324.267,179.2h17.067c4.713,0,8.533-3.821,8.533-8.533s-3.82-8.533-8.533-8.533h-17.067
			c-4.713,0-8.533,3.821-8.533,8.533S319.554,179.2,324.267,179.2z"/>
		<path d="M170.667,460.8h170.667c9.421-0.011,17.056-7.645,17.067-17.067v-17.067c-0.011-9.421-7.645-17.056-17.067-17.067H170.667
			c-9.421,0.011-17.056,7.645-17.067,17.067v17.067C153.611,453.155,161.246,460.789,170.667,460.8z M170.667,426.667h170.667
			l0.012,17.067H170.667V426.667z"/>
		<path d="M85.267,0H67.742C58.544-0.042,50.97,7.217,50.621,16.409l-7.938,204.8c-0.196,4.631,1.52,9.138,4.746,12.467
			c3.243,3.353,7.706,5.25,12.371,5.258h25.467c9.439,0.006,17.103-7.628,17.133-17.067v-25.6h17.067v273.067
			c0.028,23.553,19.114,42.639,42.667,42.667h187.733c23.553-0.028,42.639-19.114,42.667-42.667V196.267H409.6v25.6
			c0.029,9.44,7.694,17.074,17.133,17.067H452.2c4.668-0.007,9.134-1.907,12.375-5.267c3.223-3.326,4.937-7.831,4.742-12.459
			L461.383,16.4C461.026,7.212,453.453-0.04,444.258,0h-17.525c-9.44-0.008-17.104,7.627-17.133,17.067v128h-17.067
			c-0.028-23.553-19.114-42.639-42.667-42.667H162.133c-23.553,0.028-42.639,19.114-42.667,42.667H102.4v-128
			C102.37,7.628,94.706-0.006,85.267,0z M85.267,221.867l-25.533,0.009l8.008-204.809h17.592l0.009,136.492l-0.009,0.041v34.133
			l0.01,0.051l0.002,34.048L85.267,221.867z M444.333,17.075l7.867,204.791h-25.533l0.067-204.8L444.333,17.075z M409.6,162.134
			V179.2h-17.067v-17.067H409.6z M136.533,145.067c0.015-14.132,11.468-25.585,25.6-25.6h187.733
			c14.132,0.015,25.585,11.468,25.6,25.6v324.267c-0.015,14.132-11.468,25.585-25.6,25.6H162.133
			c-14.132-0.015-25.585-11.468-25.6-25.6V145.067z M119.467,162.134V179.2H102.4v-17.067H119.467z"/>
	</g>
</g>
<g>
</g>
<g>
</g>
<g>
</g>
<g>
</g>
<g>
</g>
<g>
</g>
<g>
</g>
<g>
</g>
<g>
</g>
<g>
</g>
<g>
</g>
<g>
</g>
<g>
</g>
<g>
</g>
<g>
</g>
</svg>
