<?xml version="1.0" encoding="iso-8859-1"?>
<!-- Generator: Adobe Illustrator 19.0.0, SVG Export Plug-In . SVG Version: 6.00 Build 0)  -->
<svg version="1.1" id="Capa_1" xmlns="http://www.w3.org/2000/svg" xmlns:xlink="http://www.w3.org/1999/xlink" x="0px" y="0px"
	 viewBox="0 0 512.001 512.001" style="enable-background:new 0 0 512.001 512.001;" xml:space="preserve">
<g>
	<g transform="translate(1 1)">
		<path style="fill:#6A1B9A;" d="M502.126,273.603H7.875l0.085-0.853l0.085-0.597l0.853-5.291l0.085-0.256l0.085-0.341l32-201.216
			C46.369,31.924,74.937,7.55,108.483,7.534h293.035c33.546,0.016,62.114,24.39,67.413,57.515l32,201.216l0.085,0.341l0.085,0.256
			l0.853,5.291l0.085,0.597L502.126,273.603z"/>
		<path style="fill:#9D27B0;" d="M476.867,273.603H7.875l0.085-0.853l0.085-0.597l0.853-5.291l0.085-0.256l0.085-0.341l32-201.216
			C46.369,31.924,74.937,7.55,108.483,7.534h267.776c33.546,0.016,62.114,24.39,67.413,57.515l32,201.216l0.085,0.341l0.085,0.256
			l0.853,5.291l0.085,0.597L476.867,273.603z"/>
		<path style="fill:#4527A0;" d="M75.8,212.334h358.4c37.703,0,68.267,30.564,68.267,68.267v153.6
			c0,37.703-30.564,68.267-68.267,68.267H75.8c-37.703,0-68.267-30.564-68.267-68.267v-153.6
			C7.534,242.898,38.098,212.334,75.8,212.334z"/>
		<path style="fill:#673AB7;" d="M75.8,212.334h332.8c37.703,0,68.267,30.564,68.267,68.267v153.6
			c0,37.703-30.564,68.267-68.267,68.267H75.8c-37.703,0-68.267-30.564-68.267-68.267v-153.6
			C7.534,242.898,38.098,212.334,75.8,212.334z"/>
		<circle style="fill:#CFD8DC;" cx="357.4" cy="357.401" r="110.933"/>
		<circle style="fill:#00BCD4;" cx="357.4" cy="357.401" r="76.8"/>
		<path style="fill:#CFD8DC;" d="M212.334,391.534v17.067c-0.028,9.414-7.653,17.039-17.067,17.067H58.734
			c-9.414-0.028-17.039-7.652-17.067-17.067v-17.067H212.334z"/>
		<rect x="41.667" y="357.401" style="fill:#607D8B;" width="170.667" height="34.133"/>
		<rect x="41.667" y="323.267" style="fill:#CFD8DC;" width="170.667" height="34.133"/>
		<path style="fill:#607D8B;" d="M212.334,306.201v17.067H41.667v-17.067c0.028-9.414,7.652-17.039,17.067-17.067h136.533
			C204.681,289.161,212.306,296.786,212.334,306.201z"/>
		<rect x="186.734" y="357.401" style="fill:#37474F;" width="25.6" height="34.133"/>
		<path style="fill:#607D8B;" d="M186.734,391.534h25.6v17.067c-0.028,9.414-7.653,17.039-17.067,17.067h-25.6
			c9.414-0.028,17.039-7.652,17.067-17.067V391.534z"/>
		<path style="fill:#37474F;" d="M212.334,306.201v17.067h-25.6v-17.067c-0.027-9.414-7.652-17.039-17.067-17.067h25.6
			C204.681,289.161,212.306,296.786,212.334,306.201z"/>
		<rect x="186.734" y="323.267" style="fill:#607D8B;" width="25.6" height="34.133"/>
		<g>
			<polygon style="fill:#CFD8DC;" points="323.267,212.334 186.734,212.334 195.839,152.601 314.162,152.601 			"/>
			<path style="fill:#CFD8DC;" d="M417.048,142.702c0.39,2.472-0.321,4.99-1.946,6.894c-1.624,1.903-4,3.001-6.502,3.005H101.4
				c-2.502-0.004-4.878-1.101-6.502-3.005c-1.624-1.903-2.335-4.422-1.946-6.894l3.84-24.235l5.461-34.133l4.267-26.965
				c0.634-4.127,4.187-7.173,8.363-7.168h280.235c4.176-0.005,7.729,3.041,8.363,7.168L417.048,142.702z"/>
		</g>
		<ellipse style="fill:#00BCD4;" cx="284.867" cy="101.401" rx="21.333" ry="17.067"/>
		<path style="fill:#607D8B;" d="M178.115,94.233l-3.072,17.067c-1.054,4.336-5.013,7.332-9.472,7.168H96.792l5.461-34.133h66.389
			c2.636-0.165,5.21,0.841,7.035,2.749C177.504,88.991,178.396,91.607,178.115,94.233z"/>
	</g>
	<g>
		<path d="M358.4,238.934c-65.98,0-119.467,53.487-119.467,119.467S292.421,477.867,358.4,477.867s119.467-53.487,119.467-119.467
			C477.793,292.452,424.349,239.008,358.4,238.934z M358.4,460.801c-56.554,0-102.4-45.846-102.4-102.4s45.846-102.4,102.4-102.4
			s102.4,45.846,102.4,102.4C460.737,414.928,414.928,460.737,358.4,460.801z"/>
		<path d="M358.4,273.067c-47.128,0-85.333,38.205-85.333,85.333s38.205,85.333,85.333,85.333s85.333-38.205,85.333-85.333
			C443.68,311.295,405.506,273.121,358.4,273.067z M358.4,426.667c-37.703,0-68.267-30.564-68.267-68.267
			s30.564-68.267,68.267-68.267s68.267,30.564,68.267,68.267C426.624,396.085,396.085,426.624,358.4,426.667z"/>
		<path d="M358.4,307.201c-16.093,0.052-31.236,7.623-40.933,20.467c-2.829,3.767-2.071,9.114,1.693,11.947
			c3.764,2.833,9.111,2.081,11.948-1.68c6.415-8.626,16.542-13.698,27.292-13.667c4.713,0,8.533-3.821,8.533-8.533
			S363.113,307.201,358.4,307.201z"/>
		<path d="M324.954,365.234c-0.607-2.988-2.762-5.424-5.654-6.392c-2.891-0.968-6.079-0.32-8.363,1.7
			c-2.284,2.02-3.316,5.105-2.709,8.092c0.718,3.525,1.807,6.963,3.25,10.258c1.21,2.814,3.835,4.763,6.879,5.108
			c3.043,0.345,6.038-0.967,7.847-3.439c1.809-2.471,2.155-5.723,0.907-8.519C326.154,369.856,325.43,367.573,324.954,365.234z"/>
		<path d="M196.267,281.601H59.734c-14.132,0.015-25.585,11.468-25.6,25.6v102.4c0.015,14.132,11.468,25.585,25.6,25.6h136.533
			c14.132-0.015,25.585-11.468,25.6-25.6v-102.4C221.852,293.068,210.399,281.616,196.267,281.601z M51.2,332.801h153.6v17.067H51.2
			V332.801z M51.2,366.934h153.6v17.067H51.2V366.934z M59.734,298.667h136.533c4.711,0.005,8.529,3.822,8.533,8.533v8.533H51.2
			v-8.533C51.205,302.49,55.023,298.672,59.734,298.667z M196.267,418.134H59.734c-4.711-0.005-8.529-3.822-8.533-8.533v-8.533
			h153.6v8.533C204.796,414.311,200.978,418.129,196.267,418.134z"/>
		<path d="M511.617,273.767l-0.083-0.85c-0.017-0.175-0.125-0.95-0.154-1.125l-0.854-5.292c-0.046-0.283-0.142-0.667-0.237-1.025
			L478.379,64.742c-5.795-37.368-38.036-64.887-75.85-64.742H109.471c-37.814-0.146-70.055,27.374-75.85,64.742L1.804,265.159
			c-0.099,0.322-0.18,0.65-0.241,0.981l-0.001,0.002c-0.025,0.12-0.068,0.236-0.088,0.358L0.6,271.917
			c-0.017,0.133-0.121,0.867-0.133,1l-0.083,0.85l0.009,0.09c-0.26,2.573-0.391,5.158-0.392,7.744v153.6
			c0.048,42.396,34.404,76.752,76.8,76.8h358.4c42.396-0.048,76.752-34.404,76.8-76.8v-153.6c-0.001-2.586-0.132-5.171-0.393-7.744
			L511.617,273.767z M50.479,67.426c4.503-29.066,29.579-50.472,58.992-50.358H402.53c29.412-0.114,54.488,21.293,58.992,50.358
			l24.986,157.192c-14.049-12.746-32.338-19.81-51.307-19.817H331.599l-6.502-42.667h84.545c4.987-0.009,9.721-2.2,12.955-5.997
			c3.234-3.797,4.643-8.82,3.857-13.745l-13.517-85.333c-1.268-8.298-8.418-14.419-16.813-14.392h-280.25
			c-8.395-0.027-15.545,6.093-16.812,14.392l-13.517,85.333c-0.786,4.925,0.624,9.948,3.858,13.745
			c3.234,3.797,7.968,5.988,12.955,5.997h84.545l-6.502,42.667H76.8c-18.969,0.007-37.258,7.071-51.307,19.817L50.479,67.426z
			 M110.486,93.867h59.152c0.558,0,0.908,0.192,1.008,0.042l-2.946,16.65c-0.31,0.267-0.712,0.402-1.121,0.375h-58.788
			L110.486,93.867z M105.098,128.001h61.482c8.602,0.21,16.118-5.777,17.837-14.208l3.062-17.067
			c0.844-4.795-0.487-9.718-3.633-13.433c-3.538-4.166-8.743-6.544-14.208-6.492h-56.457l2.694-17.067l280.204-0.009l13.504,85.342
			l-307.179-0.009L105.098,128.001z M204.171,162.134h103.658l6.504,42.667H197.667L204.171,162.134z M409.642,153.601v-8.533h0.009
			L409.642,153.601z M494.934,435.201c-0.038,32.974-26.759,59.695-59.733,59.733H76.8c-32.974-0.038-59.695-26.759-59.733-59.733
			v-153.6c-0.001-4.026,0.404-8.042,1.21-11.986l0.054-0.222c5.815-27.666,30.2-47.486,58.47-47.525h358.4
			c28.27,0.039,52.655,19.859,58.47,47.525l0.054,0.222c0.806,3.944,1.211,7.96,1.21,11.986V435.201z"/>
		<path d="M285.867,76.801c-15.28-1.067-28.584,10.337-29.867,25.6c1.283,15.263,14.587,26.667,29.867,25.6
			c15.28,1.067,28.584-10.337,29.867-25.6C314.451,87.137,301.147,75.734,285.867,76.801z M285.867,110.934
			c-6.817,0-12.8-3.992-12.8-8.533c0-4.542,5.983-8.533,12.8-8.533c6.817,0,12.8,3.992,12.8,8.533
			C298.667,106.942,292.684,110.934,285.867,110.934z"/>
		<path d="M238.25,99.159c-0.187-0.546-0.447-1.064-0.771-1.542c-0.313-0.446-0.654-0.872-1.021-1.275
			c-0.83-0.753-1.783-1.359-2.817-1.792c-3.181-1.299-6.829-0.596-9.3,1.792c-0.368,0.403-0.71,0.829-1.025,1.275
			c-0.324,0.477-0.583,0.996-0.771,1.542c-0.245,0.483-0.417,1-0.508,1.533c-0.1,0.564-0.158,1.136-0.171,1.709
			c-0.029,1.119,0.204,2.229,0.679,3.242c0.78,2.141,2.467,3.828,4.608,4.608c3.176,1.362,6.861,0.653,9.305-1.791
			c0.751-0.832,1.357-1.784,1.792-2.817c0.478-1.012,0.712-2.123,0.683-3.242c-0.016-0.573-0.073-1.144-0.171-1.708
			C238.668,100.159,238.495,99.642,238.25,99.159z"/>
		<path d="M349.184,99.159c-0.187-0.546-0.447-1.064-0.771-1.542c-0.338-0.425-0.679-0.85-1.021-1.275
			c-3.421-3.158-8.695-3.158-12.117,0l-1.025,1.275c-0.324,0.477-0.583,0.996-0.771,1.542c-0.246,0.483-0.417,1-0.508,1.533
			c-0.1,0.564-0.158,1.136-0.171,1.709c0.012,1.115,0.243,2.216,0.679,3.242c0.435,1.034,1.042,1.986,1.796,2.817
			c3.365,3.3,8.752,3.3,12.117,0c0.751-0.832,1.357-1.784,1.792-2.817c0.438-1.026,0.67-2.127,0.683-3.242
			c-0.016-0.573-0.073-1.144-0.171-1.708C349.601,100.159,349.429,99.642,349.184,99.159z"/>
	</g>
</g>
<g>
</g>
<g>
</g>
<g>
</g>
<g>
</g>
<g>
</g>
<g>
</g>
<g>
</g>
<g>
</g>
<g>
</g>
<g>
</g>
<g>
</g>
<g>
</g>
<g>
</g>
<g>
</g>
<g>
</g>
</svg>
