<?xml version="1.0" encoding="iso-8859-1"?>
<!-- Generator: Adobe Illustrator 19.0.0, SVG Export Plug-In . SVG Version: 6.00 Build 0)  -->
<svg version="1.1" id="Capa_1" xmlns="http://www.w3.org/2000/svg" xmlns:xlink="http://www.w3.org/1999/xlink" x="0px" y="0px"
	 viewBox="0 0 512 512" style="enable-background:new 0 0 512 512;" xml:space="preserve">
<g>
	<g transform="translate(1 1)">
		<g>
			<path style="fill:#607D8B;" d="M24.6,442.733h42.667v51.2c0,4.713-3.821,8.533-8.533,8.533h-25.6
				c-4.713,0-8.533-3.821-8.533-8.533V442.733z"/>
			<path style="fill:#607D8B;" d="M442.733,442.733H485.4v51.2c0,4.713-3.82,8.533-8.533,8.533h-25.6
				c-4.713,0-8.533-3.821-8.533-8.533V442.733z"/>
		</g>
		<path style="fill:#558B30;" d="M501.955,335.128H8.045L87.917,26.733c2.875-11.315,13.073-19.227,24.747-19.2h284.672
			c11.674-0.027,21.872,7.885,24.747,19.2L501.955,335.128z"/>
		<path style="fill:#8BC34A;" d="M476.867,335.128H8.045L87.917,26.733c2.875-11.315,13.073-19.227,24.747-19.2h259.584
			c11.674-0.027,21.872,7.885,24.747,19.2l21.589,83.2l13.227,51.2L476.867,335.128z"/>
		<path style="fill:#2E7D32;" d="M33.133,314.733h443.733c14.138,0,25.6,11.462,25.6,25.6v102.4c0,14.138-11.462,25.6-25.6,25.6
			H33.133c-14.138,0-25.6-11.462-25.6-25.6v-102.4C7.533,326.195,18.995,314.733,33.133,314.733z"/>
		<path style="fill:#4CAF50;" d="M33.133,314.733h418.133c14.138,0,25.6,11.462,25.6,25.6v102.4c0,14.138-11.462,25.6-25.6,25.6
			H33.133c-14.138,0-25.6-11.462-25.6-25.6v-102.4C7.533,326.195,18.995,314.733,33.133,314.733z"/>
		<g>
			<polygon style="fill:#2E7D32;" points="58.733,400.067 58.733,365.933 109.933,365.933 109.933,400.067 101.4,400.067 
				101.4,417.133 67.267,417.133 67.267,400.067 			"/>
			<polygon style="fill:#2E7D32;" points="195.267,383 195.267,417.133 144.067,417.133 144.067,383 152.6,383 152.6,365.933 
				186.733,365.933 186.733,383 			"/>
			<polygon style="fill:#2E7D32;" points="280.6,383 280.6,417.133 229.4,417.133 229.4,383 237.933,383 237.933,365.933 
				272.067,365.933 272.067,383 			"/>
			<polygon style="fill:#2E7D32;" points="314.733,400.067 314.733,365.933 365.933,365.933 365.933,400.067 357.4,400.067 
				357.4,417.133 323.267,417.133 323.267,400.067 			"/>
			<polygon style="fill:#2E7D32;" points="400.067,400.067 400.067,365.933 451.267,365.933 451.267,400.067 442.733,400.067 
				442.733,417.133 408.6,417.133 408.6,400.067 			"/>
		</g>
		<g>
			<path style="fill:#F4F4F4;" d="M186.733,67.267L134.68,255h-16.128c-5.323,0.007-10.342-2.48-13.561-6.721
				c-3.218-4.24-4.263-9.744-2.824-14.869l42.581-153.6c2.041-7.411,8.782-12.546,16.469-12.544H186.733z"/>
			<polygon style="fill:#F4F4F4;" points="255,67.267 255,255 185.027,255 222.573,67.267 			"/>
		</g>
		<polygon style="fill:#607D8B;" points="324.973,255 255,255 255,67.267 287.427,67.267 		"/>
		<polygon style="fill:#F4F4F4;" points="375.32,255 324.973,255 287.427,67.267 323.267,67.267 		"/>
		<g>
			<path style="fill:#607D8B;" d="M391.448,255H375.32L323.267,67.267h25.515c7.687-0.002,14.428,5.133,16.469,12.544l42.581,153.6
				c1.44,5.125,0.395,10.628-2.824,14.869C401.79,252.52,396.771,255.007,391.448,255z"/>
			<polygon style="fill:#607D8B;" points="222.573,67.267 185.027,255 134.68,255 186.733,67.267 			"/>
			<polygon style="fill:#607D8B;" points="456.899,161.133 431.811,161.133 418.584,109.933 443.672,109.933 			"/>
		</g>
		<polygon style="fill:#F4F4F4;" points="431.811,161.133 387.779,161.133 373.613,109.933 418.584,109.933 		"/>
	</g>
	<g>
		<path d="M110.933,358.4h-51.2c-2.263-0.001-4.434,0.898-6.035,2.499c-1.6,1.6-2.499,3.771-2.499,6.035v34.133
			c-0.001,2.263,0.898,4.434,2.499,6.035c1.6,1.6,3.771,2.499,6.035,2.499v8.533c-0.001,2.263,0.898,4.434,2.499,6.035
			c1.6,1.6,3.771,2.499,6.035,2.499H102.4c2.263,0.001,4.434-0.898,6.035-2.499c1.6-1.6,2.499-3.771,2.499-6.035V409.6
			c2.263,0.001,4.434-0.898,6.035-2.499c1.6-1.6,2.499-3.771,2.499-6.035v-34.133c0.001-2.263-0.898-4.434-2.499-6.035
			C115.368,359.298,113.197,358.399,110.933,358.4z M102.4,392.533c-2.263-0.001-4.434,0.898-6.035,2.499
			c-1.6,1.6-2.499,3.771-2.499,6.035v8.533H76.8v-8.533c0.001-2.263-0.898-4.434-2.499-6.035c-1.6-1.6-3.771-2.499-6.035-2.499
			v-17.067H102.4V392.533z"/>
		<path d="M196.267,375.467v-8.533c0.001-2.263-0.898-4.434-2.499-6.035c-1.6-1.6-3.771-2.499-6.035-2.499H153.6
			c-2.263-0.001-4.434,0.898-6.035,2.499c-1.6,1.6-2.499,3.771-2.499,6.035v8.533c-2.263-0.001-4.434,0.898-6.035,2.499
			s-2.499,3.771-2.499,6.035v34.133c-0.001,2.263,0.898,4.434,2.499,6.035c1.6,1.6,3.771,2.499,6.035,2.499h51.2
			c2.263,0.001,4.434-0.898,6.035-2.499c1.6-1.6,2.499-3.771,2.499-6.035V384c0.001-2.263-0.898-4.434-2.499-6.035
			C200.701,376.365,198.53,375.466,196.267,375.467z M187.733,409.6H153.6v-17.067c2.263,0.001,4.434-0.898,6.035-2.499
			c1.6-1.6,2.499-3.771,2.499-6.035v-8.533H179.2V384c-0.001,2.263,0.898,4.434,2.499,6.035c1.6,1.6,3.771,2.499,6.035,2.499V409.6z
			"/>
		<path d="M281.6,375.467v-8.533c0.001-2.263-0.898-4.434-2.499-6.035c-1.6-1.6-3.771-2.499-6.035-2.499h-34.133
			c-2.263-0.001-4.434,0.898-6.035,2.499c-1.6,1.6-2.499,3.771-2.499,6.035v8.533c-2.263-0.001-4.434,0.898-6.035,2.499
			c-1.6,1.6-2.499,3.771-2.499,6.035v34.133c-0.001,2.263,0.898,4.434,2.499,6.035c1.6,1.6,3.771,2.499,6.035,2.499h51.2
			c2.263,0.001,4.434-0.898,6.035-2.499c1.6-1.6,2.499-3.771,2.499-6.035V384c0.001-2.263-0.898-4.434-2.499-6.035
			C286.034,376.365,283.863,375.466,281.6,375.467z M273.067,409.6h-34.133v-17.067c2.263,0.001,4.434-0.898,6.035-2.499
			c1.6-1.6,2.499-3.771,2.499-6.035v-8.533h17.067V384c-0.001,2.263,0.898,4.434,2.499,6.035c1.6,1.6,3.771,2.499,6.035,2.499V409.6
			z"/>
		<path d="M366.933,358.4h-51.2c-2.263-0.001-4.434,0.898-6.035,2.499c-1.6,1.6-2.499,3.771-2.499,6.035v34.133
			c-0.001,2.263,0.898,4.434,2.499,6.035c1.6,1.6,3.771,2.499,6.035,2.499v8.533c-0.001,2.263,0.898,4.434,2.499,6.035
			c1.6,1.6,3.771,2.499,6.035,2.499H358.4c2.263,0.001,4.434-0.898,6.035-2.499c1.6-1.6,2.499-3.771,2.499-6.035V409.6
			c2.263,0.001,4.434-0.898,6.035-2.499c1.6-1.6,2.499-3.771,2.499-6.035v-34.133c0.001-2.263-0.898-4.434-2.499-6.035
			C371.368,359.298,369.197,358.399,366.933,358.4z M358.4,392.533c-2.263-0.001-4.434,0.898-6.035,2.499
			c-1.6,1.6-2.499,3.771-2.499,6.035v8.533H332.8v-8.533c0.001-2.263-0.898-4.434-2.499-6.035c-1.6-1.6-3.771-2.499-6.035-2.499
			v-17.067H358.4V392.533z"/>
		<path d="M452.267,358.4h-51.2c-2.263-0.001-4.434,0.898-6.035,2.499c-1.6,1.6-2.499,3.771-2.499,6.035v34.133
			c-0.001,2.263,0.898,4.434,2.499,6.035c1.6,1.6,3.771,2.499,6.035,2.499v8.533c-0.001,2.263,0.898,4.434,2.499,6.035
			c1.6,1.6,3.771,2.499,6.035,2.499h34.133c2.263,0.001,4.434-0.898,6.035-2.499c1.6-1.6,2.499-3.771,2.499-6.035V409.6
			c2.263,0.001,4.434-0.898,6.035-2.499c1.6-1.6,2.499-3.771,2.499-6.035v-34.133c0.001-2.263-0.898-4.434-2.499-6.035
			C456.701,359.298,454.53,358.399,452.267,358.4z M443.733,392.533c-2.263-0.001-4.434,0.898-6.035,2.499
			c-1.6,1.6-2.499,3.771-2.499,6.035v8.533h-17.067v-8.533c0.001-2.263-0.898-4.434-2.499-6.035c-1.6-1.6-3.771-2.499-6.035-2.499
			v-17.067h34.133V392.533z"/>
		<path d="M511.217,333.983L431.362,25.575C427.46,10.517,413.872,0.001,398.317,0H113.683C98.128,0.001,84.54,10.517,80.638,25.575
			L0.783,333.983c-0.02,0.079,0.006,0.155-0.013,0.234c-0.506,2.338-0.765,4.723-0.771,7.116v102.4
			c0.039,12.139,6.542,23.337,17.067,29.386v30.347c-0.001,2.263,0.898,4.434,2.499,6.035c1.6,1.6,3.771,2.499,6.035,2.499h42.667
			c2.263,0.001,4.434-0.898,6.035-2.499c1.6-1.6,2.499-3.771,2.499-6.035v-25.6h358.4v25.6c-0.001,2.263,0.898,4.434,2.499,6.035
			c1.6,1.6,3.771,2.499,6.035,2.499H486.4c2.263,0.001,4.434-0.898,6.035-2.499c1.6-1.6,2.499-3.771,2.499-6.035v-30.347
			c10.524-6.049,17.028-17.247,17.067-29.386v-102.4c-0.006-2.392-0.265-4.777-0.771-7.116
			C511.211,334.139,511.237,334.063,511.217,333.983z M196.433,247.467L230.57,76.8h16.897v170.667H196.433z M146.903,247.467
			L194.225,76.8h18.941L179.03,247.467H146.903z M119.592,247.467c-2.666,0.002-5.179-1.242-6.794-3.364
			c-1.614-2.121-2.144-4.876-1.431-7.445h0.004l42.583-153.6c1.03-3.691,4.388-6.248,8.221-6.258h14.334l-47.322,170.667H119.592z
			 M264.533,76.8h16.897l34.137,170.667h-51.033V76.8z M332.97,247.467L298.833,76.8h18.941l47.322,170.667H332.97z
			 M382.813,247.467L335.491,76.8h14.334c3.832,0.01,7.191,2.567,8.221,6.258l42.587,153.6c0.713,2.569,0.183,5.323-1.431,7.445
			c-1.614,2.121-4.128,3.366-6.794,3.364H382.813z M385.856,119.467h52.183l8.838,34.133h-51.558L385.856,119.467z M97.163,29.858
			c1.947-7.531,8.742-12.792,16.521-12.791h284.633c7.779,0,14.573,5.26,16.521,12.791L433.62,102.4h-52.496l-6.628-23.908
			c-3.099-11.069-13.176-18.731-24.671-18.758h-187.65c-11.495,0.027-21.572,7.689-24.671,18.758l-42.583,153.6
			c-2.136,7.707-0.547,15.97,4.294,22.336c4.841,6.366,12.379,10.104,20.377,10.105h272.817c7.998-0.001,15.536-3.739,20.377-10.105
			c4.841-6.366,6.43-14.629,4.294-22.336l-17.029-61.425h51.246l35.715,137.935c-2.969-0.886-6.046-1.358-9.144-1.402H34.133
			c-3.098,0.044-6.175,0.516-9.144,1.402L97.163,29.858z M59.733,494.933h-25.6v-17.067h25.6V494.933z M477.867,494.933h-25.6
			v-17.067h25.6V494.933z M494.933,443.733c-0.011,9.421-7.645,17.056-17.067,17.067H34.133
			c-9.421-0.011-17.056-7.645-17.067-17.067v-102.4c0.011-9.421,7.645-17.056,17.067-17.067h443.733
			c9.421,0.011,17.056,7.645,17.067,17.067V443.733z"/>
	</g>
</g>
<g>
</g>
<g>
</g>
<g>
</g>
<g>
</g>
<g>
</g>
<g>
</g>
<g>
</g>
<g>
</g>
<g>
</g>
<g>
</g>
<g>
</g>
<g>
</g>
<g>
</g>
<g>
</g>
<g>
</g>
</svg>
