<?xml version="1.0" encoding="iso-8859-1"?>
<!-- Generator: Adobe Illustrator 19.0.0, SVG Export Plug-In . SVG Version: 6.00 Build 0)  -->
<svg version="1.1" id="Capa_1" xmlns="http://www.w3.org/2000/svg" xmlns:xlink="http://www.w3.org/1999/xlink" x="0px" y="0px"
	 viewBox="0 0 512 512" style="enable-background:new 0 0 512 512;" xml:space="preserve">
<g>
	<g transform="translate(1 1)">
		<path style="fill:#0377BC;" d="M502.467,250.477v175.189c0.002,9.053-3.593,17.737-9.995,24.139
			c-6.402,6.402-15.085,9.997-24.139,9.995H41.667c-9.053,0.002-17.737-3.593-24.139-9.995c-6.402-6.402-9.997-15.085-9.995-24.139
			V250.477l29.099-112.981c2.71-10.282,11.521-17.8,22.101-18.859c0.853-0.085,1.707-0.171,2.56-0.171h23.04v-25.6
			c0.028-9.414,7.652-17.039,17.067-17.067h8.533V58.733c0.028-9.414,7.652-17.039,17.067-17.067h256
			c9.414,0.028,17.039,7.652,17.067,17.067V75.8h8.533c9.414,0.028,17.039,7.652,17.067,17.067v25.6h23.04
			c11.585,0.015,21.709,7.827,24.661,19.029L502.467,250.477z"/>
		<path style="fill:#02A9F4;" d="M476.867,250.477v175.189c0.002,9.053-3.593,17.737-9.995,24.139
			c-6.402,6.402-15.085,9.997-24.139,9.995H41.667c-9.053,0.002-17.737-3.593-24.139-9.995c-6.402-6.402-9.997-15.085-9.995-24.139
			V250.477l29.099-112.981c2.71-10.282,11.521-17.8,22.101-18.859c0.853-0.085,1.707-0.171,2.56-0.171h23.04v-25.6
			c0.028-9.414,7.652-17.039,17.067-17.067h8.533V58.733c0.028-9.414,7.652-17.039,17.067-17.067h230.4
			c9.414,0.028,17.039,7.652,17.067,17.067V75.8H383c9.414,0.028,17.039,7.652,17.067,17.067v25.6h23.04
			c0.853,0,1.707,0.085,2.56,0.171c10.581,1.059,19.391,8.577,22.101,18.859l21.504,83.456L476.867,250.477z"/>
		<path style="fill:#607D8B;" d="M502.467,255v68.267h-25.6v-72.789l-7.595-29.525C487.747,221.403,502.484,236.519,502.467,255z"/>
		<path style="fill:#CFD8DC;" d="M476.867,250.477v72.789H7.533l0-68.267c-0.003-9.053,3.593-17.737,9.995-24.139
			c6.402-6.402,15.085-9.997,24.139-9.995h426.667c0.315-0.014,0.631,0.015,0.939,0.085L476.867,250.477z"/>
		<g>
			<path style="fill:#3F51B5;" d="M408.6,374.467v17.067H101.4v-17.067c0.028-9.414,7.652-17.039,17.067-17.067h273.067
				C400.948,357.428,408.573,365.052,408.6,374.467z"/>
			<polygon style="fill:#3F51B5;" points="408.6,391.533 408.6,459.8 383.683,459.8 126.317,459.8 101.4,459.8 101.4,391.533 			"/>
		</g>
		<path style="fill:#607D8B;" d="M382.829,502.467H127.171c-2.617,0.044-5.109-1.117-6.758-3.149
			c-1.649-2.032-2.272-4.71-1.69-7.262l23.552-100.523h225.451l23.552,100.523c0.582,2.552-0.041,5.229-1.69,7.262
			C387.938,501.35,385.446,502.511,382.829,502.467z"/>
		<path style="fill:#CFD8DC;" d="M357.229,502.467H127.171c-2.617,0.044-5.109-1.117-6.758-3.149
			c-1.649-2.032-2.272-4.71-1.69-7.262l23.552-100.523h199.851l23.552,100.523c0.582,2.552-0.041,5.229-1.69,7.262
			C362.338,501.35,359.846,502.511,357.229,502.467z"/>
		<circle style="fill:#46B29D;" cx="58.733" cy="272.067" r="17.067"/>
		<g>
			<path style="fill:#3F51B5;" d="M425.667,92.867V152.6H84.333V92.867c0.028-9.414,7.652-17.039,17.067-17.067h307.2
				C418.014,75.828,425.639,83.452,425.667,92.867z"/>
			<path style="fill:#3F51B5;" d="M400.067,58.733V75.8H109.933V58.733c0.028-9.414,7.652-17.039,17.067-17.067h256
				C392.414,41.694,400.039,49.319,400.067,58.733z"/>
		</g>
		<path style="fill:#607D8B;" d="M365.933,16.067V152.6H144.067V16.067c0.014-4.707,3.826-8.519,8.533-8.533h204.8
			C362.107,7.547,365.919,11.36,365.933,16.067z"/>
		<path style="fill:#CFD8DC;" d="M340.333,16.067V152.6H144.067V16.067c0.014-4.707,3.826-8.519,8.533-8.533h179.2
			C336.507,7.547,340.319,11.36,340.333,16.067z"/>
		<path style="fill:#02A9F4;" d="M118.467,220.867h273.067v51.2c0,9.426-7.641,17.067-17.067,17.067H135.533
			c-9.426,0-17.067-7.641-17.067-17.067V220.867z"/>
		<path style="fill:#95A5A5;" d="M212.333,255h85.333c9.426,0,17.067,7.641,17.067,17.067v17.067H195.267v-17.067
			C195.267,262.641,202.908,255,212.333,255z"/>
		<path style="fill:#0377BC;" d="M391.533,220.867H118.467l5.302-21.206c1.899-7.598,8.726-12.927,16.557-12.927h229.35
			c7.831,0,14.658,5.33,16.557,12.927L391.533,220.867z"/>
	</g>
	<g>
		<path d="M482.617,136.317c-3.953-14.939-17.455-25.354-32.908-25.383H435.2V93.867c-0.015-14.132-11.468-25.585-25.6-25.6v-8.533
			c-0.015-14.132-11.468-25.585-25.6-25.6h-8.533V17.067C375.456,7.645,367.821,0.011,358.4,0H153.6
			c-9.421,0.011-17.056,7.645-17.067,17.067v17.067H128c-14.132,0.015-25.585,11.468-25.6,25.6v8.533
			c-14.132,0.015-25.585,11.468-25.6,25.6v17.067H62.292c-15.473,0.035-28.985,10.478-32.921,25.442l-29.1,112.983
			C0.091,250.052,0,250.766,0,251.483v175.183c0.028,23.553,19.114,42.639,42.667,42.667h73.814l-5.097,21.733
			c-1.193,5.044-0.003,10.356,3.229,14.408c3.267,4.139,8.256,6.545,13.529,6.525h255.717c5.273,0.02,10.262-2.386,13.529-6.525
			c3.232-4.052,4.423-9.365,3.229-14.408l-5.097-21.733h73.814c23.553-0.028,42.639-19.114,42.667-42.667V251.483
			c0-0.717-0.091-1.431-0.271-2.125L482.617,136.317z M418.133,93.867v51.2h-42.667V85.333H409.6
			C414.311,85.338,418.129,89.156,418.133,93.867z M384,51.2c4.711,0.005,8.529,3.822,8.533,8.533v8.533h-17.067V51.2H384z
			 M153.6,17.067h204.8v128H153.6V17.067z M128,51.2h8.533v17.067h-17.067v-8.533C119.471,55.022,123.289,51.205,128,51.2z
			 M93.867,93.867c0.005-4.711,3.822-8.529,8.533-8.533h34.133v59.733H93.867V93.867z M45.884,140.683
			c1.964-7.457,8.697-12.662,16.408-12.683H76.8v17.067h-8.533c-4.713,0-8.533,3.82-8.533,8.533s3.821,8.533,8.533,8.533h375.467
			c4.713,0,8.533-3.821,8.533-8.533s-3.82-8.533-8.533-8.533H435.2V128h14.508c7.692,0.016,14.415,5.193,16.396,12.625l19.57,75.989
			c-5.176-2.164-10.73-3.279-16.341-3.28h-70.137l-3.684-14.75c-2.844-11.399-13.089-19.395-24.837-19.383h-229.35
			c-11.751-0.011-21.998,7.989-24.837,19.392l-3.683,14.742H42.667c-5.61,0.001-11.164,1.116-16.34,3.28L45.884,140.683z
			 M17.067,256c0.015-14.132,11.468-25.585,25.6-25.6h68.267v42.667c0.015,14.132,11.468,25.585,25.6,25.6h238.933
			c14.132-0.015,25.585-11.468,25.6-25.6V230.4h68.267c14.132,0.015,25.585,11.468,25.6,25.6v59.733H17.067V256z M307.2,281.6H204.8
			v-8.533c0.005-4.711,3.822-8.529,8.533-8.533h85.333c4.711,0.005,8.529,3.822,8.533,8.533V281.6z M298.667,247.467h-85.333
			c-14.132,0.015-25.585,11.468-25.6,25.6v8.533h-51.2c-4.711-0.005-8.529-3.822-8.533-8.533V230.4h256v42.667
			c-0.005,4.711-3.822,8.529-8.533,8.533h-51.2v-8.533C324.251,258.935,312.799,247.482,298.667,247.467z M130.396,213.333
			l2.65-10.6c0.945-3.802,4.361-6.471,8.279-6.467h229.35c3.916-0.004,7.33,2.66,8.279,6.458l2.65,10.608H130.396z M401.067,384
			H110.933v-8.533c0.005-4.711,3.822-8.529,8.533-8.533h273.067c4.711,0.005,8.529,3.822,8.533,8.533V384z M110.933,452.267v-51.2
			h21.558l-12.008,51.2H110.933z M383.858,494.933L128,494.967l22.021-93.9h211.958l22.038,93.8
			C383.983,494.933,383.9,494.933,383.858,494.933z M391.517,452.267l-12.008-51.2h21.558v51.2H391.517z M469.333,452.267h-51.2
			v-76.8c-0.015-14.132-11.468-25.585-25.6-25.6H119.467c-14.132,0.015-25.585,11.468-25.6,25.6v76.8h-51.2
			c-14.132-0.015-25.585-11.468-25.6-25.6V332.8h477.867v93.867C494.918,440.799,483.466,452.251,469.333,452.267z"/>
		<path d="M59.733,247.467c-14.138,0-25.6,11.462-25.6,25.6s11.462,25.6,25.6,25.6s25.6-11.462,25.6-25.6
			C85.318,258.935,73.865,247.482,59.733,247.467z M59.733,281.6c-4.713,0-8.533-3.82-8.533-8.533s3.821-8.533,8.533-8.533
			s8.533,3.82,8.533,8.533C68.262,277.778,64.444,281.595,59.733,281.6z"/>
	</g>
</g>
<g>
</g>
<g>
</g>
<g>
</g>
<g>
</g>
<g>
</g>
<g>
</g>
<g>
</g>
<g>
</g>
<g>
</g>
<g>
</g>
<g>
</g>
<g>
</g>
<g>
</g>
<g>
</g>
<g>
</g>
</svg>
