<?xml version="1.0" encoding="iso-8859-1"?>
<!-- Generator: Adobe Illustrator 19.0.0, SVG Export Plug-In . SVG Version: 6.00 Build 0)  -->
<svg version="1.1" id="Capa_1" xmlns="http://www.w3.org/2000/svg" xmlns:xlink="http://www.w3.org/1999/xlink" x="0px" y="0px"
	 viewBox="0 0 512 512" style="enable-background:new 0 0 512 512;" xml:space="preserve">
<g>
	<g transform="translate(0 1)">
		<path style="fill:#00838F;" d="M503.467,255c0.003,38.475-15.279,75.375-42.485,102.581S396.875,400.07,358.4,400.067
			c-4.189,0.014-8.376-0.186-12.544-0.597c-1.536-0.085-3.072-0.256-4.523-0.427V255c0.097,9.385,7.681,16.97,17.067,17.067
			c9.426,0,17.067-7.641,17.067-17.067s-7.641-17.067-17.067-17.067c-9.087,0.106-16.542,7.226-17.067,16.299V110.957
			c1.451-0.171,2.987-0.341,4.523-0.427c4.168-0.412,8.355-0.611,12.544-0.597c38.475-0.003,75.375,15.279,102.581,42.485
			S503.47,216.525,503.467,255z"/>
		<path style="fill:#00BCD4;" d="M477.867,255c-0.009,75.054-57.262,137.71-132.011,144.469c-1.536-0.085-3.072-0.256-4.523-0.427
			v-129.28c1.625-0.93,3.07-2.144,4.267-3.584c3.203,3.737,7.878,5.888,12.8,5.888c9.426,0,17.067-7.641,17.067-17.067
			s-7.641-17.067-17.067-17.067c-4.922,0-9.597,2.151-12.8,5.888c-1.196-1.44-2.642-2.654-4.267-3.584v-129.28
			c1.451-0.171,2.987-0.341,4.523-0.427C420.605,117.29,477.858,179.946,477.867,255z"/>
		<path style="fill:#CFD8DC;" d="M409.6,255c-0.022,28.268-22.932,51.178-51.2,51.2c-5.82,0.015-11.598-0.996-17.067-2.987V255
			c0,9.426,7.641,17.067,17.067,17.067s17.067-7.641,17.067-17.067s-7.641-17.067-17.067-17.067
			c-9.414,0.028-17.039,7.652-17.067,17.067v-48.213c5.469-1.991,11.246-3.002,17.067-2.987
			C386.668,203.822,409.578,226.732,409.6,255z"/>
		<path style="fill:#95A5A5;" d="M341.333,7.533V459.8c-0.009,23.561-19.106,42.658-42.667,42.667H8.533V7.533H341.333z"/>
		<g>
			<path style="fill:#7F8C8D;" d="M281.6,7.533V178.2c0.002,9.053-3.593,17.737-9.995,24.139
				c-6.402,6.402-15.085,9.997-24.139,9.995H8.533V7.533H281.6z"/>
			<path style="fill:#7F8C8D;" d="M51.2,263.533v187.733c-0.028,9.414-7.653,17.039-17.067,17.067h-25.6V246.467h25.6
				C43.548,246.494,51.172,254.119,51.2,263.533z"/>
		</g>
		<g>
			<path style="fill:#5E5F62;" d="M51.2,144.067h17.067c4.713,0,8.533,3.82,8.533,8.533v17.067c0,4.713-3.82,8.533-8.533,8.533H51.2
				c-4.713,0-8.533-3.821-8.533-8.533V152.6C42.667,147.887,46.487,144.067,51.2,144.067z"/>
			<path style="fill:#5E5F62;" d="M51.2,75.8h17.067c4.713,0,8.533,3.821,8.533,8.533V101.4c0,4.713-3.82,8.533-8.533,8.533H51.2
				c-4.713,0-8.533-3.821-8.533-8.533V84.333C42.667,79.621,46.487,75.8,51.2,75.8z"/>
			<path style="fill:#5E5F62;" d="M42.667,7.533v25.6c-0.014,4.707-3.826,8.519-8.533,8.533H17.067
				c-4.707-0.014-8.519-3.826-8.533-8.533v-25.6H42.667z"/>
			<path style="fill:#5E5F62;" d="M76.8,7.533h34.133v25.6c0,4.713-3.821,8.533-8.533,8.533H85.333
				c-4.713,0-8.533-3.821-8.533-8.533V7.533z"/>
			<path style="fill:#5E5F62;" d="M145.067,7.533H179.2v25.6c0,4.713-3.821,8.533-8.533,8.533H153.6
				c-4.713,0-8.533-3.821-8.533-8.533V7.533z"/>
			<path style="fill:#5E5F62;" d="M213.333,7.533h34.133v25.6c0,4.713-3.82,8.533-8.533,8.533h-17.067
				c-4.713,0-8.533-3.821-8.533-8.533V7.533z"/>
			<path style="fill:#5E5F62;" d="M119.467,75.8h17.067c4.713,0,8.533,3.821,8.533,8.533V101.4c0,4.713-3.821,8.533-8.533,8.533
				h-17.067c-4.713,0-8.533-3.821-8.533-8.533V84.333C110.933,79.621,114.754,75.8,119.467,75.8z"/>
			<path style="fill:#5E5F62;" d="M187.733,75.8h51.2c4.713,0,8.533,3.821,8.533,8.533V101.4c0,4.713-3.82,8.533-8.533,8.533h-51.2
				c-4.713,0-8.533-3.821-8.533-8.533V84.333C179.2,79.621,183.021,75.8,187.733,75.8z"/>
			<path style="fill:#5E5F62;" d="M119.467,144.067h119.467c4.713,0,8.533,3.82,8.533,8.533v17.067c0,4.713-3.82,8.533-8.533,8.533
				H119.467c-4.713,0-8.533-3.821-8.533-8.533V152.6C110.933,147.887,114.754,144.067,119.467,144.067z"/>
		</g>
		<path style="fill:#37474F;" d="M341.333,7.533V459.8c-0.009,23.561-19.106,42.658-42.667,42.667H8.533v-34.133H0
			c2.998-0.003,5.941-0.798,8.533-2.304V248.771c-2.592-1.506-5.536-2.301-8.533-2.304h8.533V7.533H341.333z"/>
		<path style="fill:#607D8B;" d="M315.733,7.533V459.8c-0.009,23.561-19.106,42.658-42.667,42.667H8.533v-34.133H0
			c2.998-0.003,5.941-0.798,8.533-2.304V248.771c-2.592-1.506-5.536-2.301-8.533-2.304h8.533V7.533H315.733z"/>
		<g>
			<path style="fill:#CFD8DC;" d="M281.6,7.533V178.2c0.002,9.053-3.593,17.737-9.995,24.139
				c-6.402,6.402-15.085,9.997-24.139,9.995H8.533V7.533H281.6z"/>
			<path style="fill:#CFD8DC;" d="M34.133,468.333c9.414-0.028,17.039-7.652,17.067-17.067V263.533
				c-0.028-9.414-7.652-17.039-17.067-17.067h-25.6v221.867H34.133z"/>
		</g>
		<path style="fill:#F4F4F4;" d="M17.067,263.533v187.733c0.001,6.093-3.253,11.722-8.533,14.763V248.771
			C13.813,251.811,17.067,257.441,17.067,263.533z"/>
		<g>
			<path style="fill:#009688;" d="M51.2,144.067h17.067c4.713,0,8.533,3.82,8.533,8.533v17.067c0,4.713-3.82,8.533-8.533,8.533H51.2
				c-4.713,0-8.533-3.821-8.533-8.533V152.6C42.667,147.887,46.487,144.067,51.2,144.067z"/>
			<path style="fill:#009688;" d="M51.2,75.8h17.067c4.713,0,8.533,3.821,8.533,8.533V101.4c0,4.713-3.82,8.533-8.533,8.533H51.2
				c-4.713,0-8.533-3.821-8.533-8.533V84.333C42.667,79.621,46.487,75.8,51.2,75.8z"/>
			<path style="fill:#009688;" d="M42.667,7.533v25.6c-0.014,4.707-3.826,8.519-8.533,8.533H17.067
				c-4.707-0.014-8.519-3.826-8.533-8.533v-25.6H42.667z"/>
			<path style="fill:#009688;" d="M76.8,7.533h34.133v25.6c0,4.713-3.821,8.533-8.533,8.533H85.333
				c-4.713,0-8.533-3.821-8.533-8.533V7.533z"/>
			<path style="fill:#009688;" d="M145.067,7.533H179.2v25.6c0,4.713-3.821,8.533-8.533,8.533H153.6
				c-4.713,0-8.533-3.821-8.533-8.533V7.533z"/>
			<path style="fill:#009688;" d="M213.333,7.533h34.133v25.6c0,4.713-3.82,8.533-8.533,8.533h-17.067
				c-4.713,0-8.533-3.821-8.533-8.533V7.533z"/>
			<path style="fill:#009688;" d="M119.467,75.8h17.067c4.713,0,8.533,3.821,8.533,8.533V101.4c0,4.713-3.821,8.533-8.533,8.533
				h-17.067c-4.713,0-8.533-3.821-8.533-8.533V84.333C110.933,79.621,114.754,75.8,119.467,75.8z"/>
			<path style="fill:#009688;" d="M187.733,75.8h51.2c4.713,0,8.533,3.821,8.533,8.533V101.4c0,4.713-3.82,8.533-8.533,8.533h-51.2
				c-4.713,0-8.533-3.821-8.533-8.533V84.333C179.2,79.621,183.021,75.8,187.733,75.8z"/>
			<path style="fill:#009688;" d="M119.467,144.067h119.467c4.713,0,8.533,3.82,8.533,8.533v17.067c0,4.713-3.82,8.533-8.533,8.533
				H119.467c-4.713,0-8.533-3.821-8.533-8.533V152.6C110.933,147.887,114.754,144.067,119.467,144.067z"/>
		</g>
	</g>
	<g>
		<path d="M8.533,512h294.196c27.12-1.197,48.182-24.073,47.138-51.2v-51.456c2.84,0.16,5.689,0.256,8.533,0.256
			c84.831,0,153.6-68.769,153.6-153.6s-68.769-153.6-153.6-153.6c-2.844,0-5.694,0.096-8.533,0.256V8.533
			c0.001-2.263-0.898-4.434-2.499-6.035c-1.6-1.6-3.771-2.499-6.035-2.499H8.533C6.27-0.001,4.099,0.898,2.499,2.499
			S-0.001,6.27,0,8.533v494.933c-0.001,2.263,0.898,4.434,2.499,6.035C4.099,511.102,6.27,512.001,8.533,512z M17.067,256h17.067
			c4.711,0.005,8.529,3.822,8.533,8.533v187.733c-0.005,4.711-3.822,8.529-8.533,8.533H17.067V256z M349.867,280.027
			c2.733,1.012,5.62,1.544,8.533,1.573c14.138,0,25.6-11.461,25.6-25.6c0-14.138-11.462-25.6-25.6-25.6
			c-2.914,0.029-5.801,0.561-8.533,1.572v-17.669c2.803-0.617,5.663-0.942,8.533-0.97c23.564,0,42.667,19.103,42.667,42.667
			c0,23.564-19.103,42.667-42.667,42.667c-2.87-0.028-5.73-0.353-8.533-0.97V280.027z M349.867,256c0-4.713,3.82-8.533,8.533-8.533
			s8.533,3.821,8.533,8.533c0,4.713-3.82,8.533-8.533,8.533C353.689,264.529,349.871,260.711,349.867,256z M358.4,119.467
			c75.405,0,136.533,61.128,136.533,136.533S433.805,392.533,358.4,392.533c-2.847,0-5.697-0.105-8.533-0.286v-77.249
			c2.823,0.452,5.675,0.697,8.533,0.735c32.99,0,59.733-26.743,59.733-59.733c0-32.99-26.744-59.733-59.733-59.733
			c-2.858,0.038-5.71,0.284-8.533,0.735v-77.249C352.703,119.571,355.553,119.467,358.4,119.467z M332.8,460.8
			c1.029,17.698-12.385,32.924-30.071,34.133H17.067v-17.067h17.067c14.132-0.015,25.585-11.468,25.6-25.6V264.533
			c-0.015-14.132-11.468-25.585-25.6-25.6H17.067v-17.067h230.4c23.553-0.028,42.639-19.114,42.667-42.667V17.067H332.8V460.8z
			 M238.938,17.067l0.009,17.067h-17.079V17.067H238.938z M170.671,17.067l0.009,17.067H153.6V17.067H170.671z M102.404,17.067
			l0.009,17.067H85.333V17.067H102.404z M17.067,17.067h17.071l0.009,17.067H17.067V17.067z M34.133,51.2
			c9.421-0.011,17.056-7.645,17.067-17.067V17.067h17.067v17.067c0.011,9.421,7.645,17.056,17.067,17.067H102.4
			c9.421-0.011,17.056-7.645,17.067-17.067V17.067h17.067v17.067c0.011,9.421,7.645,17.056,17.067,17.067h17.067
			c9.421-0.011,17.056-7.645,17.067-17.067V17.067H204.8v17.067c0.011,9.421,7.645,17.056,17.067,17.067h17.067
			c9.421-0.011,17.056-7.645,17.067-17.067V17.067h17.067V179.2c-0.015,14.132-11.468,25.585-25.6,25.6h-230.4V51.2H34.133z"/>
		<path d="M51.2,187.733h17.067c9.421-0.011,17.056-7.645,17.067-17.067V153.6c-0.011-9.421-7.645-17.056-17.067-17.067H51.2
			c-9.421,0.011-17.056,7.645-17.067,17.067v17.067C34.144,180.088,41.779,187.723,51.2,187.733z M51.2,153.6h17.067l0.012,17.067
			H51.2V153.6z"/>
		<path d="M51.2,119.467h17.067c9.421-0.011,17.056-7.645,17.067-17.067V85.333c-0.011-9.421-7.645-17.056-17.067-17.067H51.2
			c-9.421,0.011-17.056,7.645-17.067,17.067V102.4C34.144,111.821,41.779,119.456,51.2,119.467z M51.2,85.333h17.067l0.012,17.067
			H51.2V85.333z"/>
		<path d="M119.467,119.467h17.067c9.421-0.011,17.056-7.645,17.067-17.067V85.333c-0.011-9.421-7.645-17.056-17.067-17.067h-17.067
			c-9.421,0.011-17.056,7.645-17.067,17.067V102.4C102.411,111.821,110.045,119.456,119.467,119.467z M119.467,85.333h17.067
			l0.012,17.067h-17.079V85.333z"/>
		<path d="M187.733,119.467h51.2c9.421-0.011,17.056-7.645,17.067-17.067V85.333c-0.011-9.421-7.645-17.056-17.067-17.067h-51.2
			c-9.421,0.011-17.056,7.645-17.067,17.067V102.4C170.677,111.821,178.312,119.456,187.733,119.467z M187.733,85.333h51.2
			l0.012,17.067h-51.212V85.333z"/>
		<path d="M119.467,187.733h119.467c9.421-0.011,17.056-7.645,17.067-17.067V153.6c-0.011-9.421-7.645-17.056-17.067-17.067H119.467
			c-9.421,0.011-17.056,7.645-17.067,17.067v17.067C102.411,180.088,110.045,187.723,119.467,187.733z M119.467,153.6h119.467
			l0.012,17.067H119.467V153.6z"/>
		<path d="M449.233,208.75c1.472,2.819,4.39,4.586,7.571,4.583c1.375,0.002,2.73-0.333,3.946-0.975
			c2.005-1.047,3.512-2.848,4.188-5.007c0.677-2.158,0.468-4.497-0.58-6.502c-1.646-3.15-3.429-6.225-5.338-9.192
			c-1.639-2.581-4.534-4.088-7.589-3.949c-3.055,0.139-5.801,1.902-7.2,4.621c-1.398,2.719-1.234,5.979,0.431,8.544
			C446.296,203.425,447.819,206.05,449.233,208.75z"/>
		<path d="M366.283,153.9c20.092,1.53,39.277,8.99,55.125,21.433c2.399,1.885,5.622,2.345,8.453,1.207
			c2.831-1.139,4.838-3.702,5.264-6.724c0.426-3.021-0.795-6.04-3.2-7.917c-18.498-14.525-40.891-23.231-64.341-25.017
			c-3.052-0.255-6.007,1.146-7.742,3.67c-1.735,2.524-1.984,5.785-0.653,8.543C360.521,151.855,363.228,153.688,366.283,153.9
			L366.283,153.9z"/>
	</g>
</g>
<g>
</g>
<g>
</g>
<g>
</g>
<g>
</g>
<g>
</g>
<g>
</g>
<g>
</g>
<g>
</g>
<g>
</g>
<g>
</g>
<g>
</g>
<g>
</g>
<g>
</g>
<g>
</g>
<g>
</g>
</svg>
