<?xml version="1.0" encoding="iso-8859-1"?>
<!-- Generator: Adobe Illustrator 19.0.0, SVG Export Plug-In . SVG Version: 6.00 Build 0)  -->
<svg version="1.1" id="Capa_1" xmlns="http://www.w3.org/2000/svg" xmlns:xlink="http://www.w3.org/1999/xlink" x="0px" y="0px"
	 viewBox="0 0 512.002 512.002" style="enable-background:new 0 0 512.002 512.002;" xml:space="preserve">
<g>
	<g transform="translate(1 1)">
		<path style="fill:#00695C;" d="M383.001,451.269v42.667c-0.014,4.707-3.826,8.52-8.533,8.533H135.534
			c-4.707-0.014-8.52-3.826-8.533-8.533v-42.667H383.001z"/>
		<path style="fill:#009688;" d="M357.401,451.269v42.667c-0.014,4.707-3.826,8.52-8.533,8.533H135.534
			c-4.707-0.014-8.52-3.826-8.533-8.533v-42.667H357.401z"/>
		<rect x="340.334" y="33.135" style="fill:#CFD8DC;" width="34.133" height="93.867"/>
		<path style="fill:#2E7D32;" d="M118.468,109.935h273.067c9.426,0,17.067,7.641,17.067,17.067v324.267
			c0,9.426-7.641,17.067-17.067,17.067H118.468c-9.426,0-17.067-7.641-17.067-17.067V127.002
			C101.401,117.576,109.042,109.935,118.468,109.935z"/>
		<path style="fill:#4CAF50;" d="M118.468,109.935h247.467c9.426,0,17.067,7.641,17.067,17.067v324.267
			c0,9.426-7.641,17.067-17.067,17.067H118.468c-9.426,0-17.067-7.641-17.067-17.067V127.002
			C101.401,117.576,109.042,109.935,118.468,109.935z"/>
		<path style="fill:#CFD8DC;" d="M408.345,7.535l-281.344,7.424l-25.856,0.683c-4.606,0.154-8.264,3.925-8.277,8.533v17.493
			c0.014,4.707,3.826,8.52,8.533,8.533h307.2c4.707-0.014,8.52-3.826,8.533-8.533v-25.6c-0.007-2.306-0.944-4.511-2.598-6.117
			S410.65,7.474,408.345,7.535z"/>
		<path style="fill:#E91E63;" d="M127.001,14.959v35.243h-25.6c-4.707-0.014-8.52-3.826-8.533-8.533V24.175
			c0.013-4.608,3.671-8.38,8.277-8.533L127.001,14.959z"/>
		<path style="fill:#8BC34A;" d="M169.668,109.935h170.667v298.667c0,14.138-11.461,25.6-25.6,25.6H195.268
			c-14.138,0-25.6-11.462-25.6-25.6V109.935z"/>
	</g>
	<g>
		<path d="M409.601,59.735c9.414-0.003,17.049-7.627,17.067-17.042v-25.65c0.017-4.598-1.843-9.005-5.15-12.2
			c-3.329-3.171-7.769-4.91-12.367-4.842L128.449,7.434c-0.156-0.008-0.29-0.09-0.448-0.09c-0.207,0-0.38,0.103-0.583,0.118
			l-25.458,0.674c-9.267,0.183-16.671,7.772-16.625,17.041v17.517c0.017,9.414,7.652,17.038,17.067,17.042h230.4v42.667H119.468
			c-14.132,0.015-25.585,11.468-25.6,25.6v324.267c0.015,14.132,11.468,25.585,25.6,25.6v17.067
			c0.012,9.421,7.646,17.054,17.067,17.067h238.933c9.421-0.012,17.054-7.646,17.067-17.067v-17.067
			c14.132-0.015,25.585-11.468,25.6-25.6V128.002c-0.015-14.132-11.468-25.585-25.6-25.6h-8.533V59.735H409.601z M409.601,17.044
			v25.625l-34.12,0.003l-0.014-0.003h-34.133l-0.027,0.006l-204.773,0.017V24.296L409.601,17.044z M102.401,25.202l17.067-0.453
			v17.943l-17.067,0.002V25.202z M332.801,119.469v290.133c-0.012,9.421-7.646,17.054-17.067,17.067H196.268
			c-9.421-0.012-17.054-7.646-17.067-17.067V119.469H332.801z M375.485,494.935h-238.95v-17.067h238.942L375.485,494.935z
			 M401.068,128.002v324.267c-0.003,4.712-3.822,8.53-8.533,8.533H119.468c-4.712-0.003-8.53-3.822-8.533-8.533V230.402h17.067
			c4.713,0,8.533-3.821,8.533-8.533s-3.82-8.533-8.533-8.533h-17.067v-17.067h17.067c4.713,0,8.533-3.82,8.533-8.533
			s-3.82-8.533-8.533-8.533h-17.067v-17.067h17.067c4.713,0,8.533-3.821,8.533-8.533c0-4.713-3.82-8.533-8.533-8.533h-17.067
			v-17.067c0.003-4.712,3.822-8.53,8.533-8.533h42.667v290.133c0.019,18.844,15.29,34.115,34.133,34.133h119.467
			c18.844-0.019,34.115-15.29,34.133-34.133V119.469h42.667C397.246,119.472,401.065,123.29,401.068,128.002z M366.934,102.402
			h-17.067V59.735h17.067V102.402z"/>
		<path d="M204.801,384.002h59.733c4.713,0,8.533-3.82,8.533-8.533s-3.82-8.533-8.533-8.533h-59.733
			c-4.713,0-8.533,3.82-8.533,8.533S200.088,384.002,204.801,384.002z"/>
		<path d="M298.668,384.002h8.533c4.713,0,8.533-3.82,8.533-8.533s-3.82-8.533-8.533-8.533h-8.533c-4.713,0-8.533,3.82-8.533,8.533
			S293.955,384.002,298.668,384.002z"/>
	</g>
</g>
<g>
</g>
<g>
</g>
<g>
</g>
<g>
</g>
<g>
</g>
<g>
</g>
<g>
</g>
<g>
</g>
<g>
</g>
<g>
</g>
<g>
</g>
<g>
</g>
<g>
</g>
<g>
</g>
<g>
</g>
</svg>
