<?xml version="1.0" encoding="iso-8859-1"?>
<!-- Generator: Adobe Illustrator 19.0.0, SVG Export Plug-In . SVG Version: 6.00 Build 0)  -->
<svg version="1.1" id="Capa_1" xmlns="http://www.w3.org/2000/svg" xmlns:xlink="http://www.w3.org/1999/xlink" x="0px" y="0px"
	 viewBox="0 0 512 512" style="enable-background:new 0 0 512 512;" xml:space="preserve">
<g>
	<g transform="translate(1 1)">
		<path style="fill:#2E7D32;" d="M400.067,16.067V306.2l-2.817,34.133l-2.815,34.133l-2.219,26.283
			c-0.394,4.426-4.09,7.826-8.533,7.851h-9.217v85.333c-0.014,4.707-3.826,8.52-8.533,8.533h-51.2
			c-4.707-0.014-8.52-3.826-8.533-8.533V408.6h-9.217c-4.443-0.025-8.139-3.425-8.533-7.851l-2.219-26.283l-2.815-34.133
			L280.6,306.2V16.067h34.133V7.533h51.2v8.533H400.067z"/>
		<path style="fill:#4CAF50;" d="M374.467,16.067V306.2l-2.817,34.133l-2.815,34.133l-2.219,26.283
			c-0.394,4.426-4.09,7.826-8.533,7.851h-9.217v85.333c-0.014,4.707-3.826,8.52-8.533,8.533h-25.6
			c-4.707-0.014-8.52-3.826-8.533-8.533V408.6h-9.217c-4.443-0.025-8.139-3.425-8.533-7.851l-2.219-26.283l-2.815-34.133
			L280.6,306.2V16.067h8.533V7.533h51.2v8.533H374.467z"/>
		<polygon style="fill:#607D8B;" points="400.067,50.2 400.067,16.067 374.467,16.067 314.733,16.067 280.6,16.067 280.6,50.2 		"/>
		<g>
			<path style="fill:#8BC34A;" d="M306.2,408.6h68.267v85.333c0,4.713-3.82,8.533-8.533,8.533h-51.2
				c-4.713,0-8.533-3.821-8.533-8.533V408.6z"/>
			<path style="fill:#8BC34A;" d="M394.435,374.467l-2.219,26.283c-0.394,4.426-4.09,7.826-8.533,7.851h-86.7
				c-4.443-0.025-8.139-3.425-8.533-7.851l-2.219-26.283H394.435z"/>
			<polygon style="fill:#8BC34A;" points="397.251,340.333 394.435,374.467 286.232,374.467 283.416,340.333 			"/>
			<polygon style="fill:#8BC34A;" points="400.067,306.2 397.251,340.333 283.416,340.333 280.6,306.2 			"/>
		</g>
		<rect x="280.6" y="50.2" style="fill:#607D8B;" width="119.467" height="136.533"/>
		<g>
			<rect x="280.6" y="50.2" style="fill:#CFD8DC;" width="93.867" height="136.533"/>
			<rect x="314.733" y="7.533" style="fill:#CFD8DC;" width="51.2" height="102.4"/>
		</g>
		<rect x="323.267" y="109.933" style="fill:#FFFFFF;" width="34.133" height="93.867"/>
		<path style="fill:#558B30;" d="M400.067,306.2l-2.817,34.133l-2.815,34.133l-2.219,26.283c-0.394,4.426-4.09,7.826-8.533,7.851
			h-9.217v85.333c-0.014,4.707-3.826,8.52-8.533,8.533h-25.6c4.707-0.014,8.52-3.826,8.533-8.533V408.6h9.217
			c4.443-0.025,8.139-3.425,8.533-7.851l2.219-26.283l2.815-34.133l2.817-34.133H400.067z"/>
		<path style="fill:#2E7D32;" d="M229.4,16.067V306.2l-2.817,34.133l-2.815,34.133l-2.219,26.283
			c-0.394,4.426-4.09,7.826-8.533,7.851H203.8v85.333c-0.014,4.707-3.826,8.52-8.533,8.533h-51.2
			c-4.707-0.014-8.52-3.826-8.533-8.533V408.6h-9.217c-4.443-0.025-8.139-3.425-8.533-7.851l-2.219-26.283l-2.815-34.133
			l-2.817-34.133V16.067h34.133V7.533h51.2v8.533H229.4z"/>
		<path style="fill:#4CAF50;" d="M203.8,16.067V306.2l-2.817,34.133l-2.815,34.133l-2.219,26.283
			c-0.394,4.426-4.09,7.826-8.533,7.851H178.2v85.333c-0.014,4.707-3.826,8.52-8.533,8.533h-25.6
			c-4.707-0.014-8.52-3.826-8.533-8.533V408.6h-9.217c-4.443-0.025-8.139-3.425-8.533-7.851l-2.219-26.283l-2.815-34.133
			l-2.817-34.133V16.067h8.533V7.533h51.2v8.533H203.8z"/>
		<polygon style="fill:#607D8B;" points="229.4,50.2 229.4,16.067 203.8,16.067 144.067,16.067 109.933,16.067 109.933,50.2 		"/>
		<g>
			<path style="fill:#8BC34A;" d="M135.533,408.6H203.8v85.333c0,4.713-3.821,8.533-8.533,8.533h-51.2
				c-4.713,0-8.533-3.821-8.533-8.533V408.6z"/>
			<path style="fill:#8BC34A;" d="M223.769,374.467l-2.219,26.283c-0.394,4.426-4.09,7.826-8.533,7.851h-86.7
				c-4.443-0.025-8.139-3.425-8.533-7.851l-2.219-26.283H223.769z"/>
			<polygon style="fill:#8BC34A;" points="226.584,340.333 223.768,374.467 115.565,374.467 112.749,340.333 			"/>
			<polygon style="fill:#8BC34A;" points="229.4,306.2 226.584,340.333 112.749,340.333 109.933,306.2 			"/>
		</g>
		<rect x="109.933" y="50.2" style="fill:#607D8B;" width="119.467" height="136.533"/>
		<g>
			<rect x="109.933" y="50.2" style="fill:#CFD8DC;" width="93.867" height="136.533"/>
			<rect x="144.067" y="7.533" style="fill:#CFD8DC;" width="51.2" height="102.4"/>
		</g>
		<rect x="152.6" y="109.933" style="fill:#FFFFFF;" width="34.133" height="93.867"/>
		<path style="fill:#558B30;" d="M229.4,306.2l-2.817,34.133l-2.815,34.133l-2.219,26.283c-0.394,4.426-4.09,7.826-8.533,7.851
			H203.8v85.333c-0.014,4.707-3.826,8.52-8.533,8.533h-25.6c4.707-0.014,8.52-3.826,8.533-8.533V408.6h9.217
			c4.443-0.025,8.139-3.425,8.533-7.851l2.219-26.283l2.815-34.133L203.8,306.2H229.4z"/>
	</g>
	<g>
		<path d="M238.933,187.733V17.067c0.001-2.264-0.897-4.435-2.498-6.035c-1.601-1.601-3.772-2.499-6.035-2.498h-25.6
			c0.001-2.264-0.897-4.435-2.498-6.035c-1.601-1.601-3.772-2.499-6.035-2.498h-51.2c-2.264-0.001-4.435,0.897-6.035,2.498
			c-1.601,1.601-2.499,3.772-2.498,6.035h-25.6c-2.264-0.001-4.435,0.897-6.035,2.498c-1.601,1.601-2.499,3.772-2.498,6.035V307.2
			c0,0.132,0.069,0.242,0.075,0.372c0.005,0.115-0.052,0.221-0.042,0.336l7.875,94.575c0.783,8.823,8.151,15.602,17.008,15.65H128
			v76.8c0.012,9.421,7.646,17.054,17.067,17.067h51.2c9.421-0.012,17.054-7.646,17.067-17.067v-76.8h0.683
			c8.857-0.046,16.223-6.827,17-15.65l5.096-61.126l0.004-0.024l-0.002-0.01l2.785-33.415c0.01-0.115-0.047-0.222-0.042-0.336
			c0.006-0.131,0.075-0.24,0.075-0.372V187.733z M221.867,298.667h-102.4v-102.4h25.6v8.533c-0.001,2.264,0.897,4.435,2.498,6.035
			s3.772,2.499,6.035,2.498h34.133c2.264,0.001,4.435-0.897,6.035-2.498c1.601-1.601,2.499-3.772,2.498-6.035v-8.533h25.6V298.667z
			 M219.702,332.8H121.63l-1.422-17.067h100.917L219.702,332.8z M179.2,196.267h-17.067v-76.8H179.2V196.267z M221.867,179.2h-25.6
			v-59.733c2.264,0.001,4.435-0.897,6.035-2.498c1.601-1.601,2.499-3.772,2.498-6.035v-51.2h17.067V179.2z M187.733,102.4H153.6
			V59.733h34.133V102.4z M145.067,119.467V179.2h-25.6V59.733h17.067v51.2c-0.001,2.264,0.897,4.435,2.498,6.035
			C140.632,118.569,142.803,119.468,145.067,119.467z M123.052,349.867h95.226l-1.423,17.067h-92.382L123.052,349.867z
			 M221.867,25.6v17.067H204.8V25.6H221.867z M187.733,17.067v25.6H153.6v-25.6H187.733z M136.533,25.6v17.067h-17.067V25.6H136.533
			z M196.284,494.933h-51.217v-76.8h51.2L196.284,494.933z M214.008,401.067h-86.692L125.895,384h89.536L214.008,401.067z
			 M214.017,409.6v-8.533h0.009L214.017,409.6z"/>
		<path d="M409.6,187.733V17.067c0.001-2.264-0.897-4.435-2.498-6.035c-1.601-1.601-3.772-2.499-6.035-2.498h-25.6
			c0.001-2.264-0.897-4.435-2.498-6.035S369.197-0.001,366.933,0h-51.2c-2.264-0.001-4.435,0.897-6.035,2.498
			s-2.499,3.772-2.498,6.035h-25.6c-2.264-0.001-4.435,0.897-6.035,2.498s-2.499,3.772-2.498,6.035V307.2
			c0,0.132,0.069,0.242,0.075,0.372c0.005,0.115-0.052,0.221-0.042,0.336l7.875,94.575c0.783,8.823,8.151,15.602,17.008,15.65h0.683
			v76.8c0.012,9.421,7.646,17.054,17.067,17.067h51.2c9.421-0.012,17.054-7.646,17.067-17.067v-76.8h0.683
			c8.857-0.046,16.223-6.827,17-15.65l5.096-61.126l0.004-0.024l-0.002-0.01l2.785-33.415c0.01-0.115-0.047-0.222-0.042-0.336
			c0.006-0.131,0.075-0.24,0.075-0.372V187.733z M392.533,298.667h-102.4v-102.4h25.6v8.533c-0.001,2.264,0.897,4.435,2.498,6.035
			s3.772,2.499,6.035,2.498H358.4c2.264,0.001,4.435-0.897,6.035-2.498s2.499-3.772,2.498-6.035v-8.533h25.6V298.667z
			 M390.369,332.8h-98.072l-1.422-17.067h100.917L390.369,332.8z M349.867,196.267H332.8v-76.8h17.067V196.267z M392.533,179.2
			h-25.6v-59.733c2.264,0.001,4.435-0.897,6.035-2.498c1.601-1.601,2.499-3.772,2.498-6.035v-51.2h17.067V179.2z M358.4,102.4
			h-34.133V59.733H358.4V102.4z M315.733,119.467V179.2h-25.6V59.733H307.2v51.2c-0.001,2.264,0.897,4.435,2.498,6.035
			C311.299,118.569,313.47,119.468,315.733,119.467z M293.719,349.867h95.226l-1.423,17.067H295.14L293.719,349.867z M392.533,25.6
			v17.067h-17.067V25.6H392.533z M358.4,17.067v25.6h-34.133v-25.6H358.4z M307.2,25.6v17.067h-17.067V25.6H307.2z M366.95,494.933
			h-51.217v-76.8h51.2L366.95,494.933z M384.675,401.067h-86.692L296.561,384h89.536L384.675,401.067z M384.684,409.6v-8.533h0.009
			L384.684,409.6z"/>
	</g>
</g>
<g>
</g>
<g>
</g>
<g>
</g>
<g>
</g>
<g>
</g>
<g>
</g>
<g>
</g>
<g>
</g>
<g>
</g>
<g>
</g>
<g>
</g>
<g>
</g>
<g>
</g>
<g>
</g>
<g>
</g>
</svg>
