<?xml version="1.0" encoding="iso-8859-1"?>
<!-- Generator: Adobe Illustrator 19.0.0, SVG Export Plug-In . SVG Version: 6.00 Build 0)  -->
<svg version="1.1" id="Capa_1" xmlns="http://www.w3.org/2000/svg" xmlns:xlink="http://www.w3.org/1999/xlink" x="0px" y="0px"
	 viewBox="0 0 512 512" style="enable-background:new 0 0 512 512;" xml:space="preserve">
<g>
	<g transform="translate(1 1)">
		<g>
			<path style="fill:#1566C0;" d="M502.467,109.933V459.8c-0.014,4.707-3.826,8.519-8.533,8.533h-17.067V485.4
				c-0.028,9.414-7.653,17.039-17.067,17.067H50.2c-9.414-0.028-17.039-7.652-17.067-17.067v-17.067H16.067
				c-4.707-0.014-8.519-3.826-8.533-8.533V109.933l28.416-68.267l12.032-28.843c1.322-3.214,4.461-5.306,7.936-5.291h398.165
				c3.475-0.015,6.614,2.077,7.936,5.291l12.032,28.843L502.467,109.933z"/>
			<path style="fill:#2296F3;" d="M476.867,109.933V459.8c-0.014,4.707-3.826,8.519-8.533,8.533h-17.067V485.4
				c-0.028,9.414-7.652,17.039-17.067,17.067h-384c-9.414-0.028-17.039-7.652-17.067-17.067v-17.067H16.067
				c-4.707-0.014-8.519-3.826-8.533-8.533V109.933l28.416-68.267l12.032-28.843c1.322-3.214,4.461-5.306,7.936-5.291h372.565
				c3.475-0.015,6.614,2.077,7.936,5.291l12.032,28.843L476.867,109.933z"/>
		</g>
		
			<rect x="169.667" y="109.933" style="fill:none;stroke:#000000;stroke-width:2;stroke-linecap:round;stroke-linejoin:round;" width="170.667" height="358.4"/>
		<g>
			<circle style="fill:#FFFFFF;" cx="88.6" cy="191" r="38.4"/>
			<path style="fill:#2296F3;" d="M186.733,7.533l-5.717,34.133H35.949l12.032-28.843c1.322-3.214,4.461-5.306,7.936-5.291
				L186.733,7.533z"/>
			<path style="fill:#1566C0;" d="M474.051,41.667h-25.6l-12.032-28.843c-1.322-3.214-4.461-5.306-7.936-5.291l25.6,0
				c3.475-0.015,6.614,2.077,7.936,5.291L474.051,41.667z"/>
			<path style="fill:#2296F3;" d="M448.451,41.667H328.984l-5.717-34.133l105.216,0c3.475-0.015,6.614,2.077,7.936,5.291
				L448.451,41.667z"/>
			<polygon style="fill:#0377BC;" points="502.467,109.933 476.867,109.933 448.451,41.667 474.051,41.667 			"/>
			<polygon style="fill:#02A9F4;" points="476.867,109.933 340.333,109.933 328.984,41.667 448.451,41.667 			"/>
			<path style="fill:#283593;" d="M476.867,468.333V485.4c-0.028,9.414-7.653,17.039-17.067,17.067h-25.6
				c9.414-0.028,17.039-7.653,17.067-17.067v-17.067H476.867z"/>
			<path style="fill:#3F51B5;" d="M451.267,468.333V485.4c-0.028,9.414-7.652,17.039-17.067,17.067h-384
				c-9.414-0.028-17.039-7.653-17.067-17.067v-17.067H451.267z"/>
			<polygon style="fill:#2296F3;" points="328.984,41.667 181.016,41.667 186.733,7.533 323.267,7.533 			"/>
			<g>
				<polygon style="fill:#02A9F4;" points="340.333,109.933 169.667,109.933 181.016,41.667 328.984,41.667 				"/>
				<polygon style="fill:#02A9F4;" points="181.016,41.667 169.667,109.933 7.533,109.933 35.949,41.667 				"/>
			</g>
		</g>
	</g>
	<g>
		<path d="M89.6,238.933c25.921,0,46.933-21.013,46.933-46.933s-21.013-46.933-46.933-46.933S42.667,166.079,42.667,192
			C42.699,217.907,63.693,238.901,89.6,238.933z M89.6,162.133c16.495,0,29.867,13.372,29.867,29.867s-13.372,29.867-29.867,29.867
			S59.733,208.495,59.733,192C59.753,175.513,73.113,162.153,89.6,162.133z"/>
		<path d="M511.342,107.65l-0.007-0.016l-0.018-0.045l-28.375-68.106l-0.107-0.257L470.867,10.5
			c-2.642-6.368-8.864-10.514-15.758-10.5H56.892c-6.894-0.014-13.116,4.132-15.758,10.5L29.165,39.228l-0.105,0.253L0.683,107.592
			l-0.017,0.04l-0.007,0.018c-0.37,0.937-0.569,1.932-0.589,2.939C0.064,110.71,0,110.811,0,110.933V460.8
			c0.012,9.421,7.646,17.054,17.067,17.067H25.6v8.533c0.015,14.132,11.468,25.585,25.6,25.6h409.6
			c14.132-0.015,25.585-11.468,25.6-25.6v-8.533h8.533c9.421-0.012,17.054-7.646,17.067-17.067V110.933
			c0-0.122-0.064-0.224-0.069-0.345C511.911,109.582,511.712,108.587,511.342,107.65z M179.2,460.8V119.467h153.6V460.8H179.2z
			 M194.961,17.067h122.078l2.844,17.067H192.117L194.961,17.067z M322.728,51.2l8.533,51.2H180.739l8.533-51.2H322.728z
			 M348.558,102.4l-8.53-51.2h129.309l21.33,51.2H348.558z M455.117,17.067l7.11,17.067H337.185l-2.843-17.067H455.117z
			 M177.658,17.067l-2.843,17.067H49.78l7.112-17.067H177.658z M42.668,51.2h129.304l-8.53,51.2H21.333L42.668,51.2z
			 M17.067,119.467h145.067V460.8H17.067V119.467z M469.333,486.4c-0.003,4.712-3.822,8.53-8.533,8.533H51.2
			c-4.712-0.003-8.53-3.822-8.533-8.533v-8.533h426.667V486.4z M477.867,460.8h-128V119.467h145.067L494.95,460.8H477.867z"/>
		<path d="M93.867,68.267H76.8c-4.713,0-8.533,3.82-8.533,8.533c0,4.713,3.821,8.533,8.533,8.533h17.067
			c4.713,0,8.533-3.821,8.533-8.533C102.4,72.087,98.579,68.267,93.867,68.267z"/>
		<path d="M247.467,85.333h17.067c4.713,0,8.533-3.821,8.533-8.533c0-4.713-3.82-8.533-8.533-8.533h-17.067
			c-4.713,0-8.533,3.82-8.533,8.533C238.933,81.513,242.754,85.333,247.467,85.333z"/>
		<path d="M435.2,68.267h-17.067c-4.713,0-8.533,3.82-8.533,8.533c0,4.713,3.82,8.533,8.533,8.533H435.2
			c4.713,0,8.533-3.821,8.533-8.533C443.733,72.087,439.913,68.267,435.2,68.267z"/>
		<path d="M102.4,256H76.8c-4.713,0-8.533,3.82-8.533,8.533s3.821,8.533,8.533,8.533h25.6c4.713,0,8.533-3.82,8.533-8.533
			S107.113,256,102.4,256z"/>
		<path d="M102.4,290.133H76.8c-4.713,0-8.533,3.82-8.533,8.533s3.821,8.533,8.533,8.533h25.6c4.713,0,8.533-3.82,8.533-8.533
			S107.113,290.133,102.4,290.133z"/>
		<path d="M102.4,324.267H76.8c-4.713,0-8.533,3.82-8.533,8.533s3.821,8.533,8.533,8.533h25.6c4.713,0,8.533-3.82,8.533-8.533
			S107.113,324.267,102.4,324.267z"/>
	</g>
</g>
<g>
</g>
<g>
</g>
<g>
</g>
<g>
</g>
<g>
</g>
<g>
</g>
<g>
</g>
<g>
</g>
<g>
</g>
<g>
</g>
<g>
</g>
<g>
</g>
<g>
</g>
<g>
</g>
<g>
</g>
</svg>
