<?xml version="1.0" encoding="iso-8859-1"?>
<!-- Generator: Adobe Illustrator 19.0.0, SVG Export Plug-In . SVG Version: 6.00 Build 0)  -->
<svg version="1.1" id="Capa_1" xmlns="http://www.w3.org/2000/svg" xmlns:xlink="http://www.w3.org/1999/xlink" x="0px" y="0px"
	 viewBox="0 0 512 512" style="enable-background:new 0 0 512 512;" xml:space="preserve">
<g>
	<g transform="translate(1 1)">
		<path style="fill:#283593;" d="M41.667,109.933h426.667c18.851,0,34.133,15.282,34.133,34.133v221.867
			c0,18.851-15.282,34.133-34.133,34.133H41.667c-18.851,0-34.133-15.282-34.133-34.133V144.067
			C7.533,125.215,22.815,109.933,41.667,109.933z"/>
		<path style="fill:#3F51B5;" d="M41.667,109.933h401.067c18.851,0,34.133,15.282,34.133,34.133v221.867
			c0,18.851-15.282,34.133-34.133,34.133H41.667c-18.851,0-34.133-15.282-34.133-34.133V144.067
			C7.533,125.215,22.815,109.933,41.667,109.933z"/>
		<path style="fill:#37474F;" d="M50.2,144.067h409.6c4.713,0,8.533,3.82,8.533,8.533v204.8c0,4.713-3.82,8.533-8.533,8.533H50.2
			c-4.713,0-8.533-3.82-8.533-8.533V152.6C41.667,147.887,45.487,144.067,50.2,144.067z"/>
		<path style="fill:#607D8B;" d="M50.2,144.067h384c4.713,0,8.533,3.82,8.533,8.533v204.8c0,4.713-3.821,8.533-8.533,8.533h-384
			c-4.713,0-8.533-3.82-8.533-8.533V152.6C41.667,147.887,45.487,144.067,50.2,144.067z"/>
		<g>
			<path style="fill:#FFEB3A;" d="M434.2,186.733v34.133c0,4.713-3.82,8.533-8.533,8.533h-25.6c-4.713,0-8.533,3.821-8.533,8.533
				V255c0,4.713-3.82,8.533-8.533,8.533h-17.067c-4.713,0-8.533-3.821-8.533-8.533v-17.067c0-4.713-3.821-8.533-8.533-8.533h-25.6
				c-4.713,0-8.533,3.821-8.533,8.533V255c0,4.713-3.82,8.533-8.533,8.533h-17.067c-4.713,0-8.533-3.821-8.533-8.533v-17.067
				c0-4.713-3.82-8.533-8.533-8.533h-34.133c-4.713,0-8.533,3.821-8.533,8.533V255c0,4.713-3.821,8.533-8.533,8.533H203.8
				c-4.713,0-8.533-3.821-8.533-8.533v-17.067c0-4.713-3.821-8.533-8.533-8.533h-25.6c-4.713,0-8.533,3.821-8.533,8.533V255
				c0,4.713-3.821,8.533-8.533,8.533H127c-4.713,0-8.533-3.821-8.533-8.533v-17.067c0-4.713-3.821-8.533-8.533-8.533h-25.6
				c-4.713,0-8.533-3.821-8.533-8.533v-34.133c0-4.713,3.821-8.533,8.533-8.533h341.333C430.38,178.2,434.2,182.021,434.2,186.733z"
				/>
			<path style="fill:#FFEB3A;" d="M144.067,297.667H229.4c4.713,0,8.533,3.82,8.533,8.533v17.067c0,4.713-3.821,8.533-8.533,8.533
				h-85.333c-4.713,0-8.533-3.82-8.533-8.533V306.2C135.533,301.487,139.354,297.667,144.067,297.667z"/>
			<path style="fill:#FFEB3A;" d="M280.6,297.667h85.333c4.713,0,8.533,3.82,8.533,8.533v17.067c0,4.713-3.82,8.533-8.533,8.533
				H280.6c-4.713,0-8.533-3.82-8.533-8.533V306.2C272.067,301.487,275.887,297.667,280.6,297.667z"/>
		</g>
	</g>
	<g>
		<path d="M85.333,238.933h25.6V256c0.012,9.421,7.646,17.054,17.067,17.067h17.067c9.421-0.012,17.054-7.646,17.067-17.067v-17.067
			h25.6V256c0.012,9.421,7.646,17.054,17.067,17.067h17.067c9.421-0.012,17.054-7.646,17.067-17.067v-17.067h34.133V256
			c0.012,9.421,7.646,17.054,17.067,17.067H307.2c9.421-0.012,17.054-7.646,17.067-17.067v-17.067h25.6V256
			c0.012,9.421,7.646,17.054,17.067,17.067H384c9.421-0.012,17.054-7.646,17.067-17.067v-17.067h25.6
			c9.421-0.012,17.054-7.646,17.067-17.067v-34.133c-0.012-9.421-7.646-17.054-17.067-17.067H85.333
			c-9.421,0.012-17.054,7.646-17.067,17.067v34.133C68.279,231.287,75.913,238.921,85.333,238.933z M85.333,187.733l341.333-0.017
			v34.15h-25.6c-9.421,0.012-17.054,7.646-17.067,17.067V256h-17.067v-17.067c-0.012-9.421-7.646-17.054-17.067-17.067h-25.6
			c-9.421,0.012-17.054,7.646-17.067,17.067V256h-17.067v-17.067c-0.012-9.421-7.646-17.054-17.067-17.067h-34.133
			c-9.421,0.012-17.054,7.646-17.067,17.067V256H204.8v-17.067c-0.012-9.421-7.646-17.054-17.067-17.067h-25.6
			c-9.421,0.012-17.054,7.646-17.067,17.067V256H128v-17.067c-0.012-9.421-7.646-17.054-17.067-17.067h-25.6V187.733z"/>
		<path d="M230.4,290.133h-85.333c-9.421,0.012-17.054,7.646-17.067,17.067v17.067c0.012,9.421,7.646,17.054,17.067,17.067H230.4
			c9.421-0.012,17.054-7.646,17.067-17.067V307.2C247.454,297.779,239.821,290.146,230.4,290.133z M145.067,324.267V307.2H230.4
			l0.017,17.067H145.067z"/>
		<path d="M366.933,290.133H281.6c-9.421,0.012-17.054,7.646-17.067,17.067v17.067c0.012,9.421,7.646,17.054,17.067,17.067h85.333
			c9.421-0.012,17.054-7.646,17.067-17.067V307.2C383.988,297.779,376.354,290.146,366.933,290.133z M281.6,324.267V307.2h85.333
			l0.017,17.067H281.6z"/>
		<path d="M469.333,102.4H42.667C19.114,102.428,0.028,121.514,0,145.067v221.867c0.028,23.553,19.114,42.639,42.667,42.667h426.667
			c23.553-0.028,42.639-19.114,42.667-42.667V145.067C511.972,121.514,492.886,102.428,469.333,102.4z M494.933,366.933
			c-0.015,14.132-11.468,25.585-25.6,25.6H42.667c-14.132-0.015-25.585-11.468-25.6-25.6V145.067
			c0.015-14.132,11.468-25.585,25.6-25.6h426.667c14.132,0.015,25.585,11.468,25.6,25.6V366.933z"/>
		<path d="M460.8,136.533H51.2c-9.421,0.012-17.054,7.646-17.067,17.067v204.8c0.012,9.421,7.646,17.054,17.067,17.067h409.6
			c9.421-0.012,17.054-7.646,17.067-17.067V153.6C477.854,144.179,470.221,136.546,460.8,136.533z M460.8,358.4l-409.6,0.017V153.6
			h409.6V358.4z"/>
	</g>
</g>
<g>
</g>
<g>
</g>
<g>
</g>
<g>
</g>
<g>
</g>
<g>
</g>
<g>
</g>
<g>
</g>
<g>
</g>
<g>
</g>
<g>
</g>
<g>
</g>
<g>
</g>
<g>
</g>
<g>
</g>
</svg>
