<?xml version="1.0" encoding="iso-8859-1"?>
<!-- Generator: Adobe Illustrator 19.0.0, SVG Export Plug-In . SVG Version: 6.00 Build 0)  -->
<svg version="1.1" id="Capa_1" xmlns="http://www.w3.org/2000/svg" xmlns:xlink="http://www.w3.org/1999/xlink" x="0px" y="0px"
	 viewBox="0 0 512 512" style="enable-background:new 0 0 512 512;" xml:space="preserve">
<g>
	<g transform="translate(1 1)">
		<rect x="195.267" y="263.533" style="fill:#607D8B;" width="119.467" height="153.6"/>
		<rect x="195.267" y="263.533" style="fill:#CFD8DC;" width="93.867" height="153.6"/>
		<path style="fill:#FF5722;" d="M468.333,50.2h-93.867l-29.013-36.267c-3.242-4.036-8.135-6.389-13.312-6.4H177.859
			c-5.177,0.011-10.07,2.364-13.312,6.4L135.533,50.2H41.667c-18.859,0-34.133,41.984-34.133,93.867s15.275,93.867,34.133,93.867
			h93.867l29.013,36.267c3.242,4.036,8.135,6.388,13.312,6.4h154.283c5.177-0.012,10.07-2.364,13.312-6.4l29.013-36.267h93.867
			c18.859,0,34.133-41.984,34.133-93.867S487.192,50.2,468.333,50.2z"/>
		<g>
			<path style="fill:#FF9801;" d="M75.8,237.933H41.667c-18.859,0-34.133-41.984-34.133-93.867S22.808,50.2,41.667,50.2H75.8
				c-18.859,0-34.133,41.984-34.133,93.867S56.941,237.933,75.8,237.933z"/>
			<path style="fill:#FF9801;" d="M502.467,144.067c0,51.883-15.275,93.867-34.133,93.867H434.2
				c18.859,0,34.133-41.984,34.133-93.867S453.059,50.2,434.2,50.2h34.133C487.192,50.2,502.467,92.184,502.467,144.067z"/>
		</g>
		<circle style="fill:#CFD8DC;" cx="255" cy="144.067" r="93.867"/>
		<circle style="fill:#00BCD4;" cx="255" cy="144.067" r="59.733"/>
		<path style="fill:#FF5722;" d="M331.8,425.667c0,14.165-7.68,25.6-17.067,25.6H195.267c-9.387,0-17.067-11.435-17.067-25.6
			c0-14.165,7.68-25.6,17.067-25.6h119.467C324.12,400.067,331.8,411.501,331.8,425.667z"/>
		<path style="fill:#607D8B;" d="M391.533,476.867v25.6H118.467l0-25.6c-0.009-6.792,2.685-13.309,7.488-18.112
			c4.803-4.803,11.32-7.497,18.112-7.488h221.867c6.792-0.009,13.309,2.685,18.112,7.488
			C388.848,463.558,391.542,470.074,391.533,476.867z"/>
		<path style="fill:#CFD8DC;" d="M365.933,476.867v25.6H118.467l0-25.6c-0.009-6.792,2.685-13.309,7.488-18.112
			c4.803-4.803,11.32-7.497,18.112-7.488h196.267c6.792-0.009,13.309,2.685,18.112,7.488
			C363.248,463.558,365.942,470.074,365.933,476.867z"/>
	</g>
	<g>
		<path d="M469.333,42.667h-89.761L353.117,9.609C348.274,3.521,340.913-0.019,333.133,0H178.867
			c-7.781-0.017-15.144,3.522-19.992,9.609l-26.448,33.058h-89.76C14.658,42.667,0,94.183,0,145.067s14.658,102.4,42.667,102.4
			h89.761l26.456,33.058c4.843,6.088,12.204,9.627,19.983,9.609h8.867v104.424c-11.354,6.566-17.976,19.025-17.067,32.109
			c-0.016,5.864,1.158,11.67,3.452,17.067h-29.052c-18.844,0.019-34.115,15.29-34.133,34.133v25.6
			c-0.001,2.264,0.897,4.435,2.498,6.035c1.601,1.601,3.772,2.499,6.035,2.498h273.067c2.264,0.001,4.435-0.897,6.035-2.498
			c1.601-1.601,2.499-3.772,2.498-6.035v-25.6c-0.019-18.844-15.29-34.115-34.133-34.133h-29.052
			c2.294-5.397,3.468-11.203,3.452-17.067c0.909-13.084-5.713-25.543-17.067-32.109V290.133h8.867
			c7.781,0.017,15.144-3.522,19.992-9.609l26.448-33.058h89.76c28.008,0,42.667-51.517,42.667-102.4S497.342,42.667,469.333,42.667z
			 M17.067,145.067c0-51.3,15.408-85.333,25.6-85.333h9.549c-11.913,19.329-18.082,52.419-18.082,85.333s6.17,66.004,18.082,85.333
			h-9.549C32.475,230.4,17.067,196.367,17.067,145.067z M290.133,409.6v34.133h-68.267V409.6H290.133z M187.733,426.667
			c0-10.258,5.133-17.067,8.533-17.067h8.533v34.133h-8.533C192.867,443.733,187.733,436.925,187.733,426.667z M384,477.867v17.067
			H128v-17.067c0.012-9.421,7.646-17.054,17.067-17.067h221.867C376.354,460.812,383.988,468.446,384,477.867z M307.2,443.733V409.6
			h8.533c3.4,0,8.533,6.808,8.533,17.067c0,10.258-5.133,17.067-8.533,17.067H307.2z M307.2,392.533H204.8v-102.4h102.4V392.533z
			 M339.8,269.858c-1.616,2.031-4.071,3.213-6.667,3.209H178.867c-2.594,0.006-5.047-1.176-6.658-3.209l-17.915-22.391h16.373
			c4.713,0,8.533-3.821,8.533-8.533c0-4.713-3.821-8.533-8.533-8.533H76.8c-10.192,0-25.6-34.033-25.6-85.333
			s15.408-85.333,25.6-85.333h93.867c4.713,0,8.533-3.821,8.533-8.533s-3.821-8.533-8.533-8.533h-16.376L172.2,20.275
			c1.616-2.031,4.071-3.213,6.667-3.209h154.267c2.594-0.006,5.047,1.176,6.658,3.209l17.915,22.391h-16.373
			c-4.713,0-8.533,3.821-8.533,8.533s3.821,8.533,8.533,8.533H435.2c10.192,0,25.6,34.033,25.6,85.333S445.392,230.4,435.2,230.4
			h-93.867c-4.713,0-8.533,3.821-8.533,8.533c0,4.713,3.821,8.533,8.533,8.533h16.376L339.8,269.858z M469.333,230.4h-9.549
			c11.913-19.329,18.082-52.419,18.082-85.333s-6.17-66.004-18.082-85.333h9.549c10.192,0,25.6,34.033,25.6,85.333
			S479.525,230.4,469.333,230.4z"/>
		<path d="M256,42.667c-56.554,0-102.4,45.846-102.4,102.4s45.846,102.4,102.4,102.4s102.4-45.846,102.4-102.4
			C358.338,88.538,312.528,42.728,256,42.667z M256,230.4c-47.128,0-85.333-38.205-85.333-85.333S208.872,59.733,256,59.733
			s85.333,38.205,85.333,85.333C341.278,192.172,303.105,230.345,256,230.4z"/>
		<path d="M256,76.8c-37.703,0-68.267,30.564-68.267,68.267s30.564,68.267,68.267,68.267s68.267-30.564,68.267-68.267
			C324.224,107.382,293.685,76.843,256,76.8z M256,196.267c-28.277,0-51.2-22.923-51.2-51.2s22.923-51.2,51.2-51.2
			s51.2,22.923,51.2,51.2C307.169,173.331,284.264,196.236,256,196.267z"/>
		<path d="M264.533,119.467c0.001-2.264-0.897-4.435-2.498-6.035c-1.601-1.601-3.772-2.499-6.035-2.498
			c-14.457,0.022-27.339,9.129-32.183,22.75c-1.018,2.873-0.426,6.071,1.553,8.389c1.979,2.318,5.044,3.405,8.042,2.85
			c2.997-0.555,5.471-2.666,6.489-5.539c2.423-6.814,8.868-11.371,16.1-11.383c2.264,0.001,4.435-0.897,6.035-2.498
			C263.636,123.902,264.535,121.73,264.533,119.467z"/>
		<path d="M284.45,145.558c-2.133-0.756-4.479-0.634-6.521,0.34s-3.615,2.719-4.37,4.852c-2.423,6.814-8.868,11.371-16.1,11.383
			c-4.713,0-8.533,3.82-8.533,8.533s3.821,8.533,8.533,8.533c14.457-0.022,27.339-9.129,32.183-22.75
			c0.756-2.133,0.634-4.479-0.34-6.521C288.328,147.886,286.583,146.314,284.45,145.558z"/>
	</g>
</g>
<g>
</g>
<g>
</g>
<g>
</g>
<g>
</g>
<g>
</g>
<g>
</g>
<g>
</g>
<g>
</g>
<g>
</g>
<g>
</g>
<g>
</g>
<g>
</g>
<g>
</g>
<g>
</g>
<g>
</g>
</svg>
