<?xml version="1.0" encoding="iso-8859-1"?>
<!-- Generator: Adobe Illustrator 19.0.0, SVG Export Plug-In . SVG Version: 6.00 Build 0)  -->
<svg version="1.1" id="Capa_1" xmlns="http://www.w3.org/2000/svg" xmlns:xlink="http://www.w3.org/1999/xlink" x="0px" y="0px"
	 viewBox="0 0 512 512" style="enable-background:new 0 0 512 512;" xml:space="preserve">
<g>
	<g transform="translate(1 1)">
		<path style="fill:#37474F;" d="M468.333,118.467V203.8c0,61.269-95.488,110.933-213.333,110.933c-4.267,0-8.533-0.085-12.8-0.256
			C130.328,311.064,41.667,262.851,41.667,203.8v-85.333c0-59.051,88.661-107.264,200.533-110.677
			c4.267-0.171,8.533-0.256,12.8-0.256C372.845,7.533,468.333,57.197,468.333,118.467z"/>
		<g>
			<path style="fill:#607D8B;" d="M442.733,118.467V203.8c0,59.051-88.661,107.264-200.533,110.677
				C130.328,311.064,41.667,262.851,41.667,203.8v-85.333c0-59.051,88.661-107.264,200.533-110.677
				C354.072,11.203,442.733,59.416,442.733,118.467z"/>
			<path style="fill:#607D8B;" d="M502.467,220.184c0,23.808-12.459,46.165-34.133,65.28
				c-12.924,11.126-27.272,20.481-42.667,27.819c-13.742,6.799-28.011,12.478-42.667,16.981
				c-13.993,4.416-28.242,7.978-42.667,10.667c-14.102,2.772-28.346,4.766-42.667,5.973c-13.824,1.28-28.16,1.963-42.667,1.963
				c-14.507,0-28.843-0.683-42.667-1.963c-14.321-1.208-28.565-3.202-42.667-5.973c-14.425-2.689-28.673-6.251-42.667-10.667
				c-14.656-4.503-28.924-10.182-42.667-16.981c-15.394-7.337-29.743-16.692-42.667-27.819
				c-21.675-19.115-34.133-41.472-34.133-65.28s12.459-46.165,34.133-65.28V203.8c0,61.269,95.488,110.933,213.333,110.933
				S468.333,265.069,468.333,203.8v-48.896C490.008,174.019,502.467,196.376,502.467,220.184z"/>
		</g>
		<path style="fill:#C52828;" d="M468.333,118.467c-0.009,7.298-1.369,14.531-4.011,21.333C445.293,190.829,358.765,229.4,255,229.4
			S64.707,190.829,45.677,139.8c-2.642-6.803-4.001-14.036-4.011-21.333C41.667,57.197,137.155,7.533,255,7.533
			S468.333,57.197,468.333,118.467z"/>
		<ellipse style="fill:#FF9801;" cx="255" cy="139.8" rx="209.323" ry="89.6"/>
		<path style="fill:#FEC108;" d="M41.667,285.464v153.6c-21.675-19.115-34.133-41.472-34.133-65.28v-153.6
			C7.533,243.992,19.992,266.349,41.667,285.464z"/>
		<path style="fill:#FF9801;" d="M84.333,313.283v153.6c-15.394-7.337-29.743-16.693-42.667-27.819v-153.6
			C54.591,296.59,68.939,305.945,84.333,313.283z"/>
		<g>
			<path style="fill:#FEC108;" d="M127,330.264v153.6c-14.656-4.503-28.924-10.182-42.667-16.981v-153.6
				C98.076,320.082,112.344,325.761,127,330.264z"/>
			<path style="fill:#FEC108;" d="M212.333,346.904v153.6c-14.321-1.208-28.565-3.202-42.667-5.973v-153.6
				C183.769,343.702,198.012,345.696,212.333,346.904z"/>
		</g>
		<g>
			<path style="fill:#FF9801;" d="M255,348.867v153.6c-14.507,0-28.843-0.683-42.667-1.963v-153.6
				C226.157,348.184,240.493,348.867,255,348.867z"/>
			<path style="fill:#FF9801;" d="M340.333,340.931v153.6c-14.102,2.772-28.346,4.766-42.667,5.973v-153.6
				C311.988,345.696,326.231,343.702,340.333,340.931z"/>
			<path style="fill:#FF9801;" d="M425.667,313.283v153.6c-13.742,6.799-28.011,12.478-42.667,16.981v-153.6
				C397.656,325.761,411.924,320.082,425.667,313.283z"/>
		</g>
		<path style="fill:#FEC108;" d="M468.333,285.464v153.6c-12.924,11.126-27.272,20.481-42.667,27.819v-153.6
			C441.061,305.945,455.409,296.59,468.333,285.464z"/>
		<g>
			<path style="fill:#FF9801;" d="M502.467,220.184v153.6c0,23.808-12.459,46.165-34.133,65.28v-153.6
				C490.008,266.349,502.467,243.992,502.467,220.184z"/>
			<path style="fill:#FF9801;" d="M169.667,340.931v153.6c-14.425-2.689-28.673-6.251-42.667-10.667v-153.6
				C140.993,334.68,155.242,338.242,169.667,340.931z"/>
		</g>
		<g>
			<path style="fill:#FEC108;" d="M297.667,346.904v153.6c-13.824,1.28-28.16,1.963-42.667,1.963v-153.6
				C269.507,348.867,283.843,348.184,297.667,346.904z"/>
			<path style="fill:#FEC108;" d="M383,330.264v153.6c-13.993,4.416-28.242,7.978-42.667,10.667v-153.6
				C354.758,338.242,369.007,334.68,383,330.264z"/>
		</g>
		<g>
			<path style="fill:#F44335;" d="M249.197,143.811c-8.936,27.573-14.802,56.047-17.493,84.907
				c-16.787-0.879-33.494-2.903-50.005-6.059c9.041-31.248,22.092-61.193,38.827-89.088
				C228.86,139.744,238.838,143.307,249.197,143.811z"/>
			<path style="fill:#F44335;" d="M406.723,40.472c-31.767,31.032-68.964,55.965-109.739,73.557
				c-4.626-10.248-14.139-17.447-25.259-19.115c-1.365-0.341-2.816-0.683-4.267-0.939l4.608-0.256
				c29.636-20.9,56.105-45.961,78.592-74.411C370.088,24.217,388.897,31.317,406.723,40.472z"/>
			<path style="fill:#F44335;" d="M420.888,188.184c-23.038,14.163-48.228,24.481-74.581,30.549
				c-30.945-20.878-58.611-46.244-82.091-75.264c10.617-0.95,20.601-5.461,28.331-12.8
				C350.488,171.288,393.411,184.6,420.888,188.184z"/>
			<path style="fill:#F44335;" d="M212.333,118.467c0.015,3.019,0.872,5.974,2.475,8.533
				c-87.552,0.427-133.547,20.992-155.392,35.84c-11.043-12.186-17.341-27.933-17.749-44.373c0.009-7.353,1.368-14.642,4.011-21.504
				h0.085c59.023-14.345,120.751-13.198,179.2,3.328C217.816,103.668,213.005,110.591,212.333,118.467z"/>
			<path style="fill:#F44335;" d="M263.021,93.293c-2.645-0.256-5.291-0.427-8.021-0.427c-7.225-0.074-14.41,1.08-21.248,3.413
				c-9.523-29.499-22.499-57.77-38.656-84.224c17.147-2.641,34.451-4.123,51.797-4.437
				C255.488,35.476,260.899,64.218,263.021,93.293z"/>
		</g>
		<ellipse style="fill:#607D8B;" cx="255" cy="118.467" rx="42.667" ry="25.6"/>
		<path style="fill:#37474F;" d="M502.467,220.184c0,23.808-12.459,46.165-34.133,65.28c-12.924,11.126-27.272,20.481-42.667,27.819
			c-13.742,6.799-28.011,12.478-42.667,16.981c-13.993,4.416-28.242,7.978-42.667,10.667c-14.102,2.772-28.346,4.766-42.667,5.973
			c-13.824,1.28-28.16,1.963-42.667,1.963c-4.267,0-8.533-0.085-12.8-0.171c10.155-0.256,20.139-0.853,29.867-1.792
			c14.321-1.208,28.565-3.202,42.667-5.973c14.425-2.689,28.673-6.251,42.667-10.667c14.656-4.503,28.924-10.182,42.667-16.981
			c15.394-7.337,29.743-16.692,42.667-27.819c21.675-19.115,34.133-41.472,34.133-65.28c-0.085-11.705-3.014-23.214-8.533-33.536
			v-31.744C490.008,174.019,502.467,196.376,502.467,220.184z"/>
	</g>
	<path d="M477.867,152.262v-32.796C477.867,52.475,380.413,0,256,0S34.133,52.475,34.133,119.467v32.793
		C11.862,172.989,0,196.729,0,221.183v153.6C0,451.725,112.45,512,256,512s256-60.275,256-137.217v-153.6
		C512,196.73,500.139,172.991,477.867,152.262z M241.477,17.367c6.428,22.223,10.797,44.99,13.052,68.014
		c-4.827,0.071-9.637,0.597-14.366,1.57c-4.751-13.402-9.818-26.072-15.205-37.897l-0.024-0.056
		c-4.728-10.376-9.688-20.103-14.88-29.182C220.286,18.591,230.78,17.764,241.477,17.367z M392.662,43.943
		c-27.056,24.547-57.739,44.769-90.966,59.952c-3.408-4.375-7.687-7.995-12.567-10.63c12.48-9.606,24.451-19.856,35.863-30.708
		c0.239-0.209,0.465-0.431,0.678-0.666c10.368-9.898,20.06-20.48,29.013-31.674C367.668,33.835,380.364,38.424,392.662,43.943
		L392.662,43.943z M268.436,59.996c10.736,0.343,21.291,1.085,31.592,2.246c-8.761,7.651-18.221,15.269-28.38,22.853
		C270.835,76.65,269.764,68.283,268.436,59.996z M256,102.4c19.538,0,34.133,9.008,34.133,17.067S275.538,136.533,256,136.533
		s-34.133-9.008-34.133-17.067S236.463,102.4,256,102.4z M73.958,165.524c21.777-12.223,63.794-27.814,136.674-28.887
		c-13.983,24.365-25.268,50.181-33.655,76.992C132.772,204.068,96.092,186.838,73.958,165.524z M224.622,146.578
		c4.663,2.348,9.604,4.096,14.706,5.204c-6.705,22.503-11.446,45.545-14.167,68.868c-10.706-0.85-21.153-2.148-31.294-3.824
		C201.656,192.407,211.963,168.864,224.622,146.578L224.622,146.578z M256.555,153.582c1.704-0.012,3.388-0.069,5.044-0.184
		c19.181,23.077,40.959,43.865,64.903,61.952c-23.246,4.366-46.849,6.548-70.501,6.517c-4.629,0-9.215-0.111-13.778-0.271
		C244.99,198.547,249.786,175.787,256.555,153.582L256.555,153.582z M348.833,210.301c-25.095-17.381-47.916-37.835-67.931-60.885
		c4.729-1.688,9.189-4.05,13.243-7.012c31.26,22.474,66.076,39.531,102.992,50.459C381.629,200.202,365.454,206.042,348.833,210.301
		L348.833,210.301z M419.589,180.221c-24.282-3.755-62.739-15.911-114.471-50.981c1.247-2.861,1.936-5.935,2.029-9.055
		c24.395-11.072,47.563-24.669,69.125-40.568c40.457,14.929,69.179,36.964,79.795,61.21
		C447.843,157.118,435.202,170.769,419.589,180.221L419.589,180.221z M316.294,47.185c-16.874-2.519-33.891-3.969-50.948-4.339
		c-1.783-8.708-3.878-17.28-6.228-25.739c25.997,0.147,51.908,3.003,77.313,8.521C330.37,32.814,323.624,40.004,316.294,47.185z
		 M223.847,91.989c-28.845-7.405-58.436-11.516-88.207-12.255c24.712-8.86,50.4-14.718,76.51-17.45
		C216.24,71.675,220.139,81.577,223.847,91.989z M208.879,105.895c-2.632,4.039-4.048,8.75-4.079,13.571l0.015,0.209
		c-73.392,1.804-117.157,17.742-142.242,32.72c-7.136-9.519-11.113-21.034-11.373-32.929c0.022-4.863,0.745-9.697,2.147-14.353
		C104.566,93.452,157.78,93.72,208.879,105.895z M51.2,166.25c33.178,43.098,111.387,72.683,204.8,72.683
		s171.622-29.585,204.8-72.683v38.55c0,55.508-93.787,102.4-204.8,102.4S51.2,260.308,51.2,204.8V166.25z M460.583,115.347
		C442.159,93.7,418.464,77.169,391.788,67.35c5.87-4.887,11.549-9.951,17.036-15.192C439.237,69.327,458.578,91.428,460.583,115.347
		z M191.816,22.464c4.426,7.354,8.7,15.199,12.823,23.535C165.092,50.23,126.775,62.252,91.899,81.37
		c-10.677,1.074-20.24,2.533-28.615,4.141C84.678,56.164,132.647,32.597,191.816,22.464z M17.067,374.783v-103.5
		c5.024,6.986,10.742,13.446,17.067,19.281v128.727C23.501,406.856,17.475,391.139,17.067,374.783z M76.8,319.988v134.14
		c-9.032-5.08-17.599-10.947-25.6-17.533V304.451C59.365,310.213,67.919,315.405,76.8,319.988z M119.467,337.842v135.457
		c-9.002-3.165-17.561-6.623-25.6-10.366v-134.82C101.986,331.632,110.54,334.876,119.467,337.842z M162.133,349.17v136.09
		c-8.827-1.904-17.356-4.085-25.6-6.49V343.025C144.799,345.314,153.332,347.362,162.133,349.17z M247.467,358.288v136.536
		c-8.656-0.154-17.19-0.533-25.6-1.137V357.201C230.268,357.777,238.801,358.139,247.467,358.288z M290.133,357.201v136.486
		c-8.401,0.607-16.934,0.986-25.6,1.137V358.288C273.195,358.142,281.729,357.78,290.133,357.201z M332.8,352.349v136.18
		c-8.34,1.428-16.873,2.627-25.6,3.597V355.755C315.91,354.842,324.443,353.707,332.8,352.349z M418.133,328.114v134.82
		c-8.039,3.742-16.598,7.201-25.6,10.366V337.842C401.46,334.876,410.014,331.632,418.133,328.114z M460.8,304.451v132.144
		c-8.001,6.586-16.568,12.453-25.6,17.533v-134.14C444.081,315.405,452.635,310.213,460.8,304.451z M375.467,478.769
		c-8.244,2.405-16.773,4.586-25.6,6.49V349.17c8.791-1.806,17.324-3.854,25.6-6.145V478.769z M204.8,492.127
		c-8.723-0.962-17.256-2.161-25.6-3.597V352.35c8.344,1.36,16.878,2.495,25.6,3.405V492.127z M494.933,374.783
		c-0.408,16.356-6.435,32.073-17.067,44.508V290.564c6.324-5.835,12.042-12.294,17.067-19.28V374.783z M465.214,279.14
		c-0.99,0.559-1.854,1.315-2.542,2.22c-11.547,9.775-24.253,18.09-37.833,24.758c-1.334,0.275-2.581,0.873-3.631,1.741
		c-12.502,5.972-25.416,11.039-38.643,15.164c-0.884,0.135-1.74,0.411-2.536,0.818c-26.506,7.948-53.758,13.153-81.328,15.532
		l-0.034-0.007l-0.089,0.018c-13.828,1.256-28.041,1.948-42.578,1.948c-14.537,0-28.75-0.692-42.578-1.948l-0.089-0.018
		l-0.034,0.007c-27.569-2.379-54.822-7.584-81.328-15.532c-0.796-0.407-1.652-0.684-2.536-0.818
		c-13.229-4.125-26.145-9.193-38.649-15.166c-1.049-0.866-2.293-1.463-3.625-1.738c-13.581-6.668-26.289-14.985-37.837-24.761
		c-0.686-0.902-1.548-1.655-2.533-2.213c-18.919-17.199-29.725-36.955-29.725-57.962c0.474-16.206,6.499-31.758,17.067-44.053v27.67
		c0,66.992,97.454,119.467,221.867,119.467S477.867,271.792,477.867,204.8v-27.674c10.569,12.297,16.593,27.85,17.067,44.058
		C494.933,242.189,484.13,261.942,465.214,279.14z"/>
</g>
<g>
</g>
<g>
</g>
<g>
</g>
<g>
</g>
<g>
</g>
<g>
</g>
<g>
</g>
<g>
</g>
<g>
</g>
<g>
</g>
<g>
</g>
<g>
</g>
<g>
</g>
<g>
</g>
<g>
</g>
</svg>
