<?xml version="1.0" encoding="iso-8859-1"?>
<!-- Generator: Adobe Illustrator 19.0.0, SVG Export Plug-In . SVG Version: 6.00 Build 0)  -->
<svg version="1.1" id="Capa_1" xmlns="http://www.w3.org/2000/svg" xmlns:xlink="http://www.w3.org/1999/xlink" x="0px" y="0px"
	 viewBox="0 0 512 512" style="enable-background:new 0 0 512 512;" xml:space="preserve">
<g>
	<g transform="translate(1 1)">
		<g>
			<path style="fill:#607D8B;" d="M156.867,118.467V84.333c0.003-42.414,34.386-76.797,76.8-76.8h153.6
				c42.414,0.003,76.797,34.386,76.8,76.8V229.4h-34.133V84.333c-0.009-23.561-19.106-42.658-42.667-42.667h-153.6
				C210.107,41.675,191.009,60.773,191,84.333v34.133H156.867z"/>
			<path style="fill:#607D8B;" d="M139.8,161.133h68.267l-7.345-52.603c-0.686-4.115-4.246-7.13-8.417-7.13h-36.742
				c-4.171,0-7.731,3.016-8.417,7.13L139.8,161.133z"/>
		</g>
		<path style="fill:#1566C0;" d="M326.083,336.579H21.87l24.32-145.323v-0.341c0.137-1.407,0.365-2.804,0.683-4.181
			c0-0.085,0.085-0.171,0.085-0.256l0.085-0.597l0.171-0.683c1.793-7.611,5.698-14.562,11.264-20.053
			c7.954-8.049,18.806-12.568,30.123-12.544h170.667c19.558-0.003,36.614,13.29,41.387,32.256v0.171
			c0.063,0.466,0.178,0.924,0.341,1.365l0.512,3.157l0.085,0.597L326.083,336.579z"/>
		<g>
			<path style="fill:#2296F3;" d="M22.808,186.477l-0.768,4.779v-0.341l0.683-4.181C22.723,186.648,22.808,186.563,22.808,186.477z"
				/>
			<polygon style="fill:#2296F3;" points="23.064,185.197 22.808,186.477 22.894,185.88 			"/>
			<path style="fill:#2296F3;" d="M301.934,336.579H21.87l24.32-145.323v-0.341c0.137-1.407,0.365-2.804,0.683-4.181
				c0-0.085,0.085-0.171,0.085-0.256l0.085-0.597l0.171-0.683c1.793-7.611,5.698-14.562,11.264-20.053
				c7.954-8.049,18.806-12.568,30.123-12.544h146.517c19.557-0.003,36.613,13.29,41.387,32.256v0.171
				c0.063,0.466,0.178,0.924,0.341,1.365l0.512,3.157l0.085,0.597L301.934,336.579z"/>
		</g>
		<path style="fill:#1566C0;" d="M327.534,348.867c-0.043,28.259-22.941,51.157-51.2,51.2h-204.8
			c-28.268-0.022-51.178-22.932-51.2-51.2c0.043-28.259,22.941-51.157,51.2-51.2h204.8
			C304.602,297.689,327.511,320.599,327.534,348.867z"/>
		<path style="fill:#2296F3;" d="M301.934,348.867c-0.043,28.259-22.941,51.157-51.2,51.2h-179.2
			c-28.268-0.022-51.178-22.932-51.2-51.2c0.043-28.259,22.941-51.157,51.2-51.2h179.2
			C279.001,297.689,301.911,320.599,301.934,348.867z"/>
		<path style="fill:#009688;" d="M233.667,497.759c-0.04,2.629-2.194,4.732-4.823,4.708H127.557
			c-2.629,0.024-4.783-2.08-4.823-4.708v-44.138c0.016-1.316,1.096-2.37,2.412-2.354h12.243c1.316,0.016,2.396-1.038,2.412-2.354
			v-37.959c-0.016-1.316-1.096-2.37-2.412-2.354h-14.655v-37.959c0.04-2.629,2.195-4.732,4.823-4.708h86.817l19.293,25.6V497.759z"
			/>
		<path style="fill:#37474F;" d="M412.867,212.333h68.267c4.713,0,8.533,3.821,8.533,8.533V306.2c0,4.713-3.82,8.533-8.533,8.533
			h-68.267c-4.713,0-8.533-3.82-8.533-8.533v-85.333C404.334,216.154,408.154,212.333,412.867,212.333z"/>
		<path style="fill:#607D8B;" d="M412.867,212.333h42.667c4.713,0,8.533,3.821,8.533,8.533V306.2c0,4.713-3.821,8.533-8.533,8.533
			h-42.667c-4.713,0-8.533-3.82-8.533-8.533v-85.333C404.334,216.154,408.154,212.333,412.867,212.333z"/>
		<rect x="412.867" y="314.733" style="fill:#CFD8DC;" width="68.267" height="68.267"/>
		<path style="fill:#1566C0;" d="M220.782,365.933H242.2c4.713,0,8.533-3.82,8.533-8.533v-17.067c0-4.713-3.821-8.533-8.533-8.533
			H97.134c-4.713,0-8.533,3.82-8.533,8.533V357.4c0,4.713,3.82,8.533,8.533,8.533H220.782z"/>
		<path style="fill:#00695C;" d="M233.667,391.533v106.24c-0.021,1.268-0.546,2.475-1.458,3.356
			c-0.913,0.881-2.138,1.362-3.406,1.338h-25.6c1.268,0.024,2.493-0.457,3.406-1.338c0.913-0.88,1.437-2.088,1.458-3.356v-106.24
			l-19.285-25.6h25.6L233.667,391.533z"/>
	</g>
	<g>
		<path d="M388.267,0h-153.6c-47.106,0.054-85.279,38.227-85.333,85.333v8.533c-4.172,0-7.733,3.017-8.417,7.133l-7.344,44.067H89.6
			c-23.483,0.024-43.928,16.049-49.562,38.846c-0.023,0.081-0.084,0.138-0.105,0.22l-0.139,0.58l-0.032,0.104l-0.041,0.221
			l-0.093,0.421l-0.854,5.033l-0.018,0.171c-0.013,0.107-0.041,0.204-0.053,0.312c-0.01,0.102-0.017,0.263-0.024,0.41
			L14.507,335.853c-4.354,17.797-0.278,36.608,11.051,51.007c11.33,14.399,28.654,22.785,46.975,22.74H115.2
			c-0.001,2.263,0.898,4.434,2.499,6.035c1.6,1.6,3.771,2.499,6.035,2.499h8.533v25.6h-6.121
			c-6.025-0.011-10.922,4.858-10.946,10.883v44.142c0.041,7.342,6.016,13.265,13.358,13.242h101.283
			c7.342,0.024,13.317-5.9,13.358-13.242V409.6h34.133c18.219,0.058,35.461-8.228,46.799-22.489
			c11.338-14.261,15.523-32.928,11.358-50.665c-0.013-0.096,0.026-0.184,0.009-0.28l-24.567-146.983l-0.512-3.158
			c-0.044-0.431-0.146-0.855-0.304-1.258c-0.042-0.326-0.103-0.648-0.183-0.967c-0.101-0.404-0.286-0.764-0.396-1.163l-0.049-0.144
			c-6.108-22.135-26.259-37.457-49.221-37.426h-43.972L208.951,101c-0.684-4.116-4.244-7.133-8.417-7.133v-8.533
			c0.02-18.843,15.29-34.113,34.133-34.133h153.6c18.843,0.02,34.113,15.29,34.133,34.133V204.8h-8.533
			c-9.421,0.011-17.056,7.645-17.067,17.067V307.2c0.02,6.069,3.272,11.668,8.533,14.693V384c-0.001,2.263,0.898,4.434,2.499,6.035
			c1.6,1.6,3.771,2.499,6.035,2.499h68.267c2.263,0.001,4.434-0.898,6.035-2.499c1.6-1.6,2.499-3.771,2.499-6.035v-62.107
			c5.262-3.025,8.513-8.624,8.533-14.693v-85.333c-0.011-9.421-7.645-17.056-17.067-17.067H473.6V85.333
			C473.547,38.227,435.373,0.054,388.267,0z M215.375,358.4H98.134v-17.067H243.2V358.4H215.375z M226.134,494.933h-93.867V460.8
			h6.121c6.025,0.011,10.922-4.858,10.946-10.883V411.95c-0.024-6.025-4.921-10.894-10.946-10.883h-6.121v-25.6h78.854
			l15.013,19.925V494.933z M307.455,380.042c-7.952,8.045-18.809,12.548-30.121,12.492H243.2c0-1.852-0.603-3.654-1.717-5.133
			l-8.993-11.933H243.2c9.421-0.011,17.056-7.645,17.067-17.067v-17.067c-0.011-9.421-7.645-17.056-17.067-17.067H98.134
			c-9.421,0.011-17.056,7.645-17.067,17.067V358.4c0.011,9.421,7.645,17.056,17.067,17.067H115.2v17.067H72.534
			c-23.553-0.028-42.639-19.114-42.667-42.667c0.041-23.547,19.12-42.625,42.667-42.667h204.8
			c23.553,0.028,42.639,19.114,42.667,42.667C320.05,361.203,315.527,372.082,307.455,380.042z M293.221,187.333l0.009,0.05
			c0.107,0.695,0.259,1.383,0.454,2.058l0.454,2.883l0.029-0.004l18.261,109.316c-10.176-7.47-22.47-11.5-35.094-11.503h-204.8
			c-12.572-0.028-24.824,3.957-34.975,11.375l18.046-107.841c0.043-0.273,0.071-0.549,0.083-0.825l0.804-4.575l0.037-0.15
			c1.448-6.065,4.572-11.601,9.017-15.975c6.345-6.436,15.016-10.044,24.054-10.008h170.667
			C275.695,162.09,289.221,172.433,293.221,187.333L293.221,187.333z M150.875,145.067l5.688-34.133h36.742l5.688,34.133H150.875z
			 M388.267,34.133h-153.6c-28.264,0.031-51.169,22.936-51.2,51.2v8.533H166.4v-8.533c0.043-37.685,30.582-68.224,68.267-68.267
			h153.6c37.685,0.043,68.224,30.582,68.267,68.267V204.8h-17.067V85.333C439.436,57.069,416.531,34.164,388.267,34.133z
			 M422.4,375.467V358.4h8.533c4.713,0,8.533-3.821,8.533-8.533c0-4.713-3.821-8.533-8.533-8.533H422.4v-17.067h51.2v17.067h-8.533
			c-4.713,0-8.533,3.821-8.533,8.533c0,4.713,3.821,8.533,8.533,8.533h8.533v17.067H422.4z M482.134,307.2h-68.267v-85.333h68.267
			V307.2z"/>
		<path d="M279.808,343.808c-1.559,1.635-2.443,3.799-2.475,6.059c0,4.713,3.821,8.533,8.533,8.533s8.533-3.821,8.533-8.533
			c0.02-3.467-2.059-6.601-5.261-7.931C285.938,340.607,282.25,341.346,279.808,343.808z"/>
	</g>
</g>
<g>
</g>
<g>
</g>
<g>
</g>
<g>
</g>
<g>
</g>
<g>
</g>
<g>
</g>
<g>
</g>
<g>
</g>
<g>
</g>
<g>
</g>
<g>
</g>
<g>
</g>
<g>
</g>
<g>
</g>
</svg>
