<?xml version="1.0" encoding="iso-8859-1"?>
<!-- Generator: Adobe Illustrator 19.0.0, SVG Export Plug-In . SVG Version: 6.00 Build 0)  -->
<svg version="1.1" id="Capa_1" xmlns="http://www.w3.org/2000/svg" xmlns:xlink="http://www.w3.org/1999/xlink" x="0px" y="0px"
	 viewBox="0 0 511.996 511.996" style="enable-background:new 0 0 511.996 511.996;" xml:space="preserve">
<g>
	<g transform="translate(1 1)">
		<path style="fill:#00BCD4;" d="M314.731,451.301h51.2v42.629c0,4.713-3.82,8.533-8.533,8.533h-34.133
			c-4.713,0-8.533-3.82-8.533-8.533V451.301z"/>
		<path style="fill:#FF9801;" d="M358.678,92.948c-0.423-0.071-0.852-0.099-1.28-0.085h1.298l12.373-42.667l2.731-9.387
			c0.749-2.492,0.866-5.131,0.341-7.68c-0.816-4.121-3.203-7.762-6.656-10.155l-16.128-11.861c-6.561-4.779-15.455-4.779-22.016,0
			l-16.128,11.861c-3.453,2.393-5.84,6.034-6.656,10.155c-0.525,2.549-0.408,5.188,0.341,7.68l2.731,9.387l12.373,42.667h1.262
			c-0.428-0.014-0.857,0.014-1.28,0.085c-8.908,0.63-15.807,8.051-15.787,16.981l0,179.2h68.267l0-179.2
			C374.485,100.999,367.586,93.578,358.678,92.948z"/>
		<path style="fill:#FF5722;" d="M358.697,92.863l12.373-42.667l2.731-9.387c0.749-2.492,0.866-5.131,0.341-7.68
			c-0.817-4.12-3.203-7.762-6.656-10.155l-16.128-11.861c-6.561-4.779-15.455-4.779-22.016,0l-16.128,11.861
			c-3.453,2.393-5.839,6.034-6.656,10.155c-0.525,2.549-0.408,5.188,0.341,7.68l2.731,9.387l12.373,42.667H358.697z"/>
		<path style="fill:#00838F;" d="M400.065,280.596v136.533c-0.015,4.52-1.826,8.848-5.035,12.032
			c-7.344,6.814-11.674,16.271-12.032,26.283v4.352c-0.014,4.707-3.826,8.519-8.533,8.533h-68.267
			c-4.707-0.014-8.519-3.826-8.533-8.533v-4.352c-0.358-10.012-4.688-19.469-12.032-26.283c-3.208-3.184-5.019-7.512-5.035-12.032
			V280.596c0.027-9.414,7.652-17.039,17.067-17.067h85.333C392.412,263.557,400.037,271.182,400.065,280.596z"/>
		<g>
			<path style="fill:#00BCD4;" d="M374.465,280.596v136.533c-0.015,4.52-1.826,8.848-5.035,12.032
				c-7.344,6.814-11.674,16.271-12.032,26.283v4.352c-0.014,4.707-3.826,8.519-8.533,8.533h-42.667
				c-4.707-0.014-8.519-3.826-8.533-8.533v-4.352c-0.358-10.012-4.688-19.469-12.032-26.283c-3.208-3.184-5.019-7.512-5.035-12.032
				V280.596c0.027-9.414,7.652-17.039,17.067-17.067h59.733C366.812,263.557,374.437,271.182,374.465,280.596z"/>
			<path style="fill:#00BCD4;" d="M144.065,451.301h51.2v42.629c0,4.713-3.821,8.533-8.533,8.533h-34.133
				c-4.713,0-8.533-3.82-8.533-8.533V451.301z"/>
		</g>
		<path style="fill:#FF9801;" d="M188.011,92.948c-0.423-0.071-0.852-0.099-1.28-0.085h1.298l12.373-42.667l2.731-9.387
			c0.749-2.492,0.866-5.131,0.341-7.68c-0.816-4.121-3.203-7.762-6.656-10.155l-16.128-11.861c-6.561-4.779-15.455-4.779-22.016,0
			l-16.128,11.861c-3.453,2.393-5.84,6.034-6.656,10.155c-0.525,2.549-0.408,5.188,0.341,7.68l2.731,9.387l12.373,42.667h1.262
			c-0.428-0.014-0.857,0.014-1.28,0.085c-8.908,0.63-15.807,8.051-15.787,16.981l0,179.2h68.267l0-179.2
			C203.818,100.999,196.919,93.578,188.011,92.948z"/>
		<path style="fill:#FF5722;" d="M188.03,92.863l12.373-42.667l2.731-9.387c0.749-2.492,0.866-5.131,0.341-7.68
			c-0.817-4.12-3.203-7.762-6.656-10.155l-16.128-11.861c-6.561-4.779-15.455-4.779-22.016,0l-16.128,11.861
			c-3.453,2.393-5.839,6.034-6.656,10.155c-0.525,2.549-0.408,5.188,0.341,7.68l2.731,9.387l12.373,42.667H188.03z"/>
		<path style="fill:#00838F;" d="M229.398,280.596v136.533c-0.015,4.52-1.826,8.848-5.035,12.032
			c-7.344,6.814-11.674,16.271-12.032,26.283v4.352c-0.014,4.707-3.826,8.519-8.533,8.533h-68.267
			c-4.707-0.014-8.519-3.826-8.533-8.533v-4.352c-0.358-10.012-4.688-19.469-12.032-26.283c-3.208-3.184-5.019-7.512-5.035-12.032
			V280.596c0.028-9.414,7.652-17.039,17.067-17.067h85.333C221.746,263.557,229.37,271.182,229.398,280.596z"/>
		<path style="fill:#00BCD4;" d="M203.798,280.596v136.533c-0.015,4.52-1.826,8.848-5.035,12.032
			c-7.344,6.814-11.674,16.271-12.032,26.283v4.352c-0.014,4.707-3.826,8.519-8.533,8.533h-42.667
			c-4.707-0.014-8.519-3.826-8.533-8.533v-4.352c-0.358-10.012-4.688-19.469-12.032-26.283c-3.208-3.184-5.019-7.512-5.035-12.032
			V280.596c0.028-9.414,7.652-17.039,17.067-17.067h59.733C196.146,263.557,203.77,271.182,203.798,280.596z"/>
	</g>
	<g>
		<path d="M324.265,511.996h34.133c9.421-0.011,17.056-7.645,17.067-17.067v-17.067c9.421-0.011,17.056-7.645,17.067-17.067v-4.383
			c0.405-7.719,3.831-14.969,9.538-20.183c4.831-4.783,7.543-11.302,7.529-18.1V281.596c-0.015-14.132-11.468-25.585-25.6-25.6
			V110.929c-0.033-9.524-5.366-18.237-13.831-22.6l12.848-44.075c2.928-10.138-0.87-21.019-9.471-27.134L357.385,5.246
			c-9.575-6.95-22.534-6.95-32.108,0l-16.158,11.875c-8.6,6.114-12.398,16.995-9.471,27.133l12.848,44.075
			c-8.466,4.363-13.798,13.077-13.831,22.6v145.067c-14.132,0.015-25.585,11.468-25.6,25.6v136.533
			c-0.014,6.794,2.695,13.31,7.521,18.092c5.711,5.215,9.14,12.468,9.546,20.192v4.383c0.011,9.421,7.645,17.056,17.067,17.067
			v17.067C307.209,504.35,314.843,511.985,324.265,511.996z M329.4,85.329l-9.951-34.133h43.765l-9.951,34.133H329.4z
			 M324.265,102.396h34.133c4.711,0.005,8.529,3.822,8.533,8.533v17.067h-51.2v-17.067
			C315.736,106.218,319.554,102.401,324.265,102.396z M366.931,145.063v25.6h-51.2v-25.6H366.931z M315.731,187.729h51.2v25.6h-51.2
			V187.729z M319.227,30.871l16.158-11.875c3.559-2.533,8.333-2.533,11.892,0l16.158,11.875c1.137,0.851,2.046,1.971,2.646,3.258
			h-49.5C317.181,32.842,318.09,31.722,319.227,30.871z M315.731,230.396h51.2v25.6h-51.2V230.396z M292.644,424.146
			c-1.609-1.588-2.514-3.756-2.512-6.017V281.596c0.005-4.711,3.822-8.529,8.533-8.533h85.333c4.711,0.005,8.529,3.822,8.533,8.533
			v136.533c0.001,2.265-0.907,4.435-2.521,6.025c-9.002,8.35-14.248,19.984-14.546,32.259v4.383h-68.267v-4.383
			C306.899,444.134,301.65,432.497,292.644,424.146z M358.402,477.863l0.009,17.067h-34.146v-17.067H358.402z"/>
		<path d="M153.598,511.954h34.133c9.421-0.011,17.056-7.645,17.067-17.067v-17.067c9.421-0.011,17.056-7.645,17.067-17.067v-4.383
			c0.405-7.719,3.831-14.969,9.538-20.183c4.831-4.783,7.543-11.302,7.529-18.1V281.554c-0.015-14.132-11.468-25.585-25.6-25.6
			V110.888c-0.033-9.524-5.366-18.237-13.831-22.6l12.848-44.067c2.931-10.138-0.868-21.021-9.471-27.133L186.719,5.213
			c-9.574-6.95-22.534-6.95-32.108,0l-16.154,11.875c-8.606,6.11-12.407,16.994-9.475,27.133l12.848,44.067
			c-8.465,4.363-13.798,13.076-13.831,22.6v145.067c-14.132,0.015-25.585,11.468-25.6,25.6v136.533
			c-0.014,6.794,2.694,13.31,7.521,18.092c5.711,5.215,9.14,12.468,9.546,20.192v4.383c0.011,9.421,7.645,17.056,17.067,17.067
			v17.067C136.542,504.309,144.177,511.943,153.598,511.954z M158.732,85.288l-9.951-34.133h43.767l-9.951,34.133H158.732z
			 M153.598,102.354h34.133c4.711,0.005,8.529,3.822,8.533,8.533v17.067h-51.2v-17.067
			C145.069,106.177,148.887,102.359,153.598,102.354z M196.265,145.021v25.6h-51.2v-25.6H196.265z M145.065,187.688h51.2v25.6h-51.2
			V187.688z M148.56,30.838l16.158-11.875c3.559-2.533,8.333-2.533,11.892,0l16.162,11.875c1.133,0.85,2.04,1.966,2.639,3.25H145.92
			C146.519,32.804,147.426,31.687,148.56,30.838z M145.065,230.354h51.2v25.6h-51.2V230.354z M121.977,424.104
			c-1.609-1.588-2.514-3.756-2.512-6.017V281.554c0.005-4.711,3.822-8.529,8.533-8.533h85.333c4.711,0.005,8.529,3.822,8.533,8.533
			v136.533c0.001,2.265-0.907,4.435-2.521,6.025c-9.002,8.35-14.248,19.984-14.546,32.259v4.383h-68.267v-4.383
			C136.233,444.092,130.984,432.455,121.977,424.104z M187.735,477.821l0.009,17.067h-34.146v-17.067H187.735z"/>
	</g>
</g>
<g>
</g>
<g>
</g>
<g>
</g>
<g>
</g>
<g>
</g>
<g>
</g>
<g>
</g>
<g>
</g>
<g>
</g>
<g>
</g>
<g>
</g>
<g>
</g>
<g>
</g>
<g>
</g>
<g>
</g>
</svg>
