<?xml version="1.0" encoding="iso-8859-1"?>
<!-- Generator: Adobe Illustrator 19.0.0, SVG Export Plug-In . SVG Version: 6.00 Build 0)  -->
<svg version="1.1" id="Capa_1" xmlns="http://www.w3.org/2000/svg" xmlns:xlink="http://www.w3.org/1999/xlink" x="0px" y="0px"
	 viewBox="0 0 512 512" style="enable-background:new 0 0 512 512;" xml:space="preserve">
<g>
	<g transform="translate(1 1)">
		<rect x="220.867" y="144.067" style="fill:#607D8B;" width="68.267" height="324.267"/>
		<g>
			<path style="fill:#283593;" d="M24.6,7.533h460.8c9.426,0,17.067,7.641,17.067,17.067v119.467
				c0,9.426-7.641,17.067-17.067,17.067H24.6c-9.426,0-17.067-7.641-17.067-17.067V24.6C7.533,15.174,15.174,7.533,24.6,7.533z"/>
			<path style="fill:#283593;" d="M24.6,195.267h460.8c9.426,0,17.067,7.641,17.067,17.067V331.8
				c0,9.426-7.641,17.067-17.067,17.067H24.6c-9.426,0-17.067-7.641-17.067-17.067V212.333
				C7.533,202.908,15.174,195.267,24.6,195.267z"/>
		</g>
		<g>
			<path style="fill:#3F51B5;" d="M24.6,7.533h435.2c9.426,0,17.067,7.641,17.067,17.067v119.467
				c0,9.426-7.641,17.067-17.067,17.067H24.6c-9.426,0-17.067-7.641-17.067-17.067V24.6C7.533,15.174,15.174,7.533,24.6,7.533z"/>
			<path style="fill:#3F51B5;" d="M24.6,195.267h435.2c9.426,0,17.067,7.641,17.067,17.067V331.8
				c0,9.426-7.641,17.067-17.067,17.067H24.6c-9.426,0-17.067-7.641-17.067-17.067V212.333
				C7.533,202.908,15.174,195.267,24.6,195.267z"/>
		</g>
		<circle style="fill:#E91E63;" cx="67.267" cy="272.067" r="25.6"/>
		<circle style="fill:#FFEB3A;" cx="152.6" cy="272.067" r="25.6"/>
		<circle style="fill:#E91E63;" cx="67.267" cy="84.333" r="25.6"/>
		<circle style="fill:#FFEB3A;" cx="152.6" cy="84.333" r="25.6"/>
		<path style="fill:#607D8B;" d="M502.467,468.333v34.133H7.533v-34.133c0.028-9.414,7.652-17.039,17.067-17.067h460.8
			C494.814,451.294,502.439,458.919,502.467,468.333z"/>
		<path style="fill:#CFD8DC;" d="M476.867,468.333v34.133H7.533v-34.133c0.028-9.414,7.652-17.039,17.067-17.067h435.2
			C469.214,451.294,476.839,458.919,476.867,468.333z"/>
	</g>
	<g>
		<path d="M486.4,0H25.6C11.468,0.015,0.015,11.468,0,25.6v119.467c0.015,14.132,11.468,25.585,25.6,25.6h187.733v17.067H25.6
			c-14.132,0.015-25.585,11.468-25.6,25.6V332.8c0.015,14.132,11.468,25.585,25.6,25.6h187.733v85.333H25.6
			c-14.132,0.015-25.585,11.468-25.6,25.6v34.133c-0.001,2.263,0.898,4.434,2.499,6.035c1.6,1.6,3.771,2.499,6.035,2.499h494.933
			c2.263,0.001,4.434-0.898,6.035-2.499c1.6-1.6,2.499-3.771,2.499-6.035v-34.133c-0.015-14.132-11.468-25.585-25.6-25.6H298.667
			V358.4H486.4c14.132-0.015,25.585-11.468,25.6-25.6V213.333c-0.015-14.132-11.468-25.585-25.6-25.6H298.667v-17.067H486.4
			c14.132-0.015,25.585-11.468,25.6-25.6V25.6C511.985,11.468,500.532,0.015,486.4,0z M494.933,469.333v25.6H17.067v-25.6
			c0.005-4.711,3.822-8.529,8.533-8.533h460.8C491.111,460.805,494.929,464.622,494.933,469.333z M281.6,443.733h-51.2V358.4h51.2
			V443.733z M494.933,213.333V332.8c-0.005,4.711-3.822,8.529-8.533,8.533H25.6c-4.711-0.005-8.529-3.822-8.533-8.533V213.333
			c0.005-4.711,3.822-8.529,8.533-8.533h460.8C491.111,204.805,494.929,208.622,494.933,213.333z M281.6,187.733h-51.2v-17.067h51.2
			V187.733z M494.933,145.067c-0.005,4.711-3.822,8.529-8.533,8.533H25.6c-4.711-0.005-8.529-3.822-8.533-8.533V25.6
			c0.005-4.711,3.822-8.529,8.533-8.533h460.8c4.711,0.005,8.529,3.822,8.533,8.533V145.067z"/>
		<path d="M452.267,42.667h-153.6c-4.713,0-8.533,3.821-8.533,8.533s3.82,8.533,8.533,8.533h153.6c4.713,0,8.533-3.821,8.533-8.533
			S456.98,42.667,452.267,42.667z"/>
		<path d="M452.267,76.8h-153.6c-4.713,0-8.533,3.821-8.533,8.533s3.82,8.533,8.533,8.533h153.6c4.713,0,8.533-3.821,8.533-8.533
			S456.98,76.8,452.267,76.8z"/>
		<path d="M452.267,110.933h-153.6c-4.713,0-8.533,3.821-8.533,8.533c0,4.713,3.82,8.533,8.533,8.533h153.6
			c4.713,0,8.533-3.821,8.533-8.533C460.8,114.754,456.98,110.933,452.267,110.933z"/>
		<path d="M298.667,247.467h153.6c4.713,0,8.533-3.82,8.533-8.533s-3.82-8.533-8.533-8.533h-153.6c-4.713,0-8.533,3.821-8.533,8.533
			S293.954,247.467,298.667,247.467z"/>
		<path d="M452.267,264.533h-153.6c-4.713,0-8.533,3.82-8.533,8.533s3.82,8.533,8.533,8.533h153.6c4.713,0,8.533-3.82,8.533-8.533
			S456.98,264.533,452.267,264.533z"/>
		<path d="M452.267,298.667h-153.6c-4.713,0-8.533,3.82-8.533,8.533s3.82,8.533,8.533,8.533h153.6c4.713,0,8.533-3.82,8.533-8.533
			S456.98,298.667,452.267,298.667z"/>
		<path d="M68.267,238.933c-18.851,0-34.133,15.282-34.133,34.133c0,18.851,15.282,34.133,34.133,34.133
			s34.133-15.282,34.133-34.133C102.38,254.224,87.11,238.953,68.267,238.933z M68.267,290.133c-9.426,0-17.067-7.641-17.067-17.067
			S58.841,256,68.267,256s17.067,7.641,17.067,17.067C85.323,282.488,77.688,290.123,68.267,290.133z"/>
		<path d="M153.6,238.933c-18.851,0-34.133,15.282-34.133,34.133c0,18.851,15.282,34.133,34.133,34.133s34.133-15.282,34.133-34.133
			C187.713,254.224,172.443,238.953,153.6,238.933z M153.6,290.133c-9.426,0-17.067-7.641-17.067-17.067S144.174,256,153.6,256
			c9.426,0,17.067,7.641,17.067,17.067C170.656,282.488,163.021,290.123,153.6,290.133z"/>
		<path d="M68.267,51.2c-18.851,0-34.133,15.282-34.133,34.133s15.282,34.133,34.133,34.133S102.4,104.185,102.4,85.333
			C102.38,66.49,87.11,51.22,68.267,51.2z M68.267,102.4c-9.426,0-17.067-7.641-17.067-17.067s7.641-17.067,17.067-17.067
			s17.067,7.641,17.067,17.067C85.323,94.755,77.688,102.389,68.267,102.4z"/>
		<path d="M153.6,51.2c-18.851,0-34.133,15.282-34.133,34.133s15.282,34.133,34.133,34.133s34.133-15.282,34.133-34.133
			C187.713,66.49,172.443,51.22,153.6,51.2z M153.6,102.4c-9.426,0-17.067-7.641-17.067-17.067s7.641-17.067,17.067-17.067
			c9.426,0,17.067,7.641,17.067,17.067C170.656,94.755,163.021,102.389,153.6,102.4z"/>
		<path d="M221.183,82.092c-0.187-0.546-0.447-1.064-0.771-1.542c-0.338-0.425-0.679-0.85-1.021-1.275
			c-2.453-2.425-6.126-3.133-9.304-1.792c-1.033,0.433-1.984,1.039-2.813,1.792l-1.025,1.275c-0.324,0.477-0.583,0.996-0.771,1.542
			c-0.258,0.507-0.43,1.053-0.508,1.617c-0.1,0.536-0.157,1.08-0.171,1.625c-0.023,2.27,0.869,4.454,2.475,6.059
			c0.829,0.753,1.78,1.359,2.813,1.792c2.066,0.911,4.421,0.911,6.487,0c1.034-0.433,1.987-1.039,2.817-1.792
			c1.604-1.606,2.496-3.789,2.475-6.059c-0.016-0.545-0.073-1.088-0.171-1.625C221.614,83.145,221.441,82.599,221.183,82.092z"/>
		<path d="M207.275,267.008c-1.559,1.635-2.443,3.799-2.475,6.059c0,4.713,3.82,8.533,8.533,8.533s8.533-3.82,8.533-8.533
			c0.02-3.467-2.059-6.601-5.261-7.931C213.404,263.807,209.716,264.546,207.275,267.008z"/>
	</g>
</g>
<g>
</g>
<g>
</g>
<g>
</g>
<g>
</g>
<g>
</g>
<g>
</g>
<g>
</g>
<g>
</g>
<g>
</g>
<g>
</g>
<g>
</g>
<g>
</g>
<g>
</g>
<g>
</g>
<g>
</g>
</svg>
