<?xml version="1.0" encoding="iso-8859-1"?>
<!-- Generator: Adobe Illustrator 19.0.0, SVG Export Plug-In . SVG Version: 6.00 Build 0)  -->
<svg version="1.1" id="Capa_1" xmlns="http://www.w3.org/2000/svg" xmlns:xlink="http://www.w3.org/1999/xlink" x="0px" y="0px"
	 viewBox="0 0 512 512" style="enable-background:new 0 0 512 512;" xml:space="preserve">
<g>
	<g transform="translate(1 1)">
		<path style="fill:#3F51B5;" d="M289.133,263.533h14.807c11.99,0,23.101,6.291,29.269,16.572l15.657,26.095
			c0,0,110.933,17.067,110.933,110.933l-145.067,85.333H195.267L50.2,417.133c0-93.867,110.933-110.933,110.933-110.933
			l15.657-26.095c6.169-10.281,17.279-16.572,29.269-16.572H289.133z"/>
		<g>
			<path style="fill:#009688;" d="M306.115,468.333H203.885l34.731-69.632c10.847,1.821,21.921,1.821,32.768,0L306.115,468.333z"/>
			<path style="fill:#009688;" d="M425.667,399.043L306.2,468.333h-0.085l-34.731-69.632c-10.847,1.821-21.921,1.821-32.768,0
				l-34.731,69.632L84.333,399.043c2.594-8.995,7.106-17.321,13.227-24.405c0.683-0.768,1.28-1.451,1.963-2.218
				c21.589-23.382,51.029-31.318,81.664-33.792c3.243-0.256,6.571-0.512,9.899-0.597l127.573-0.427
				c22.845,0.42,45.324,5.807,65.877,15.787C403.992,362.234,418.892,378.773,425.667,399.043z"/>
		</g>
		<path style="fill:#FFFFFF;" d="M323.267,354.243c0,21.589-22.101,39.595-51.883,44.459c-10.847,1.821-21.921,1.821-32.768,0
			c-29.781-4.864-51.883-22.869-51.883-44.459c0.027-5.689,1.527-11.275,4.352-16.213c6.975-10.938,17.485-19.16,29.781-23.296
			h68.267c12.132,4.089,22.533,12.145,29.525,22.869C321.653,342.638,323.244,348.384,323.267,354.243z"/>
		<path style="fill:#009688;" d="M289.133,127v221.867c0,7.936-10.837,14.592-25.6,16.469c-2.825,0.42-5.678,0.62-8.533,0.597
			h-0.853c-18.432-0.256-33.28-7.851-33.28-17.067V127H289.133z"/>
		<path style="fill:#FFFFFF;" d="M289.133,178.2v119.467c-7.923,4.331-16.622,7.057-25.6,8.021
			c-14.709,1.788-29.611-1.014-42.667-8.021V178.2c13.056,7.007,27.958,9.809,42.667,8.021
			C272.511,185.257,281.211,182.531,289.133,178.2z"/>
		<path style="fill:#3F51B5;" d="M229.4,7.533h51.2c23.564,0,42.667,19.103,42.667,42.667v51.2
			c0,23.564-19.103,42.667-42.667,42.667h-51.2c-23.564,0-42.667-19.103-42.667-42.667V50.2
			C186.733,26.636,205.836,7.533,229.4,7.533z"/>
		<g>
			<path style="fill:#283593;" d="M288.536,265.155c7.984,2.471,14.785,7.785,19.115,14.933l15.616,26.112
				c0,0,110.933,17.067,110.933,110.933V434.2l25.6-17.067c0-93.867-110.933-110.933-110.933-110.933l-15.616-26.112
				c-6.202-10.245-17.294-16.518-29.269-16.555h-14.848L288.536,265.155z"/>
			<path style="fill:#283593;" d="M289.133,144.067c19.868-4.057,34.136-21.536,34.133-41.813v-51.2
				C323.258,27.493,304.161,8.395,280.6,8.387H255c23.561,0.009,42.658,19.106,42.667,42.667v51.2
				c0.003,20.278-14.266,37.757-34.133,41.813H289.133z"/>
		</g>
		<g>
			<path style="fill:#00695C;" d="M289.133,297.667v51.2c0,7.936-10.837,14.592-25.6,16.469v-59.648
				C272.511,304.724,281.211,301.998,289.133,297.667z"/>
			<path style="fill:#00695C;" d="M289.133,143.213V178.2c-7.923,4.331-16.622,7.057-25.6,8.021v-43.008H289.133z"/>
		</g>
		<path style="fill:#CFD8DC;" d="M289.133,178.2v119.467c-7.923,4.331-16.622,7.057-25.6,8.021V186.221
			C272.511,185.257,281.211,182.531,289.133,178.2z"/>
	</g>
	<g>
		<path d="M221.867,51.2c2.27,0.022,4.453-0.87,6.058-2.475s2.497-3.788,2.475-6.058c-0.033-2.259-0.917-4.422-2.475-6.059
			c-0.816-0.771-1.772-1.379-2.817-1.792c-2.077-0.858-4.41-0.858-6.487,0c-1.054,0.392-2.012,1.002-2.813,1.792
			c-1.56,1.635-2.444,3.799-2.475,6.059c-0.022,2.27,0.87,4.453,2.475,6.058C217.413,50.33,219.597,51.222,221.867,51.2z"/>
		<path d="M252.754,50.517c2.066,0.911,4.421,0.911,6.487,0c1.034-0.432,1.987-1.038,2.817-1.791
			c1.604-1.606,2.496-3.789,2.475-6.059c0.02-3.467-2.059-6.601-5.261-7.931c-3.202-1.329-6.89-0.59-9.331,1.872
			c-0.773,0.815-1.383,1.772-1.796,2.817c-1.357,3.176-0.646,6.858,1.796,9.301C250.77,49.478,251.721,50.084,252.754,50.517z"/>
		<path d="M290.133,51.2c1.115-0.014,2.216-0.246,3.242-0.683c1.034-0.432,1.987-1.038,2.817-1.791
			c1.604-1.606,2.496-3.789,2.475-6.059c-0.033-2.259-0.917-4.422-2.475-6.059c-0.816-0.771-1.772-1.379-2.817-1.792
			c-2.077-0.858-4.41-0.858-6.487,0c-1.033,0.433-1.984,1.039-2.813,1.792c-1.56,1.635-2.444,3.799-2.475,6.059
			c-0.022,2.27,0.87,4.453,2.475,6.058C285.68,50.33,287.863,51.222,290.133,51.2z"/>
		<path d="M215.808,82.859c2.441,2.444,6.125,3.154,9.3,1.792c1.034-0.433,1.987-1.039,2.817-1.792
			c0.751-0.832,1.357-1.784,1.792-2.817c0.911-2.065,0.911-4.418,0-6.483c-0.413-1.044-1.021-2-1.792-2.817
			c-2.453-2.425-6.126-3.133-9.304-1.792c-1.033,0.433-1.984,1.039-2.813,1.792c-1.56,1.635-2.444,3.799-2.475,6.059
			c-0.029,1.119,0.204,2.229,0.679,3.242C214.447,81.075,215.055,82.028,215.808,82.859z"/>
		<path d="M249.941,82.859c3.365,3.3,8.752,3.3,12.117,0c0.751-0.832,1.357-1.784,1.792-2.817c0.438-1.026,0.67-2.127,0.683-3.242
			c-0.033-2.259-0.917-4.422-2.475-6.059c-2.05-2.002-4.956-2.866-7.767-2.308c-0.535,0.096-1.053,0.27-1.537,0.517
			c-0.543,0.185-1.059,0.443-1.533,0.767c-0.447,0.315-0.875,0.657-1.28,1.025c-0.773,0.815-1.383,1.772-1.796,2.817
			c-0.906,2.066-0.906,4.417,0,6.483C248.58,81.075,249.188,82.028,249.941,82.859z"/>
		<path d="M284.075,82.859c2.441,2.444,6.125,3.154,9.3,1.792c1.034-0.433,1.987-1.039,2.817-1.792
			c0.751-0.832,1.357-1.784,1.792-2.817c0.911-2.065,0.911-4.418,0-6.483c-0.413-1.044-1.021-2-1.792-2.817
			c-2.453-2.425-6.126-3.133-9.304-1.792c-1.033,0.433-1.984,1.039-2.813,1.792c-1.56,1.635-2.444,3.799-2.475,6.059
			c-0.029,1.119,0.204,2.229,0.679,3.242C282.714,81.075,283.321,82.028,284.075,82.859z"/>
		<path d="M229.717,107.692c-0.413-1.044-1.021-2-1.792-2.817c-2.476-2.38-6.121-3.082-9.304-1.792
			c-1.033,0.433-1.984,1.039-2.813,1.792c-0.773,0.815-1.383,1.772-1.796,2.817c-0.436,1.026-0.667,2.127-0.679,3.242
			c-0.038,2.248,0.858,4.412,2.475,5.975c1.616,1.599,3.786,2.515,6.059,2.558c4.699-0.032,8.501-3.834,8.533-8.533
			C230.386,109.819,230.154,108.717,229.717,107.692z"/>
		<path d="M249.941,116.908c1.591,1.636,3.776,2.558,6.058,2.558s4.467-0.923,6.058-2.558c2.442-2.408,3.154-6.069,1.792-9.217
			c-0.777-2.143-2.465-3.831-4.608-4.608c-2.077-0.858-4.41-0.858-6.487,0c-2.141,0.78-3.828,2.467-4.608,4.608
			C246.853,110.847,247.559,114.469,249.941,116.908z"/>
		<path d="M290.133,119.467c3.448-0.007,6.55-2.098,7.85-5.292c0.911-2.065,0.911-4.418,0-6.483
			c-0.433-1.034-1.039-1.986-1.792-2.817c-0.816-0.771-1.772-1.379-2.817-1.792c-2.077-0.858-4.41-0.858-6.487,0
			c-2.141,0.78-3.828,2.467-4.608,4.608c-0.436,1.026-0.667,2.128-0.679,3.242c-0.038,2.248,0.858,4.412,2.475,5.975
			C285.65,118.568,287.846,119.495,290.133,119.467z"/>
		<path d="M207.058,256c-14.976,0.043-28.844,7.896-36.583,20.717L156.77,299.55c-20.787,4.417-114.104,29.242-114.104,118.583
			c-0.001,3.025,1.601,5.825,4.208,7.358l145.067,85.333c1.312,0.769,2.805,1.174,4.325,1.175h119.467
			c1.52-0.001,3.013-0.406,4.325-1.175l145.067-85.333c2.608-1.534,4.209-4.333,4.208-7.358
			c0-89.342-93.317-114.167-114.104-118.583l-13.705-22.833c-7.739-12.821-21.607-20.674-36.583-20.717h-6.275V150.613
			c20.429-7.236,34.096-26.541,34.133-48.213V51.2C332.769,22.936,309.864,0.031,281.6,0h-51.2
			c-28.264,0.031-51.169,22.936-51.2,51.2v51.2c0.037,21.672,13.704,40.978,34.133,48.213V256H207.058z M304.942,273.067
			c8.986,0.027,17.307,4.74,21.95,12.433l15.659,26.092c1.305,2.176,3.512,3.658,6.021,4.042
			c1.017,0.158,99.821,16.308,103.588,97.683l-138.75,81.617H198.592l-138.75-81.617c3.658-81.142,99.446-97.033,103.6-97.683
			c2.502-0.392,4.702-1.872,6.008-4.042l15.659-26.092c4.643-7.693,12.964-12.406,21.95-12.433h6.275v37.142
			c-10.245,4.49-19.143,11.573-25.816,20.551c-2.013,0.118-4.042,0.203-6.018,0.358c-24.833,2.008-60.9,7.975-87.367,36.642
			l-2.058,2.325c-6.935,8.014-12.038,17.444-14.954,27.633c-1.062,3.755,0.557,7.752,3.933,9.708l119.55,69.292
			c0.101,0.058,0.218,0.079,0.321,0.133c0.058,0.031,0.091,0.087,0.15,0.117c0.339,0.15,0.687,0.276,1.043,0.379
			c0.227,0.078,0.441,0.185,0.674,0.244c0.68,0.178,1.38,0.271,2.083,0.277l0.004-0.001l0.004,0.001H307.2
			c0.155,0,0.303-0.052,0.457-0.06c0.506-0.021,1.009-0.088,1.503-0.2c0.482-0.129,0.951-0.299,1.403-0.509
			c0.119-0.053,0.244-0.072,0.362-0.131l0.051-0.04c0.165-0.081,0.347-0.118,0.507-0.21l119.467-69.292
			c3.365-1.954,4.983-5.936,3.933-9.683c-7.392-22.556-23.85-41.01-45.417-50.925c-20.359-10.002-42.596-15.606-65.264-16.45
			c-6.653-8.788-15.444-15.727-25.537-20.159v-37.142H304.942z M310.716,457.429l-25.796-51.716
			c28.319-7.929,47.881-27.253,47.881-50.438c-0.009-2.384-0.234-4.763-0.671-7.107c17.231,1.389,34.034,6.077,49.496,13.807
			c15.156,7.068,27.406,19.156,34.675,34.217L310.716,457.429z M95.704,396.192c2.286-5.409,5.398-10.43,9.225-14.883l1.862-2.1
			c16.458-17.832,39.792-27.597,73.052-30.742c-0.411,2.247-0.626,4.525-0.643,6.808c0,23.185,19.561,42.509,47.881,50.438
			l-25.779,51.681L95.704,396.192z M244.536,408.956c7.618,0.858,15.309,0.858,22.927,0l25.859,51.844h-74.646L244.536,408.956z
			 M315.733,355.275c0,20.2-27.354,37.258-59.733,37.258s-59.733-17.058-59.733-37.258c0.896-10.956,7.335-20.692,17.067-25.805
			v20.396c0,14.492,17.533,25.259,41.812,25.6H256c24.325,0,42.667-11.008,42.667-25.6V329.47
			C308.398,334.583,314.837,344.319,315.733,355.275z M281.6,349.867c0,1.692-8.233,8.533-25.6,8.533h-0.733
			c-16.871-0.233-24.867-6.917-24.867-8.533v-38.328c16.601,5.637,34.599,5.637,51.2,0V349.867z M281.6,293.272
			c-16.34,7.042-34.86,7.042-51.2,0v-101.2c16.601,5.637,34.599,5.637,51.2,0V293.272z M196.267,102.4V51.2
			c0.02-18.843,15.29-34.113,34.133-34.133h51.2c18.843,0.02,34.113,15.29,34.133,34.133v51.2
			c-0.02,18.843-15.29,34.113-34.133,34.133h-51.2C211.557,136.513,196.287,121.243,196.267,102.4z M281.6,153.6v20.206
			c-16.34,7.042-34.86,7.042-51.2,0V153.6H281.6z"/>
		<path d="M247.467,230.4V256c0,4.713,3.821,8.533,8.533,8.533c4.713,0,8.533-3.821,8.533-8.533v-25.6
			c0-4.713-3.821-8.533-8.533-8.533C251.287,221.867,247.467,225.687,247.467,230.4z"/>
	</g>
</g>
<g>
</g>
<g>
</g>
<g>
</g>
<g>
</g>
<g>
</g>
<g>
</g>
<g>
</g>
<g>
</g>
<g>
</g>
<g>
</g>
<g>
</g>
<g>
</g>
<g>
</g>
<g>
</g>
<g>
</g>
</svg>
