<?xml version="1.0" encoding="iso-8859-1"?>
<!-- Generator: Adobe Illustrator 19.0.0, SVG Export Plug-In . SVG Version: 6.00 Build 0)  -->
<svg version="1.1" id="Capa_1" xmlns="http://www.w3.org/2000/svg" xmlns:xlink="http://www.w3.org/1999/xlink" x="0px" y="0px"
	 viewBox="0 0 512 512" style="enable-background:new 0 0 512 512;" xml:space="preserve">
<g>
	<g transform="translate(0 1)">
		<path style="fill:#4CAF50;" d="M17.067,41.667c-4.713,0-8.533,3.821-8.533,8.533v229.362c-0.206,8.586,5.745,16.097,14.152,17.86
			c4.961,0.844,10.041-0.537,13.891-3.778s6.077-8.011,6.091-13.043v-68.267h25.6c4.713,0,8.533,3.821,8.533,8.533v51.2
			c0,4.713,3.821,8.533,8.533,8.533v51.2c0.028,9.414,7.653,17.039,17.067,17.067v153.6h34.133v-153.6
			c9.414-0.028,17.039-7.653,17.067-17.067v-51.2c4.713,0,8.533-3.82,8.533-8.533v-51.2c0-4.713,3.821-8.533,8.533-8.533h25.6
			v67.228c-0.206,8.586,5.745,16.097,14.152,17.86c4.961,0.844,10.041-0.537,13.891-3.778c3.849-3.241,6.077-8.011,6.091-13.043
			V50.2c0-4.713-3.821-8.533-8.533-8.533H17.067z"/>
		<rect x="102.4" y="331.8" style="fill:#607D8B;" width="34.133" height="170.667"/>
		<path style="fill:#FDD834;" d="M179.2,16.067v42.667H59.733V16.067c0.014-4.707,3.826-8.52,8.533-8.533h102.4
			C175.374,7.547,179.186,11.359,179.2,16.067z"/>
		<path style="fill:#FFEB3A;" d="M153.6,16.067v42.667H59.733V16.067c0.014-4.707,3.826-8.52,8.533-8.533h76.8
			C149.774,7.547,153.586,11.359,153.6,16.067z"/>
		<path style="fill:#558B30;" d="M230.4,50.2v42.667H8.533V50.2c0.014-4.707,3.826-8.52,8.533-8.533h204.8
			C226.574,41.68,230.386,45.493,230.4,50.2z"/>
		<path style="fill:#8BC34A;" d="M204.8,50.2v42.667H8.533V50.2c0.014-4.707,3.826-8.52,8.533-8.533h179.2
			C200.974,41.68,204.786,45.493,204.8,50.2z"/>
		<g>
			<rect x="8.533" y="92.867" style="fill:#009688;" width="34.133" height="136.533"/>
			<rect x="196.267" y="92.867" style="fill:#009688;" width="34.133" height="136.533"/>
		</g>
		<path style="fill:#2E7D32;" d="M153.6,280.6v51.2c-0.028,9.414-7.652,17.039-17.067,17.067H102.4
			c-9.414-0.028-17.039-7.653-17.067-17.067v-51.2H153.6z"/>
		<path style="fill:#00695C;" d="M85.333,127H153.6c4.713,0,8.533,3.821,8.533,8.533V152.6c0,4.713-3.821,8.533-8.533,8.533H85.333
			c-4.713,0-8.533-3.821-8.533-8.533v-17.067C76.8,130.821,80.621,127,85.333,127z"/>
		<path style="fill:#4CAF50;" d="M290.133,41.667c-4.713,0-8.533,3.821-8.533,8.533v229.362c-0.206,8.586,5.745,16.097,14.152,17.86
			c4.961,0.844,10.041-0.537,13.891-3.778c3.849-3.241,6.077-8.011,6.091-13.043v-68.267h25.6c4.713,0,8.533,3.821,8.533,8.533v51.2
			c0,4.713,3.821,8.533,8.533,8.533v51.2c0.028,9.414,7.652,17.039,17.067,17.067v153.6H409.6v-153.6
			c9.414-0.028,17.039-7.653,17.067-17.067v-51.2c4.713,0,8.533-3.82,8.533-8.533v-51.2c0-4.713,3.821-8.533,8.533-8.533h25.6
			v67.228c-0.206,8.586,5.745,16.097,14.151,17.86c4.961,0.844,10.041-0.537,13.891-3.778c3.849-3.241,6.077-8.011,6.091-13.043
			V50.2c0-4.713-3.821-8.533-8.533-8.533H290.133z"/>
		<rect x="375.467" y="331.8" style="fill:#607D8B;" width="34.133" height="170.667"/>
		<path style="fill:#FDD834;" d="M452.267,16.067v42.667H332.8V16.067c0.014-4.707,3.826-8.52,8.533-8.533h102.4
			C448.441,7.547,452.253,11.359,452.267,16.067z"/>
		<path style="fill:#FFEB3A;" d="M426.667,16.067v42.667H332.8V16.067c0.014-4.707,3.826-8.52,8.533-8.533h76.8
			C422.841,7.547,426.653,11.359,426.667,16.067z"/>
		<path style="fill:#558B30;" d="M503.467,50.2v42.667H281.6V50.2c0.014-4.707,3.826-8.52,8.533-8.533h204.8
			C499.641,41.68,503.453,45.493,503.467,50.2z"/>
		<path style="fill:#8BC34A;" d="M477.867,50.2v42.667H281.6V50.2c0.014-4.707,3.826-8.52,8.533-8.533h179.2
			C474.041,41.68,477.853,45.493,477.867,50.2z"/>
		<g>
			<rect x="281.6" y="92.867" style="fill:#009688;" width="34.133" height="136.533"/>
			<rect x="469.333" y="92.867" style="fill:#009688;" width="34.133" height="136.533"/>
		</g>
		<path style="fill:#2E7D32;" d="M426.667,280.6v51.2c-0.028,9.414-7.652,17.039-17.067,17.067h-34.133
			c-9.414-0.028-17.039-7.653-17.067-17.067v-51.2H426.667z"/>
		<path style="fill:#00695C;" d="M358.4,127h68.267c4.713,0,8.533,3.821,8.533,8.533V152.6c0,4.713-3.82,8.533-8.533,8.533H358.4
			c-4.713,0-8.533-3.821-8.533-8.533v-17.067C349.867,130.821,353.687,127,358.4,127z"/>
	</g>
	<g>
		<path d="M503.467,34.133h-8.533V17.067c0-4.713-3.82-8.533-8.533-8.533s-8.533,3.821-8.533,8.533v17.067H460.8V17.067
			C460.788,7.646,453.154,0.012,443.733,0h-102.4c-9.421,0.012-17.054,7.646-17.067,17.067v17.067H307.2V17.067
			c0-4.713-3.82-8.533-8.533-8.533s-8.533,3.821-8.533,8.533v17.067H281.6c-2.264-0.001-4.435,0.897-6.035,2.498
			c-1.601,1.601-2.499,3.772-2.498,6.035V281.6c0,14.138,11.462,25.6,25.6,25.6s25.6-11.462,25.6-25.6v-59.733h17.067v51.2
			c0.021,6.069,3.272,11.667,8.533,14.692V332.8c0.033,10.813,6.868,20.435,17.067,24.027v146.64
			c-0.001,2.264,0.897,4.435,2.498,6.035c1.601,1.601,3.772,2.499,6.035,2.498H409.6c2.264,0.001,4.435-0.897,6.035-2.498
			c1.601-1.601,2.499-3.772,2.498-6.035V356.828c10.199-3.592,17.033-13.214,17.067-24.028v-45.042
			c5.261-3.025,8.512-8.623,8.533-14.692v-51.2H460.8V281.6c0,14.138,11.462,25.6,25.6,25.6s25.6-11.462,25.6-25.6V42.667
			c0.001-2.264-0.897-4.435-2.498-6.035C507.901,35.031,505.73,34.132,503.467,34.133z M477.867,238.933h17.067V256h-17.067V238.933
			z M477.867,213.333V102.4h17.067v119.467h-17.067V213.333z M341.333,17.067h102.4v17.067h-102.4V17.067z M290.133,51.2h204.8
			v34.133h-204.8V51.2z M290.133,238.933H307.2V256h-17.067V238.933z M307.2,213.333v8.533h-17.067V102.4H307.2V213.333z
			 M298.667,290.133c-4.712-0.003-8.53-3.822-8.533-8.533v-8.533H307.2v8.533C307.197,286.312,303.378,290.13,298.667,290.133z
			 M401.067,494.933H384V358.4h17.067V494.933z M409.6,341.333h-34.133c-4.712-0.003-8.53-3.822-8.533-8.533v-8.533h8.533
			c4.713,0,8.533-3.821,8.533-8.533c0-4.713-3.821-8.533-8.533-8.533h-8.533v-17.067h51.2V307.2H409.6
			c-4.713,0-8.533,3.821-8.533,8.533c0,4.713,3.821,8.533,8.533,8.533h8.533v8.533C418.13,337.512,414.312,341.33,409.6,341.333z
			 M443.733,204.8c-9.421,0.012-17.054,7.646-17.067,17.067v51.2H358.4v-51.2c-0.012-9.421-7.646-17.054-17.067-17.067h-17.067
			V102.4H460.8v102.4H443.733z M486.4,290.133c-4.712-0.003-8.53-3.822-8.533-8.533v-8.533h17.067v8.533
			C494.93,286.312,491.112,290.13,486.4,290.133z"/>
		<path d="M426.667,119.467H358.4c-9.421,0.012-17.054,7.646-17.067,17.067V153.6c0.012,9.421,7.646,17.054,17.067,17.067h68.267
			c9.421-0.012,17.054-7.646,17.067-17.067v-17.067C443.721,127.113,436.087,119.479,426.667,119.467z M358.4,153.6v-17.067h68.267
			l0.017,17.067H358.4z"/>
		<path d="M401.067,238.933H384c-4.713,0-8.533,3.821-8.533,8.533c0,4.713,3.821,8.533,8.533,8.533h17.067
			c4.713,0,8.533-3.82,8.533-8.533C409.6,242.754,405.78,238.933,401.067,238.933z"/>
		<path d="M401.067,204.8H384c-4.713,0-8.533,3.82-8.533,8.533s3.821,8.533,8.533,8.533h17.067c4.713,0,8.533-3.821,8.533-8.533
			S405.78,204.8,401.067,204.8z"/>
		<path d="M25.6,307.2c14.132-0.015,25.585-11.468,25.6-25.6v-59.733h17.067v51.2c0.021,6.069,3.272,11.667,8.533,14.692V332.8
			c0.033,10.813,6.868,20.435,17.067,24.027v146.64c-0.001,2.264,0.897,4.435,2.498,6.035c1.601,1.601,3.772,2.499,6.035,2.498
			h34.133c2.264,0.001,4.435-0.897,6.035-2.498c1.601-1.601,2.499-3.772,2.498-6.035V356.828
			c10.199-3.592,17.033-13.214,17.067-24.028v-45.042c5.261-3.025,8.512-8.623,8.533-14.692v-51.2h17.067V281.6
			c0,14.138,11.462,25.6,25.6,25.6s25.6-11.462,25.6-25.6V42.667c0.001-2.264-0.897-4.435-2.498-6.035s-3.772-2.499-6.035-2.498
			h-8.533V17.067c0-4.713-3.821-8.533-8.533-8.533s-8.533,3.821-8.533,8.533v17.067h-17.067V17.067
			C187.721,7.646,180.087,0.012,170.667,0h-102.4C58.846,0.012,51.212,7.646,51.2,17.067v17.067H34.133V17.067
			c0-4.713-3.821-8.533-8.533-8.533s-8.533,3.821-8.533,8.533v17.067H8.533c-2.264-0.001-4.435,0.897-6.035,2.498
			S-0.001,40.403,0,42.667V281.6C0.015,295.732,11.468,307.185,25.6,307.2z M34.133,256H17.067v-17.067h17.067V256z M34.133,213.333
			v8.533H17.067V102.4h17.067V213.333z M25.6,290.133c-4.712-0.003-8.53-3.822-8.533-8.533v-8.533h17.067v8.533
			C34.13,286.312,30.312,290.13,25.6,290.133z M128,494.933h-17.067V358.4H128V494.933z M136.533,341.333H102.4
			c-4.712-0.003-8.53-3.822-8.533-8.533v-8.533h8.533c4.713,0,8.533-3.821,8.533-8.533c0-4.713-3.821-8.533-8.533-8.533h-8.533
			v-17.067h51.2V307.2h-8.533c-4.713,0-8.533,3.821-8.533,8.533c0,4.713,3.82,8.533,8.533,8.533h8.533v8.533
			C145.064,337.512,141.245,341.33,136.533,341.333z M170.667,204.8c-9.421,0.012-17.054,7.646-17.067,17.067v51.2H85.333v-51.2
			c-0.012-9.421-7.646-17.054-17.067-17.067H51.2V102.4h136.533v102.4H170.667z M221.867,102.4v119.467H204.8V102.4H221.867z
			 M204.8,238.933h17.067V256H204.8V238.933z M213.333,290.133c-4.712-0.003-8.53-3.822-8.533-8.533v-8.533h17.067v8.533
			C221.864,286.312,218.045,290.13,213.333,290.133z M68.267,17.067h102.4v17.067h-102.4V17.067z M17.067,51.2h204.8v34.133h-204.8
			V51.2z"/>
		<path d="M153.6,119.467H85.333c-9.421,0.012-17.054,7.646-17.067,17.067V153.6c0.012,9.421,7.646,17.054,17.067,17.067H153.6
			c9.421-0.012,17.054-7.646,17.067-17.067v-17.067C170.654,127.113,163.021,119.479,153.6,119.467z M85.333,153.6v-17.067H153.6
			l0.017,17.067H85.333z"/>
		<path d="M128,238.933h-17.067c-4.713,0-8.533,3.821-8.533,8.533c0,4.713,3.821,8.533,8.533,8.533H128
			c4.713,0,8.533-3.82,8.533-8.533C136.533,242.754,132.713,238.933,128,238.933z"/>
		<path d="M128,204.8h-17.067c-4.713,0-8.533,3.82-8.533,8.533s3.821,8.533,8.533,8.533H128c4.713,0,8.533-3.821,8.533-8.533
			S132.713,204.8,128,204.8z"/>
	</g>
</g>
<g>
</g>
<g>
</g>
<g>
</g>
<g>
</g>
<g>
</g>
<g>
</g>
<g>
</g>
<g>
</g>
<g>
</g>
<g>
</g>
<g>
</g>
<g>
</g>
<g>
</g>
<g>
</g>
<g>
</g>
</svg>
