<?xml version="1.0" encoding="iso-8859-1"?>
<!-- Generator: Adobe Illustrator 19.0.0, SVG Export Plug-In . SVG Version: 6.00 Build 0)  -->
<svg version="1.1" id="Capa_1" xmlns="http://www.w3.org/2000/svg" xmlns:xlink="http://www.w3.org/1999/xlink" x="0px" y="0px"
	 viewBox="0 0 512 512" style="enable-background:new 0 0 512 512;" xml:space="preserve">
<g>
	<g transform="translate(0 1)">
		<g>
			<path style="fill:#283593;" d="M384.085,95.085l-14.839,11.899c-6.605,5.227-16.03,4.88-22.232-0.819
				c-13.291-11.943-28.799-21.157-45.644-27.119c-8.688-2.893-13.592-12.079-11.165-20.908l4.707-16.472
				c30.961,7.233,59.279,22.988,81.749,45.483C379.221,89.709,381.695,92.355,384.085,95.085z"/>
			<path style="fill:#283593;" d="M210.629,79.046c-16.845,5.962-32.353,15.176-45.644,27.119
				c-6.203,5.699-15.627,6.046-22.232,0.819l-14.839-11.899c23.381-26.724,54.579-45.413,89.173-53.419l4.707,16.472
				C224.222,66.968,219.317,76.153,210.629,79.046z"/>
		</g>
		<path style="fill:#3F51B5;" d="M426.667,237.933v-25.6c0-94.257-76.41-170.667-170.667-170.667S85.333,118.077,85.333,212.333
			v25.6H51.2v-25.6c0-113.108,91.692-204.8,204.8-204.8s204.8,91.692,204.8,204.8v25.6H426.667z"/>
		<g>
			<path style="fill:#CFD8DC;" d="M460.8,425.667v68.267c-0.014,4.707-3.826,8.52-8.533,8.533H435.2
				c-4.707-0.014-8.52-3.826-8.533-8.533v-68.267H460.8z"/>
			<rect x="70.571" y="459.8" style="fill:#CFD8DC;" width="91.563" height="34.133"/>
		</g>
		<g>
			<path style="fill:#3F51B5;" d="M85.333,391.533v102.4H68.267c-9.426,0-17.067-7.641-17.067-17.067v-85.333H85.333z"/>
			<path style="fill:#3F51B5;" d="M162.133,451.267H230.4c9.426,0,17.067,7.641,17.067,17.067V485.4
				c0,9.426-7.641,17.067-17.067,17.067h-68.267c-9.426,0-17.067-7.641-17.067-17.067v-17.067
				C145.067,458.908,152.708,451.267,162.133,451.267z"/>
			<rect x="426.667" y="391.533" style="fill:#3F51B5;" width="34.133" height="51.2"/>
		</g>
		<path style="fill:#CFD8DC;" d="M196.267,229.4v170.667c-0.028,9.414-7.653,17.039-17.067,17.067H128v-204.8h51.2
			C188.614,212.361,196.239,219.986,196.267,229.4z"/>
		<path style="fill:#673AB7;" d="M128,220.867V408.6H42.667c-18.859,0-34.133-41.984-34.133-93.867s15.275-93.867,34.133-93.867H128
			z"/>
		<g>
			<path style="fill:#CFD8DC;" d="M93.867,263.533h17.067v51.2H76.8V280.6C76.8,271.174,84.441,263.533,93.867,263.533z"/>
			<path style="fill:#CFD8DC;" d="M76.8,314.733h34.133v51.2H93.867c-9.426,0-17.067-7.641-17.067-17.067V314.733z"/>
			<path style="fill:#CFD8DC;" d="M384,212.333v204.8h-51.2c-9.414-0.028-17.039-7.653-17.067-17.067V229.4
				c0.028-9.414,7.652-17.039,17.067-17.067H384z"/>
		</g>
		<path style="fill:#673AB7;" d="M503.467,314.733c0,2.816,0,5.632-0.171,8.363c-0.085,2.731-0.171,5.461-0.427,8.192v1.195
			c-0.255,2.816-0.511,5.632-0.767,8.363c-0.256,1.963-0.427,3.84-0.683,5.717c-0.085,0.427-0.085,0.768-0.171,1.109
			c-0.008,0.376-0.066,0.749-0.171,1.109c-0.341,2.475-0.683,4.779-1.108,7.083c-0.427,2.389-0.854,4.608-1.367,6.827
			c-0.091,0.306-0.148,0.621-0.171,0.939v0.171c0,0.171-0.084,0.256-0.084,0.427c-0.511,1.963-0.939,3.925-1.451,5.803
			c-0.512,2.219-1.194,4.267-1.792,6.315c0,0.085-0.085,0.171-0.085,0.256c-5.547,17.237-13.398,29.013-22.188,31.488
			c-1.135,0.343-2.314,0.516-3.499,0.512l-85.333,0V220.867l85.333,0c1.185-0.004,2.364,0.169,3.498,0.512
			c2.096,0.58,4.045,1.598,5.719,2.987c0.475,0.344,0.931,0.715,1.365,1.109c0.391,0.348,0.761,0.718,1.109,1.109l1.024,1.024
			c0.513,0.597,1.109,1.28,1.621,1.963c5.09,7.058,8.929,14.938,11.35,23.296c0.097,0.245,0.155,0.505,0.171,0.768
			c0.597,1.877,1.108,3.84,1.707,5.803c0.512,1.877,0.94,3.84,1.451,5.803c0,0.171,0.084,0.256,0.084,0.427v0.171
			c0.023,0.318,0.08,0.633,0.171,0.939c0.513,2.219,0.94,4.437,1.367,6.827c0.426,2.304,0.767,4.608,1.108,7.083
			c0.105,0.361,0.162,0.734,0.171,1.109c0.085,0.341,0.085,0.683,0.171,1.109c0.256,1.877,0.427,3.755,0.683,5.717
			c0.255,2.731,0.511,5.547,0.767,8.363v0.341c0.085,1.536,0.256,2.987,0.256,4.523v0.427c0.085,1.365,0.171,2.731,0.171,4.096
			C503.467,309.101,503.467,311.917,503.467,314.733z"/>
		<g>
			<path style="fill:#CFD8DC;" d="M418.133,365.933h-17.067v-51.2H435.2v34.133C435.2,358.292,427.559,365.933,418.133,365.933z"/>
			<path style="fill:#CFD8DC;" d="M435.2,314.733h-34.133v-51.2h17.067c9.426,0,17.067,7.641,17.067,17.067V314.733z"/>
		</g>
		<g>
			<path style="fill:#9D27B0;" d="M128,203.8L128,203.8c9.426,0,17.067,7.641,17.067,17.067V408.6
				c0,9.426-7.641,17.067-17.067,17.067l0,0c-9.426,0-17.067-7.641-17.067-17.067V220.867C110.933,211.441,118.574,203.8,128,203.8z
				"/>
			<path style="fill:#9D27B0;" d="M384,425.667L384,425.667c-9.426,0-17.067-7.641-17.067-17.067V220.867
				c0-9.426,7.641-17.067,17.067-17.067l0,0c9.426,0,17.067,7.641,17.067,17.067V408.6C401.067,418.026,393.426,425.667,384,425.667
				z"/>
			<path style="fill:#9D27B0;" d="M503.467,314.733c0,2.816,0,5.632-0.171,8.363c-0.085,2.731-0.171,5.461-0.427,8.192v1.195
				c-0.255,2.816-0.511,5.632-0.767,8.363c-0.256,1.963-0.427,3.84-0.683,5.717c-0.085,0.427-0.085,0.768-0.171,1.109
				c-0.008,0.376-0.066,0.749-0.171,1.109c-0.341,2.475-0.683,4.779-1.108,7.083c-0.427,2.389-0.854,4.608-1.367,6.827
				c-0.091,0.306-0.148,0.621-0.171,0.939v0.171c0,0.171-0.084,0.256-0.084,0.427c-0.256,1.109-0.511,2.219-0.768,3.243
				c-0.256,0.853-0.427,1.707-0.683,2.56v0.171c-0.598,1.877-1.109,3.84-1.707,5.632c0.014,0.175-0.016,0.351-0.085,0.512
				c0,0.085-0.085,0.171-0.085,0.256l-21.589-16.128L435.2,331.8v-34.133l38.229-28.672l21.589-16.128
				c0.097,0.245,0.155,0.505,0.171,0.768c0.597,1.792,1.108,3.755,1.707,5.632v0.171c0.256,0.853,0.427,1.707,0.683,2.56
				c0.256,1.024,0.512,2.133,0.768,3.243c0,0.171,0.084,0.256,0.084,0.427v0.171c0.023,0.318,0.08,0.633,0.171,0.939
				c0.512,2.219,0.94,4.437,1.367,6.827c0.426,2.304,0.767,4.608,1.108,7.083c0.105,0.361,0.162,0.734,0.171,1.109
				c0.085,0.341,0.085,0.683,0.171,1.109c0.256,1.877,0.427,3.755,0.683,5.717c0.255,2.731,0.511,5.547,0.767,8.363v1.195
				c0.085,1.195,0.171,2.475,0.256,3.669v0.427c0,0.512,0.085,1.024,0.085,1.536c0.071,0.709,0.1,1.421,0.085,2.133v0.427
				C503.467,309.101,503.467,311.917,503.467,314.733z"/>
			<path style="fill:#9D27B0;" d="M8.533,314.733c-0.253,20.926,2.594,41.774,8.448,61.867L76.8,331.8v-34.133l-59.819-44.8
				C11.127,272.959,8.281,293.807,8.533,314.733z"/>
		</g>
		<path style="fill:#283593;" d="M460.8,212.333v8.533h-25.6v-8.533c-0.043-108.116-84.097-197.587-192-204.373
			c4.181-0.256,8.448-0.427,12.8-0.427C369.096,7.562,460.771,99.238,460.8,212.333z"/>
		<g>
			<path style="fill:#4527A0;" d="M495.019,252.867l-21.589,16.128c-0.093-0.748-0.235-1.489-0.427-2.219
				c-0.092-0.363-0.149-0.735-0.171-1.109c-1.023-4.267-2.048-8.277-3.242-12.032c-0.016-0.263-0.073-0.523-0.171-0.768
				c-2.42-8.358-6.26-16.238-11.35-23.296c-3.148-4.99-8.456-8.213-14.336-8.704l25.6,0c1.185-0.004,2.364,0.169,3.498,0.512
				c2.096,0.58,4.045,1.598,5.719,2.987c0.475,0.344,0.931,0.715,1.365,1.109c0.391,0.348,0.761,0.718,1.109,1.109l1.024,1.024
				c0.513,0.597,1.109,1.28,1.621,1.963C488.759,236.628,492.598,244.508,495.019,252.867z"/>
			<path style="fill:#4527A0;" d="M495.019,376.6c-5.547,17.237-13.398,29.013-22.188,31.488c-1.134,0.343-2.313,0.516-3.498,0.512
				l-25.6,0c10.24,0,19.371-12.459,25.685-32c0.097-0.245,0.155-0.505,0.171-0.768c1.194-3.755,2.219-7.765,3.242-12.032
				c0.021-0.374,0.078-0.746,0.171-1.109c0.191-0.729,0.334-1.47,0.427-2.219L495.019,376.6z"/>
		</g>
		<path style="fill:#6A1B9A;" d="M503.467,314.733c0,2.816,0,5.632-0.171,8.363c-0.085,2.731-0.171,5.461-0.427,8.192v1.195
			c-0.255,2.816-0.511,5.632-0.767,8.363c-0.256,1.963-0.427,3.84-0.683,5.717c-0.085,0.427-0.085,0.768-0.171,1.109
			c-0.008,0.376-0.066,0.749-0.171,1.109c-0.341,2.475-0.683,4.779-1.108,7.083c-0.427,2.389-0.854,4.608-1.367,6.827
			c-0.091,0.306-0.148,0.621-0.171,0.939v0.171c0,0.171-0.084,0.256-0.084,0.427c-0.256,1.109-0.511,2.219-0.768,3.243
			c-0.256,0.853-0.427,1.707-0.683,2.56v0.171c-0.598,1.877-1.109,3.84-1.707,5.632c0.014,0.175-0.016,0.351-0.085,0.512
			c0,0.085-0.085,0.171-0.085,0.256l-21.589-16.128c0.854-3.755,1.451-7.595,2.048-11.691c0.105-0.361,0.162-0.734,0.171-1.109
			c0.683-4.864,1.195-9.984,1.621-15.189v-1.195c0.427-5.376,0.597-10.923,0.597-16.555c0-5.632-0.171-11.179-0.598-16.555v-1.195
			c-0.426-5.205-0.938-10.325-1.621-15.189c-0.008-0.376-0.066-0.749-0.171-1.109c-0.597-4.096-1.194-7.936-2.048-11.691
			l21.589-16.128c0.097,0.245,0.155,0.505,0.171,0.768c0.597,1.792,1.108,3.755,1.707,5.632v0.171
			c0.256,0.853,0.427,1.707,0.683,2.56c0.256,1.024,0.512,2.133,0.768,3.243c0,0.171,0.084,0.256,0.084,0.427v0.171
			c0.023,0.318,0.08,0.633,0.171,0.939c0.513,2.219,0.94,4.437,1.367,6.827c0.426,2.304,0.767,4.608,1.108,7.083
			c0.105,0.361,0.162,0.734,0.171,1.109c0.085,0.341,0.085,0.683,0.171,1.109c0.256,1.877,0.427,3.755,0.683,5.717
			c0.255,2.731,0.511,5.547,0.767,8.363v1.195c0.085,1.195,0.171,2.475,0.256,3.669v0.427c0,0.512,0.085,1.024,0.085,1.536
			c0.071,0.709,0.1,1.421,0.085,2.133v0.427C503.467,309.101,503.467,311.917,503.467,314.733z"/>
	</g>
	<path d="M469.333,213.333C469.333,95.513,373.821,0,256,0S42.667,95.513,42.667,213.333C14.658,213.333,0,264.85,0,315.733
		s14.658,102.4,42.667,102.4v59.733c0.015,14.132,11.468,25.585,25.6,25.6h74.925c4.812,5.41,11.701,8.513,18.942,8.533H230.4
		c14.132-0.015,25.585-11.468,25.6-25.6v-17.067c-0.015-14.132-11.468-25.585-25.6-25.6h-68.267
		c-7.24,0.02-14.129,3.124-18.942,8.533H93.867v-34.133h10.106c2.953,8.515,10.199,14.825,19.039,16.58
		c8.84,1.755,17.947-1.307,23.93-8.047H179.2c14.132-0.015,25.585-11.468,25.6-25.6V230.4c-0.015-14.132-11.468-25.585-25.6-25.6
		h-32.258c-5.983-6.74-15.09-9.803-23.93-8.047s-16.086,8.066-19.039,16.58H93.867c-0.007-36.623,12.456-72.157,35.335-100.754
		l8.215,6.587c4.503,3.618,10.107,5.588,15.883,5.583c6.424-0.013,12.616-2.402,17.384-6.708
		c12.449-11.213,26.991-19.854,42.792-25.425c12.899-4.45,20.129-18.148,16.525-31.308l-2.144-7.496
		c18.601-3.483,37.687-3.483,56.288,0L282,61.317c-3.602,13.158,3.628,26.853,16.525,31.3c15.8,5.571,30.343,14.212,42.791,25.425
		c4.767,4.306,10.959,6.696,17.383,6.708c5.779,0.005,11.386-1.965,15.892-5.583l8.208-6.585
		c22.879,28.596,35.34,64.129,35.333,100.752h-10.106c-2.953-8.515-10.199-14.825-19.039-16.58
		c-8.84-1.755-17.947,1.307-23.93,8.047H332.8c-14.132,0.015-25.585,11.468-25.6,25.6v170.667c0.015,14.132,11.468,25.585,25.6,25.6
		h32.258c5.983,6.74,15.09,9.803,23.93,8.047c8.84-1.755,16.086-8.066,19.039-16.58h10.106v76.8
		c0.012,9.421,7.646,17.054,17.067,17.067h17.067c9.421-0.012,17.054-7.646,17.067-17.067v-76.8
		c28.008,0,42.667-51.517,42.667-102.4S497.342,213.333,469.333,213.333z M484.833,250.828l-41.1,30.782v-0.01
		c-0.015-14.132-11.468-25.585-25.6-25.6H409.6v-25.6h59.733C474.068,230.4,479.916,237.819,484.833,250.828z M494.933,315.733
		c0.102,15.944-1.559,31.851-4.952,47.431l-46.248-34.631v-25.6l46.248-34.631C493.375,283.882,495.035,299.789,494.933,315.733z
		 M426.667,298.667v8.533H409.6v-34.133h8.533c4.712,0.003,8.53,3.822,8.533,8.533V298.667z M409.6,324.267h17.067v25.6
		c-0.003,4.712-3.822,8.53-8.533,8.533H409.6V324.267z M85.333,332.8v-8.533H102.4V358.4h-8.533
		c-4.712-0.003-8.53-3.822-8.533-8.533V332.8z M102.4,307.2H85.333v-25.6c0.003-4.712,3.822-8.53,8.533-8.533h8.533V307.2z
		 M68.267,315.733v12.8l-46.248,34.631c-6.603-31.276-6.603-63.586,0-94.861l46.248,34.631V315.733z M27.167,380.639l41.1-30.782
		v0.01c0.015,14.132,11.468,25.585,25.6,25.6h8.533v25.6H42.667C37.932,401.067,32.084,393.647,27.167,380.639z M162.133,460.8
		H230.4c4.712,0.003,8.53,3.822,8.533,8.533V486.4c-0.003,4.712-3.822,8.53-8.533,8.533h-68.267
		c-4.712-0.003-8.53-3.822-8.533-8.533v-17.067C153.603,464.622,157.422,460.803,162.133,460.8z M136.533,469.333V486.4H93.867
		v-17.067H136.533z M76.8,460.8v25.6h-8.533c-4.712-0.003-8.53-3.822-8.533-8.533v-59.733H76.8V460.8z M179.2,221.867
		c4.712,0.003,8.53,3.822,8.533,8.533v170.667c-0.003,4.712-3.822,8.53-8.533,8.533h-25.6v-17.067h8.533
		c4.713,0,8.533-3.82,8.533-8.533s-3.821-8.533-8.533-8.533H153.6V256h8.533c4.713,0,8.533-3.82,8.533-8.533
		c0-4.713-3.821-8.533-8.533-8.533H153.6v-17.067H179.2z M128,213.333c4.712,0.003,8.53,3.822,8.533,8.533V409.6
		c0,4.713-3.821,8.533-8.533,8.533c-4.713,0-8.533-3.821-8.533-8.533V221.867C119.47,217.155,123.288,213.337,128,213.333z
		 M102.4,230.4V256h-8.533c-14.132,0.015-25.585,11.468-25.6,25.6v0.01l-41.1-30.782c4.918-13.008,10.766-20.428,15.5-20.428H102.4z
		 M213.583,66c1.203,4.492-1.353,9.132-5.792,10.517c-17.91,6.32-34.395,16.116-48.508,28.825
		c-3.099,2.896-7.843,3.111-11.192,0.508l-7.604-6.096c18.288-18.615,40.794-32.547,65.611-40.614
		c1.029-0.329,2.05-0.677,3.088-0.985c0.657-0.198,1.344-0.326,2.005-0.517L213.583,66z M363.917,105.85
		c-3.352,2.603-8.098,2.388-11.2-0.508c-14.113-12.709-30.598-22.505-48.508-28.825c-4.437-1.382-6.992-6.019-5.792-10.508
		l2.389-8.371c0.54,0.156,1.1,0.261,1.638,0.422c1.385,0.413,2.754,0.877,4.127,1.326c3.702,1.219,7.358,2.537,10.939,4.011
		c0.659,0.27,1.336,0.504,1.993,0.783c4.329,1.851,8.548,3.908,12.675,6.115c0.727,0.387,1.446,0.789,2.167,1.188
		c8.531,4.722,16.62,10.201,24.171,16.371c0.364,0.297,0.724,0.597,1.086,0.898c4.156,3.462,8.116,7.145,11.906,10.999
		L363.917,105.85z M391.014,95.877c-0.148-0.302-0.314-0.595-0.497-0.877c-2.517-2.883-5.125-5.669-7.825-8.358
		c-3.874-3.875-7.964-7.484-12.146-10.968c-0.53-0.442-1.072-0.867-1.607-1.303c-3.851-3.133-7.816-6.1-11.893-8.899
		c-0.466-0.319-0.915-0.656-1.383-0.97c-4.513-3.025-9.139-5.856-13.9-8.454c-0.587-0.321-1.198-0.599-1.788-0.915
		c-3.954-2.1-7.985-4.045-12.094-5.835c-1.403-0.617-2.808-1.223-4.229-1.805c-3.946-1.608-7.949-3.077-12.01-4.405
		c-1.425-0.467-2.843-0.935-4.284-1.367c-3.472-1.035-6.965-2.014-10.508-2.839c-0.198-0.046-0.388,0.01-0.586-0.021
		c-26.462-6.302-54.033-6.305-80.496-0.009c-0.202,0.032-0.399-0.026-0.601,0.021c-3.177,0.733-6.281,1.656-9.394,2.555
		c-1.143,0.335-2.319,0.583-3.452,0.94c-5.4,1.676-10.67,3.646-15.848,5.811c-0.184,0.078-0.361,0.167-0.546,0.245
		c-5.142,2.171-10.144,4.616-15.042,7.257l-0.475,0.259c-15.067,8.175-28.865,18.498-40.96,30.644
		c-0.154,0.154-0.296,0.321-0.45,0.476c-2.55,2.58-5.091,5.172-7.5,7.921c-0.185,0.283-0.354,0.578-0.503,0.882
		c-28.485,32.504-44.191,74.25-44.196,117.469H59.733c0-108.395,87.872-196.267,196.267-196.267s196.267,87.872,196.267,196.267
		H435.2C435.195,170.12,419.492,128.379,391.014,95.877z M332.8,409.6c-4.712-0.003-8.53-3.822-8.533-8.533V230.4
		c0.003-4.712,3.822-8.53,8.533-8.533h25.6v17.067h-8.533c-4.713,0-8.533,3.821-8.533,8.533c0,4.713,3.821,8.533,8.533,8.533h8.533
		v119.467h-8.533c-4.713,0-8.533,3.821-8.533,8.533s3.821,8.533,8.533,8.533h8.533V409.6H332.8z M384,418.133
		c-4.712-0.003-8.53-3.822-8.533-8.533V221.867c0-4.713,3.821-8.533,8.533-8.533s8.533,3.821,8.533,8.533V409.6
		C392.53,414.312,388.712,418.13,384,418.133z M435.2,494.933v-42.667h17.074l0.009,42.667H435.2z M452.271,435.2H435.2v-17.067
		h17.067L452.271,435.2z M469.333,401.067H409.6v-25.6h8.533c14.132-0.015,25.585-11.468,25.6-25.6v-0.01l41.1,30.782
		C479.916,393.647,474.068,401.067,469.333,401.067z"/>
</g>
<g>
</g>
<g>
</g>
<g>
</g>
<g>
</g>
<g>
</g>
<g>
</g>
<g>
</g>
<g>
</g>
<g>
</g>
<g>
</g>
<g>
</g>
<g>
</g>
<g>
</g>
<g>
</g>
<g>
</g>
</svg>
