<?xml version="1.0" encoding="iso-8859-1"?>
<!-- Generator: Adobe Illustrator 19.0.0, SVG Export Plug-In . SVG Version: 6.00 Build 0)  -->
<svg version="1.1" id="Capa_1" xmlns="http://www.w3.org/2000/svg" xmlns:xlink="http://www.w3.org/1999/xlink" x="0px" y="0px"
	 viewBox="0 0 512 512" style="enable-background:new 0 0 512 512;" xml:space="preserve">
<g>
	<g transform="translate(1 1)">
		<g>
			<path style="fill:#607D8B;" d="M425.667,400.067v93.867c-0.014,4.707-3.826,8.519-8.533,8.533h-51.2
				c-4.707-0.014-8.519-3.826-8.533-8.533v-93.867H425.667z"/>
			<path style="fill:#607D8B;" d="M152.6,400.067v93.867c-0.014,4.707-3.826,8.519-8.533,8.533h-51.2
				c-4.707-0.014-8.519-3.826-8.533-8.533v-93.867H152.6z"/>
		</g>
		<g>
			<path style="fill:#CFD8DC;" d="M400.067,400.067v93.867c-0.014,4.707-3.826,8.519-8.533,8.533h-25.6
				c-4.707-0.014-8.519-3.826-8.533-8.533v-93.867H400.067z"/>
			<path style="fill:#CFD8DC;" d="M127,400.067v93.867c-0.014,4.707-3.826,8.519-8.533,8.533h-25.6
				c-4.707-0.014-8.519-3.826-8.533-8.533v-93.867H127z"/>
		</g>
		<path style="fill:#FEC108;" d="M451.267,7.533H331.8c0,9.387-3.328,17.067-34.133,17.067v119.467H485.4V24.6
			C454.595,24.6,451.267,16.92,451.267,7.533z"/>
		<g>
			<path style="fill:#FF9801;" d="M485.4,24.6V127h-34.133V7.533C451.267,16.92,454.595,24.6,485.4,24.6z"/>
			<path style="fill:#FF9801;" d="M331.8,7.533V127h-34.133V24.6C328.472,24.6,331.8,16.92,331.8,7.533z"/>
		</g>
		<path style="fill:#1566C0;" d="M502.467,135.533v184.235c-0.017,2.237-0.905,4.379-2.475,5.973l-46.251,46.251
			c-1.57,1.594-2.457,3.736-2.475,5.973V408.6c-0.014,4.707-3.826,8.519-8.533,8.533h-102.4c-4.707-0.014-8.519-3.826-8.533-8.533
			v-30.635c-0.017-2.237-0.905-4.379-2.475-5.973l-46.251-46.251c-1.57-1.594-2.457-3.736-2.475-5.973V135.533
			c0.014-4.707,3.826-8.519,8.533-8.533h204.8C498.64,127.014,502.453,130.826,502.467,135.533z"/>
		<path style="fill:#2296F3;" d="M476.867,135.533v184.235c-0.017,2.237-0.905,4.379-2.475,5.973l-46.251,46.251
			c-1.57,1.594-2.457,3.736-2.475,5.973V408.6c-0.014,4.707-3.826,8.519-8.533,8.533h-76.8c-4.707-0.014-8.519-3.826-8.533-8.533
			v-30.635c-0.017-2.237-0.905-4.379-2.475-5.973l-46.251-46.251c-1.57-1.594-2.457-3.736-2.475-5.973V135.533
			c0.014-4.707,3.826-8.519,8.533-8.533h179.2C473.04,127.014,476.853,130.826,476.867,135.533z"/>
		<path style="fill:#1566C0;" d="M323.267,169.667H459.8c4.713,0,8.533,3.821,8.533,8.533v59.733c0,4.713-3.82,8.533-8.533,8.533
			H323.267c-4.713,0-8.533-3.82-8.533-8.533V178.2C314.733,173.487,318.554,169.667,323.267,169.667z"/>
		<path style="fill:#FEC108;" d="M178.2,7.533H58.733c0,9.387-3.328,17.067-34.133,17.067v119.467h187.733V24.6
			C181.528,24.6,178.2,16.92,178.2,7.533z"/>
		<g>
			<path style="fill:#FF9801;" d="M212.333,24.6V127H178.2V7.533C178.2,16.92,181.528,24.6,212.333,24.6z"/>
			<path style="fill:#FF9801;" d="M58.733,7.533V127H24.6V24.6C55.405,24.6,58.733,16.92,58.733,7.533z"/>
		</g>
		<path style="fill:#1566C0;" d="M229.4,135.533v184.235c-0.017,2.237-0.905,4.379-2.475,5.973l-46.251,46.251
			c-1.57,1.594-2.457,3.736-2.475,5.973V408.6c-0.014,4.707-3.826,8.519-8.533,8.533h-102.4c-4.707-0.014-8.519-3.826-8.533-8.533
			v-30.635c-0.017-2.237-0.905-4.379-2.475-5.973l-46.251-46.251c-1.57-1.594-2.457-3.736-2.475-5.973V135.533
			c0.014-4.707,3.826-8.519,8.533-8.533h204.8C225.574,127.014,229.386,130.826,229.4,135.533z"/>
		<path style="fill:#2296F3;" d="M203.8,135.533v184.235c-0.017,2.237-0.905,4.379-2.475,5.973l-46.251,46.251
			c-1.57,1.594-2.457,3.736-2.475,5.973V408.6c-0.014,4.707-3.826,8.519-8.533,8.533h-76.8c-4.707-0.014-8.519-3.826-8.533-8.533
			v-30.635c-0.017-2.237-0.905-4.379-2.475-5.973l-46.251-46.251c-1.57-1.594-2.457-3.736-2.475-5.973V135.533
			c0.014-4.707,3.826-8.519,8.533-8.533h179.2C199.974,127.014,203.786,130.826,203.8,135.533z"/>
		<path style="fill:#1566C0;" d="M50.2,169.667h136.533c4.713,0,8.533,3.821,8.533,8.533v59.733c0,4.713-3.821,8.533-8.533,8.533
			H50.2c-4.713,0-8.533-3.82-8.533-8.533V178.2C41.667,173.487,45.487,169.667,50.2,169.667z"/>
	</g>
	<g>
		<path d="M494.933,119.467V25.6c0.001-2.264-0.897-4.435-2.498-6.035c-1.601-1.601-3.772-2.499-6.035-2.498
			c-25.6,0-25.6-4.933-25.6-8.533c0.001-2.264-0.897-4.435-2.498-6.035c-1.601-1.601-3.772-2.499-6.035-2.498H332.8
			c-2.264-0.001-4.435,0.897-6.035,2.498c-1.601,1.601-2.499,3.772-2.498,6.035c0,3.6,0,8.533-25.6,8.533
			c-2.264-0.001-4.435,0.897-6.035,2.498c-1.601,1.601-2.499,3.772-2.498,6.035v93.867c-9.421,0.012-17.054,7.646-17.067,17.067
			v184.2c0.014,4.523,1.811,8.859,5,12.067l46.2,46.2v30.6c0.012,9.421,7.646,17.054,17.067,17.067h8.533v68.267
			c0.012,9.421,7.646,17.054,17.067,17.067h51.2c9.421-0.012,17.054-7.646,17.067-17.067v-68.267h8.533
			c9.421-0.012,17.054-7.646,17.067-17.067V379l46.2-46.2c3.189-3.208,4.986-7.543,5-12.067v-184.2
			C511.988,127.113,504.354,119.479,494.933,119.467z M341.333,17.067h102.4v102.4h-102.4V17.067z M477.867,33.942v85.525H460.8
			V31.249C466.355,32.852,472.088,33.756,477.867,33.942z M307.2,33.942c5.779-0.185,11.512-1.09,17.067-2.692v88.217H307.2V33.942z
			 M418.15,494.933h-51.217v-68.267h51.2L418.15,494.933z M494.933,320.733l-46.2,46.2c-3.189,3.208-4.986,7.543-5,12.067v30.6
			h-102.4V379c-0.014-4.523-1.811-8.859-5-12.067l-46.2-46.2v-184.2l204.8,0.025V320.733z"/>
		<path d="M375.467,59.733h-8.533c-4.713,0-8.533,3.821-8.533,8.533c0,4.713,3.82,8.533,8.533,8.533h8.533
			c4.713,0,8.533-3.82,8.533-8.533C384,63.554,380.18,59.733,375.467,59.733z"/>
		<path d="M418.133,59.733H409.6c-4.713,0-8.533,3.821-8.533,8.533c0,4.713,3.821,8.533,8.533,8.533h8.533
			c4.713,0,8.533-3.82,8.533-8.533C426.667,63.554,422.846,59.733,418.133,59.733z"/>
		<path d="M324.267,256H460.8c9.421-0.012,17.054-7.646,17.067-17.067V179.2c-0.012-9.421-7.646-17.054-17.067-17.067H324.267
			c-9.421,0.012-17.054,7.646-17.067,17.067v59.733C307.212,248.354,314.846,255.988,324.267,256z M324.267,179.2H460.8
			l0.017,59.733h-136.55V179.2z"/>
		<path d="M435.2,273.067h-85.333c-4.713,0-8.533,3.82-8.533,8.533s3.821,8.533,8.533,8.533H435.2c4.713,0,8.533-3.821,8.533-8.533
			S439.913,273.067,435.2,273.067z"/>
		<path d="M435.2,307.2h-85.333c-4.713,0-8.533,3.821-8.533,8.533c0,4.713,3.821,8.533,8.533,8.533H435.2
			c4.713,0,8.533-3.821,8.533-8.533C443.733,311.021,439.913,307.2,435.2,307.2z"/>
		<path d="M435.2,341.333h-85.333c-4.713,0-8.533,3.821-8.533,8.533c0,4.713,3.821,8.533,8.533,8.533H435.2
			c4.713,0,8.533-3.821,8.533-8.533C443.733,345.154,439.913,341.333,435.2,341.333z"/>
		<path d="M51.2,379v30.6c0.012,9.421,7.646,17.054,17.067,17.067H76.8v68.267c0.012,9.421,7.646,17.054,17.067,17.067h51.2
			c9.421-0.012,17.054-7.646,17.067-17.067v-68.267h8.533c9.421-0.012,17.054-7.646,17.067-17.067V379l46.2-46.2
			c3.189-3.208,4.986-7.543,5-12.067v-184.2c-0.012-9.421-7.646-17.054-17.067-17.067V25.6c0.001-2.264-0.897-4.435-2.498-6.035
			s-3.772-2.499-6.035-2.498c-25.6,0-25.6-4.933-25.6-8.533c0.001-2.264-0.897-4.435-2.498-6.035S181.464-0.001,179.2,0H59.733
			c-2.264-0.001-4.435,0.897-6.035,2.498S51.199,6.27,51.2,8.533c0,3.6,0,8.533-25.6,8.533c-2.264-0.001-4.435,0.897-6.035,2.498
			c-1.601,1.601-2.499,3.772-2.498,6.035v93.867C7.646,119.479,0.012,127.113,0,136.533v184.2c0.014,4.523,1.811,8.859,5,12.067
			L51.2,379z M145.084,494.933H93.867v-68.267h51.2L145.084,494.933z M68.267,17.067h102.4v102.4h-102.4V17.067z M204.8,33.942
			v85.525h-17.067V31.249C193.288,32.852,199.021,33.756,204.8,33.942z M34.133,33.942c5.779-0.185,11.512-1.09,17.067-2.692v88.217
			H34.133V33.942z M17.067,136.533l204.8,0.025v184.175l-46.2,46.2c-3.189,3.208-4.986,7.543-5,12.067v30.6h-102.4V379
			c-0.014-4.523-1.811-8.859-5-12.067l-46.2-46.2V136.533z"/>
		<path d="M102.4,59.733h-8.533c-4.713,0-8.533,3.821-8.533,8.533c0,4.713,3.821,8.533,8.533,8.533h8.533
			c4.713,0,8.533-3.82,8.533-8.533C110.933,63.554,107.113,59.733,102.4,59.733z"/>
		<path d="M145.067,59.733h-8.533c-4.713,0-8.533,3.821-8.533,8.533c0,4.713,3.821,8.533,8.533,8.533h8.533
			c4.713,0,8.533-3.82,8.533-8.533C153.6,63.554,149.779,59.733,145.067,59.733z"/>
		<path d="M204.8,238.933V179.2c-0.012-9.421-7.646-17.054-17.067-17.067H51.2c-9.421,0.012-17.054,7.646-17.067,17.067v59.733
			c0.012,9.421,7.646,17.054,17.067,17.067h136.533C197.154,255.988,204.788,248.354,204.8,238.933z M51.2,179.2h136.533
			l0.017,59.733H51.2V179.2z"/>
		<path d="M162.133,273.067H76.8c-4.713,0-8.533,3.82-8.533,8.533s3.821,8.533,8.533,8.533h85.333c4.713,0,8.533-3.821,8.533-8.533
			S166.846,273.067,162.133,273.067z"/>
		<path d="M162.133,307.2H76.8c-4.713,0-8.533,3.821-8.533,8.533c0,4.713,3.821,8.533,8.533,8.533h85.333
			c4.713,0,8.533-3.821,8.533-8.533C170.667,311.021,166.846,307.2,162.133,307.2z"/>
		<path d="M162.133,341.333H76.8c-4.713,0-8.533,3.821-8.533,8.533c0,4.713,3.821,8.533,8.533,8.533h85.333
			c4.713,0,8.533-3.821,8.533-8.533C170.667,345.154,166.846,341.333,162.133,341.333z"/>
	</g>
</g>
<g>
</g>
<g>
</g>
<g>
</g>
<g>
</g>
<g>
</g>
<g>
</g>
<g>
</g>
<g>
</g>
<g>
</g>
<g>
</g>
<g>
</g>
<g>
</g>
<g>
</g>
<g>
</g>
<g>
</g>
</svg>
