<?xml version="1.0" encoding="iso-8859-1"?>
<!-- Generator: Adobe Illustrator 19.0.0, SVG Export Plug-In . SVG Version: 6.00 Build 0)  -->
<svg version="1.1" id="Capa_1" xmlns="http://www.w3.org/2000/svg" xmlns:xlink="http://www.w3.org/1999/xlink" x="0px" y="0px"
	 viewBox="0 0 512 512" style="enable-background:new 0 0 512 512;" xml:space="preserve">
<g>
	<g transform="translate(1 1)">
		<path style="fill:#607D8B;" d="M400.067,16.067V331.8H109.933V16.067c0.014-4.707,3.826-8.519,8.533-8.533h273.067
			C396.24,7.547,400.053,11.36,400.067,16.067z"/>
		<path style="fill:#CFD8DC;" d="M374.467,16.067V331.8H109.933V16.067c0.014-4.707,3.826-8.519,8.533-8.533h247.467
			C370.64,7.547,374.453,11.36,374.467,16.067z"/>
		<g>
			<path style="fill:#FF9801;" d="M161.133,118.467h59.733c4.713,0,8.533,3.82,8.533,8.533v34.133c0,4.713-3.821,8.533-8.533,8.533
				h-59.733c-4.713,0-8.533-3.821-8.533-8.533V127C152.6,122.287,156.421,118.467,161.133,118.467z"/>
			<path style="fill:#FF9801;" d="M289.133,118.467h59.733c4.713,0,8.533,3.82,8.533,8.533v34.133c0,4.713-3.82,8.533-8.533,8.533
				h-59.733c-4.713,0-8.533-3.821-8.533-8.533V127C280.6,122.287,284.421,118.467,289.133,118.467z"/>
		</g>
		<path style="fill:#2E7D32;" d="M425.667,365.933c9.426,0,17.067,7.641,17.067,17.067c0,9.426-7.641,17.067-17.067,17.067
			c9.426,0,17.067,7.641,17.067,17.067s-7.641,17.067-17.067,17.067c9.426,0,17.067,7.641,17.067,17.067
			s-7.641,17.067-17.067,17.067c9.426,0,17.067,7.641,17.067,17.067s-7.641,17.067-17.067,17.067H84.333
			c-9.426,0-17.067-7.641-17.067-17.067s7.641-17.067,17.067-17.067c-9.426,0-17.067-7.641-17.067-17.067S74.908,434.2,84.333,434.2
			c-9.426,0-17.067-7.641-17.067-17.067s7.641-17.067,17.067-17.067c-9.426,0-17.067-7.641-17.067-17.067
			c0-9.426,7.641-17.067,17.067-17.067c-9.426,0-17.067-7.641-17.067-17.067c0-9.426,7.641-17.067,17.067-17.067
			c-9.426,0-17.067-7.641-17.067-17.067c0-9.426,7.641-17.067,17.067-17.067h341.333c9.426,0,17.067,7.641,17.067,17.067
			c0,9.426-7.641,17.067-17.067,17.067c9.426,0,17.067,7.641,17.067,17.067C442.733,358.292,435.092,365.933,425.667,365.933z"/>
		<path style="fill:#4CAF50;" d="M400.067,365.933c9.426,0,17.067,7.641,17.067,17.067c0,9.426-7.641,17.067-17.067,17.067
			c9.426,0,17.067,7.641,17.067,17.067s-7.641,17.067-17.067,17.067c9.426,0,17.067,7.641,17.067,17.067
			s-7.641,17.067-17.067,17.067c9.426,0,17.067,7.641,17.067,17.067s-7.641,17.067-17.067,17.067H84.333
			c-9.426,0-17.067-7.641-17.067-17.067s7.641-17.067,17.067-17.067c-9.426,0-17.067-7.641-17.067-17.067S74.908,434.2,84.333,434.2
			c-9.426,0-17.067-7.641-17.067-17.067s7.641-17.067,17.067-17.067c-9.426,0-17.067-7.641-17.067-17.067
			c0-9.426,7.641-17.067,17.067-17.067c-9.426,0-17.067-7.641-17.067-17.067c0-9.426,7.641-17.067,17.067-17.067
			c-9.426,0-17.067-7.641-17.067-17.067c0-9.426,7.641-17.067,17.067-17.067h315.733c9.426,0,17.067,7.641,17.067,17.067
			c0,9.426-7.641,17.067-17.067,17.067c9.426,0,17.067,7.641,17.067,17.067C417.133,358.292,409.492,365.933,400.067,365.933z"/>
	</g>
	<g>
		<path d="M85.333,512h341.333c10.098,0.005,19.254-5.93,23.373-15.148c4.12-9.219,2.433-19.999-4.307-27.518
			c8.711-9.71,8.711-24.423,0-34.133c8.711-9.71,8.711-24.423,0-34.133c8.711-9.71,8.711-24.423,0-34.133
			c8.711-9.71,8.711-24.423,0-34.133c6.739-7.52,8.426-18.299,4.307-27.518c-4.12-9.219-13.276-15.153-23.373-15.149H409.6V17.067
			C409.588,7.646,401.954,0.012,392.533,0H119.467c-9.421,0.012-17.054,7.646-17.067,17.067v273.067H85.333
			c-10.098-0.005-19.254,5.93-23.373,15.149c-4.12,9.219-2.433,19.999,4.307,27.518c-8.711,9.71-8.711,24.423,0,34.133
			c-8.711,9.71-8.711,24.423,0,34.133c-8.711,9.71-8.711,24.423,0,34.133c-8.711,9.71-8.711,24.423,0,34.133
			c-6.739,7.519-8.427,18.299-4.307,27.518C66.08,506.07,75.236,512.005,85.333,512z M119.467,17.067h273.067v273.067h-68.267V256
			h25.6c4.713,0,8.533-3.82,8.533-8.533c0-4.713-3.82-8.533-8.533-8.533h-34.133c-2.264-0.001-4.435,0.897-6.035,2.498
			s-2.499,3.772-2.498,6.035v42.667H204.8v-42.667c0.001-2.264-0.897-4.435-2.498-6.035s-3.772-2.499-6.035-2.498h-34.133
			c-4.713,0-8.533,3.821-8.533,8.533c0,4.713,3.821,8.533,8.533,8.533h25.6v34.133h-68.267V17.067z M85.333,460.8
			c-4.713,0-8.533-3.82-8.533-8.533s3.821-8.533,8.533-8.533s8.533-3.821,8.533-8.533s-3.821-8.533-8.533-8.533
			s-8.533-3.82-8.533-8.533s3.821-8.533,8.533-8.533s8.533-3.821,8.533-8.533s-3.821-8.533-8.533-8.533S76.8,388.713,76.8,384
			s3.821-8.533,8.533-8.533s8.533-3.82,8.533-8.533s-3.821-8.533-8.533-8.533s-8.533-3.821-8.533-8.533
			c0-4.713,3.821-8.533,8.533-8.533s8.533-3.82,8.533-8.533s-3.821-8.533-8.533-8.533s-8.533-3.821-8.533-8.533
			c0-4.713,3.821-8.533,8.533-8.533h341.333c4.713,0,8.533,3.821,8.533,8.533c0,4.713-3.821,8.533-8.533,8.533
			c-4.713,0-8.533,3.82-8.533,8.533s3.821,8.533,8.533,8.533c4.713,0,8.533,3.821,8.533,8.533c0,4.713-3.821,8.533-8.533,8.533
			c-4.713,0-8.533,3.82-8.533,8.533s3.821,8.533,8.533,8.533c4.713,0,8.533,3.821,8.533,8.533s-3.821,8.533-8.533,8.533
			c-4.713,0-8.533,3.82-8.533,8.533s3.821,8.533,8.533,8.533c4.713,0,8.533,3.82,8.533,8.533s-3.821,8.533-8.533,8.533
			c-4.713,0-8.533,3.82-8.533,8.533s3.821,8.533,8.533,8.533c4.713,0,8.533,3.82,8.533,8.533s-3.821,8.533-8.533,8.533
			c-4.713,0-8.533,3.821-8.533,8.533c0,4.713,3.821,8.533,8.533,8.533c4.713,0,8.533,3.82,8.533,8.533s-3.821,8.533-8.533,8.533
			H85.333c-4.713,0-8.533-3.82-8.533-8.533s3.821-8.533,8.533-8.533s8.533-3.821,8.533-8.533
			C93.867,464.621,90.046,460.8,85.333,460.8z"/>
		<path d="M221.867,179.2c9.421-0.012,17.054-7.646,17.067-17.067V128c-0.012-9.421-7.646-17.054-17.067-17.067h-59.733
			c-9.421,0.012-17.054,7.646-17.067,17.067v34.133c0.012,9.421,7.646,17.054,17.067,17.067H221.867z M162.133,128h59.733
			l0.017,34.133h-59.75V128z"/>
		<path d="M290.133,179.2h59.733c9.421-0.012,17.054-7.646,17.067-17.067V128c-0.012-9.421-7.646-17.054-17.067-17.067h-59.733
			c-9.421,0.012-17.054,7.646-17.067,17.067v34.133C273.079,171.554,280.713,179.188,290.133,179.2z M290.133,128h59.733
			l0.017,34.133h-59.75V128z"/>
		<path d="M170.667,443.733c-4.713,0-8.533,3.82-8.533,8.533s3.821,8.533,8.533,8.533H204.8c4.713,0,8.533-3.82,8.533-8.533
			s-3.821-8.533-8.533-8.533h-8.533v-93.867c-0.01-3.449-2.093-6.554-5.281-7.871c-3.188-1.317-6.855-0.588-9.297,1.849
			L164.634,360.9c-2.188,2.149-3.055,5.307-2.27,8.271s3.1,5.28,6.065,6.065c2.965,0.785,6.122-0.082,8.271-2.27l2.5-2.5v73.267
			H170.667z"/>
		<path d="M247.467,460.8h17.067c9.421-0.012,17.054-7.646,17.067-17.067V358.4c-0.012-9.421-7.646-17.054-17.067-17.067h-17.067
			c-9.421,0.012-17.054,7.646-17.067,17.067v85.333C230.412,453.154,238.046,460.788,247.467,460.8z M247.467,358.4h17.067
			l0.017,85.333h-17.084V358.4z"/>
		<path d="M315.733,460.8H332.8c9.421-0.012,17.054-7.646,17.067-17.067V358.4c-0.012-9.421-7.646-17.054-17.067-17.067h-17.067
			c-9.421,0.012-17.054,7.646-17.067,17.067v85.333C298.679,453.154,306.313,460.788,315.733,460.8z M315.733,358.4H332.8
			l0.017,85.333h-17.084V358.4z"/>
	</g>
</g>
<g>
</g>
<g>
</g>
<g>
</g>
<g>
</g>
<g>
</g>
<g>
</g>
<g>
</g>
<g>
</g>
<g>
</g>
<g>
</g>
<g>
</g>
<g>
</g>
<g>
</g>
<g>
</g>
<g>
</g>
</svg>
