<?xml version="1.0" encoding="iso-8859-1"?>
<!-- Generator: Adobe Illustrator 19.0.0, SVG Export Plug-In . SVG Version: 6.00 Build 0)  -->
<svg version="1.1" id="Capa_1" xmlns="http://www.w3.org/2000/svg" xmlns:xlink="http://www.w3.org/1999/xlink" x="0px" y="0px"
	 viewBox="0 0 512 512" style="enable-background:new 0 0 512 512;" xml:space="preserve">
<g>
	<g transform="translate(1 1)">
		<path style="fill:#009688;" d="M497.759,161.133c2.629,0.04,4.732,2.195,4.708,4.823v101.287c0.024,2.629-2.079,4.783-4.708,4.823
			h-52.671c-1.316-0.016-2.37-1.096-2.354-2.412v-12.243c0.016-1.316-1.038-2.396-2.354-2.412h-37.959
			c-1.316,0.016-2.37,1.096-2.354,2.412v14.655h-29.425c-2.629-0.04-4.732-2.194-4.708-4.823v-86.817l25.6-19.293H497.759z"/>
		<rect x="357.4" y="58.733" style="fill:#CFD8DC;" width="51.2" height="51.2"/>
		<path style="fill:#37474F;" d="M365.933,7.533V459.8c-0.009,23.561-19.106,42.658-42.667,42.667H7.533V7.533H365.933z"/>
		<path style="fill:#607D8B;" d="M340.333,7.533V459.8c-0.009,23.561-19.106,42.658-42.667,42.667H7.533V7.533H340.333z"/>
		<g>
			<path style="fill:#CFD8DC;" d="M314.733,7.533V178.2c0.003,9.053-3.593,17.737-9.995,24.139
				c-6.402,6.402-15.085,9.997-24.139,9.995H7.533V7.533H314.733z"/>
			<path style="fill:#CFD8DC;" d="M75.8,263.533v187.733c-0.028,9.414-7.653,17.039-17.067,17.067h-51.2V246.467h51.2
				C68.148,246.494,75.772,254.119,75.8,263.533z"/>
		</g>
		<path style="fill:#F4F4F4;" d="M50.2,263.533v187.733c-0.028,9.414-7.653,17.039-17.067,17.067h-25.6V246.467h25.6
			C42.548,246.494,50.172,254.119,50.2,263.533z"/>
		<g>
			<path style="fill:#009688;" d="M7.533,144.067h25.6c4.713,0,8.533,3.821,8.533,8.533v17.067c0,4.713-3.821,8.533-8.533,8.533
				h-25.6V144.067z"/>
			<path style="fill:#009688;" d="M84.333,144.067H101.4c4.713,0,8.533,3.821,8.533,8.533v17.067c0,4.713-3.821,8.533-8.533,8.533
				H84.333c-4.713,0-8.533-3.821-8.533-8.533V152.6C75.8,147.887,79.621,144.067,84.333,144.067z"/>
			<path style="fill:#009688;" d="M7.533,75.8h25.6c4.713,0,8.533,3.82,8.533,8.533V101.4c0,4.713-3.821,8.533-8.533,8.533h-25.6
				V75.8z"/>
			<path style="fill:#009688;" d="M84.333,75.8H101.4c4.713,0,8.533,3.82,8.533,8.533V101.4c0,4.713-3.821,8.533-8.533,8.533H84.333
				c-4.713,0-8.533-3.821-8.533-8.533V84.333C75.8,79.621,79.621,75.8,84.333,75.8z"/>
			<path style="fill:#009688;" d="M41.667,7.533H75.8v25.6c0,4.713-3.821,8.533-8.533,8.533H50.2c-4.713,0-8.533-3.821-8.533-8.533
				V7.533z"/>
			<path style="fill:#009688;" d="M109.933,7.533h34.133v25.6c0,4.713-3.821,8.533-8.533,8.533h-17.067
				c-4.713,0-8.533-3.821-8.533-8.533V7.533z"/>
			<path style="fill:#009688;" d="M178.2,7.533h34.133v25.6c0,4.713-3.821,8.533-8.533,8.533h-17.067
				c-4.713,0-8.533-3.821-8.533-8.533V7.533z"/>
			<path style="fill:#009688;" d="M246.467,7.533H280.6v25.6c0,4.713-3.82,8.533-8.533,8.533H255c-4.713,0-8.533-3.821-8.533-8.533
				V7.533z"/>
			<path style="fill:#009688;" d="M152.6,75.8h17.067c4.713,0,8.533,3.82,8.533,8.533V101.4c0,4.713-3.821,8.533-8.533,8.533H152.6
				c-4.713,0-8.533-3.821-8.533-8.533V84.333C144.067,79.621,147.887,75.8,152.6,75.8z"/>
			<path style="fill:#009688;" d="M220.867,75.8h51.2c4.713,0,8.533,3.82,8.533,8.533V101.4c0,4.713-3.82,8.533-8.533,8.533h-51.2
				c-4.713,0-8.533-3.821-8.533-8.533V84.333C212.333,79.621,216.154,75.8,220.867,75.8z"/>
			<path style="fill:#009688;" d="M152.6,144.067h119.467c4.713,0,8.533,3.821,8.533,8.533v17.067c0,4.713-3.82,8.533-8.533,8.533
				H152.6c-4.713,0-8.533-3.821-8.533-8.533V152.6C144.067,147.887,147.887,144.067,152.6,144.067z"/>
		</g>
		<path style="fill:#E91E63;" d="M400.067,50.2h68.267c18.851,0,34.133,15.282,34.133,34.133s-15.282,34.133-34.133,34.133h-68.267
			V50.2z"/>
		<path style="fill:#00695C;" d="M502.467,165.997v101.205c0.024,1.268-0.457,2.493-1.338,3.406
			c-0.88,0.913-2.088,1.437-3.356,1.458h-25.6c1.268-0.021,2.475-0.546,3.356-1.458c0.881-0.913,1.362-2.138,1.337-3.406V165.997
			c0.024-1.268-0.457-2.493-1.337-3.406s-2.088-1.437-3.356-1.458h25.6c1.268,0.021,2.475,0.546,3.356,1.458
			C502.01,163.504,502.491,164.73,502.467,165.997z"/>
	</g>
	<g>
		<path d="M85.333,187.733H102.4c9.421-0.012,17.054-7.646,17.067-17.067V153.6c-0.012-9.421-7.646-17.054-17.067-17.067H85.333
			c-9.421,0.012-17.054,7.646-17.067,17.067v17.067C68.279,180.087,75.913,187.721,85.333,187.733z M85.333,153.6H102.4
			l0.017,17.067H85.333V153.6z"/>
		<path d="M85.333,119.467H102.4c9.421-0.012,17.054-7.646,17.067-17.067V85.333c-0.012-9.421-7.646-17.054-17.067-17.067H85.333
			c-9.421,0.012-17.054,7.646-17.067,17.067V102.4C68.279,111.821,75.913,119.454,85.333,119.467z M85.333,85.333H102.4
			l0.017,17.067H85.333V85.333z"/>
		<path d="M153.6,119.467h17.067c9.421-0.012,17.054-7.646,17.067-17.067V85.333c-0.012-9.421-7.646-17.054-17.067-17.067H153.6
			c-9.421,0.012-17.054,7.646-17.067,17.067V102.4C136.546,111.821,144.179,119.454,153.6,119.467z M153.6,85.333h17.067
			l0.017,17.067H153.6V85.333z"/>
		<path d="M221.867,119.467h51.2c9.421-0.012,17.054-7.646,17.067-17.067V85.333c-0.012-9.421-7.646-17.054-17.067-17.067h-51.2
			c-9.421,0.012-17.054,7.646-17.067,17.067V102.4C204.812,111.821,212.446,119.454,221.867,119.467z M221.867,85.333h51.2
			l0.017,17.067h-51.217V85.333z"/>
		<path d="M153.6,187.733h119.467c9.421-0.012,17.054-7.646,17.067-17.067V153.6c-0.012-9.421-7.646-17.054-17.067-17.067H153.6
			c-9.421,0.012-17.054,7.646-17.067,17.067v17.067C136.546,180.087,144.179,187.721,153.6,187.733z M153.6,153.6h119.467
			l0.017,17.067H153.6V153.6z"/>
		<path d="M392.533,119.467c-0.001,2.264,0.897,4.435,2.498,6.035c1.601,1.601,3.772,2.499,6.035,2.498h68.267
			C492.897,128,512,108.897,512,85.333s-19.103-42.667-42.667-42.667h-68.267c-2.264-0.001-4.435,0.897-6.035,2.498
			s-2.499,3.772-2.498,6.035h-17.067V8.533c0.001-2.264-0.897-4.435-2.498-6.035S369.197-0.001,366.933,0H8.533
			C6.27-0.001,4.099,0.897,2.498,2.498S-0.001,6.27,0,8.533v494.933c-0.001,2.264,0.897,4.435,2.498,6.035
			c1.601,1.601,3.772,2.499,6.035,2.498h315.733c28.264-0.031,51.169-22.936,51.2-51.2V281.6h25.6
			c2.264,0.001,4.435-0.897,6.035-2.498c1.601-1.601,2.499-3.772,2.498-6.035v-8.533h25.6v6.125
			c-0.009,6.024,4.86,10.918,10.883,10.942h52.675c7.342-0.041,13.265-6.016,13.242-13.358V166.958
			c0.024-7.342-5.9-13.317-13.242-13.358H392.533c-1.852-0.002-3.655,0.601-5.133,1.717l-11.933,8.993v-44.843H392.533z
			 M469.333,59.733c14.138,0,25.6,11.462,25.6,25.6s-11.462,25.6-25.6,25.6H409.6v-51.2H469.333z M392.533,68.267V102.4h-17.067
			V68.267H392.533z M273.075,17.067l0.009,17.067H256V17.067H273.075z M204.809,17.067l0.009,17.067h-17.084V17.067H204.809z
			 M136.542,17.067l0.009,17.067h-17.084V17.067H136.542z M68.275,17.067l0.009,17.067H51.2V17.067H68.275z M34.133,17.067v17.067
			C34.146,43.554,41.779,51.188,51.2,51.2h17.067c9.421-0.012,17.054-7.646,17.067-17.067V17.067H102.4v17.067
			c0.012,9.421,7.646,17.054,17.067,17.067h17.067c9.421-0.012,17.054-7.646,17.067-17.067V17.067h17.067v17.067
			c0.012,9.421,7.646,17.054,17.067,17.067H204.8c9.421-0.012,17.054-7.646,17.067-17.067V17.067h17.067v17.067
			c0.012,9.421,7.646,17.054,17.067,17.067h17.067c9.421-0.012,17.054-7.646,17.067-17.067V17.067H307.2V179.2
			c-0.015,14.132-11.468,25.585-25.6,25.6H17.067v-17.067h17.067c9.421-0.012,17.054-7.646,17.067-17.067V153.6
			c-0.012-9.421-7.646-17.054-17.067-17.067H17.067v-17.067h17.067c9.421-0.012,17.054-7.646,17.067-17.067V85.333
			c-0.012-9.421-7.646-17.054-17.067-17.067H17.067v-51.2H34.133z M17.067,256h42.667c4.712,0.003,8.53,3.822,8.533,8.533v187.733
			c-0.003,4.712-3.822,8.53-8.533,8.533H17.067V256z M17.067,153.6h17.067l0.017,17.067H17.067V153.6z M17.067,85.333h17.067
			L34.15,102.4H17.067V85.333z M358.4,460.8c-0.019,18.844-15.29,34.115-34.133,34.133h-307.2v-17.067h42.667
			c14.132-0.015,25.585-11.468,25.6-25.6V264.533c-0.015-14.132-11.468-25.585-25.6-25.6H17.067v-17.067H281.6
			c23.553-0.028,42.639-19.114,42.667-42.667V17.067H358.4V460.8z M395.392,170.667h99.541v93.867h-42.667v-6.125
			c0.009-6.024-4.86-10.918-10.883-10.942h-37.967c-6.024,0.023-10.892,4.918-10.883,10.942v6.125h-17.067v-78.85L395.392,170.667z"
			/>
	</g>
</g>
<g>
</g>
<g>
</g>
<g>
</g>
<g>
</g>
<g>
</g>
<g>
</g>
<g>
</g>
<g>
</g>
<g>
</g>
<g>
</g>
<g>
</g>
<g>
</g>
<g>
</g>
<g>
</g>
<g>
</g>
</svg>
