<?xml version="1.0" encoding="iso-8859-1"?>
<!-- Generator: Adobe Illustrator 19.0.0, SVG Export Plug-In . SVG Version: 6.00 Build 0)  -->
<svg version="1.1" id="Capa_1" xmlns="http://www.w3.org/2000/svg" xmlns:xlink="http://www.w3.org/1999/xlink" x="0px" y="0px"
	 viewBox="0 0 511.973 511.973" style="enable-background:new 0 0 511.973 511.973;" xml:space="preserve">
<g>
	<g transform="translate(1 1)">
		<path style="fill:#607D8B;" d="M499.934,78.554l-22.014,22.099l-12.116,12.031l-83.449,83.192l-68.517-68.516l83.449-83.191
			l12.116-12.031l22.014-22.099c2.801-2.762,7.112-3.288,10.495-1.28c0.596,0.351,1.141,0.782,1.621,1.28l56.401,56.4
			C503.262,69.791,503.262,75.2,499.934,78.554z"/>
		<path style="fill:#CFD8DC;" d="M483.125,62.086l-22.014,22.099l-12.116,12.031l-83.278,83.021l-51.878-51.877l83.449-83.191
			l12.116-12.031l22.014-22.099c2.801-2.762,7.112-3.288,10.495-1.28l41.212,41.212C486.453,53.323,486.453,58.733,483.125,62.086z"
			/>
		<path style="fill:#1566C0;" d="M429.199,183.504L241.312,371.389l-19.283-19.284l-83.448-83.448L326.468,80.772
			c2.873-2.893,7.025-4.116,11.007-3.243c2.291,0.52,4.39,1.673,6.059,3.327l8.447,8.448l77.134,77.134
			c2.284,2.246,3.578,5.311,3.594,8.515C432.724,178.157,431.461,181.235,429.199,183.504z"/>
		<path style="fill:#2296F3;" d="M408.465,165.586l-28.157,28.243L222.029,352.106l-83.449-83.448L326.468,80.772
			c2.872-2.893,7.025-4.116,11.007-3.243l13.141,13.14l57.85,57.851C413.158,153.241,413.158,160.865,408.465,165.586z"/>
		<path style="fill:#37474F;" d="M249.76,363.027L120.236,492.466c-13.347,13.311-34.948,13.311-48.294,0l-15.7-15.7
			c-0.256-0.256-0.597-0.512-0.853-0.768l-37.885-37.884v-0.085c-13.311-13.347-13.311-34.948,0-48.294l129.439-129.523
			c25.083-25.027,64.562-28.308,93.431-7.764c3.332,2.298,6.445,4.897,9.301,7.764l0.085,0.085
			C278.088,288.681,278.088,334.642,249.76,363.027z"/>
		<path style="fill:#607D8B;" d="M233.122,346.474L103.598,475.998c-12.984,13.012-33.957,13.352-47.355,0.768
			c-0.256-0.256-0.597-0.512-0.853-0.768l-37.885-37.884v-0.085c-13.311-13.347-13.311-34.948,0-48.294l129.439-129.523
			c25.083-25.027,64.562-28.308,93.431-7.764C261.464,281.292,258.385,321.204,233.122,346.474z"/>
		
			<ellipse transform="matrix(-0.7078 -0.7064 0.7064 -0.7078 118.871 672.1924)" style="fill:#1566C0;" cx="198.463" cy="311.51" rx="24.218" ry="24.158"/>
	</g>
	<g>
		<path d="M222.571,289.401c-6.119-6.161-14.446-9.62-23.129-9.609h-0.05c-8.664-0.026-16.978,3.416-23.087,9.558
			c-12.744,12.797-12.723,33.495,0.047,46.266c12.77,12.771,33.468,12.794,46.266,0.051c6.131-6.14,9.571-14.465,9.562-23.143
			S228.714,295.529,222.571,289.401z M210.55,323.601c-6.126,6.125-16.057,6.124-22.181-0.002
			c-6.125-6.126-6.124-16.057,0.002-22.181c2.917-2.931,6.886-4.572,11.021-4.558c4.193-0.128,8.24,1.55,11.113,4.608
			c2.942,2.929,4.6,6.906,4.608,11.057C215.121,316.675,213.48,320.66,210.55,323.601L210.55,323.601z"/>
		<path d="M506.979,85.551c6.659-6.667,6.659-17.467,0-24.133L450.554,4.993c-6.67-6.65-17.463-6.65-24.133,0l-73.329,73.329
			l-2.529-2.529c-8.06-8.038-21.102-8.045-29.171-0.017L141.989,255.179l-0.043,0.039L12.475,384.684
			c-16.633,16.675-16.633,43.667,0,60.342l54.467,54.467c16.675,16.633,43.667,16.633,60.342,0l129.471-129.467l0.078-0.086
			l179.363-179.363c8.033-8.066,8.025-21.111-0.017-29.167l-2.529-2.529L506.979,85.551z M115.217,487.426
			c-10.005,9.983-26.203,9.983-36.208,0l-54.467-54.467c-9.979-10.007-9.979-26.202,0-36.208L145.57,275.727l0.013-0.009
			l8.472-8.472c25.041-24.96,65.562-24.936,90.574,0.053s25.073,65.51,0.136,90.574l-8.511,8.511l-0.016,0.024L115.217,487.426z
			 M424.129,178.509L279.757,322.881c3.237-24.9-5.27-49.891-23.026-67.645s-42.748-26.258-67.648-23.018L333.459,87.842
			c0.67-0.666,1.577-1.038,2.522-1.035c0.945,0.003,1.85,0.382,2.515,1.052l8.542,8.542l0.017,0.025l68.492,68.492l0.025,0.017
			l8.533,8.533C425.503,174.854,425.514,177.11,424.129,178.509z M365.158,90.389l39.171-39.171l11.092,11.092
			c3.332,3.332,8.735,3.332,12.067,0c3.332-3.332,3.332-8.735,0-12.067l-11.092-11.092l22.092-22.092l56.425,56.425l-22.092,22.092
			l-11.092-11.092c-3.332-3.332-8.734-3.332-12.067,0c-3.332,3.332-3.332,8.735,0,12.067l11.092,11.092l-39.171,39.171
			L365.158,90.389z"/>
	</g>
</g>
<g>
</g>
<g>
</g>
<g>
</g>
<g>
</g>
<g>
</g>
<g>
</g>
<g>
</g>
<g>
</g>
<g>
</g>
<g>
</g>
<g>
</g>
<g>
</g>
<g>
</g>
<g>
</g>
<g>
</g>
</svg>
