<?xml version="1.0" encoding="iso-8859-1"?>
<!-- Generator: Adobe Illustrator 19.0.0, SVG Export Plug-In . SVG Version: 6.00 Build 0)  -->
<svg version="1.1" id="Capa_1" xmlns="http://www.w3.org/2000/svg" xmlns:xlink="http://www.w3.org/1999/xlink" x="0px" y="0px"
	 viewBox="0 0 512 512" style="enable-background:new 0 0 512 512;" xml:space="preserve">
<g>
	<g transform="translate(1 1)">
		<path style="fill:#607D8B;" d="M101.4,84.333V152.6H67.267c-4.707-0.014-8.519-3.826-8.533-8.533V75.8h34.133
			C97.574,75.814,101.386,79.626,101.4,84.333z"/>
		<path style="fill:#00695C;" d="M425.667,186.733v25.6c0.014,4.707,3.826,8.519,8.533,8.533h8.533
			c4.707,0.014,8.519,3.826,8.533,8.533v256c-0.028,9.414-7.652,17.039-17.067,17.067H75.8c-9.414-0.028-17.039-7.653-17.067-17.067
			v-256c-0.017-1.704,0.489-3.372,1.451-4.779c1.612-2.326,4.253-3.726,7.083-3.755h17.067c4.707-0.014,8.519-3.826,8.533-8.533
			V92.867c-0.014-4.707-3.826-8.519-8.533-8.533h-25.6V24.6C58.761,15.186,66.386,7.561,75.8,7.533H383L451.267,75.8v93.867
			c-0.014,4.707-3.826,8.519-8.533,8.533H434.2C429.493,178.214,425.681,182.026,425.667,186.733z"/>
		<path style="fill:#009688;" d="M400.067,186.733v25.6c0.014,4.707,3.826,8.519,8.533,8.533h8.533
			c4.707,0.014,8.519,3.826,8.533,8.533v256c-0.028,9.414-7.652,17.039-17.067,17.067H75.8c-9.414-0.028-17.039-7.653-17.067-17.067
			v-256c-0.017-1.704,0.489-3.372,1.451-4.779c1.612-2.326,4.253-3.726,7.083-3.755h17.067c4.707-0.014,8.519-3.826,8.533-8.533
			V92.867c-0.014-4.707-3.826-8.519-8.533-8.533h-25.6V24.6C58.761,15.186,66.386,7.561,75.8,7.533h281.6L425.667,75.8v93.867
			c-0.014,4.707-3.826,8.519-8.533,8.533H408.6C403.893,178.214,400.081,182.026,400.067,186.733z"/>
		<path style="fill:#607D8B;" d="M383,75.8v42.667H127l0-42.667c-0.009-6.792,2.685-13.309,7.488-18.112
			c4.803-4.803,11.32-7.497,18.112-7.488h204.8c6.792-0.009,13.309,2.685,18.112,7.488C380.315,62.491,383.009,69.008,383,75.8z"/>
		<path style="fill:#CFD8DC;" d="M357.4,75.8v42.667H127l0-42.667c-0.009-6.792,2.685-13.309,7.488-18.112
			c4.803-4.803,11.32-7.497,18.112-7.488h179.2c6.792-0.009,13.309,2.685,18.112,7.488C354.715,62.491,357.409,69.008,357.4,75.8z"
			/>
		<path style="fill:#2E7D32;" d="M383,118.467V408.6c0.009,6.792-2.685,13.309-7.488,18.112c-4.803,4.803-11.32,7.497-18.112,7.488
			H152.6c-6.792,0.009-13.309-2.685-18.112-7.488c-4.803-4.803-7.497-11.32-7.488-18.112l0-290.133H383z"/>
		<path style="fill:#4CAF50;" d="M357.4,118.467V408.6c0.009,6.792-2.685,13.309-7.488,18.112
			c-4.803,4.803-11.32,7.497-18.112,7.488H152.6c-6.792,0.009-13.309-2.685-18.112-7.488c-4.803-4.803-7.497-11.32-7.488-18.112
			l0-290.133H357.4z"/>
		<g>
			<path style="fill:#CFD8DC;" d="M178.2,340.333h153.6c9.426,0,17.067,7.641,17.067,17.067V383c0,9.426-7.641,17.067-17.067,17.067
				H178.2c-9.426,0-17.067-7.641-17.067-17.067v-25.6C161.133,347.974,168.774,340.333,178.2,340.333z"/>
			<rect x="169.667" y="186.733" style="fill:#CFD8DC;" width="51.2" height="34.133"/>
		</g>
	</g>
	<g>
		<path d="M68.267,213.333c-9.421,0.011-17.056,7.645-17.067,17.067v256c0.015,14.132,11.468,25.585,25.6,25.6h358.4
			c14.132-0.015,25.585-11.468,25.6-25.6v-256c-0.011-9.421-7.645-17.056-17.067-17.067H435.2v-25.6h8.533
			c9.421-0.011,17.056-7.645,17.067-17.067V76.8c0-2.263-0.899-4.434-2.5-6.033L390.033,2.5c-1.6-1.6-3.77-2.5-6.033-2.5H76.8
			C62.668,0.015,51.215,11.468,51.2,25.6v119.467c0.011,9.421,7.645,17.056,17.067,17.067h17.067v51.2H68.267z M68.267,25.6
			c0.005-4.711,3.822-8.529,8.533-8.533h303.667l63.267,63.267v90.333H435.2c-9.421,0.011-17.056,7.645-17.067,17.067v25.6
			c0.011,9.421,7.645,17.056,17.067,17.067h8.533v256c-0.005,4.711-3.822,8.529-8.533,8.533H76.8
			c-4.711-0.005-8.529-3.822-8.533-8.533v-256h17.067c9.421-0.011,17.056-7.645,17.067-17.067V93.867
			c-0.011-9.421-7.645-17.056-17.067-17.067H68.267V25.6z M68.267,145.067v-51.2h17.067v51.2H68.267z"/>
		<path d="M153.6,443.733h204.8c18.843-0.02,34.113-15.29,34.133-34.133V76.8c-0.02-18.843-15.29-34.113-34.133-34.133H153.6
			c-18.843,0.02-34.113,15.29-34.133,34.133v332.8C119.487,428.443,134.757,443.713,153.6,443.733z M358.4,426.667H153.6
			c-9.421-0.011-17.056-7.645-17.067-17.067V128h238.933v281.6C375.456,419.021,367.821,426.656,358.4,426.667z M153.6,59.733h204.8
			c9.421,0.011,17.056,7.645,17.067,17.067v34.133H136.533V76.8C136.544,67.379,144.179,59.744,153.6,59.733z"/>
		<path d="M332.8,332.8H179.2c-14.132,0.015-25.585,11.468-25.6,25.6V384c0.015,14.132,11.468,25.585,25.6,25.6h153.6
			c14.132-0.015,25.585-11.468,25.6-25.6v-25.6C358.385,344.268,346.932,332.815,332.8,332.8z M341.333,384
			c-0.005,4.711-3.822,8.529-8.533,8.533H179.2c-4.711-0.005-8.529-3.822-8.533-8.533v-25.6c0.005-4.711,3.822-8.529,8.533-8.533
			h153.6c4.711,0.005,8.529,3.822,8.533,8.533V384z"/>
		<path d="M349.867,460.8H162.133c-4.713,0-8.533,3.821-8.533,8.533c0,4.713,3.821,8.533,8.533,8.533h187.733
			c4.713,0,8.533-3.821,8.533-8.533C358.4,464.621,354.579,460.8,349.867,460.8z"/>
		<path d="M162.133,93.867h85.333c4.713,0,8.533-3.821,8.533-8.533s-3.82-8.533-8.533-8.533h-85.333
			c-4.713,0-8.533,3.821-8.533,8.533S157.421,93.867,162.133,93.867z"/>
		<path d="M281.6,93.867h25.6c4.713,0,8.533-3.821,8.533-8.533s-3.82-8.533-8.533-8.533h-25.6c-4.713,0-8.533,3.821-8.533,8.533
			S276.887,93.867,281.6,93.867z"/>
		<path d="M341.333,93.867h8.533c4.713,0,8.533-3.821,8.533-8.533s-3.821-8.533-8.533-8.533h-8.533
			c-4.713,0-8.533,3.821-8.533,8.533S336.621,93.867,341.333,93.867z"/>
		<path d="M170.667,230.4h51.2c2.263,0.001,4.434-0.898,6.035-2.499c1.6-1.6,2.499-3.771,2.499-6.035v-34.133
			c0.001-2.263-0.898-4.434-2.499-6.035c-1.6-1.6-3.771-2.499-6.035-2.499v-8.533c0-14.138-11.462-25.6-25.6-25.6
			s-25.6,11.462-25.6,25.6v8.533c-2.263-0.001-4.434,0.898-6.035,2.499c-1.6,1.6-2.499,3.771-2.499,6.035v34.133
			c-0.001,2.263,0.898,4.434,2.499,6.035C166.232,229.502,168.403,230.401,170.667,230.4z M213.333,213.333H179.2v-17.067h34.133
			V213.333z M187.733,170.667c0-4.713,3.821-8.533,8.533-8.533s8.533,3.821,8.533,8.533v8.533h-17.067V170.667z"/>
	</g>
</g>
<g>
</g>
<g>
</g>
<g>
</g>
<g>
</g>
<g>
</g>
<g>
</g>
<g>
</g>
<g>
</g>
<g>
</g>
<g>
</g>
<g>
</g>
<g>
</g>
<g>
</g>
<g>
</g>
<g>
</g>
</svg>
