<?xml version="1.0" encoding="iso-8859-1"?>
<!-- Generator: Adobe Illustrator 19.0.0, SVG Export Plug-In . SVG Version: 6.00 Build 0)  -->
<svg version="1.1" id="Capa_1" xmlns="http://www.w3.org/2000/svg" xmlns:xlink="http://www.w3.org/1999/xlink" x="0px" y="0px"
	 viewBox="0 0 512 512" style="enable-background:new 0 0 512 512;" xml:space="preserve">
<g>
	<g transform="translate(1 1)">
		<path style="fill:#C52828;" d="M229.4,169.667V408.6c-0.014,4.707-3.826,8.519-8.533,8.533h-59.733V459.8
			c-0.014,4.707-3.826,8.519-8.533,8.533h-17.067v25.6c-0.014,4.707-3.826,8.519-8.533,8.533h-17.067
			c-1.505-0.001-2.98-0.415-4.267-1.195c-2.645-1.494-4.277-4.301-4.267-7.339v-25.6H84.333c-4.707-0.014-8.519-3.826-8.533-8.533
			v-42.667H16.067c-4.707-0.014-8.519-3.826-8.533-8.533V169.667c0.014-4.707,3.826-8.519,8.533-8.533h204.8
			C225.574,161.147,229.386,164.96,229.4,169.667z"/>
		<g>
			<path style="fill:#F44335;" d="M203.8,169.667V408.6c-0.014,4.707-3.826,8.519-8.533,8.533h-59.733V459.8
				c-0.014,4.707-3.826,8.519-8.533,8.533h-17.067v25.6c0.01,3.038-1.621,5.845-4.267,7.339c-2.645-1.494-4.277-4.301-4.267-7.339
				v-25.6H84.333c-4.707-0.014-8.519-3.826-8.533-8.533v-42.667H16.067c-4.707-0.014-8.519-3.826-8.533-8.533V169.667
				c0.014-4.707,3.826-8.519,8.533-8.533h179.2C199.974,161.147,203.786,164.96,203.8,169.667z"/>
			<path style="fill:#F44335;" d="M101.4,468.333h34.133v25.6c0,4.713-3.821,8.533-8.533,8.533h-17.067
				c-4.713,0-8.533-3.821-8.533-8.533V468.333z"/>
		</g>
		<path style="fill:#C52828;" d="M161.133,417.133V459.8c-0.014,4.707-3.826,8.519-8.533,8.533H127
			c4.707-0.014,8.519-3.826,8.533-8.533v-42.667H161.133z"/>
		<path style="fill:#F44335;" d="M135.533,417.133V459.8c-0.014,4.707-3.826,8.519-8.533,8.533H84.333
			c-4.707-0.014-8.519-3.826-8.533-8.533v-42.667H135.533z"/>
		<path style="fill:#607D8B;" d="M203.8,24.6v136.533H33.133V24.6C33.161,15.186,40.786,7.561,50.2,7.533h136.533
			C196.148,7.561,203.773,15.186,203.8,24.6z"/>
		<path style="fill:#CFD8DC;" d="M178.2,24.6v136.533H33.133V24.6C33.161,15.186,40.786,7.561,50.2,7.533h110.933
			C170.548,7.561,178.173,15.186,178.2,24.6z"/>
		<path style="fill:#FFEB3A;" d="M158.56,323.267h-30.514c-4.116,0-7.646,2.939-8.392,6.987l-8.433,45.76
			c-0.746,4.048-4.276,6.987-8.392,6.987H77.34c-2.508,0-4.89-1.104-6.511-3.018c-1.621-1.914-2.318-4.444-1.906-6.919
			l14.222-85.333c0.686-4.115,4.246-7.131,8.417-7.13h22.494c4.17,0,7.73-3.014,8.417-7.128l13.061-78.206l31.271,117.268
			c0.683,2.562,0.137,5.295-1.478,7.398C163.711,322.034,161.211,323.267,158.56,323.267z"/>
		<path style="fill:#C52828;" d="M502.467,169.667V408.6c-0.014,4.707-3.826,8.519-8.533,8.533H434.2V459.8
			c-0.014,4.707-3.826,8.519-8.533,8.533H408.6v25.6c-0.014,4.707-3.826,8.519-8.533,8.533H383c-1.505-0.001-2.98-0.415-4.267-1.195
			c-2.645-1.494-4.277-4.301-4.267-7.339v-25.6H357.4c-4.707-0.014-8.519-3.826-8.533-8.533v-42.667h-59.733
			c-4.707-0.014-8.519-3.826-8.533-8.533V169.667c0.014-4.707,3.826-8.519,8.533-8.533h204.8
			C498.64,161.147,502.453,164.96,502.467,169.667z"/>
		<g>
			<path style="fill:#F44335;" d="M476.867,169.667V408.6c-0.014,4.707-3.826,8.519-8.533,8.533H408.6V459.8
				c-0.014,4.707-3.826,8.519-8.533,8.533H383v25.6c0.01,3.038-1.621,5.845-4.267,7.339c-2.645-1.494-4.277-4.301-4.267-7.339v-25.6
				H357.4c-4.707-0.014-8.519-3.826-8.533-8.533v-42.667h-59.733c-4.707-0.014-8.519-3.826-8.533-8.533V169.667
				c0.014-4.707,3.826-8.519,8.533-8.533h179.2C473.04,161.147,476.853,164.96,476.867,169.667z"/>
			<path style="fill:#F44335;" d="M374.467,468.333H408.6v25.6c0,4.713-3.821,8.533-8.533,8.533H383
				c-4.713,0-8.533-3.821-8.533-8.533V468.333z"/>
		</g>
		<path style="fill:#C52828;" d="M434.2,417.133V459.8c-0.014,4.707-3.826,8.519-8.533,8.533h-25.6
			c4.707-0.014,8.519-3.826,8.533-8.533v-42.667H434.2z"/>
		<path style="fill:#F44335;" d="M408.6,417.133V459.8c-0.014,4.707-3.826,8.519-8.533,8.533H357.4
			c-4.707-0.014-8.519-3.826-8.533-8.533v-42.667H408.6z"/>
		<path style="fill:#607D8B;" d="M476.867,24.6v136.533H306.2V24.6c0.027-9.414,7.652-17.039,17.067-17.067H459.8
			C469.214,7.561,476.839,15.186,476.867,24.6z"/>
		<path style="fill:#CFD8DC;" d="M451.267,24.6v136.533H306.2V24.6c0.027-9.414,7.652-17.039,17.067-17.067H434.2
			C443.614,7.561,451.239,15.186,451.267,24.6z"/>
		<path style="fill:#FFEB3A;" d="M431.626,323.267h-30.514c-4.116,0-7.646,2.939-8.392,6.987l-8.433,45.76
			c-0.746,4.048-4.276,6.987-8.392,6.987h-25.489c-2.508,0-4.89-1.104-6.511-3.018c-1.621-1.914-2.318-4.444-1.906-6.919
			l14.222-85.333c0.686-4.115,4.246-7.131,8.417-7.13h22.494c4.17,0,7.73-3.014,8.417-7.128l13.061-78.206l31.271,117.268
			c0.683,2.562,0.137,5.295-1.478,7.398C436.778,322.034,434.277,323.267,431.626,323.267z"/>
	</g>
	<g>
		<path d="M494.933,153.6H486.4v-128C486.385,11.468,474.932,0.015,460.8,0H324.267c-14.132,0.015-25.585,11.468-25.6,25.6v128
			h-8.533c-9.421,0.011-17.056,7.645-17.067,17.067V409.6c0.011,9.421,7.645,17.056,17.067,17.067h51.2V460.8
			c0.011,9.421,7.645,17.056,17.067,17.067h8.533v17.067c0.011,9.421,7.645,17.056,17.067,17.067h17.067
			c9.421-0.011,17.056-7.645,17.067-17.067v-17.067h8.533c9.421-0.011,17.056-7.645,17.067-17.067v-34.133h51.2
			c9.421-0.011,17.056-7.645,17.067-17.067V170.667C511.989,161.245,504.355,153.611,494.933,153.6z M315.733,25.6
			c0.005-4.711,3.822-8.529,8.533-8.533H460.8c4.711,0.005,8.529,3.822,8.533,8.533v128h-153.6V25.6z M401.079,494.933H384v-17.067
			h17.071L401.079,494.933z M426.679,460.8H358.4v-34.133h68.271L426.679,460.8z M435.2,409.6H290.133V170.667h204.8l0.012,238.933
			H435.2z"/>
		<path d="M417.846,194.067c-1.065-3.861-4.648-6.481-8.65-6.325c-4.013,0.191-7.349,3.154-8.013,7.117l-13.058,78.208h-22.496
			c-8.354-0.025-15.488,6.022-16.833,14.267l-14.225,85.333c-0.824,4.948,0.571,10.009,3.814,13.836s8.007,6.033,13.023,6.031
			h25.488c8.231,0.002,15.29-5.873,16.783-13.967l8.433-45.767h30.512c5.303-0.001,10.304-2.466,13.534-6.671
			c3.23-4.205,4.323-9.672,2.958-14.796L417.846,194.067z M402.113,315.733c-8.231-0.002-15.29,5.873-16.783,13.967l-8.433,45.767
			h-25.492l14.225-85.333h22.496c8.347,0.021,15.476-6.014,16.833-14.25l6.563-39.317l21.129,79.167H402.113z"/>
		<path d="M17.067,426.667h51.2V460.8c0.011,9.421,7.645,17.056,17.067,17.067h8.533v17.067c0.011,9.421,7.645,17.056,17.067,17.067
			H128c9.421-0.011,17.056-7.645,17.067-17.067v-17.067h8.533c9.421-0.011,17.056-7.645,17.067-17.067v-34.133h51.2
			c9.421-0.011,17.056-7.645,17.067-17.067V170.667c-0.011-9.421-7.645-17.056-17.067-17.067h-8.533v-128
			c-0.015-14.132-11.468-25.585-25.6-25.6H51.2C37.068,0.015,25.615,11.468,25.6,25.6v128h-8.533
			C7.645,153.611,0.011,161.245,0,170.667V409.6C0.011,419.021,7.645,426.656,17.067,426.667z M128.012,494.933h-17.079v-17.067
			h17.071L128.012,494.933z M153.612,460.8H85.333v-34.133h68.271L153.612,460.8z M42.667,25.6c0.005-4.711,3.822-8.529,8.533-8.533
			h136.533c4.711,0.005,8.529,3.822,8.533,8.533v128h-153.6V25.6z M17.067,170.667h204.8l0.012,238.933H17.067V170.667z"/>
		<path d="M103.829,392.533c8.231,0.002,15.29-5.873,16.783-13.967l8.433-45.767h30.512c5.303-0.001,10.304-2.466,13.534-6.671
			c3.23-4.205,4.323-9.672,2.958-14.796l-31.271-117.267c-1.035-3.882-4.638-6.516-8.651-6.325
			c-4.013,0.191-7.349,3.154-8.012,7.117l-13.058,78.208H92.563c-8.354-0.025-15.488,6.022-16.833,14.267l-14.225,85.333
			c-0.824,4.948,0.571,10.009,3.814,13.836s8.007,6.033,13.023,6.031H103.829z M92.563,290.133h22.496
			c8.347,0.021,15.476-6.014,16.833-14.25l6.563-39.317l21.129,79.167h-30.537c-8.231-0.002-15.29,5.873-16.783,13.967
			l-8.433,45.767H78.338L92.563,290.133z"/>
	</g>
</g>
<g>
</g>
<g>
</g>
<g>
</g>
<g>
</g>
<g>
</g>
<g>
</g>
<g>
</g>
<g>
</g>
<g>
</g>
<g>
</g>
<g>
</g>
<g>
</g>
<g>
</g>
<g>
</g>
<g>
</g>
</svg>
