<?xml version="1.0" encoding="iso-8859-1"?>
<!-- Generator: Adobe Illustrator 19.0.0, SVG Export Plug-In . SVG Version: 6.00 Build 0)  -->
<svg version="1.1" id="Capa_1" xmlns="http://www.w3.org/2000/svg" xmlns:xlink="http://www.w3.org/1999/xlink" x="0px" y="0px"
	 viewBox="0 0 512 512" style="enable-background:new 0 0 512 512;" xml:space="preserve">
<g>
	<g transform="translate(1 1)">
		<g>
			<path style="fill:#607D8B;" d="M306.2,7.533h170.667c4.713,0,8.533,3.821,8.533,8.533v179.2c0,4.713-3.82,8.533-8.533,8.533
				H306.2c-4.713,0-8.533-3.821-8.533-8.533v-179.2C297.667,11.354,301.487,7.533,306.2,7.533z"/>
			<path style="fill:#607D8B;" d="M186.733,41.667v128H16.067l0-128c-0.003-9.054,3.593-17.737,9.995-24.139
				S41.146,7.531,50.2,7.533h102.4c9.053-0.003,17.737,3.593,24.139,9.995S186.736,32.613,186.733,41.667z"/>
		</g>
		<g>
			<path style="fill:#CFD8DC;" d="M306.2,7.533h145.067c4.713,0,8.533,3.821,8.533,8.533v179.2c0,4.713-3.82,8.533-8.533,8.533
				H306.2c-4.713,0-8.533-3.821-8.533-8.533v-179.2C297.667,11.354,301.487,7.533,306.2,7.533z"/>
			<path style="fill:#CFD8DC;" d="M161.133,41.667v128H16.067l0-128c-0.003-9.054,3.593-17.737,9.995-24.139
				S41.146,7.531,50.2,7.533H127c9.054-0.003,17.737,3.593,24.139,9.995C157.541,23.93,161.136,32.613,161.133,41.667z"/>
		</g>
		<g>
			<path style="fill:#FF9801;" d="M340.333,58.733h25.6c4.713,0,8.533,3.821,8.533,8.533v17.067c0,4.713-3.82,8.533-8.533,8.533
				h-25.6c-4.713,0-8.533-3.82-8.533-8.533V67.267C331.8,62.554,335.621,58.733,340.333,58.733z"/>
			<path style="fill:#FF9801;" d="M417.133,58.733h25.6c4.713,0,8.533,3.821,8.533,8.533v17.067c0,4.713-3.821,8.533-8.533,8.533
				h-25.6c-4.713,0-8.533-3.82-8.533-8.533V67.267C408.6,62.554,412.421,58.733,417.133,58.733z"/>
		</g>
		<path style="fill:#FEC108;" d="M84.333,41.667v51.2H67.267C57.853,92.839,50.228,85.214,50.2,75.8V58.733
			c0.028-9.414,7.652-17.039,17.067-17.067H84.333z"/>
		<rect x="84.333" y="41.667" style="fill:#FFEB3A;" width="34.133" height="51.2"/>
		<path style="fill:#FEC108;" d="M152.6,58.733V75.8c-0.028,9.414-7.653,17.039-17.067,17.067h-17.067v-51.2h17.067
			C144.948,41.694,152.572,49.319,152.6,58.733z"/>
		<path style="fill:#2E7D32;" d="M502.467,195.267v204.8c-0.014,4.707-3.826,8.519-8.533,8.533H434.2v51.2
			c-0.014,4.707-3.826,8.519-8.533,8.533H408.6v25.6c-0.014,4.707-3.826,8.519-8.533,8.533H383c-1.505-0.001-2.98-0.415-4.267-1.195
			c-2.645-1.494-4.277-4.301-4.267-7.339v-25.6H357.4c-4.707-0.014-8.519-3.826-8.533-8.533v-51.2h-59.733
			c-4.707-0.014-8.519-3.826-8.533-8.533v-204.8c0.014-4.707,3.826-8.519,8.533-8.533h204.8
			C498.64,186.747,502.453,190.56,502.467,195.267z"/>
		<path style="fill:#4CAF50;" d="M476.867,195.267v204.8c-0.014,4.707-3.826,8.519-8.533,8.533H408.6v51.2
			c-0.014,4.707-3.826,8.519-8.533,8.533H383v25.6c0.01,3.038-1.621,5.845-4.267,7.339c-2.645-1.494-4.277-4.301-4.267-7.339v-25.6
			H357.4c-4.707-0.014-8.519-3.826-8.533-8.533v-51.2h-59.733c-4.707-0.014-8.519-3.826-8.533-8.533v-204.8
			c0.014-4.707,3.826-8.519,8.533-8.533h179.2C473.04,186.747,476.853,190.56,476.867,195.267z"/>
		<path style="fill:#2E7D32;" d="M195.267,178.2v221.867c-0.014,4.707-3.826,8.519-8.533,8.533h-42.667v51.2
			c-0.014,4.707-3.826,8.519-8.533,8.533h-17.067v25.6c-0.014,4.707-3.826,8.519-8.533,8.533H92.867
			c-1.505-0.001-2.98-0.415-4.267-1.195c-2.645-1.494-4.277-4.301-4.267-7.339v-25.6H67.267c-4.707-0.014-8.519-3.826-8.533-8.533
			v-51.2H16.067c-4.707-0.014-8.519-3.826-8.533-8.533V178.2c0.014-4.707,3.826-8.519,8.533-8.533h170.667
			C191.44,169.681,195.253,173.493,195.267,178.2z"/>
		<path style="fill:#4CAF50;" d="M169.667,178.2v221.867c-0.014,4.707-3.826,8.519-8.533,8.533h-42.667v51.2
			c-0.014,4.707-3.826,8.519-8.533,8.533H92.867v25.6c0.01,3.038-1.621,5.845-4.267,7.339c-2.645-1.494-4.277-4.301-4.267-7.339
			v-25.6H67.267c-4.707-0.014-8.519-3.826-8.533-8.533v-51.2H16.067c-4.707-0.014-8.519-3.826-8.533-8.533V178.2
			c0.014-4.707,3.826-8.519,8.533-8.533h145.067C165.84,169.681,169.653,173.493,169.667,178.2z"/>
		<path style="fill:#2E7D32;" d="M144.067,408.6v51.2c-0.014,4.707-3.826,8.519-8.533,8.533h-25.6
			c4.707-0.014,8.519-3.826,8.533-8.533v-51.2H144.067z"/>
		<g>
			<path style="fill:#4CAF50;" d="M118.467,408.6v51.2c-0.014,4.707-3.826,8.519-8.533,8.533H67.267
				c-4.707-0.014-8.519-3.826-8.533-8.533v-51.2H118.467z"/>
			<path style="fill:#4CAF50;" d="M84.333,468.333h34.133v25.6c0,4.713-3.821,8.533-8.533,8.533H92.867
				c-4.713,0-8.533-3.821-8.533-8.533V468.333z"/>
		</g>
		<path style="fill:#2E7D32;" d="M434.2,408.6v51.2c-0.014,4.707-3.826,8.519-8.533,8.533h-25.6
			c4.707-0.014,8.519-3.826,8.533-8.533v-51.2H434.2z"/>
		<g>
			<path style="fill:#4CAF50;" d="M408.6,408.6v51.2c-0.014,4.707-3.826,8.519-8.533,8.533H357.4
				c-4.707-0.014-8.519-3.826-8.533-8.533v-51.2H408.6z"/>
			<path style="fill:#4CAF50;" d="M374.467,468.333H408.6v25.6c0,4.713-3.821,8.533-8.533,8.533H383
				c-4.713,0-8.533-3.821-8.533-8.533V468.333z"/>
		</g>
		<circle style="fill:#FFFFFF;" cx="391.533" cy="357.4" r="17.067"/>
	</g>
	<g>
		<path d="M512,401.067v-204.8c-0.011-9.421-7.645-17.056-17.067-17.067V17.067C494.923,7.645,487.288,0.011,477.867,0H307.2
			c-9.421,0.011-17.056,7.645-17.067,17.067V179.2c-9.421,0.011-17.056,7.645-17.067,17.067v204.8
			c0.011,9.421,7.645,17.056,17.067,17.067h51.2V460.8c0.011,9.421,7.645,17.056,17.067,17.067h8.533v17.067
			c0.011,9.421,7.645,17.056,17.067,17.067h17.067c9.421-0.011,17.056-7.645,17.067-17.067v-17.067h8.533
			c9.421-0.011,17.056-7.645,17.067-17.067v-42.667h51.2C504.355,418.123,511.989,410.488,512,401.067z M307.2,17.067h170.667
			l0.012,162.133H307.2V17.067z M290.133,196.267h204.8l0.012,204.8H290.133V196.267z M401.079,494.933H384v-17.067h17.071
			L401.079,494.933z M426.679,460.8H358.4v-42.667h68.267L426.679,460.8z"/>
		<path d="M17.067,418.133H51.2V460.8c0.011,9.421,7.645,17.056,17.067,17.067H76.8v17.067c0.011,9.421,7.645,17.056,17.067,17.067
			h17.067c9.421-0.011,17.056-7.645,17.067-17.067v-17.067h8.533c9.421-0.011,17.056-7.645,17.067-17.067v-42.667h34.133
			c9.421-0.011,17.056-7.645,17.067-17.067V179.2c-0.02-6.069-3.272-11.668-8.533-14.693V42.667
			C196.239,19.114,177.153,0.028,153.6,0H51.2C27.647,0.028,8.561,19.114,8.533,42.667v121.841C3.272,167.532,0.02,173.131,0,179.2
			v221.867C0.011,410.488,7.645,418.123,17.067,418.133z M110.946,494.933H93.867v-17.067h17.071L110.946,494.933z M136.546,460.8
			H68.267v-42.667h68.267L136.546,460.8z M145.067,401.067h-128V179.2h170.667l0.012,221.867H145.067z M25.6,42.667
			c0.015-14.132,11.468-25.585,25.6-25.6h102.4c14.132,0.015,25.585,11.468,25.6,25.6v119.467H25.6V42.667z"/>
		<path d="M366.933,51.2h-25.6c-9.421,0.011-17.056,7.645-17.067,17.067v17.067c0.011,9.421,7.645,17.056,17.067,17.067h25.6
			c9.421-0.011,17.056-7.645,17.067-17.067V68.267C383.989,58.845,376.355,51.211,366.933,51.2z M341.333,85.333V68.267h25.6
			l0.012,17.067H341.333z"/>
		<path d="M443.733,51.2h-25.6c-9.421,0.011-17.056,7.645-17.067,17.067v17.067c0.011,9.421,7.645,17.056,17.067,17.067h25.6
			c9.421-0.011,17.056-7.645,17.067-17.067V68.267C460.789,58.845,453.155,51.211,443.733,51.2z M418.133,85.333V68.267h25.6
			l0.012,17.067H418.133z"/>
		<path d="M384,323.632v10.741c-11.755,4.156-18.806,16.176-16.698,28.465c2.108,12.289,12.763,21.271,25.231,21.271
			s23.123-8.982,25.231-21.271c2.108-12.289-4.943-24.309-16.698-28.465v-27.807c26.857-2.495,48.154-23.717,50.744-50.565h0.456
			c4.713,0,8.533-3.82,8.533-8.533c0-4.713-3.82-8.533-8.533-8.533H435.2c-4.578-0.03-8.353,3.578-8.528,8.153
			c-0.176,4.574,3.312,8.462,7.878,8.783c-2.28,17.439-16.036,31.146-33.483,33.363v-46.765l2.5,2.5
			c2.151,2.178,5.304,3.037,8.262,2.251c2.958-0.786,5.269-3.097,6.055-6.055c0.786-2.958-0.073-6.111-2.251-8.262l-17.067-17.067
			c-0.077-0.077-0.181-0.099-0.26-0.173c-0.727-0.706-1.576-1.274-2.506-1.677l-0.03-0.008c-0.069-0.028-0.143-0.028-0.212-0.054
			c-0.877-0.33-1.804-0.51-2.741-0.533c-0.259-0.009-0.504,0.023-0.762,0.038c-0.762,0.042-1.515,0.188-2.237,0.435
			c-0.258,0.087-0.506,0.159-0.757,0.271c-0.95,0.405-1.817,0.982-2.559,1.7L369.433,232.9c-3.303,3.337-3.29,8.716,0.031,12.036
			c3.32,3.32,8.699,3.334,12.036,0.03l2.5-2.5v63.769c-20.622-2.676-35.586-20.958-34.133-41.702c0-4.713-3.821-8.533-8.533-8.533
			s-8.533,3.821-8.533,8.533C331.265,294.773,353.851,320.842,384,323.632z M392.533,366.933c-4.713,0-8.533-3.82-8.533-8.533
			s3.82-8.533,8.533-8.533s8.533,3.82,8.533,8.533C401.062,363.111,397.244,366.929,392.533,366.933z"/>
		<path d="M136.533,34.133H68.267c-14.132,0.015-25.585,11.468-25.6,25.6V76.8c0.015,14.132,11.468,25.585,25.6,25.6h68.267
			c14.132-0.015,25.585-11.468,25.6-25.6V59.733C162.118,45.601,150.665,34.149,136.533,34.133z M110.933,51.2v34.133H93.867V51.2
			H110.933z M59.733,76.8V59.733c0.005-4.711,3.822-8.529,8.533-8.533H76.8v34.133h-8.533C63.556,85.329,59.738,81.511,59.733,76.8z
			 M145.067,76.8c-0.005,4.711-3.822,8.529-8.533,8.533H128V51.2h8.533c4.711,0.005,8.529,3.822,8.533,8.533V76.8z"/>
	</g>
</g>
<g>
</g>
<g>
</g>
<g>
</g>
<g>
</g>
<g>
</g>
<g>
</g>
<g>
</g>
<g>
</g>
<g>
</g>
<g>
</g>
<g>
</g>
<g>
</g>
<g>
</g>
<g>
</g>
<g>
</g>
</svg>
