<?xml version="1.0" encoding="iso-8859-1"?>
<!-- Generator: Adobe Illustrator 19.0.0, SVG Export Plug-In . SVG Version: 6.00 Build 0)  -->
<svg version="1.1" id="Capa_1" xmlns="http://www.w3.org/2000/svg" xmlns:xlink="http://www.w3.org/1999/xlink" x="0px" y="0px"
	 viewBox="0 0 512 512" style="enable-background:new 0 0 512 512;" xml:space="preserve">
<g>
	<g transform="translate(1 1)">
		<path style="fill:#00695C;" d="M59.075,7.533h391.851c28.277,0,51.2,22.923,51.2,51.2v392.533c0,28.277-22.923,51.2-51.2,51.2
			H59.075c-28.277,0-51.2-22.923-51.2-51.2V58.733C7.875,30.456,30.798,7.533,59.075,7.533z"/>
		<path style="fill:#009688;" d="M59.075,7.533h366.592c28.277,0,51.2,22.923,51.2,51.2v392.533c0,28.277-22.923,51.2-51.2,51.2
			H59.075c-28.277,0-51.2-22.923-51.2-51.2V58.733C7.875,30.456,30.798,7.533,59.075,7.533z"/>
		<path style="fill:#607D8B;" d="M442.733,135.533v199.253c0.012,3.589-1.124,7.087-3.243,9.984l-40.959,56.747
			c-3.235,4.452-8.407,7.086-13.91,7.083H125.379c-5.504,0.003-10.676-2.63-13.91-7.083l-40.959-56.747
			c-2.118-2.897-3.255-6.395-3.243-9.984V135.533c-0.002-9.053,3.593-17.737,9.995-24.139c6.402-6.402,15.085-9.997,24.139-9.995
			h307.2c9.053-0.002,17.737,3.593,24.139,9.995C439.14,117.796,442.736,126.48,442.733,135.533z"/>
		<path style="fill:#CFD8DC;" d="M417.133,135.533v199.253c0.012,3.589-1.124,7.087-3.243,9.984l-40.959,56.747
			c-3.235,4.452-8.407,7.086-13.91,7.083H125.379c-5.504,0.003-10.676-2.63-13.91-7.083l-40.959-56.747
			c-2.118-2.897-3.255-6.395-3.243-9.984V135.533c-0.002-9.053,3.593-17.737,9.995-24.139c6.402-6.402,15.085-9.997,24.139-9.995
			H383c9.053-0.002,17.737,3.593,24.139,9.995C413.54,117.796,417.136,126.48,417.133,135.533z"/>
		<path style="fill:#607D8B;" d="M130.409,367.873l-25.418-32.706c-2.327-2.995-3.591-6.68-3.591-10.473V152.6
			c0-9.426,7.641-17.067,17.067-17.067h273.067c9.426,0,17.067,7.641,17.067,17.067v172.094c0,3.793-1.264,7.478-3.591,10.473
			l-25.418,32.706c-3.233,4.16-8.207,6.594-13.476,6.594H143.884C138.616,374.467,133.642,372.033,130.409,367.873z"/>
		<g>
			<rect x="203.8" y="340.333" style="fill:#CFD8DC;" width="102.4" height="34.133"/>
			<path style="fill:#CFD8DC;" d="M144.067,195.267h221.867c4.713,0,8.533,3.821,8.533,8.533v42.667c0,4.713-3.82,8.533-8.533,8.533
				H144.067c-4.713,0-8.533-3.821-8.533-8.533V203.8C135.533,199.087,139.354,195.267,144.067,195.267z"/>
		</g>
	</g>
	<g>
		<path d="M0.358,59.733v392.533C0.397,485.241,27.118,511.962,60.092,512h391.817c32.974-0.038,59.695-26.759,59.733-59.733V59.733
			C511.603,26.759,484.882,0.038,451.908,0H60.092C27.118,0.038,0.397,26.759,0.358,59.733z M494.575,59.733v392.533
			c-0.028,23.553-19.114,42.639-42.667,42.667H60.092c-23.553-0.028-42.639-19.114-42.667-42.667V59.733
			c0.028-23.553,19.114-42.639,42.667-42.667h391.817C475.461,17.094,494.547,36.181,494.575,59.733z"/>
		<path d="M59.733,335.812c-0.011,5.386,1.687,10.636,4.85,14.996l41.008,56.725c4.823,6.649,12.536,10.589,20.75,10.6h259.317
			c8.214-0.011,15.927-3.951,20.75-10.6l41.008-56.73c3.163-4.358,4.861-9.607,4.85-14.991V136.533
			c-0.028-23.553-19.114-42.639-42.667-42.667H102.4c-23.553,0.028-42.639,19.114-42.667,42.667V335.812z M76.8,136.533
			c0.015-14.132,11.468-25.585,25.6-25.6h307.2c14.132,0.015,25.585,11.468,25.6,25.6v199.279c0.004,1.794-0.562,3.544-1.617,4.996
			l-41.008,56.725c-1.607,2.217-4.178,3.53-6.917,3.534H126.342c-2.738-0.003-5.309-1.317-6.917-3.533l-41.008-56.721
			c-1.054-1.454-1.62-3.205-1.617-5.001V136.533z"/>
		<path d="M124.667,374.104c4.834,6.262,12.306,9.92,20.217,9.896h222.234c7.91,0.024,15.381-3.632,20.217-9.892L412.75,341.4
			c3.481-4.496,5.374-10.018,5.383-15.704V153.6c-0.015-14.132-11.468-25.585-25.6-25.6H119.467
			c-14.132,0.015-25.585,11.468-25.6,25.6v172.096c0.01,5.687,1.903,11.211,5.383,15.708L124.667,374.104z M213.333,366.933v-17.067
			h85.333v17.067H213.333z M110.933,153.6c0.005-4.711,3.822-8.529,8.533-8.533h273.067c4.711,0.005,8.529,3.822,8.533,8.533
			v172.096c-0.005,1.895-0.638,3.736-1.8,5.233l-25.417,32.708c-1.62,2.073-4.102,3.288-6.733,3.296h-51.383v-25.6
			c0.001-2.263-0.898-4.434-2.499-6.035c-1.6-1.6-3.771-2.499-6.035-2.499H204.8c-2.263-0.001-4.434,0.898-6.035,2.499
			c-1.6,1.6-2.499,3.771-2.499,6.035v25.6h-51.383c-2.631-0.008-5.113-1.223-6.733-3.296v-0.004l-25.417-32.7
			c-1.161-1.5-1.794-3.341-1.8-5.238V153.6z"/>
		<path d="M145.067,264.533h221.867c9.421-0.011,17.056-7.645,17.067-17.067V204.8c-0.011-9.421-7.645-17.056-17.067-17.067H145.067
			c-9.421,0.011-17.056,7.645-17.067,17.067v42.667C128.011,256.888,135.645,264.523,145.067,264.533z M145.067,204.8h221.867
			l0.009,42.667H145.067V204.8z"/>
	</g>
</g>
<g>
</g>
<g>
</g>
<g>
</g>
<g>
</g>
<g>
</g>
<g>
</g>
<g>
</g>
<g>
</g>
<g>
</g>
<g>
</g>
<g>
</g>
<g>
</g>
<g>
</g>
<g>
</g>
<g>
</g>
</svg>
