<?xml version="1.0" encoding="iso-8859-1"?>
<!-- Generator: Adobe Illustrator 19.0.0, SVG Export Plug-In . SVG Version: 6.00 Build 0)  -->
<svg version="1.1" id="Capa_1" xmlns="http://www.w3.org/2000/svg" xmlns:xlink="http://www.w3.org/1999/xlink" x="0px" y="0px"
	 viewBox="0 0 512 512" style="enable-background:new 0 0 512 512;" xml:space="preserve">
<g>
	<g transform="translate(1 1)">
		<path style="fill:#1566C0;" d="M59.416,7.533h391.851c28.277,0,51.2,22.923,51.2,51.2v392.533c0,28.277-22.923,51.2-51.2,51.2
			H59.416c-28.277,0-51.2-22.923-51.2-51.2V58.733C8.216,30.456,31.139,7.533,59.416,7.533z"/>
		<path style="fill:#2296F3;" d="M59.416,7.533h366.251c28.277,0,51.2,22.923,51.2,51.2v392.533c0,28.277-22.923,51.2-51.2,51.2
			H59.416c-28.277,0-51.2-22.923-51.2-51.2V58.733C8.216,30.456,31.139,7.533,59.416,7.533z"/>
		<path style="fill:#283593;" d="M400.067,323.267c0.003,38.475-15.279,75.375-42.485,102.581S293.475,468.337,255,468.333
			c-4.274,0.018-8.546-0.182-12.8-0.597c-74.859-6.616-132.264-69.319-132.264-144.469S167.341,185.414,242.2,178.797
			c4.254-0.416,8.526-0.615,12.8-0.597c38.475-0.003,75.375,15.279,102.581,42.485S400.07,284.792,400.067,323.267z"/>
		<ellipse style="fill:#3F51B5;" cx="242.2" cy="323.267" rx="132.267" ry="144.469"/>
		<path style="fill:#37474F;" d="M365.933,323.267c0.03,3.049-0.112,6.098-0.427,9.131c-4.779-48.128-52.394-85.931-110.507-85.931
			s-105.728,37.803-110.507,85.931c-0.315-3.033-0.457-6.081-0.427-9.131c0-61.267,49.667-110.933,110.933-110.933
			S365.933,262,365.933,323.267z"/>
		<path style="fill:#607D8B;" d="M365.507,332.397v0.085c-4.769,57.489-52.82,101.718-110.506,101.718
			s-105.737-44.229-110.506-101.718v-0.085c4.778-48.128,52.393-85.931,110.506-85.931S360.728,284.269,365.507,332.397z"/>
		<g>
			<path style="fill:#FFFFFF;" d="M203.8,101.4h17.067c4.713,0,8.533,3.82,8.533,8.533v25.6c0,4.713-3.821,8.533-8.533,8.533H203.8
				c-4.713,0-8.533-3.821-8.533-8.533v-25.6C195.267,105.221,199.087,101.4,203.8,101.4z"/>
			<path style="fill:#FFFFFF;" d="M289.133,101.4H306.2c4.713,0,8.533,3.82,8.533,8.533v25.6c0,4.713-3.82,8.533-8.533,8.533
				h-17.067c-4.713,0-8.533-3.821-8.533-8.533v-25.6C280.6,105.221,284.421,101.4,289.133,101.4z"/>
		</g>
	</g>
	<g>
		<path d="M0.358,59.733v392.533C0.397,485.241,27.118,511.962,60.092,512h391.817c32.974-0.038,59.695-26.759,59.733-59.733V59.733
			C511.603,26.759,484.882,0.038,451.908,0H60.092C27.118,0.038,0.397,26.759,0.358,59.733z M494.575,59.733v392.533
			c-0.028,23.553-19.114,42.639-42.667,42.667H60.092c-23.553-0.028-42.639-19.114-42.667-42.667V59.733
			c0.028-23.553,19.114-42.639,42.667-42.667h391.817C475.461,17.094,494.547,36.181,494.575,59.733z"/>
		<path d="M256,477.867c84.831,0,153.6-68.769,153.6-153.6s-68.769-153.6-153.6-153.6s-153.6,68.769-153.6,153.6
			C102.497,409.057,171.209,477.77,256,477.867z M256,187.733c75.405,0,136.533,61.128,136.533,136.533S331.405,460.8,256,460.8
			s-136.533-61.128-136.533-136.533C119.553,248.897,180.63,187.82,256,187.733z"/>
		<path d="M136.958,333.483c0,0.102,0.052,0.187,0.056,0.288c4.901,62.084,56.713,109.965,118.991,109.962
			s114.085-47.889,118.98-109.973c0.004-0.097,0.056-0.179,0.056-0.277c0-0.133-0.013-0.285-0.02-0.438
			c0.214-2.91,0.445-5.816,0.445-8.779c0-65.98-53.487-119.467-119.467-119.467s-119.467,53.487-119.467,119.467
			c0,3.02,0.231,5.982,0.453,8.946l-0.028,0.183V333.483z M256,426.667c-52.879-0.073-97.025-40.358-101.924-93.009
			C158.777,290.066,203.396,256,256,256c52.759,0,97.507,34.262,101.944,77.284C353.23,386.094,309.019,426.591,256,426.667z
			 M256,221.867c35.833,0.045,69.032,18.829,87.524,49.521c-24.096-21.372-55.319-32.95-87.524-32.455
			c-32.315-0.518-63.635,11.176-87.702,32.746C186.752,240.822,220.045,221.912,256,221.867z"/>
		<path d="M204.8,153.6h17.067c9.421-0.011,17.056-7.645,17.067-17.067v-25.6c-0.011-9.421-7.645-17.056-17.067-17.067h-8.533
			v-8.533c0.02-18.843,15.29-34.113,34.133-34.133h17.067c18.843,0.02,34.113,15.29,34.133,34.133v8.533h-8.533
			c-9.421,0.011-17.056,7.645-17.067,17.067v25.6c0.011,9.421,7.645,17.056,17.067,17.067H307.2
			c9.421-0.011,17.056-7.645,17.067-17.067v-25.6c-0.02-6.069-3.272-11.668-8.533-14.692V85.333
			c-0.031-28.264-22.936-51.169-51.2-51.2h-17.067c-28.264,0.031-51.169,22.936-51.2,51.2v10.908
			c-5.262,3.025-8.513,8.623-8.533,14.692v25.6C187.744,145.955,195.379,153.589,204.8,153.6z M290.133,136.533v-25.6H307.2
			l0.009,25.6H290.133z M221.875,136.533H204.8v-25.6h17.067L221.875,136.533z"/>
	</g>
</g>
<g>
</g>
<g>
</g>
<g>
</g>
<g>
</g>
<g>
</g>
<g>
</g>
<g>
</g>
<g>
</g>
<g>
</g>
<g>
</g>
<g>
</g>
<g>
</g>
<g>
</g>
<g>
</g>
<g>
</g>
</svg>
