<?xml version="1.0" encoding="iso-8859-1"?>
<!-- Generator: Adobe Illustrator 19.0.0, SVG Export Plug-In . SVG Version: 6.00 Build 0)  -->
<svg version="1.1" id="Capa_1" xmlns="http://www.w3.org/2000/svg" xmlns:xlink="http://www.w3.org/1999/xlink" x="0px" y="0px"
	 viewBox="0 0 512 512" style="enable-background:new 0 0 512 512;" xml:space="preserve">
<g>
	<g transform="translate(1 1)">
		<path style="fill:#283593;" d="M59.075,7.533h391.851c28.277,0,51.2,22.923,51.2,51.2v392.533c0,28.277-22.923,51.2-51.2,51.2
			H59.075c-28.277,0-51.2-22.923-51.2-51.2V58.733C7.875,30.456,30.798,7.533,59.075,7.533z"/>
		<path style="fill:#3F51B5;" d="M59.075,7.533h366.592c28.277,0,51.2,22.923,51.2,51.2v392.533c0,28.277-22.923,51.2-51.2,51.2
			H59.075c-28.277,0-51.2-22.923-51.2-51.2V58.733C7.875,30.456,30.798,7.533,59.075,7.533z"/>
		<path style="fill:#37474F;" d="M442.733,84.333v204.8c-0.014,4.707-3.826,8.519-8.533,8.533h-34.133
			c-4.707,0.014-8.519,3.826-8.533,8.533v34.133c-0.014,4.707-3.826,8.519-8.533,8.533h-25.6c-4.707,0.014-8.519,3.826-8.533,8.533
			v42.667c-0.014,4.707-3.826,8.519-8.533,8.533H169.667c-4.707-0.014-8.519-3.826-8.533-8.533V357.4
			c-0.014-4.707-3.826-8.519-8.533-8.533H127c-4.707-0.014-8.519-3.826-8.533-8.533V306.2c-0.014-4.707-3.826-8.519-8.533-8.533
			H75.8c-4.707-0.014-8.519-3.826-8.533-8.533v-204.8c0.014-4.707,3.826-8.519,8.533-8.533h358.4
			C438.907,75.814,442.719,79.626,442.733,84.333z"/>
		<path style="fill:#607D8B;" d="M417.133,84.333v204.8c-0.014,4.707-3.826,8.519-8.533,8.533h-34.133
			c-4.707,0.014-8.519,3.826-8.533,8.533v34.133c-0.014,4.707-3.826,8.519-8.533,8.533h-25.6c-4.707,0.014-8.519,3.826-8.533,8.533
			v42.667c-0.014,4.707-3.826,8.519-8.533,8.533H169.667c-4.707-0.014-8.519-3.826-8.533-8.533V357.4
			c-0.014-4.707-3.826-8.519-8.533-8.533H127c-4.707-0.014-8.519-3.826-8.533-8.533V306.2c-0.014-4.707-3.826-8.519-8.533-8.533
			H75.8c-4.707-0.014-8.519-3.826-8.533-8.533v-204.8c0.014-4.707,3.826-8.519,8.533-8.533h332.8
			C413.307,75.814,417.119,79.626,417.133,84.333z"/>
		<g>
			<rect x="101.4" y="109.933" style="fill:#FFEB3A;" width="34.133" height="68.267"/>
			<rect x="169.667" y="109.933" style="fill:#FFEB3A;" width="34.133" height="68.267"/>
			<rect x="237.933" y="109.933" style="fill:#FFEB3A;" width="34.133" height="68.267"/>
			<rect x="306.2" y="109.933" style="fill:#FFEB3A;" width="34.133" height="68.267"/>
			<rect x="374.467" y="109.933" style="fill:#FFEB3A;" width="34.133" height="68.267"/>
		</g>
		<rect x="58.733" y="408.6" style="fill:#E91E63;" width="68.267" height="42.667"/>
		<rect x="383" y="408.6" style="fill:#4CAF50;" width="68.267" height="42.667"/>
	</g>
	<g>
		<path d="M0.358,59.733v392.533C0.397,485.241,27.118,511.962,60.092,512h391.817c32.974-0.038,59.695-26.759,59.733-59.733V59.733
			C511.603,26.759,484.882,0.038,451.908,0H60.092C27.118,0.038,0.397,26.759,0.358,59.733z M494.575,59.733v392.533
			c-0.028,23.553-19.114,42.639-42.667,42.667H60.092c-23.553-0.028-42.639-19.114-42.667-42.667V59.733
			c0.028-23.553,19.114-42.639,42.667-42.667h391.817C475.461,17.094,494.547,36.181,494.575,59.733z"/>
		<path d="M59.733,290.133c0.011,9.421,7.645,17.056,17.067,17.067h34.133v34.133c0.011,9.421,7.645,17.056,17.067,17.067h25.6
			v42.667c0.011,9.421,7.645,17.056,17.067,17.067h170.667c9.421-0.011,17.056-7.645,17.067-17.067V358.4H384
			c9.421-0.011,17.056-7.645,17.067-17.067V307.2H435.2c9.421-0.011,17.056-7.645,17.067-17.067v-204.8
			c-0.011-9.421-7.645-17.056-17.067-17.067H76.8c-9.421,0.011-17.056,7.645-17.067,17.067V290.133z M76.8,85.333l358.4-0.012
			v204.812h-34.133c-9.421,0.011-17.056,7.645-17.067,17.067v34.133h-25.6c-9.421,0.011-17.056,7.645-17.067,17.067v42.667H170.667
			V358.4c-0.011-9.421-7.645-17.056-17.067-17.067H128V307.2c-0.011-9.421-7.645-17.056-17.067-17.067H76.8V85.333z"/>
		<path d="M145.067,179.2v-68.267c0.001-2.263-0.898-4.434-2.499-6.035c-1.6-1.6-3.771-2.499-6.035-2.499H102.4
			c-2.263-0.001-4.434,0.898-6.035,2.499s-2.499,3.771-2.499,6.035V179.2c-0.001,2.263,0.898,4.434,2.499,6.035
			c1.6,1.6,3.771,2.499,6.035,2.499h34.133c2.263,0.001,4.434-0.898,6.035-2.499C144.168,183.634,145.067,181.463,145.067,179.2z
			 M128,170.667h-17.067v-51.2H128V170.667z"/>
		<path d="M170.667,187.733H204.8c2.263,0.001,4.434-0.898,6.035-2.499c1.6-1.6,2.499-3.771,2.499-6.035v-68.267
			c0.001-2.263-0.898-4.434-2.499-6.035s-3.771-2.499-6.035-2.499h-34.133c-2.263-0.001-4.434,0.898-6.035,2.499
			c-1.6,1.6-2.499,3.771-2.499,6.035V179.2c-0.001,2.263,0.898,4.434,2.499,6.035C166.232,186.835,168.403,187.734,170.667,187.733z
			 M179.2,119.467h17.067v51.2H179.2V119.467z"/>
		<path d="M238.933,187.733h34.133c2.263,0.001,4.434-0.898,6.035-2.499c1.6-1.6,2.499-3.771,2.499-6.035v-68.267
			c0.001-2.263-0.898-4.434-2.499-6.035c-1.6-1.6-3.771-2.499-6.035-2.499h-34.133c-2.263-0.001-4.434,0.898-6.035,2.499
			s-2.499,3.771-2.499,6.035V179.2c-0.001,2.263,0.898,4.434,2.499,6.035C234.499,186.835,236.67,187.734,238.933,187.733z
			 M247.467,119.467h17.067v51.2h-17.067V119.467z"/>
		<path d="M307.2,187.733h34.133c2.263,0.001,4.434-0.898,6.035-2.499c1.6-1.6,2.499-3.771,2.499-6.035v-68.267
			c0.001-2.263-0.898-4.434-2.499-6.035c-1.6-1.6-3.771-2.499-6.035-2.499H307.2c-2.263-0.001-4.434,0.898-6.035,2.499
			c-1.6,1.6-2.499,3.771-2.499,6.035V179.2c-0.001,2.263,0.898,4.434,2.499,6.035C302.766,186.835,304.937,187.734,307.2,187.733z
			 M315.733,119.467H332.8v51.2h-17.067V119.467z"/>
		<path d="M375.467,187.733H409.6c2.263,0.001,4.434-0.898,6.035-2.499c1.6-1.6,2.499-3.771,2.499-6.035v-68.267
			c0.001-2.263-0.898-4.434-2.499-6.035s-3.771-2.499-6.035-2.499h-34.133c-2.263-0.001-4.434,0.898-6.035,2.499
			c-1.6,1.6-2.499,3.771-2.499,6.035V179.2c-0.001,2.263,0.898,4.434,2.499,6.035C371.033,186.835,373.203,187.734,375.467,187.733z
			 M384,119.467h17.067v51.2H384V119.467z"/>
		<path d="M128,401.067H59.733c-2.263-0.001-4.434,0.898-6.035,2.499s-2.499,3.771-2.499,6.035v42.667
			c-0.001,2.263,0.898,4.434,2.499,6.035c1.6,1.6,3.771,2.499,6.035,2.499H128c2.263,0.001,4.434-0.898,6.035-2.499
			c1.6-1.6,2.499-3.771,2.499-6.035V409.6c0.001-2.263-0.898-4.434-2.499-6.035C132.434,401.965,130.263,401.066,128,401.067z
			 M119.467,443.733h-51.2v-25.6h51.2V443.733z"/>
		<path d="M384,401.067c-2.263-0.001-4.434,0.898-6.035,2.499s-2.499,3.771-2.499,6.035v42.667
			c-0.001,2.263,0.898,4.434,2.499,6.035c1.6,1.6,3.771,2.499,6.035,2.499h68.267c2.263,0.001,4.434-0.898,6.035-2.499
			c1.6-1.6,2.499-3.771,2.499-6.035V409.6c0.001-2.263-0.898-4.434-2.499-6.035c-1.6-1.6-3.771-2.499-6.035-2.499H384z
			 M443.733,443.733h-51.2v-25.6h51.2V443.733z"/>
	</g>
</g>
<g>
</g>
<g>
</g>
<g>
</g>
<g>
</g>
<g>
</g>
<g>
</g>
<g>
</g>
<g>
</g>
<g>
</g>
<g>
</g>
<g>
</g>
<g>
</g>
<g>
</g>
<g>
</g>
<g>
</g>
</svg>
