<?xml version="1.0" encoding="iso-8859-1"?>
<!-- Generator: Adobe Illustrator 19.0.0, SVG Export Plug-In . SVG Version: 6.00 Build 0)  -->
<svg version="1.1" id="Capa_1" xmlns="http://www.w3.org/2000/svg" xmlns:xlink="http://www.w3.org/1999/xlink" x="0px" y="0px"
	 viewBox="0 0 512 512" style="enable-background:new 0 0 512 512;" xml:space="preserve">
<g>
	<g transform="translate(1 1)">
		<path style="fill:#00838F;" d="M485.4,255c9.414,0.028,17.039,7.652,17.067,17.067V485.4c-0.028,9.414-7.653,17.039-17.067,17.067
			H24.6c-9.414-0.028-17.039-7.653-17.067-17.067V272.067C7.561,262.652,15.186,255.028,24.6,255
			c-9.414-0.028-17.039-7.653-17.067-17.067V24.6C7.561,15.186,15.186,7.561,24.6,7.533h460.8
			c9.414,0.028,17.039,7.652,17.067,17.067v213.333C502.439,247.348,494.814,254.972,485.4,255z"/>
		<path style="fill:#00BCD4;" d="M459.8,255c9.414,0.028,17.039,7.652,17.067,17.067V485.4c-0.028,9.414-7.653,17.039-17.067,17.067
			H24.6c-9.414-0.028-17.039-7.653-17.067-17.067V272.067C7.561,262.652,15.186,255.028,24.6,255
			c-9.414-0.028-17.039-7.653-17.067-17.067V24.6C7.561,15.186,15.186,7.561,24.6,7.533h435.2
			c9.414,0.028,17.039,7.652,17.067,17.067v213.333C476.839,247.348,469.214,254.972,459.8,255z"/>
		<path style="fill:#AD1457;" d="M24.6,255h460.8c9.426,0,17.067,7.641,17.067,17.067V485.4c0,9.426-7.641,17.067-17.067,17.067
			H24.6c-9.426,0-17.067-7.641-17.067-17.067V272.067C7.533,262.641,15.174,255,24.6,255z"/>
		<path style="fill:#E91E63;" d="M24.6,255h435.2c9.426,0,17.067,7.641,17.067,17.067V485.4c0,9.426-7.641,17.067-17.067,17.067
			H24.6c-9.426,0-17.067-7.641-17.067-17.067V272.067C7.533,262.641,15.174,255,24.6,255z"/>
		<circle style="fill:#F44335;" cx="357.4" cy="383" r="76.8"/>
		<circle style="fill:#AD1457;" cx="357.4" cy="383" r="42.667"/>
		<circle style="fill:#2296F3;" cx="357.4" cy="127" r="76.8"/>
		<circle style="fill:#1566C0;" cx="357.4" cy="127" r="42.667"/>
	</g>
	<g>
		<path d="M486.4,0H25.6C11.468,0.015,0.015,11.468,0,25.6v213.333c0.02,6.319,2.394,12.404,6.658,17.067
			C2.394,260.663,0.02,266.748,0,273.067V486.4c0.015,14.132,11.468,25.585,25.6,25.6h460.8c14.132-0.015,25.585-11.468,25.6-25.6
			V273.067c-0.02-6.319-2.394-12.404-6.658-17.067c4.265-4.663,6.639-10.748,6.658-17.067V25.6
			C511.985,11.468,500.532,0.015,486.4,0z M17.067,25.6c0.005-4.711,3.822-8.529,8.533-8.533h460.8
			c4.711,0.005,8.529,3.822,8.533,8.533v213.333c-0.005,4.711-3.822,8.529-8.533,8.533H25.6c-4.711-0.005-8.529-3.822-8.533-8.533
			V25.6z M494.933,486.4c-0.005,4.711-3.822,8.529-8.533,8.533H25.6c-4.711-0.005-8.529-3.822-8.533-8.533V273.067
			c0.005-4.711,3.822-8.529,8.533-8.533h460.8c4.711,0.005,8.529,3.822,8.533,8.533V486.4z"/>
		<path d="M358.4,332.8c-28.277,0-51.2,22.923-51.2,51.2c0,28.277,22.923,51.2,51.2,51.2c28.277,0,51.2-22.923,51.2-51.2
			C409.569,355.736,386.664,332.831,358.4,332.8z M358.4,418.133c-18.851,0-34.133-15.282-34.133-34.133
			c0-18.851,15.282-34.133,34.133-34.133c18.851,0,34.133,15.282,34.133,34.133C392.513,402.843,377.243,418.113,358.4,418.133z"/>
		<path d="M358.4,298.667c-47.128,0-85.333,38.205-85.333,85.333s38.205,85.333,85.333,85.333s85.333-38.205,85.333-85.333
			C443.679,336.894,405.506,298.721,358.4,298.667z M358.4,452.267c-37.703,0-68.267-30.564-68.267-68.267
			s30.564-68.267,68.267-68.267s68.267,30.564,68.267,68.267C426.624,421.685,396.085,452.224,358.4,452.267z"/>
		<path d="M145.467,344.504c7.353-2.158,15.216-1.81,22.35,0.987c2.83,1.157,6.063,0.71,8.474-1.17
			c2.411-1.88,3.632-4.907,3.2-7.933s-2.45-5.591-5.291-6.722c-10.614-4.219-22.33-4.784-33.3-1.604
			c-16.817,4.724-29.962,17.864-34.692,34.679c-3.192,10.974-2.635,22.699,1.583,33.321c1.133,2.837,3.696,4.853,6.72,5.284
			c3.024,0.432,6.049-0.786,7.93-3.193c1.881-2.407,2.333-5.636,1.183-8.466c-2.804-7.14-3.147-15.01-0.975-22.367
			C125.84,356.306,134.452,347.694,145.467,344.504z"/>
		<path d="M87.775,367.75c4.437-30.061,28.04-53.669,58.1-58.113c15.965-2.264,32.215,1.244,45.825,9.892
			c2.576,1.656,5.841,1.804,8.557,0.39c2.716-1.415,4.465-4.176,4.584-7.236c0.119-3.06-1.41-5.949-4.008-7.57
			c-16.995-10.834-37.306-15.226-57.259-12.383c-37.623,5.56-67.164,35.106-72.717,72.73c-2.83,19.945,1.562,40.246,12.383,57.238
			c1.63,2.575,4.51,4.085,7.555,3.961c3.045-0.124,5.793-1.863,7.208-4.563c1.415-2.699,1.283-5.949-0.347-8.524
			C89.005,399.965,85.5,383.714,87.775,367.75z"/>
		<path d="M358.4,179.2c28.277,0,51.2-22.923,51.2-51.2s-22.923-51.2-51.2-51.2c-28.277,0-51.2,22.923-51.2,51.2
			C307.231,156.264,330.136,179.169,358.4,179.2z M358.4,93.867c18.851,0,34.133,15.282,34.133,34.133
			c0,18.851-15.282,34.133-34.133,34.133c-18.851,0-34.133-15.282-34.133-34.133C324.287,109.157,339.557,93.887,358.4,93.867z"/>
		<path d="M358.4,213.333c47.128,0,85.333-38.205,85.333-85.333S405.528,42.667,358.4,42.667S273.067,80.872,273.067,128
			C273.121,175.106,311.294,213.279,358.4,213.333z M358.4,59.733c37.703,0,68.267,30.564,68.267,68.267
			s-30.564,68.267-68.267,68.267S290.133,165.703,290.133,128C290.176,90.315,320.715,59.776,358.4,59.733z"/>
		<path d="M145.067,76.8c-20.341,0.047-38.747,12.068-46.967,30.675c-1.903,4.306,0.042,9.341,4.346,11.249
			c4.304,1.908,9.341-0.03,11.254-4.332c5.447-12.467,17.761-20.525,31.367-20.525s25.919,8.058,31.367,20.525
			c1.913,4.302,6.95,6.241,11.254,4.332c4.304-1.908,6.249-6.943,4.346-11.249C183.814,88.868,165.408,76.847,145.067,76.8z"/>
		<path d="M68.25,119.254c2.208,0.508,4.528,0.115,6.446-1.092c1.918-1.208,3.275-3.13,3.771-5.341
			c7.104-31.061,34.737-53.087,66.6-53.087s59.496,22.026,66.6,53.087c1.054,4.585,5.619,7.453,10.207,6.413
			c4.588-1.04,7.47-5.596,6.443-10.188c-8.87-38.836-43.414-66.379-83.25-66.379s-74.38,27.543-83.25,66.379
			C60.776,113.641,63.656,118.21,68.25,119.254z"/>
		<path d="M136.533,212.879v8.988c0,4.713,3.821,8.533,8.533,8.533c4.713,0,8.533-3.821,8.533-8.533v-8.988
			c36.553-3.478,66.713-30.089,74.717-65.925c1.026-4.591-1.855-9.147-6.443-10.188c-4.588-1.04-9.153,1.828-10.207,6.413
			c-6.542,27.876-29.673,48.782-58.067,52.479v-17.243c17.008-2.898,31.437-14.118,38.433-29.89
			c1.903-4.306-0.042-9.341-4.346-11.249s-9.341,0.031-11.254,4.332c-4.265,9.595-12.671,16.722-22.833,19.361v-24.436
			c3.451-0.001,6.562-2.08,7.882-5.268c1.32-3.188,0.591-6.858-1.849-9.298l-8.533-8.533c-0.077-0.077-0.181-0.1-0.26-0.173
			c-0.728-0.705-1.577-1.274-2.507-1.677l-0.03-0.007c-0.076-0.031-0.156-0.029-0.232-0.058c-0.856-0.316-1.757-0.492-2.669-0.52
			c-0.302-0.001-0.604,0.014-0.905,0.046c-0.705,0.047-1.401,0.182-2.071,0.403c-0.294,0.086-0.582,0.188-0.865,0.307
			c-0.937,0.402-1.794,0.971-2.528,1.679l-8.533,8.533c-2.44,2.441-3.169,6.11-1.849,9.299c1.321,3.188,4.431,5.267,7.882,5.268
			v24.436c-10.163-2.639-18.569-9.767-22.833-19.361c-1.913-4.302-6.95-6.241-11.254-4.332c-4.304,1.908-6.249,6.943-4.346,11.249
			c6.997,15.771,21.425,26.992,38.433,29.89v17.244c-28.394-3.697-51.525-24.603-58.067-52.479
			c-1.054-4.585-5.619-7.453-10.207-6.413c-4.588,1.04-7.47,5.596-6.443,10.188C69.82,182.79,99.98,209.401,136.533,212.879z"/>
		<path d="M199.964,409.764c3.133-5.204,4.804-11.156,4.836-17.23c0-18.851-15.282-34.133-34.133-34.133
			s-34.133,15.282-34.133,34.133s15.282,34.133,34.133,34.133c6.074-0.032,12.027-1.703,17.231-4.836l45.003,45.002
			c2.149,2.188,5.307,3.055,8.271,2.27s5.28-3.1,6.065-6.065c0.785-2.965-0.082-6.122-2.27-8.271L199.964,409.764z M153.6,392.533
			c-0.006-7.725,5.177-14.491,12.638-16.496c7.46-2.005,15.337,1.252,19.204,7.94c3.867,6.688,2.759,15.139-2.701,20.604
			l-0.016,0.01l-0.011,0.016c-4.88,4.877-12.218,6.334-18.592,3.691C157.749,405.656,153.596,399.433,153.6,392.533z"/>
	</g>
</g>
<g>
</g>
<g>
</g>
<g>
</g>
<g>
</g>
<g>
</g>
<g>
</g>
<g>
</g>
<g>
</g>
<g>
</g>
<g>
</g>
<g>
</g>
<g>
</g>
<g>
</g>
<g>
</g>
<g>
</g>
</svg>
