<?xml version="1.0" encoding="iso-8859-1"?>
<!-- Generator: Adobe Illustrator 19.0.0, SVG Export Plug-In . SVG Version: 6.00 Build 0)  -->
<svg version="1.1" id="Capa_1" xmlns="http://www.w3.org/2000/svg" xmlns:xlink="http://www.w3.org/1999/xlink" x="0px" y="0px"
	 viewBox="0 0 511.85 511.85" style="enable-background:new 0 0 511.85 511.85;" xml:space="preserve">
<g>
	<g transform="translate(1 1)">
		<path style="fill:#9E9D24;" d="M502.307,164.386l-337.92,337.92l-42.24-42.24c6.632-6.651,6.634-17.415,0.004-24.068
			c-6.63-6.654-17.393-6.69-24.068-0.081l-24.149-24.149c6.645-6.669,6.626-17.462-0.043-24.107
			c-6.669-6.645-17.462-6.626-24.107,0.043l-42.24-42.24l36.181-36.267L309.197,43.725l19.2-19.115l17.067-17.067l42.24,42.24
			c-4.337,4.294-6.047,10.579-4.484,16.478s6.16,10.513,12.054,12.097c5.894,1.584,12.185-0.104,16.494-4.426l24.149,24.149
			c-6.645,6.669-6.626,17.462,0.043,24.107s17.462,6.626,24.107-0.043L502.307,164.386z"/>
		<path style="fill:#CDDC39;" d="M485.155,181.368L164.301,502.221l-42.155-42.155c6.632-6.651,6.634-17.415,0.004-24.068
			c-6.63-6.654-17.393-6.69-24.068-0.081l-24.149-24.149c6.645-6.669,6.626-17.462-0.043-24.107
			c-6.669-6.645-17.462-6.626-24.107,0.043l-42.24-42.24l36.181-36.267L292.13,60.706h0.085l16.981-16.981l19.115-19.2l42.24,42.24
			c-4.314,4.314-5.999,10.601-4.42,16.494c1.579,5.893,6.182,10.496,12.075,12.075c5.893,1.579,12.18-0.106,16.494-4.42
			l24.064,24.149c-6.637,6.674-6.622,17.46,0.034,24.116s17.442,6.671,24.116,0.034L485.155,181.368z"/>
		<polygon style="fill:#00695C;" points="417.827,200.653 200.653,417.826 200.568,417.826 67.874,285.048 285.048,67.874 		"/>
		<g>
			<path style="fill:#009688;" d="M25.633,279.064l12.068-12.068c3.332-3.332,8.736-3.332,12.068,0l150.85,150.85l-24.136,24.136
				l-150.85-150.85C22.3,287.799,22.3,282.396,25.633,279.064z"/>
			<path style="fill:#009688;" d="M73.906,230.79l12.068-12.068c3.332-3.332,8.736-3.333,12.068,0l150.85,150.85l-24.136,24.136
				l-150.85-150.85C70.573,239.526,70.573,234.123,73.906,230.79z"/>
			<path style="fill:#009688;" d="M194.585,218.721l-48.272-48.272c-3.338-3.318-8.73-3.318-12.068,0l-12.068,12.068
				c-3.319,3.338-3.319,8.73,0,12.068l48.272,48.272l24.136,24.136l78.442,78.442l24.136-24.136l-54.306-54.306"/>
			<path style="fill:#009688;" d="M266.993,242.857l54.306,54.306l24.136-24.136l-78.442-78.442l-24.136-24.136l-48.272-48.272
				c-3.338-3.319-8.73-3.319-12.068,0l-12.068,12.068c-3.318,3.338-3.318,8.73,0,12.068l48.272,48.272"/>
			<path style="fill:#009688;" d="M218.725,85.97l12.068-12.068c3.332-3.332,8.736-3.332,12.068,0l150.85,150.85l-24.136,24.136
				l-150.85-150.85C215.393,94.706,215.393,89.303,218.725,85.97z"/>
			<path style="fill:#009688;" d="M266.998,37.706l12.068-12.068c3.332-3.332,8.736-3.332,12.068,0l150.85,150.85l-24.136,24.136
				l-150.85-150.85C263.666,46.441,263.666,41.038,266.998,37.706z"/>
		</g>
		<g>
			<polygon style="fill:#F5F5F5;" points="266.957,194.594 194.594,266.957 170.445,242.893 242.893,170.445 			"/>
			<polygon style="fill:#F5F5F5;" points="266.957,194.594 266.957,242.893 242.893,266.957 194.594,266.957 			"/>
		</g>
		
			<rect x="147.312" y="461.095" transform="matrix(-0.7071 0.7071 -0.7071 -0.7071 618.7246 700.0374)" style="fill:#FF9801;" width="34.133" height="34.133"/>
		
			<rect x="116.473" y="304.199" transform="matrix(-0.7071 0.7071 -0.7071 -0.7071 775.6033 321.2659)" style="fill:#FEC108;" width="409.585" height="34.133"/>
		
			<rect x="461.088" y="147.343" transform="matrix(-0.7071 0.7071 -0.7071 -0.7071 932.507 -57.4423)" style="fill:#FF9801;" width="34.125" height="34.125"/>
	</g>
	<path d="M2.5,352.467l42.237,42.237c1.6,1.601,3.77,2.5,6.033,2.5s4.434-0.899,6.033-2.5c3.336-3.314,8.725-3.304,12.049,0.022
		c3.324,3.326,3.332,8.714,0.018,12.049c-1.601,1.6-2.5,3.77-2.5,6.033c0,2.263,0.899,4.434,2.5,6.033l24.137,24.137
		c1.6,1.601,3.77,2.5,6.033,2.5c2.263,0,4.434-0.899,6.033-2.5c3.391-3.192,8.68-3.192,12.071,0c3.325,3.335,3.325,8.732,0,12.067
		c-1.601,1.6-2.5,3.77-2.5,6.033c0,2.263,0.899,4.434,2.5,6.033l18.092,18.092l0.009,0.013l0.013,0.009l24.125,24.125
		c1.6,1.601,3.77,2.5,6.033,2.5c2.263,0,4.433-0.899,6.033-2.5l337.9-337.9c1.601-1.6,2.5-3.77,2.5-6.033s-0.899-4.434-2.5-6.033
		l-24.125-24.125l-0.009-0.013l-0.013-0.009l-18.092-18.092c-1.6-1.601-3.77-2.5-6.033-2.5c-2.263,0-4.434,0.899-6.033,2.5
		c-3.336,3.314-8.725,3.304-12.049-0.022c-3.324-3.326-3.332-8.714-0.018-12.049c1.601-1.6,2.5-3.77,2.5-6.033
		s-0.899-4.434-2.5-6.033l-24.137-24.137c-1.6-1.601-3.77-2.5-6.033-2.5c-2.263,0-4.434,0.899-6.033,2.5
		c-3.391,3.192-8.68,3.192-12.071,0c-3.325-3.335-3.325-8.732,0-12.067c1.601-1.6,2.5-3.77,2.5-6.033s-0.899-4.434-2.5-6.033
		L352.467,2.5c-1.6-1.601-3.77-2.5-6.033-2.5S342,0.899,340.4,2.5l-30.169,30.169L298.163,20.6c-6.752-6.45-17.382-6.45-24.133,0
		l-12.075,12.071c-6.647,6.672-6.645,17.463,0.004,24.133l12.069,12.069L261.961,80.94l-12.073-12.073
		c-6.673-6.645-17.463-6.643-24.133,0.004l-12.063,12.067c-3.203,3.199-5.003,7.541-5.004,12.068s1.798,8.869,5,12.07l12.069,12.069
		l-12.071,12.071l-12.065-12.065c-6.755-6.443-17.38-6.445-24.137-0.004l-12.063,12.062c-6.659,6.667-6.661,17.468-0.004,24.137
		l12.069,12.069l-12.071,12.071L153.35,165.42c-6.757-6.439-17.378-6.44-24.137-0.004l-12.067,12.067
		c-6.656,6.668-6.656,17.465,0,24.133l12.069,12.069l-12.071,12.071l-12.069-12.069c-6.752-6.45-17.382-6.45-24.133,0
		l-12.075,12.071c-6.647,6.672-6.645,17.464,0.004,24.134L80.94,261.96l-12.067,12.067L56.8,261.954
		c-6.673-6.645-17.463-6.643-24.133,0.004l-12.062,12.067c-3.203,3.199-5.003,7.541-5.004,12.068c-0.001,4.527,1.798,8.869,5,12.07
		l12.069,12.069L2.5,340.4C0.899,342,0,344.17,0,346.433S0.899,350.867,2.5,352.467z M165.417,491.25l-12.069-12.069l12.068-12.068
		l12.068,12.07L165.417,491.25z M183.517,449.013l24.137-24.137l24.133-24.133l24.137-24.137l120.679-120.679l24.137-24.137
		l24.133-24.133l24.137-24.137l6.034-6.034l12.07,12.068L189.551,467.116l-12.068-12.07L183.517,449.013z M274.025,334.367
		l-57.84-57.842h24.14l45.771,45.775L274.025,334.367z M243.857,183.518l12.067,12.067l-60.339,60.34l-12.067-12.067
		L243.857,183.518z M322.3,286.096l-45.775-45.771v-24.14l57.842,57.84L322.3,286.096z M298.163,310.233l-42.238-42.242
		l12.067-12.067l42.242,42.238L298.163,310.233z M259.458,240.325l-19.133,19.133h-24.142l43.275-43.275V240.325z M479.183,177.484
		l-12.07-12.068l12.068-12.068l12.069,12.069L479.183,177.484z M346.434,20.6l31.204,31.204c-4.674,9.791-2.67,21.464,5.002,29.135
		s19.346,9.674,29.136,4.998l14.137,14.138c-4.675,9.79-2.673,21.464,4.998,29.136s19.345,9.676,29.135,5.002l7.069,7.069
		l-24.135,24.135L322.298,44.735L346.434,20.6z M286.096,32.667l18.092,18.091l0.009,0.013l0.012,0.009l126.704,126.704
		l-12.071,12.071L292.13,62.839l-0.001-0.002l-0.002-0.001l-18.103-18.103L286.096,32.667z M286.094,80.94l120.681,120.681
		l-12.067,12.067L274.027,93.007L286.094,80.94z M237.825,80.938l18.091,18.092l0.009,0.012l0.012,0.009l126.704,126.704
		l-12.071,12.071L243.867,111.121l-0.009-0.012l-0.013-0.009l-18.091-18.092L237.825,80.938z M237.823,129.211l120.681,120.681
		l-12.069,12.069l-72.406-72.404l-0.004-0.007l-24.133-24.134l-0.009-0.006l-24.131-24.13L237.823,129.211z M189.55,129.213
		l42.24,42.239l-12.067,12.067l-42.24-42.24L189.55,129.213z M189.552,177.481l18.104,18.104l-12.07,12.07l-18.104-18.104
		L189.552,177.481z M141.279,177.484l42.24,42.24l-12.067,12.067l-42.239-42.24L141.279,177.484z M141.281,225.753l24.131,24.131
		l0.006,0.009l24.133,24.133l0.007,0.004l72.404,72.406l-12.069,12.069L129.211,237.823L141.281,225.753z M93.008,225.754
		l18.092,18.092l0.009,0.013l0.012,0.009l126.704,126.704l-12.071,12.071L99.043,255.927l-0.001-0.002l-0.002-0.001l-18.103-18.103
		L93.008,225.754z M93.006,274.028l120.682,120.681l-12.067,12.067L80.94,286.094L93.006,274.028z M44.737,274.025l18.092,18.092
		l0.009,0.013l0.012,0.009l126.704,126.704l-12.071,12.071L50.779,304.208l-0.009-0.012l-0.013-0.009l-18.091-18.091L44.737,274.025
		z M44.735,322.298l120.682,120.681l-24.135,24.135l-7.069-7.069c4.674-9.791,2.67-21.464-5.002-29.135s-19.346-9.674-29.136-4.998
		l-14.138-14.137c4.675-9.79,2.673-21.464-4.998-29.136s-19.345-9.676-29.135-5.002L20.6,346.433L44.735,322.298z"/>
</g>
<g>
</g>
<g>
</g>
<g>
</g>
<g>
</g>
<g>
</g>
<g>
</g>
<g>
</g>
<g>
</g>
<g>
</g>
<g>
</g>
<g>
</g>
<g>
</g>
<g>
</g>
<g>
</g>
<g>
</g>
</svg>
