<?xml version="1.0" encoding="iso-8859-1"?>
<!-- Generator: Adobe Illustrator 19.0.0, SVG Export Plug-In . SVG Version: 6.00 Build 0)  -->
<svg version="1.1" id="Capa_1" xmlns="http://www.w3.org/2000/svg" xmlns:xlink="http://www.w3.org/1999/xlink" x="0px" y="0px"
	 viewBox="0 0 512.003 512.003" style="enable-background:new 0 0 512.003 512.003;" xml:space="preserve">
<g>
	<g transform="translate(1 1)">
		<path style="fill:#FFB301;" d="M422.852,186.733l-5.717-34.133l-5.717-34.133l-5.632-34.133l-4.523-26.965
			c-0.669-4.143-4.252-7.183-8.448-7.168l-26.88,0l5.717,34.133l5.717,34.133l5.632,34.133l5.717,34.133l7.083,42.667h24.064
			c2.508,0.012,4.893-1.082,6.521-2.989c1.628-1.907,2.333-4.435,1.927-6.91L422.852,186.733z"/>
		<g>
			<path style="fill:#FEC108;" d="M428.313,219.501c0.406,2.475-0.299,5.002-1.927,6.91c-1.628,1.907-4.013,3.001-6.521,2.989
				h-24.064l-7.083-42.667h34.133L428.313,219.501z"/>
			<polygon style="fill:#FEC108;" points="417.135,152.6 383.001,152.6 377.369,118.467 411.417,118.467 			"/>
			<path style="fill:#FEC108;" d="M405.785,84.333h-34.133L365.935,50.2l26.88,0c4.196-0.015,7.779,3.025,8.448,7.168
				L405.785,84.333z"/>
		</g>
		<path style="fill:#00838F;" d="M425.668,374.467H58.735l58.539-359.595c0.622-4.194,4.208-7.309,8.448-7.339h232.96
			c4.24,0.03,7.826,3.145,8.448,7.339l5.888,36.352l11.435,69.888l5.632,34.901L395.801,191l7.083,43.691L425.668,374.467z"/>
		<path style="fill:#00BCD4;" d="M400.068,374.467H58.735l58.539-359.595c0.622-4.194,4.208-7.309,8.448-7.339h207.36
			c4.24,0.03,7.826,3.145,8.448,7.339l5.888,36.352l11.435,69.888l5.632,34.901L370.201,191l7.083,43.691L400.068,374.467z"/>
		<g>
			<path style="fill:#FEC108;" d="M304.069,178.2h42.534c2.448,0,4.777-1.051,6.397-2.886c1.62-1.835,2.374-4.277,2.07-6.706
				l-6.4-51.2c-0.534-4.27-4.164-7.475-8.467-7.475h-42.534c-2.448,0-4.777,1.051-6.397,2.886s-2.374,4.277-2.07,6.706l6.4,51.2
				C296.135,174.995,299.766,178.2,304.069,178.2z"/>
			<path style="fill:#FEC108;" d="M314.866,280.6H357.4c2.448,0,4.777-1.051,6.397-2.886s2.374-4.277,2.07-6.706l-6.4-51.2
				c-0.534-4.27-4.164-7.475-8.467-7.475h-42.534c-2.448,0-4.777,1.051-6.397,2.886c-1.62,1.835-2.374,4.277-2.07,6.706l6.4,51.2
				C306.932,277.395,310.563,280.6,314.866,280.6z"/>
		</g>
		<circle style="fill:#FFEB3A;" cx="127.001" cy="314.733" r="17.067"/>
		<polygon style="fill:#607D8B;" points="306.201,365.933 169.668,365.933 177.263,331.8 298.607,331.8 		"/>
		<polygon style="fill:#CFD8DC;" points="502.468,400.067 502.468,451.267 476.868,451.267 442.735,485.4 408.601,485.4 
			408.601,459.8 348.868,459.8 348.868,485.4 127.001,485.4 127.001,459.8 75.801,459.8 75.801,485.4 24.601,485.4 24.601,365.933 
			442.735,365.933 476.868,400.067 		"/>
		<g>
			<polygon style="fill:#37474F;" points="220.868,417.133 220.868,451.267 161.135,451.267 161.135,417.133 169.668,417.133 
				169.668,400.067 212.335,400.067 212.335,417.133 			"/>
			<polygon style="fill:#37474F;" points="314.735,417.133 314.735,451.267 255.001,451.267 255.001,417.133 263.535,417.133 
				263.535,400.067 306.201,400.067 306.201,417.133 			"/>
		</g>
		<g>
			<path style="fill:#FEC108;" d="M200.698,51.6l-12.777,76.8c-0.685,4.116-4.245,7.133-8.418,7.133h-33.899
				c-2.508,0-4.889-1.103-6.51-3.017c-1.621-1.913-2.319-4.443-1.907-6.917l12.777-76.8c0.685-4.116,4.245-7.133,8.418-7.133h33.899
				c2.508,0,4.889,1.103,6.51,3.017S201.11,49.127,200.698,51.6z"/>
			<path style="fill:#FEC108;" d="M170.668,263.533h-42.534c-2.448,0-4.777-1.051-6.397-2.886s-2.374-4.277-2.07-6.706l6.4-51.2
				c0.534-4.27,4.164-7.475,8.467-7.475h42.534c2.448,0,4.777,1.051,6.397,2.886c1.62,1.835,2.374,4.277,2.07,6.706l-6.4,51.2
				C178.602,260.329,174.972,263.533,170.668,263.533z"/>
		</g>
		<g>
			<path style="fill:#607D8B;" d="M41.668,365.933V485.4c0,9.426-7.641,17.067-17.067,17.067S7.535,494.826,7.535,485.4V365.933
				c0.028-9.414,7.652-17.039,17.067-17.067c4.528-0.024,8.871,1.793,12.032,5.035C39.875,357.063,41.692,361.406,41.668,365.933z"
				/>
			<polygon style="fill:#607D8B;" points="476.868,451.267 442.735,485.4 417.135,485.4 451.268,451.267 			"/>
			<polygon style="fill:#607D8B;" points="476.868,400.067 451.268,400.067 417.135,365.933 442.735,365.933 			"/>
			<rect x="476.868" y="400.067" style="fill:#607D8B;" width="25.6" height="51.2"/>
		</g>
	</g>
	<g>
		<path d="M503.468,392.533h-22.067L449.768,360.9c-1.6-1.6-3.77-2.5-6.034-2.5h-9.838l-19.912-119.467h13.958
			c5.017,0,9.78-2.207,13.023-6.036c3.243-3.829,4.636-8.89,3.81-13.839L417.756,56.921c-1.354-8.238-8.485-14.276-16.833-14.254
			h-19.649l-4.734-28.404C375.192,6.019,368.058-0.025,359.705,0H126.697c-8.351-0.025-15.485,6.017-16.833,14.258L52.506,358.4
			h-2.877c-4.132-11.753-16.141-18.808-28.418-16.697c-12.278,2.111-21.24,12.773-21.209,25.231V486.4
			c-0.031,12.458,8.932,23.12,21.209,25.231s24.287-4.945,28.418-16.697h27.172c4.713,0,8.533-3.82,8.533-8.533v-17.067h34.133
			V486.4c0,4.713,3.821,8.533,8.533,8.533h221.867c4.713,0,8.533-3.82,8.533-8.533v-17.067h42.667V486.4
			c0,4.713,3.82,8.533,8.533,8.533h34.133c2.263-0.001,4.433-0.9,6.033-2.5l31.634-31.633h22.067c4.713,0,8.533-3.821,8.533-8.533
			v-51.2C512.001,396.354,508.181,392.533,503.468,392.533z M415.144,145.067H398.34L395.496,128h16.804L415.144,145.067z
			 M401.185,162.133h16.803l2.844,17.067h-16.803L401.185,162.133z M409.455,110.933h-16.804l-2.844-17.067h16.804L409.455,110.933z
			 M411.14,221.867l-4.267-25.6h16.803l4.267,25.6H411.14z M400.922,59.733l2.844,17.067h-16.805l-2.844-17.067H400.922z
			 M126.697,17.067h233.008l56.89,341.333H314.046l-6.098-27.45c-0.867-3.905-4.329-6.683-8.329-6.683H178.251
			c-4,0-7.462,2.779-8.329,6.683l-6.098,27.45H69.808L126.697,17.067z M181.305,358.4l3.792-17.067h45.304V358.4H181.305z
			 M247.468,341.333h45.304l3.792,17.067h-49.096V341.333z M25.601,358.4c4.71,0.006,8.527,3.823,8.533,8.533v51.2H17.068v-51.2
			C17.074,362.223,20.891,358.406,25.601,358.4z M25.601,494.933c-4.71-0.006-8.527-3.823-8.533-8.533v-51.2h17.067v51.2
			C34.129,491.11,30.312,494.927,25.601,494.933z M494.935,443.733h-17.067c-2.263,0.001-4.433,0.9-6.033,2.5l-31.634,31.633
			h-22.067V460.8c0-4.713-3.82-8.533-8.533-8.533h-59.733c-4.713,0-8.533,3.82-8.533,8.533v17.067h-204.8V460.8
			c0-4.713-3.82-8.533-8.533-8.533h-51.2c-4.713,0-8.533,3.82-8.533,8.533v17.067H51.201v-102.4h389l31.633,31.633
			c1.6,1.6,3.77,2.5,6.034,2.5h17.067V443.733z"/>
		<path d="M221.868,409.6v-8.533c0-4.713-3.821-8.533-8.533-8.533h-42.667c-4.713,0-8.533,3.82-8.533,8.533v8.533
			c-4.713,0-8.533,3.821-8.533,8.533v34.133c0,4.713,3.821,8.533,8.533,8.533h59.733c4.713,0,8.533-3.821,8.533-8.533v-34.133
			C230.401,413.421,226.581,409.6,221.868,409.6z M213.335,443.733h-42.667v-17.067c4.713,0,8.533-3.821,8.533-8.533V409.6h25.6
			v8.533c0,4.713,3.821,8.533,8.533,8.533V443.733z"/>
		<path d="M315.735,409.6v-8.533c0-4.713-3.82-8.533-8.533-8.533h-42.667c-4.713,0-8.533,3.82-8.533,8.533v8.533
			c-4.713,0-8.533,3.821-8.533,8.533v34.133c0,4.713,3.82,8.533,8.533,8.533h59.733c4.713,0,8.533-3.821,8.533-8.533v-34.133
			C324.268,413.421,320.447,409.6,315.735,409.6z M307.201,443.733h-42.667v-17.067c4.713,0,8.533-3.821,8.533-8.533V409.6h25.6
			v8.533c0,4.713,3.82,8.533,8.533,8.533V443.733z"/>
		<path d="M146.606,145.067h33.9c8.352,0.021,15.485-6.024,16.833-14.267l12.775-76.796c0.823-4.948-0.572-10.008-3.814-13.835
			c-3.242-3.827-8.004-6.035-13.02-6.036h-33.9c-8.354-0.025-15.488,6.022-16.833,14.267l-12.775,76.796
			c-0.823,4.948,0.572,10.007,3.814,13.835C136.828,142.858,141.59,145.065,146.606,145.067z M159.381,51.2l33.9-0.021V51.2
			L180.505,128h-33.9L159.381,51.2z"/>
		<path d="M129.135,273.067h42.533c8.603-0.011,15.856-6.415,16.933-14.95l0.265-2.116h15.935c4.713,0,8.533-3.821,8.533-8.533
			c0-4.713-3.82-8.533-8.533-8.533h-13.802l2.133-17.067h11.669c4.713,0,8.533-3.821,8.533-8.533c0-4.713-3.82-8.533-8.533-8.533
			h-9.761c0.045-4.524-1.725-8.876-4.915-12.084c-3.19-3.208-7.533-5.002-12.057-4.982h-42.533
			c-8.603,0.011-15.856,6.415-16.933,14.95l-6.4,51.2c-0.607,4.857,0.901,9.741,4.14,13.411
			C119.581,270.964,124.24,273.066,129.135,273.067z M171.668,264.533V256h0.009L171.668,264.533z M135.535,204.8h42.533
			l-6.404,51.2h-42.529L135.535,204.8z"/>
		<path d="M288.135,172.783c1.077,8.535,8.331,14.939,16.933,14.95h42.533c4.895-0.001,9.554-2.104,12.793-5.773
			c3.24-3.669,4.749-8.553,4.144-13.41l-6.4-51.2c-1.079-8.536-8.334-14.94-16.937-14.95h-42.533c-4.895,0-9.554,2.103-12.793,5.772
			c-3.239,3.67-4.747,8.554-4.14,13.411L288.135,172.783z M341.205,119.467l6.396,51.2h-42.533l-6.4-51.2H341.205z"/>
		<path d="M352.001,204.8h-42.533c-4.895,0.001-9.554,2.104-12.794,5.773c-3.24,3.669-4.749,8.553-4.144,13.41l6.4,51.2
			c1.079,8.536,8.334,14.94,16.938,14.95h42.533c4.895,0,9.554-2.103,12.793-5.772c3.239-3.67,4.747-8.554,4.14-13.411l-6.4-51.2
			C367.858,211.215,360.604,204.811,352.001,204.8z M315.868,273.067l-6.4-51.2h42.533l6.4,51.2H315.868z"/>
		<path d="M264.535,76.8c3.45-0.014,6.556-2.096,7.879-5.282c1.323-3.187,0.606-6.856-1.82-9.31c-3.346-3.346-8.771-3.346-12.117,0
			c-3.346,3.346-3.346,8.771,0,12.117C260.112,75.883,262.276,76.767,264.535,76.8z"/>
		<path d="M341.335,76.8c3.45-0.014,6.556-2.096,7.879-5.282c1.323-3.187,0.606-6.856-1.82-9.31c-3.346-3.346-8.771-3.346-12.117,0
			c-3.346,3.346-3.346,8.771,0,12.117C336.912,75.883,339.076,76.767,341.335,76.8z"/>
		<path d="M298.668,76.8h8.533c4.713,0,8.533-3.821,8.533-8.533c0-4.713-3.82-8.533-8.533-8.533h-8.533
			c-4.713,0-8.533,3.821-8.533,8.533C290.135,72.98,293.955,76.8,298.668,76.8z"/>
		<path d="M128.001,290.133c-14.138,0-25.6,11.462-25.6,25.6s11.462,25.6,25.6,25.6s25.6-11.462,25.6-25.6
			C153.586,301.601,142.133,290.149,128.001,290.133z M128.001,324.267c-4.713,0-8.533-3.82-8.533-8.533s3.821-8.533,8.533-8.533
			s8.533,3.82,8.533,8.533C136.529,320.444,132.712,324.261,128.001,324.267z"/>
	</g>
</g>
<g>
</g>
<g>
</g>
<g>
</g>
<g>
</g>
<g>
</g>
<g>
</g>
<g>
</g>
<g>
</g>
<g>
</g>
<g>
</g>
<g>
</g>
<g>
</g>
<g>
</g>
<g>
</g>
<g>
</g>
</svg>
