<?xml version="1.0" encoding="iso-8859-1"?>
<!-- Generator: Adobe Illustrator 19.0.0, SVG Export Plug-In . SVG Version: 6.00 Build 0)  -->
<svg version="1.1" id="Capa_1" xmlns="http://www.w3.org/2000/svg" xmlns:xlink="http://www.w3.org/1999/xlink" x="0px" y="0px"
	 viewBox="0 0 512 512" style="enable-background:new 0 0 512 512;" xml:space="preserve">
<g>
	<g transform="translate(1 1)">
		<path style="fill:#37474F;" d="M101.4,7.533h307.2c14.138,0,25.6,11.462,25.6,25.6v443.733c0,14.138-11.462,25.6-25.6,25.6H101.4
			c-14.138,0-25.6-11.462-25.6-25.6V33.133C75.8,18.995,87.262,7.533,101.4,7.533z"/>
		<path style="fill:#607D8B;" d="M101.4,7.533H383c14.138,0,25.6,11.462,25.6,25.6v443.733c0,14.138-11.462,25.6-25.6,25.6H101.4
			c-14.138,0-25.6-11.462-25.6-25.6V33.133C75.8,18.995,87.262,7.533,101.4,7.533z"/>
		<path style="fill:#FFB301;" d="M374.467,255c-0.009,6.792,2.685,13.309,7.488,18.112c4.803,4.803,11.32,7.497,18.112,7.488v128
			l-59.733,59.733H169.667L109.933,408.6v-128c14.138,0,25.6-11.461,25.6-25.6c0-14.138-11.462-25.6-25.6-25.6v-128l59.733-59.733
			h170.667l59.733,59.733v128c-6.792-0.009-13.309,2.685-18.112,7.488S374.458,248.208,374.467,255z"/>
		<path style="fill:#FEC108;" d="M348.867,255c-0.009,6.792,2.685,13.309,7.488,18.112c4.803,4.803,11.32,7.497,18.112,7.488v128
			l-59.733,59.733H169.667L109.933,408.6v-128c14.138,0,25.6-11.461,25.6-25.6c0-14.138-11.462-25.6-25.6-25.6v-128l59.733-59.733
			h145.067l59.733,59.733v128c-6.792-0.009-13.309,2.685-18.112,7.488S348.858,248.208,348.867,255z"/>
		<g>
			<circle style="fill:#4CAF50;" cx="178.2" cy="383" r="34.133"/>
			<path style="fill:#4CAF50;" d="M186.733,75.8h136.533c4.713,0,8.533,3.821,8.533,8.533v25.6c0,4.713-3.82,8.533-8.533,8.533
				H186.733c-4.713,0-8.533-3.821-8.533-8.533v-25.6C178.2,79.621,182.021,75.8,186.733,75.8z"/>
		</g>
		<path style="fill:#CFD8DC;" d="M331.8,161.133v187.733c-0.014,4.707-3.826,8.52-8.533,8.533h-63.061
			c-3.377,0.009-6.679-1.002-9.472-2.901l-64.939-43.264c-4.758-3.139-7.614-8.465-7.595-14.165V161.133
			c0.014-4.707,3.826-8.52,8.533-8.533h136.533C327.974,152.614,331.786,156.426,331.8,161.133z"/>
	</g>
	<g>
		<path d="M409.6,512c18.843-0.02,34.113-15.29,34.133-34.133V34.133C443.713,15.29,428.443,0.02,409.6,0H102.4
			C83.557,0.02,68.287,15.29,68.267,34.133v443.733C68.287,496.71,83.557,511.98,102.4,512H409.6z M85.333,477.867V34.133
			c0.011-9.421,7.645-17.056,17.067-17.067h307.2c9.421,0.011,17.056,7.645,17.067,17.067v443.733
			c-0.011,9.421-7.645,17.056-17.067,17.067H102.4C92.979,494.923,85.344,487.288,85.333,477.867z"/>
		<path d="M110.933,51.2c0.542-0.016,1.083-0.073,1.617-0.171c0.566-0.082,1.115-0.255,1.625-0.513
			c0.543-0.188,1.059-0.447,1.533-0.771c0.449-0.313,0.878-0.654,1.284-1.021c3.3-3.365,3.3-8.752,0-12.117
			c-0.406-0.368-0.835-0.71-1.283-1.025c-0.475-0.324-0.99-0.583-1.533-0.771c-0.51-0.258-1.059-0.43-1.625-0.509
			c-2.78-0.504-5.633,0.352-7.675,2.304c-3.3,3.365-3.3,8.752,0,12.117C106.511,50.282,108.674,51.166,110.933,51.2z"/>
		<path d="M401.067,51.2c0.542-0.016,1.083-0.073,1.617-0.171c0.566-0.082,1.115-0.255,1.625-0.513
			c0.543-0.188,1.059-0.447,1.533-0.771c0.425-0.338,0.858-0.679,1.284-1.021c0.341-0.429,0.683-0.854,1.025-1.367
			c0.337-0.436,0.596-0.926,0.767-1.45c0.26-0.508,0.432-1.056,0.508-1.621c0.103-0.535,0.162-1.077,0.175-1.621
			c-0.017-0.573-0.076-1.144-0.175-1.708c-0.089-0.536-0.261-1.054-0.508-1.537c-0.189-0.542-0.446-1.057-0.767-1.533
			c-0.341-0.429-0.683-0.854-1.025-1.279c-0.425-0.341-0.858-0.683-1.283-1.025c-0.474-0.324-0.99-0.583-1.533-0.771
			c-0.51-0.258-1.059-0.43-1.625-0.508c-1.065-0.258-2.177-0.258-3.242,0c-0.563,0.079-1.11,0.25-1.617,0.508
			c-0.546,0.187-1.064,0.447-1.542,0.771l-1.275,1.025c-1.574,1.625-2.461,3.796-2.475,6.059c-0.022,2.27,0.87,4.453,2.475,6.058
			S398.797,51.222,401.067,51.2z"/>
		<path d="M408.15,464.638c-0.341-0.513-0.683-0.938-1.025-1.363c-3.421-3.158-8.695-3.158-12.117,0
			c-0.772,0.814-1.38,1.769-1.792,2.813c-0.438,1.027-0.67,2.13-0.683,3.246c0.014,2.263,0.9,4.433,2.475,6.059
			c0.425,0.341,0.85,0.683,1.275,1.021c0.477,0.324,0.996,0.583,1.542,0.771c0.507,0.257,1.053,0.431,1.617,0.513
			c0.537,0.098,1.08,0.155,1.625,0.171c0.542-0.016,1.083-0.073,1.617-0.171c0.566-0.082,1.115-0.255,1.625-0.512
			c0.543-0.188,1.059-0.447,1.533-0.771c0.425-0.337,0.858-0.679,1.283-1.021c0.341-0.429,0.683-0.854,1.025-1.279
			c0.321-0.477,0.579-0.994,0.767-1.538c0.247-0.483,0.419-1.002,0.508-1.537c0.104-0.563,0.162-1.132,0.175-1.704
			c-0.013-1.116-0.245-2.219-0.683-3.246C408.744,465.565,408.485,465.074,408.15,464.638z"/>
		<path d="M107.692,477.183c1.025,0.437,2.127,0.67,3.242,0.683c2.262-0.019,4.43-0.905,6.059-2.475c3.3-3.365,3.3-8.752,0-12.117
			c-0.425-0.341-0.858-0.683-1.283-1.025c-0.475-0.324-0.99-0.583-1.533-0.771c-0.51-0.258-1.059-0.43-1.625-0.508
			c-2.78-0.504-5.633,0.352-7.675,2.304c-3.3,3.365-3.3,8.752,0,12.117C105.678,476.18,106.638,476.79,107.692,477.183z"/>
		<path d="M164.634,475.366c1.6,1.601,3.77,2.5,6.033,2.5h170.667c2.263,0,4.434-0.899,6.033-2.5l59.733-59.733
			c1.6-1.6,2.5-3.77,2.5-6.033v-128c0.001-2.263-0.898-4.434-2.499-6.035c-1.6-1.6-3.771-2.499-6.035-2.499
			c-9.426,0-17.067-7.641-17.067-17.067c0-9.426,7.641-17.067,17.067-17.067c2.263,0.001,4.434-0.898,6.035-2.499
			c1.6-1.6,2.499-3.771,2.499-6.035v-128c-0.001-2.263-0.9-4.433-2.5-6.033l-59.733-59.733c-1.6-1.601-3.77-2.5-6.033-2.5H170.667
			c-2.263,0-4.434,0.899-6.033,2.5L104.9,96.367c-1.6,1.6-2.5,3.77-2.5,6.033v128c-0.001,2.263,0.898,4.434,2.499,6.035
			c1.6,1.6,3.771,2.499,6.035,2.499c9.426,0,17.067,7.641,17.067,17.067c0,9.426-7.641,17.067-17.067,17.067
			c-2.263-0.001-4.434,0.898-6.035,2.499c-1.6,1.6-2.499,3.771-2.499,6.035v128c0.001,2.263,0.9,4.433,2.5,6.033L164.634,475.366z
			 M119.467,289.054c15.071-3.894,25.6-17.488,25.6-33.054s-10.529-29.161-25.6-33.054V105.933L174.2,51.2h163.6l54.733,54.733
			v117.012c-15.071,3.894-25.6,17.488-25.6,33.054s10.529,29.161,25.6,33.054v117.013L337.8,460.8H174.2l-54.733-54.733V289.054z"/>
		<path d="M221.867,384c0-23.564-19.103-42.667-42.667-42.667S136.533,360.436,136.533,384c0,23.564,19.103,42.667,42.667,42.667
			C202.753,426.639,221.839,407.553,221.867,384z M153.6,384c0-14.138,11.462-25.6,25.6-25.6c14.138,0,25.6,11.462,25.6,25.6
			c0,14.138-11.462,25.6-25.6,25.6C165.068,409.585,153.615,398.132,153.6,384z"/>
		<path d="M185.259,390.059c0.366-0.407,0.708-0.834,1.025-1.279c0.321-0.477,0.579-0.994,0.767-1.538
			c0.247-0.483,0.419-1.002,0.508-1.537c0.103-0.563,0.162-1.133,0.175-1.705c0-4.713-3.82-8.533-8.533-8.533
			s-8.533,3.821-8.533,8.533c0.018,0.571,0.074,1.14,0.167,1.704c0.096,0.535,0.27,1.053,0.517,1.537
			c0.184,0.545,0.442,1.062,0.767,1.538c0.317,0.446,0.659,0.873,1.025,1.28C176.506,393.359,181.893,393.359,185.259,390.059
			L185.259,390.059z"/>
		<path d="M187.733,128h136.533c9.421-0.011,17.056-7.645,17.067-17.067v-25.6c-0.011-9.421-7.645-17.056-17.067-17.067H187.733
			c-9.421,0.011-17.056,7.645-17.067,17.067v25.6C170.677,120.355,178.312,127.989,187.733,128z M187.733,85.333h136.533l0.009,25.6
			h-25.609c0-4.713-3.821-8.533-8.533-8.533c-4.713,0-8.533,3.821-8.533,8.533h-17.067c0-4.713-3.821-8.533-8.533-8.533
			c-4.713,0-8.533,3.821-8.533,8.533H230.4c0-4.713-3.821-8.533-8.533-8.533c-4.713,0-8.533,3.821-8.533,8.533h-25.6V85.333z"/>
		<path d="M182.067,319.367l64.892,43.263c4.204,2.813,9.15,4.311,14.208,4.304h63.1c9.421-0.011,17.056-7.645,17.067-17.067
			V162.133c-0.011-9.421-7.645-17.056-17.067-17.067H187.733c-9.421,0.011-17.056,7.645-17.067,17.067v135.933
			C170.656,306.629,174.936,314.627,182.067,319.367z M187.733,162.133l136.533,0.025v153.575h-51.2
			c-4.713,0-8.533,3.821-8.533,8.533s3.82,8.533,8.533,8.533h51.2v17.067h-63.1c-1.685,0.001-3.332-0.498-4.733-1.434l-64.9-43.267
			c-2.377-1.58-3.804-4.246-3.8-7.1V162.133z"/>
		<path d="M221.867,213.333c2.263,0.001,4.434-0.898,6.035-2.499c1.6-1.6,2.499-3.771,2.499-6.035v-17.067
			c0-4.713-3.821-8.533-8.533-8.533c-4.713,0-8.533,3.821-8.533,8.533V204.8c-0.001,2.263,0.898,4.434,2.499,6.035
			S219.603,213.334,221.867,213.333z"/>
		<path d="M256,213.333c2.263,0.001,4.434-0.898,6.035-2.499s2.499-3.771,2.499-6.035v-17.067c0-4.713-3.821-8.533-8.533-8.533
			c-4.713,0-8.533,3.821-8.533,8.533V204.8c-0.001,2.263,0.898,4.434,2.499,6.035C251.566,212.435,253.737,213.334,256,213.333z"/>
		<path d="M290.133,213.333c2.263,0.001,4.434-0.898,6.035-2.499c1.6-1.6,2.499-3.771,2.499-6.035v-17.067
			c0-4.713-3.821-8.533-8.533-8.533c-4.713,0-8.533,3.821-8.533,8.533V204.8c-0.001,2.263,0.898,4.434,2.499,6.035
			S287.87,213.334,290.133,213.333z"/>
	</g>
</g>
<g>
</g>
<g>
</g>
<g>
</g>
<g>
</g>
<g>
</g>
<g>
</g>
<g>
</g>
<g>
</g>
<g>
</g>
<g>
</g>
<g>
</g>
<g>
</g>
<g>
</g>
<g>
</g>
<g>
</g>
</svg>
