<?xml version="1.0" encoding="iso-8859-1"?>
<!-- Generator: Adobe Illustrator 19.0.0, SVG Export Plug-In . SVG Version: 6.00 Build 0)  -->
<svg version="1.1" id="Capa_1" xmlns="http://www.w3.org/2000/svg" xmlns:xlink="http://www.w3.org/1999/xlink" x="0px" y="0px"
	 viewBox="0 0 512 512" style="enable-background:new 0 0 512 512;" xml:space="preserve">
<g>
	<g transform="translate(1 1)">
		<polygon style="fill:#F57C00;" points="289.133,7.533 255,7.533 220.867,7.533 220.867,67.267 255,67.267 289.133,67.267 
			323.267,67.267 323.267,7.533 		"/>
		<path style="fill:#558B30;" d="M400.067,92.867c-0.009,6.792,2.685,13.309,7.488,18.112c4.803,4.803,11.32,7.497,18.112,7.488
			V485.4c-0.028,9.414-7.652,17.039-17.067,17.067H383c9.414-0.028,17.039-7.653,17.067-17.067V118.467
			c-14.138,0-25.6-11.462-25.6-25.6s11.462-25.6,25.6-25.6V24.6C400.039,15.186,392.414,7.561,383,7.533h25.6
			c9.414,0.028,17.039,7.652,17.067,17.067v42.667c-6.792-0.009-13.309,2.685-18.112,7.488
			C402.752,79.558,400.058,86.074,400.067,92.867z"/>
		<path style="fill:#8BC34A;" d="M374.467,92.867c-0.009,6.792,2.685,13.309,7.488,18.112c4.803,4.803,11.32,7.497,18.112,7.488
			V485.4c-0.028,9.414-7.652,17.039-17.067,17.067H101.4c-9.414-0.028-17.039-7.653-17.067-17.067V118.467
			c14.138,0,25.6-11.462,25.6-25.6s-11.462-25.6-25.6-25.6V24.6c0.028-9.414,7.652-17.039,17.067-17.067h85.333v34.133H357.4V7.533
			H383c9.414,0.028,17.039,7.652,17.067,17.067v42.667c-6.792-0.009-13.309,2.685-18.112,7.488
			C377.152,79.558,374.458,86.074,374.467,92.867z"/>
		<rect x="255" y="7.533" style="fill:#FF9801;" width="34.133" height="34.133"/>
		<g>
			<path style="fill:#3F51B5;" d="M127,331.8h25.6c4.713,0,8.533,3.82,8.533,8.533v85.333c0,4.713-3.821,8.533-8.533,8.533H127
				c-4.713,0-8.533-3.82-8.533-8.533v-85.333C118.467,335.621,122.287,331.8,127,331.8z"/>
			<path style="fill:#3F51B5;" d="M203.8,331.8h25.6c4.713,0,8.533,3.82,8.533,8.533v85.333c0,4.713-3.821,8.533-8.533,8.533h-25.6
				c-4.713,0-8.533-3.82-8.533-8.533v-85.333C195.267,335.621,199.087,331.8,203.8,331.8z"/>
			<path style="fill:#3F51B5;" d="M280.6,331.8h25.6c4.713,0,8.533,3.82,8.533,8.533v85.333c0,4.713-3.82,8.533-8.533,8.533h-25.6
				c-4.713,0-8.533-3.82-8.533-8.533v-85.333C272.067,335.621,275.887,331.8,280.6,331.8z"/>
			<path style="fill:#3F51B5;" d="M357.4,331.8H383c4.713,0,8.533,3.82,8.533,8.533v85.333c0,4.713-3.82,8.533-8.533,8.533h-25.6
				c-4.713,0-8.533-3.82-8.533-8.533v-85.333C348.867,335.621,352.687,331.8,357.4,331.8z"/>
			<path style="fill:#3F51B5;" d="M161.133,263.533v25.6c0,4.713-3.821,8.533-8.533,8.533H127c-4.713,0-8.533-3.821-8.533-8.533
				V203.8c0-4.713,3.821-8.533,8.533-8.533h25.6c4.713,0,8.533,3.821,8.533,8.533v25.6"/>
			<path style="fill:#3F51B5;" d="M195.267,263.533v25.6c0,4.713,3.821,8.533,8.533,8.533h25.6c4.713,0,8.533-3.821,8.533-8.533
				V203.8c0-4.713-3.821-8.533-8.533-8.533h-25.6c-4.713,0-8.533,3.821-8.533,8.533V263.533z"/>
			<path style="fill:#3F51B5;" d="M272.067,263.533v25.6c0,4.713,3.82,8.533,8.533,8.533h25.6c4.713,0,8.533-3.821,8.533-8.533
				V203.8c0-4.713-3.82-8.533-8.533-8.533h-25.6c-4.713,0-8.533,3.821-8.533,8.533V263.533z"/>
			<path style="fill:#3F51B5;" d="M348.867,263.533v25.6c0,4.713,3.82,8.533,8.533,8.533H383c4.713,0,8.533-3.821,8.533-8.533V203.8
				c0-4.713-3.82-8.533-8.533-8.533h-25.6c-4.713,0-8.533,3.821-8.533,8.533v25.6"/>
		</g>
		<path style="fill:#FFFFFF;" d="M161.133,229.4h187.733c4.713,0,8.533,3.821,8.533,8.533V255c0,4.713-3.821,8.533-8.533,8.533
			H161.133c-4.713,0-8.533-3.821-8.533-8.533v-17.067C152.6,233.221,156.421,229.4,161.133,229.4z"/>
		<rect x="272.067" y="101.4" style="fill:#3F51B5;" width="59.733" height="59.733"/>
	</g>
	<g>
		<path d="M85.333,110.933c-2.263-0.001-4.434,0.898-6.035,2.499c-1.6,1.6-2.499,3.771-2.499,6.035V486.4
			c0.015,14.132,11.468,25.585,25.6,25.6h307.2c14.132-0.015,25.585-11.468,25.6-25.6V119.467c0.001-2.263-0.898-4.434-2.499-6.035
			c-1.6-1.6-3.771-2.499-6.035-2.499c-9.426,0-17.067-7.641-17.067-17.067S417.241,76.8,426.667,76.8
			c2.263,0.001,4.434-0.898,6.035-2.499c1.6-1.6,2.499-3.771,2.499-6.035V25.6C435.185,11.468,423.732,0.015,409.6,0h-51.2
			c-2.263-0.001-4.434,0.898-6.035,2.499c-1.6,1.6-2.499,3.771-2.499,6.035v25.6H332.8v-25.6c0.001-2.263-0.898-4.434-2.499-6.035
			c-1.6-1.6-3.771-2.499-6.035-2.499h-102.4c-2.263-0.001-4.434,0.898-6.035,2.499s-2.499,3.771-2.499,6.035v25.6h-17.067v-25.6
			c0.001-2.263-0.898-4.434-2.499-6.035c-1.6-1.6-3.771-2.499-6.035-2.499H102.4C88.268,0.015,76.815,11.468,76.8,25.6v42.667
			c-0.001,2.263,0.898,4.434,2.499,6.035c1.6,1.6,3.771,2.499,6.035,2.499c9.426,0,17.067,7.641,17.067,17.067
			S94.759,110.933,85.333,110.933z M315.733,34.133h-17.067V17.067h17.067V34.133z M264.533,17.067H281.6v17.067h-17.067V17.067z
			 M230.4,17.067h17.067v17.067H230.4V17.067z M93.867,60.812V25.6c0.005-4.711,3.822-8.529,8.533-8.533h76.8v51.2
			c0,4.713,3.821,8.533,8.533,8.533c4.713,0,8.533-3.82,8.533-8.533V51.2h17.067v17.067c0,4.713,3.821,8.533,8.533,8.533
			c4.713,0,8.533-3.82,8.533-8.533V51.2h17.067v17.067c0,4.713,3.821,8.533,8.533,8.533c4.713,0,8.533-3.82,8.533-8.533V51.2H281.6
			v17.067c0,4.713,3.821,8.533,8.533,8.533c4.713,0,8.533-3.82,8.533-8.533V51.2h17.067v17.067c0,4.713,3.821,8.533,8.533,8.533
			s8.533-3.82,8.533-8.533V51.2h17.067v17.067c0,4.713,3.82,8.533,8.533,8.533s8.533-3.82,8.533-8.533v-51.2H409.6
			c4.711,0.005,8.529,3.822,8.533,8.533v35.212c-15.071,3.894-25.6,17.488-25.6,33.054s10.529,29.161,25.6,33.054V486.4
			c-0.005,4.711-3.822,8.529-8.533,8.533H102.4c-4.711-0.005-8.529-3.822-8.533-8.533V126.921c15.071-3.894,25.6-17.488,25.6-33.054
			S108.938,64.706,93.867,60.812z"/>
		<path d="M121.175,51.029c0.533-0.096,1.05-0.269,1.533-0.513c0.524-0.171,1.015-0.432,1.45-0.771
			c0.46-0.297,0.89-0.639,1.283-1.021c1.597-1.617,2.513-3.786,2.558-6.059c0.001-2.859-1.445-5.525-3.842-7.083
			c-0.435-0.339-0.926-0.6-1.45-0.771c-0.483-0.244-1-0.416-1.533-0.509c-2.811-0.561-5.717,0.301-7.767,2.304
			c-1.561,1.634-2.445,3.799-2.475,6.059c0.014,1.115,0.246,2.216,0.683,3.242c0.433,1.034,1.039,1.987,1.792,2.817
			c1.627,1.572,3.796,2.459,6.058,2.475C120.039,51.184,120.61,51.127,121.175,51.029z"/>
		<path d="M386.475,48.725c1.636,1.558,3.8,2.441,6.059,2.475c0.542-0.016,1.083-0.073,1.617-0.171
			c0.566-0.082,1.115-0.255,1.625-0.513c0.543-0.188,1.059-0.447,1.533-0.771c0.425-0.338,0.858-0.679,1.284-1.021
			c0.771-0.816,1.379-1.772,1.792-2.817c0.911-2.067,0.911-4.421,0-6.487c-0.391-1.054-1.002-2.013-1.792-2.813
			c-0.406-0.368-0.835-0.71-1.283-1.025c-0.475-0.324-0.99-0.583-1.533-0.771c-0.51-0.258-1.059-0.43-1.625-0.508
			c-2.783-0.561-5.661,0.303-7.675,2.304c-0.772,0.814-1.38,1.769-1.792,2.813c-0.911,2.067-0.911,4.421,0,6.487
			C385.116,46.942,385.721,47.895,386.475,48.725z"/>
		<path d="M119.467,162.133c0.573-0.02,1.143-0.077,1.708-0.171c0.533-0.096,1.05-0.269,1.533-0.513
			c0.524-0.171,1.015-0.432,1.45-0.771c0.479-0.271,0.912-0.615,1.283-1.021c0.392-0.406,0.762-0.833,1.108-1.279
			c0.321-0.477,0.579-0.994,0.767-1.538c0.247-0.483,0.419-1.002,0.508-1.537c0.104-0.563,0.162-1.132,0.175-1.704
			c-0.017-0.573-0.076-1.144-0.175-1.708c-0.089-0.536-0.261-1.054-0.508-1.537c-0.189-0.542-0.446-1.057-0.767-1.533
			c-0.344-0.448-0.714-0.875-1.108-1.279c-0.394-0.382-0.824-0.725-1.283-1.025c-0.435-0.339-0.926-0.6-1.45-0.771
			c-0.483-0.244-1-0.416-1.533-0.508c-2.811-0.575-5.724,0.289-7.767,2.304c-2.461,2.441-3.201,6.129-1.872,9.331
			C112.866,160.074,116,162.153,119.467,162.133z"/>
		<path d="M384.683,156.842c0.184,0.545,0.442,1.062,0.767,1.538c0.341,0.425,0.683,0.85,1.025,1.279c3.365,3.3,8.752,3.3,12.117,0
			c1.571-1.627,2.457-3.796,2.475-6.058c-0.013-1.116-0.245-2.219-0.683-3.246c-0.412-1.044-1.02-1.998-1.792-2.813
			c-2.441-2.461-6.129-3.201-9.33-1.871c-3.201,1.329-5.281,4.463-5.261,7.93c0.018,0.571,0.074,1.14,0.167,1.704
			C384.263,155.839,384.437,156.357,384.683,156.842z"/>
		<path d="M113.408,475.392c1.627,1.572,3.796,2.459,6.059,2.475c0.573-0.016,1.144-0.073,1.708-0.171
			c0.533-0.096,1.05-0.269,1.533-0.512c0.524-0.171,1.015-0.432,1.45-0.771c0.46-0.297,0.89-0.639,1.283-1.021
			c1.597-1.617,2.513-3.786,2.558-6.059c-0.013-0.573-0.071-1.144-0.175-1.708c-0.089-0.536-0.261-1.054-0.508-1.537
			c-0.189-0.542-0.446-1.057-0.767-1.533c-0.344-0.448-0.714-0.875-1.108-1.279c-0.371-0.407-0.804-0.753-1.283-1.025
			c-0.435-0.339-0.926-0.6-1.45-0.771c-0.483-0.244-1-0.416-1.533-0.508c-2.811-0.575-5.724,0.289-7.767,2.304
			c-1.561,1.634-2.445,3.799-2.475,6.059c0.014,1.115,0.246,2.216,0.683,3.242C112.049,473.609,112.655,474.562,113.408,475.392z"/>
		<path d="M398.592,463.275c-0.425-0.341-0.858-0.683-1.283-1.025c-0.475-0.324-0.99-0.583-1.533-0.771
			c-0.51-0.258-1.059-0.43-1.625-0.508c-2.78-0.518-5.64,0.34-7.675,2.304c-0.753,0.829-1.359,1.78-1.792,2.813
			c-0.911,2.066-0.911,4.421,0,6.487c0.433,1.034,1.039,1.987,1.792,2.817c1.636,1.558,3.799,2.442,6.058,2.476
			c0.542-0.016,1.083-0.073,1.617-0.171c0.566-0.082,1.115-0.255,1.625-0.512c0.543-0.188,1.059-0.447,1.533-0.771
			c0.449-0.313,0.878-0.654,1.284-1.021c0.771-0.816,1.379-1.772,1.792-2.817c0.911-2.067,0.911-4.421,0-6.487
			C399.972,465.044,399.364,464.089,398.592,463.275z"/>
		<path d="M119.467,443.733h42.667c2.263,0.001,4.434-0.898,6.035-2.499s2.499-3.771,2.499-6.035V332.8
			c0.001-2.263-0.898-4.434-2.499-6.035c-1.6-1.6-3.771-2.499-6.035-2.499h-42.667c-2.263-0.001-4.434,0.898-6.035,2.499
			c-1.6,1.6-2.499,3.771-2.499,6.035v102.4c-0.001,2.263,0.898,4.434,2.499,6.035C115.032,442.835,117.203,443.734,119.467,443.733z
			 M128,341.333h25.6v85.333H128V341.333z"/>
		<path d="M238.933,324.267h-42.667c-2.263-0.001-4.434,0.898-6.035,2.499c-1.6,1.6-2.499,3.771-2.499,6.035v102.4
			c-0.001,2.263,0.898,4.434,2.499,6.035c1.6,1.6,3.771,2.499,6.035,2.499h42.667c2.263,0.001,4.434-0.898,6.035-2.499
			c1.6-1.6,2.499-3.771,2.499-6.035V332.8c0.001-2.263-0.898-4.434-2.499-6.035C243.368,325.165,241.197,324.266,238.933,324.267z
			 M230.4,426.667h-25.6v-85.333h25.6V426.667z"/>
		<path d="M315.733,324.267h-42.667c-2.263-0.001-4.434,0.898-6.035,2.499c-1.6,1.6-2.499,3.771-2.499,6.035v102.4
			c-0.001,2.263,0.898,4.434,2.499,6.035s3.771,2.499,6.035,2.499h42.667c2.263,0.001,4.434-0.898,6.035-2.499
			s2.499-3.771,2.499-6.035V332.8c0.001-2.263-0.898-4.434-2.499-6.035C320.168,325.165,317.997,324.266,315.733,324.267z
			 M307.2,426.667h-25.6v-85.333h25.6V426.667z"/>
		<path d="M392.533,324.267h-42.667c-2.263-0.001-4.434,0.898-6.035,2.499c-1.6,1.6-2.499,3.771-2.499,6.035v102.4
			c-0.001,2.263,0.898,4.434,2.499,6.035s3.771,2.499,6.035,2.499h42.667c2.263,0.001,4.434-0.898,6.035-2.499
			c1.6-1.6,2.499-3.771,2.499-6.035V332.8c0.001-2.263-0.898-4.434-2.499-6.035C396.968,325.165,394.797,324.266,392.533,324.267z
			 M384,426.667h-25.6v-85.333H384V426.667z"/>
		<path d="M119.467,307.2h42.667c2.263,0.001,4.434-0.898,6.035-2.499c1.6-1.6,2.499-3.771,2.499-6.035v-25.6h17.067v25.6
			c-0.001,2.263,0.898,4.434,2.499,6.035c1.6,1.6,3.771,2.499,6.035,2.499h42.667c2.263,0.001,4.434-0.898,6.035-2.499
			c1.6-1.6,2.499-3.771,2.499-6.035v-25.6h17.067v25.6c-0.001,2.263,0.898,4.434,2.499,6.035c1.6,1.6,3.771,2.499,6.035,2.499
			h42.667c2.263,0.001,4.434-0.898,6.035-2.499c1.6-1.6,2.499-3.771,2.499-6.035v-25.6h17.067v25.6
			c-0.001,2.263,0.898,4.434,2.499,6.035c1.6,1.6,3.771,2.499,6.035,2.499h42.667c2.263,0.001,4.434-0.898,6.035-2.499
			c1.6-1.6,2.499-3.771,2.499-6.035v-102.4c0.001-2.263-0.898-4.434-2.499-6.035c-1.6-1.6-3.771-2.499-6.035-2.499h-42.667
			c-2.263-0.001-4.434,0.898-6.035,2.499c-1.6,1.6-2.499,3.771-2.499,6.035v25.6h-17.067v-25.6c0.001-2.263-0.898-4.434-2.499-6.035
			c-1.6-1.6-3.771-2.499-6.035-2.499h-42.667c-2.263-0.001-4.434,0.898-6.035,2.499c-1.6,1.6-2.499,3.771-2.499,6.035v25.6h-17.067
			v-25.6c0.001-2.263-0.898-4.434-2.499-6.035c-1.6-1.6-3.771-2.499-6.035-2.499h-42.667c-2.263-0.001-4.434,0.898-6.035,2.499
			c-1.6,1.6-2.499,3.771-2.499,6.035v25.6h-17.067v-25.6c0.001-2.263-0.898-4.434-2.499-6.035c-1.6-1.6-3.771-2.499-6.035-2.499
			h-42.667c-2.263-0.001-4.434,0.898-6.035,2.499c-1.6,1.6-2.499,3.771-2.499,6.035v102.4c-0.001,2.263,0.898,4.434,2.499,6.035
			C115.032,306.302,117.203,307.201,119.467,307.2z M349.867,238.933L349.875,256H162.133v-17.067H349.867z M230.4,290.133h-25.6
			v-17.067h25.6V290.133z M307.2,290.133h-25.6v-17.067h25.6V290.133z M384,204.8v85.333h-25.6v-19.441
			c5.262-3.025,8.513-8.623,8.533-14.692v-17.067c-0.02-6.069-3.272-11.668-8.533-14.692V204.8H384z M281.6,204.8h25.6v17.067h-25.6
			V204.8z M204.8,204.8h25.6v17.067h-25.6V204.8z M128,204.8h25.6v19.441c-5.262,3.025-8.513,8.623-8.533,14.692V256
			c0.02,6.069,3.272,11.668,8.533,14.692v19.441H128V204.8z"/>
		<path d="M273.067,170.667H332.8c2.263,0.001,4.434-0.898,6.035-2.499c1.6-1.6,2.499-3.771,2.499-6.035V102.4
			c0.001-2.263-0.898-4.434-2.499-6.035s-3.771-2.499-6.035-2.499h-59.733c-2.263-0.001-4.434,0.898-6.035,2.499
			s-2.499,3.771-2.499,6.035v59.733c-0.001,2.263,0.898,4.434,2.499,6.035C268.632,169.768,270.803,170.667,273.067,170.667z
			 M281.6,110.933h42.667V153.6H281.6V110.933z"/>
	</g>
</g>
<g>
</g>
<g>
</g>
<g>
</g>
<g>
</g>
<g>
</g>
<g>
</g>
<g>
</g>
<g>
</g>
<g>
</g>
<g>
</g>
<g>
</g>
<g>
</g>
<g>
</g>
<g>
</g>
<g>
</g>
</svg>
