<?xml version="1.0" encoding="iso-8859-1"?>
<!-- Generator: Adobe Illustrator 19.0.0, SVG Export Plug-In . SVG Version: 6.00 Build 0)  -->
<svg version="1.1" id="Capa_1" xmlns="http://www.w3.org/2000/svg" xmlns:xlink="http://www.w3.org/1999/xlink" x="0px" y="0px"
	 viewBox="0 0 512 512" style="enable-background:new 0 0 512 512;" xml:space="preserve">
<g>
	<g transform="translate(1 1)">
		<path style="fill:#37474F;" d="M101.4,7.533h307.2c9.426,0,17.067,7.641,17.067,17.067v460.8c0,9.426-7.641,17.067-17.067,17.067
			H101.4c-9.426,0-17.067-7.641-17.067-17.067V24.6C84.333,15.174,91.974,7.533,101.4,7.533z"/>
		<g>
			<path style="fill:#607D8B;" d="M101.4,7.533H383c9.426,0,17.067,7.641,17.067,17.067v460.8c0,9.426-7.641,17.067-17.067,17.067
				H101.4c-9.426,0-17.067-7.641-17.067-17.067V24.6C84.333,15.174,91.974,7.533,101.4,7.533z"/>
			<path style="fill:#607D8B;" d="M323.267,41.667v25.6c-0.014,4.707-3.826,8.519-8.533,8.533h-153.6
				c-4.707-0.014-8.519-3.826-8.533-8.533v-25.6H323.267z"/>
		</g>
		<path style="fill:#CFD8DC;" d="M297.667,41.667v25.6c-0.014,4.707-3.826,8.519-8.533,8.533h-128
			c-4.707-0.014-8.519-3.826-8.533-8.533v-25.6H297.667z"/>
		<rect x="152.6" y="7.533" style="fill:#FF9801;" width="170.667" height="34.133"/>
		<path style="fill:#F57C00;" d="M383,118.467v307.2c-0.014,4.707-3.826,8.519-8.533,8.533H178.2l162.133-324.267h34.133
			C379.174,109.947,382.986,113.76,383,118.467z"/>
		<path style="fill:#FF9801;" d="M357.4,118.467v307.2c-0.014,4.707-3.826,8.519-8.533,8.533H178.2l162.133-324.267h8.533
			C353.574,109.947,357.386,113.76,357.4,118.467z"/>
		<path style="fill:#FFEB3A;" d="M340.333,109.933L178.2,434.2h-42.667c-4.707-0.014-8.519-3.826-8.533-8.533v-307.2
			c0.014-4.707,3.826-8.519,8.533-8.533H340.333z"/>
		<path style="fill:#FFFFFF;" d="M169.667,144.067H203.8c4.713,0,8.533,3.82,8.533,8.533v59.733c0,4.713-3.82,8.533-8.533,8.533
			h-34.133c-4.713,0-8.533-3.821-8.533-8.533V152.6C161.133,147.887,164.954,144.067,169.667,144.067z"/>
		<g>
			<rect x="186.733" y="7.533" style="fill:#FF9801;" width="34.133" height="34.133"/>
			<rect x="255" y="7.533" style="fill:#FF9801;" width="34.133" height="34.133"/>
		</g>
	</g>
	<g>
		<path d="M409.6,512c14.132-0.015,25.585-11.468,25.6-25.6V25.6C435.185,11.468,423.732,0.015,409.6,0H102.4
			C88.268,0.015,76.815,11.468,76.8,25.6v460.8c0.015,14.132,11.468,25.585,25.6,25.6H409.6z M162.133,34.133V17.067H179.2v17.067
			H162.133z M162.133,51.2h153.6v17.067h-153.6V51.2z M230.4,34.133V17.067h17.067v17.067H230.4z M315.733,34.133h-17.067V17.067
			h17.067V34.133z M281.6,34.133h-17.067V17.067H281.6V34.133z M213.333,17.067v17.067h-17.067V17.067H213.333z M93.867,486.4V25.6
			c0.005-4.711,3.822-8.529,8.533-8.533h42.667v51.2c0.011,9.421,7.645,17.056,17.067,17.067h153.6
			c9.421-0.011,17.056-7.645,17.067-17.067v-51.2h76.8c4.711,0.005,8.529,3.822,8.533,8.533v460.8
			c-0.005,4.711-3.822,8.529-8.533,8.533H102.4C97.689,494.929,93.871,491.111,93.867,486.4z"/>
		<path d="M113.408,48.725c0.425,0.341,0.85,0.683,1.275,1.021c0.477,0.324,0.996,0.583,1.542,0.771
			c0.483,0.245,1,0.418,1.534,0.512c0.565,0.098,1.136,0.155,1.708,0.171c0.542-0.016,1.083-0.073,1.617-0.171
			c0.566-0.082,1.115-0.255,1.625-0.513c0.543-0.188,1.059-0.447,1.533-0.771c0.425-0.338,0.858-0.679,1.284-1.021
			c0.771-0.816,1.379-1.772,1.792-2.817c0.911-2.067,0.911-4.421,0-6.487c-0.412-1.044-1.02-1.999-1.792-2.813
			c-0.406-0.368-0.835-0.71-1.283-1.025c-0.475-0.324-0.99-0.583-1.533-0.771c-0.51-0.258-1.059-0.43-1.625-0.508
			c-1.093-0.258-2.232-0.258-3.325,0c-0.534,0.091-1.051,0.263-1.533,0.508c-0.546,0.187-1.064,0.447-1.542,0.771
			c-0.446,0.315-0.872,0.657-1.275,1.025c-0.79,0.8-1.4,1.759-1.792,2.813c-0.911,2.067-0.911,4.421,0,6.487
			C112.029,46.953,112.637,47.909,113.408,48.725z"/>
		<path d="M387.75,49.746c0.477,0.324,0.996,0.583,1.542,0.771c0.483,0.245,1,0.418,1.533,0.513
			c0.565,0.098,1.136,0.155,1.708,0.171c0.542-0.016,1.083-0.073,1.617-0.171c0.566-0.082,1.115-0.255,1.625-0.513
			c0.543-0.188,1.059-0.447,1.533-0.771c0.425-0.338,0.858-0.679,1.284-1.021c3.3-3.365,3.3-8.752,0-12.117
			c-2.441-2.461-6.129-3.201-9.331-1.872c-3.202,1.329-5.281,4.463-5.261,7.93c0.03,2.26,0.914,4.424,2.475,6.059
			C386.9,49.067,387.325,49.408,387.75,49.746z"/>
		<path d="M113.408,475.392c0.403,0.367,0.829,0.708,1.275,1.021c0.477,0.324,0.996,0.583,1.542,0.771
			c0.483,0.245,1,0.418,1.533,0.513c0.565,0.098,1.136,0.155,1.709,0.171c0.542-0.016,1.083-0.073,1.617-0.171
			c0.566-0.082,1.115-0.255,1.625-0.512c0.543-0.188,1.059-0.447,1.533-0.771c0.449-0.313,0.878-0.654,1.284-1.021
			c0.771-0.816,1.379-1.772,1.792-2.817c0.911-2.067,0.911-4.421,0-6.487c-0.433-1.033-1.039-1.984-1.792-2.813
			c-0.425-0.341-0.858-0.683-1.283-1.025c-0.475-0.324-0.99-0.583-1.533-0.771c-0.51-0.258-1.059-0.43-1.625-0.508
			c-1.093-0.258-2.232-0.258-3.325,0c-0.534,0.091-1.051,0.263-1.533,0.508c-0.546,0.187-1.064,0.447-1.542,0.771l-1.276,1.024
			c-0.772,0.814-1.38,1.769-1.792,2.813c-0.911,2.067-0.911,4.421,0,6.487C112.008,473.629,112.619,474.589,113.408,475.392z"/>
		<path d="M386.475,463.275c-3.3,3.365-3.3,8.752,0,12.117c3.365,3.3,8.752,3.3,12.117,0c3.346-3.346,3.346-8.771,0-12.117
			S389.821,459.929,386.475,463.275z"/>
		<path d="M119.467,119.467v307.2c0.011,9.421,7.645,17.056,17.067,17.067h238.933c9.421-0.011,17.056-7.645,17.067-17.067v-307.2
			c-0.011-9.421-7.645-17.056-17.067-17.067H136.533C127.112,102.411,119.477,110.045,119.467,119.467z M375.475,426.667H193.008
			l153.6-307.2h28.858L375.475,426.667z M136.533,119.467h190.992l-153.6,307.2h-37.392V119.467z"/>
		<path d="M204.8,230.4c9.421-0.011,17.056-7.645,17.067-17.067V153.6c-0.011-9.421-7.645-17.056-17.067-17.067h-34.133
			c-9.421,0.011-17.056,7.645-17.067,17.067v59.733c0.011,9.421,7.645,17.056,17.067,17.067H204.8z M170.667,153.6H204.8
			l0.009,59.733h-34.142V153.6z"/>
	</g>
</g>
<g>
</g>
<g>
</g>
<g>
</g>
<g>
</g>
<g>
</g>
<g>
</g>
<g>
</g>
<g>
</g>
<g>
</g>
<g>
</g>
<g>
</g>
<g>
</g>
<g>
</g>
<g>
</g>
<g>
</g>
</svg>
