<?xml version="1.0" encoding="iso-8859-1"?>
<!-- Generator: Adobe Illustrator 19.0.0, SVG Export Plug-In . SVG Version: 6.00 Build 0)  -->
<svg version="1.1" id="Capa_1" xmlns="http://www.w3.org/2000/svg" xmlns:xlink="http://www.w3.org/1999/xlink" x="0px" y="0px"
	 viewBox="0 0 512 512" style="enable-background:new 0 0 512 512;" xml:space="preserve">
<g>
	<g transform="translate(5 1)">
		<path style="fill:#2296F3;" d="M481.4,50.2H37.667v366.933h51.2V383c0.014-4.707,3.826-8.519,8.533-8.533h17.067
			c4.707,0.014,8.519,3.826,8.533,8.533v34.133h34.133v-25.6c0.013-5.029,2.239-9.797,6.086-13.036
			c3.847-3.239,8.925-4.62,13.882-3.775c4.912,0.884,9.17,3.921,11.605,8.277c1.67,2.909,2.552,6.203,2.56,9.557v24.576h204.8V383
			c0.014-4.707,3.826-8.519,8.533-8.533h76.8c9.414-0.028,17.039-7.652,17.067-17.067V67.267
			C498.439,57.852,490.814,50.228,481.4,50.2z"/>
		<rect x="396.067" y="118.467" style="fill:#CFD8DC;" width="102.4" height="187.733"/>
		<path style="fill:#FF9801;" d="M361.933,383H188.707c1.67,2.909,2.552,6.203,2.56,9.557v24.576h204.8V383H361.933z"/>
		<g>
			<rect x="225.4" y="383" style="fill:#F57C00;" width="34.133" height="34.133"/>
			<rect x="293.667" y="383" style="fill:#F57C00;" width="34.133" height="34.133"/>
			<rect x="361.933" y="383" style="fill:#F57C00;" width="34.133" height="34.133"/>
		</g>
		<g>
			<path style="fill:#607D8B;" d="M80.333,101.4H97.4c4.713,0,8.533,3.821,8.533,8.533V127c0,4.713-3.821,8.533-8.533,8.533H80.333
				c-4.713,0-8.533-3.82-8.533-8.533v-17.067C71.8,105.221,75.621,101.4,80.333,101.4z"/>
			<path style="fill:#607D8B;" d="M80.333,169.667H97.4c4.713,0,8.533,3.821,8.533,8.533v17.067c0,4.713-3.821,8.533-8.533,8.533
				H80.333c-4.713,0-8.533-3.821-8.533-8.533V178.2C71.8,173.487,75.621,169.667,80.333,169.667z"/>
		</g>
		<path style="fill:#FF9801;" d="M88.867,255v68.267c-0.028,9.414-7.652,17.039-17.067,17.067H37.667v-102.4H71.8
			C81.214,237.961,88.839,245.586,88.867,255z"/>
		<g>
			<path style="fill:#607D8B;" d="M396.067,152.6h25.6c4.713,0,8.533,3.821,8.533,8.533v25.6c0,4.713-3.82,8.533-8.533,8.533h-25.6
				V152.6z"/>
			<path style="fill:#607D8B;" d="M396.067,229.4h25.6c4.713,0,8.533,3.821,8.533,8.533v25.6c0,4.713-3.82,8.533-8.533,8.533h-25.6
				V229.4z"/>
		</g>
		<path style="fill:#37474F;" d="M191.267,101.4H379c9.426,0,17.067,7.641,17.067,17.067V306.2c0,9.426-7.641,17.067-17.067,17.067
			H191.267c-9.426,0-17.067-7.641-17.067-17.067V118.467C174.2,109.041,181.841,101.4,191.267,101.4z"/>
		<path style="fill:#607D8B;" d="M191.267,101.4H353.4c9.426,0,17.067,7.641,17.067,17.067V306.2
			c0,9.426-7.641,17.067-17.067,17.067H191.267c-9.426,0-17.067-7.641-17.067-17.067V118.467
			C174.2,109.041,181.841,101.4,191.267,101.4z"/>
		<path style="fill:#CFD8DC;" d="M353.4,212.333c0,1.536-0.085,3.072-0.171,4.608c-1.5,22.17-13.692,42.224-32.683,53.76
			c-5.206,3.192-10.837,5.634-16.725,7.253c-27.418,7.693-56.74-2.319-73.728-25.173c-12.929-17.686-16.638-40.482-9.984-61.355
			c1.866-5.764,4.507-11.247,7.851-16.299c12.046-18.675,32.488-30.251,54.699-30.976c0.823-0.071,1.649-0.1,2.475-0.085
			c5.257-0.013,10.498,0.588,15.616,1.792c25.935,6.095,45.958,26.717,51.285,52.821C352.924,203.177,353.381,207.749,353.4,212.333
			z"/>
		<circle style="fill:#607D8B;" cx="285.133" cy="212.333" r="25.6"/>
		<g>
			<path style="fill:#1566C0;" d="M498.467,67.267v51.2h-25.6v-51.2c-0.028-9.414-7.652-17.039-17.067-17.067h25.6
				C490.814,50.228,498.439,57.852,498.467,67.267z"/>
			<path style="fill:#1566C0;" d="M498.467,306.2v51.2c-0.028,9.414-7.653,17.039-17.067,17.067h-25.6
				c9.414-0.028,17.039-7.652,17.067-17.067v-51.2H498.467z"/>
		</g>
		<rect x="472.867" y="118.467" style="fill:#607D8B;" width="25.6" height="187.733"/>
	</g>
	<g>
		<path d="M366.933,213.333c-0.017-3.05-0.215-6.096-0.594-9.122c-0.028-0.276-0.07-0.551-0.126-0.822
			c-4.822-36.529-34.902-64.489-71.686-66.633c-0.295-0.063-0.594-0.11-0.894-0.14h-0.083c-0.126,0-0.23,0.067-0.355,0.072
			c-1.024-0.041-2.029-0.155-3.062-0.155c-30.732,0.035-58.493,18.363-70.598,46.61c-0.063,0.136-0.129,0.262-0.185,0.402
			c-12.425,29.459-5.232,63.538,18.038,85.464c0.327,0.355,0.685,0.68,1.069,0.972c23.392,21.545,57.704,26.298,86.071,11.922
			c0.137-0.058,0.26-0.124,0.394-0.19C350.665,268.628,366.895,242.211,366.933,213.333z M322.282,263.596
			c-15.079-14.483-16.116-26.154-15.805-30.725c3.369-2.799,5.961-6.417,7.529-10.506c3.569,0.847,7.225,1.271,10.894,1.264
			c8.497-0.15,16.886-1.931,24.711-5.248C348.026,236.882,337.926,253.593,322.282,263.596z M281.6,213.333
			c0-4.713,3.821-8.533,8.533-8.533c4.713,0,8.533,3.82,8.533,8.533s-3.821,8.533-8.533,8.533
			C285.422,221.862,281.605,218.044,281.6,213.333z M348.386,200.282c-18.765,9.227-30.083,6.224-34.271,4.37
			c-2.012-5.533-5.872-10.203-10.928-13.22c4.462-11.393,5.259-23.895,2.28-35.763C326.948,161.415,343.475,178.594,348.386,200.282
			z M287.441,153.736c5.751,19.975,0.9,30.588-1.655,34.436c-4.325,0.76-8.377,2.631-11.762,5.429
			c-9.177-8.106-20.656-13.143-32.834-14.408C251.809,163.977,268.904,154.568,287.441,153.736L287.441,153.736z M233.137,195.462
			c20.657,1.418,29.017,9.547,31.849,13.394c-0.86,4.294-0.49,8.744,1.066,12.837c-10.749,5.861-19.397,14.935-24.734,25.953
			C230.594,232.482,227.568,213.18,233.137,195.462z M253.894,260.706c8.395-18.952,18.916-24.003,23.452-25.327
			c3.769,2.228,8.051,3.439,12.428,3.517c1.847,12.077,7.416,23.277,15.929,32.04C287.787,275.889,268.584,272.097,253.894,260.706
			L253.894,260.706z"/>
		<path d="M213.333,145.067c2.27,0.022,4.453-0.87,6.058-2.475c1.605-1.605,2.497-3.788,2.475-6.058
			c-0.013-1.116-0.245-2.219-0.683-3.246c-0.433-1.033-1.039-1.984-1.792-2.813c-3.421-3.158-8.695-3.158-12.117,0
			c-0.753,0.829-1.359,1.78-1.792,2.813c-0.438,1.027-0.67,2.13-0.683,3.246c-0.022,2.27,0.87,4.453,2.475,6.058
			S211.063,145.089,213.333,145.067z"/>
		<path d="M207.275,284.075c-3.346,3.346-3.346,8.771,0,12.117c3.346,3.346,8.771,3.346,12.117,0
			c0.341-0.429,0.683-0.854,1.025-1.367c0.337-0.436,0.596-0.926,0.767-1.45c0.247-0.483,0.419-1.002,0.508-1.537
			c0.103-0.563,0.162-1.133,0.175-1.705c0.02-3.467-2.059-6.601-5.261-7.931C213.404,280.873,209.716,281.613,207.275,284.075z"/>
		<path d="M372.992,130.475c-0.425-0.341-0.858-0.683-1.367-1.025c-0.435-0.339-0.926-0.6-1.45-0.771
			c-0.51-0.258-1.059-0.43-1.625-0.508c-2.782-0.548-5.655,0.315-7.675,2.304c-0.753,0.829-1.359,1.78-1.792,2.813
			c-0.438,1.027-0.67,2.13-0.683,3.246c-0.022,2.27,0.87,4.453,2.475,6.058s3.788,2.497,6.058,2.475
			c0.542-0.016,1.083-0.073,1.617-0.171c0.566-0.082,1.115-0.255,1.625-0.512c0.524-0.171,1.015-0.432,1.45-0.771
			c0.49-0.291,0.949-0.633,1.367-1.021c1.557-1.637,2.44-3.8,2.475-6.059c-0.013-1.116-0.245-2.219-0.683-3.246
			C374.351,132.255,373.745,131.303,372.992,130.475z"/>
		<path d="M372.992,284.075c-0.425-0.341-0.858-0.683-1.367-1.025c-0.435-0.339-0.926-0.6-1.45-0.771
			c-0.51-0.258-1.059-0.43-1.625-0.508c-2.78-0.504-5.633,0.352-7.675,2.304c-0.753,0.829-1.359,1.78-1.792,2.813
			c-0.438,1.027-0.67,2.13-0.683,3.246c-0.022,2.27,0.87,4.453,2.475,6.058c1.605,1.605,3.788,2.497,6.058,2.475
			c0.542-0.016,1.083-0.073,1.617-0.171c0.566-0.082,1.115-0.255,1.625-0.512c0.524-0.171,1.015-0.432,1.45-0.771
			c0.508-0.338,0.942-0.679,1.367-1.021c0.341-0.429,0.683-0.854,1.025-1.279c0.321-0.477,0.579-0.994,0.767-1.538
			c0.247-0.483,0.419-1.002,0.508-1.537c0.104-0.563,0.162-1.132,0.175-1.704c-0.013-1.116-0.245-2.219-0.683-3.246
			C374.351,285.855,373.745,284.903,372.992,284.075z"/>
		<path d="M486.4,42.667H8.533C3.821,42.667,0,46.487,0,51.2s3.821,8.533,8.533,8.533h25.6V460.8c0,4.713,3.821,8.533,8.533,8.533
			s8.533-3.82,8.533-8.533v-34.133h42.667c2.263,0.001,4.434-0.898,6.035-2.499c1.6-1.6,2.499-3.771,2.499-6.035V384h17.067v34.133
			c-0.001,2.263,0.898,4.434,2.499,6.035c1.6,1.6,3.771,2.499,6.035,2.499h34.133c2.263,0.001,4.434-0.898,6.035-2.499
			c1.6-1.6,2.499-3.771,2.499-6.035v-25.6c0.013-2.521,1.136-4.909,3.068-6.528c1.933-1.619,4.48-2.305,6.965-1.876
			c4.276,1.097,7.206,5.031,7.033,9.442v24.563c-0.001,2.263,0.898,4.434,2.499,6.035c1.6,1.6,3.771,2.499,6.035,2.499h204.8
			c2.263,0.001,4.434-0.898,6.035-2.499c1.6-1.6,2.499-3.771,2.499-6.035V384h17.067v25.6c-0.001,2.263,0.898,4.434,2.499,6.035
			c1.6,1.6,3.771,2.499,6.035,2.499h25.6c4.713,0,8.533-3.821,8.533-8.533c0-4.713-3.82-8.533-8.533-8.533h-17.067V384H486.4
			c14.132-0.015,25.585-11.468,25.6-25.6V68.267C511.985,54.135,500.532,42.682,486.4,42.667z M409.6,162.133h17.067l0.009,25.6
			H409.6V162.133z M409.6,238.933h17.067l0.009,25.6H409.6V238.933z M392.533,153.6v153.6c-0.005,4.711-3.822,8.529-8.533,8.533
			H196.267c-4.711-0.005-8.529-3.822-8.533-8.533V119.467c0.005-4.711,3.822-8.529,8.533-8.533H384
			c4.711,0.005,8.529,3.822,8.533,8.533V153.6z M409.6,281.6h17.067c9.421-0.011,17.056-7.645,17.067-17.067v-25.6
			c-0.011-9.421-7.645-17.056-17.067-17.067H409.6V204.8h17.067c9.421-0.011,17.056-7.645,17.067-17.067v-25.6
			c-0.011-9.421-7.645-17.056-17.067-17.067H409.6V128h85.333v170.667H409.6V281.6z M85.333,264.533H76.8
			c-4.713,0-8.533,3.82-8.533,8.533s3.821,8.533,8.533,8.533h8.533v17.067H76.8c-4.713,0-8.533,3.82-8.533,8.533
			s3.821,8.533,8.533,8.533h8.533v8.533c-0.005,4.711-3.822,8.529-8.533,8.533H51.2v-85.333h25.6
			c4.711,0.005,8.529,3.822,8.533,8.533V264.533z M204.709,392.533h17.157V409.6H204.8v-16.029
			C204.8,393.218,204.723,392.883,204.709,392.533z M256,392.533V409.6h-17.067v-17.067H256z M290.133,392.533V409.6h-17.067
			v-17.067H290.133z M324.267,392.533V409.6H307.2v-17.067H324.267z M358.4,392.533V409.6h-17.067v-17.067H358.4z M375.467,409.6
			v-17.067h17.067V409.6H375.467z M486.4,366.933h-76.8c-6.069,0.02-11.668,3.272-14.693,8.533h-197.04
			c-3.703-4.283-8.762-7.167-14.334-8.171c-7.437-1.262-15.052,0.815-20.819,5.677s-9.101,12.017-9.114,19.56V409.6h-17.067V384
			c-0.011-9.421-7.645-17.056-17.067-17.067H102.4c-9.421,0.011-17.056,7.645-17.067,17.067v25.6H51.2v-59.733h25.6
			c14.132-0.015,25.585-11.468,25.6-25.6V256c-0.015-14.132-11.468-25.585-25.6-25.6H51.2V59.733h435.2
			c4.711,0.005,8.529,3.822,8.533,8.533v42.667h-86.906C404.435,100.734,394.813,93.9,384,93.867H196.267
			c-14.132,0.015-25.585,11.468-25.6,25.6V307.2c0.015,14.132,11.468,25.585,25.6,25.6H384c10.813-0.033,20.435-6.868,24.028-17.067
			h86.906V358.4C494.929,363.111,491.111,366.929,486.4,366.933z"/>
		<path d="M102.4,93.867H85.333c-9.421,0.011-17.056,7.645-17.067,17.067V128c0.011,9.421,7.645,17.056,17.067,17.067H102.4
			c9.421-0.011,17.056-7.645,17.067-17.067v-17.067C119.456,101.512,111.821,93.877,102.4,93.867z M85.333,128v-17.067H102.4
			L102.409,128H85.333z"/>
		<path d="M149.842,112.383c-0.475-0.324-0.99-0.583-1.533-0.771c-0.51-0.258-1.059-0.43-1.625-0.508
			c-2.783-0.561-5.661,0.303-7.675,2.304c-0.753,0.829-1.359,1.78-1.792,2.813c-0.438,1.027-0.67,2.13-0.683,3.246
			c0.014,2.263,0.9,4.433,2.475,6.059c1.636,1.558,3.8,2.441,6.059,2.475c0.542-0.016,1.083-0.073,1.617-0.171
			c0.566-0.082,1.115-0.255,1.625-0.513c0.543-0.188,1.059-0.447,1.533-0.771c0.425-0.337,0.858-0.679,1.283-1.021
			c3.3-3.365,3.3-8.752,0-12.117C150.7,113.067,150.267,112.725,149.842,112.383z"/>
		<path d="M102.4,162.133H85.333c-9.421,0.011-17.056,7.645-17.067,17.067v17.067c0.011,9.421,7.645,17.056,17.067,17.067H102.4
			c9.421-0.011,17.056-7.645,17.067-17.067V179.2C119.456,169.779,111.821,162.144,102.4,162.133z M85.333,196.267V179.2H102.4
			l0.009,17.067H85.333z"/>
		<path d="M149.842,163.583c-0.475-0.324-0.99-0.583-1.533-0.771c-0.51-0.258-1.059-0.43-1.625-0.508
			c-2.783-0.561-5.661,0.303-7.675,2.304c-1.561,1.634-2.445,3.799-2.475,6.058c0.014,2.263,0.9,4.433,2.475,6.059
			c1.636,1.558,3.8,2.441,6.059,2.475c0.542-0.016,1.083-0.073,1.617-0.171c0.566-0.082,1.115-0.255,1.625-0.513
			c0.543-0.188,1.059-0.447,1.533-0.771c0.425-0.337,0.858-0.679,1.283-1.021c3.3-3.365,3.3-8.752,0-12.117
			C150.7,164.267,150.267,163.925,149.842,163.583z"/>
		<path d="M149.842,197.717c-0.475-0.324-0.99-0.583-1.533-0.771c-0.51-0.258-1.059-0.43-1.625-0.508
			c-2.78-0.518-5.64,0.34-7.675,2.304c-0.753,0.829-1.359,1.78-1.792,2.813c-0.438,1.027-0.67,2.13-0.683,3.246
			c-0.022,2.27,0.87,4.453,2.475,6.058c1.605,1.605,3.788,2.497,6.058,2.475c0.542-0.016,1.083-0.073,1.617-0.171
			c0.566-0.082,1.115-0.255,1.625-0.512c0.543-0.188,1.059-0.447,1.533-0.771c0.449-0.313,0.878-0.654,1.284-1.021
			c3.3-3.365,3.3-8.752,0-12.117C150.719,198.374,150.291,198.031,149.842,197.717z"/>
	</g>
</g>
<g>
</g>
<g>
</g>
<g>
</g>
<g>
</g>
<g>
</g>
<g>
</g>
<g>
</g>
<g>
</g>
<g>
</g>
<g>
</g>
<g>
</g>
<g>
</g>
<g>
</g>
<g>
</g>
<g>
</g>
</svg>
