<?xml version="1.0" encoding="iso-8859-1"?>
<!-- Generator: Adobe Illustrator 19.0.0, SVG Export Plug-In . SVG Version: 6.00 Build 0)  -->
<svg version="1.1" id="Capa_1" xmlns="http://www.w3.org/2000/svg" xmlns:xlink="http://www.w3.org/1999/xlink" x="0px" y="0px"
	 viewBox="0 0 512 512" style="enable-background:new 0 0 512 512;" xml:space="preserve">
<g>
	<g transform="translate(1 1)">
		<g>
			<path style="fill:#607D8B;" d="M50.2,451.267h59.733v42.667c0,4.713-3.821,8.533-8.533,8.533H58.733
				c-4.713,0-8.533-3.821-8.533-8.533V451.267z"/>
			<path style="fill:#607D8B;" d="M400.067,451.267H459.8v42.667c0,4.713-3.82,8.533-8.533,8.533H408.6
				c-4.713,0-8.533-3.821-8.533-8.533V451.267z"/>
		</g>
		<path style="fill:#009688;" d="M127,7.533c9.426,0,17.067,7.641,17.067,17.067v204.8h-34.133V24.6
			C109.933,15.174,117.574,7.533,127,7.533z"/>
		<path style="fill:#00695C;" d="M502.467,348.867v68.267c-0.028,9.414-7.653,17.039-17.067,17.067H24.6
			c-9.414-0.028-17.039-7.652-17.067-17.067v-68.267l44.032-100.779c9.576-21.71,31.056-35.728,54.784-35.755h297.301
			c23.728,0.026,45.208,14.045,54.784,35.755L502.467,348.867z"/>
		<path style="fill:#009688;" d="M476.867,348.867v68.267c-0.028,9.414-7.653,17.039-17.067,17.067H24.6
			c-9.414-0.028-17.039-7.652-17.067-17.067v-68.267l44.032-100.779c9.576-21.71,31.056-35.728,54.784-35.755h271.701
			c23.728,0.026,45.208,14.045,54.784,35.755L476.867,348.867z"/>
		<path style="fill:#37474F;" d="M485.4,417.133v34.133c-0.028,9.414-7.652,17.039-17.067,17.067H41.667
			c-9.414-0.028-17.039-7.652-17.067-17.067v-34.133H485.4z"/>
		<g>
			<path style="fill:#607D8B;" d="M459.8,417.133v34.133c-0.028,9.414-7.652,17.039-17.067,17.067H41.667
				c-9.414-0.028-17.039-7.652-17.067-17.067v-34.133H459.8z"/>
			<path style="fill:#607D8B;" d="M502.467,348.867v68.267c-0.028,9.414-7.653,17.039-17.067,17.067h-25.6
				c9.414-0.028,17.039-7.652,17.067-17.067v-68.267H502.467z"/>
		</g>
		<g>
			<path style="fill:#CFD8DC;" d="M476.867,348.867v68.267c-0.028,9.414-7.653,17.039-17.067,17.067H24.6
				c-9.414-0.028-17.039-7.652-17.067-17.067v-68.267H476.867z"/>
			<rect x="109.933" y="41.667" style="fill:#CFD8DC;" width="34.133" height="34.133"/>
		</g>
	</g>
	<g>
		<path d="M511.662,348.189c-0.066-0.577-0.189-1.146-0.369-1.698l-0.009-0.044l-44.075-100.742
			c-10.87-24.849-35.42-40.905-62.542-40.904H153.6V25.6C153.6,11.462,142.139,0,128,0c-14.138,0-25.6,11.462-25.6,25.6v179.564
			c-25.241,1.767-47.424,17.378-57.609,40.541L0.717,346.446l-0.01,0.046c-0.176,0.546-0.298,1.109-0.365,1.679
			c-0.163,0.537-0.275,1.089-0.332,1.647L0,349.867v68.267c0.033,10.813,6.868,20.435,17.067,24.027v10.106
			c0.015,14.132,11.468,25.585,25.6,25.6v17.067c0.009,9.422,7.645,17.057,17.067,17.067H102.4
			c9.422-0.009,17.057-7.645,17.067-17.067v-17.067h273.067v17.067c0.009,9.422,7.645,17.057,17.067,17.067h42.667
			c9.421-0.011,17.056-7.645,17.067-17.067v-17.067c14.132-0.015,25.585-11.468,25.6-25.6v-10.106
			c10.199-3.592,17.033-13.214,17.067-24.028v-68.267l-0.009-0.046C511.933,349.267,511.823,348.721,511.662,348.189z
			 M136.533,68.267h-17.067V51.2h17.067V68.267z M119.467,85.333h17.067V204.8h-17.067V85.333z M128,17.067
			c4.71,0.006,8.527,3.823,8.533,8.533v8.533h-17.067V25.6C119.473,20.89,123.29,17.073,128,17.067z M60.425,252.546
			c8.153-18.637,26.566-30.679,46.908-30.679h297.333c20.343-0.001,38.756,12.042,46.909,30.679l38.844,88.788H21.58L60.425,252.546
			z M102.412,494.933H59.733v-17.067h42.671L102.412,494.933z M452.275,494.933H409.6v-17.067h42.667L452.275,494.933z
			 M477.867,452.267c-0.005,4.711-3.822,8.529-8.533,8.533H42.667c-4.71-0.006-8.527-3.823-8.533-8.533v-8.533h443.733V452.267z
			 M494.933,418.133c-0.005,4.711-3.822,8.529-8.533,8.533H25.6c-4.71-0.006-8.527-3.823-8.533-8.533V358.4h477.867V418.133z"/>
		<path d="M119.467,401.067h17.067c4.713,0,8.533-3.82,8.533-8.533S141.246,384,136.533,384h-17.067
			c-4.713,0-8.533,3.82-8.533,8.533S114.754,401.067,119.467,401.067z"/>
		<path d="M170.667,401.067h17.067c4.713,0,8.533-3.82,8.533-8.533S192.446,384,187.733,384h-17.067
			c-4.713,0-8.533,3.82-8.533,8.533S165.954,401.067,170.667,401.067z"/>
		<path d="M221.867,401.067h17.067c4.713,0,8.533-3.82,8.533-8.533S243.646,384,238.933,384h-17.067
			c-4.713,0-8.533,3.82-8.533,8.533S217.154,401.067,221.867,401.067z"/>
		<path d="M273.067,401.067h17.067c4.713,0,8.533-3.82,8.533-8.533S294.846,384,290.133,384h-17.067
			c-4.713,0-8.533,3.82-8.533,8.533S268.354,401.067,273.067,401.067z"/>
		<path d="M324.267,401.067h17.067c4.713,0,8.533-3.82,8.533-8.533S346.046,384,341.333,384h-17.067
			c-4.713,0-8.533,3.82-8.533,8.533S319.554,401.067,324.267,401.067z"/>
		<path d="M375.467,401.067h17.067c4.713,0,8.533-3.82,8.533-8.533s-3.82-8.533-8.533-8.533h-17.067
			c-4.713,0-8.533,3.82-8.533,8.533S370.754,401.067,375.467,401.067z"/>
		<path d="M76.8,290.133c2.264,0.003,4.435-0.897,6.033-2.5L99.9,270.566c3.281-3.341,3.256-8.701-0.054-12.012
			c-3.311-3.311-8.671-3.335-12.012-0.054l-17.067,17.067c-2.44,2.44-3.169,6.11-1.849,9.298
			C70.238,288.054,73.349,290.133,76.8,290.133z"/>
		<path d="M110.933,256c0.571-0.016,1.141-0.073,1.704-0.171c0.535-0.095,1.053-0.268,1.537-0.512
			c0.544-0.187,1.062-0.447,1.538-0.771c0.929-0.585,1.715-1.371,2.3-2.3c0.324-0.476,0.583-0.993,0.771-1.538
			c0.245-0.485,0.418-1.003,0.513-1.537c0.098-0.563,0.155-1.133,0.171-1.704c-0.033-2.259-0.917-4.422-2.475-6.059
			c-0.405-0.367-0.833-0.709-1.279-1.025c-0.476-0.324-0.993-0.583-1.538-0.771c-0.484-0.246-1.002-0.417-1.537-0.508
			c-2.81-0.574-5.721,0.29-7.763,2.304c-2.462,2.441-3.202,6.129-1.872,9.331S107.467,256.02,110.933,256z"/>
		<path d="M87.834,321.766c1.6,1.601,3.77,2.5,6.033,2.5c2.263,0,4.433-0.899,6.033-2.5l68.267-68.267
			c3.296-3.338,3.279-8.711-0.038-12.029c-3.317-3.317-8.691-3.334-12.029-0.038L87.834,309.7c-1.601,1.6-2.5,3.77-2.5,6.033
			C85.334,317.996,86.233,320.167,87.834,321.766z"/>
	</g>
</g>
<g>
</g>
<g>
</g>
<g>
</g>
<g>
</g>
<g>
</g>
<g>
</g>
<g>
</g>
<g>
</g>
<g>
</g>
<g>
</g>
<g>
</g>
<g>
</g>
<g>
</g>
<g>
</g>
<g>
</g>
</svg>
