<?xml version="1.0" encoding="iso-8859-1"?>
<!-- Generator: Adobe Illustrator 19.0.0, SVG Export Plug-In . SVG Version: 6.00 Build 0)  -->
<svg version="1.1" id="Capa_1" xmlns="http://www.w3.org/2000/svg" xmlns:xlink="http://www.w3.org/1999/xlink" x="0px" y="0px"
	 viewBox="0 0 512 512" style="enable-background:new 0 0 512 512;" xml:space="preserve">
<g>
	<g transform="translate(1 1)">
		<path style="fill:#CFD8DC;" d="M127,297.667v76.8c-0.014,4.707-3.826,8.519-8.533,8.533h-51.2
			c-4.707-0.014-8.519-3.826-8.533-8.533v-76.8H127z"/>
		<path style="fill:#F4F4F4;" d="M101.4,297.667v76.8c-0.014,4.707-3.826,8.519-8.533,8.533h-25.6
			c-4.707-0.014-8.519-3.826-8.533-8.533v-76.8H101.4z"/>
		<path style="fill:#607D8B;" d="M331.8,118.467V84.333c-0.003-42.414-34.386-76.797-76.8-76.8H152.6
			c-42.414,0.003-76.797,34.386-76.8,76.8V229.4h34.133V84.333c0.009-23.561,19.106-42.658,42.667-42.667H255
			c23.561,0.009,42.658,19.106,42.667,42.667v34.133H331.8z"/>
		<path style="fill:#37474F;" d="M58.733,212.333H127c4.713,0,8.533,3.821,8.533,8.533V306.2c0,4.713-3.82,8.533-8.533,8.533H58.733
			c-4.713,0-8.533-3.82-8.533-8.533v-85.333C50.2,216.154,54.021,212.333,58.733,212.333z"/>
		<g>
			<path style="fill:#607D8B;" d="M58.733,212.333H101.4c4.713,0,8.533,3.821,8.533,8.533V306.2c0,4.713-3.821,8.533-8.533,8.533
				H58.733c-4.713,0-8.533-3.82-8.533-8.533v-85.333C50.2,216.154,54.021,212.333,58.733,212.333z"/>
			<path style="fill:#607D8B;" d="M297.667,101.4H331.8c4.713,0,8.533,3.821,8.533,8.533V178.2h-51.2v-68.267
				C289.133,105.221,292.954,101.4,297.667,101.4z"/>
		</g>
		<path style="fill:#1566C0;" d="M186.733,152.6h256c9.426,0,17.067,7.641,17.067,17.067V485.4c0,9.426-7.641,17.067-17.067,17.067
			h-256c-9.426,0-17.067-7.641-17.067-17.067V169.667C169.667,160.241,177.308,152.6,186.733,152.6z"/>
		<path style="fill:#2296F3;" d="M186.733,152.6h230.4c9.426,0,17.067,7.641,17.067,17.067V485.4
			c0,9.426-7.641,17.067-17.067,17.067h-230.4c-9.426,0-17.067-7.641-17.067-17.067V169.667
			C169.667,160.241,177.308,152.6,186.733,152.6z"/>
		<circle style="fill:#FFFFFF;" cx="314.733" cy="289.133" r="51.2"/>
		<circle style="fill:#E91E63;" cx="408.6" cy="451.267" r="17.067"/>
		<path style="fill:#283593;" d="M459.8,169.667v25.6H169.667v-25.6c0.028-9.414,7.652-17.039,17.067-17.067h256
			C452.148,152.628,459.773,160.252,459.8,169.667z"/>
		<path style="fill:#3F51B5;" d="M434.2,169.667v25.6H169.667v-25.6c0.028-9.414,7.652-17.039,17.067-17.067h230.4
			C426.548,152.628,434.173,160.252,434.2,169.667z"/>
	</g>
	<g>
		<path d="M315.733,230.4c-32.99,0-59.733,26.744-59.733,59.733s26.744,59.733,59.733,59.733s59.733-26.744,59.733-59.733
			C375.43,257.159,348.708,230.437,315.733,230.4z M315.733,332.8c-23.564,0-42.667-19.103-42.667-42.667
			s19.103-42.667,42.667-42.667c23.564,0,42.667,19.103,42.667,42.667C358.372,313.686,339.286,332.772,315.733,332.8z"/>
		<path d="M409.6,426.667c-14.138,0-25.6,11.462-25.6,25.6s11.462,25.6,25.6,25.6c14.138,0,25.6-11.462,25.6-25.6
			C435.185,438.135,423.732,426.682,409.6,426.667z M409.6,460.8c-4.713,0-8.533-3.82-8.533-8.533s3.821-8.533,8.533-8.533
			c4.713,0,8.533,3.82,8.533,8.533C418.127,456.977,414.31,460.794,409.6,460.8z"/>
		<path d="M332.8,281.6h-34.133c-4.713,0-8.533,3.821-8.533,8.533c0,4.713,3.82,8.533,8.533,8.533H332.8
			c4.713,0,8.533-3.821,8.533-8.533C341.333,285.421,337.513,281.6,332.8,281.6z"/>
		<path d="M256,0H153.6c-47.107,0.052-85.281,38.227-85.333,85.333V204.8h-8.533c-9.422,0.009-17.057,7.645-17.067,17.067V307.2
			c0.019,6.069,3.271,11.669,8.533,14.693V384c0,4.713,3.821,8.533,8.533,8.533H128c4.713,0,8.533-3.82,8.533-8.533v-62.107
			c5.262-3.024,8.514-8.624,8.533-14.693v-85.333c-0.009-9.422-7.645-17.057-17.067-17.067h-8.533V85.333
			c0.022-18.842,15.291-34.112,34.133-34.133H256c18.842,0.022,34.112,15.291,34.133,34.133v8.533c-4.713,0-8.533,3.821-8.533,8.533
			v42.667h-93.867c-14.132,0.015-25.585,11.468-25.6,25.6V486.4c0.015,14.132,11.468,25.585,25.6,25.6h256
			c14.132-0.015,25.585-11.468,25.6-25.6V170.667c-0.015-14.132-11.468-25.585-25.6-25.6h-93.867V102.4
			c0-4.713-3.821-8.533-8.533-8.533v-8.533C341.281,38.227,303.107,0.052,256,0z M68.267,375.467V358.4H76.8
			c4.713,0,8.533-3.821,8.533-8.533c0-4.713-3.821-8.533-8.533-8.533h-8.533v-17.067h51.2v17.067h-8.533
			c-4.713,0-8.533,3.821-8.533,8.533c0,4.713,3.821,8.533,8.533,8.533h8.533v17.067H68.267z M128.012,307.2H59.733v-85.333H128
			L128.012,307.2z M443.733,494.933h-256c-4.71-0.006-8.527-3.823-8.533-8.533V204.8h273.067v281.6
			C452.261,491.11,448.444,494.927,443.733,494.933z M452.267,170.667v17.067H179.2v-17.067c0.006-4.71,3.823-8.527,8.533-8.533h256
			C448.444,162.139,452.261,165.956,452.267,170.667z M298.667,145.067v-34.133H332.8v34.133H298.667z M307.2,93.867v-8.533
			c-0.031-28.264-22.936-51.169-51.2-51.2H153.6c-28.264,0.031-51.169,22.936-51.2,51.2V204.8H85.333V85.333
			c0.043-37.685,30.582-68.224,68.267-68.267H256c37.685,0.043,68.224,30.582,68.267,68.267v8.533H307.2z"/>
	</g>
</g>
<g>
</g>
<g>
</g>
<g>
</g>
<g>
</g>
<g>
</g>
<g>
</g>
<g>
</g>
<g>
</g>
<g>
</g>
<g>
</g>
<g>
</g>
<g>
</g>
<g>
</g>
<g>
</g>
<g>
</g>
</svg>
