<?xml version="1.0" encoding="iso-8859-1"?>
<!-- Generator: Adobe Illustrator 19.0.0, SVG Export Plug-In . SVG Version: 6.00 Build 0)  -->
<svg version="1.1" id="Capa_1" xmlns="http://www.w3.org/2000/svg" xmlns:xlink="http://www.w3.org/1999/xlink" x="0px" y="0px"
	 viewBox="0 0 512 512" style="enable-background:new 0 0 512 512;" xml:space="preserve">
<g>
	<g transform="translate(1 1)">
		<rect x="195.267" y="324.035" style="fill:#607D8B;" width="119.467" height="169.899"/>
		<rect x="195.267" y="324.035" style="fill:#CFD8DC;" width="93.867" height="169.899"/>
		<path style="fill:#607D8B;" d="M502.467,33.133v325.461c0.014,2.748-1.282,5.338-3.491,6.973c-2.208,1.635-5.064,2.12-7.688,1.304
			c-5.127-1.625-10.34-2.964-15.616-4.011c-40.875-8.363-124.331-13.995-220.672-13.995c-4.267,0-8.533,0-12.8,0.085
			c-105.387,0.512-193.365,7.851-223.488,17.92c-3.859,1.226-8.045-0.456-9.984-4.011c-0.802-1.277-1.217-2.759-1.195-4.267V33.133
			c0-13.739,103.851-24.832,234.581-25.515c0.022-0.023,0.053-0.036,0.085-0.036s0.063,0.013,0.085,0.036
			c4.181-0.085,8.448-0.085,12.715-0.085C391.704,7.533,502.467,18.968,502.467,33.133z"/>
		<path style="fill:#CFD8DC;" d="M476.867,33.133v325.461c0.022,1.508-0.393,2.99-1.195,4.267c-1.939,3.555-6.125,5.236-9.984,4.011
			c-30.123-10.069-118.101-17.408-223.488-17.92c-4.267-0.085-8.533-0.085-12.8-0.085c-96.341,0-179.797,5.632-220.672,13.995
			c-0.802-1.277-1.217-2.759-1.195-4.267V33.133c0-13.739,103.851-24.832,234.581-25.515c0.022-0.023,0.053-0.036,0.085-0.036
			s0.063,0.013,0.085,0.036C373.016,8.301,476.867,19.395,476.867,33.133z"/>
		<path style="fill:#6A1B9A;" d="M468.333,54.723v272.128c-7.851-1.28-16.469-2.389-25.6-3.499
			c-62.391-6.051-125.05-8.928-187.733-8.619c-4.096,0-8.192,0-12.373,0.085c-0.278-0.085-0.575-0.085-0.853,0
			c-67.243,0.341-148.48,3.755-200.107,12.032V54.723C71.619,48.749,141.848,42.179,242.2,41.752
			c4.181-0.085,8.448-0.085,12.8-0.085C362.179,41.667,437.101,48.493,468.333,54.723z"/>
		<path style="fill:#9D27B0;" d="M442.733,54.723v272.128c-51.627-8.277-132.864-11.691-200.107-12.032
			c-0.278-0.085-0.575-0.085-0.853,0c-4.181-0.085-8.277-0.085-12.373-0.085c-62.683-0.309-125.342,2.568-187.733,8.619V54.723
			C71.619,48.749,141.848,42.179,242.2,41.752C342.552,42.179,412.781,48.749,442.733,54.723z"/>
		<path style="fill:#607D8B;" d="M383,485.4c-0.068,9.397-7.669,16.998-17.067,17.067H144.067
			c-9.414-0.028-17.039-7.653-17.067-17.067c0.068-9.397,7.669-16.999,17.067-17.067h221.867
			C375.348,468.361,382.973,475.986,383,485.4z"/>
		<path style="fill:#CFD8DC;" d="M357.4,485.4c-0.068,9.397-7.669,16.998-17.067,17.067H144.067
			c-9.414-0.028-17.039-7.653-17.067-17.067c0.068-9.397,7.669-16.999,17.067-17.067h196.267
			C349.748,468.361,357.372,475.986,357.4,485.4z"/>
		<path style="fill:#607D8B;" d="M274.029,348.867c4.241,4.671,6.585,10.758,6.571,17.067c0,14.138-11.461,25.6-25.6,25.6
			c-14.138,0-25.6-11.462-25.6-25.6c-0.014-6.309,2.329-12.396,6.571-17.067H274.029z"/>
	</g>
	<g>
		<path d="M431.875,7.533C384.887,2.675,322.425,0,256,0S127.113,2.675,80.125,7.533C6.129,15.183,0,24.479,0,34.133v325.463
			c0.01,5.539,2.673,10.739,7.163,13.983c4.382,3.212,10.052,4.09,15.2,2.354c24.199-8.046,87.987-14.184,165.371-16.507V460.8
			h-42.667c-14.139,0-25.6,11.462-25.6,25.6s11.462,25.6,25.6,25.6h221.867c14.138,0,25.6-11.461,25.6-25.6s-11.462-25.6-25.6-25.6
			h-42.667V359.426c77.383,2.323,141.171,8.461,165.367,16.507c5.148,1.748,10.826,0.869,15.204-2.354
			c4.49-3.245,7.153-8.444,7.163-13.983V34.133C512,24.479,505.871,15.183,431.875,7.533z M375.467,486.4
			c-0.006,4.71-3.823,8.527-8.533,8.533H145.067c-4.713,0-8.533-3.82-8.533-8.533s3.821-8.533,8.533-8.533h221.867
			C371.644,477.873,375.461,481.69,375.467,486.4z M307.201,460.8H204.8V358.981c6.013-0.133,12.085-0.244,18.219-0.331
			c-3.701,13.859,1.657,28.552,13.409,36.776c11.752,8.224,27.392,8.224,39.145,0c11.752-8.224,17.11-22.918,13.409-36.776
			c6.137,0.086,12.21,0.197,18.219,0.331V460.8z M256,358.4c4.953,0,9.856,0.031,14.759,0.062c1.504,2.57,2.301,5.493,2.308,8.471
			c0,9.426-7.641,17.067-17.067,17.067c-9.426,0-17.067-7.641-17.067-17.067c0.007-2.978,0.803-5.901,2.308-8.471
			C246.144,358.431,251.047,358.4,256,358.4z M275.747,341.417c-0.267-0.023-0.521-0.006-0.79-0.004
			c-6.271-0.049-12.59-0.076-18.958-0.08c-6.384,0-12.715,0.027-18.991,0.08c-0.252-0.001-0.489-0.018-0.74,0.003
			c-101.498,0.826-188.184,7.969-219.203,18.18V36.65C31.192,28.171,118.642,17.067,256,17.067s224.813,11.104,238.933,19.587
			l0.087,323.088C463.921,349.395,377.239,342.243,275.747,341.417z"/>
		<path d="M470.996,47.342C440.329,41.25,365.621,34.133,256,34.133S71.671,41.25,41.004,47.342
			c-3.994,0.794-6.871,4.299-6.871,8.371v272.162c-0.002,2.264,0.897,4.435,2.498,6.036c1.601,1.601,3.772,2.499,6.036,2.498
			c0.452-0.001,0.903-0.037,1.35-0.108c55.342-8.87,145.792-12.033,211.983-12.033s156.638,3.163,211.983,12.033
			c2.468,0.397,4.986-0.308,6.888-1.93c1.902-1.622,2.997-3.996,2.995-6.496V55.713C477.866,51.64,474.99,48.136,470.996,47.342z
			 M460.8,317.971c-67.989-7.697-136.379-11.293-204.8-10.771c-68.421-0.523-136.811,3.074-204.8,10.771V62.829
			C84.617,57.208,155.163,51.2,256,51.2s171.383,6.008,204.8,11.629V317.971z"/>
		<path d="M82.833,134.033l25.6-25.6c3.281-3.341,3.256-8.701-0.054-12.012s-8.671-3.335-12.012-0.054l-25.6,25.6
			c-2.188,2.149-3.055,5.307-2.27,8.271c0.785,2.965,3.1,5.28,6.065,6.065C77.527,137.088,80.684,136.221,82.833,134.033z"/>
		<path d="M128,85.333c0.571-0.016,1.141-0.073,1.704-0.171c0.535-0.095,1.053-0.268,1.537-0.513c0.525-0.17,1.015-0.431,1.45-0.771
			c0.513-0.338,0.938-0.679,1.367-1.021c3.3-3.365,3.3-8.752,0-12.117c-2.493-2.347-6.116-3.046-9.304-1.796
			c-1.054,0.393-2.013,1.004-2.813,1.795c-2.462,2.441-3.201,6.129-1.872,9.331S124.533,85.353,128,85.333z"/>
		<path d="M173.167,70.767L79.3,164.634c-2.188,2.149-3.055,5.307-2.27,8.271c0.785,2.965,3.1,5.28,6.065,6.065
			c2.965,0.785,6.122-0.082,8.271-2.27l93.867-93.867c3.281-3.341,3.256-8.701-0.054-12.012
			C181.868,67.511,176.508,67.486,173.167,70.767z"/>
	</g>
</g>
<g>
</g>
<g>
</g>
<g>
</g>
<g>
</g>
<g>
</g>
<g>
</g>
<g>
</g>
<g>
</g>
<g>
</g>
<g>
</g>
<g>
</g>
<g>
</g>
<g>
</g>
<g>
</g>
<g>
</g>
</svg>
