<?xml version="1.0" encoding="iso-8859-1"?>
<!-- Generator: Adobe Illustrator 19.0.0, SVG Export Plug-In . SVG Version: 6.00 Build 0)  -->
<svg version="1.1" id="Capa_1" xmlns="http://www.w3.org/2000/svg" xmlns:xlink="http://www.w3.org/1999/xlink" x="0px" y="0px"
	 viewBox="0 0 512 512" style="enable-background:new 0 0 512 512;" xml:space="preserve">
<g>
	<g transform="translate(1 1)">
		<rect x="237.933" y="7.533" style="fill:#607D8B;" width="34.133" height="162.133"/>
		<path style="fill:#CFD8DC;" d="M237.933,161.133h34.133c4.713,0,8.533,3.821,8.533,8.533v42.667h-51.2v-42.667
			C229.4,164.954,233.221,161.133,237.933,161.133z"/>
		<path style="fill:#009688;" d="M502.467,270.616v182.101c-0.002,4.548-1.814,8.907-5.035,12.117l-32.597,32.597
			c-3.21,3.221-7.57,5.032-12.117,5.035h-37.035c-4.547-0.002-8.907-1.814-12.117-5.035l-3.499-3.499H109.933l-3.499,3.499
			c-3.21,3.221-7.57,5.032-12.117,5.035H57.283c-4.547-0.002-8.907-1.814-12.117-5.035l-32.597-32.597
			c-3.221-3.21-5.033-7.57-5.035-12.117V270.616c0.002-4.547,1.814-8.907,5.035-12.117l32.597-32.597
			c3.21-3.221,7.57-5.032,12.117-5.035h113.835c4.547-0.002,8.907-1.814,12.117-5.035l15.531-15.531
			c3.21-3.221,7.57-5.032,12.117-5.035h88.235c4.547,0.002,8.907,1.814,12.117,5.035l15.531,15.531
			c3.21,3.221,7.57,5.032,12.117,5.035h113.835c4.547,0.002,8.907,1.814,12.117,5.035l32.597,32.597
			C500.653,261.709,502.465,266.069,502.467,270.616z"/>
		<g>
			<path style="fill:#FFEB3A;" d="M67.267,255h17.067c4.713,0,8.533,3.82,8.533,8.533V280.6c0,4.713-3.82,8.533-8.533,8.533H67.267
				c-4.713,0-8.533-3.82-8.533-8.533v-17.067C58.733,258.821,62.554,255,67.267,255z"/>
			<path style="fill:#FFEB3A;" d="M152.6,255h17.067c4.713,0,8.533,3.82,8.533,8.533V280.6c0,4.713-3.821,8.533-8.533,8.533H152.6
				c-4.713,0-8.533-3.82-8.533-8.533v-17.067C144.067,258.821,147.887,255,152.6,255z"/>
			<path style="fill:#FFEB3A;" d="M220.867,255h17.067c4.713,0,8.533,3.82,8.533,8.533V280.6c0,4.713-3.821,8.533-8.533,8.533
				h-17.067c-4.713,0-8.533-3.82-8.533-8.533v-17.067C212.333,258.821,216.154,255,220.867,255z"/>
			<path style="fill:#FFEB3A;" d="M289.133,255H306.2c4.713,0,8.533,3.82,8.533,8.533V280.6c0,4.713-3.82,8.533-8.533,8.533h-17.067
				c-4.713,0-8.533-3.82-8.533-8.533v-17.067C280.6,258.821,284.421,255,289.133,255z"/>
			<path style="fill:#FFEB3A;" d="M357.4,255h17.067c4.713,0,8.533,3.82,8.533,8.533V280.6c0,4.713-3.821,8.533-8.533,8.533H357.4
				c-4.713,0-8.533-3.82-8.533-8.533v-17.067C348.867,258.821,352.687,255,357.4,255z"/>
			<path style="fill:#FFEB3A;" d="M425.667,255h17.067c4.713,0,8.533,3.82,8.533,8.533V280.6c0,4.713-3.821,8.533-8.533,8.533
				h-17.067c-4.713,0-8.533-3.82-8.533-8.533v-17.067C417.133,258.821,420.954,255,425.667,255z"/>
			<path style="fill:#FFEB3A;" d="M152.6,323.267h17.067c4.713,0,8.533,3.821,8.533,8.533v17.067c0,4.713-3.821,8.533-8.533,8.533
				H152.6c-4.713,0-8.533-3.82-8.533-8.533V331.8C144.067,327.087,147.887,323.267,152.6,323.267z"/>
			<path style="fill:#FFEB3A;" d="M67.267,323.267H101.4c4.713,0,8.533,3.821,8.533,8.533v17.067c0,4.713-3.821,8.533-8.533,8.533
				H67.267c-4.713,0-8.533-3.82-8.533-8.533V331.8C58.733,327.087,62.554,323.267,67.267,323.267z"/>
			<path style="fill:#FFEB3A;" d="M220.867,323.267h17.067c4.713,0,8.533,3.821,8.533,8.533v17.067c0,4.713-3.821,8.533-8.533,8.533
				h-17.067c-4.713,0-8.533-3.82-8.533-8.533V331.8C212.333,327.087,216.154,323.267,220.867,323.267z"/>
			<path style="fill:#FFEB3A;" d="M289.133,323.267H306.2c4.713,0,8.533,3.821,8.533,8.533v17.067c0,4.713-3.82,8.533-8.533,8.533
				h-17.067c-4.713,0-8.533-3.82-8.533-8.533V331.8C280.6,327.087,284.421,323.267,289.133,323.267z"/>
			<path style="fill:#FFEB3A;" d="M357.4,323.267h17.067c4.713,0,8.533,3.821,8.533,8.533v17.067c0,4.713-3.821,8.533-8.533,8.533
				H357.4c-4.713,0-8.533-3.82-8.533-8.533V331.8C348.867,327.087,352.687,323.267,357.4,323.267z"/>
			<path style="fill:#FFEB3A;" d="M425.667,323.267h17.067c4.713,0,8.533,3.821,8.533,8.533v17.067c0,4.713-3.821,8.533-8.533,8.533
				h-17.067c-4.713,0-8.533-3.82-8.533-8.533V331.8C417.133,327.087,420.954,323.267,425.667,323.267z"/>
			<path style="fill:#FFEB3A;" d="M152.6,391.533h17.067c4.713,0,8.533,3.821,8.533,8.533v17.067c0,4.713-3.821,8.533-8.533,8.533
				H152.6c-4.713,0-8.533-3.821-8.533-8.533v-17.067C144.067,395.354,147.887,391.533,152.6,391.533z"/>
			<path style="fill:#FFEB3A;" d="M67.267,391.533H101.4c4.713,0,8.533,3.821,8.533,8.533v17.067c0,4.713-3.821,8.533-8.533,8.533
				H67.267c-4.713,0-8.533-3.821-8.533-8.533v-17.067C58.733,395.354,62.554,391.533,67.267,391.533z"/>
			<path style="fill:#FFEB3A;" d="M237.933,425.667h-17.067c-4.713,0-8.533-3.821-8.533-8.533v-17.067
				c0-4.713,3.821-8.533,8.533-8.533H306.2c4.713,0,8.533,3.821,8.533,8.533v17.067c0,4.713-3.82,8.533-8.533,8.533H237.933z"/>
			<path style="fill:#FFEB3A;" d="M357.4,391.533h17.067c4.713,0,8.533,3.821,8.533,8.533v17.067c0,4.713-3.821,8.533-8.533,8.533
				H357.4c-4.713,0-8.533-3.821-8.533-8.533v-17.067C348.867,395.354,352.687,391.533,357.4,391.533z"/>
			<path style="fill:#FFEB3A;" d="M425.667,391.533h17.067c4.713,0,8.533,3.821,8.533,8.533v17.067c0,4.713-3.821,8.533-8.533,8.533
				h-17.067c-4.713,0-8.533-3.821-8.533-8.533v-17.067C417.133,395.354,420.954,391.533,425.667,391.533z"/>
		</g>
		<g>
			<path style="fill:#00695C;" d="M400.067,493.933H109.933l29.099-29.099c3.21-3.221,7.57-5.033,12.117-5.035h207.701
				c4.547,0.002,8.907,1.814,12.117,5.035L400.067,493.933z"/>
			<path style="fill:#00695C;" d="M502.467,270.616v182.101c-0.002,4.548-1.814,8.907-5.035,12.117l-32.597,32.597
				c-3.21,3.221-7.57,5.032-12.117,5.035h-25.6c4.547-0.002,8.907-1.814,12.117-5.035l32.597-32.597
				c3.221-3.21,5.033-7.57,5.035-12.117V270.616c-0.002-4.547-1.814-8.907-5.035-12.117l-32.597-32.597
				c-3.21-3.221-7.57-5.032-12.117-5.035h25.6c4.547,0.002,8.907,1.814,12.117,5.035l32.597,32.597
				C500.653,261.709,502.465,266.069,502.467,270.616z"/>
		</g>
	</g>
	<g>
		<path d="M471.846,220.846c-4.795-4.828-11.325-7.534-18.129-7.512H339.871c-2.266,0.006-4.44-0.894-6.038-2.5l-15.587-15.587
			c-4.795-4.828-11.325-7.533-18.129-7.512h-9.983v-17.067c-0.019-6.069-3.271-11.669-8.533-14.693V8.533
			c0-4.713-3.82-8.533-8.533-8.533h-34.133c-4.713,0-8.533,3.821-8.533,8.533v147.44c-5.262,3.024-8.514,8.624-8.533,14.693v17.067
			h-9.983c-6.803-0.021-13.33,2.683-18.125,7.508l-15.592,15.591c-1.598,1.606-3.772,2.506-6.037,2.5H58.283
			c-6.802-0.021-13.33,2.683-18.125,7.508l-32.65,32.65C2.686,258.288-0.018,264.815,0,271.617v182.1
			c-0.018,6.802,2.685,13.328,7.508,18.125l32.65,32.65c4.796,4.823,11.323,7.527,18.125,7.509h36.996
			c6.818-0.019,13.353-2.726,18.188-7.533l1-1h283.067l1.025,1.025c4.797,4.823,11.323,7.527,18.125,7.508h37.033
			c6.802,0.018,13.328-2.685,18.125-7.508l32.65-32.65c4.823-4.797,7.527-11.323,7.508-18.125V271.654
			c-0.019-6.818-2.726-13.353-7.533-18.187L471.846,220.846z M247.467,17.067h17.067V153.6h-17.067V17.067z M238.933,170.667h34.133
			v17.067h-34.133V170.667z M131.533,486.4l14.563-14.562c1.603-1.61,3.783-2.511,6.054-2.504h207.663
			c2.297-0.007,4.501,0.906,6.121,2.533l14.533,14.533H131.533z M494.933,453.717c0.006,2.273-0.897,4.455-2.509,6.059l-32.65,32.65
			c-1.604,1.611-3.785,2.515-6.059,2.509h-37.033c-2.273,0.006-4.455-0.897-6.059-2.509l-3.522-3.522l-0.005-0.005L378,459.8
			c-4.813-4.84-11.362-7.552-18.187-7.534H152.15c-6.803-0.021-13.33,2.683-18.125,7.508l-29.122,29.122l-0.005,0.005L101.4,492.4
			c-1.628,1.616-3.827,2.526-6.121,2.533H58.283c-2.273,0.006-4.455-0.897-6.059-2.509l-32.649-32.65
			c-1.611-1.604-2.515-3.785-2.509-6.059v-182.1c-0.006-2.273,0.897-4.455,2.509-6.059l32.654-32.654
			c1.603-1.609,3.782-2.511,6.054-2.504h113.846c6.794,0.019,13.314-2.682,18.104-7.5l15.596-15.596
			c1.603-1.61,3.783-2.511,6.054-2.504h88.233c2.274-0.007,4.455,0.896,6.059,2.508l15.591,15.592
			c4.79,4.818,11.31,7.519,18.104,7.5h113.846c2.274-0.007,4.455,0.896,6.059,2.508l32.625,32.625
			c1.616,1.628,2.526,3.827,2.533,6.121V453.717z"/>
		<path d="M68.267,298.667h17.067c9.422-0.009,17.057-7.645,17.067-17.067v-17.067c-0.009-9.422-7.645-17.057-17.067-17.067H68.267
			c-9.422,0.009-17.057,7.645-17.067,17.067V281.6C51.21,291.022,58.845,298.657,68.267,298.667z M68.267,264.533h17.067
			l0.012,17.067H68.267V264.533z"/>
		<path d="M170.667,247.467H153.6c-9.422,0.009-17.057,7.645-17.067,17.067V281.6c0.009,9.422,7.645,17.057,17.067,17.067h17.067
			c9.422-0.009,17.057-7.645,17.067-17.067v-17.067C187.724,255.112,180.089,247.476,170.667,247.467z M153.6,281.6v-17.067h17.067
			l0.012,17.067H153.6z"/>
		<path d="M221.867,298.667h17.067c9.422-0.009,17.057-7.645,17.067-17.067v-17.067c-0.009-9.422-7.645-17.057-17.067-17.067
			h-17.067c-9.422,0.009-17.057,7.645-17.067,17.067V281.6C204.81,291.022,212.445,298.657,221.867,298.667z M221.867,264.533
			h17.067l0.012,17.067h-17.079V264.533z"/>
		<path d="M307.2,247.467h-17.067c-9.422,0.009-17.057,7.645-17.067,17.067V281.6c0.009,9.422,7.645,17.057,17.067,17.067H307.2
			c9.422-0.009,17.057-7.645,17.067-17.067v-17.067C324.257,255.112,316.622,247.476,307.2,247.467z M290.133,281.6v-17.067H307.2
			l0.012,17.067H290.133z"/>
		<path d="M375.467,247.467H358.4c-9.422,0.009-17.057,7.645-17.067,17.067V281.6c0.009,9.422,7.645,17.057,17.067,17.067h17.067
			c9.422-0.009,17.057-7.645,17.067-17.067v-17.067C392.524,255.112,384.889,247.476,375.467,247.467z M358.4,281.6v-17.067h17.067
			l0.012,17.067H358.4z"/>
		<path d="M443.733,247.467h-17.067c-9.422,0.009-17.057,7.645-17.067,17.067V281.6c0.009,9.422,7.645,17.057,17.067,17.067h17.067
			c9.422-0.009,17.057-7.645,17.067-17.067v-17.067C460.791,255.112,453.155,247.476,443.733,247.467z M426.667,281.6v-17.067
			h17.067l0.012,17.067H426.667z"/>
		<path d="M170.667,315.733H153.6c-9.422,0.009-17.057,7.645-17.067,17.067v17.067c0.009,9.422,7.645,17.057,17.067,17.067h17.067
			c9.422-0.009,17.057-7.645,17.067-17.067V332.8C187.724,323.378,180.089,315.743,170.667,315.733z M153.6,349.867V332.8h17.067
			l0.012,17.067H153.6z"/>
		<path d="M102.4,315.733H68.267c-9.422,0.009-17.057,7.645-17.067,17.067v17.067c0.009,9.422,7.645,17.057,17.067,17.067H102.4
			c9.422-0.009,17.057-7.645,17.067-17.067V332.8C119.457,323.378,111.822,315.743,102.4,315.733z M68.267,349.867V332.8H102.4
			l0.012,17.067H68.267z"/>
		<path d="M221.867,366.933h17.067c9.422-0.009,17.057-7.645,17.067-17.067V332.8c-0.009-9.422-7.645-17.057-17.067-17.067h-17.067
			c-9.422,0.009-17.057,7.645-17.067,17.067v17.067C204.81,359.288,212.445,366.924,221.867,366.933z M221.867,332.8h17.067
			l0.012,17.067h-17.079V332.8z"/>
		<path d="M307.2,315.733h-17.067c-9.422,0.009-17.057,7.645-17.067,17.067v17.067c0.009,9.422,7.645,17.057,17.067,17.067H307.2
			c9.422-0.009,17.057-7.645,17.067-17.067V332.8C324.257,323.378,316.622,315.743,307.2,315.733z M290.133,349.867V332.8H307.2
			l0.012,17.067H290.133z"/>
		<path d="M375.467,315.733H358.4c-9.422,0.009-17.057,7.645-17.067,17.067v17.067c0.009,9.422,7.645,17.057,17.067,17.067h17.067
			c9.422-0.009,17.057-7.645,17.067-17.067V332.8C392.524,323.378,384.889,315.743,375.467,315.733z M358.4,349.867V332.8h17.067
			l0.012,17.067H358.4z"/>
		<path d="M443.733,315.733h-17.067c-9.422,0.009-17.057,7.645-17.067,17.067v17.067c0.009,9.422,7.645,17.057,17.067,17.067h17.067
			c9.422-0.009,17.057-7.645,17.067-17.067V332.8C460.791,323.378,453.155,315.743,443.733,315.733z M426.667,349.867V332.8h17.067
			l0.012,17.067H426.667z"/>
		<path d="M170.667,384H153.6c-9.422,0.009-17.057,7.645-17.067,17.067v17.067c0.009,9.422,7.645,17.057,17.067,17.067h17.067
			c9.422-0.009,17.057-7.645,17.067-17.067v-17.067C187.724,391.645,180.089,384.009,170.667,384z M153.6,418.133v-17.067h17.067
			l0.012,17.067H153.6z"/>
		<path d="M102.4,384H68.267c-9.422,0.009-17.057,7.645-17.067,17.067v17.067c0.009,9.422,7.645,17.057,17.067,17.067H102.4
			c9.422-0.009,17.057-7.645,17.067-17.067v-17.067C119.457,391.645,111.822,384.009,102.4,384z M68.267,418.133v-17.067H102.4
			l0.012,17.067H68.267z"/>
		<path d="M307.2,384h-85.333c-9.422,0.009-17.057,7.645-17.067,17.067v17.067c0.009,9.422,7.645,17.057,17.067,17.067H307.2
			c9.422-0.009,17.057-7.645,17.067-17.067v-17.067C324.257,391.645,316.622,384.009,307.2,384z M307.2,418.133h-85.333v-17.067
			H307.2V418.133z"/>
		<path d="M375.467,384H358.4c-9.422,0.009-17.057,7.645-17.067,17.067v17.067c0.009,9.422,7.645,17.057,17.067,17.067h17.067
			c9.422-0.009,17.057-7.645,17.067-17.067v-17.067C392.524,391.645,384.889,384.009,375.467,384z M358.4,418.133v-17.067h17.067
			l0.012,17.067H358.4z"/>
		<path d="M443.733,384h-17.067c-9.422,0.009-17.057,7.645-17.067,17.067v17.067c0.009,9.422,7.645,17.057,17.067,17.067h17.067
			c9.422-0.009,17.057-7.645,17.067-17.067v-17.067C460.791,391.645,453.155,384.009,443.733,384z M426.667,418.133v-17.067h17.067
			l0.012,17.067H426.667z"/>
	</g>
</g>
<g>
</g>
<g>
</g>
<g>
</g>
<g>
</g>
<g>
</g>
<g>
</g>
<g>
</g>
<g>
</g>
<g>
</g>
<g>
</g>
<g>
</g>
<g>
</g>
<g>
</g>
<g>
</g>
<g>
</g>
</svg>
