<?xml version="1.0" encoding="iso-8859-1"?>
<!-- Generator: Adobe Illustrator 19.0.0, SVG Export Plug-In . SVG Version: 6.00 Build 0)  -->
<svg version="1.1" id="Capa_1" xmlns="http://www.w3.org/2000/svg" xmlns:xlink="http://www.w3.org/1999/xlink" x="0px" y="0px"
	 viewBox="0 0 512.025 512.025" style="enable-background:new 0 0 512.025 512.025;" xml:space="preserve">
<g>
	<g transform="translate(1 1)">
		
			<rect x="422.155" y="0.229" transform="matrix(-0.7071 -0.7071 0.7071 -0.7071 702.8854 430.1042)" style="fill:#607D8B;" width="36.719" height="138.521"/>
		<path style="fill:#CFD8DC;" d="M398.01,85.1l26.881,26.878c3.333,3.332,3.333,8.735,0.001,12.068l-35.219,35.222l-38.949-38.946
			l35.219-35.222C389.275,81.768,394.678,81.768,398.01,85.1z"/>
		<path style="fill:#37474F;" d="M311.582,340.418c-7.083,12.715-13.995,25.429-20.651,38.485
			c-6.485,12.459-12.715,25.003-18.517,37.973c-6.144,13.397-9.301,28.843-16.128,41.813c-14.592,27.051-58.539,38.4-87.04,41.984
			c-28.046,4.699-56.851,1.295-83.029-9.813c-2.727-1.308-5.351-2.82-7.851-4.523c-3.102-2.354-6.012-4.951-8.704-7.765
			c-12.885-12.885-25.771-25.941-38.656-38.827c-2.545-2.44-4.939-5.034-7.168-7.765c-1.602-2.111-3.002-4.368-4.181-6.741
			c-5.847-11.784-9.491-24.538-10.752-37.632c-1.892-15.566-1.778-31.311,0.341-46.848c3.669-28.587,14.933-72.448,41.984-87.04
			c12.971-6.912,28.501-9.984,41.899-16.128c12.885-5.803,25.515-12.032,37.973-18.517c12.971-6.656,25.771-13.54,38.4-20.651
			L296.563,325.4L311.582,340.418z"/>
		<path style="fill:#607D8B;" d="M296.563,325.4c-6.741,12.032-13.227,24.064-19.541,36.437
			c-6.485,12.459-12.715,25.003-18.517,37.973c-3.178,7.378-5.941,14.927-8.277,22.613c-2.143,6.584-4.767,13.001-7.851,19.2
			c-11.861,22.016-43.179,33.621-69.803,39.083c-6.059,1.28-11.947,2.219-17.237,2.901c-28.018,4.705-56.797,1.3-82.944-9.813
			c-2.754-1.308-5.407-2.82-7.936-4.523c-3.092-2.334-5.976-4.932-8.619-7.765c-12.117-12.032-24.064-24.235-36.181-36.267
			c-5.847-11.784-9.491-24.538-10.752-37.632c-1.892-15.566-1.778-31.311,0.341-46.848c3.669-28.587,14.933-72.448,41.984-87.04
			c12.971-6.912,28.501-9.984,41.899-16.128c12.885-5.803,25.515-12.032,37.973-18.517c12.971-6.656,25.771-13.54,38.4-20.651
			L296.563,325.4z"/>
		<path style="fill:#1566C0;" d="M425.16,236.738c-4.201,15.939-13.675,29.985-26.88,39.851l-6.485,4.864L358.771,306.2
			c-3.84,2.901-7.68,5.717-11.52,8.533C283.829,361.6,217.6,404.546,148.936,443.33c-9.049,5.151-19.284,7.857-29.696,7.851
			c-16.039-0.023-31.413-6.406-42.752-17.749c-1.257-1.224-2.427-2.536-3.499-3.925c-16.212-19.279-18.73-46.605-6.315-68.523
			c38.923-68.553,81.863-134.744,128.597-198.229c2.816-3.84,5.632-7.68,8.533-11.52l24.747-33.024l4.864-6.485
			c22.135-29.351,62.529-37.874,94.635-19.968c5.891,3.264,11.292,7.343,16.043,12.117l62.037,62.037
			C424.699,184.41,431.957,211.425,425.16,236.738z"/>
		<path style="fill:#2296F3;" d="M406.131,221.634c-4.201,15.939-13.675,29.985-26.88,39.851l-6.485,4.864l-33.024,24.747
			c-3.84,2.901-7.68,5.717-11.52,8.533c-63.422,46.867-129.651,89.813-198.315,128.597c-17.544,9.993-38.942,10.474-56.917,1.28
			c-16.212-19.279-18.73-46.605-6.315-68.523c38.923-68.553,81.863-134.744,128.597-198.229c2.816-3.84,5.632-7.68,8.533-11.52
			l24.747-33.024l4.864-6.485c22.135-29.351,62.529-37.874,94.635-19.968l59.051,59.051
			C405.669,169.306,412.928,196.321,406.131,221.634z"/>
		<path style="fill:#3F51B5;" d="M284.275,121.88l-26.027,25.941l-29.611-29.611h-0.085l4.864-6.485
			c9.821-13.195,23.848-22.646,39.765-26.795l11.093,11.008C291.358,103.135,291.358,114.683,284.275,121.88z"/>
		<path style="fill:#283593;" d="M425.16,236.738c-4.201,15.939-13.675,29.985-26.88,39.851l-6.485,4.864v-0.085l-29.696-29.696
			l26.027-25.941c7.197-7.083,18.745-7.083,25.941,0l11.008,11.008H425.16z"/>
		<path style="fill:#3F51B5;" d="M258.248,147.821l-25.941,26.027c-7.197,7.083-18.745,7.083-25.941,0l-11.093-11.093
			c2.816-3.84,5.632-7.68,8.533-11.52l24.747-33.024h0.085L258.248,147.821z"/>
		<path style="fill:#283593;" d="M391.795,281.368v0.085L358.771,306.2c-3.84,2.901-7.68,5.717-11.52,8.533l-11.093-11.093
			c-3.442-3.439-5.376-8.105-5.376-12.971s1.934-9.532,5.376-12.971l25.941-26.027L391.795,281.368z"/>
		<path style="fill:#F4F4F4;" d="M101.235,233.752v0.085L83.23,267.97c-18.093,34.299-43.848,63.966-75.264,86.699H7.88
			c0.341-4.608,0.768-9.301,1.365-13.909c3.669-28.587,14.933-72.448,41.984-87.04c12.971-6.912,28.501-9.984,41.899-16.128
			C95.859,236.397,98.504,235.117,101.235,233.752z"/>
		<path style="fill:#CFD8DC;" d="M276.254,408.77c-1.365,2.645-2.645,5.376-3.84,8.107c-6.144,13.397-9.301,28.843-16.128,41.813
			c-14.592,27.051-58.539,38.4-87.04,41.984c-4.608,0.597-9.216,1.024-13.909,1.365v-0.085c5.343-7.401,11.097-14.494,17.237-21.248
			c26.624-5.461,57.941-17.067,69.803-39.083c3.083-6.199,5.707-12.616,7.851-19.2l25.856-13.739L276.254,408.77z"/>
		<path style="fill:#F4F4F4;" d="M250.227,422.424c-2.143,6.584-4.767,13.001-7.851,19.2
			c-11.861,22.016-43.179,33.621-69.803,39.083c19.751-21.942,43.241-40.202,69.376-53.931L250.227,422.424z"/>
		<path style="fill:#3F51B5;" d="M316.249,179.835l13.897,13.896c3.333,3.332,3.333,8.735,0.001,12.068l-26.88,26.883
			c-3.332,3.333-8.735,3.333-12.068,0.001l-13.897-13.896c-3.333-3.332-3.333-8.735-0.001-12.068l26.88-26.883
			C307.513,176.503,312.917,176.503,316.249,179.835z"/>
	</g>
	<path d="M512.006,34.496c-0.001-2.263-0.9-4.433-2.5-6.033L483.539,2.5c-1.6-1.601-3.77-2.5-6.033-2.5s-4.434,0.899-6.033,2.5
		l-72.002,71.994l-0.457-0.457c-1.6-1.601-3.77-2.5-6.033-2.5c-2.263,0-4.434,0.899-6.033,2.5l-30.3,30.296l-5.496-5.495
		c-16.805-16.801-40.073-25.484-63.776-23.8c-23.703,1.684-45.509,13.57-59.77,32.579l-29.642,39.521
		c-11.263,15.015-22.261,30.291-33.12,45.68c-13.522,7.537-25.542,13.989-36.68,19.675c-13.758,7.162-26.033,13.141-37.596,18.313
		c-5.884,2.559-11.899,4.804-18.021,6.725c-8.366,2.553-16.508,5.792-24.342,9.683c-33.446,18.041-43.6,71.383-46.413,93.458
		c-2.227,16.273-2.357,32.765-0.387,49.071c1.333,17.3,7.078,33.969,16.688,48.417c2.433,3.048,5.065,5.93,7.879,8.629L64.66,485.6
		c3.034,3.205,6.339,6.141,9.879,8.775c2.862,1.964,5.88,3.689,9.025,5.158c18.948,8.633,39.595,12.892,60.413,12.463
		c9.132-0.028,18.254-0.639,27.308-1.829c22.096-2.813,75.437-12.962,93.512-46.463c3.881-7.822,7.113-15.949,9.663-24.3
		c1.928-6.144,4.184-12.181,6.758-18.083c5.142-11.504,11.121-23.775,18.308-37.579c5.654-11.079,11.921-22.759,19.586-36.505
		c15.421-10.878,30.669-21.952,45.743-33.22l39.525-29.638v-0.004c19.011-14.257,30.899-36.062,32.584-59.765
		c1.684-23.703-7.001-46.971-23.805-63.772l-5.494-5.493l30.298-30.298c1.601-1.6,2.5-3.77,2.5-6.033c0-2.263-0.899-4.433-2.5-6.033
		l-0.456-0.456l71.997-71.994C511.106,38.929,512.005,36.759,512.006,34.496z M271.846,95.598l7.36,7.36
		c3.811,3.85,3.811,10.05,0,13.9l-19.934,19.929l-18.409-18.406l0.393-0.523C249.011,107.561,259.662,99.811,271.846,95.598z
		 M230.52,132.172l16.683,16.681l-19.935,19.93c-3.9,3.683-9.996,3.683-13.896,0l-5.813-5.813c1.373-1.844,2.676-3.754,4.054-5.592
		L230.52,132.172z M56.252,262.262c6.996-3.432,14.259-6.291,21.717-8.55c1.881-0.629,3.791-1.306,5.694-1.962l-7.007,13.258
		c-14.31,27.139-33.645,51.314-56.976,71.238C22.858,316.396,32.213,275.229,56.252,262.262z M249.751,455.65
		c-13.004,24.102-54.197,33.455-74.049,36.632c19.926-23.334,44.105-42.67,71.249-56.978l13.291-7.024
		c-0.657,1.906-1.336,3.822-1.966,5.704C256.021,441.422,253.17,448.668,249.751,455.65z M284.36,375.925
		c-5.128,9.842-9.642,18.929-13.706,27.547l-31.681,16.745c-34.207,18.011-63.948,43.451-87.04,74.455
		c-20.893,1.558-41.849-2.06-61.01-10.534c-2.296-1.068-4.501-2.319-6.596-3.742c-2.714-2.079-5.256-4.374-7.6-6.862l-38.688-38.813
		c-2.264-2.162-4.39-4.465-6.362-6.896c-7.755-12.097-12.345-25.949-13.346-40.283c-1.11-9.14-1.446-18.356-1.006-27.553
		c30.982-23.09,56.409-52.816,74.418-87.002l16.725-31.643c8.632-4.072,17.709-8.578,27.516-13.686
		c2.52-1.285,5.109-2.63,7.727-3.997c-29.584,43.671-57.657,88.45-83.493,134.151c-15.198,26.96-10.573,60.743,11.311,82.627
		c21.884,21.884,55.667,26.508,82.627,11.311c45.566-25.755,90.367-53.533,133.924-83.018
		C286.815,371.157,285.562,373.567,284.36,375.925z M354.614,300.362c-1.839,1.379-3.75,2.682-5.595,4.055l-5.814-5.814
		c-3.811-3.848-3.811-10.048,0-13.896l19.935-19.932l16.681,16.681L354.614,300.362z M394.139,270.721l-0.526,0.395l-18.405-18.405
		l19.935-19.932c3.9-3.683,9.996-3.683,13.896,0l7.361,7.361C412.188,252.322,404.437,262.969,394.139,270.721z M420,219.822
		c-10.717-9.214-26.667-8.829-36.928,0.89l-51.933,51.925c-10.478,10.513-10.478,27.52,0,38.033l3.889,3.889
		c-60.672,44.407-123.87,85.254-189.277,122.336c-20.284,11.471-45.729,8.005-62.206-8.473
		c-16.478-16.478-19.943-41.922-8.473-62.206c37.085-65.4,77.935-128.591,122.345-189.255l3.888,3.889
		c10.513,10.478,27.52,10.478,38.033,0l51.933-51.925c10.087-10.137,10.461-26.401,0.851-36.991
		c0.358-0.006,0.717-0.038,1.075-0.038c17.211,0,33.718,6.837,45.887,19.008l11.526,11.525l0.003,0.005l13.44,13.439l-39.864,39.862
		l-0.922-0.921c-6.671-6.645-17.46-6.643-24.129,0.004l-26.879,26.879c-6.654,6.67-6.654,17.467,0,24.137l0.912,0.912
		l-84.849,84.842c-2.156,2.156-2.997,5.297-2.208,8.242c0.789,2.944,3.089,5.244,6.033,6.033c2.944,0.789,6.086-0.053,8.242-2.208
		l84.849-84.842l0.917,0.917l0.004,0.004c6.671,6.646,17.461,6.644,24.129-0.004l26.888-26.883
		c6.647-6.672,6.645-17.463-0.004-24.133l-0.915-0.914l39.864-39.86l13.443,13.441l0.008,0.005l11.521,11.52
		C413.491,185.337,420.314,202.267,420,219.822z M284.327,213.762l26.879-26.879l13.9,13.9l-26.879,26.883l-0.009-0.009
		L284.327,213.762z M395.598,143.278l-26.883-26.879l24.266-24.261l13.442,13.438l12.983,12.983l0.012,0.008l0.446,0.446
		L395.598,143.278z M425.439,100.458l-6.951-6.95l-6.95-6.95L477.505,20.6l13.9,13.896L425.439,100.458z"/>
</g>
<g>
</g>
<g>
</g>
<g>
</g>
<g>
</g>
<g>
</g>
<g>
</g>
<g>
</g>
<g>
</g>
<g>
</g>
<g>
</g>
<g>
</g>
<g>
</g>
<g>
</g>
<g>
</g>
<g>
</g>
</svg>
