<?xml version="1.0" encoding="iso-8859-1"?>
<!-- Generator: Adobe Illustrator 19.0.0, SVG Export Plug-In . SVG Version: 6.00 Build 0)  -->
<svg version="1.1" id="Capa_1" xmlns="http://www.w3.org/2000/svg" xmlns:xlink="http://www.w3.org/1999/xlink" x="0px" y="0px"
	 viewBox="0 0 512 512" style="enable-background:new 0 0 512 512;" xml:space="preserve">
<g>
	<g transform="translate(1 8)">
		<path style="fill:#C52828;" d="M502.467,137.033v341.333c-0.028,9.414-7.653,17.039-17.067,17.067h-25.6
			c9.414-0.028,17.039-7.652,17.067-17.067V137.033l-42.667-76.8h25.6L502.467,137.033z"/>
		<path style="fill:#F44335;" d="M476.867,137.033v341.333c-0.028,9.414-7.653,17.039-17.067,17.067H24.6
			c-9.414-0.028-17.039-7.652-17.067-17.067V137.033l42.667-76.8h119.467l-8.533,34.133h187.733l-8.533-34.133H434.2
			L476.867,137.033z"/>
		<path style="fill:#C52828;" d="M58.733,179.7h51.2c4.713,0,8.533,3.82,8.533,8.533v204.8c0,4.713-3.821,8.533-8.533,8.533h-51.2
			c-4.713,0-8.533-3.82-8.533-8.533v-204.8C50.2,183.521,54.021,179.7,58.733,179.7z"/>
		<rect x="50.2" y="273.567" style="fill:#FFEB3A;" width="68.267" height="93.867"/>
		<path style="fill:#C52828;" d="M169.667,179.7h51.2c4.713,0,8.533,3.82,8.533,8.533v204.8c0,4.713-3.821,8.533-8.533,8.533h-51.2
			c-4.713,0-8.533-3.82-8.533-8.533v-204.8C161.133,183.521,164.954,179.7,169.667,179.7z"/>
		<rect x="161.133" y="273.567" style="fill:#FFEB3A;" width="68.267" height="93.867"/>
		<path style="fill:#C52828;" d="M289.133,179.7h51.2c4.713,0,8.533,3.82,8.533,8.533v204.8c0,4.713-3.821,8.533-8.533,8.533h-51.2
			c-4.713,0-8.533-3.82-8.533-8.533v-204.8C280.6,183.521,284.421,179.7,289.133,179.7z"/>
		<rect x="280.6" y="273.567" style="fill:#FFEB3A;" width="68.267" height="93.867"/>
		<path style="fill:#C52828;" d="M400.067,179.7h51.2c4.713,0,8.533,3.82,8.533,8.533v204.8c0,4.713-3.82,8.533-8.533,8.533h-51.2
			c-4.713,0-8.533-3.82-8.533-8.533v-204.8C391.533,183.521,395.354,179.7,400.067,179.7z"/>
		<rect x="391.533" y="273.567" style="fill:#FFEB3A;" width="68.267" height="93.867"/>
		<polygon style="fill:#F44335;" points="502.467,137.033 7.533,137.033 50.2,60.233 169.667,60.233 161.133,94.367 348.867,94.367 
			340.333,60.233 459.8,60.233 		"/>
		<polygon style="fill:#C52828;" points="502.467,137.033 476.867,137.033 434.2,60.233 459.8,60.233 		"/>
	</g>
	<g>
		<path d="M51.2,418.1h68.267c2.263,0.001,4.434-0.898,6.035-2.499c1.6-1.6,2.499-3.771,2.499-6.035V187.7
			c0.001-2.263-0.898-4.434-2.499-6.035c-1.6-1.6-3.771-2.499-6.035-2.499H51.2c-2.263-0.001-4.434,0.898-6.035,2.499
			c-1.6,1.6-2.499,3.771-2.499,6.035v221.867c-0.001,2.263,0.898,4.434,2.499,6.035C46.766,417.202,48.937,418.101,51.2,418.1z
			 M59.733,401.033v-17.067h51.2v17.067H59.733z M59.733,290.1h51.2v76.8h-51.2V290.1z M110.933,196.233v76.8h-51.2v-76.8H110.933z"
			/>
		<path d="M162.133,418.1H230.4c2.263,0.001,4.434-0.898,6.035-2.499c1.6-1.6,2.499-3.771,2.499-6.035V187.7
			c0.001-2.263-0.898-4.434-2.499-6.035c-1.6-1.6-3.771-2.499-6.035-2.499h-68.267c-2.263-0.001-4.434,0.898-6.035,2.499
			s-2.499,3.771-2.499,6.035v221.867c-0.001,2.263,0.898,4.434,2.499,6.035C157.699,417.202,159.87,418.101,162.133,418.1z
			 M170.667,401.033v-17.067h51.2v17.067H170.667z M170.667,290.1h51.2v76.8h-51.2V290.1z M221.867,196.233v76.8h-51.2v-76.8
			H221.867z"/>
		<path d="M281.6,418.1h68.267c2.263,0.001,4.434-0.898,6.035-2.499c1.6-1.6,2.499-3.771,2.499-6.035V187.7
			c0.001-2.263-0.898-4.434-2.499-6.035s-3.771-2.499-6.035-2.499H281.6c-2.263-0.001-4.434,0.898-6.035,2.499
			c-1.6,1.6-2.499,3.771-2.499,6.035v221.867c-0.001,2.263,0.898,4.434,2.499,6.035C277.166,417.202,279.337,418.101,281.6,418.1z
			 M290.133,401.033v-17.067h51.2v17.067H290.133z M290.133,290.1h51.2v76.8h-51.2V290.1z M341.333,196.233v76.8h-51.2v-76.8
			H341.333z"/>
		<path d="M392.533,418.1H460.8c2.263,0.001,4.434-0.898,6.035-2.499c1.6-1.6,2.499-3.771,2.499-6.035V187.7
			c0.001-2.263-0.898-4.434-2.499-6.035c-1.6-1.6-3.771-2.499-6.035-2.499h-68.267c-2.263-0.001-4.434,0.898-6.035,2.499
			c-1.6,1.6-2.499,3.771-2.499,6.035v221.867c-0.001,2.263,0.898,4.434,2.499,6.035C388.099,417.202,390.27,418.101,392.533,418.1z
			 M401.067,401.033v-17.067h51.2v17.067H401.067z M401.067,290.1h51.2v76.8h-51.2V290.1z M452.267,196.233v76.8h-51.2v-76.8
			H452.267z"/>
		<path d="M76.8,435.167c-2.263-0.001-4.434,0.898-6.035,2.499c-1.6,1.6-2.499,3.771-2.499,6.035v25.6
			c0,4.713,3.821,8.533,8.533,8.533s8.533-3.82,8.533-8.533v-25.6c0.001-2.263-0.898-4.434-2.499-6.035
			C81.234,436.065,79.063,435.166,76.8,435.167z"/>
		<path d="M196.267,435.167c-2.263-0.001-4.434,0.898-6.035,2.499c-1.6,1.6-2.499,3.771-2.499,6.035v25.6
			c0,4.713,3.821,8.533,8.533,8.533s8.533-3.82,8.533-8.533v-25.6c0.001-2.263-0.898-4.434-2.499-6.035
			C200.701,436.065,198.53,435.166,196.267,435.167z"/>
		<path d="M315.733,435.167c-2.263-0.001-4.434,0.898-6.035,2.499c-1.6,1.6-2.499,3.771-2.499,6.035v25.6
			c0,4.713,3.821,8.533,8.533,8.533c4.713,0,8.533-3.82,8.533-8.533v-25.6c0.001-2.263-0.898-4.434-2.499-6.035
			C320.168,436.065,317.997,435.166,315.733,435.167z"/>
		<path d="M426.667,435.167c-2.263-0.001-4.434,0.898-6.035,2.499c-1.6,1.6-2.499,3.771-2.499,6.035v25.6
			c0,4.713,3.82,8.533,8.533,8.533s8.533-3.82,8.533-8.533v-25.6c0.001-2.263-0.898-4.434-2.499-6.035
			C431.101,436.065,428.93,435.166,426.667,435.167z"/>
		<path d="M511.414,142.124c-0.089-0.24-0.168-0.468-0.276-0.697c-0.082-0.177-0.117-0.367-0.213-0.539l-42.667-76.8
			c-1.504-2.709-4.359-4.389-7.458-4.388h-12.046L418,4.354c-2.312-4.072-7.474-5.519-11.566-3.244
			c-4.093,2.275-5.588,7.423-3.35,11.536L429.229,59.7h-48.742L349.733,4.354c-2.312-4.072-7.474-5.519-11.566-3.244
			c-4.093,2.275-5.588,7.423-3.35,11.536L360.962,59.7h-19.629c-2.628,0-5.108,1.212-6.725,3.283
			c-1.617,2.071-2.188,4.772-1.55,7.321l5.875,23.529H173.067l5.875-23.529c0.638-2.549,0.066-5.25-1.55-7.321
			s-4.097-3.283-6.725-3.283h-11.096l26.146-47.054c2.238-4.113,0.743-9.261-3.35-11.536c-4.093-2.275-9.254-0.827-11.566,3.244
			L140.046,59.7H82.771l26.146-47.054c2.238-4.113,0.743-9.261-3.35-11.536c-4.093-2.275-9.254-0.827-11.566,3.244L63.246,59.7H51.2
			c-3.099-0.002-5.954,1.678-7.458,4.388l-42.667,76.8c-0.096,0.172-0.131,0.364-0.213,0.541c-0.107,0.228-0.186,0.455-0.274,0.694
			c-0.338,0.884-0.526,1.818-0.558,2.764c0,0.052-0.03,0.095-0.03,0.148v341.333c0.015,14.132,11.468,25.585,25.6,25.6h460.8
			c14.132-0.015,25.585-11.468,25.6-25.6V145.033c0-0.053-0.029-0.096-0.029-0.148C511.94,143.94,511.751,143.007,511.414,142.124z
			 M56.225,76.767h103.508l-5.875,23.529c-0.638,2.549-0.066,5.25,1.55,7.321c1.616,2.071,4.097,3.283,6.725,3.283h187.733
			c2.628,0,5.108-1.212,6.725-3.283c1.617-2.071,2.188-4.772,1.55-7.321l-5.875-23.529h103.508l33.192,59.733H23.033L56.225,76.767z
			 M494.933,486.367c-0.005,4.711-3.822,8.529-8.533,8.533H25.6c-4.711-0.005-8.529-3.822-8.533-8.533v-332.8h477.867V486.367z"/>
	</g>
</g>
<g>
</g>
<g>
</g>
<g>
</g>
<g>
</g>
<g>
</g>
<g>
</g>
<g>
</g>
<g>
</g>
<g>
</g>
<g>
</g>
<g>
</g>
<g>
</g>
<g>
</g>
<g>
</g>
<g>
</g>
</svg>
