<?xml version="1.0" encoding="iso-8859-1"?>
<!-- Generator: Adobe Illustrator 19.0.0, SVG Export Plug-In . SVG Version: 6.00 Build 0)  -->
<svg version="1.1" id="Capa_1" xmlns="http://www.w3.org/2000/svg" xmlns:xlink="http://www.w3.org/1999/xlink" x="0px" y="0px"
	 viewBox="0 0 512 512" style="enable-background:new 0 0 512 512;" xml:space="preserve">
<g>
	<g transform="translate(1 1)">
		<g>
			<path style="fill:#607D8B;" d="M16.067,331.8H50.2v25.6c0,9.426-7.641,17.067-17.067,17.067s-17.067-7.641-17.067-17.067V331.8z"
				/>
			<path style="fill:#607D8B;" d="M459.8,331.8h34.133v25.6c0,9.426-7.641,17.067-17.067,17.067
				c-9.426,0-17.067-7.641-17.067-17.067V331.8z"/>
		</g>
		<path style="fill:#AD1457;" d="M502.467,220.867V331.8c-0.014,4.707-3.826,8.519-8.533,8.533H16.067
			c-4.707-0.014-8.519-3.826-8.533-8.533V220.867h0.256L67.267,50.883l7.168-20.48c4.787-13.712,17.732-22.89,32.256-22.869h296.619
			c14.524-0.021,27.469,9.157,32.256,22.869l7.168,20.48l59.477,169.984H502.467z"/>
		<path style="fill:#E91E63;" d="M476.867,220.867V331.8c-0.014,4.707-3.826,8.519-8.533,8.533H16.067
			c-4.707-0.014-8.519-3.826-8.533-8.533V220.867h0.256L67.267,50.883l7.168-20.48c4.787-13.712,17.732-22.89,32.256-22.869h271.019
			c14.524-0.021,27.469,9.157,32.256,22.869l7.168,20.48l59.477,169.984H476.867z"/>
		<path style="fill:#AD1457;" d="M502.467,220.867V331.8c-0.014,4.707-3.826,8.519-8.533,8.533h-25.6
			c4.707-0.014,8.519-3.826,8.533-8.533V220.867H502.467z"/>
		<path style="fill:#E91E63;" d="M476.867,340.333h-460.8c-4.707-0.014-8.52-3.826-8.533-8.533V220.867h469.333V340.333z"/>
		<path style="fill:#AD1457;" d="M395.544,297.667h21.589c9.426,0,17.067-7.641,17.067-17.067s-7.641-17.067-17.067-17.067H92.867
			c-9.426,0-17.067,7.641-17.067,17.067s7.641,17.067,17.067,17.067H395.544z"/>
		<polygon style="fill:#CFD8DC;" points="103.755,153.283 130.883,75.8 379.117,75.8 406.245,153.283 		"/>
		<path style="fill:#607D8B;" d="M442.733,434.2v51.2c-0.028,9.414-7.653,17.039-17.067,17.067H84.333
			c-9.414-0.028-17.039-7.653-17.067-17.067v-51.2L127,263.533h256L442.733,434.2z"/>
		<path style="fill:#CFD8DC;" d="M417.133,434.2v51.2c-0.028,9.414-7.653,17.039-17.067,17.067H84.333
			c-9.414-0.028-17.039-7.653-17.067-17.067v-51.2L127,263.533h230.4L417.133,434.2z"/>
		<path style="fill:#607D8B;" d="M442.733,434.2v51.2c-0.028,9.414-7.653,17.039-17.067,17.067h-25.6
			c9.414-0.028,17.039-7.653,17.067-17.067v-51.2H442.733z"/>
		<path style="fill:#CFD8DC;" d="M417.133,434.2v51.2c-0.028,9.414-7.653,17.039-17.067,17.067H84.333
			c-9.414-0.028-17.039-7.653-17.067-17.067v-51.2H417.133z"/>
		<ellipse style="fill:#00BCD4;" cx="255" cy="331.8" rx="110.933" ry="68.267"/>
		<ellipse style="fill:#00838F;" cx="255" cy="331.8" rx="34.133" ry="17.067"/>
	</g>
	<g>
		<path d="M110.933,477.867h34.133c4.713,0,8.533-3.821,8.533-8.533c0-4.713-3.821-8.533-8.533-8.533h-34.133
			c-4.713,0-8.533,3.821-8.533,8.533C102.4,474.046,106.221,477.867,110.933,477.867z"/>
		<path d="M179.2,477.867c2.27,0.022,4.453-0.87,6.058-2.475c1.605-1.605,2.497-3.788,2.475-6.058
			c-0.013-1.116-0.245-2.219-0.683-3.246c-0.412-1.044-1.02-1.998-1.792-2.813c-3.421-3.158-8.695-3.158-12.117,0
			c-0.772,0.814-1.38,1.769-1.792,2.813c-0.438,1.027-0.67,2.13-0.683,3.246c-0.022,2.27,0.87,4.453,2.475,6.058
			C174.747,476.997,176.93,477.889,179.2,477.867z"/>
		<path d="M256,358.4c24.325,0,42.667-11.004,42.667-25.6S280.325,307.2,256,307.2s-42.667,11.004-42.667,25.6
			S231.675,358.4,256,358.4z M256,324.267c16.517,0,25.6,6.409,25.6,8.533s-9.083,8.533-25.6,8.533c-16.517,0-25.6-6.409-25.6-8.533
			S239.483,324.267,256,324.267z"/>
		<path d="M444.6,28.554C438.589,11.462,422.452,0.019,404.333,0H107.667C89.547,0.019,73.409,11.464,67.4,28.558L1.126,217.868
			c-0.708,1.216-1.095,2.592-1.126,3.998V332.8c0.02,6.069,3.272,11.668,8.533,14.692V358.4c0,14.138,11.462,25.6,25.6,25.6
			s25.6-11.462,25.6-25.6v-8.533h29.354l-28.879,82.512c-0.099,0.949-0.258,1.891-0.475,2.821v51.2
			c0.015,14.132,11.468,25.585,25.6,25.6h341.333c14.132-0.015,25.585-11.468,25.6-25.6v-51.2c-0.217-0.929-0.376-1.872-0.475-2.821
			l-28.879-82.512h29.354v8.533c0,14.138,11.462,25.6,25.6,25.6c14.138,0,25.6-11.462,25.6-25.6v-10.908
			c5.262-3.024,8.514-8.623,8.533-14.692V221.867c-0.031-1.407-0.419-2.783-1.127-3.999L444.6,28.554z M83.5,34.204
			c3.609-10.258,13.293-17.125,24.167-17.137h296.667c10.872,0.012,20.556,6.878,24.166,17.133l62.696,179.133H20.805L83.5,34.204z
			 M42.667,358.4c0,4.713-3.821,8.533-8.533,8.533s-8.533-3.82-8.533-8.533v-8.533h17.067V358.4z M136.533,332.8
			c0,43.067,52.475,76.8,119.467,76.8s119.467-33.733,119.467-76.8c0-24.385-16.843-45.762-43.599-59.733h46.074l53.76,153.6H80.299
			l53.76-153.6h46.074C153.377,287.038,136.533,308.415,136.533,332.8z M256,273.067c55.508,0,102.4,27.354,102.4,59.733
			s-46.892,59.733-102.4,59.733S153.6,365.179,153.6,332.8S200.492,273.067,256,273.067z M396.032,273.067h22.101
			c4.713,0,8.533,3.82,8.533,8.533s-3.82,8.533-8.533,8.533h-16.128L396.032,273.067z M109.995,290.133H93.867
			c-4.713,0-8.533-3.821-8.533-8.533s3.821-8.533,8.533-8.533h22.101L109.995,290.133z M435.2,486.4
			c-0.005,4.711-3.822,8.529-8.533,8.533H85.333c-4.711-0.005-8.529-3.822-8.533-8.533v-42.667h358.4V486.4z M407.979,307.2h10.154
			c14.138,0,25.6-11.462,25.6-25.6s-11.462-25.6-25.6-25.6H93.867c-14.138,0-25.6,11.462-25.6,25.6s11.462,25.6,25.6,25.6h10.154
			l-8.96,25.6H17.067V230.4h477.867v102.4h-74.067c-1.258,0.016-2.496,0.314-3.622,0.872L407.979,307.2z M486.4,358.4
			c0,4.713-3.82,8.533-8.533,8.533s-8.533-3.82-8.533-8.533v-8.533H486.4V358.4z"/>
		<path d="M104.758,162.817h302.483c2.766,0,5.36-1.341,6.959-3.597s2.006-5.148,1.091-7.757l-27.125-77.483
			c-1.196-3.422-4.425-5.714-8.05-5.712H131.883c-3.625-0.001-6.854,2.29-8.05,5.712l-27.125,77.483
			c-0.915,2.61-0.509,5.501,1.091,7.757C99.399,161.476,101.993,162.817,104.758,162.817L104.758,162.817z M137.933,85.333h236.133
			l21.15,60.417H116.783L137.933,85.333z"/>
		<path d="M213.333,110.933h-51.2c-4.713,0-8.533,3.821-8.533,8.533c0,4.713,3.821,8.533,8.533,8.533h51.2
			c4.713,0,8.533-3.821,8.533-8.533C221.867,114.754,218.046,110.933,213.333,110.933z"/>
		<path d="M307.2,110.933h-59.733c-4.713,0-8.533,3.821-8.533,8.533c0,4.713,3.821,8.533,8.533,8.533H307.2
			c4.713,0,8.533-3.821,8.533-8.533C315.733,114.754,311.913,110.933,307.2,110.933z"/>
		<path d="M349.867,110.933h-8.533c-4.713,0-8.533,3.821-8.533,8.533c0,4.713,3.82,8.533,8.533,8.533h8.533
			c4.713,0,8.533-3.821,8.533-8.533C358.4,114.754,354.579,110.933,349.867,110.933z"/>
	</g>
</g>
<g>
</g>
<g>
</g>
<g>
</g>
<g>
</g>
<g>
</g>
<g>
</g>
<g>
</g>
<g>
</g>
<g>
</g>
<g>
</g>
<g>
</g>
<g>
</g>
<g>
</g>
<g>
</g>
<g>
</g>
</svg>
