<?xml version="1.0" encoding="iso-8859-1"?>
<!-- Generator: Adobe Illustrator 19.0.0, SVG Export Plug-In . SVG Version: 6.00 Build 0)  -->
<svg version="1.1" id="Capa_1" xmlns="http://www.w3.org/2000/svg" xmlns:xlink="http://www.w3.org/1999/xlink" x="0px" y="0px"
	 viewBox="0 0 512 512" style="enable-background:new 0 0 512 512;" xml:space="preserve">
<g>
	<g transform="translate(1 1)">
		<path style="fill:#558B30;" d="M16.067,7.533h477.867c4.713,0,8.533,3.821,8.533,8.533v477.867c0,4.713-3.821,8.533-8.533,8.533
			H16.067c-4.713,0-8.533-3.821-8.533-8.533V16.067C7.533,11.354,11.354,7.533,16.067,7.533z"/>
		<path style="fill:#8BC34A;" d="M16.067,7.533h452.267c4.713,0,8.533,3.821,8.533,8.533v477.867c0,4.713-3.821,8.533-8.533,8.533
			H16.067c-4.713,0-8.533-3.821-8.533-8.533V16.067C7.533,11.354,11.354,7.533,16.067,7.533z"/>
		<path style="fill:#CFD8DC;" d="M434.2,118.467V203.8c0,4.713,3.821,8.533,8.533,8.533H459.8c4.713,0,8.533,3.821,8.533,8.533
			v68.267c0,4.713-3.82,8.533-8.533,8.533h-17.067c-4.713,0-8.533,3.82-8.533,8.533v85.333c0,4.713,3.821,8.533,8.533,8.533H459.8
			c4.713,0,8.533,3.821,8.533,8.533v51.2c0,4.713-3.82,8.533-8.533,8.533H348.867c-4.713,0-8.533-3.82-8.533-8.533v-17.067
			c0-4.713-3.82-8.533-8.533-8.533H178.2c-4.713,0-8.533,3.821-8.533,8.533V459.8c0,4.713-3.821,8.533-8.533,8.533H50.2
			c-4.713,0-8.533-3.82-8.533-8.533v-51.2c0-4.713,3.821-8.533,8.533-8.533h17.067c4.713,0,8.533-3.82,8.533-8.533V306.2
			c0-4.713-3.821-8.533-8.533-8.533H50.2c-4.713,0-8.533-3.821-8.533-8.533v-68.267c0-4.713,3.821-8.533,8.533-8.533h17.067
			c4.713,0,8.533-3.821,8.533-8.533v-85.333c0-4.713-3.821-8.533-8.533-8.533H50.2c-4.713,0-8.533-3.821-8.533-8.533V50.2
			c0-4.713,3.821-8.533,8.533-8.533h110.933c4.713,0,8.533,3.821,8.533,8.533v17.067c0,4.713,3.821,8.533,8.533,8.533h153.6
			c4.713,0,8.533-3.821,8.533-8.533V50.2c0-4.713,3.821-8.533,8.533-8.533H459.8c4.713,0,8.533,3.821,8.533,8.533v51.2
			c0,4.713-3.82,8.533-8.533,8.533h-17.067C438.021,109.933,434.2,113.754,434.2,118.467z"/>
		<path style="fill:#283593;" d="M135.533,109.933h238.933c14.138,0,25.6,11.462,25.6,25.6v238.933c0,14.138-11.462,25.6-25.6,25.6
			H135.533c-14.138,0-25.6-11.462-25.6-25.6V135.533C109.933,121.395,121.395,109.933,135.533,109.933z"/>
		<path style="fill:#3F51B5;" d="M135.533,109.933h213.333c14.138,0,25.6,11.462,25.6,25.6v238.933c0,14.138-11.462,25.6-25.6,25.6
			H135.533c-14.138,0-25.6-11.462-25.6-25.6V135.533C109.933,121.395,121.395,109.933,135.533,109.933z"/>
		<path style="fill:#607D8B;" d="M135.533,144.067h238.933c14.138,0,25.6,11.462,25.6,25.6v170.667c0,14.138-11.462,25.6-25.6,25.6
			H135.533c-14.138,0-25.6-11.462-25.6-25.6V169.667C109.933,155.528,121.395,144.067,135.533,144.067z"/>
		<path style="fill:#CFD8DC;" d="M135.533,144.067h213.333c14.138,0,25.6,11.462,25.6,25.6v170.667c0,14.138-11.462,25.6-25.6,25.6
			H135.533c-14.138,0-25.6-11.462-25.6-25.6V169.667C109.933,155.528,121.395,144.067,135.533,144.067z"/>
		<path style="fill:#607D8B;" d="M434.2,118.467V203.8c0.014,4.707,3.826,8.519,8.533,8.533H459.8
			c4.707,0.014,8.519,3.826,8.533,8.533v68.267c-0.014,4.707-3.826,8.519-8.533,8.533h-17.067c-4.707,0.014-8.519,3.826-8.533,8.533
			v85.333c0.014,4.707,3.826,8.519,8.533,8.533H459.8c4.707,0.014,8.519,3.826,8.533,8.533v51.2
			c-0.014,4.707-3.826,8.519-8.533,8.533h-25.6c4.707-0.014,8.519-3.826,8.533-8.533v-51.2c-0.014-4.707-3.826-8.519-8.533-8.533
			h-17.067c-4.707-0.014-8.519-3.826-8.533-8.533V306.2c0.014-4.707,3.826-8.519,8.533-8.533H434.2
			c4.707-0.014,8.519-3.826,8.533-8.533v-68.267c-0.014-4.707-3.826-8.519-8.533-8.533h-17.067
			c-4.707-0.014-8.519-3.826-8.533-8.533v-85.333c0.014-4.707,3.826-8.519,8.533-8.533H434.2c4.707-0.014,8.519-3.826,8.533-8.533
			V50.2c-0.014-4.707-3.826-8.519-8.533-8.533h25.6c4.707,0.014,8.519,3.826,8.533,8.533v51.2c-0.014,4.707-3.826,8.519-8.533,8.533
			h-17.067C438.026,109.947,434.214,113.76,434.2,118.467z"/>
		<ellipse style="fill:#02A9F4;" cx="255" cy="212.333" rx="59.733" ry="34.133"/>
	</g>
	<g>
		<path d="M17.067,512h477.867c9.421-0.011,17.056-7.645,17.067-17.067V17.067C511.989,7.645,504.355,0.011,494.933,0H17.067
			C7.645,0.009,0.009,7.645,0,17.067v477.867C0.009,504.355,7.645,511.991,17.067,512z M17.067,17.067h477.867l0.009,477.867H17.067
			V17.067z"/>
		<path d="M102.4,136.533v238.933c0.022,18.842,15.291,34.112,34.133,34.133h238.933c18.842-0.022,34.112-15.291,34.133-34.133
			V136.533c-0.022-18.842-15.291-34.112-34.133-34.133H136.533C117.691,102.422,102.422,117.691,102.4,136.533z M392.533,341.333
			c-0.009,9.422-7.645,17.057-17.067,17.067H136.533c-9.422-0.009-17.057-7.645-17.067-17.067V170.667
			c0.009-9.422,7.645-17.057,17.067-17.067h238.933c9.422,0.009,17.057,7.645,17.067,17.067V341.333z M375.467,392.533H136.533
			c-9.422-0.009-17.057-7.645-17.067-17.067v-4.748c5.164,3.075,11.056,4.714,17.067,4.748h238.933
			c6.01-0.034,11.902-1.674,17.067-4.748v4.748C392.524,384.888,384.888,392.524,375.467,392.533z M392.533,136.533v4.748
			c-5.164-3.075-11.056-4.714-17.067-4.748H136.533c-6.01,0.034-11.902,1.674-17.067,4.748v-4.748
			c0.009-9.422,7.645-17.057,17.067-17.067h238.933C384.888,119.476,392.524,127.112,392.533,136.533z"/>
		<path d="M460.8,34.133H349.867c-9.422,0.009-17.057,7.645-17.067,17.067v17.067H179.2V51.2
			c-0.009-9.422-7.645-17.057-17.067-17.067H51.2c-9.422,0.009-17.057,7.645-17.067,17.067v51.2
			c0.009,9.422,7.645,17.057,17.067,17.067h17.067V204.8H51.2c-9.422,0.009-17.057,7.645-17.067,17.067v68.267
			c0.009,9.422,7.645,17.057,17.067,17.067h17.067v85.333H51.2c-9.422,0.009-17.057,7.645-17.067,17.067v51.2
			c0.009,9.422,7.645,17.057,17.067,17.067h110.933c9.422-0.009,17.057-7.645,17.067-17.067v-17.067h153.6V460.8
			c0.009,9.422,7.645,17.057,17.067,17.067H460.8c9.421-0.011,17.056-7.645,17.067-17.067v-51.2
			c-0.011-9.421-7.645-17.056-17.067-17.067h-17.067V307.2H460.8c9.421-0.011,17.056-7.645,17.067-17.067v-68.267
			c-0.011-9.421-7.645-17.056-17.067-17.067h-17.067v-85.333H460.8c9.421-0.011,17.056-7.645,17.067-17.067V51.2
			C477.856,41.779,470.221,34.144,460.8,34.133z M460.8,102.4h-17.067c-9.421,0.011-17.056,7.645-17.067,17.067V204.8
			c0.011,9.421,7.645,17.056,17.067,17.067H460.8v68.267h-17.067c-9.421,0.011-17.056,7.645-17.067,17.067v85.333
			c0.011,9.421,7.645,17.056,17.067,17.067H460.8v51.2H349.867v-17.067c-0.009-9.422-7.645-17.057-17.067-17.067H179.2
			c-9.422,0.009-17.057,7.645-17.067,17.067V460.8H51.2v-51.2h17.067c9.422-0.009,17.057-7.645,17.067-17.067V307.2
			c-0.009-9.422-7.645-17.057-17.067-17.067H51.2v-68.267h17.067c9.422-0.009,17.057-7.645,17.067-17.067v-85.333
			c-0.009-9.422-7.645-17.057-17.067-17.067H51.2V51.2h110.933v17.067c0.009,9.422,7.645,17.057,17.067,17.067h153.6
			c9.422-0.009,17.057-7.645,17.067-17.067V51.2H460.8V102.4z"/>
		<path d="M256,170.667c-38.279,0-68.267,18.742-68.267,42.667S217.721,256,256,256s68.267-18.742,68.267-42.667
			S294.279,170.667,256,170.667z M256,238.933c-30.175,0-51.2-13.492-51.2-25.6s21.025-25.6,51.2-25.6s51.2,13.492,51.2,25.6
			S286.175,238.933,256,238.933z"/>
		<path d="M196.267,307.2h76.8c4.713,0,8.533-3.82,8.533-8.533s-3.82-8.533-8.533-8.533h-76.8c-4.713,0-8.533,3.82-8.533,8.533
			S191.554,307.2,196.267,307.2z"/>
		<path d="M315.733,290.133H307.2c-4.713,0-8.533,3.82-8.533,8.533s3.82,8.533,8.533,8.533h8.533c4.713,0,8.533-3.82,8.533-8.533
			S320.446,290.133,315.733,290.133z"/>
		<path d="M315.733,324.267H256c-4.713,0-8.533,3.82-8.533,8.533s3.821,8.533,8.533,8.533h59.733c4.713,0,8.533-3.82,8.533-8.533
			S320.446,324.267,315.733,324.267z"/>
		<path d="M221.867,324.267h-25.6c-4.713,0-8.533,3.82-8.533,8.533s3.821,8.533,8.533,8.533h25.6c4.713,0,8.533-3.82,8.533-8.533
			S226.579,324.267,221.867,324.267z"/>
	</g>
</g>
<g>
</g>
<g>
</g>
<g>
</g>
<g>
</g>
<g>
</g>
<g>
</g>
<g>
</g>
<g>
</g>
<g>
</g>
<g>
</g>
<g>
</g>
<g>
</g>
<g>
</g>
<g>
</g>
<g>
</g>
</svg>
