<?xml version="1.0" encoding="iso-8859-1"?>
<!-- Generator: Adobe Illustrator 19.0.0, SVG Export Plug-In . SVG Version: 6.00 Build 0)  -->
<svg version="1.1" id="Capa_1" xmlns="http://www.w3.org/2000/svg" xmlns:xlink="http://www.w3.org/1999/xlink" x="0px" y="0px"
	 viewBox="0 0 512 512" style="enable-background:new 0 0 512 512;" xml:space="preserve">
<g>
	<g transform="translate(5 1)">
		<path style="fill:#C52828;" d="M498.467,135.533v204.8c-0.028,9.414-7.653,17.039-17.067,17.067H37.667V118.467H481.4
			C490.814,118.494,498.439,126.119,498.467,135.533z"/>
		<path style="fill:#F44335;" d="M472.867,135.533v204.8c-0.028,9.414-7.653,17.039-17.067,17.067H37.667V118.467H455.8
			C465.214,118.494,472.839,126.119,472.867,135.533z"/>
		<g>
			<path style="fill:#FEC108;" d="M71.8,357.4h34.133V383c0,4.713-3.821,8.533-8.533,8.533H80.333c-4.713,0-8.533-3.82-8.533-8.533
				V357.4z"/>
			<path style="fill:#FEC108;" d="M140.067,357.4h51.2V383c0,4.713-3.821,8.533-8.533,8.533H148.6c-4.713,0-8.533-3.82-8.533-8.533
				V357.4z"/>
		</g>
		<path style="fill:#FFB301;" d="M225.4,357.4h128V383c0,4.713-3.821,8.533-8.533,8.533H233.933c-4.713,0-8.533-3.82-8.533-8.533
			V357.4z"/>
		<path style="fill:#FEC108;" d="M233.933,391.533h85.333c4.707-0.014,8.52-3.826,8.533-8.533v-25.6H225.4"/>
		<g>
			<path style="fill:#CFD8DC;" d="M242.979,237.933v1.024c-0.313,22.23-11.464,42.907-29.867,55.381h-0.085
				c-4.885,3.41-10.229,6.111-15.872,8.021h-0.085c-7.179,2.544-14.741,3.843-22.357,3.84c-14.311,0.021-28.261-4.49-39.851-12.885
				c-4.898-3.504-9.316-7.636-13.141-12.288c-9.912-12.172-15.308-27.397-15.275-43.093c-0.04-12.362,3.326-24.496,9.728-35.072
				c11.384-19.032,31.305-31.348,53.419-33.024c1.707-0.085,3.413-0.171,5.12-0.171c4.323,0.005,8.636,0.405,12.885,1.195
				C219.811,176.948,243.097,205.15,242.979,237.933z"/>
			<path style="fill:#CFD8DC;" d="M430.712,237.933v1.024c-0.313,22.23-11.464,42.907-29.867,55.381h-0.085
				c-4.885,3.41-10.229,6.111-15.872,8.021h-0.085c-7.179,2.544-14.741,3.843-22.357,3.84c-14.311,0.021-28.261-4.49-39.851-12.885
				c-4.898-3.504-9.316-7.636-13.141-12.288c-9.912-12.172-15.308-27.397-15.275-43.093c-0.039-12.362,3.326-24.496,9.728-35.072
				c11.384-19.032,31.305-31.348,53.419-33.024c1.707-0.085,3.413-0.171,5.12-0.171c4.323,0.005,8.636,0.405,12.885,1.195
				C407.544,176.948,430.83,205.15,430.712,237.933z"/>
		</g>
		<g>
			<circle style="fill:#607D8B;" cx="174.2" cy="237.933" r="25.6"/>
			<circle style="fill:#607D8B;" cx="361.933" cy="237.933" r="25.6"/>
		</g>
	</g>
	<g>
		<path d="M486.4,110.933H8.533c-4.713,0-8.533,3.821-8.533,8.533S3.821,128,8.533,128h25.6v264.533
			c0,4.713,3.821,8.533,8.533,8.533s8.533-3.82,8.533-8.533v-25.6h17.067V384c0.009,9.422,7.645,17.057,17.067,17.067H102.4
			c9.422-0.009,17.057-7.645,17.067-17.067v-17.067h17.067V384c0.009,9.422,7.645,17.057,17.067,17.067h34.133
			c9.422-0.009,17.057-7.645,17.067-17.067v-17.067h17.067V384c0.009,9.422,7.645,17.057,17.067,17.067h110.933
			c9.422-0.009,17.057-7.645,17.067-17.067v-17.067H384v25.6c0,4.713,3.82,8.533,8.533,8.533h25.6c4.713,0,8.533-3.82,8.533-8.533
			s-3.82-8.533-8.533-8.533h-17.067v-17.067H486.4c14.132-0.015,25.585-11.468,25.6-25.6v-204.8
			C511.985,122.401,500.532,110.949,486.4,110.933z M102.412,384H85.333v-17.067h17.071L102.412,384z M187.746,384H153.6v-17.067
			h34.138L187.746,384z M349.879,384H238.933v-17.067h110.938L349.879,384z M486.4,349.867H51.2v-102.4h51.703
			c2.026,18.003,10.369,34.705,23.547,47.138c0.33,0.358,0.691,0.686,1.078,0.98c23.389,21.541,57.696,26.293,86.059,11.921
			c0.143-0.06,0.27-0.13,0.41-0.198c28.85-14.444,45.445-45.52,41.403-77.529c-0.021-0.256-0.07-0.497-0.115-0.753
			c-4.807-36.545-34.895-64.525-71.693-66.67c-0.295-0.063-0.593-0.11-0.894-0.14h-0.087c-0.126,0-0.23,0.067-0.354,0.072
			c-1.022-0.04-2.026-0.155-3.058-0.155c-30.735,0.036-58.498,18.367-70.602,46.619c-0.06,0.131-0.124,0.251-0.178,0.384
			c-2.856,6.784-4.715,13.947-5.517,21.264H51.2V128h435.2c4.71,0.006,8.527,3.823,8.533,8.533V230.4H443.23
			c-0.023-0.209-0.07-0.412-0.095-0.621c-0.021-0.256-0.07-0.497-0.115-0.753c-4.807-36.545-34.895-64.525-71.693-66.67
			c-0.295-0.063-0.593-0.11-0.894-0.14h-0.088c-0.126,0-0.23,0.067-0.354,0.072c-1.022-0.041-2.026-0.155-3.058-0.155
			c-30.735,0.036-58.498,18.367-70.602,46.619c-0.06,0.131-0.124,0.251-0.178,0.384c-12.429,29.459-5.239,63.54,18.031,85.468
			c0.33,0.358,0.691,0.686,1.078,0.98c23.389,21.541,57.696,26.293,86.059,11.921c0.143-0.06,0.27-0.13,0.41-0.198
			c22.999-11.718,38.585-34.193,41.497-59.84h51.703v93.867C494.927,346.044,491.11,349.861,486.4,349.867z M119.467,238.933
			c-0.003-6.062,0.92-12.088,2.737-17.871c20.657,1.418,29.017,9.547,31.849,13.394c-0.86,4.294-0.49,8.743,1.066,12.836
			c-10.75,5.859-19.399,14.933-24.737,25.952C123.278,263.213,119.465,251.224,119.467,238.933z M170.667,238.933
			c0-4.713,3.821-8.533,8.533-8.533s8.533,3.821,8.533,8.533c0,4.713-3.82,8.533-8.533,8.533
			C174.49,247.461,170.673,243.644,170.667,238.933z M166.413,260.98c3.769,2.228,8.052,3.44,12.43,3.518
			c1.848,12.076,7.416,23.276,15.929,32.039c-17.916,4.953-37.119,1.162-51.809-10.228
			C151.354,267.355,161.876,262.304,166.413,260.98z M211.354,289.194c-15.078-14.48-16.121-26.15-15.811-30.721
			c3.369-2.799,5.962-6.417,7.53-10.507c3.571,0.847,7.228,1.271,10.898,1.264c8.496-0.151,16.883-1.933,24.706-5.249
			C237.094,262.479,226.996,279.19,211.354,289.194z M203.182,230.252c-2.013-5.534-5.874-10.204-10.93-13.221
			c4.46-11.394,5.256-23.895,2.277-35.763c21.484,5.744,38.014,22.924,42.924,44.614
			C218.674,235.129,207.365,232.11,203.182,230.252z M176.509,179.337c5.745,19.973,0.9,30.585-1.657,34.436
			c-4.324,0.76-8.377,2.63-11.76,5.428c-9.178-8.105-20.658-13.143-32.837-14.408C140.875,189.576,157.971,180.167,176.509,179.337z
			 M307.2,238.933c-0.003-6.062,0.92-12.088,2.737-17.871c20.657,1.418,29.017,9.547,31.849,13.394
			c-0.86,4.294-0.49,8.743,1.066,12.836c-10.75,5.859-19.399,14.933-24.737,25.952C311.012,263.213,307.198,251.224,307.2,238.933z
			 M390.915,230.25c-2.013-5.533-5.874-10.202-10.93-13.22c4.46-11.394,5.256-23.895,2.277-35.763
			c21.484,5.744,38.014,22.924,42.924,44.614C406.403,235.131,395.096,232.109,390.915,230.25z M358.4,238.933
			c0-4.713,3.82-8.533,8.533-8.533s8.533,3.821,8.533,8.533c0,4.713-3.82,8.533-8.533,8.533
			C362.223,247.461,358.406,243.644,358.4,238.933z M364.243,179.337c5.745,19.973,0.9,30.585-1.657,34.436
			c-4.324,0.76-8.377,2.63-11.76,5.428c-9.178-8.105-20.658-13.143-32.837-14.408C328.608,189.576,345.704,180.167,364.243,179.337z
			 M354.146,260.98c3.769,2.228,8.052,3.44,12.43,3.518c1.848,12.076,7.416,23.276,15.929,32.039
			c-17.916,4.953-37.119,1.162-51.809-10.228C339.088,267.355,349.609,262.304,354.146,260.98L354.146,260.98z M399.088,289.194
			c-15.078-14.48-16.121-26.15-15.811-30.721c3.369-2.799,5.962-6.417,7.53-10.507c3.571,0.847,7.228,1.271,10.898,1.264
			c8.496-0.151,16.883-1.934,24.706-5.25C424.828,262.479,414.729,279.19,399.088,289.194L399.088,289.194z"/>
		<path d="M435.2,162.133h34.133c4.713,0,8.533-3.821,8.533-8.533s-3.821-8.533-8.533-8.533H435.2c-4.713,0-8.533,3.82-8.533,8.533
			S430.487,162.133,435.2,162.133z"/>
		<path d="M469.333,315.733H435.2c-4.713,0-8.533,3.821-8.533,8.533s3.82,8.533,8.533,8.533h34.133c4.713,0,8.533-3.82,8.533-8.533
			S474.046,315.733,469.333,315.733z"/>
		<path d="M110.933,145.067H76.8c-4.713,0-8.533,3.82-8.533,8.533s3.821,8.533,8.533,8.533h34.133c4.713,0,8.533-3.821,8.533-8.533
			S115.646,145.067,110.933,145.067z"/>
		<path d="M110.933,315.733H76.8c-4.713,0-8.533,3.821-8.533,8.533s3.821,8.533,8.533,8.533h34.133c4.713,0,8.533-3.82,8.533-8.533
			S115.646,315.733,110.933,315.733z"/>
		<path d="M290.133,162.133c4.713,0,8.533-3.821,8.533-8.533s-3.821-8.533-8.533-8.533H256c-4.713,0-8.533,3.82-8.533,8.533
			s3.821,8.533,8.533,8.533H290.133z"/>
		<path d="M290.133,315.733H256c-4.713,0-8.533,3.821-8.533,8.533s3.821,8.533,8.533,8.533h34.133c4.713,0,8.533-3.82,8.533-8.533
			S294.846,315.733,290.133,315.733z"/>
	</g>
</g>
<g>
</g>
<g>
</g>
<g>
</g>
<g>
</g>
<g>
</g>
<g>
</g>
<g>
</g>
<g>
</g>
<g>
</g>
<g>
</g>
<g>
</g>
<g>
</g>
<g>
</g>
<g>
</g>
<g>
</g>
</svg>
