<?xml version="1.0" encoding="iso-8859-1"?>
<!-- Generator: Adobe Illustrator 19.0.0, SVG Export Plug-In . SVG Version: 6.00 Build 0)  -->
<svg version="1.1" id="Capa_1" xmlns="http://www.w3.org/2000/svg" xmlns:xlink="http://www.w3.org/1999/xlink" x="0px" y="0px"
	 viewBox="0 0 512 512" style="enable-background:new 0 0 512 512;" xml:space="preserve">
<g>
	<g transform="translate(1 1)">
		<g>
			<path style="fill:#1566C0;" d="M41.667,7.533h153.6c18.851,0,34.133,15.282,34.133,34.133v426.667
				c0,18.851-15.282,34.133-34.133,34.133h-153.6c-18.851,0-34.133-15.282-34.133-34.133V41.667
				C7.533,22.815,22.815,7.533,41.667,7.533z"/>
			<path style="fill:#1566C0;" d="M314.733,7.533h153.6c18.851,0,34.133,15.282,34.133,34.133v426.667
				c0,18.851-15.282,34.133-34.133,34.133h-153.6c-18.851,0-34.133-15.282-34.133-34.133V41.667
				C280.6,22.815,295.882,7.533,314.733,7.533z"/>
		</g>
		<g>
			<path style="fill:#2296F3;" d="M41.667,7.533h128c18.851,0,34.133,15.282,34.133,34.133v426.667
				c0,18.851-15.282,34.133-34.133,34.133h-128c-18.851,0-34.133-15.282-34.133-34.133V41.667
				C7.533,22.815,22.815,7.533,41.667,7.533z"/>
			<path style="fill:#2296F3;" d="M314.733,7.533h128c18.851,0,34.133,15.282,34.133,34.133v426.667
				c0,18.851-15.282,34.133-34.133,34.133h-128c-18.851,0-34.133-15.282-34.133-34.133V41.667
				C280.6,22.815,295.882,7.533,314.733,7.533z"/>
		</g>
		<g>
			<path style="fill:#607D8B;" d="M195.267,118.467c-0.004,42.414-34.386,76.796-76.8,76.8c-4.287,0.005-8.568-0.337-12.8-1.024
				c-36.957-6.273-63.998-38.29-63.998-75.776s27.041-69.503,63.998-75.776c4.232-0.687,8.513-1.029,12.8-1.024
				C160.881,41.67,195.263,76.053,195.267,118.467z"/>
			<path style="fill:#607D8B;" d="M195.267,306.2c-0.004,42.414-34.386,76.796-76.8,76.8c-4.287,0.005-8.568-0.337-12.8-1.024
				c-36.957-6.273-63.998-38.29-63.998-75.776s27.041-69.503,63.998-75.776c4.232-0.687,8.513-1.029,12.8-1.024
				C160.881,229.403,195.263,263.786,195.267,306.2z"/>
			<path style="fill:#607D8B;" d="M468.333,306.2c-0.004,42.414-34.386,76.796-76.8,76.8c-4.287,0.005-8.568-0.337-12.8-1.024
				c-36.957-6.273-63.998-38.29-63.998-75.776s27.041-69.503,63.998-75.776c4.232-0.687,8.513-1.029,12.8-1.024
				C433.947,229.403,468.33,263.786,468.333,306.2z"/>
			<path style="fill:#607D8B;" d="M468.333,118.467c-0.004,42.414-34.386,76.796-76.8,76.8c-4.287,0.005-8.568-0.337-12.8-1.024
				c-36.957-6.273-63.998-38.29-63.998-75.776s27.041-69.503,63.998-75.776c4.232-0.687,8.513-1.029,12.8-1.024
				C433.947,41.67,468.33,76.053,468.333,118.467z"/>
		</g>
		<g>
			<ellipse style="fill:#CFD8DC;" cx="105.667" cy="118.467" rx="64" ry="75.776"/>
			<ellipse style="fill:#CFD8DC;" cx="105.667" cy="306.2" rx="64" ry="75.776"/>
			<ellipse style="fill:#CFD8DC;" cx="378.733" cy="306.2" rx="64" ry="75.776"/>
			<ellipse style="fill:#CFD8DC;" cx="378.733" cy="118.467" rx="64" ry="75.776"/>
		</g>
		<g>
			<circle style="fill:#607D8B;" cx="118.467" cy="118.467" r="42.667"/>
			<circle style="fill:#607D8B;" cx="118.467" cy="306.2" r="42.667"/>
			<circle style="fill:#607D8B;" cx="391.533" cy="306.2" r="42.667"/>
			<circle style="fill:#607D8B;" cx="391.533" cy="118.467" r="42.667"/>
		</g>
		<path style="fill:#3F51B5;" d="M417.133,442.733c0.037,13.028-9.717,24.005-22.659,25.502
			c-12.942,1.497-24.943-6.964-27.882-19.657c-2.938-12.692,4.124-25.567,16.407-29.91c5.505-2.048,11.562-2.048,17.067,0
			C410.323,422.207,417.186,431.884,417.133,442.733z"/>
	</g>
	<g>
		<path d="M119.467,204.8c47.128,0,85.333-38.205,85.333-85.333s-38.205-85.333-85.333-85.333s-85.333,38.205-85.333,85.333
			C34.186,166.573,72.36,204.748,119.467,204.8z M119.467,51.2c37.703,0,68.267,30.564,68.267,68.267s-30.564,68.267-68.267,68.267
			S51.2,157.169,51.2,119.467C51.243,81.782,81.782,51.243,119.467,51.2z"/>
		<path d="M119.467,170.667c28.277,0,51.2-22.923,51.2-51.2s-22.923-51.2-51.2-51.2s-51.2,22.923-51.2,51.2
			C68.298,147.731,91.202,170.636,119.467,170.667z M119.467,85.333c18.851,0,34.133,15.282,34.133,34.133
			S138.318,153.6,119.467,153.6s-34.133-15.282-34.133-34.133C85.355,100.624,100.624,85.355,119.467,85.333z"/>
		<path d="M119.467,392.533c47.128,0,85.333-38.205,85.333-85.333s-38.205-85.333-85.333-85.333S34.133,260.072,34.133,307.2
			C34.186,354.307,72.36,392.481,119.467,392.533z M119.467,238.933c37.703,0,68.267,30.564,68.267,68.267
			s-30.564,68.267-68.267,68.267S51.2,344.903,51.2,307.2C51.243,269.515,81.782,238.976,119.467,238.933z"/>
		<path d="M119.467,358.4c28.277,0,51.2-22.923,51.2-51.2s-22.923-51.2-51.2-51.2s-51.2,22.923-51.2,51.2
			C68.298,335.464,91.202,358.369,119.467,358.4z M119.467,273.067c18.851,0,34.133,15.282,34.133,34.133
			c0,18.851-15.282,34.133-34.133,34.133S85.333,326.051,85.333,307.2C85.355,288.358,100.624,273.088,119.467,273.067z"/>
		<path d="M392.533,221.867c-47.128,0-85.333,38.205-85.333,85.333s38.205,85.333,85.333,85.333s85.333-38.205,85.333-85.333
			C477.814,260.093,439.64,221.919,392.533,221.867z M392.533,375.467c-37.703,0-68.267-30.564-68.267-68.267
			s30.564-68.267,68.267-68.267S460.8,269.497,460.8,307.2C460.757,344.885,430.218,375.424,392.533,375.467z"/>
		<path d="M392.533,256c-28.277,0-51.2,22.923-51.2,51.2s22.923,51.2,51.2,51.2s51.2-22.923,51.2-51.2
			C443.702,278.936,420.798,256.031,392.533,256z M392.533,341.333c-18.851,0-34.133-15.282-34.133-34.133
			c0-18.851,15.282-34.133,34.133-34.133s34.133,15.282,34.133,34.133C426.645,326.042,411.376,341.312,392.533,341.333z"/>
		<path d="M42.667,512h153.6c23.553-0.028,42.639-19.114,42.667-42.667V42.667C238.906,19.114,219.819,0.028,196.267,0h-153.6
			C19.114,0.028,0.028,19.114,0,42.667v426.667C0.028,492.886,19.114,511.972,42.667,512z M17.067,42.667
			c0.015-14.132,11.468-25.585,25.6-25.6h153.6c14.132,0.015,25.585,11.468,25.6,25.6v426.667
			c-0.015,14.132-11.468,25.585-25.6,25.6h-153.6c-14.132-0.015-25.585-11.468-25.6-25.6V42.667z"/>
		<path d="M392.533,34.133c-47.128,0-85.333,38.205-85.333,85.333s38.205,85.333,85.333,85.333s85.333-38.205,85.333-85.333
			C477.814,72.36,439.64,34.186,392.533,34.133z M392.533,187.733c-37.703,0-68.267-30.564-68.267-68.267S354.831,51.2,392.533,51.2
			S460.8,81.764,460.8,119.467C460.757,157.151,430.218,187.69,392.533,187.733z"/>
		<path d="M392.533,68.267c-28.277,0-51.2,22.923-51.2,51.2s22.923,51.2,51.2,51.2s51.2-22.923,51.2-51.2
			C443.702,91.202,420.798,68.298,392.533,68.267z M392.533,153.6c-18.851,0-34.133-15.282-34.133-34.133
			s15.282-34.133,34.133-34.133s34.133,15.282,34.133,34.133C426.645,138.309,411.376,153.578,392.533,153.6z"/>
		<path d="M512,42.667C511.972,19.114,492.886,0.028,469.333,0h-153.6c-23.553,0.028-42.639,19.114-42.667,42.667v426.667
			c0.028,23.553,19.114,42.639,42.667,42.667h153.6c23.553-0.028,42.639-19.114,42.667-42.667V42.667z M494.933,469.333
			c-0.015,14.132-11.468,25.585-25.6,25.6h-153.6c-14.132-0.015-25.585-11.468-25.6-25.6V42.667
			c0.015-14.132,11.468-25.585,25.6-25.6h153.6c14.132,0.015,25.585,11.468,25.6,25.6V469.333z"/>
		<path d="M136.533,426.667h-76.8c-4.713,0-8.533,3.82-8.533,8.533s3.821,8.533,8.533,8.533h76.8c4.713,0,8.533-3.821,8.533-8.533
			S141.246,426.667,136.533,426.667z"/>
		<path d="M179.2,426.667h-8.533c-4.713,0-8.533,3.82-8.533,8.533s3.821,8.533,8.533,8.533h8.533c4.713,0,8.533-3.821,8.533-8.533
			S183.913,426.667,179.2,426.667z"/>
		<path d="M392.533,409.6c-18.851,0-34.133,15.282-34.133,34.133c0,18.851,15.282,34.133,34.133,34.133s34.133-15.282,34.133-34.133
			C426.645,424.891,411.376,409.622,392.533,409.6z M392.533,460.8c-7.716,0.025-14.482-5.146-16.484-12.597
			s1.262-15.317,7.951-19.163v6.16c0,4.713,3.82,8.533,8.533,8.533s8.533-3.821,8.533-8.533v-6.16
			c6.689,3.845,9.953,11.711,7.951,19.163S400.249,460.825,392.533,460.8z"/>
		<path d="M327.508,418.813c-3.182-1.294-6.828-0.59-9.3,1.796c-0.773,0.814-1.383,1.769-1.796,2.813
			c-0.906,2.068-0.906,4.42,0,6.487c0.394,1.055,1.006,2.015,1.796,2.817c2.165,2.165,5.319,3.01,8.276,2.218
			c2.957-0.792,5.266-3.102,6.059-6.059c0.792-2.957-0.053-6.112-2.218-8.276C329.495,419.854,328.543,419.246,327.508,418.813z"/>
		<path d="M454.741,420.608c-3.313,3.34-3.298,8.73,0.033,12.052c3.331,3.322,8.721,3.322,12.052,0
			c3.331-3.322,3.345-8.712,0.033-12.052C463.431,417.463,458.168,417.463,454.741,420.608z"/>
	</g>
</g>
<g>
</g>
<g>
</g>
<g>
</g>
<g>
</g>
<g>
</g>
<g>
</g>
<g>
</g>
<g>
</g>
<g>
</g>
<g>
</g>
<g>
</g>
<g>
</g>
<g>
</g>
<g>
</g>
<g>
</g>
</svg>
