<?xml version="1.0" encoding="iso-8859-1"?>
<!-- Generator: Adobe Illustrator 19.0.0, SVG Export Plug-In . SVG Version: 6.00 Build 0)  -->
<svg version="1.1" id="Capa_1" xmlns="http://www.w3.org/2000/svg" xmlns:xlink="http://www.w3.org/1999/xlink" x="0px" y="0px"
	 viewBox="0 0 512 512" style="enable-background:new 0 0 512 512;" xml:space="preserve">
<g>
	<g transform="translate(1 1)">
		<path style="fill:#00695C;" d="M92.867,7.533h324.267c14.138,0,25.6,11.462,25.6,25.6v443.733c0,14.138-11.462,25.6-25.6,25.6
			H92.867c-14.138,0-25.6-11.462-25.6-25.6V33.133C67.267,18.995,78.728,7.533,92.867,7.533z"/>
		<path style="fill:#009688;" d="M92.867,7.533h298.667c14.138,0,25.6,11.462,25.6,25.6v443.733c0,14.138-11.462,25.6-25.6,25.6
			H92.867c-14.138,0-25.6-11.462-25.6-25.6V33.133C67.267,18.995,78.728,7.533,92.867,7.533z"/>
		<path style="fill:#2E7D32;" d="M92.867,7.533h221.867c14.139,0,25.6,11.462,25.6,25.6v443.733c0,14.138-11.461,25.6-25.6,25.6
			H92.867c-14.138,0-25.6-11.462-25.6-25.6V33.133C67.267,18.995,78.728,7.533,92.867,7.533z"/>
		<path style="fill:#4CAF50;" d="M92.867,7.533h196.267c14.138,0,25.6,11.462,25.6,25.6v443.733c0,14.138-11.461,25.6-25.6,25.6
			H92.867c-14.138,0-25.6-11.462-25.6-25.6V33.133C67.267,18.995,78.728,7.533,92.867,7.533z"/>
		<path style="fill:#8BC34A;" d="M306.2,50.2v59.733H101.4V50.2c0.014-4.707,3.826-8.52,8.533-8.533h187.733
			C302.374,41.68,306.186,45.493,306.2,50.2z"/>
		<rect x="101.4" y="109.933" style="fill:#009688;" width="204.8" height="68.267"/>
		<rect x="101.4" y="178.2" style="fill:#8BC34A;" width="204.8" height="68.267"/>
		<path style="fill:#009688;" d="M306.2,246.467V459.8c-0.014,4.707-3.826,8.52-8.533,8.533H109.933
			c-4.707-0.014-8.52-3.826-8.533-8.533V246.467H306.2z"/>
		<path style="fill:#CFD8DC;" d="M161.133,178.2v25.6c0,4.713,3.821,8.533,8.533,8.533h68.267c4.713,0,8.533-3.821,8.533-8.533
			v-25.6H161.133z"/>
		<circle style="fill:#E91E63;" cx="203.8" cy="314.733" r="34.133"/>
	</g>
	<g>
		<path d="M93.867,512h324.267c18.843-0.02,34.113-15.29,34.133-34.133V34.133C452.247,15.29,436.976,0.02,418.133,0h-93.867
			c-0.975,0.025-1.939,0.219-2.848,0.575c-1.876-0.351-3.777-0.544-5.685-0.575H93.867C75.024,0.02,59.753,15.29,59.733,34.133
			v443.733C59.753,496.71,75.024,511.98,93.867,512z M435.2,34.133v443.733c-0.011,9.421-7.645,17.056-17.067,17.067h-73.015
			c3.074-5.165,4.713-11.056,4.748-17.067V34.133c-0.034-6.01-1.674-11.902-4.748-17.067h73.015
			C427.555,17.077,435.189,24.712,435.2,34.133z M76.8,34.133c0.011-9.421,7.645-17.056,17.067-17.067h221.867
			c9.421,0.011,17.056,7.645,17.067,17.067v443.733c-0.011,9.421-7.645,17.056-17.067,17.067H93.867
			c-9.421-0.011-17.056-7.645-17.067-17.067V34.133z"/>
		<path d="M110.933,477.867h187.733c9.421-0.011,17.056-7.645,17.067-17.067V51.2c-0.011-9.421-7.645-17.056-17.067-17.067H110.933
			c-9.421,0.011-17.056,7.645-17.067,17.067v409.6C93.877,470.221,101.512,477.856,110.933,477.867z M238.933,187.733V204.8h-68.267
			v-17.067H238.933z M170.667,221.867h68.267c9.421-0.011,17.056-7.645,17.067-17.067v-17.067h42.667v51.2H110.933v-51.2H153.6
			V204.8C153.611,214.221,161.245,221.856,170.667,221.867z M298.667,170.667H110.933v-51.2h187.733V170.667z M110.933,460.813V256
			h187.733v204.8L110.933,460.813z M298.667,51.2v51.2H110.933V51.2H298.667z"/>
		<path d="M204.8,273.067c-23.564,0-42.667,19.103-42.667,42.667c0,23.564,19.103,42.667,42.667,42.667
			c23.564,0,42.667-19.103,42.667-42.667C247.439,292.181,228.353,273.094,204.8,273.067z M204.8,341.333
			c-14.139,0-25.6-11.462-25.6-25.6c0-14.138,11.462-25.6,25.6-25.6c14.138,0,25.6,11.462,25.6,25.6
			C230.385,329.865,218.932,341.318,204.8,341.333z"/>
		<path d="M209.492,385.45c-0.435-0.339-0.926-0.6-1.45-0.771c-0.51-0.258-1.059-0.43-1.625-0.508
			c-2.78-0.504-5.633,0.352-7.675,2.304c-2.461,2.441-3.201,6.129-1.872,9.331c1.329,3.202,4.464,5.281,7.93,5.261
			c0.542-0.016,1.083-0.073,1.617-0.171c0.566-0.082,1.115-0.255,1.625-0.513c0.524-0.171,1.015-0.432,1.45-0.771
			c0.46-0.297,0.89-0.639,1.283-1.021c1.636-1.591,2.558-3.776,2.558-6.058c0-2.282-0.923-4.467-2.558-6.058
			C210.404,386.068,209.971,385.722,209.492,385.45z"/>
	</g>
</g>
<g>
</g>
<g>
</g>
<g>
</g>
<g>
</g>
<g>
</g>
<g>
</g>
<g>
</g>
<g>
</g>
<g>
</g>
<g>
</g>
<g>
</g>
<g>
</g>
<g>
</g>
<g>
</g>
<g>
</g>
</svg>
