<?xml version="1.0" encoding="iso-8859-1"?>
<!-- Generator: Adobe Illustrator 19.0.0, SVG Export Plug-In . SVG Version: 6.00 Build 0)  -->
<svg version="1.1" id="Capa_1" xmlns="http://www.w3.org/2000/svg" xmlns:xlink="http://www.w3.org/1999/xlink" x="0px" y="0px"
	 viewBox="0 0 512 512" style="enable-background:new 0 0 512 512;" xml:space="preserve">
<g>
	<g transform="translate(1 1)">
		<rect x="7.533" y="24.6" style="fill:#4527A0;" width="494.933" height="307.2"/>
		<rect x="7.533" y="24.6" style="fill:#673AB7;" width="469.333" height="307.2"/>
		<rect x="195.267" y="365.933" style="fill:#37474F;" width="119.467" height="119.467"/>
		<g>
			<rect x="195.267" y="365.933" style="fill:#607D8B;" width="93.867" height="119.467"/>
			<path style="fill:#607D8B;" d="M408.6,493.933v8.533H101.4l0-8.533c-0.009-6.792,2.685-13.309,7.488-18.112
				c4.803-4.803,11.32-7.497,18.112-7.488h256c6.792-0.009,13.309,2.685,18.112,7.488S408.609,487.141,408.6,493.933z"/>
		</g>
		<path style="fill:#CFD8DC;" d="M383,493.933v8.533H101.4l0-8.533c-0.009-6.792,2.685-13.309,7.488-18.112
			c4.803-4.803,11.32-7.497,18.112-7.488h230.4c6.792-0.009,13.309,2.685,18.112,7.488S383.009,487.141,383,493.933z"/>
		<g>
			<path style="fill:#607D8B;" d="M502.467,314.733v51.2c-0.028,9.414-7.653,17.039-17.067,17.067H24.6
				c-9.414-0.028-17.039-7.653-17.067-17.067v-51.2H502.467z"/>
			<path style="fill:#607D8B;" d="M502.467,24.6v17.067H7.533V24.6C7.561,15.186,15.186,7.561,24.6,7.533h460.8
				C494.814,7.561,502.439,15.186,502.467,24.6z"/>
		</g>
		<g>
			<path style="fill:#CFD8DC;" d="M476.867,314.733v51.2c-0.028,9.414-7.653,17.039-17.067,17.067H24.6
				c-9.414-0.028-17.039-7.653-17.067-17.067v-51.2H476.867z"/>
			<path style="fill:#CFD8DC;" d="M476.867,24.6v17.067H7.533V24.6C7.561,15.186,15.186,7.561,24.6,7.533h435.2
				C469.214,7.561,476.839,15.186,476.867,24.6z"/>
		</g>
	</g>
	<g>
		<path d="M486.4,0H25.6C11.468,0.015,0.015,11.468,0,25.6v341.333c0.015,14.132,11.468,25.585,25.6,25.6h162.133V460.8H128
			c-18.843,0.02-34.113,15.29-34.133,34.133v8.533c-0.001,2.263,0.898,4.434,2.499,6.035c1.6,1.6,3.771,2.499,6.035,2.499h307.2
			c2.263,0.001,4.434-0.898,6.035-2.499c1.6-1.6,2.499-3.771,2.499-6.035v-8.533c-0.02-18.843-15.29-34.113-34.133-34.133h-59.733
			v-68.267H486.4c14.132-0.015,25.585-11.468,25.6-25.6V25.6C511.985,11.468,500.532,0.015,486.4,0z M17.067,51.2h477.867v256
			H17.067V51.2z M25.6,17.067h460.8c4.711,0.005,8.529,3.822,8.533,8.533v8.533H17.067V25.6
			C17.071,20.889,20.889,17.071,25.6,17.067z M401.067,494.933H110.933c0.011-9.421,7.645-17.056,17.067-17.067h256
			C393.421,477.877,401.056,485.512,401.067,494.933z M307.2,460.8H204.8v-68.267h102.4V460.8z M486.4,375.467H25.6
			c-4.711-0.005-8.529-3.822-8.533-8.533v-42.667h477.867v42.667C494.929,371.644,491.111,375.462,486.4,375.467z"/>
		<path d="M57.259,343.808c-3.421-3.158-8.695-3.158-12.117,0c-0.753,0.829-1.359,1.78-1.792,2.813
			c-0.911,2.067-0.911,4.421,0,6.487c0.433,1.034,1.039,1.987,1.792,2.817c3.365,3.3,8.752,3.3,12.117,0
			c0.753-0.83,1.359-1.783,1.792-2.817c0.911-2.067,0.911-4.421,0-6.487C58.618,345.588,58.012,344.637,57.259,343.808z"/>
		<path d="M79.275,343.808c-2.462,2.441-3.201,6.129-1.872,9.331c1.329,3.202,4.464,5.281,7.931,5.261
			c3.873,0,7.262-2.603,8.263-6.345c1-3.742-0.639-7.688-3.995-9.621C86.245,340.502,82.009,341.065,79.275,343.808z"/>
		<path d="M125.442,343.808c-0.394-0.382-0.824-0.725-1.283-1.025c-0.435-0.339-0.926-0.6-1.45-0.771
			c-0.483-0.244-1-0.415-1.533-0.508c-2.811-0.575-5.724,0.289-7.767,2.304c-0.753,0.829-1.359,1.78-1.792,2.813
			c-0.438,1.027-0.67,2.13-0.683,3.246c-0.022,2.27,0.87,4.453,2.475,6.058c1.605,1.605,3.788,2.497,6.058,2.475
			c0.573-0.02,1.143-0.077,1.708-0.171c0.533-0.096,1.05-0.269,1.533-0.512c0.524-0.171,1.015-0.432,1.45-0.771
			c0.46-0.297,0.89-0.639,1.283-1.021c1.613-1.607,2.531-3.782,2.558-6.058C127.957,347.594,127.041,345.424,125.442,343.808z"/>
		<path d="M247.467,435.2h17.067c4.713,0,8.533-3.82,8.533-8.533s-3.82-8.533-8.533-8.533h-17.067c-4.713,0-8.533,3.82-8.533,8.533
			S242.754,435.2,247.467,435.2z"/>
		<path d="M48.7,134.033l25.6-25.6c3.281-3.341,3.256-8.701-0.054-12.012s-8.671-3.335-12.012-0.054l-25.6,25.6
			c-2.188,2.149-3.055,5.307-2.27,8.271c0.785,2.965,3.1,5.28,6.065,6.065C43.393,137.088,46.551,136.221,48.7,134.033z"/>
		<path d="M86.017,80.042c0.184,0.545,0.442,1.062,0.767,1.538c0.317,0.446,0.659,0.873,1.025,1.279
			c1.636,1.558,3.8,2.441,6.059,2.475c0.573-0.016,1.144-0.073,1.708-0.171c0.533-0.096,1.05-0.269,1.533-0.513
			c0.543-0.188,1.059-0.447,1.533-0.771c0.425-0.338,0.858-0.679,1.284-1.021c0.341-0.429,0.683-0.854,1.025-1.279
			c0.321-0.477,0.579-0.994,0.767-1.538c0.247-0.483,0.419-1.002,0.508-1.537c0.103-0.563,0.162-1.133,0.175-1.705
			c-0.033-2.259-0.917-4.422-2.475-6.059c-0.425-0.341-0.858-0.683-1.283-1.025c-0.475-0.324-0.99-0.583-1.533-0.771
			c-0.483-0.244-1-0.416-1.534-0.508c-2.811-0.561-5.717,0.301-7.767,2.304c-1.561,1.634-2.445,3.799-2.475,6.059
			c0.014,0.571,0.07,1.141,0.167,1.704C85.596,79.039,85.77,79.557,86.017,80.042z"/>
		<path d="M151.1,70.767c-1.6-1.601-3.77-2.5-6.033-2.5s-4.433,0.899-6.033,2.5l-93.867,93.867
			c-2.178,2.151-3.037,5.304-2.251,8.262c0.786,2.958,3.097,5.269,6.055,6.055c2.958,0.786,6.111-0.073,8.262-2.251L151.1,82.833
			c1.601-1.6,2.5-3.77,2.5-6.033C153.6,74.537,152.7,72.367,151.1,70.767z"/>
	</g>
</g>
<g>
</g>
<g>
</g>
<g>
</g>
<g>
</g>
<g>
</g>
<g>
</g>
<g>
</g>
<g>
</g>
<g>
</g>
<g>
</g>
<g>
</g>
<g>
</g>
<g>
</g>
<g>
</g>
<g>
</g>
</svg>
