<?xml version="1.0" encoding="iso-8859-1"?>
<!-- Generator: Adobe Illustrator 19.0.0, SVG Export Plug-In . SVG Version: 6.00 Build 0)  -->
<svg version="1.1" id="Capa_1" xmlns="http://www.w3.org/2000/svg" xmlns:xlink="http://www.w3.org/1999/xlink" x="0px" y="0px"
	 viewBox="0 0 512 512" style="enable-background:new 0 0 512 512;" xml:space="preserve">
<g>
	<g transform="translate(1 1)">
		<path style="fill:#0377BC;" d="M434.2,178.2V383c0.002,9.053-3.593,17.737-9.995,24.139c-6.402,6.402-15.085,9.997-24.139,9.995
			H109.934c-9.053,0.002-17.737-3.593-24.139-9.995c-6.402-6.402-9.997-15.085-9.995-24.139V178.2l25.6-93.867l15.787-57.941
			c3.03-11.126,13.13-18.85,24.661-18.859h226.304c11.532,0.009,21.631,7.732,24.661,18.859L408.6,84.333L434.2,178.2z"/>
		<path style="fill:#02A9F4;" d="M408.6,178.2V383c0.002,9.053-3.593,17.737-9.995,24.139c-6.402,6.402-15.085,9.997-24.139,9.995
			H109.934c-9.053,0.002-17.737-3.593-24.139-9.995c-6.402-6.402-9.997-15.085-9.995-24.139V178.2l25.6-93.867l15.787-57.941
			c3.03-11.126,13.13-18.85,24.661-18.859h200.704c11.531,0.009,21.631,7.732,24.661,18.859L383,84.333L408.6,178.2z"/>
		<polygon style="fill:#FFEB3A;" points="289.134,41.667 255,84.333 229.4,84.333 212.334,144.067 255,144.067 263.534,109.933 
			297.667,109.933 		"/>
		<path style="fill:#37474F;" d="M383,323.267H127l22.187-81.323c2.041-7.411,8.782-12.546,16.469-12.544h178.688
			c7.687-0.002,14.428,5.133,16.469,12.544L383,323.267z"/>
		<g>
			<path style="fill:#607D8B;" d="M357.4,323.267H127l22.187-81.323c2.041-7.411,8.782-12.546,16.469-12.544h153.088
				c7.687-0.002,14.428,5.133,16.469,12.544L357.4,323.267z"/>
			<path style="fill:#607D8B;" d="M383,323.267V434.2c-0.076,5.759-1.633,11.402-4.523,16.384l-19.797,34.645
				c-6.057,10.648-17.361,17.228-29.611,17.237H180.931c-12.25-0.01-23.553-6.59-29.611-17.237l-19.797-34.645
				c-2.889-4.982-4.447-10.625-4.523-16.384V323.267H383z"/>
		</g>
		<path style="fill:#CFD8DC;" d="M357.4,323.267V434.2c-0.076,5.759-1.633,11.402-4.523,16.384l-19.797,34.645
			c-6.057,10.648-17.361,17.228-29.611,17.237H180.931c-12.25-0.01-23.553-6.59-29.611-17.237l-19.797-34.645
			c-2.889-4.982-4.447-10.625-4.523-16.384V323.267H357.4z"/>
		<rect x="357.4" y="374.467" style="fill:#37474F;" width="25.6" height="59.733"/>
		<rect x="127" y="374.467" style="fill:#607D8B;" width="230.4" height="59.733"/>
	</g>
	<g>
		<path d="M110.934,426.667h8.533v8c0,0.135,0.025,0.268,0.026,0.403l-0.026,0.13c0,0.091,0.049,0.165,0.051,0.255
			c0.118,7.154,2.035,14.164,5.573,20.383L144.9,490.5c7.608,13.282,21.736,21.482,37.042,21.5h148.117
			c15.306-0.018,29.434-8.218,37.042-21.5l19.808-34.658c3.538-6.22,5.455-13.231,5.573-20.386c0.003-0.09,0.051-0.165,0.051-0.255
			l-0.026-0.13c0.001-0.135,0.026-0.268,0.026-0.403v-8.001h8.533c23.553-0.028,42.639-19.114,42.667-42.667V179.2
			c-0.048-0.374-0.123-0.744-0.223-1.108c0.002-0.381-0.024-0.761-0.077-1.138L402.067,25.167
			C398.001,10.324,384.523,0.025,369.133,0H142.867c-15.389,0.025-28.867,10.324-32.933,25.167L68.567,176.954
			c-0.053,0.378-0.078,0.758-0.077,1.14c-0.1,0.363-0.175,0.733-0.223,1.106V384C68.294,407.553,87.381,426.639,110.934,426.667z
			 M332.8,426.667V409.6c0-4.713-3.82-8.533-8.533-8.533s-8.533,3.821-8.533,8.533v17.067h-17.067V409.6
			c0-4.713-3.82-8.533-8.533-8.533s-8.533,3.821-8.533,8.533v17.067h-17.067V409.6c0-4.713-3.82-8.533-8.533-8.533
			s-8.533,3.821-8.533,8.533v17.067H230.4V409.6c0-4.713-3.821-8.533-8.533-8.533c-4.713,0-8.533,3.821-8.533,8.533v17.067h-17.067
			V409.6c0-4.713-3.821-8.533-8.533-8.533s-8.533,3.821-8.533,8.533v17.067h-42.667V384h238.933v42.667H332.8z M375.467,332.8
			v34.133H136.534V332.8H375.467z M139.172,315.733l19.228-70.512c1.016-3.71,4.386-6.284,8.233-6.288h178.733
			c3.847,0.004,7.217,2.577,8.233,6.288l19.228,70.512H139.172z M352.283,482.033c-4.563,7.97-13.041,12.891-22.225,12.9H181.942
			c-9.184-0.009-17.662-4.93-22.225-12.9l-19.808-34.667c-0.591-1.171-1.089-2.385-1.492-3.633h235.167
			c-0.402,1.249-0.901,2.465-1.492,3.637L352.283,482.033z M426.667,384c-0.015,14.132-11.468,25.585-25.6,25.6h-8.533v-85.333
			c0-0.759-0.101-1.514-0.3-2.246l-22.167-81.292c-3.056-11.125-13.162-18.843-24.7-18.862H166.633
			c-11.538,0.02-21.644,7.737-24.7,18.862l-22.167,81.292c-0.199,0.732-0.3,1.487-0.3,2.246V409.6h-8.533
			c-14.132-0.015-25.585-11.468-25.6-25.6V187.733h341.333V384z M126.4,29.65c2.034-7.421,8.772-12.57,16.467-12.583h226.267
			c7.694,0.014,14.433,5.163,16.467,12.583l38.429,141.017H87.971L126.4,29.65z"/>
		<path d="M213.334,153.6H256c3.914-0.001,7.326-2.665,8.275-6.462l6.925-27.671h27.467c2.448,0.001,4.778-1.05,6.398-2.885
			c1.62-1.835,2.373-4.278,2.069-6.706L298.6,41.609c-0.426-3.404-2.849-6.222-6.15-7.154c-3.302-0.932-6.84,0.204-8.983,2.883
			L251.9,76.8h-21.5c-3.81,0.001-7.158,2.525-8.208,6.188l-17.067,59.733c-0.736,2.575-0.22,5.347,1.393,7.485
			C208.131,152.344,210.655,153.601,213.334,153.6z M236.834,93.867H256c2.593-0.002,5.046-1.18,6.667-3.204l21.508-26.883
			L289,102.4h-24.467c-3.914,0.001-7.326,2.665-8.275,6.462l-6.925,27.671H224.65L236.834,93.867z"/>
	</g>
</g>
<g>
</g>
<g>
</g>
<g>
</g>
<g>
</g>
<g>
</g>
<g>
</g>
<g>
</g>
<g>
</g>
<g>
</g>
<g>
</g>
<g>
</g>
<g>
</g>
<g>
</g>
<g>
</g>
<g>
</g>
</svg>
