<?xml version="1.0" encoding="iso-8859-1"?>
<!-- Generator: Adobe Illustrator 19.0.0, SVG Export Plug-In . SVG Version: 6.00 Build 0)  -->
<svg version="1.1" id="Capa_1" xmlns="http://www.w3.org/2000/svg" xmlns:xlink="http://www.w3.org/1999/xlink" x="0px" y="0px"
	 viewBox="0 0 504.609 504.609" style="enable-background:new 0 0 504.609 504.609;" xml:space="preserve">
<g>
	<g transform="translate(1 1)">
		<path style="fill:#00838F;" d="M414.976,116.508v184.656c0.016,16.239-11.626,30.146-27.614,32.986l-263.806,0.588h-2.35
			c-0.338,0.014-0.676-0.014-1.007-0.084c-18.13-0.51-32.563-15.353-32.567-33.49V116.508l18.466-84.354
			c3.961-14.628,17.244-24.779,32.399-24.761h225.616c15.155-0.018,28.437,10.133,32.399,24.761L414.976,116.508z"/>
		<path style="fill:#00BCD4;" d="M389.796,116.508v184.656c0.016,16.239-11.626,30.146-27.614,32.986l-241.983,0.504
			c-18.13-0.51-32.563-15.353-32.567-33.49V116.508l18.466-84.354c3.961-14.628,17.244-24.779,32.399-24.761h200.435
			c15.155-0.018,28.437,10.133,32.399,24.761L389.796,116.508z"/>
		<path style="fill:#00838F;" d="M414.976,116.508l0,184.656c0.016,16.239-11.626,30.146-27.614,32.986l-263.806,0.588h-2.35
			c-0.338,0.014-0.676-0.014-1.007-0.084c-18.13-0.51-32.563-15.353-32.567-33.49V116.508H414.976z"/>
		<path style="fill:#00BCD4;" d="M389.796,116.508l0,184.656c0.016,16.239-11.626,30.146-27.614,32.986l-241.983,0.504
			c-18.13-0.51-32.563-15.353-32.567-33.49V116.508H389.796z"/>
		<polygon style="fill:#00838F;" points="131.614,82.934 138.488,41.009 364.112,40.967 370.995,82.934 		"/>
		<path style="fill:#00695C;" d="M386.942,332.052v0.084h-28.034l-234.848-0.084l5.624-63.79h0.084
			c3.497-61.139,50.669-110.797,111.549-117.424c4.711-0.505,9.447-0.757,14.185-0.755c64.218-0.23,118.253,48.046,125.23,111.885
			h0.084L386.942,332.052z"/>
		<path style="fill:#009688;" d="M358.908,332.052v0.084l-234.848-0.084l5.624-63.79h0.084
			c3.497-61.139,50.669-110.797,111.549-117.424c58.643,6.237,105.012,52.5,111.381,111.129h0.084L358.908,332.052z"/>
		<path style="fill:#607D8B;" d="M389.796,359.918c0.01,35.62-14.136,69.784-39.323,94.972
			c-25.187,25.187-59.352,39.333-94.972,39.323c-4.204,0.018-8.406-0.179-12.59-0.588c-68.987-6.498-121.706-64.415-121.706-133.708
			s52.719-127.21,121.706-133.708c4.184-0.409,8.386-0.605,12.59-0.588c35.62-0.01,69.785,14.136,94.972,39.323
			C375.66,290.133,389.806,324.298,389.796,359.918z"/>
		<ellipse style="fill:#CFD8DC;" cx="242.911" cy="359.918" rx="121.705" ry="133.708"/>
		<path style="fill:#607D8B;" d="M356.222,359.918c0.049,17.678-4.584,35.054-13.43,50.361h-36.931v36.931
			c-31.186,17.906-69.535,17.906-100.721,0v-36.931h-36.931c-15.69-27.276-17.747-60.313-5.563-89.325
			c12.184-29.012,37.214-50.673,67.674-58.567v21.991h50.361v-21.991C325.159,273.862,356.234,313.983,356.222,359.918z"/>
		<rect x="238.714" y="317.951" style="fill:#37474F;" width="33.574" height="50.361"/>
	</g>
	<g>
		<path d="M365.616,360.918c0.045-49.777-33.637-93.262-81.844-105.664c-2.513-0.646-5.184-0.093-7.234,1.497
			c-2.05,1.59-3.25,4.039-3.25,6.634v13.598h-33.574v-13.598c0-2.595-1.199-5.044-3.25-6.634c-2.05-1.59-4.721-2.143-7.234-1.497
			c-32.832,8.475-59.859,31.731-73.134,62.933c-13.275,31.202-11.291,66.802,5.371,96.334l0.031,0.063
			c0.166,0.293,0.277,0.613,0.446,0.904c0.357,0.61,0.791,1.172,1.29,1.673l0.047,0.061c0.688,0.66,1.485,1.196,2.354,1.587
			c0.222,0.106,0.44,0.192,0.672,0.279c0.923,0.367,1.905,0.565,2.899,0.586h28.541v28.537c0.02,0.992,0.218,1.973,0.585,2.895
			c0.087,0.235,0.175,0.454,0.281,0.678c0.39,0.868,0.926,1.664,1.585,2.351l0.055,0.043c0.501,0.5,1.064,0.936,1.675,1.295
			c0.295,0.171,0.619,0.284,0.916,0.452l0.047,0.023c33.273,18.782,73.949,18.782,107.222,0l0.049-0.024
			c0.296-0.168,0.619-0.28,0.914-0.451c0.611-0.359,1.173-0.794,1.675-1.295l0.055-0.043c0.658-0.687,1.194-1.482,1.584-2.35
			c0.107-0.225,0.196-0.446,0.283-0.682c0.366-0.922,0.564-1.901,0.583-2.893v-28.537h28.541c0.994-0.02,1.976-0.218,2.899-0.585
			c0.233-0.087,0.451-0.174,0.674-0.28c0.869-0.39,1.665-0.927,2.353-1.586l0.047-0.061c0.499-0.501,0.932-1.063,1.29-1.673
			c0.168-0.29,0.279-0.609,0.445-0.901l0.033-0.067C360.772,398.166,365.623,379.7,365.616,360.918z M306.862,402.885
			c-2.226-0.001-4.362,0.884-5.936,2.458c-1.574,1.574-2.458,3.709-2.458,5.936v31.947c-26.435,13.139-57.499,13.139-83.934,0
			v-31.947c0.001-2.226-0.884-4.361-2.458-5.936c-1.574-1.574-3.709-2.458-5.936-2.458H174.19
			c-11.803-23.257-13.242-50.415-3.961-74.789c9.28-24.374,28.417-43.698,52.699-53.215v10.496
			c-0.001,2.226,0.884,4.361,2.458,5.936c1.574,1.574,3.709,2.458,5.936,2.458h50.361c2.226,0.001,4.362-0.884,5.936-2.458
			c1.574-1.574,2.458-3.709,2.458-5.936v-10.496c24.282,9.517,43.419,28.842,52.699,53.215c9.28,24.374,7.842,51.532-3.961,74.789
			H306.862z"/>
		<path d="M273.288,310.557h-33.574c-2.226-0.001-4.361,0.884-5.936,2.458c-1.574,1.574-2.458,3.709-2.458,5.936v50.361
			c-0.001,2.226,0.884,4.361,2.458,5.936c1.574,1.574,3.709,2.458,5.936,2.458h33.574c2.226,0.001,4.362-0.884,5.936-2.458
			c1.574-1.574,2.458-3.709,2.458-5.936v-50.361c0.001-2.226-0.884-4.361-2.458-5.936
			C277.649,311.441,275.514,310.557,273.288,310.557z M264.894,360.918h-16.787v-33.574h16.787V360.918z"/>
		<path d="M200.181,312.991c-3.258,3.285-3.244,8.587,0.032,11.854c3.276,3.267,8.578,3.267,11.854,0
			c3.276-3.267,3.29-8.569,0.032-11.854C208.732,309.889,203.548,309.889,200.181,312.991z"/>
		<path d="M191.788,363.352c-3.258,3.285-3.244,8.587,0.032,11.854c3.276,3.267,8.578,3.267,11.854,0
			c3.276-3.267,3.29-8.569,0.032-11.854C200.338,360.25,195.155,360.25,191.788,363.352z"/>
		<path d="M312.821,324.91c2.904-2.848,3.387-7.353,1.152-10.752c-2.235-3.399-6.563-4.741-10.329-3.203
			c-3.766,1.538-5.917,5.526-5.133,9.518c0.784,3.992,4.283,6.871,8.35,6.871C309.083,327.311,311.211,326.442,312.821,324.91z"/>
		<path d="M309.296,363.352c-3.246,3.31-3.246,8.608,0,11.918c1.6,1.547,3.734,2.419,5.959,2.435c3.809,0,7.143-2.56,8.127-6.241
			c0.984-3.68-0.628-7.562-3.929-9.463C316.152,360.1,311.985,360.654,309.296,363.352z"/>
		<path d="M238.034,411.447c-0.525,0.09-1.033,0.259-1.508,0.5c-0.537,0.184-1.047,0.439-1.516,0.758l-1.254,1.008
			c-0.759,0.801-1.358,1.74-1.763,2.766c-0.431,1.01-0.659,2.095-0.671,3.193c0.014,2.226,0.886,4.361,2.434,5.959
			c0.418,0.336,0.836,0.672,1.254,1.004c0.47,0.319,0.98,0.574,1.516,0.758c0.475,0.241,0.983,0.411,1.508,0.504
			c0.555,0.096,1.117,0.153,1.681,0.168c2.222-0.034,4.349-0.903,5.959-2.434c0.336-0.422,0.672-0.84,1.008-1.344
			c0.331-0.429,0.586-0.911,0.754-1.426c0.243-0.475,0.412-0.986,0.5-1.512c0.102-0.553,0.159-1.114,0.172-1.677
			c0.022-2.528-1.105-4.93-3.064-6.529C243.085,411.544,240.507,410.92,238.034,411.447z"/>
		<path d="M270.099,411.947c-1.028,0.406-1.969,1.006-2.771,1.766c-1.568,1.586-2.443,3.729-2.434,5.959
			c-0.027,0.564,0.028,1.128,0.164,1.676c0.095,0.526,0.266,1.036,0.508,1.512c0.164,0.517,0.42,1,0.754,1.426
			c0.289,0.481,0.627,0.932,1.008,1.345c0.803,0.758,1.744,1.356,2.771,1.763c1.009,0.43,2.092,0.658,3.189,0.671
			c0.534-0.015,1.065-0.071,1.59-0.168c0.557-0.081,1.096-0.251,1.598-0.504c0.516-0.168,0.998-0.425,1.426-0.758
			c0.5-0.332,0.926-0.668,1.344-1.004c3.246-3.31,3.246-8.608,0-11.918C276.796,411.405,273.234,410.717,270.099,411.947z"/>
		<path d="M115.001,343.403c-0.755,5.809-1.152,11.658-1.189,17.515c0,2.073,0.223,4.09,0.311,6.142
			c-0.023,0.255-0.148,0.48-0.148,0.739c0.05,0.413,0.133,0.822,0.247,1.222c2.577,52.537,33.872,99.387,81.417,121.886
			c47.545,22.499,103.616,16.991,145.875-14.329s63.839-83.364,56.145-135.398c16.112-6.234,26.727-21.74,26.71-39.016V117.508
			c-0.043-0.305-0.104-0.606-0.182-0.904c0.012-0.296,0.007-0.592-0.014-0.887v-0.004l-0.483-2.204l-18.05-82.583
			C400.633,12.685,384.064,0.031,365.149,0H139.46c-19.06,0.071-35.701,12.922-40.59,31.344l-17.991,82.342l-0.444,2.027v0.004
			c-0.022,0.295-0.027,0.592-0.014,0.888c-0.078,0.297-0.139,0.599-0.182,0.903v184.656
			C80.285,322.524,94.943,339.912,115.001,343.403z M139.026,270.183c0.019-0.172,0.113-0.315,0.122-0.49
			c3.829-60.828,53.495-108.651,114.424-110.18c60.929-1.529,112.931,43.744,119.806,104.303c0.015,0.14,0.098,0.249,0.119,0.386
			l1.526,17.38c-26.441-39.57-70.885-63.335-118.476-63.352c-47.591-0.016-92.051,23.718-118.519,63.27L139.026,270.183z
			 M256.501,486.82c-69.534,0-125.902-56.368-125.902-125.902s56.368-125.902,125.902-125.902s125.902,56.368,125.902,125.902
			C382.325,430.42,326.002,486.742,256.501,486.82z M407.583,302.164c0.008,8.758-4.558,16.885-12.042,21.434l-5.368-61.373
			c-0.015-0.177-0.117-0.316-0.144-0.489c-7.927-69.048-67.199-120.657-136.681-119.011
			c-69.482,1.645-126.244,56.002-130.894,125.348c-0.023,0.162-0.119,0.291-0.134,0.456l-5.14,58.308
			c-11.72-2.402-20.14-12.709-20.155-24.673V125.902h310.557V302.164z M365.116,16.787c11.219-0.036,21.099,7.381,24.197,18.164
			l16.238,74.164H99.058l16.147-73.77c2.983-10.956,12.932-18.558,24.287-18.557H365.116z"/>
		<path d="M131.198,40.652l-6.869,41.926c-0.395,2.431,0.297,4.912,1.892,6.789c1.595,1.876,3.933,2.959,6.395,2.961h239.377
			c2.463-0.002,4.8-1.085,6.395-2.961c1.595-1.876,2.286-4.358,1.892-6.789l-6.877-41.967c-0.668-4.057-4.175-7.035-8.287-7.037
			l-225.631,0.041C135.372,33.616,131.866,36.594,131.198,40.652z M146.616,50.402l211.369-0.041l4.131,25.18H142.493
			L146.616,50.402z"/>
	</g>
</g>
<g>
</g>
<g>
</g>
<g>
</g>
<g>
</g>
<g>
</g>
<g>
</g>
<g>
</g>
<g>
</g>
<g>
</g>
<g>
</g>
<g>
</g>
<g>
</g>
<g>
</g>
<g>
</g>
<g>
</g>
</svg>
