<?xml version="1.0" encoding="iso-8859-1"?>
<!-- Generator: Adobe Illustrator 19.0.0, SVG Export Plug-In . SVG Version: 6.00 Build 0)  -->
<svg version="1.1" id="Capa_1" xmlns="http://www.w3.org/2000/svg" xmlns:xlink="http://www.w3.org/1999/xlink" x="0px" y="0px"
	 viewBox="0 0 512 512" style="enable-background:new 0 0 512 512;" xml:space="preserve">
<g>
	<g transform="translate(1 1)">
		<path style="fill:#283593;" d="M425.667,218.733H84.333l18.944-115.2l74.069-78.251c10.664-11.301,25.507-17.72,41.045-17.749
			h73.216c11.907,0.008,23.502,3.803,33.109,10.837c2.841,2.07,5.496,4.382,7.936,6.912l74.069,78.251L425.667,218.733z"/>
		<path style="fill:#3F51B5;" d="M400.067,218.733H84.333l18.944-115.2l74.069-78.251c10.664-11.301,25.507-17.72,41.045-17.749
			h73.216c11.907,0.008,23.502,3.803,33.109,10.837l56.405,59.563L400.067,218.733z"/>
		<path style="fill:#4527A0;" d="M425.667,221.805v113.749c0.051,15.318-6.106,30.003-17.067,40.704H101.4
			c-10.96-10.701-17.118-25.386-17.067-40.704V221.805l74.069-77.312C169.12,133.3,183.951,126.979,199.448,127h111.104
			c15.497-0.021,30.328,6.3,41.045,17.493l48.469,50.603L425.667,221.805z"/>
		<path style="fill:#673AB7;" d="M400.067,195.096v140.459c0.051,15.318-6.106,30.003-17.067,40.704H101.4
			c-10.96-10.701-17.118-25.386-17.067-40.704V221.805l74.069-77.312C169.12,133.3,183.951,126.979,199.448,127h111.104
			c15.497-0.021,30.328,6.3,41.045,17.493L400.067,195.096z"/>
		<path style="fill:#3F51B5;" d="M101.4,348.867l17.067-102.4l66.637-69.554c9.657-10.08,23.011-15.78,36.971-15.78h65.851
			c13.959,0,27.314,5.7,36.971,15.78l66.637,69.554l17.067,102.4H101.4z"/>
		<polygon style="fill:#283593;" points="408.6,348.867 383,348.867 361.581,215.235 391.533,246.467 		"/>
		<path style="fill:#4527A0;" d="M408.6,348.867v102.4c-0.022,28.268-22.932,51.178-51.2,51.2H152.6
			c-28.268-0.022-51.178-22.932-51.2-51.2v-102.4l66.645-69.547c9.655-10.071,22.998-15.772,36.949-15.787h100.011
			c13.952,0.015,27.294,5.715,36.949,15.787L383,322.157L408.6,348.867z"/>
		<path style="fill:#673AB7;" d="M383,322.157v129.109c-0.022,28.268-22.932,51.178-51.2,51.2H152.6
			c-28.268-0.022-51.178-22.932-51.2-51.2v-102.4l66.645-69.547c9.655-10.071,22.998-15.772,36.949-15.787h100.011
			c13.952,0.015,27.294,5.715,36.949,15.787L383,322.157z"/>
		<g>
			<rect x="152.6" y="383" style="fill:#FEC108;" width="34.133" height="68.267"/>
			<rect x="237.933" y="314.733" style="fill:#FEC108;" width="34.133" height="68.267"/>
			<rect x="323.267" y="383" style="fill:#FEC108;" width="34.133" height="68.267"/>
		</g>
	</g>
	<g>
		<path d="M93.867,452.267c0.038,32.974,26.759,59.695,59.733,59.733h204.8c32.974-0.038,59.695-26.759,59.733-59.733v-71.675
			c11.027-12.009,17.121-27.734,17.067-44.038v-113.75c-0.048-0.407-0.126-0.81-0.233-1.205c0.249-1.067,0.288-2.171,0.117-3.253
			l-18.967-115.2c-0.277-1.68-1.048-3.24-2.217-4.479l-74.033-78.25C327.561,7.432,310.473,0.053,292.583,0h-73.167
			c-17.89,0.053-34.977,7.432-47.283,20.417L98.1,98.667c-1.168,1.239-1.94,2.799-2.217,4.479l-18.967,115.2
			c-0.171,1.081-0.131,2.185,0.117,3.251c-0.108,0.396-0.186,0.8-0.234,1.208v113.75c-0.054,16.304,6.04,32.028,17.067,44.038
			V452.267z M401.067,452.267c-0.028,23.553-19.114,42.639-42.667,42.667H153.6c-23.553-0.028-42.639-19.114-42.667-42.667v-98.971
			l64.258-67.079c8.064-8.381,19.186-13.127,30.817-13.15h99.983c11.63,0.023,22.753,4.769,30.817,13.15l64.258,67.079V452.267z
			 M115.361,324.005l12.089-72.539l64.808-67.65c8.064-8.381,19.186-13.127,30.817-13.15h65.85
			c11.63,0.023,22.753,4.769,30.817,13.15l64.808,67.65l12.089,72.539l-47.514-49.597c-11.286-11.732-26.854-18.376-43.133-18.408
			h-99.983c-16.279,0.032-31.847,6.676-43.133,18.408L115.361,324.005z M418.133,336.554c-0.045,2.662-0.305,5.316-0.779,7.936
			l-16.405-98.428c-0.283-1.693-1.07-3.262-2.258-4.5l-66.633-69.554c-11.286-11.732-26.854-18.376-43.133-18.408h-65.85
			c-16.279,0.032-31.847,6.676-43.133,18.408l-66.633,69.554c-1.189,1.238-1.976,2.807-2.258,4.5l-16.405,98.428
			c-0.473-2.62-0.734-5.274-0.779-7.936V226.233l71.708-74.85c9.122-9.486,21.714-14.848,34.875-14.85h111.1
			c13.168,0.004,25.766,5.37,34.892,14.863l71.692,74.838V336.554z M112.292,108.5l72.242-76.35
			c9.075-9.588,21.682-15.039,34.883-15.083h73.167c13.202,0.044,25.808,5.495,34.883,15.083l72.242,76.35l14.677,89.153
			L358.775,139.6c-12.349-12.853-29.4-20.122-47.225-20.133h-111.1c-17.817,0.009-34.863,7.274-47.208,20.121l-55.628,58.066
			L112.292,108.5z"/>
		<path d="M187.733,375.467H153.6c-2.263-0.001-4.434,0.898-6.035,2.499c-1.6,1.6-2.499,3.771-2.499,6.035v68.267
			c-0.001,2.263,0.898,4.434,2.499,6.035c1.6,1.6,3.771,2.499,6.035,2.499h34.133c2.263,0.001,4.434-0.898,6.035-2.499
			c1.6-1.6,2.499-3.771,2.499-6.035V384c0.001-2.263-0.898-4.434-2.499-6.035C192.168,376.365,189.997,375.466,187.733,375.467z
			 M179.2,443.733h-17.067v-51.2H179.2V443.733z"/>
		<path d="M273.067,307.2h-34.133c-2.263-0.001-4.434,0.898-6.035,2.499c-1.6,1.6-2.499,3.771-2.499,6.035V384
			c-0.001,2.263,0.898,4.434,2.499,6.035c1.6,1.6,3.771,2.499,6.035,2.499h34.133c2.263,0.001,4.434-0.898,6.035-2.499
			c1.6-1.6,2.499-3.771,2.499-6.035v-68.267c0.001-2.263-0.898-4.434-2.499-6.035C277.501,308.098,275.33,307.199,273.067,307.2z
			 M264.533,375.467h-17.067v-51.2h17.067V375.467z"/>
		<path d="M358.4,375.467h-34.133c-2.263-0.001-4.434,0.898-6.035,2.499s-2.499,3.771-2.499,6.035v68.267
			c-0.001,2.263,0.898,4.434,2.499,6.035c1.6,1.6,3.771,2.499,6.035,2.499H358.4c2.263,0.001,4.434-0.898,6.035-2.499
			c1.6-1.6,2.499-3.771,2.499-6.035V384c0.001-2.263-0.898-4.434-2.499-6.035C362.834,376.365,360.663,375.466,358.4,375.467z
			 M349.867,443.733H332.8v-51.2h17.067V443.733z"/>
	</g>
</g>
<g>
</g>
<g>
</g>
<g>
</g>
<g>
</g>
<g>
</g>
<g>
</g>
<g>
</g>
<g>
</g>
<g>
</g>
<g>
</g>
<g>
</g>
<g>
</g>
<g>
</g>
<g>
</g>
<g>
</g>
</svg>
