<?xml version="1.0" encoding="iso-8859-1"?>
<!-- Generator: Adobe Illustrator 19.0.0, SVG Export Plug-In . SVG Version: 6.00 Build 0)  -->
<svg version="1.1" id="Capa_1" xmlns="http://www.w3.org/2000/svg" xmlns:xlink="http://www.w3.org/1999/xlink" x="0px" y="0px"
	 viewBox="0 0 512 512" style="enable-background:new 0 0 512 512;" xml:space="preserve">
<g>
	<g transform="translate(1 1)">
		<path style="fill:#607D8B;" d="M383,297.667v128c-0.014,4.707-3.826,8.519-8.533,8.533h-34.133v34.133h-42.667v25.6
			c-0.014,4.707-3.826,8.519-8.533,8.533h-68.267c-4.707-0.014-8.519-3.826-8.533-8.533v-25.6h-42.667V434.2h-34.133
			c-4.707-0.014-8.519-3.826-8.533-8.533v-128l20.139-110.933l3.157-17.067l10.837-59.733H152.6l25.6-102.4h153.6l25.6,102.4h-8.533
			l10.837,59.733l3.157,17.067L383,297.667z"/>
		<path style="fill:#CFD8DC;" d="M357.4,297.667v128c-0.014,4.707-3.826,8.519-8.533,8.533h-34.133v34.133h-42.667v25.6
			c-0.014,4.707-3.826,8.519-8.533,8.533h-42.667c-4.707-0.014-8.519-3.826-8.533-8.533v-25.6h-42.667V434.2h-34.133
			c-4.707-0.014-8.519-3.826-8.533-8.533v-128l20.139-110.933l3.157-17.067l10.837-59.733H152.6l25.6-102.4h128l25.6,102.4h-8.533
			l10.837,59.733l3.157,17.067L357.4,297.667z"/>
		<polygon style="fill:#AD1457;" points="357.4,109.933 152.6,109.933 178.2,7.533 331.8,7.533 		"/>
		<polygon style="fill:#E91E63;" points="331.8,109.933 152.6,109.933 178.2,7.533 306.2,7.533 		"/>
		<polygon style="fill:#CFD8DC;" points="203.8,75.8 207.768,41.667 302.232,41.667 306.2,75.8 		"/>
		<rect x="203.8" y="109.933" style="fill:#FFEB3A;" width="34.133" height="68.267"/>
		<rect x="237.933" y="109.933" style="fill:#4CAF50;" width="34.133" height="68.267"/>
		<rect x="272.067" y="109.933" style="fill:#02A9F4;" width="34.133" height="68.267"/>
	</g>
	<g>
		<path d="M136.533,443.733h25.6v25.6c0,4.713,3.82,8.533,8.533,8.533H204.8v17.067c0.009,9.422,7.645,17.057,17.067,17.067h68.267
			c9.422-0.009,17.057-7.645,17.067-17.067v-17.067h34.133c4.713,0,8.533-3.821,8.533-8.533v-25.6h25.6
			c9.422-0.009,17.057-7.645,17.067-17.067v-128c-0.041-0.275-0.096-0.548-0.165-0.818c-0.023-0.238,0.071-0.47,0.028-0.707
			l-32.373-178.05c1.996-0.322,3.808-1.355,5.102-2.908c1.618-2.071,2.191-4.771,1.554-7.321l-25.6-102.4
			C340.128,2.664,336.715,0,332.8,0H179.2c-3.915,0-7.328,2.664-8.279,6.462l-25.6,102.4c-0.637,2.549-0.063,5.25,1.554,7.321
			c1.294,1.553,3.106,2.586,5.102,2.908l-32.373,178.05c-0.043,0.237,0.051,0.469,0.028,0.707c-0.069,0.27-0.124,0.542-0.165,0.818
			v128C119.476,436.088,127.112,443.724,136.533,443.733z M221.867,494.933v-17.067h68.267v17.067H221.867z M298.667,460.8H179.2
			v-17.067h153.6V460.8H298.667z M375.467,426.667H136.533V307.2h25.6v42.667c0,4.713,3.82,8.533,8.533,8.533
			s8.533-3.821,8.533-8.533V307.2h17.067v42.667c0,4.713,3.82,8.533,8.533,8.533c4.713,0,8.533-3.821,8.533-8.533V307.2H230.4
			v42.667c0,4.713,3.821,8.533,8.533,8.533c4.713,0,8.533-3.821,8.533-8.533V307.2h17.067v42.667c0,4.713,3.82,8.533,8.533,8.533
			s8.533-3.821,8.533-8.533V307.2h17.067v42.667c0,4.713,3.82,8.533,8.533,8.533s8.533-3.821,8.533-8.533V307.2H332.8v42.667
			c0,4.713,3.82,8.533,8.533,8.533s8.533-3.821,8.533-8.533V307.2h25.6V426.667z M196.267,256v34.133H179.2V256H196.267z M230.4,256
			v34.133h-17.067V256H230.4z M264.533,256v34.133h-17.067V256H264.533z M298.667,256v34.133H281.6V256H298.667z M332.8,256v34.133
			h-17.067V256H332.8z M281.6,170.667v-51.2h17.067v51.2H281.6z M247.467,170.667v-51.2h17.067v51.2H247.467z M213.333,170.667
			v-51.2H230.4v51.2H213.333z M159.945,170.667l9.309-51.2h27.013v51.2H159.945z M315.733,119.467h27.013l9.309,51.2h-36.321
			V119.467z M185.862,17.067h140.275l21.333,85.333H164.529L185.862,17.067z M156.843,187.733h198.315l18.618,102.4h-23.908v-42.667
			c0-4.713-3.821-8.533-8.533-8.533H170.667c-4.713,0-8.533,3.821-8.533,8.533v42.667h-23.908L156.843,187.733z"/>
		<path d="M175.446,376.917c-0.476-0.324-0.993-0.583-1.538-0.771c-0.484-0.246-1.002-0.417-1.537-0.508
			c-2.81-0.574-5.721,0.29-7.763,2.304c-1.559,1.635-2.443,3.799-2.475,6.059c0.014,0.572,0.071,1.141,0.171,1.704
			c0.091,0.535,0.263,1.053,0.508,1.537c0.187,0.544,0.447,1.062,0.771,1.538c0.316,0.447,0.658,0.874,1.025,1.28
			c1.636,1.558,3.8,2.441,6.059,2.475c0.571-0.016,1.141-0.073,1.704-0.171c0.535-0.095,1.053-0.267,1.537-0.512
			c0.544-0.187,1.062-0.447,1.538-0.771c0.425-0.337,0.85-0.679,1.279-1.021c0.341-0.429,0.683-0.854,1.021-1.279
			c0.324-0.476,0.583-0.993,0.771-1.538c0.245-0.485,0.418-1.003,0.513-1.537c0.098-0.563,0.155-1.133,0.171-1.704
			c-0.033-2.259-0.917-4.422-2.475-6.059C176.296,377.6,175.871,377.259,175.446,376.917z"/>
		<path d="M210.859,377.941c-0.429-0.341-0.854-0.683-1.279-1.025c-0.476-0.324-0.993-0.583-1.538-0.771
			c-0.484-0.246-1.002-0.417-1.537-0.508c-1.663-0.348-3.393-0.171-4.95,0.508c-2.139,0.784-3.824,2.469-4.608,4.608
			c-0.437,1.027-0.668,2.13-0.68,3.247c0.014,0.572,0.071,1.141,0.171,1.704c0.091,0.535,0.263,1.053,0.508,1.537
			c0.187,0.544,0.447,1.062,0.771,1.538c0.341,0.425,0.683,0.85,1.025,1.279c0.83,0.752,1.781,1.358,2.813,1.792
			c1.027,0.438,2.13,0.67,3.246,0.683c0.571-0.016,1.141-0.073,1.704-0.171c0.535-0.095,1.053-0.267,1.537-0.512
			c0.544-0.187,1.062-0.447,1.538-0.771c0.425-0.337,0.85-0.679,1.279-1.021c0.341-0.429,0.683-0.854,1.021-1.279
			c0.324-0.476,0.583-0.993,0.771-1.538c0.245-0.485,0.418-1.003,0.513-1.537c0.098-0.563,0.155-1.133,0.171-1.704
			c-0.013-1.116-0.245-2.219-0.683-3.246C212.216,379.722,211.61,378.771,210.859,377.941z"/>
		<path d="M232.875,377.941c-1.559,1.635-2.443,3.799-2.475,6.059c0.014,0.572,0.071,1.141,0.171,1.704
			c0.091,0.535,0.263,1.053,0.508,1.537c0.187,0.544,0.447,1.062,0.771,1.538c0.341,0.425,0.683,0.85,1.025,1.279
			c3.365,3.3,8.752,3.3,12.117,0c0.341-0.429,0.683-0.854,1.021-1.279c0.324-0.476,0.583-0.993,0.771-1.538
			c0.245-0.485,0.418-1.003,0.513-1.537c0.098-0.563,0.155-1.133,0.171-1.704c0.02-3.467-2.059-6.601-5.261-7.931
			C239.004,374.74,235.316,375.48,232.875,377.941z"/>
		<path d="M276.308,376.146c-3.178-1.338-6.849-0.629-9.3,1.796c-1.559,1.635-2.443,3.799-2.475,6.059
			c0.012,1.115,0.243,2.216,0.679,3.242c0.414,1.045,1.023,2.001,1.796,2.817c0.404,0.368,0.831,0.709,1.279,1.021
			c0.475,0.323,0.991,0.582,1.533,0.771c0.485,0.245,1.003,0.418,1.537,0.513c0.565,0.098,1.136,0.155,1.709,0.171
			c2.259-0.034,4.422-0.918,6.059-2.475c0.752-0.831,1.358-1.783,1.792-2.817c0.437-1.026,0.669-2.127,0.683-3.242
			c-0.033-2.259-0.917-4.422-2.475-6.059C278.323,377.151,277.363,376.54,276.308,376.146z"/>
		<path d="M315.05,380.754c-0.188-0.543-0.448-1.058-0.771-1.533c-0.337-0.429-0.679-0.854-1.021-1.279
			c-0.816-0.772-1.772-1.382-2.817-1.796c-2.07-0.894-4.417-0.894-6.487,0c-1.044,0.413-1.999,1.023-2.813,1.796
			c-0.341,0.425-0.683,0.85-1.025,1.279c-0.323,0.475-0.582,0.991-0.771,1.533c-0.246,0.484-0.417,1.002-0.508,1.537
			c-0.228,1.126-0.228,2.286,0,3.413c0.091,0.535,0.263,1.053,0.508,1.537c0.187,0.544,0.447,1.062,0.771,1.538
			c0.341,0.425,0.683,0.85,1.025,1.279c0.815,0.771,1.77,1.379,2.813,1.792c1.027,0.438,2.13,0.67,3.246,0.683
			c2.259-0.034,4.422-0.918,6.059-2.475c0.341-0.429,0.683-0.854,1.021-1.279c0.324-0.476,0.583-0.993,0.771-1.538
			c0.245-0.485,0.418-1.003,0.513-1.537c0.228-1.126,0.228-2.286,0-3.413C315.468,381.757,315.295,381.239,315.05,380.754z"/>
		<path d="M335.275,377.941c-1.559,1.635-2.443,3.799-2.475,6.059c0.018,0.571,0.075,1.141,0.171,1.704
			c0.091,0.535,0.263,1.053,0.508,1.537c0.187,0.544,0.447,1.062,0.771,1.538c0.341,0.425,0.683,0.85,1.025,1.279
			c0.815,0.77,1.77,1.379,2.813,1.792c1.027,0.438,2.13,0.67,3.246,0.683c2.259-0.034,4.422-0.918,6.059-2.475
			c0.341-0.429,0.683-0.854,1.021-1.279c0.324-0.476,0.583-0.993,0.771-1.538c0.245-0.485,0.418-1.003,0.513-1.537
			c0.094-0.564,0.151-1.133,0.171-1.705c0.02-3.467-2.059-6.601-5.261-7.931C341.404,374.74,337.716,375.48,335.275,377.941z"/>
		<path d="M307.2,85.333c2.434-0.001,4.752-1.041,6.371-2.858c1.619-1.818,2.384-4.24,2.104-6.658l-3.967-34.133
			c-0.498-4.303-4.143-7.55-8.475-7.55h-94.467c-4.332,0-7.977,3.247-8.475,7.55l-3.967,34.133c-0.28,2.418,0.485,4.84,2.104,6.658
			c1.619,1.818,3.937,2.858,6.371,2.858H307.2z M216.367,51.2h79.267l1.984,17.067h-83.233L216.367,51.2z"/>
	</g>
</g>
<g>
</g>
<g>
</g>
<g>
</g>
<g>
</g>
<g>
</g>
<g>
</g>
<g>
</g>
<g>
</g>
<g>
</g>
<g>
</g>
<g>
</g>
<g>
</g>
<g>
</g>
<g>
</g>
<g>
</g>
</svg>
