<?xml version="1.0" encoding="iso-8859-1"?>
<!-- Generator: Adobe Illustrator 19.0.0, SVG Export Plug-In . SVG Version: 6.00 Build 0)  -->
<svg version="1.1" id="Capa_1" xmlns="http://www.w3.org/2000/svg" xmlns:xlink="http://www.w3.org/1999/xlink" x="0px" y="0px"
	 viewBox="0 0 512 512" style="enable-background:new 0 0 512 512;" xml:space="preserve">
<g>
	<g transform="translate(1 1)">
		<polygon style="fill:#C52828;" points="468.333,255 41.667,255 118.467,75.8 391.533,75.8 		"/>
		<polygon style="fill:#F44335;" points="442.733,255 41.667,255 118.467,75.8 365.933,75.8 		"/>
		<path style="fill:#607D8B;" d="M314.733,75.8H195.267l21.419-57.173c2.527-6.669,8.911-11.083,16.043-11.093h44.544
			c7.132,0.01,13.516,4.424,16.043,11.093L314.733,75.8z"/>
		<path style="fill:#F57C00;" d="M502.467,297.667V485.4c-0.028,9.414-7.653,17.039-17.067,17.067H24.6
			c-9.414-0.028-17.039-7.653-17.067-17.067V297.667H502.467z"/>
		<path style="fill:#FF9801;" d="M476.867,297.667V485.4c-0.028,9.414-7.653,17.039-17.067,17.067H24.6
			c-9.414-0.028-17.039-7.653-17.067-17.067V297.667H476.867z"/>
		<path style="fill:#C52828;" d="M502.467,297.667H7.533l12.8-31.915c2.569-6.475,8.821-10.733,15.787-10.752h437.76
			c6.966,0.019,13.218,4.277,15.787,10.752L502.467,297.667z"/>
		<path style="fill:#F44335;" d="M476.867,297.667H7.533l12.8-31.915c2.569-6.475,8.821-10.733,15.787-10.752h412.16
			c6.966,0.019,13.218,4.277,15.787,10.752L476.867,297.667z"/>
		<path style="fill:#CFD8DC;" d="M127,365.933h256c9.426,0,17.067,7.641,17.067,17.067v68.267c0,9.426-7.641,17.067-17.067,17.067
			H127c-9.426,0-17.067-7.641-17.067-17.067V383C109.933,373.574,117.574,365.933,127,365.933z"/>
		<path style="fill:#F4F4F4;" d="M127,365.933h230.4c9.426,0,17.067,7.641,17.067,17.067v68.267c0,9.426-7.641,17.067-17.067,17.067
			H127c-9.426,0-17.067-7.641-17.067-17.067V383C109.933,373.574,117.574,365.933,127,365.933z"/>
		<path style="fill:#FFEB3A;" d="M400.067,348.867V383c-0.027-9.414-7.652-17.039-17.067-17.067H127
			c-9.414,0.027-17.039,7.652-17.067,17.067v-34.133c0.028-9.414,7.652-17.039,17.067-17.067h256
			C392.414,331.828,400.039,339.452,400.067,348.867z"/>
		<circle style="fill:#F4F4F4;" cx="58.733" cy="417.133" r="17.067"/>
		<path style="fill:#CFD8DC;" d="M365.191,212.333H144.809c-5.419,0.156-10.595-2.247-13.973-6.487s-4.563-9.823-3.199-15.07
			l16.99-59.733c2.282-7.551,9.285-12.68,17.173-12.576H348.2c7.887-0.103,14.89,5.026,17.172,12.576l16.99,59.733
			c1.364,5.247,0.179,10.829-3.199,15.069C375.786,210.086,370.61,212.489,365.191,212.333z"/>
		<g>
			<path style="fill:#F44335;" d="M169.411,29.037L152.6,75.8h-34.133l20.736-57.685c2.325-6.34,8.351-10.562,15.104-10.581h0.085
				c5.222,0.011,10.11,2.567,13.1,6.848C170.482,18.662,171.198,24.131,169.411,29.037z"/>
			<path style="fill:#F44335;" d="M391.533,75.8H357.4l-16.811-46.763c-1.787-4.906-1.071-10.376,1.919-14.656
				c2.99-4.281,7.878-6.836,13.1-6.848h0.085c6.753,0.019,12.779,4.241,15.104,10.581L391.533,75.8z"/>
		</g>
		<path style="fill:#CFD8DC;" d="M75.8,383v34.133c0-9.426-7.641-17.067-17.067-17.067s-17.067,7.641-17.067,17.067V383
			c0-9.426,7.641-17.067,17.067-17.067S75.8,373.574,75.8,383z"/>
		<circle style="fill:#F4F4F4;" cx="451.267" cy="417.133" r="17.067"/>
		<path style="fill:#CFD8DC;" d="M468.333,383v34.133c0-9.426-7.641-17.067-17.067-17.067s-17.067,7.641-17.067,17.067V383
			c0-9.426,7.641-17.067,17.067-17.067S468.333,373.574,468.333,383z"/>
	</g>
	<g>
		<path d="M511.392,295.496l-12.775-31.938c-3.848-9.699-13.22-16.071-23.654-16.083L400.488,73.7l-20.683-57.45
			c-4.636-12.725-18.688-19.307-31.431-14.722s-19.382,18.61-14.848,31.372l12.733,35.367h-24.61l-19.373-51.654
			C298.501,6.642,288.966,0.033,278.304,0h-44.608c-10.662,0.034-20.198,6.642-23.975,16.613l-19.369,51.654h-24.609L178.475,32.9
			c4.534-12.762-2.104-26.787-14.848-31.372s-26.796,1.997-31.431,14.722L111.512,73.7L37.037,247.475
			c-10.434,0.011-19.807,6.384-23.654,16.083L0.608,295.496c-0.344,0.911-0.528,1.875-0.543,2.849C0.06,298.458,0,298.553,0,298.667
			V486.4c0.015,14.132,11.468,25.585,25.6,25.6h460.8c14.132-0.015,25.585-11.468,25.6-25.6V298.667c0-0.114-0.06-0.209-0.065-0.322
			C511.919,297.371,511.736,296.407,511.392,295.496z M349.583,27.117c-0.843-2.298-0.498-4.864,0.921-6.858
			c1.717-2.121,4.415-3.195,7.119-2.832c2.705,0.363,5.025,2.108,6.122,4.607l16.645,46.233h-15.993L349.583,27.117z M225.7,22.608
			c1.26-3.325,4.44-5.53,7.996-5.542h44.608c3.554,0.011,6.733,2.214,7.992,5.538l17.122,45.662h-94.837L225.7,22.608z
			 M148.254,22.033c1.097-2.499,3.417-4.245,6.122-4.607c2.705-0.363,5.403,0.711,7.119,2.832c1.419,1.994,1.764,4.56,0.921,6.858
			l-14.815,41.15h-15.993L148.254,22.033z M125.092,85.333h190.614l0.028,0.004l0.023-0.004h71.152l69.483,162.133H55.608
			L125.092,85.333z M29.233,269.9c1.284-3.249,4.427-5.379,7.921-5.367h437.692c3.493-0.012,6.637,2.118,7.921,5.367l8.096,20.233
			H21.137L29.233,269.9z M494.933,486.4c-0.006,4.71-3.823,8.527-8.533,8.533H25.6c-4.71-0.006-8.527-3.823-8.533-8.533V307.2
			h477.867V486.4z"/>
		<path d="M128,477.867h256c14.132-0.015,25.585-11.468,25.6-25.6v-102.4c-0.015-14.132-11.468-25.585-25.6-25.6H128
			c-14.132,0.015-25.585,11.468-25.6,25.6v102.4C102.415,466.399,113.868,477.851,128,477.867z M392.533,452.267
			c-0.006,4.71-3.823,8.527-8.533,8.533H128c-4.71-0.006-8.527-3.823-8.533-8.533V384c0.006-4.71,3.823-8.527,8.533-8.533h256
			c4.71,0.006,8.527,3.823,8.533,8.533V452.267z M128,341.333h256c4.71,0.006,8.527,3.823,8.533,8.533v10.106
			c-2.733-1.012-5.62-1.544-8.533-1.572H128c-2.914,0.029-5.801,0.561-8.533,1.572v-10.106
			C119.473,345.156,123.29,341.339,128,341.333z"/>
		<path d="M151.125,395.008c-0.429-0.341-0.854-0.683-1.279-1.025c-0.476-0.324-0.993-0.583-1.538-0.771
			c-0.484-0.246-1.002-0.417-1.537-0.508c-1.663-0.348-3.393-0.171-4.95,0.508c-2.139,0.784-3.824,2.469-4.608,4.608
			c-0.437,1.027-0.668,2.13-0.68,3.247c0.018,0.571,0.075,1.141,0.171,1.704c0.091,0.535,0.263,1.053,0.508,1.537
			c0.187,0.544,0.447,1.062,0.771,1.538c0.316,0.447,0.658,0.874,1.025,1.279c0.83,0.752,1.781,1.358,2.813,1.792
			c1.027,0.438,2.13,0.67,3.246,0.683c0.571-0.016,1.141-0.073,1.704-0.171c0.535-0.095,1.053-0.268,1.537-0.513
			c0.544-0.187,1.062-0.447,1.538-0.771c0.425-0.338,0.85-0.679,1.279-1.021c0.366-0.405,0.707-0.833,1.021-1.279
			c0.324-0.476,0.583-0.993,0.771-1.538c0.245-0.485,0.418-1.003,0.513-1.537c0.094-0.564,0.151-1.133,0.171-1.704
			c-0.013-1.116-0.245-2.219-0.683-3.246C152.483,396.789,151.877,395.838,151.125,395.008z"/>
		<path d="M151.125,429.141c-2.453-2.425-6.125-3.133-9.304-1.796c-2.139,0.784-3.824,2.469-4.608,4.608
			c-0.437,1.027-0.668,2.13-0.68,3.247c0.014,0.572,0.071,1.141,0.171,1.704c0.091,0.535,0.263,1.053,0.508,1.537
			c0.187,0.544,0.447,1.062,0.771,1.538c0.316,0.447,0.658,0.874,1.025,1.279c0.83,0.752,1.781,1.358,2.813,1.792
			c1.027,0.438,2.13,0.67,3.246,0.683c0.571-0.016,1.141-0.073,1.704-0.171c0.535-0.095,1.053-0.268,1.537-0.513
			c0.544-0.187,1.062-0.447,1.538-0.771c0.929-0.585,1.715-1.371,2.3-2.3c0.324-0.476,0.583-0.993,0.771-1.538
			c0.245-0.485,0.418-1.003,0.513-1.537c0.098-0.563,0.155-1.133,0.171-1.704c-0.013-1.116-0.245-2.219-0.683-3.246
			C152.483,430.922,151.877,429.971,151.125,429.141z"/>
		<path d="M185.259,395.008c-2.072-1.966-4.958-2.822-7.767-2.304c-0.535,0.091-1.053,0.263-1.537,0.508
			c-0.543,0.188-1.058,0.448-1.533,0.771c-0.429,0.341-0.854,0.683-1.279,1.025c-0.754,0.828-1.362,1.78-1.796,2.813
			c-0.437,1.027-0.668,2.13-0.68,3.246c0.014,0.572,0.071,1.141,0.171,1.704c0.091,0.535,0.263,1.053,0.508,1.537
			c0.187,0.544,0.447,1.062,0.771,1.538c0.316,0.447,0.658,0.874,1.025,1.279c0.404,0.368,0.831,0.709,1.279,1.021
			c0.475,0.323,0.991,0.582,1.533,0.771c0.485,0.245,1.003,0.418,1.537,0.512c0.565,0.098,1.136,0.155,1.709,0.171
			c2.259-0.034,4.422-0.918,6.059-2.475c0.341-0.429,0.683-0.854,1.021-1.279c0.324-0.476,0.583-0.993,0.771-1.538
			c0.245-0.485,0.418-1.003,0.513-1.537c0.098-0.563,0.155-1.133,0.17-1.705c-0.013-1.116-0.245-2.219-0.683-3.246
			C186.616,396.789,186.01,395.838,185.259,395.008z"/>
		<path d="M185.259,429.141c-0.816-0.772-1.772-1.382-2.817-1.796c-3.183-1.285-6.824-0.582-9.301,1.796
			c-0.754,0.828-1.362,1.78-1.796,2.813c-0.436,1.027-0.667,2.13-0.679,3.246c0.032,2.259,0.916,4.423,2.475,6.059
			c0.425,0.341,0.85,0.683,1.279,1.021c0.475,0.323,0.991,0.582,1.533,0.771c0.485,0.245,1.003,0.418,1.537,0.512
			c0.565,0.098,1.136,0.155,1.709,0.171c1.119,0.029,2.229-0.205,3.242-0.683c1.044-0.414,1.999-1.022,2.817-1.792
			c1.557-1.637,2.441-3.799,2.475-6.058c-0.013-1.116-0.245-2.219-0.683-3.246C186.616,430.922,186.01,429.971,185.259,429.141z"/>
		<path d="M219.392,395.008c-0.429-0.341-0.854-0.683-1.279-1.025c-0.476-0.324-0.993-0.583-1.538-0.771
			c-0.484-0.246-1.002-0.417-1.537-0.508c-1.123-0.258-2.29-0.258-3.413,0c-0.535,0.091-1.053,0.263-1.537,0.508
			c-0.543,0.188-1.058,0.448-1.533,0.771c-0.429,0.341-0.854,0.683-1.279,1.025c-0.773,0.814-1.383,1.769-1.796,2.813
			c-0.437,1.027-0.668,2.13-0.68,3.246c-0.022,2.27,0.87,4.453,2.475,6.058c1.605,1.605,3.788,2.497,6.058,2.475
			c0.571-0.02,1.14-0.077,1.704-0.171c0.535-0.095,1.053-0.268,1.537-0.513c0.544-0.187,1.062-0.447,1.538-0.771
			c0.447-0.314,0.874-0.655,1.279-1.021c1.557-1.637,2.441-3.8,2.475-6.059c-0.013-1.116-0.245-2.219-0.683-3.246
			C220.77,396.778,220.162,395.823,219.392,395.008z"/>
		<path d="M218.113,428.117c-0.476-0.324-0.993-0.583-1.538-0.771c-0.484-0.246-1.002-0.417-1.537-0.508
			c-3.198-0.67-6.498,0.544-8.499,3.126c-2.002,2.582-2.355,6.08-0.909,9.01c1.446,2.93,4.437,4.778,7.704,4.76
			c0.571-0.02,1.14-0.077,1.704-0.171c0.535-0.095,1.053-0.268,1.537-0.513c0.544-0.187,1.062-0.447,1.538-0.771
			c0.425-0.337,0.85-0.679,1.279-1.021c3.3-3.365,3.3-8.752,0-12.117C218.963,428.8,218.537,428.459,218.113,428.117z"/>
		<path d="M253.525,395.008c-2.044-1.953-4.898-2.809-7.679-2.304c-0.566,0.078-1.115,0.25-1.625,0.508
			c-0.543,0.188-1.058,0.448-1.533,0.771c-0.448,0.314-0.876,0.656-1.28,1.025c-0.773,0.814-1.383,1.769-1.796,2.813
			c-0.436,1.027-0.667,2.13-0.679,3.246c0.032,2.259,0.916,4.423,2.475,6.059c0.425,0.341,0.85,0.683,1.279,1.021
			c0.475,0.323,0.991,0.582,1.533,0.771c0.51,0.258,1.059,0.431,1.625,0.512c0.535,0.098,1.077,0.155,1.621,0.171
			c2.27,0.022,4.453-0.87,6.058-2.475c1.605-1.605,2.497-3.788,2.475-6.058c-0.013-1.116-0.245-2.219-0.683-3.246
			C254.904,396.778,254.296,395.823,253.525,395.008z"/>
		<path d="M253.525,429.141c-2.044-1.953-4.898-2.809-7.679-2.304c-0.566,0.078-1.115,0.25-1.625,0.508
			c-0.543,0.188-1.058,0.448-1.533,0.771c-0.429,0.341-0.854,0.683-1.279,1.025c-0.773,0.814-1.383,1.769-1.796,2.813
			c-0.437,1.027-0.668,2.13-0.68,3.246c0.032,2.259,0.916,4.423,2.475,6.059c0.425,0.341,0.85,0.683,1.279,1.021
			c0.475,0.323,0.991,0.582,1.533,0.771c0.51,0.258,1.059,0.431,1.625,0.512c0.535,0.098,1.077,0.155,1.621,0.171
			c2.27,0.022,4.453-0.87,6.058-2.475c1.605-1.605,2.497-3.788,2.475-6.058c-0.013-1.116-0.245-2.219-0.683-3.246
			C254.883,430.922,254.277,429.971,253.525,429.141z"/>
		<path d="M278.354,393.213c-1.033,0.434-1.984,1.041-2.813,1.796c-1.559,1.635-2.443,3.799-2.475,6.059
			c0.012,1.115,0.243,2.216,0.679,3.242c0.414,1.045,1.023,2.001,1.796,2.817c0.83,0.752,1.781,1.358,2.813,1.792
			c1.014,0.479,2.126,0.713,3.246,0.683c2.259-0.034,4.422-0.918,6.059-2.475c0.77-0.817,1.378-1.773,1.792-2.817
			c0.478-1.012,0.712-2.123,0.683-3.242c-0.033-2.259-0.917-4.422-2.475-6.059C285.205,392.583,281.533,391.875,278.354,393.213z"/>
		<path d="M278.354,427.346c-1.033,0.434-1.984,1.041-2.813,1.796c-1.559,1.635-2.443,3.799-2.475,6.059
			c0.018,0.571,0.075,1.141,0.171,1.704c0.091,0.535,0.263,1.053,0.508,1.537c0.187,0.544,0.447,1.062,0.771,1.538
			c0.341,0.425,0.683,0.85,1.025,1.279c0.83,0.752,1.781,1.358,2.813,1.792c1.027,0.438,2.13,0.67,3.246,0.683
			c2.259-0.034,4.422-0.918,6.059-2.475c0.366-0.405,0.707-0.833,1.021-1.279c0.324-0.476,0.583-0.993,0.771-1.538
			c0.245-0.485,0.418-1.003,0.512-1.537c0.094-0.564,0.151-1.133,0.171-1.705c-0.033-2.259-0.917-4.422-2.475-6.059
			C285.182,426.762,281.539,426.059,278.354,427.346z"/>
		<path d="M320.513,393.983c-0.476-0.324-0.993-0.583-1.538-0.771c-0.484-0.246-1.002-0.417-1.537-0.508
			c-2.809-0.562-5.715,0.301-7.763,2.304c-2.461,2.441-3.201,6.129-1.872,9.331c1.329,3.202,4.464,5.281,7.93,5.261
			c0.571-0.02,1.14-0.077,1.704-0.171c0.535-0.095,1.053-0.268,1.537-0.513c0.544-0.187,1.062-0.447,1.538-0.771
			c0.425-0.338,0.85-0.679,1.279-1.021c3.3-3.365,3.3-8.752,0-12.117C321.363,394.667,320.937,394.325,320.513,393.983z"/>
		<path d="M323.583,431.954c-0.188-0.543-0.448-1.058-0.771-1.533c-0.338-0.429-0.679-0.854-1.021-1.279
			c-3.421-3.158-8.695-3.158-12.117,0c-0.341,0.425-0.683,0.85-1.025,1.279c-0.323,0.475-0.582,0.991-0.771,1.533
			c-0.246,0.484-0.417,1.002-0.508,1.537c-0.096,0.565-0.153,1.136-0.171,1.708c-0.022,2.27,0.87,4.453,2.475,6.058
			c1.605,1.605,3.788,2.497,6.058,2.475c0.571-0.02,1.14-0.077,1.704-0.171c0.535-0.095,1.053-0.268,1.537-0.513
			c0.544-0.187,1.062-0.447,1.538-0.771c0.425-0.337,0.85-0.679,1.279-1.021c1.557-1.637,2.441-3.8,2.475-6.059
			c-0.02-0.573-0.077-1.143-0.171-1.708C324.001,432.957,323.828,432.439,323.583,431.954z"/>
		<path d="M366.933,409.6h-17.067c-4.713,0-8.533,3.82-8.533,8.533s3.821,8.533,8.533,8.533h17.067c4.713,0,8.533-3.82,8.533-8.533
			S371.646,409.6,366.933,409.6z"/>
		<path d="M59.733,443.733c14.132-0.015,25.585-11.468,25.6-25.6V384c0-14.138-11.462-25.6-25.6-25.6s-25.6,11.462-25.6,25.6v34.133
			C34.149,432.265,45.601,443.718,59.733,443.733z M59.733,426.667c-4.713,0-8.533-3.82-8.533-8.533s3.821-8.533,8.533-8.533
			s8.533,3.82,8.533,8.533C68.261,422.844,64.444,426.661,59.733,426.667z M59.733,375.467c4.71,0.006,8.527,3.823,8.533,8.533
			v10.106c-5.496-2.097-11.571-2.097-17.067,0V384C51.206,379.29,55.023,375.473,59.733,375.467z"/>
		<path d="M264.533,34.133h-17.067c-4.713,0-8.533,3.821-8.533,8.533s3.821,8.533,8.533,8.533h17.067
			c4.713,0,8.533-3.821,8.533-8.533S269.246,34.133,264.533,34.133z"/>
		<path d="M391.571,189.442l-16.992-59.729c-3.341-11.208-13.684-18.862-25.379-18.779H162.8
			c-11.694-0.083-22.037,7.569-25.379,18.775l-16.992,59.733c-2.17,7.57-0.63,15.72,4.154,21.975
			c5.023,6.645,12.895,10.521,21.225,10.45h220.383c8.33,0.071,16.202-3.805,21.225-10.45
			C392.201,205.162,393.741,197.011,391.571,189.442z M373.8,201.129c-1.813,2.358-4.634,3.72-7.608,3.671H145.808
			c-2.974,0.049-5.796-1.313-7.608-3.671c-1.547-1.99-2.05-4.599-1.354-7.021l16.992-59.738c1.242-3.878,4.892-6.472,8.963-6.371
			h186.4c4.072-0.101,7.723,2.495,8.962,6.375l16.992,59.733C375.85,196.531,375.347,199.139,373.8,201.129z"/>
		<path d="M452.267,443.733c14.132-0.015,25.585-11.468,25.6-25.6V384c0-14.138-11.462-25.6-25.6-25.6s-25.6,11.462-25.6,25.6
			v34.133C426.682,432.265,438.135,443.718,452.267,443.733z M452.267,426.667c-4.713,0-8.533-3.82-8.533-8.533
			s3.82-8.533,8.533-8.533s8.533,3.82,8.533,8.533C460.794,422.844,456.977,426.661,452.267,426.667z M452.267,375.467
			c4.71,0.006,8.527,3.823,8.533,8.533v10.106c-5.496-2.097-11.571-2.097-17.067,0V384
			C443.739,379.29,447.556,375.473,452.267,375.467z"/>
	</g>
</g>
<g>
</g>
<g>
</g>
<g>
</g>
<g>
</g>
<g>
</g>
<g>
</g>
<g>
</g>
<g>
</g>
<g>
</g>
<g>
</g>
<g>
</g>
<g>
</g>
<g>
</g>
<g>
</g>
<g>
</g>
</svg>
