<?xml version="1.0" encoding="iso-8859-1"?>
<!-- Generator: Adobe Illustrator 19.0.0, SVG Export Plug-In . SVG Version: 6.00 Build 0)  -->
<svg version="1.1" id="Capa_1" xmlns="http://www.w3.org/2000/svg" xmlns:xlink="http://www.w3.org/1999/xlink" x="0px" y="0px"
	 viewBox="0 0 512 512" style="enable-background:new 0 0 512 512;" xml:space="preserve">
<g>
	<g transform="translate(1 1)">
		<path style="fill:#1566C0;" d="M502.467,229.4v179.2c0.009,6.792-2.685,13.309-7.488,18.112s-11.32,7.497-18.112,7.488H33.133
			c-6.792,0.009-13.309-2.685-18.112-7.488s-7.497-11.32-7.488-18.112V229.4l59.051-125.44
			c5.606-11.991,17.654-19.645,30.891-19.627H152.6l17.067-25.6l11.349-17.067l12.629-18.944
			c6.339-9.493,17.001-15.192,28.416-15.189h65.877c11.415-0.003,22.077,5.696,28.416,15.189l6.912,10.411L334.701,50.2
			L357.4,84.333h55.125c13.237-0.019,25.284,7.636,30.891,19.627L502.467,229.4z"/>
		<path style="fill:#2296F3;" d="M476.867,229.4v179.2c0.009,6.792-2.685,13.309-7.488,18.112s-11.32,7.497-18.112,7.488H33.133
			c-6.792,0.009-13.309-2.685-18.112-7.488s-7.497-11.32-7.488-18.112V229.4l59.051-125.44
			c5.606-11.991,17.654-19.645,30.891-19.627H152.6l17.067-25.6l11.349-17.067l12.629-18.944
			c6.339-9.493,17.001-15.192,28.416-15.189h40.277c11.415-0.003,22.077,5.696,28.416,15.189l6.912,10.411L309.101,50.2
			L331.8,84.333h55.125c13.237-0.019,25.284,7.636,30.891,19.627L476.867,229.4z"/>
		<path style="fill:#1566C0;" d="M357.4,84.333H152.6l17.067-25.6l11.349-17.067l12.629-18.944
			c6.339-9.493,17.001-15.192,28.416-15.189h65.877c11.415-0.003,22.077,5.696,28.416,15.189l6.912,10.411L334.701,50.2
			L357.4,84.333z"/>
		<path style="fill:#2296F3;" d="M331.8,84.333H152.6l17.067-25.6l11.349-17.067l12.629-18.944
			c6.339-9.493,17.001-15.192,28.416-15.189h40.277c11.415-0.003,22.077,5.696,28.416,15.189l6.912,10.411L309.101,50.2
			L331.8,84.333z"/>
		<path style="fill:#1566C0;" d="M502.467,229.4H7.533l59.051-125.44c5.606-11.991,17.654-19.645,30.891-19.627h315.051
			c13.237-0.019,25.284,7.636,30.891,19.627L502.467,229.4z"/>
		<path style="fill:#2296F3;" d="M476.867,229.4H7.533l59.051-125.44c5.606-11.991,17.654-19.645,30.891-19.627h289.451
			c13.237-0.019,25.284,7.636,30.891,19.627L476.867,229.4z"/>
		<path style="fill:#37474F;" d="M459.8,383H50.2l32.171-96.597c1.203-3.454,4.449-5.777,8.107-5.803h329.045
			c3.657,0.025,6.904,2.349,8.107,5.803L459.8,383z"/>
		<path style="fill:#607D8B;" d="M434.2,383h-384l32.171-96.597c1.203-3.454,4.449-5.777,8.107-5.803h303.445
			c3.657,0.025,6.904,2.349,8.107,5.803L434.2,383z"/>
		<polygon style="fill:#37474F;" points="459.8,383 459.8,442.733 400.067,502.467 50.2,502.467 50.2,383 		"/>
		<polygon style="fill:#607D8B;" points="434.2,383 434.2,434.2 365.933,502.467 50.2,502.467 50.2,383 		"/>
		<g>
			<polygon style="fill:#CFD8DC;" points="152.6,314.733 144.067,348.867 186.733,348.867 186.733,314.733 			"/>
			<polygon style="fill:#CFD8DC;" points="357.4,314.733 365.933,348.867 323.267,348.867 323.267,314.733 			"/>
		</g>
	</g>
	<g>
		<path d="M145.067,443.733c0,4.713,3.82,8.533,8.533,8.533s8.533-3.821,8.533-8.533H179.2c0,4.713,3.821,8.533,8.533,8.533
			c4.713,0,8.533-3.821,8.533-8.533h17.067c0,4.713,3.821,8.533,8.533,8.533c4.713,0,8.533-3.821,8.533-8.533h17.067
			c0,4.713,3.821,8.533,8.533,8.533c4.713,0,8.533-3.821,8.533-8.533H281.6c0,4.713,3.821,8.533,8.533,8.533
			c4.713,0,8.533-3.821,8.533-8.533h17.067c0,4.713,3.821,8.533,8.533,8.533s8.533-3.821,8.533-8.533h17.067
			c0,4.713,3.82,8.533,8.533,8.533s8.533-3.821,8.533-8.533H384V460.8c0,4.713,3.82,8.533,8.533,8.533s8.533-3.82,8.533-8.533v-25.6
			c0-4.713-3.82-8.533-8.533-8.533H119.467c-4.713,0-8.533,3.82-8.533,8.533v25.6c0,4.713,3.821,8.533,8.533,8.533
			c4.713,0,8.533-3.82,8.533-8.533v-17.067H145.067z"/>
		<path d="M511.631,228.572c-0.08-0.56-0.215-1.112-0.404-1.645c-0.023-0.052-0.015-0.108-0.04-0.16l-59.042-125.471
			c-7.075-14.922-22.094-24.452-38.608-24.496h-50.571L324.433,19c-7.902-11.882-21.23-19.016-35.5-19h-65.867
			c-14.27-0.016-27.598,7.118-35.5,19l-38.533,57.8H98.462c-16.515,0.044-31.535,9.576-38.608,24.5L0.812,226.767
			c-0.024,0.052-0.016,0.108-0.04,0.16c-0.189,0.534-0.324,1.085-0.404,1.645c-0.167,0.543-0.28,1.101-0.336,1.666
			C0.032,230.295,0,230.343,0,230.4v179.2c0.022,18.842,15.291,34.112,34.133,34.133h8.533v59.733c0,4.713,3.821,8.533,8.533,8.533
			h349.867c2.262-0.013,4.428-0.912,6.036-2.503l59.728-59.728c1.591-1.608,2.489-3.774,2.503-6.036h8.533
			c18.842-0.022,34.112-15.291,34.133-34.133V230.4c0-0.057-0.032-0.105-0.033-0.162
			C511.91,229.673,511.798,229.115,511.631,228.572z M180.922,59.733h32.411c4.713,0,8.533-3.821,8.533-8.533
			s-3.821-8.533-8.533-8.533H192.3l9.467-14.2c4.741-7.129,12.738-11.409,21.3-11.4h65.867c8.562-0.009,16.559,4.271,21.3,11.4
			l3.778,5.667h-23.878c-4.713,0-8.533,3.821-8.533,8.533s3.821,8.533,8.533,8.533h35.256l17.067,25.6H169.544L180.922,59.733z
			 M75.296,108.571c4.243-8.957,13.256-14.677,23.167-14.704h315.075c9.91,0.027,18.922,5.746,23.167,14.7l53.316,113.3H21.98
			L75.296,108.571z M63.04,375.467l28.443-85.333h329.033l28.443,85.333H63.04z M59.733,392.533h34.133v8.533
			c0,4.713,3.821,8.533,8.533,8.533c4.713,0,8.533-3.82,8.533-8.533v-8.533h25.6v8.533c0,4.713,3.821,8.533,8.533,8.533
			c4.713,0,8.533-3.82,8.533-8.533v-8.533h25.6v8.533c0,4.713,3.821,8.533,8.533,8.533c4.713,0,8.533-3.82,8.533-8.533v-8.533h25.6
			v8.533c0,4.713,3.82,8.533,8.533,8.533s8.533-3.82,8.533-8.533v-8.533h25.6v8.533c0,4.713,3.82,8.533,8.533,8.533
			s8.533-3.82,8.533-8.533v-8.533h25.6v8.533c0,4.713,3.821,8.533,8.533,8.533c4.713,0,8.533-3.82,8.533-8.533v-8.533h25.6v8.533
			c0,4.713,3.82,8.533,8.533,8.533s8.533-3.82,8.533-8.533v-8.533h25.6v8.533c0,4.713,3.82,8.533,8.533,8.533
			s8.533-3.82,8.533-8.533v-8.533h42.667V440.2l-54.733,54.733h-30.6V486.4c0-4.713-3.82-8.533-8.533-8.533s-8.533,3.82-8.533,8.533
			v8.533h-25.6V486.4c0-4.713-3.821-8.533-8.533-8.533c-4.713,0-8.533,3.82-8.533,8.533v8.533h-25.6V486.4
			c0-4.713-3.82-8.533-8.533-8.533s-8.533,3.82-8.533,8.533v8.533h-25.6V486.4c0-4.713-3.821-8.533-8.533-8.533
			s-8.533,3.82-8.533,8.533v8.533h-25.6V486.4c0-4.713-3.821-8.533-8.533-8.533c-4.713,0-8.533,3.82-8.533,8.533v8.533h-25.6V486.4
			c0-4.713-3.821-8.533-8.533-8.533c-4.713,0-8.533,3.82-8.533,8.533v8.533h-76.8V392.533z M494.933,409.6
			c-0.009,9.422-7.645,17.057-17.067,17.067h-8.533V384c-0.215-0.888-0.361-1.79-0.438-2.7l-32.188-96.567
			c-2.32-6.971-8.844-11.673-16.191-11.667H91.483c-7.347-0.006-13.872,4.695-16.192,11.667L43.104,381.3
			c-0.076,0.91-0.223,1.813-0.437,2.7v42.667h-8.533c-9.422-0.009-17.057-7.645-17.067-17.067V238.933h477.867V409.6z"/>
		<path d="M187.733,307.2H153.6c-3.915,0-7.328,2.664-8.279,6.462l-8.533,34.133c-0.636,2.549-0.063,5.25,1.554,7.321
			s4.098,3.282,6.725,3.283h42.667c4.713,0,8.533-3.821,8.533-8.533v-34.133C196.267,311.021,192.446,307.2,187.733,307.2z
			 M179.2,341.333h-23.204l4.267-17.067H179.2V341.333z"/>
		<path d="M366.679,313.663c-0.951-3.798-4.364-6.462-8.279-6.462h-34.133c-4.713,0-8.533,3.82-8.533,8.533v34.133
			c0,4.713,3.821,8.533,8.533,8.533h42.667c2.628-0.001,5.108-1.212,6.725-3.283s2.19-4.771,1.554-7.321L366.679,313.663z
			 M332.8,341.333v-17.067h18.938l4.267,17.067H332.8z"/>
		<path d="M110.783,324.704c-2.147-0.717-4.491-0.55-6.515,0.463c-2.024,1.013-3.563,2.789-4.276,4.937l-5.687,17.067
			c-0.972,2.895-0.323,6.088,1.702,8.374c2.025,2.286,5.116,3.315,8.107,2.7c2.991-0.616,5.425-2.782,6.382-5.682l5.687-17.067
			c0.716-2.147,0.549-4.491-0.463-6.515C114.707,326.957,112.931,325.418,110.783,324.704z"/>
		<path d="M412.008,330.104c-0.958-2.899-3.392-5.066-6.382-5.682c-2.991-0.616-6.083,0.414-8.107,2.7s-2.674,5.479-1.702,8.374
			l5.687,17.067c0.958,2.899,3.392,5.066,6.382,5.682s6.083-0.414,8.107-2.7s2.674-5.479,1.702-8.374L412.008,330.104z"/>
	</g>
</g>
<g>
</g>
<g>
</g>
<g>
</g>
<g>
</g>
<g>
</g>
<g>
</g>
<g>
</g>
<g>
</g>
<g>
</g>
<g>
</g>
<g>
</g>
<g>
</g>
<g>
</g>
<g>
</g>
<g>
</g>
</svg>
