<?xml version="1.0" encoding="iso-8859-1"?>
<!-- Generator: Adobe Illustrator 19.0.0, SVG Export Plug-In . SVG Version: 6.00 Build 0)  -->
<svg version="1.1" id="Capa_1" xmlns="http://www.w3.org/2000/svg" xmlns:xlink="http://www.w3.org/1999/xlink" x="0px" y="0px"
	 viewBox="0 0 512 512" style="enable-background:new 0 0 512 512;" xml:space="preserve">
<g>
	<g transform="translate(1 1)">
		<path style="fill:#009688;" d="M476.099,152.6h-7.765l8.533,162.133v162.133c0.009,6.792-2.685,13.309-7.488,18.112
			c-4.803,4.803-11.32,7.497-18.112,7.488H58.734c-6.792,0.009-13.309-2.685-18.112-7.488s-7.497-11.32-7.488-18.112V314.733
			L41.667,152.6h-7.765c-2.388,0.013-4.672-0.978-6.295-2.73c-1.623-1.752-2.435-4.106-2.239-6.486l7.083-85.333
			c0.394-4.426,4.09-7.826,8.533-7.851h51.883c4.707,0.014,8.519,3.826,8.533,8.533v85.333c-0.014,4.707-3.826,8.519-8.533,8.533
			v85.333l41.472-76.117c5.998-10.938,17.478-17.74,29.952-17.749h22.443l9.984-19.968c4.327-8.67,13.179-14.154,22.869-14.165h1.28
			l17.067-102.4h34.133l17.067,102.4h1.28c9.69,0.012,18.543,5.495,22.869,14.165l9.984,19.968h22.443
			c12.474,0.009,23.954,6.812,29.952,17.749l41.472,76.117V152.6c-4.707-0.014-8.519-3.826-8.533-8.533V58.733
			c0.014-4.707,3.826-8.519,8.533-8.533h51.883c4.443,0.024,8.139,3.425,8.533,7.851l7.083,85.333
			c0.196,2.38-0.616,4.733-2.239,6.486C480.771,151.622,478.487,152.613,476.099,152.6z"/>
		<path style="fill:#00695C;" d="M476.867,314.733v162.133c0.009,6.792-2.685,13.309-7.488,18.112
			c-4.803,4.803-11.32,7.497-18.112,7.488H58.734c-6.792,0.009-13.309-2.685-18.112-7.488c-4.803-4.803-7.497-11.32-7.488-18.112
			l0-162.133H476.867z"/>
		<path style="fill:#009688;" d="M451.267,314.733v162.133c0.009,6.792-2.685,13.309-7.488,18.112
			c-4.803,4.803-11.32,7.497-18.112,7.488H58.734c-6.792,0.009-13.309-2.685-18.112-7.488c-4.803-4.803-7.497-11.32-7.488-18.112
			l0-162.133H451.267z"/>
		<g>
			<path style="fill:#FFEB3A;" d="M336.674,459.8H173.327c-8.472,0.09-15.78-5.929-17.314-14.261l-11.702-68.267
				c-0.783-5.022,0.693-10.134,4.032-13.966c3.339-3.832,8.2-5.994,13.282-5.906h186.751c5.082-0.087,9.943,2.074,13.282,5.906
				c3.339,3.832,4.815,8.944,4.032,13.966l-11.702,68.267C352.453,453.871,345.145,459.89,336.674,459.8z"/>
			<circle style="fill:#FFEB3A;" cx="92.867" cy="400.067" r="17.067"/>
			<circle style="fill:#FFEB3A;" cx="417.134" cy="400.067" r="17.067"/>
		</g>
		<polygon style="fill:#009688;" points="92.867,314.733 33.134,314.733 41.667,152.6 92.867,152.6 		"/>
		<path style="fill:#00695C;" d="M101.4,58.733v85.333c-0.014,4.707-3.826,8.519-8.533,8.533H33.902
			c-2.388,0.013-4.672-0.978-6.295-2.73c-1.623-1.752-2.435-4.106-2.239-6.486l7.083-85.333c0.394-4.426,4.09-7.826,8.533-7.851
			h51.883C97.574,50.214,101.386,54.026,101.4,58.733z"/>
		<polygon style="fill:#009688;" points="476.867,314.733 417.134,314.733 417.134,152.6 468.334,152.6 		"/>
		<polygon style="fill:#607D8B;" points="220.867,109.933 237.934,7.533 272.067,7.533 289.134,109.933 		"/>
		<path style="fill:#00695C;" d="M484.632,143.384c0.196,2.38-0.616,4.733-2.239,6.486c-1.623,1.752-3.907,2.743-6.295,2.73h-58.965
			c-4.707-0.014-8.519-3.826-8.533-8.533V58.733c0.014-4.707,3.826-8.519,8.533-8.533h51.883c4.443,0.024,8.139,3.425,8.533,7.851
			L484.632,143.384z"/>
		<path style="fill:#607D8B;" d="M186.734,144.067l9.991-19.982c4.336-8.673,13.201-14.151,22.897-14.151h70.757
			c9.697,0,18.561,5.478,22.897,14.151l9.991,19.982H186.734z"/>
		<path style="fill:#00695C;" d="M417.134,237.933v76.8h-25.6v-76.8l-41.472-76.117c-5.998-10.938-17.478-17.74-29.952-17.749h25.6
			c12.474,0.009,23.954,6.812,29.952,17.749L417.134,237.933z"/>
	</g>
	<g>
		<path d="M349.375,349.867h-186.75c-7.744-0.027-15.103,3.371-20.105,9.283c-4.817,5.688-6.876,13.214-5.625,20.563l11.704,68.263
			c2.206,12.448,13.084,21.479,25.725,21.358h163.35c12.64,0.121,23.517-8.908,25.725-21.354l11.704-68.267
			c1.251-7.348-0.808-14.874-5.625-20.563C364.478,353.238,357.119,349.84,349.375,349.867z M346.575,445.1
			c-0.82,4.241-4.582,7.27-8.9,7.167h-163.35c-4.32,0.104-8.083-2.928-8.9-7.171l-11.704-68.267
			c-0.417-2.391,0.262-4.844,1.85-6.679c1.761-2.062,4.343-3.239,7.054-3.217h186.75c2.711-0.022,5.293,1.155,7.054,3.217
			c1.588,1.836,2.267,4.288,1.85,6.679L346.575,445.1z"/>
		<path d="M93.867,375.467c-14.138,0-25.6,11.462-25.6,25.6c0,14.138,11.462,25.6,25.6,25.6s25.6-11.462,25.6-25.6
			C119.451,386.935,107.999,375.482,93.867,375.467z M93.867,409.6c-4.713,0-8.533-3.821-8.533-8.533s3.82-8.533,8.533-8.533
			c4.713,0,8.533,3.82,8.533,8.533C102.394,405.777,98.577,409.594,93.867,409.6z"/>
		<path d="M392.534,401.067c0,14.138,11.462,25.6,25.6,25.6s25.6-11.462,25.6-25.6c0-14.138-11.462-25.6-25.6-25.6
			C404.001,375.482,392.549,386.935,392.534,401.067z M426.667,401.067c0,4.713-3.82,8.533-8.533,8.533s-8.533-3.821-8.533-8.533
			s3.82-8.533,8.533-8.533C422.844,392.539,426.661,396.356,426.667,401.067z"/>
		<path d="M195.584,389.288c-0.413-1.043-1.021-1.997-1.792-2.813c-2.477-2.379-6.12-3.083-9.304-1.796
			c-1.054,0.393-2.013,1.005-2.813,1.796c-1.559,1.635-2.443,3.799-2.475,6.059c0.018,0.571,0.075,1.141,0.171,1.704
			c0.091,0.535,0.263,1.053,0.508,1.537c0.187,0.544,0.447,1.062,0.771,1.538c0.316,0.447,0.658,0.874,1.025,1.279
			c0.815,0.771,1.77,1.379,2.813,1.792c1.014,0.479,2.126,0.712,3.246,0.683c2.259-0.034,4.422-0.918,6.059-2.475
			c0.366-0.405,0.707-0.833,1.021-1.279c0.324-0.476,0.583-0.993,0.771-1.538c0.245-0.485,0.418-1.003,0.513-1.537
			c0.094-0.564,0.151-1.133,0.17-1.705C196.254,391.417,196.021,390.314,195.584,389.288z"/>
		<path d="M198.742,420.608c-3.313,3.34-3.298,8.73,0.032,12.052c3.331,3.322,8.721,3.322,12.052,0
			c3.331-3.322,3.345-8.712,0.032-12.052C207.431,417.463,202.168,417.463,198.742,420.608z"/>
		<path d="M232.875,420.608c-3.313,3.34-3.298,8.73,0.032,12.052c3.331,3.322,8.721,3.322,12.052,0
			c3.331-3.322,3.345-8.712,0.033-12.052C241.565,417.463,236.302,417.463,232.875,420.608z"/>
		<path d="M267.008,420.608c-3.313,3.34-3.298,8.73,0.032,12.052c3.331,3.322,8.721,3.322,12.052,0
			c3.331-3.322,3.345-8.712,0.032-12.052C275.698,417.463,270.435,417.463,267.008,420.608z"/>
		<path d="M301.142,420.608c-3.313,3.34-3.298,8.73,0.033,12.052c3.331,3.322,8.721,3.322,12.052,0
			c3.331-3.322,3.345-8.712,0.033-12.052C309.831,417.463,304.568,417.463,301.142,420.608z"/>
		<path d="M227.926,386.475c-2.453-2.425-6.125-3.133-9.304-1.796c-1.033,0.434-1.985,1.041-2.813,1.796
			c-0.773,0.814-1.383,1.769-1.796,2.813c-0.436,1.027-0.667,2.13-0.679,3.246c0.018,0.571,0.075,1.141,0.171,1.704
			c0.091,0.535,0.263,1.053,0.508,1.537c0.187,0.544,0.447,1.062,0.771,1.538c0.341,0.425,0.683,0.85,1.025,1.279
			c3.365,3.3,8.752,3.3,12.117,0c0.341-0.429,0.683-0.854,1.021-1.279c0.324-0.476,0.583-0.993,0.771-1.538
			c0.245-0.485,0.418-1.003,0.512-1.537c0.094-0.564,0.151-1.133,0.171-1.704C230.367,390.274,229.483,388.111,227.926,386.475z"/>
		<path d="M262.059,386.475c-0.802-0.79-1.762-1.402-2.817-1.796c-2.079-0.85-4.409-0.85-6.487,0
			c-1.054,0.393-2.013,1.005-2.813,1.796c-0.773,0.814-1.383,1.769-1.796,2.813c-0.436,1.027-0.667,2.13-0.679,3.246
			c0.018,0.571,0.075,1.141,0.171,1.704c0.091,0.535,0.263,1.053,0.508,1.537c0.187,0.544,0.447,1.062,0.771,1.538
			c0.316,0.447,0.658,0.874,1.025,1.279c3.365,3.3,8.752,3.3,12.117,0c0.366-0.405,0.707-0.833,1.021-1.279
			c0.324-0.476,0.583-0.993,0.771-1.538c0.245-0.485,0.418-1.003,0.513-1.537c0.094-0.564,0.151-1.133,0.171-1.705
			C264.5,390.274,263.617,388.111,262.059,386.475z"/>
		<path d="M296.192,386.475c-0.405-0.367-0.833-0.709-1.279-1.025c-0.476-0.324-0.993-0.583-1.538-0.771
			c-0.484-0.246-1.002-0.417-1.537-0.508c-3.198-0.669-6.497,0.544-8.498,3.126c-2.001,2.582-2.354,6.079-0.909,9.009
			c1.445,2.93,4.436,4.778,7.702,4.761c0.571-0.02,1.14-0.077,1.704-0.171c0.535-0.095,1.053-0.268,1.537-0.513
			c0.544-0.187,1.062-0.447,1.538-0.771c0.447-0.314,0.874-0.655,1.28-1.021C299.492,395.227,299.492,389.84,296.192,386.475
			L296.192,386.475z"/>
		<path d="M321.021,384.679c-1.044,0.413-1.999,1.023-2.813,1.796c-3.3,3.365-3.3,8.752,0,12.117
			c0.815,0.771,1.77,1.379,2.813,1.792c1.027,0.438,2.13,0.67,3.246,0.683c2.259-0.034,4.422-0.918,6.059-2.475
			c0.77-0.817,1.378-1.773,1.792-2.817c0.437-1.026,0.669-2.127,0.683-3.242c-0.033-2.259-0.917-4.422-2.475-6.059
			C327.852,384.088,324.205,383.384,321.021,384.679z"/>
		<path d="M33.68,162.008l-8.067,153.275c-0.004,0.076,0.035,0.146,0.033,0.222c-0.002,0.08-0.046,0.147-0.046,0.228v162.133
			c0.022,18.842,15.291,34.112,34.133,34.133h392.533c18.842-0.022,34.112-15.291,34.133-34.133V315.733
			c0-0.081-0.044-0.148-0.046-0.228c-0.002-0.076,0.037-0.146,0.033-0.222l-8.067-153.275c4.553-0.282,8.799-2.39,11.776-5.846
			c2.977-3.456,4.433-7.968,4.037-12.512l-7.113-85.329c-0.778-8.825-8.145-15.607-17.004-15.654h-51.883
			c-9.422,0.009-17.057,7.645-17.067,17.067v85.333c0.019,6.069,3.271,11.669,8.533,14.693v45.705l-25.471-46.698
			c-7.476-13.708-21.844-22.237-37.458-22.233h-17.129l-7.633-15.267c-4.79-9.621-13.861-16.398-24.446-18.264L281.484,7.129
			C280.798,3.015,277.238,0,273.067,0h-34.133c-4.171,0-7.731,3.015-8.417,7.129l-15.979,95.873
			c-10.584,1.866-19.656,8.643-24.446,18.264l-7.633,15.267h-17.129c-15.614-0.003-29.983,8.525-37.458,22.233L102.4,205.465V159.76
			c5.262-3.024,8.514-8.624,8.533-14.693V59.733c-0.009-9.422-7.645-17.057-17.067-17.067H41.984
			c-8.858,0.047-16.224,6.827-17.004,15.65l-7.113,85.329c-0.397,4.545,1.058,9.058,4.035,12.515
			C24.879,159.618,29.126,161.727,33.68,162.008L33.68,162.008z M85.334,162.133V307.2H43.129l7.633-145.067H85.334z
			 M469.334,477.867c-0.009,9.422-7.645,17.057-17.067,17.067H59.734c-9.422-0.009-17.057-7.645-17.067-17.067v-153.6h426.667
			V477.867z M426.667,238.933v-76.8h34.571l7.633,145.067h-42.204V238.933z M477.125,145.067H456.97l-4.267-85.333h17.31
			L477.125,145.067z M418.134,59.733h17.485l4.267,85.333h-21.752V59.733z M246.163,17.067h19.675l14.223,85.333H231.94
			L246.163,17.067z M205.359,128.9c2.874-5.796,8.793-9.454,15.262-9.433h70.758c6.469-0.021,12.388,3.637,15.262,9.433l3.817,7.633
			H201.542L205.359,128.9z M142.854,166.942c4.484-8.227,13.106-13.345,22.475-13.342h181.342
			c9.369-0.003,17.991,5.115,22.475,13.342l40.454,74.167V307.2H102.4v-66.092L142.854,166.942z M93.879,145.067H72.115
			l4.267-85.333h17.485L93.879,145.067z M41.984,59.733h17.315l-4.267,85.333H34.875L41.984,59.733z"/>
		<path d="M196.267,187.733h119.467c4.713,0,8.533-3.82,8.533-8.533s-3.821-8.533-8.533-8.533H196.267
			c-4.713,0-8.533,3.821-8.533,8.533S191.554,187.733,196.267,187.733z"/>
		<path d="M170.667,221.867h170.667c4.713,0,8.533-3.821,8.533-8.533s-3.821-8.533-8.533-8.533H170.667
			c-4.713,0-8.533,3.82-8.533,8.533S165.954,221.867,170.667,221.867z"/>
		<path d="M145.067,256h221.867c4.713,0,8.533-3.82,8.533-8.533c0-4.713-3.82-8.533-8.533-8.533H145.067
			c-4.713,0-8.533,3.821-8.533,8.533C136.534,252.18,140.354,256,145.067,256z"/>
	</g>
</g>
<g>
</g>
<g>
</g>
<g>
</g>
<g>
</g>
<g>
</g>
<g>
</g>
<g>
</g>
<g>
</g>
<g>
</g>
<g>
</g>
<g>
</g>
<g>
</g>
<g>
</g>
<g>
</g>
<g>
</g>
</svg>
