<?xml version="1.0" encoding="iso-8859-1"?>
<!-- Generator: Adobe Illustrator 19.0.0, SVG Export Plug-In . SVG Version: 6.00 Build 0)  -->
<svg version="1.1" id="Capa_1" xmlns="http://www.w3.org/2000/svg" xmlns:xlink="http://www.w3.org/1999/xlink" x="0px" y="0px"
	 viewBox="0 0 512 512" style="enable-background:new 0 0 512 512;" xml:space="preserve">
<g>
	<g transform="translate(1 1)">
		<path style="fill:#1566C0;" d="M502.467,229.4v179.2c0.009,6.792-2.685,13.309-7.488,18.112s-11.32,7.497-18.112,7.488H33.133
			c-6.792,0.009-13.309-2.685-18.112-7.488s-7.497-11.32-7.488-18.112V229.4l59.051-125.44
			c5.606-11.991,17.654-19.645,30.891-19.627H152.6l17.067-25.6l11.349-17.067l12.629-18.944
			c6.339-9.493,17.001-15.192,28.416-15.189h65.877c11.415-0.003,22.077,5.696,28.416,15.189l6.912,10.411L334.701,50.2
			L357.4,84.333h55.125c13.237-0.019,25.284,7.636,30.891,19.627L502.467,229.4z"/>
		<path style="fill:#2296F3;" d="M476.867,229.4v179.2c0.009,6.792-2.685,13.309-7.488,18.112s-11.32,7.497-18.112,7.488H33.133
			c-6.792,0.009-13.309-2.685-18.112-7.488s-7.497-11.32-7.488-18.112V229.4l59.051-125.44
			c5.606-11.991,17.654-19.645,30.891-19.627H152.6l17.067-25.6l11.349-17.067l12.629-18.944
			c6.339-9.493,17.001-15.192,28.416-15.189h40.277c11.415-0.003,22.077,5.696,28.416,15.189l6.912,10.411L309.101,50.2
			L331.8,84.333h55.125c13.237-0.019,25.284,7.636,30.891,19.627L476.867,229.4z"/>
		<path style="fill:#607D8B;" d="M459.8,383v68.267c-0.014,4.707-3.826,8.519-8.533,8.533h-23.893c-0.597,0-1.195,0.085-1.707,0.085
			c-4.573,0.658-8.707,3.077-11.52,6.741l-24.32,32.427c-1.623,2.134-4.145,3.395-6.827,3.413H118.893
			c-2.92-0.014-5.628-1.529-7.168-4.011l-19.115-30.635c-3.152-4.972-8.62-7.996-14.507-8.021H58.733
			c-0.573-0.01-1.143-0.067-1.707-0.171c-3.978-0.804-6.835-4.304-6.827-8.363V383l32.171-96.597
			c1.203-3.454,4.449-5.777,8.107-5.803h329.045c3.657,0.025,6.904,2.349,8.107,5.803L459.8,383z"/>
		<path style="fill:#CFD8DC;" d="M434.2,383v68.267c0.008,4.058-2.849,7.558-6.827,8.363c-0.563,0.103-1.134,0.16-1.707,0.171H402.2
			c-5.368,0.017-10.419,2.543-13.653,6.827l-24.32,32.427c-1.623,2.134-4.145,3.395-6.827,3.413H118.893
			c-2.92-0.014-5.628-1.529-7.168-4.011l-19.115-30.635c-3.152-4.972-8.62-7.996-14.507-8.021H58.733
			c-0.573-0.01-1.143-0.067-1.707-0.171c-3.978-0.804-6.835-4.304-6.827-8.363V383l32.171-96.597
			c1.203-3.454,4.449-5.777,8.107-5.803h303.445c3.657,0.025,6.904,2.349,8.107,5.803L434.2,383z"/>
		<path style="fill:#607D8B;" d="M459.8,383v68.267c-0.014,4.707-3.826,8.519-8.533,8.533h-23.893c-0.597,0-1.195,0.085-1.707,0.085
			c-4.573,0.658-8.707,3.077-11.52,6.741l-24.32,32.427c-1.623,2.134-4.145,3.395-6.827,3.413H118.893
			c-2.92-0.014-5.628-1.529-7.168-4.011l-19.115-30.635c-3.152-4.972-8.62-7.996-14.507-8.021H58.733
			c-0.573-0.01-1.143-0.067-1.707-0.171c-3.978-0.804-6.835-4.304-6.827-8.363l0-68.267H459.8z"/>
		<path style="fill:#CFD8DC;" d="M434.2,383v68.267c0.008,4.058-2.849,7.558-6.827,8.363c-0.563,0.103-1.134,0.16-1.707,0.171H402.2
			c-5.368,0.017-10.419,2.543-13.653,6.827l-24.32,32.427c-1.623,2.134-4.145,3.395-6.827,3.413H118.893
			c-2.92-0.014-5.628-1.529-7.168-4.011l-19.115-30.635c-3.152-4.972-8.62-7.996-14.507-8.021H58.733
			c-0.573-0.01-1.143-0.067-1.707-0.171c-3.978-0.804-6.835-4.304-6.827-8.363l0-68.267H434.2z"/>
		<path style="fill:#1566C0;" d="M357.4,84.333H152.6l17.067-25.6l11.349-17.067l12.629-18.944
			c6.339-9.493,17.001-15.192,28.416-15.189h65.877c11.415-0.003,22.077,5.696,28.416,15.189l6.912,10.411L334.701,50.2
			L357.4,84.333z"/>
		<path style="fill:#2296F3;" d="M331.8,84.333H152.6l17.067-25.6l11.349-17.067l12.629-18.944
			c6.339-9.493,17.001-15.192,28.416-15.189h40.277c11.415-0.003,22.077,5.696,28.416,15.189l6.912,10.411L309.101,50.2
			L331.8,84.333z"/>
		<path style="fill:#1566C0;" d="M502.467,229.4H7.533l59.051-125.44c5.606-11.991,17.654-19.645,30.891-19.627h315.051
			c13.237-0.019,25.284,7.636,30.891,19.627L502.467,229.4z"/>
		<path style="fill:#2296F3;" d="M476.867,229.4H7.533l59.051-125.44c5.606-11.991,17.654-19.645,30.891-19.627h289.451
			c13.237-0.019,25.284,7.636,30.891,19.627L476.867,229.4z"/>
	</g>
	<g>
		<path d="M375.467,435.2H136.533c-4.713,0-8.533,3.821-8.533,8.533c0,4.713,3.821,8.533,8.533,8.533h238.933
			c4.713,0,8.533-3.821,8.533-8.533C384,439.021,380.18,435.2,375.467,435.2z"/>
		<path d="M34.133,443.733h8.533v8.533c0.009,9.422,7.645,17.057,17.067,17.067h19.375c2.948-0.009,5.689,1.511,7.242,4.017
			l19.104,30.613c3.102,5.013,8.584,8.057,14.479,8.037H384c5.368-0.012,10.42-2.538,13.65-6.825l24.321-32.425
			c1.615-2.146,4.143-3.411,6.829-3.417h23.467c9.422-0.009,17.057-7.645,17.067-17.067v-8.533h8.533
			c18.842-0.022,34.112-15.291,34.133-34.133V230.4c0-0.057-0.032-0.105-0.033-0.162c-0.201-1.113-0.448-2.218-0.74-3.311
			c-0.023-0.052-0.015-0.108-0.04-0.16l-59.042-125.471c-7.075-14.922-22.094-24.452-38.608-24.496h-50.571L324.433,19
			c-7.902-11.882-21.23-19.016-35.5-19h-65.867c-14.27-0.016-27.598,7.118-35.5,19l-38.533,57.8H98.463
			c-16.515,0.044-31.535,9.576-38.608,24.5L0.813,226.767c-0.024,0.052-0.016,0.108-0.04,0.16c-0.189,0.534-0.324,1.085-0.404,1.645
			c-0.167,0.543-0.28,1.101-0.336,1.666C0.032,230.295,0,230.343,0,230.4v179.2C0.022,428.442,15.291,443.712,34.133,443.733z
			 M63.04,375.467l28.443-85.333h329.033l28.443,85.333H63.04z M452.267,452.267H428.8c-8.052,0.019-15.631,3.808-20.479,10.238
			L384,494.933h-17.067V486.4c0-4.713-3.82-8.533-8.533-8.533s-8.533,3.82-8.533,8.533v8.533h-25.6V486.4
			c0-4.713-3.821-8.533-8.533-8.533s-8.533,3.82-8.533,8.533v8.533h-25.6V486.4c0-4.713-3.82-8.533-8.533-8.533
			s-8.533,3.82-8.533,8.533v8.533h-25.6V486.4c0-4.713-3.82-8.533-8.533-8.533s-8.533,3.82-8.533,8.533v8.533h-25.6V486.4
			c0-4.713-3.821-8.533-8.533-8.533s-8.533,3.82-8.533,8.533v8.533h-25.6V486.4c0-4.713-3.821-8.533-8.533-8.533
			c-4.713,0-8.533,3.82-8.533,8.533v8.533h-16.6l-19.104-30.617c-4.656-7.516-12.879-12.078-21.721-12.05H59.733v-59.733h34.133
			v8.533c0,4.713,3.821,8.533,8.533,8.533c4.713,0,8.533-3.82,8.533-8.533v-8.533h25.6v8.533c0,4.713,3.821,8.533,8.533,8.533
			c4.713,0,8.533-3.82,8.533-8.533v-8.533h25.6v8.533c0,4.713,3.82,8.533,8.533,8.533s8.533-3.82,8.533-8.533v-8.533h25.6v8.533
			c0,4.713,3.821,8.533,8.533,8.533s8.533-3.82,8.533-8.533v-8.533h25.6v8.533c0,4.713,3.82,8.533,8.533,8.533
			s8.533-3.82,8.533-8.533v-8.533h25.6v8.533c0,4.713,3.82,8.533,8.533,8.533s8.533-3.82,8.533-8.533v-8.533h25.6v8.533
			c0,4.713,3.821,8.533,8.533,8.533s8.533-3.82,8.533-8.533v-8.533h25.6v8.533c0,4.713,3.82,8.533,8.533,8.533
			s8.533-3.82,8.533-8.533v-8.533h42.667V452.267z M494.933,409.6c-0.009,9.422-7.645,17.057-17.067,17.067h-8.533V384
			c-0.215-0.887-0.361-1.79-0.438-2.7l-32.188-96.567c-2.32-6.971-8.844-11.673-16.191-11.667H91.483
			c-7.347-0.006-13.872,4.695-16.192,11.667L43.104,381.3c-0.076,0.91-0.223,1.813-0.437,2.7v42.667h-8.533
			c-9.422-0.009-17.057-7.645-17.067-17.067V238.933h477.867V409.6z M180.922,59.733h32.411c4.713,0,8.533-3.821,8.533-8.533
			s-3.82-8.533-8.533-8.533H192.3l9.467-14.2c4.741-7.129,12.738-11.409,21.3-11.4h65.867c8.562-0.009,16.559,4.271,21.3,11.4
			l3.778,5.667h-23.878c-4.713,0-8.533,3.821-8.533,8.533s3.821,8.533,8.533,8.533h35.256l17.067,25.6H169.544L180.922,59.733z
			 M75.296,108.571c4.243-8.957,13.256-14.677,23.167-14.704h315.075c9.91,0.027,18.922,5.746,23.167,14.7l53.316,113.3H21.98
			L75.296,108.571z"/>
	</g>
</g>
<g>
</g>
<g>
</g>
<g>
</g>
<g>
</g>
<g>
</g>
<g>
</g>
<g>
</g>
<g>
</g>
<g>
</g>
<g>
</g>
<g>
</g>
<g>
</g>
<g>
</g>
<g>
</g>
<g>
</g>
</svg>
